<svg viewBox="0 0 1000.000000 870.084778" xmlns="http://www.w3.org/2000/svg" version="1.1">
<!-- SEED 2913163142 -->
<rect width="1000.000000" height="870.084778" fill="#FFBB44" fill-opacity="1.000000"/>
<g transform="scale(13.812155,13.632224) translate(4.200000,59.625595) ">
<path stroke="#000000" stroke-opacity="1.000000" stroke-width="0.100000" fill="none" fill-opacity="1" d="M0.00 0.00 L1.00 0.00 L0.50 -0.87 L1.50 -0.87 L1.00 0.00 L2.00 0.00 L1.50 -0.87 L1.00 -1.73 L2.00 -1.73 L1.50 -2.60 L2.50 -2.60 L2.00 -1.73 L3.00 -1.73 L2.50 -0.87 L2.00 0.00 L3.00 0.00 L2.50 -0.87 L3.50 -0.87 L3.00 0.00 L4.00 0.00 L3.50 -0.87 L3.00 -1.73 L2.50 -2.60 L2.00 -3.46 L3.00 -3.46 L2.50 -4.33 L3.50 -4.33 L3.00 -3.46 L4.00 -3.46 L3.50 -4.33 L3.00 -5.20 L4.00 -5.20 L3.50 -6.06 L4.50 -6.06 L4.00 -5.20 L5.00 -5.20 L4.50 -4.33 L4.00 -3.46 L5.00 -3.46 L4.50 -4.33 L5.50 -4.33 L5.00 -3.46 L6.00 -3.46 L5.50 -2.60 L5.00 -1.73 L4.50 -0.87 L4.00 0.00 L5.00 0.00 L4.50 -0.87 L5.50 -0.87 L5.00 0.00 L6.00 0.00 L5.50 -0.87 L5.00 -1.73 L6.00 -1.73 L5.50 -2.60 L6.50 -2.60 L6.00 -1.73 L7.00 -1.73 L6.50 -0.87 L6.00 0.00 L7.00 0.00 L6.50 -0.87 L7.50 -0.87 L7.00 0.00 L8.00 0.00 L7.50 -0.87 L7.00 -1.73 L6.50 -2.60 L6.00 -3.46 L5.50 -4.33 L5.00 -5.20 L4.50 -6.06 L4.00 -6.93 L5.00 -6.93 L4.50 -7.79 L5.50 -7.79 L5.00 -6.93 L6.00 -6.93 L5.50 -7.79 L5.00 -8.66 L6.00 -8.66 L5.50 -9.53 L6.50 -9.53 L6.00 -8.66 L7.00 -8.66 L6.50 -7.79 L6.00 -6.93 L7.00 -6.93 L6.50 -7.79 L7.50 -7.79 L7.00 -6.93 L8.00 -6.93 L7.50 -7.79 L7.00 -8.66 L6.50 -9.53 L6.00 -10.39 L7.00 -10.39 L6.50 -11.26 L7.50 -11.26 L7.00 -10.39 L8.00 -10.39 L7.50 -11.26 L7.00 -12.12 L8.00 -12.12 L7.50 -12.99 L8.50 -12.99 L8.00 -12.12 L9.00 -12.12 L8.50 -11.26 L8.00 -10.39 L9.00 -10.39 L8.50 -11.26 L9.50 -11.26 L9.00 -10.39 L10.00 -10.39 L9.50 -9.53 L9.00 -8.66 L8.50 -7.79 L8.00 -6.93 L9.00 -6.93 L8.50 -7.79 L9.50 -7.79 L9.00 -6.93 L10.00 -6.93 L9.50 -7.79 L9.00 -8.66 L10.00 -8.66 L9.50 -9.53 L10.50 -9.53 L10.00 -8.66 L11.00 -8.66 L10.50 -7.79 L10.00 -6.93 L11.00 -6.93 L10.50 -7.79 L11.50 -7.79 L11.00 -6.93 L12.00 -6.93 L11.50 -6.06 L11.00 -5.20 L10.50 -4.33 L10.00 -3.46 L9.50 -2.60 L9.00 -1.73 L8.50 -0.87 L8.00 0.00 L9.00 0.00 L8.50 -0.87 L9.50 -0.87 L9.00 0.00 L10.00 0.00 L9.50 -0.87 L9.00 -1.73 L10.00 -1.73 L9.50 -2.60 L10.50 -2.60 L10.00 -1.73 L11.00 -1.73 L10.50 -0.87 L10.00 0.00 L11.00 0.00 L10.50 -0.87 L11.50 -0.87 L11.00 0.00 L12.00 0.00 L11.50 -0.87 L11.00 -1.73 L10.50 -2.60 L10.00 -3.46 L11.00 -3.46 L10.50 -4.33 L11.50 -4.33 L11.00 -3.46 L12.00 -3.46 L11.50 -4.33 L11.00 -5.20 L12.00 -5.20 L11.50 -6.06 L12.50 -6.06 L12.00 -5.20 L13.00 -5.20 L12.50 -4.33 L12.00 -3.46 L13.00 -3.46 L12.50 -4.33 L13.50 -4.33 L13.00 -3.46 L14.00 -3.46 L13.50 -2.60 L13.00 -1.73 L12.50 -0.87 L12.00 0.00 L13.00 0.00 L12.50 -0.87 L13.50 -0.87 L13.00 0.00 L14.00 0.00 L13.50 -0.87 L13.00 -1.73 L14.00 -1.73 L13.50 -2.60 L14.50 -2.60 L14.00 -1.73 L15.00 -1.73 L14.50 -0.87 L14.00 0.00 L15.00 0.00 L14.50 -0.87 L15.50 -0.87 L15.00 0.00 L16.00 0.00 L15.50 -0.87 L15.00 -1.73 L14.50 -2.60 L14.00 -3.46 L13.50 -4.33 L13.00 -5.20 L12.50 -6.06 L12.00 -6.93 L11.50 -7.79 L11.00 -8.66 L10.50 -9.53 L10.00 -10.39 L9.50 -11.26 L9.00 -12.12 L8.50 -12.99 L8.00 -13.86 L9.00 -13.86 L8.50 -14.72 L9.50 -14.72 L9.00 -13.86 L10.00 -13.86 L9.50 -14.72 L9.00 -15.59 L10.00 -15.59 L9.50 -16.45 L10.50 -16.45 L10.00 -15.59 L11.00 -15.59 L10.50 -14.72 L10.00 -13.86 L11.00 -13.86 L10.50 -14.72 L11.50 -14.72 L11.00 -13.86 L12.00 -13.86 L11.50 -14.72 L11.00 -15.59 L10.50 -16.45 L10.00 -17.32 L11.00 -17.32 L10.50 -18.19 L11.50 -18.19 L11.00 -17.32 L12.00 -17.32 L11.50 -18.19 L11.00 -19.05 L12.00 -19.05 L11.50 -19.92 L12.50 -19.92 L12.00 -19.05 L13.00 -19.05 L12.50 -18.19 L12.00 -17.32 L13.00 -17.32 L12.50 -18.19 L13.50 -18.19 L13.00 -17.32 L14.00 -17.32 L13.50 -16.45 L13.00 -15.59 L12.50 -14.72 L12.00 -13.86 L13.00 -13.86 L12.50 -14.72 L13.50 -14.72 L13.00 -13.86 L14.00 -13.86 L13.50 -14.72 L13.00 -15.59 L14.00 -15.59 L13.50 -16.45 L14.50 -16.45 L14.00 -15.59 L15.00 -15.59 L14.50 -14.72 L14.00 -13.86 L15.00 -13.86 L14.50 -14.72 L15.50 -14.72 L15.00 -13.86 L16.00 -13.86 L15.50 -14.72 L15.00 -15.59 L14.50 -16.45 L14.00 -17.32 L13.50 -18.19 L13.00 -19.05 L12.50 -19.92 L12.00 -20.78 L13.00 -20.78 L12.50 -21.65 L13.50 -21.65 L13.00 -20.78 L14.00 -20.78 L13.50 -21.65 L13.00 -22.52 L14.00 -22.52 L13.50 -23.38 L14.50 -23.38 L14.00 -22.52 L15.00 -22.52 L14.50 -21.65 L14.00 -20.78 L15.00 -20.78 L14.50 -21.65 L15.50 -21.65 L15.00 -20.78 L16.00 -20.78 L15.50 -21.65 L15.00 -22.52 L14.50 -23.38 L14.00 -24.25 L15.00 -24.25 L14.50 -25.11 L15.50 -25.11 L15.00 -24.25 L16.00 -24.25 L15.50 -25.11 L15.00 -25.98 L16.00 -25.98 L15.50 -26.85 L16.50 -26.85 L16.00 -25.98 L17.00 -25.98 L16.50 -25.11 L16.00 -24.25 L17.00 -24.25 L16.50 -25.11 L17.50 -25.11 L17.00 -24.25 L18.00 -24.25 L17.50 -23.38 L17.00 -22.52 L16.50 -21.65 L16.00 -20.78 L17.00 -20.78 L16.50 -21.65 L17.50 -21.65 L17.00 -20.78 L18.00 -20.78 L17.50 -21.65 L17.00 -22.52 L18.00 -22.52 L17.50 -23.38 L18.50 -23.38 L18.00 -22.52 L19.00 -22.52 L18.50 -21.65 L18.00 -20.78 L19.00 -20.78 L18.50 -21.65 L19.50 -21.65 L19.00 -20.78 L20.00 -20.78 L19.50 -19.92 L19.00 -19.05 L18.50 -18.19 L18.00 -17.32 L17.50 -16.45 L17.00 -15.59 L16.50 -14.72 L16.00 -13.86 L17.00 -13.86 L16.50 -14.72 L17.50 -14.72 L17.00 -13.86 L18.00 -13.86 L17.50 -14.72 L17.00 -15.59 L18.00 -15.59 L17.50 -16.45 L18.50 -16.45 L18.00 -15.59 L19.00 -15.59 L18.50 -14.72 L18.00 -13.86 L19.00 -13.86 L18.50 -14.72 L19.50 -14.72 L19.00 -13.86 L20.00 -13.86 L19.50 -14.72 L19.00 -15.59 L18.50 -16.45 L18.00 -17.32 L19.00 -17.32 L18.50 -18.19 L19.50 -18.19 L19.00 -17.32 L20.00 -17.32 L19.50 -18.19 L19.00 -19.05 L20.00 -19.05 L19.50 -19.92 L20.50 -19.92 L20.00 -19.05 L21.00 -19.05 L20.50 -18.19 L20.00 -17.32 L21.00 -17.32 L20.50 -18.19 L21.50 -18.19 L21.00 -17.32 L22.00 -17.32 L21.50 -16.45 L21.00 -15.59 L20.50 -14.72 L20.00 -13.86 L21.00 -13.86 L20.50 -14.72 L21.50 -14.72 L21.00 -13.86 L22.00 -13.86 L21.50 -14.72 L21.00 -15.59 L22.00 -15.59 L21.50 -16.45 L22.50 -16.45 L22.00 -15.59 L23.00 -15.59 L22.50 -14.72 L22.00 -13.86 L23.00 -13.86 L22.50 -14.72 L23.50 -14.72 L23.00 -13.86 L24.00 -13.86 L23.50 -12.99 L23.00 -12.12 L22.50 -11.26 L22.00 -10.39 L21.50 -9.53 L21.00 -8.66 L20.50 -7.79 L20.00 -6.93 L19.50 -6.06 L19.00 -5.20 L18.50 -4.33 L18.00 -3.46 L17.50 -2.60 L17.00 -1.73 L16.50 -0.87 L16.00 -0.00 L17.00 -0.00 L16.50 -0.87 L17.50 -0.87 L17.00 -0.00 L18.00 -0.00 L17.50 -0.87 L17.00 -1.73 L18.00 -1.73 L17.50 -2.60 L18.50 -2.60 L18.00 -1.73 L19.00 -1.73 L18.50 -0.87 L18.00 -0.00 L19.00 -0.00 L18.50 -0.87 L19.50 -0.87 L19.00 -0.00 L20.00 -0.00 L19.50 -0.87 L19.00 -1.73 L18.50 -2.60 L18.00 -3.46 L19.00 -3.46 L18.50 -4.33 L19.50 -4.33 L19.00 -3.46 L20.00 -3.46 L19.50 -4.33 L19.00 -5.20 L20.00 -5.20 L19.50 -6.06 L20.50 -6.06 L20.00 -5.20 L21.00 -5.20 L20.50 -4.33 L20.00 -3.46 L21.00 -3.46 L20.50 -4.33 L21.50 -4.33 L21.00 -3.46 L22.00 -3.46 L21.50 -2.60 L21.00 -1.73 L20.50 -0.87 L20.00 -0.00 L21.00 -0.00 L20.50 -0.87 L21.50 -0.87 L21.00 -0.00 L22.00 -0.00 L21.50 -0.87 L21.00 -1.73 L22.00 -1.73 L21.50 -2.60 L22.50 -2.60 L22.00 -1.73 L23.00 -1.73 L22.50 -0.87 L22.00 -0.00 L23.00 -0.00 L22.50 -0.87 L23.50 -0.87 L23.00 -0.00 L24.00 -0.00 L23.50 -0.87 L23.00 -1.73 L22.50 -2.60 L22.00 -3.46 L21.50 -4.33 L21.00 -5.20 L20.50 -6.06 L20.00 -6.93 L21.00 -6.93 L20.50 -7.79 L21.50 -7.79 L21.00 -6.93 L22.00 -6.93 L21.50 -7.79 L21.00 -8.66 L22.00 -8.66 L21.50 -9.53 L22.50 -9.53 L22.00 -8.66 L23.00 -8.66 L22.50 -7.79 L22.00 -6.93 L23.00 -6.93 L22.50 -7.79 L23.50 -7.79 L23.00 -6.93 L24.00 -6.93 L23.50 -7.79 L23.00 -8.66 L22.50 -9.53 L22.00 -10.39 L23.00 -10.39 L22.50 -11.26 L23.50 -11.26 L23.00 -10.39 L24.00 -10.39 L23.50 -11.26 L23.00 -12.12 L24.00 -12.12 L23.50 -12.99 L24.50 -12.99 L24.00 -12.12 L25.00 -12.12 L24.50 -11.26 L24.00 -10.39 L25.00 -10.39 L24.50 -11.26 L25.50 -11.26 L25.00 -10.39 L26.00 -10.39 L25.50 -9.53 L25.00 -8.66 L24.50 -7.79 L24.00 -6.93 L25.00 -6.93 L24.50 -7.79 L25.50 -7.79 L25.00 -6.93 L26.00 -6.93 L25.50 -7.79 L25.00 -8.66 L26.00 -8.66 L25.50 -9.53 L26.50 -9.53 L26.00 -8.66 L27.00 -8.66 L26.50 -7.79 L26.00 -6.93 L27.00 -6.93 L26.50 -7.79 L27.50 -7.79 L27.00 -6.93 L28.00 -6.93 L27.50 -6.06 L27.00 -5.20 L26.50 -4.33 L26.00 -3.46 L25.50 -2.60 L25.00 -1.73 L24.50 -0.87 L24.00 -0.00 L25.00 -0.00 L24.50 -0.87 L25.50 -0.87 L25.00 -0.00 L26.00 -0.00 L25.50 -0.87 L25.00 -1.73 L26.00 -1.73 L25.50 -2.60 L26.50 -2.60 L26.00 -1.73 L27.00 -1.73 L26.50 -0.87 L26.00 -0.00 L27.00 -0.00 L26.50 -0.87 L27.50 -0.87 L27.00 -0.00 L28.00 -0.00 L27.50 -0.87 L27.00 -1.73 L26.50 -2.60 L26.00 -3.46 L27.00 -3.46 L26.50 -4.33 L27.50 -4.33 L27.00 -3.46 L28.00 -3.46 L27.50 -4.33 L27.00 -5.20 L28.00 -5.20 L27.50 -6.06 L28.50 -6.06 L28.00 -5.20 L29.00 -5.20 L28.50 -4.33 L28.00 -3.46 L29.00 -3.46 L28.50 -4.33 L29.50 -4.33 L29.00 -3.46 L30.00 -3.46 L29.50 -2.60 L29.00 -1.73 L28.50 -0.87 L28.00 -0.00 L29.00 -0.00 L28.50 -0.87 L29.50 -0.87 L29.00 -0.00 L30.00 -0.00 L29.50 -0.87 L29.00 -1.73 L30.00 -1.73 L29.50 -2.60 L30.50 -2.60 L30.00 -1.73 L31.00 -1.73 L30.50 -0.87 L30.00 -0.00 L31.00 -0.00 L30.50 -0.87 L31.50 -0.87 L31.00 -0.00 L32.00 -0.00 L31.50 -0.87 L31.00 -1.73 L30.50 -2.60 L30.00 -3.46 L29.50 -4.33 L29.00 -5.20 L28.50 -6.06 L28.00 -6.93 L27.50 -7.79 L27.00 -8.66 L26.50 -9.53 L26.00 -10.39 L25.50 -11.26 L25.00 -12.12 L24.50 -12.99 L24.00 -13.86 L23.50 -14.72 L23.00 -15.59 L22.50 -16.45 L22.00 -17.32 L21.50 -18.19 L21.00 -19.05 L20.50 -19.92 L20.00 -20.78 L19.50 -21.65 L19.00 -22.52 L18.50 -23.38 L18.00 -24.25 L17.50 -25.11 L17.00 -25.98 L16.50 -26.85 L16.00 -27.71 L17.00 -27.71 L16.50 -28.58 L17.50 -28.58 L17.00 -27.71 L18.00 -27.71 L17.50 -28.58 L17.00 -29.44 L18.00 -29.44 L17.50 -30.31 L18.50 -30.31 L18.00 -29.44 L19.00 -29.44 L18.50 -28.58 L18.00 -27.71 L19.00 -27.71 L18.50 -28.58 L19.50 -28.58 L19.00 -27.71 L20.00 -27.71 L19.50 -28.58 L19.00 -29.44 L18.50 -30.31 L18.00 -31.18 L19.00 -31.18 L18.50 -32.04 L19.50 -32.04 L19.00 -31.18 L20.00 -31.18 L19.50 -32.04 L19.00 -32.91 L20.00 -32.91 L19.50 -33.77 L20.50 -33.77 L20.00 -32.91 L21.00 -32.91 L20.50 -32.04 L20.00 -31.18 L21.00 -31.18 L20.50 -32.04 L21.50 -32.04 L21.00 -31.18 L22.00 -31.18 L21.50 -30.31 L21.00 -29.44 L20.50 -28.58 L20.00 -27.71 L21.00 -27.71 L20.50 -28.58 L21.50 -28.58 L21.00 -27.71 L22.00 -27.71 L21.50 -28.58 L21.00 -29.44 L22.00 -29.44 L21.50 -30.31 L22.50 -30.31 L22.00 -29.44 L23.00 -29.44 L22.50 -28.58 L22.00 -27.71 L23.00 -27.71 L22.50 -28.58 L23.50 -28.58 L23.00 -27.71 L24.00 -27.71 L23.50 -28.58 L23.00 -29.44 L22.50 -30.31 L22.00 -31.18 L21.50 -32.04 L21.00 -32.91 L20.50 -33.77 L20.00 -34.64 L21.00 -34.64 L20.50 -35.51 L21.50 -35.51 L21.00 -34.64 L22.00 -34.64 L21.50 -35.51 L21.00 -36.37 L22.00 -36.37 L21.50 -37.24 L22.50 -37.24 L22.00 -36.37 L23.00 -36.37 L22.50 -35.51 L22.00 -34.64 L23.00 -34.64 L22.50 -35.51 L23.50 -35.51 L23.00 -34.64 L24.00 -34.64 L23.50 -35.51 L23.00 -36.37 L22.50 -37.24 L22.00 -38.11 L23.00 -38.11 L22.50 -38.97 L23.50 -38.97 L23.00 -38.11 L24.00 -38.11 L23.50 -38.97 L23.00 -39.84 L24.00 -39.84 L23.50 -40.70 L24.50 -40.70 L24.00 -39.84 L25.00 -39.84 L24.50 -38.97 L24.00 -38.11 L25.00 -38.11 L24.50 -38.97 L25.50 -38.97 L25.00 -38.11 L26.00 -38.11 L25.50 -37.24 L25.00 -36.37 L24.50 -35.51 L24.00 -34.64 L25.00 -34.64 L24.50 -35.51 L25.50 -35.51 L25.00 -34.64 L26.00 -34.64 L25.50 -35.51 L25.00 -36.37 L26.00 -36.37 L25.50 -37.24 L26.50 -37.24 L26.00 -36.37 L27.00 -36.37 L26.50 -35.51 L26.00 -34.64 L27.00 -34.64 L26.50 -35.51 L27.50 -35.51 L27.00 -34.64 L28.00 -34.64 L27.50 -33.77 L27.00 -32.91 L26.50 -32.04 L26.00 -31.18 L25.50 -30.31 L25.00 -29.44 L24.50 -28.58 L24.00 -27.71 L25.00 -27.71 L24.50 -28.58 L25.50 -28.58 L25.00 -27.71 L26.00 -27.71 L25.50 -28.58 L25.00 -29.44 L26.00 -29.44 L25.50 -30.31 L26.50 -30.31 L26.00 -29.44 L27.00 -29.44 L26.50 -28.58 L26.00 -27.71 L27.00 -27.71 L26.50 -28.58 L27.50 -28.58 L27.00 -27.71 L28.00 -27.71 L27.50 -28.58 L27.00 -29.44 L26.50 -30.31 L26.00 -31.18 L27.00 -31.18 L26.50 -32.04 L27.50 -32.04 L27.00 -31.18 L28.00 -31.18 L27.50 -32.04 L27.00 -32.91 L28.00 -32.91 L27.50 -33.77 L28.50 -33.77 L28.00 -32.91 L29.00 -32.91 L28.50 -32.04 L28.00 -31.18 L29.00 -31.18 L28.50 -32.04 L29.50 -32.04 L29.00 -31.18 L30.00 -31.18 L29.50 -30.31 L29.00 -29.44 L28.50 -28.58 L28.00 -27.71 L29.00 -27.71 L28.50 -28.58 L29.50 -28.58 L29.00 -27.71 L30.00 -27.71 L29.50 -28.58 L29.00 -29.44 L30.00 -29.44 L29.50 -30.31 L30.50 -30.31 L30.00 -29.44 L31.00 -29.44 L30.50 -28.58 L30.00 -27.71 L31.00 -27.71 L30.50 -28.58 L31.50 -28.58 L31.00 -27.71 L32.00 -27.71 L31.50 -28.58 L31.00 -29.44 L30.50 -30.31 L30.00 -31.18 L29.50 -32.04 L29.00 -32.91 L28.50 -33.77 L28.00 -34.64 L27.50 -35.51 L27.00 -36.37 L26.50 -37.24 L26.00 -38.11 L25.50 -38.97 L25.00 -39.84 L24.50 -40.70 L24.00 -41.57 L25.00 -41.57 L24.50 -42.44 L25.50 -42.44 L25.00 -41.57 L26.00 -41.57 L25.50 -42.44 L25.00 -43.30 L26.00 -43.30 L25.50 -44.17 L26.50 -44.17 L26.00 -43.30 L27.00 -43.30 L26.50 -42.44 L26.00 -41.57 L27.00 -41.57 L26.50 -42.44 L27.50 -42.44 L27.00 -41.57 L28.00 -41.57 L27.50 -42.44 L27.00 -43.30 L26.50 -44.17 L26.00 -45.03 L27.00 -45.03 L26.50 -45.90 L27.50 -45.90 L27.00 -45.03 L28.00 -45.03 L27.50 -45.90 L27.00 -46.77 L28.00 -46.77 L27.50 -47.63 L28.50 -47.63 L28.00 -46.77 L29.00 -46.77 L28.50 -45.90 L28.00 -45.03 L29.00 -45.03 L28.50 -45.90 L29.50 -45.90 L29.00 -45.03 L30.00 -45.03 L29.50 -44.17 L29.00 -43.30 L28.50 -42.44 L28.00 -41.57 L29.00 -41.57 L28.50 -42.44 L29.50 -42.44 L29.00 -41.57 L30.00 -41.57 L29.50 -42.44 L29.00 -43.30 L30.00 -43.30 L29.50 -44.17 L30.50 -44.17 L30.00 -43.30 L31.00 -43.30 L30.50 -42.44 L30.00 -41.57 L31.00 -41.57 L30.50 -42.44 L31.50 -42.44 L31.00 -41.57 L32.00 -41.57 L31.50 -42.44 L31.00 -43.30 L30.50 -44.17 L30.00 -45.03 L29.50 -45.90 L29.00 -46.77 L28.50 -47.63 L28.00 -48.50 L29.00 -48.50 L28.50 -49.36 L29.50 -49.36 L29.00 -48.50 L30.00 -48.50 L29.50 -49.36 L29.00 -50.23 L30.00 -50.23 L29.50 -51.10 L30.50 -51.10 L30.00 -50.23 L31.00 -50.23 L30.50 -49.36 L30.00 -48.50 L31.00 -48.50 L30.50 -49.36 L31.50 -49.36 L31.00 -48.50 L32.00 -48.50 L31.50 -49.36 L31.00 -50.23 L30.50 -51.10 L30.00 -51.96 L31.00 -51.96 L30.50 -52.83 L31.50 -52.83 L31.00 -51.96 L32.00 -51.96 L31.50 -52.83 L31.00 -53.69 L32.00 -53.69 L31.50 -54.56 L32.50 -54.56 L32.00 -53.69 L33.00 -53.69 L32.50 -52.83 L32.00 -51.96 L33.00 -51.96 L32.50 -52.83 L33.50 -52.83 L33.00 -51.96 L34.00 -51.96 L33.50 -51.10 L33.00 -50.23 L32.50 -49.36 L32.00 -48.50 L33.00 -48.50 L32.50 -49.36 L33.50 -49.36 L33.00 -48.50 L34.00 -48.50 L33.50 -49.36 L33.00 -50.23 L34.00 -50.23 L33.50 -51.10 L34.50 -51.10 L34.00 -50.23 L35.00 -50.23 L34.50 -49.36 L34.00 -48.50 L35.00 -48.50 L34.50 -49.36 L35.50 -49.36 L35.00 -48.50 L36.00 -48.50 L35.50 -47.63 L35.00 -46.77 L34.50 -45.90 L34.00 -45.03 L33.50 -44.17 L33.00 -43.30 L32.50 -42.44 L32.00 -41.57 L33.00 -41.57 L32.50 -42.44 L33.50 -42.44 L33.00 -41.57 L34.00 -41.57 L33.50 -42.44 L33.00 -43.30 L34.00 -43.30 L33.50 -44.17 L34.50 -44.17 L34.00 -43.30 L35.00 -43.30 L34.50 -42.44 L34.00 -41.57 L35.00 -41.57 L34.50 -42.44 L35.50 -42.44 L35.00 -41.57 L36.00 -41.57 L35.50 -42.44 L35.00 -43.30 L34.50 -44.17 L34.00 -45.03 L35.00 -45.03 L34.50 -45.90 L35.50 -45.90 L35.00 -45.03 L36.00 -45.03 L35.50 -45.90 L35.00 -46.77 L36.00 -46.77 L35.50 -47.63 L36.50 -47.63 L36.00 -46.77 L37.00 -46.77 L36.50 -45.90 L36.00 -45.03 L37.00 -45.03 L36.50 -45.90 L37.50 -45.90 L37.00 -45.03 L38.00 -45.03 L37.50 -44.17 L37.00 -43.30 L36.50 -42.44 L36.00 -41.57 L37.00 -41.57 L36.50 -42.44 L37.50 -42.44 L37.00 -41.57 L38.00 -41.57 L37.50 -42.44 L37.00 -43.30 L38.00 -43.30 L37.50 -44.17 L38.50 -44.17 L38.00 -43.30 L39.00 -43.30 L38.50 -42.44 L38.00 -41.57 L39.00 -41.57 L38.50 -42.44 L39.50 -42.44 L39.00 -41.57 L40.00 -41.57 L39.50 -40.70 L39.00 -39.84 L38.50 -38.97 L38.00 -38.11 L37.50 -37.24 L37.00 -36.37 L36.50 -35.51 L36.00 -34.64 L35.50 -33.77 L35.00 -32.91 L34.50 -32.04 L34.00 -31.18 L33.50 -30.31 L33.00 -29.44 L32.50 -28.58 L32.00 -27.71 L33.00 -27.71 L32.50 -28.58 L33.50 -28.58 L33.00 -27.71 L34.00 -27.71 L33.50 -28.58 L33.00 -29.44 L34.00 -29.44 L33.50 -30.31 L34.50 -30.31 L34.00 -29.44 L35.00 -29.44 L34.50 -28.58 L34.00 -27.71 L35.00 -27.71 L34.50 -28.58 L35.50 -28.58 L35.00 -27.71 L36.00 -27.71 L35.50 -28.58 L35.00 -29.44 L34.50 -30.31 L34.00 -31.18 L35.00 -31.18 L34.50 -32.04 L35.50 -32.04 L35.00 -31.18 L36.00 -31.18 L35.50 -32.04 L35.00 -32.91 L36.00 -32.91 L35.50 -33.77 L36.50 -33.77 L36.00 -32.91 L37.00 -32.91 L36.50 -32.04 L36.00 -31.18 L37.00 -31.18 L36.50 -32.04 L37.50 -32.04 L37.00 -31.18 L38.00 -31.18 L37.50 -30.31 L37.00 -29.44 L36.50 -28.58 L36.00 -27.71 L37.00 -27.71 L36.50 -28.58 L37.50 -28.58 L37.00 -27.71 L38.00 -27.71 L37.50 -28.58 L37.00 -29.44 L38.00 -29.44 L37.50 -30.31 L38.50 -30.31 L38.00 -29.44 L39.00 -29.44 L38.50 -28.58 L38.00 -27.71 L39.00 -27.71 L38.50 -28.58 L39.50 -28.58 L39.00 -27.71 L40.00 -27.71 L39.50 -28.58 L39.00 -29.44 L38.50 -30.31 L38.00 -31.18 L37.50 -32.04 L37.00 -32.91 L36.50 -33.77 L36.00 -34.64 L37.00 -34.64 L36.50 -35.51 L37.50 -35.51 L37.00 -34.64 L38.00 -34.64 L37.50 -35.51 L37.00 -36.37 L38.00 -36.37 L37.50 -37.24 L38.50 -37.24 L38.00 -36.37 L39.00 -36.37 L38.50 -35.51 L38.00 -34.64 L39.00 -34.64 L38.50 -35.51 L39.50 -35.51 L39.00 -34.64 L40.00 -34.64 L39.50 -35.51 L39.00 -36.37 L38.50 -37.24 L38.00 -38.11 L39.00 -38.11 L38.50 -38.97 L39.50 -38.97 L39.00 -38.11 L40.00 -38.11 L39.50 -38.97 L39.00 -39.84 L40.00 -39.84 L39.50 -40.70 L40.50 -40.70 L40.00 -39.84 L41.00 -39.84 L40.50 -38.97 L40.00 -38.11 L41.00 -38.11 L40.50 -38.97 L41.50 -38.97 L41.00 -38.11 L42.00 -38.11 L41.50 -37.24 L41.00 -36.37 L40.50 -35.51 L40.00 -34.64 L41.00 -34.64 L40.50 -35.51 L41.50 -35.51 L41.00 -34.64 L42.00 -34.64 L41.50 -35.51 L41.00 -36.37 L42.00 -36.37 L41.50 -37.24 L42.50 -37.24 L42.00 -36.37 L43.00 -36.37 L42.50 -35.51 L42.00 -34.64 L43.00 -34.64 L42.50 -35.51 L43.50 -35.51 L43.00 -34.64 L44.00 -34.64 L43.50 -33.77 L43.00 -32.91 L42.50 -32.04 L42.00 -31.18 L41.50 -30.31 L41.00 -29.44 L40.50 -28.58 L40.00 -27.71 L41.00 -27.71 L40.50 -28.58 L41.50 -28.58 L41.00 -27.71 L42.00 -27.71 L41.50 -28.58 L41.00 -29.44 L42.00 -29.44 L41.50 -30.31 L42.50 -30.31 L42.00 -29.44 L43.00 -29.44 L42.50 -28.58 L42.00 -27.71 L43.00 -27.71 L42.50 -28.58 L43.50 -28.58 L43.00 -27.71 L44.00 -27.71 L43.50 -28.58 L43.00 -29.44 L42.50 -30.31 L42.00 -31.18 L43.00 -31.18 L42.50 -32.04 L43.50 -32.04 L43.00 -31.18 L44.00 -31.18 L43.50 -32.04 L43.00 -32.91 L44.00 -32.91 L43.50 -33.77 L44.50 -33.77 L44.00 -32.91 L45.00 -32.91 L44.50 -32.04 L44.00 -31.18 L45.00 -31.18 L44.50 -32.04 L45.50 -32.04 L45.00 -31.18 L46.00 -31.18 L45.50 -30.31 L45.00 -29.44 L44.50 -28.58 L44.00 -27.71 L45.00 -27.71 L44.50 -28.58 L45.50 -28.58 L45.00 -27.71 L46.00 -27.71 L45.50 -28.58 L45.00 -29.44 L46.00 -29.44 L45.50 -30.31 L46.50 -30.31 L46.00 -29.44 L47.00 -29.44 L46.50 -28.58 L46.00 -27.71 L47.00 -27.71 L46.50 -28.58 L47.50 -28.58 L47.00 -27.71 L48.00 -27.71 L47.50 -26.85 L47.00 -25.98 L46.50 -25.11 L46.00 -24.25 L45.50 -23.38 L45.00 -22.52 L44.50 -21.65 L44.00 -20.78 L43.50 -19.92 L43.00 -19.05 L42.50 -18.19 L42.00 -17.32 L41.50 -16.45 L41.00 -15.59 L40.50 -14.72 L40.00 -13.86 L39.50 -12.99 L39.00 -12.12 L38.50 -11.26 L38.00 -10.39 L37.50 -9.53 L37.00 -8.66 L36.50 -7.79 L36.00 -6.93 L35.50 -6.06 L35.00 -5.20 L34.50 -4.33 L34.00 -3.46 L33.50 -2.60 L33.00 -1.73 L32.50 -0.87 L32.00 -0.00 L33.00 -0.00 L32.50 -0.87 L33.50 -0.87 L33.00 -0.00 L34.00 -0.00 L33.50 -0.87 L33.00 -1.73 L34.00 -1.73 L33.50 -2.60 L34.50 -2.60 L34.00 -1.73 L35.00 -1.73 L34.50 -0.87 L34.00 -0.00 L35.00 -0.00 L34.50 -0.87 L35.50 -0.87 L35.00 -0.00 L36.00 -0.00 L35.50 -0.87 L35.00 -1.73 L34.50 -2.60 L34.00 -3.46 L35.00 -3.46 L34.50 -4.33 L35.50 -4.33 L35.00 -3.46 L36.00 -3.46 L35.50 -4.33 L35.00 -5.20 L36.00 -5.20 L35.50 -6.06 L36.50 -6.06 L36.00 -5.20 L37.00 -5.20 L36.50 -4.33 L36.00 -3.46 L37.00 -3.46 L36.50 -4.33 L37.50 -4.33 L37.00 -3.46 L38.00 -3.46 L37.50 -2.60 L37.00 -1.73 L36.50 -0.87 L36.00 -0.00 L37.00 -0.00 L36.50 -0.87 L37.50 -0.87 L37.00 -0.00 L38.00 -0.00 L37.50 -0.87 L37.00 -1.73 L38.00 -1.73 L37.50 -2.60 L38.50 -2.60 L38.00 -1.73 L39.00 -1.73 L38.50 -0.87 L38.00 -0.00 L39.00 -0.00 L38.50 -0.87 L39.50 -0.87 L39.00 -0.00 L40.00 -0.00 L39.50 -0.87 L39.00 -1.73 L38.50 -2.60 L38.00 -3.46 L37.50 -4.33 L37.00 -5.20 L36.50 -6.06 L36.00 -6.93 L37.00 -6.93 L36.50 -7.79 L37.50 -7.79 L37.00 -6.93 L38.00 -6.93 L37.50 -7.79 L37.00 -8.66 L38.00 -8.66 L37.50 -9.53 L38.50 -9.53 L38.00 -8.66 L39.00 -8.66 L38.50 -7.79 L38.00 -6.93 L39.00 -6.93 L38.50 -7.79 L39.50 -7.79 L39.00 -6.93 L40.00 -6.93 L39.50 -7.79 L39.00 -8.66 L38.50 -9.53 L38.00 -10.39 L39.00 -10.39 L38.50 -11.26 L39.50 -11.26 L39.00 -10.39 L40.00 -10.39 L39.50 -11.26 L39.00 -12.12 L40.00 -12.12 L39.50 -12.99 L40.50 -12.99 L40.00 -12.12 L41.00 -12.12 L40.50 -11.26 L40.00 -10.39 L41.00 -10.39 L40.50 -11.26 L41.50 -11.26 L41.00 -10.39 L42.00 -10.39 L41.50 -9.53 L41.00 -8.66 L40.50 -7.79 L40.00 -6.93 L41.00 -6.93 L40.50 -7.79 L41.50 -7.79 L41.00 -6.93 L42.00 -6.93 L41.50 -7.79 L41.00 -8.66 L42.00 -8.66 L41.50 -9.53 L42.50 -9.53 L42.00 -8.66 L43.00 -8.66 L42.50 -7.79 L42.00 -6.93 L43.00 -6.93 L42.50 -7.79 L43.50 -7.79 L43.00 -6.93 L44.00 -6.93 L43.50 -6.06 L43.00 -5.20 L42.50 -4.33 L42.00 -3.46 L41.50 -2.60 L41.00 -1.73 L40.50 -0.87 L40.00 -0.00 L41.00 -0.00 L40.50 -0.87 L41.50 -0.87 L41.00 -0.00 L42.00 -0.00 L41.50 -0.87 L41.00 -1.73 L42.00 -1.73 L41.50 -2.60 L42.50 -2.60 L42.00 -1.73 L43.00 -1.73 L42.50 -0.87 L42.00 -0.00 L43.00 -0.00 L42.50 -0.87 L43.50 -0.87 L43.00 -0.00 L44.00 -0.00 L43.50 -0.87 L43.00 -1.73 L42.50 -2.60 L42.00 -3.46 L43.00 -3.46 L42.50 -4.33 L43.50 -4.33 L43.00 -3.46 L44.00 -3.46 L43.50 -4.33 L43.00 -5.20 L44.00 -5.20 L43.50 -6.06 L44.50 -6.06 L44.00 -5.20 L45.00 -5.20 L44.50 -4.33 L44.00 -3.46 L45.00 -3.46 L44.50 -4.33 L45.50 -4.33 L45.00 -3.46 L46.00 -3.46 L45.50 -2.60 L45.00 -1.73 L44.50 -0.87 L44.00 -0.00 L45.00 -0.00 L44.50 -0.87 L45.50 -0.87 L45.00 -0.00 L46.00 -0.00 L45.50 -0.87 L45.00 -1.73 L46.00 -1.73 L45.50 -2.60 L46.50 -2.60 L46.00 -1.73 L47.00 -1.73 L46.50 -0.87 L46.00 -0.00 L47.00 -0.00 L46.50 -0.87 L47.50 -0.87 L47.00 -0.00 L48.00 -0.00 L47.50 -0.87 L47.00 -1.73 L46.50 -2.60 L46.00 -3.46 L45.50 -4.33 L45.00 -5.20 L44.50 -6.06 L44.00 -6.93 L43.50 -7.79 L43.00 -8.66 L42.50 -9.53 L42.00 -10.39 L41.50 -11.26 L41.00 -12.12 L40.50 -12.99 L40.00 -13.86 L41.00 -13.86 L40.50 -14.72 L41.50 -14.72 L41.00 -13.86 L42.00 -13.86 L41.50 -14.72 L41.00 -15.59 L42.00 -15.59 L41.50 -16.45 L42.50 -16.45 L42.00 -15.59 L43.00 -15.59 L42.50 -14.72 L42.00 -13.86 L43.00 -13.86 L42.50 -14.72 L43.50 -14.72 L43.00 -13.86 L44.00 -13.86 L43.50 -14.72 L43.00 -15.59 L42.50 -16.45 L42.00 -17.32 L43.00 -17.32 L42.50 -18.19 L43.50 -18.19 L43.00 -17.32 L44.00 -17.32 L43.50 -18.19 L43.00 -19.05 L44.00 -19.05 L43.50 -19.92 L44.50 -19.92 L44.00 -19.05 L45.00 -19.05 L44.50 -18.19 L44.00 -17.32 L45.00 -17.32 L44.50 -18.19 L45.50 -18.19 L45.00 -17.32 L46.00 -17.32 L45.50 -16.45 L45.00 -15.59 L44.50 -14.72 L44.00 -13.86 L45.00 -13.86 L44.50 -14.72 L45.50 -14.72 L45.00 -13.86 L46.00 -13.86 L45.50 -14.72 L45.00 -15.59 L46.00 -15.59 L45.50 -16.45 L46.50 -16.45 L46.00 -15.59 L47.00 -15.59 L46.50 -14.72 L46.00 -13.86 L47.00 -13.86 L46.50 -14.72 L47.50 -14.72 L47.00 -13.86 L48.00 -13.86 L47.50 -14.72 L47.00 -15.59 L46.50 -16.45 L46.00 -17.32 L45.50 -18.19 L45.00 -19.05 L44.50 -19.92 L44.00 -20.78 L45.00 -20.78 L44.50 -21.65 L45.50 -21.65 L45.00 -20.78 L46.00 -20.78 L45.50 -21.65 L45.00 -22.52 L46.00 -22.52 L45.50 -23.38 L46.50 -23.38 L46.00 -22.52 L47.00 -22.52 L46.50 -21.65 L46.00 -20.78 L47.00 -20.78 L46.50 -21.65 L47.50 -21.65 L47.00 -20.78 L48.00 -20.78 L47.50 -21.65 L47.00 -22.52 L46.50 -23.38 L46.00 -24.25 L47.00 -24.25 L46.50 -25.11 L47.50 -25.11 L47.00 -24.25 L48.00 -24.25 L47.50 -25.11 L47.00 -25.98 L48.00 -25.98 L47.50 -26.85 L48.50 -26.85 L48.00 -25.98 L49.00 -25.98 L48.50 -25.11 L48.00 -24.25 L49.00 -24.25 L48.50 -25.11 L49.50 -25.11 L49.00 -24.25 L50.00 -24.25 L49.50 -23.38 L49.00 -22.52 L48.50 -21.65 L48.00 -20.78 L49.00 -20.78 L48.50 -21.65 L49.50 -21.65 L49.00 -20.78 L50.00 -20.78 L49.50 -21.65 L49.00 -22.52 L50.00 -22.52 L49.50 -23.38 L50.50 -23.38 L50.00 -22.52 L51.00 -22.52 L50.50 -21.65 L50.00 -20.78 L51.00 -20.78 L50.50 -21.65 L51.50 -21.65 L51.00 -20.78 L52.00 -20.78 L51.50 -19.92 L51.00 -19.05 L50.50 -18.19 L50.00 -17.32 L49.50 -16.45 L49.00 -15.59 L48.50 -14.72 L48.00 -13.86 L49.00 -13.86 L48.50 -14.72 L49.50 -14.72 L49.00 -13.86 L50.00 -13.86 L49.50 -14.72 L49.00 -15.59 L50.00 -15.59 L49.50 -16.45 L50.50 -16.45 L50.00 -15.59 L51.00 -15.59 L50.50 -14.72 L50.00 -13.86 L51.00 -13.86 L50.50 -14.72 L51.50 -14.72 L51.00 -13.86 L52.00 -13.86 L51.50 -14.72 L51.00 -15.59 L50.50 -16.45 L50.00 -17.32 L51.00 -17.32 L50.50 -18.19 L51.50 -18.19 L51.00 -17.32 L52.00 -17.32 L51.50 -18.19 L51.00 -19.05 L52.00 -19.05 L51.50 -19.92 L52.50 -19.92 L52.00 -19.05 L53.00 -19.05 L52.50 -18.19 L52.00 -17.32 L53.00 -17.32 L52.50 -18.19 L53.50 -18.19 L53.00 -17.32 L54.00 -17.32 L53.50 -16.45 L53.00 -15.59 L52.50 -14.72 L52.00 -13.86 L53.00 -13.86 L52.50 -14.72 L53.50 -14.72 L53.00 -13.86 L54.00 -13.86 L53.50 -14.72 L53.00 -15.59 L54.00 -15.59 L53.50 -16.45 L54.50 -16.45 L54.00 -15.59 L55.00 -15.59 L54.50 -14.72 L54.00 -13.86 L55.00 -13.86 L54.50 -14.72 L55.50 -14.72 L55.00 -13.86 L56.00 -13.86 L55.50 -12.99 L55.00 -12.12 L54.50 -11.26 L54.00 -10.39 L53.50 -9.53 L53.00 -8.66 L52.50 -7.79 L52.00 -6.93 L51.50 -6.06 L51.00 -5.20 L50.50 -4.33 L50.00 -3.46 L49.50 -2.60 L49.00 -1.73 L48.50 -0.87 L48.00 -0.00 L49.00 -0.00 L48.50 -0.87 L49.50 -0.87 L49.00 -0.00 L50.00 -0.00 L49.50 -0.87 L49.00 -1.73 L50.00 -1.73 L49.50 -2.60 L50.50 -2.60 L50.00 -1.73 L51.00 -1.73 L50.50 -0.87 L50.00 -0.00 L51.00 -0.00 L50.50 -0.87 L51.50 -0.87 L51.00 -0.00 L52.00 -0.00 L51.50 -0.87 L51.00 -1.73 L50.50 -2.60 L50.00 -3.46 L51.00 -3.46 L50.50 -4.33 L51.50 -4.33 L51.00 -3.46 L52.00 -3.46 L51.50 -4.33 L51.00 -5.20 L52.00 -5.20 L51.50 -6.06 L52.50 -6.06 L52.00 -5.20 L53.00 -5.20 L52.50 -4.33 L52.00 -3.46 L53.00 -3.46 L52.50 -4.33 L53.50 -4.33 L53.00 -3.46 L54.00 -3.46 L53.50 -2.60 L53.00 -1.73 L52.50 -0.87 L52.00 -0.00 L53.00 -0.00 L52.50 -0.87 L53.50 -0.87 L53.00 -0.00 L54.00 -0.00 L53.50 -0.87 L53.00 -1.73 L54.00 -1.73 L53.50 -2.60 L54.50 -2.60 L54.00 -1.73 L55.00 -1.73 L54.50 -0.87 L54.00 -0.00 L55.00 -0.00 L54.50 -0.87 L55.50 -0.87 L55.00 -0.00 L56.00 -0.00 L55.50 -0.87 L55.00 -1.73 L54.50 -2.60 L54.00 -3.46 L53.50 -4.33 L53.00 -5.20 L52.50 -6.06 L52.00 -6.93 L53.00 -6.93 L52.50 -7.79 L53.50 -7.79 L53.00 -6.93 L54.00 -6.93 L53.50 -7.79 L53.00 -8.66 L54.00 -8.66 L53.50 -9.53 L54.50 -9.53 L54.00 -8.66 L55.00 -8.66 L54.50 -7.79 L54.00 -6.93 L55.00 -6.93 L54.50 -7.79 L55.50 -7.79 L55.00 -6.93 L56.00 -6.93 L55.50 -7.79 L55.00 -8.66 L54.50 -9.53 L54.00 -10.39 L55.00 -10.39 L54.50 -11.26 L55.50 -11.26 L55.00 -10.39 L56.00 -10.39 L55.50 -11.26 L55.00 -12.12 L56.00 -12.12 L55.50 -12.99 L56.50 -12.99 L56.00 -12.12 L57.00 -12.12 L56.50 -11.26 L56.00 -10.39 L57.00 -10.39 L56.50 -11.26 L57.50 -11.26 L57.00 -10.39 L58.00 -10.39 L57.50 -9.53 L57.00 -8.66 L56.50 -7.79 L56.00 -6.93 L57.00 -6.93 L56.50 -7.79 L57.50 -7.79 L57.00 -6.93 L58.00 -6.93 L57.50 -7.79 L57.00 -8.66 L58.00 -8.66 L57.50 -9.53 L58.50 -9.53 L58.00 -8.66 L59.00 -8.66 L58.50 -7.79 L58.00 -6.93 L59.00 -6.93 L58.50 -7.79 L59.50 -7.79 L59.00 -6.93 L60.00 -6.93 L59.50 -6.06 L59.00 -5.20 L58.50 -4.33 L58.00 -3.46 L57.50 -2.60 L57.00 -1.73 L56.50 -0.87 L56.00 -0.00 L57.00 -0.00 L56.50 -0.87 L57.50 -0.87 L57.00 -0.00 L58.00 -0.00 L57.50 -0.87 L57.00 -1.73 L58.00 -1.73 L57.50 -2.60 L58.50 -2.60 L58.00 -1.73 L59.00 -1.73 L58.50 -0.87 L58.00 -0.00 L59.00 -0.00 L58.50 -0.87 L59.50 -0.87 L59.00 -0.00 L60.00 -0.00 L59.50 -0.87 L59.00 -1.73 L58.50 -2.60 L58.00 -3.46 L59.00 -3.46 L58.50 -4.33 L59.50 -4.33 L59.00 -3.46 L60.00 -3.46 L59.50 -4.33 L59.00 -5.20 L60.00 -5.20 L59.50 -6.06 L60.50 -6.06 L60.00 -5.20 L61.00 -5.20 L60.50 -4.33 L60.00 -3.46 L61.00 -3.46 L60.50 -4.33 L61.50 -4.33 L61.00 -3.46 L62.00 -3.46 L61.50 -2.60 L61.00 -1.73 L60.50 -0.87 L60.00 -0.00 L61.00 -0.00 L60.50 -0.87 L61.50 -0.87 L61.00 -0.00 L62.00 -0.00 L61.50 -0.87 L61.00 -1.73 L62.00 -1.73 L61.50 -2.60 L62.50 -2.60 L62.00 -1.73 L63.00 -1.73 L62.50 -0.87 L62.00 -0.00 L63.00 -0.00 L62.50 -0.87 L63.50 -0.87 L63.00 -0.00 L64.00 -0.00 L63.50 -0.87 L63.00 -1.73 L62.50 -2.60 L62.00 -3.46 L61.50 -4.33 L61.00 -5.20 L60.50 -6.06 L60.00 -6.93 L59.50 -7.79 L59.00 -8.66 L58.50 -9.53 L58.00 -10.39 L57.50 -11.26 L57.00 -12.12 L56.50 -12.99 L56.00 -13.86 L55.50 -14.72 L55.00 -15.59 L54.50 -16.45 L54.00 -17.32 L53.50 -18.19 L53.00 -19.05 L52.50 -19.92 L52.00 -20.78 L51.50 -21.65 L51.00 -22.52 L50.50 -23.38 L50.00 -24.25 L49.50 -25.11 L49.00 -25.98 L48.50 -26.85 L48.00 -27.71 L47.50 -28.58 L47.00 -29.44 L46.50 -30.31 L46.00 -31.18 L45.50 -32.04 L45.00 -32.91 L44.50 -33.77 L44.00 -34.64 L43.50 -35.51 L43.00 -36.37 L42.50 -37.24 L42.00 -38.11 L41.50 -38.97 L41.00 -39.84 L40.50 -40.70 L40.00 -41.57 L39.50 -42.44 L39.00 -43.30 L38.50 -44.17 L38.00 -45.03 L37.50 -45.90 L37.00 -46.77 L36.50 -47.63 L36.00 -48.50 L35.50 -49.36 L35.00 -50.23 L34.50 -51.10 L34.00 -51.96 L33.50 -52.83 L33.00 -53.69 L32.50 -54.56 L32.00 -55.43 L31.50 -54.56 L31.00 -53.69 L30.50 -52.83 L30.00 -51.96 L29.50 -51.10 L29.00 -50.23 L28.50 -49.36 L28.00 -48.50 L27.50 -47.63 L27.00 -46.77 L26.50 -45.90 L26.00 -45.03 L25.50 -44.17 L25.00 -43.30 L24.50 -42.44 L24.00 -41.57 L23.50 -40.70 L23.00 -39.84 L22.50 -38.97 L22.00 -38.11 L21.50 -37.24 L21.00 -36.37 L20.50 -35.51 L20.00 -34.64 L19.50 -33.77 L19.00 -32.91 L18.50 -32.04 L18.00 -31.18 L17.50 -30.31 L17.00 -29.44 L16.50 -28.58 L16.00 -27.71 L15.50 -26.85 L15.00 -25.98 L14.50 -25.11 L14.00 -24.25 L13.50 -23.38 L13.00 -22.52 L12.50 -21.65 L12.00 -20.78 L11.50 -19.92 L11.00 -19.05 L10.50 -18.19 L10.00 -17.32 L9.50 -16.45 L9.00 -15.59 L8.50 -14.72 L8.00 -13.86 L7.50 -12.99 L7.00 -12.12 L6.50 -11.26 L6.00 -10.39 L5.50 -9.53 L5.00 -8.66 L4.50 -7.79 L4.00 -6.93 L3.50 -6.06 L3.00 -5.20 L2.50 -4.33 L2.00 -3.46 L1.50 -2.60 L1.00 -1.73 L0.50 -0.87 L-0.00 -0.00 "/>
</g>
</svg>

