<svg width="500.000000" height="24.489796" xmlns="http://www.w3.org/2000/svg" version="1.1">
<g transform="scale(1.856665,0.674650) translate(13.150001,23.150002) ">
<path stroke="#000000" stroke-width="0.100000" fill="none" d="M0.00 0.00 L1.00 0.00 L2.00 0.00 L3.00 0.00 L4.00 0.00 L5.00 0.00 L6.00 0.00 L7.00 0.00 L8.00 0.00 L9.00 0.00 L10.00 0.00 L11.00 0.00 L12.00 0.00 L13.00 0.00 L14.00 0.00 L15.00 0.00 L16.00 0.00 L17.00 0.00 L18.00 0.00 L19.00 0.00 L20.00 0.00 L21.00 0.00 L22.00 0.00 L23.00 0.00 L24.00 0.00 L25.00 0.00 L26.00 0.00 L27.00 0.00 L28.00 0.00 L29.00 0.00 L30.00 0.00 L31.00 0.00 L32.00 0.00 L33.00 0.00 L34.00 0.00 L35.00 0.00 L36.00 0.00 L37.00 0.00 L38.00 0.00 L39.00 0.00 L40.00 0.00 L41.00 0.00 L42.00 0.00 L43.00 0.00 L44.00 0.00 L45.00 0.00 L46.00 0.00 L47.00 0.00 L48.00 0.00 L49.00 0.00 L50.00 0.00 L51.00 0.00 L52.00 0.00 L53.00 0.00 L54.00 0.00 L55.00 0.00 L56.00 0.00 L57.00 0.00 L58.00 0.00 L59.00 0.00 L60.00 0.00 L61.00 0.00 L62.00 0.00 L63.00 0.00 L64.00 0.00 L65.00 0.00 L66.00 0.00 L67.00 0.00 L68.00 0.00 L69.00 0.00 L70.00 0.00 L71.00 0.00 L72.00 0.00 L73.00 0.00 L74.00 0.00 L75.00 0.00 L76.00 0.00 L77.00 0.00 L78.00 0.00 L79.00 0.00 L80.00 0.00 L81.00 0.00 L82.00 0.00 L83.00 0.00 L84.00 0.00 L85.00 0.00 L86.00 0.00 L87.00 0.00 L88.00 0.00 L89.00 0.00 L90.00 0.00 L91.00 0.00 L92.00 0.00 L93.00 0.00 L94.00 0.00 L95.00 0.00 L96.00 0.00 L97.00 0.00 L98.00 0.00 L99.00 0.00 L100.00 0.00 L101.00 0.00 L102.00 0.00 L103.00 0.00 L104.00 0.00 L105.00 0.00 L106.00 0.00 L107.00 0.00 L108.00 0.00 L109.00 0.00 L110.00 0.00 L111.00 0.00 L112.00 0.00 L113.00 0.00 L114.00 0.00 L115.00 0.00 L116.00 0.00 L117.00 0.00 L118.00 0.00 L119.00 0.00 L120.00 0.00 L121.00 0.00 L122.00 0.00 L123.00 0.00 L124.00 0.00 L125.00 0.00 L126.00 0.00 L127.00 0.00 L128.00 0.00 L129.00 0.00 L130.00 0.00 L131.00 0.00 L132.00 0.00 L133.00 0.00 L134.00 0.00 L135.00 0.00 L136.00 0.00 L137.00 0.00 L138.00 0.00 L139.00 0.00 L140.00 0.00 L141.00 0.00 L142.00 0.00 L143.00 0.00 L144.00 0.00 L145.00 0.00 L146.00 0.00 L147.00 0.00 L148.00 0.00 L149.00 0.00 L150.00 0.00 L151.00 0.00 L152.00 0.00 L153.00 0.00 L154.00 0.00 L155.00 0.00 L156.00 0.00 L157.00 0.00 L158.00 0.00 L159.00 0.00 L160.00 0.00 L161.00 0.00 L162.00 0.00 L163.00 0.00 L164.00 0.00 L165.00 0.00 L166.00 0.00 L167.00 0.00 L168.00 0.00 L169.00 0.00 L170.00 0.00 L171.00 0.00 L172.00 0.00 L173.00 0.00 L174.00 0.00 L175.00 0.00 L176.00 0.00 L177.00 0.00 L178.00 0.00 L179.00 0.00 L180.00 0.00 L181.00 0.00 L182.00 0.00 L183.00 0.00 L184.00 0.00 L185.00 0.00 L186.00 0.00 L187.00 0.00 L188.00 0.00 L189.00 0.00 L190.00 0.00 L191.00 0.00 L192.00 0.00 L193.00 0.00 L194.00 0.00 L195.00 0.00 L196.00 0.00 L197.00 0.00 L198.00 0.00 L199.00 0.00 L200.00 0.00 L201.00 0.00 L202.00 0.00 L203.00 0.00 L204.00 0.00 L205.00 0.00 L206.00 0.00 L207.00 0.00 L208.00 0.00 L209.00 0.00 L210.00 0.00 L211.00 0.00 L212.00 0.00 L213.00 0.00 L214.00 0.00 L215.00 0.00 L216.00 0.00 L217.00 0.00 L218.00 0.00 L219.00 0.00 L220.00 0.00 L221.00 0.00 L222.00 0.00 L223.00 0.00 L224.00 0.00 L225.00 0.00 L226.00 0.00 L227.00 0.00 L228.00 0.00 L229.00 0.00 L230.00 0.00 L231.00 0.00 L232.00 0.00 L233.00 0.00 L234.00 0.00 L235.00 0.00 L236.00 0.00 L237.00 0.00 L238.00 0.00 L239.00 0.00 L240.00 0.00 L241.00 0.00 L242.00 0.00 L243.00 0.00 "/>
<path stroke="#000000" stroke-width="0.100000" fill="none" d="M0.00 0.00 M0.00 -1.00 M0.00 -2.00 L1.00 -2.00 L2.00 -2.00 L3.00 -2.00 L4.00 -2.00 L5.00 -2.00 L6.00 -2.00 L7.00 -2.00 L8.00 -2.00 L9.00 -2.00 L10.00 -2.00 L11.00 -2.00 L12.00 -2.00 L13.00 -2.00 L14.00 -2.00 L15.00 -2.00 L16.00 -2.00 L17.00 -2.00 L18.00 -2.00 L19.00 -2.00 L20.00 -2.00 L21.00 -2.00 L22.00 -2.00 L23.00 -2.00 L24.00 -2.00 L25.00 -2.00 L26.00 -2.00 L27.00 -2.00 L28.00 -2.00 L29.00 -2.00 L30.00 -2.00 L31.00 -2.00 L32.00 -2.00 L33.00 -2.00 L34.00 -2.00 L35.00 -2.00 L36.00 -2.00 L37.00 -2.00 L38.00 -2.00 L39.00 -2.00 L40.00 -2.00 L41.00 -2.00 L42.00 -2.00 L43.00 -2.00 L44.00 -2.00 L45.00 -2.00 L46.00 -2.00 L47.00 -2.00 L48.00 -2.00 L49.00 -2.00 L50.00 -2.00 L51.00 -2.00 L52.00 -2.00 L53.00 -2.00 L54.00 -2.00 L55.00 -2.00 L56.00 -2.00 L57.00 -2.00 L58.00 -2.00 L59.00 -2.00 L60.00 -2.00 L61.00 -2.00 L62.00 -2.00 L63.00 -2.00 L64.00 -2.00 L65.00 -2.00 L66.00 -2.00 L67.00 -2.00 L68.00 -2.00 L69.00 -2.00 L70.00 -2.00 L71.00 -2.00 L72.00 -2.00 L73.00 -2.00 L74.00 -2.00 L75.00 -2.00 L76.00 -2.00 L77.00 -2.00 L78.00 -2.00 L79.00 -2.00 L80.00 -2.00 L81.00 -2.00 M82.00 -2.00 M83.00 -2.00 M84.00 -2.00 M85.00 -2.00 M86.00 -2.00 M87.00 -2.00 M88.00 -2.00 M89.00 -2.00 M90.00 -2.00 M91.00 -2.00 M92.00 -2.00 M93.00 -2.00 M94.00 -2.00 M95.00 -2.00 M96.00 -2.00 M97.00 -2.00 M98.00 -2.00 M99.00 -2.00 M100.00 -2.00 M101.00 -2.00 M102.00 -2.00 M103.00 -2.00 M104.00 -2.00 M105.00 -2.00 M106.00 -2.00 M107.00 -2.00 M108.00 -2.00 M109.00 -2.00 M110.00 -2.00 M111.00 -2.00 M112.00 -2.00 M113.00 -2.00 M114.00 -2.00 M115.00 -2.00 M116.00 -2.00 M117.00 -2.00 M118.00 -2.00 M119.00 -2.00 M120.00 -2.00 M121.00 -2.00 M122.00 -2.00 M123.00 -2.00 M124.00 -2.00 M125.00 -2.00 M126.00 -2.00 M127.00 -2.00 M128.00 -2.00 M129.00 -2.00 M130.00 -2.00 M131.00 -2.00 M132.00 -2.00 M133.00 -2.00 M134.00 -2.00 M135.00 -2.00 M136.00 -2.00 M137.00 -2.00 M138.00 -2.00 M139.00 -2.00 M140.00 -2.00 M141.00 -2.00 M142.00 -2.00 M143.00 -2.00 M144.00 -2.00 M145.00 -2.00 M146.00 -2.00 M147.00 -2.00 M148.00 -2.00 M149.00 -2.00 M150.00 -2.00 M151.00 -2.00 M152.00 -2.00 M153.00 -2.00 M154.00 -2.00 M155.00 -2.00 M156.00 -2.00 M157.00 -2.00 M158.00 -2.00 M159.00 -2.00 M160.00 -2.00 M161.00 -2.00 M162.00 -2.00 L163.00 -2.00 L164.00 -2.00 L165.00 -2.00 L166.00 -2.00 L167.00 -2.00 L168.00 -2.00 L169.00 -2.00 L170.00 -2.00 L171.00 -2.00 L172.00 -2.00 L173.00 -2.00 L174.00 -2.00 L175.00 -2.00 L176.00 -2.00 L177.00 -2.00 L178.00 -2.00 L179.00 -2.00 L180.00 -2.00 L181.00 -2.00 L182.00 -2.00 L183.00 -2.00 L184.00 -2.00 L185.00 -2.00 L186.00 -2.00 L187.00 -2.00 L188.00 -2.00 L189.00 -2.00 L190.00 -2.00 L191.00 -2.00 L192.00 -2.00 L193.00 -2.00 L194.00 -2.00 L195.00 -2.00 L196.00 -2.00 L197.00 -2.00 L198.00 -2.00 L199.00 -2.00 L200.00 -2.00 L201.00 -2.00 L202.00 -2.00 L203.00 -2.00 L204.00 -2.00 L205.00 -2.00 L206.00 -2.00 L207.00 -2.00 L208.00 -2.00 L209.00 -2.00 L210.00 -2.00 L211.00 -2.00 L212.00 -2.00 L213.00 -2.00 L214.00 -2.00 L215.00 -2.00 L216.00 -2.00 L217.00 -2.00 L218.00 -2.00 L219.00 -2.00 L220.00 -2.00 L221.00 -2.00 L222.00 -2.00 L223.00 -2.00 L224.00 -2.00 L225.00 -2.00 L226.00 -2.00 L227.00 -2.00 L228.00 -2.00 L229.00 -2.00 L230.00 -2.00 L231.00 -2.00 L232.00 -2.00 L233.00 -2.00 L234.00 -2.00 L235.00 -2.00 L236.00 -2.00 L237.00 -2.00 L238.00 -2.00 L239.00 -2.00 L240.00 -2.00 L241.00 -2.00 L242.00 -2.00 L243.00 -2.00 "/>
<path stroke="#000000" stroke-width="0.100000" fill="none" d="M0.00 -2.00 M0.00 -3.00 M0.00 -4.00 L1.00 -4.00 L2.00 -4.00 L3.00 -4.00 L4.00 -4.00 L5.00 -4.00 L6.00 -4.00 L7.00 -4.00 L8.00 -4.00 L9.00 -4.00 L10.00 -4.00 L11.00 -4.00 L12.00 -4.00 L13.00 -4.00 L14.00 -4.00 L15.00 -4.00 L16.00 -4.00 L17.00 -4.00 L18.00 -4.00 L19.00 -4.00 L20.00 -4.00 L21.00 -4.00 L22.00 -4.00 L23.00 -4.00 L24.00 -4.00 L25.00 -4.00 L26.00 -4.00 L27.00 -4.00 M28.00 -4.00 M29.00 -4.00 M30.00 -4.00 M31.00 -4.00 M32.00 -4.00 M33.00 -4.00 M34.00 -4.00 M35.00 -4.00 M36.00 -4.00 M37.00 -4.00 M38.00 -4.00 M39.00 -4.00 M40.00 -4.00 M41.00 -4.00 M42.00 -4.00 M43.00 -4.00 M44.00 -4.00 M45.00 -4.00 M46.00 -4.00 M47.00 -4.00 M48.00 -4.00 M49.00 -4.00 M50.00 -4.00 M51.00 -4.00 M52.00 -4.00 M53.00 -4.00 M54.00 -4.00 L55.00 -4.00 L56.00 -4.00 L57.00 -4.00 L58.00 -4.00 L59.00 -4.00 L60.00 -4.00 L61.00 -4.00 L62.00 -4.00 L63.00 -4.00 L64.00 -4.00 L65.00 -4.00 L66.00 -4.00 L67.00 -4.00 L68.00 -4.00 L69.00 -4.00 L70.00 -4.00 L71.00 -4.00 L72.00 -4.00 L73.00 -4.00 L74.00 -4.00 L75.00 -4.00 L76.00 -4.00 L77.00 -4.00 L78.00 -4.00 L79.00 -4.00 L80.00 -4.00 L81.00 -4.00 "/>
<path stroke="#000000" stroke-width="0.100000" fill="none" d="M0.00 -4.00 M0.00 -5.00 M0.00 -6.00 L1.00 -6.00 L2.00 -6.00 L3.00 -6.00 L4.00 -6.00 L5.00 -6.00 L6.00 -6.00 L7.00 -6.00 L8.00 -6.00 L9.00 -6.00 M10.00 -6.00 M11.00 -6.00 M12.00 -6.00 M13.00 -6.00 M14.00 -6.00 M15.00 -6.00 M16.00 -6.00 M17.00 -6.00 M18.00 -6.00 L19.00 -6.00 L20.00 -6.00 L21.00 -6.00 L22.00 -6.00 L23.00 -6.00 L24.00 -6.00 L25.00 -6.00 L26.00 -6.00 L27.00 -6.00 "/>
<path stroke="#000000" stroke-width="0.100000" fill="none" d="M0.00 -6.00 M0.00 -7.00 M0.00 -8.00 L1.00 -8.00 L2.00 -8.00 L3.00 -8.00 M4.00 -8.00 M5.00 -8.00 M6.00 -8.00 L7.00 -8.00 L8.00 -8.00 L9.00 -8.00 "/>
<path stroke="#000000" stroke-width="0.100000" fill="none" d="M0.00 -8.00 M0.00 -9.00 M0.00 -10.00 L1.00 -10.00 M2.00 -10.00 L3.00 -10.00 "/>
<path stroke="#000000" stroke-width="0.100000" fill="none" d="M6.00 -8.00 M6.00 -9.00 M6.00 -10.00 L7.00 -10.00 M8.00 -10.00 L9.00 -10.00 "/>
<path stroke="#000000" stroke-width="0.100000" fill="none" d="M18.00 -6.00 M18.00 -7.00 M18.00 -8.00 L19.00 -8.00 L20.00 -8.00 L21.00 -8.00 M22.00 -8.00 M23.00 -8.00 M24.00 -8.00 L25.00 -8.00 L26.00 -8.00 L27.00 -8.00 "/>
<path stroke="#000000" stroke-width="0.100000" fill="none" d="M18.00 -8.00 M18.00 -9.00 M18.00 -10.00 L19.00 -10.00 M20.00 -10.00 L21.00 -10.00 "/>
<path stroke="#000000" stroke-width="0.100000" fill="none" d="M24.00 -8.00 M24.00 -9.00 M24.00 -10.00 L25.00 -10.00 M26.00 -10.00 L27.00 -10.00 "/>
<path stroke="#000000" stroke-width="0.100000" fill="none" d="M54.00 -4.00 M54.00 -5.00 M54.00 -6.00 L55.00 -6.00 L56.00 -6.00 L57.00 -6.00 L58.00 -6.00 L59.00 -6.00 L60.00 -6.00 L61.00 -6.00 L62.00 -6.00 L63.00 -6.00 M64.00 -6.00 M65.00 -6.00 M66.00 -6.00 M67.00 -6.00 M68.00 -6.00 M69.00 -6.00 M70.00 -6.00 M71.00 -6.00 M72.00 -6.00 L73.00 -6.00 L74.00 -6.00 L75.00 -6.00 L76.00 -6.00 L77.00 -6.00 L78.00 -6.00 L79.00 -6.00 L80.00 -6.00 L81.00 -6.00 "/>
<path stroke="#000000" stroke-width="0.100000" fill="none" d="M54.00 -6.00 M54.00 -7.00 M54.00 -8.00 L55.00 -8.00 L56.00 -8.00 L57.00 -8.00 M58.00 -8.00 M59.00 -8.00 M60.00 -8.00 L61.00 -8.00 L62.00 -8.00 L63.00 -8.00 "/>
<path stroke="#000000" stroke-width="0.100000" fill="none" d="M54.00 -8.00 M54.00 -9.00 M54.00 -10.00 L55.00 -10.00 M56.00 -10.00 L57.00 -10.00 "/>
<path stroke="#000000" stroke-width="0.100000" fill="none" d="M60.00 -8.00 M60.00 -9.00 M60.00 -10.00 L61.00 -10.00 M62.00 -10.00 L63.00 -10.00 "/>
<path stroke="#000000" stroke-width="0.100000" fill="none" d="M72.00 -6.00 M72.00 -7.00 M72.00 -8.00 L73.00 -8.00 L74.00 -8.00 L75.00 -8.00 M76.00 -8.00 M77.00 -8.00 M78.00 -8.00 L79.00 -8.00 L80.00 -8.00 L81.00 -8.00 "/>
<path stroke="#000000" stroke-width="0.100000" fill="none" d="M72.00 -8.00 M72.00 -9.00 M72.00 -10.00 L73.00 -10.00 M74.00 -10.00 L75.00 -10.00 "/>
<path stroke="#000000" stroke-width="0.100000" fill="none" d="M78.00 -8.00 M78.00 -9.00 M78.00 -10.00 L79.00 -10.00 M80.00 -10.00 L81.00 -10.00 "/>
<path stroke="#000000" stroke-width="0.100000" fill="none" d="M162.00 -2.00 M162.00 -3.00 M162.00 -4.00 L163.00 -4.00 L164.00 -4.00 L165.00 -4.00 L166.00 -4.00 L167.00 -4.00 L168.00 -4.00 L169.00 -4.00 L170.00 -4.00 L171.00 -4.00 L172.00 -4.00 L173.00 -4.00 L174.00 -4.00 L175.00 -4.00 L176.00 -4.00 L177.00 -4.00 L178.00 -4.00 L179.00 -4.00 L180.00 -4.00 L181.00 -4.00 L182.00 -4.00 L183.00 -4.00 L184.00 -4.00 L185.00 -4.00 L186.00 -4.00 L187.00 -4.00 L188.00 -4.00 L189.00 -4.00 M190.00 -4.00 M191.00 -4.00 M192.00 -4.00 M193.00 -4.00 M194.00 -4.00 M195.00 -4.00 M196.00 -4.00 M197.00 -4.00 M198.00 -4.00 M199.00 -4.00 M200.00 -4.00 M201.00 -4.00 M202.00 -4.00 M203.00 -4.00 M204.00 -4.00 M205.00 -4.00 M206.00 -4.00 M207.00 -4.00 M208.00 -4.00 M209.00 -4.00 M210.00 -4.00 M211.00 -4.00 M212.00 -4.00 M213.00 -4.00 M214.00 -4.00 M215.00 -4.00 M216.00 -4.00 L217.00 -4.00 L218.00 -4.00 L219.00 -4.00 L220.00 -4.00 L221.00 -4.00 L222.00 -4.00 L223.00 -4.00 L224.00 -4.00 L225.00 -4.00 L226.00 -4.00 L227.00 -4.00 L228.00 -4.00 L229.00 -4.00 L230.00 -4.00 L231.00 -4.00 L232.00 -4.00 L233.00 -4.00 L234.00 -4.00 L235.00 -4.00 L236.00 -4.00 L237.00 -4.00 L238.00 -4.00 L239.00 -4.00 L240.00 -4.00 L241.00 -4.00 L242.00 -4.00 L243.00 -4.00 "/>
<path stroke="#000000" stroke-width="0.100000" fill="none" d="M162.00 -4.00 M162.00 -5.00 M162.00 -6.00 L163.00 -6.00 L164.00 -6.00 L165.00 -6.00 L166.00 -6.00 L167.00 -6.00 L168.00 -6.00 L169.00 -6.00 L170.00 -6.00 L171.00 -6.00 M172.00 -6.00 M173.00 -6.00 M174.00 -6.00 M175.00 -6.00 M176.00 -6.00 M177.00 -6.00 M178.00 -6.00 M179.00 -6.00 M180.00 -6.00 L181.00 -6.00 L182.00 -6.00 L183.00 -6.00 L184.00 -6.00 L185.00 -6.00 L186.00 -6.00 L187.00 -6.00 L188.00 -6.00 L189.00 -6.00 "/>
<path stroke="#000000" stroke-width="0.100000" fill="none" d="M162.00 -6.00 M162.00 -7.00 M162.00 -8.00 L163.00 -8.00 L164.00 -8.00 L165.00 -8.00 M166.00 -8.00 M167.00 -8.00 M168.00 -8.00 L169.00 -8.00 L170.00 -8.00 L171.00 -8.00 "/>
<path stroke="#000000" stroke-width="0.100000" fill="none" d="M162.00 -8.00 M162.00 -9.00 M162.00 -10.00 L163.00 -10.00 M164.00 -10.00 L165.00 -10.00 "/>
<path stroke="#000000" stroke-width="0.100000" fill="none" d="M168.00 -8.00 M168.00 -9.00 M168.00 -10.00 L169.00 -10.00 M170.00 -10.00 L171.00 -10.00 "/>
<path stroke="#000000" stroke-width="0.100000" fill="none" d="M180.00 -6.00 M180.00 -7.00 M180.00 -8.00 L181.00 -8.00 L182.00 -8.00 L183.00 -8.00 M184.00 -8.00 M185.00 -8.00 M186.00 -8.00 L187.00 -8.00 L188.00 -8.00 L189.00 -8.00 "/>
<path stroke="#000000" stroke-width="0.100000" fill="none" d="M180.00 -8.00 M180.00 -9.00 M180.00 -10.00 L181.00 -10.00 M182.00 -10.00 L183.00 -10.00 "/>
<path stroke="#000000" stroke-width="0.100000" fill="none" d="M186.00 -8.00 M186.00 -9.00 M186.00 -10.00 L187.00 -10.00 M188.00 -10.00 L189.00 -10.00 "/>
<path stroke="#000000" stroke-width="0.100000" fill="none" d="M216.00 -4.00 M216.00 -5.00 M216.00 -6.00 L217.00 -6.00 L218.00 -6.00 L219.00 -6.00 L220.00 -6.00 L221.00 -6.00 L222.00 -6.00 L223.00 -6.00 L224.00 -6.00 L225.00 -6.00 M226.00 -6.00 M227.00 -6.00 M228.00 -6.00 M229.00 -6.00 M230.00 -6.00 M231.00 -6.00 M232.00 -6.00 M233.00 -6.00 M234.00 -6.00 L235.00 -6.00 L236.00 -6.00 L237.00 -6.00 L238.00 -6.00 L239.00 -6.00 L240.00 -6.00 L241.00 -6.00 L242.00 -6.00 L243.00 -6.00 "/>
<path stroke="#000000" stroke-width="0.100000" fill="none" d="M216.00 -6.00 M216.00 -7.00 M216.00 -8.00 L217.00 -8.00 L218.00 -8.00 L219.00 -8.00 M220.00 -8.00 M221.00 -8.00 M222.00 -8.00 L223.00 -8.00 L224.00 -8.00 L225.00 -8.00 "/>
<path stroke="#000000" stroke-width="0.100000" fill="none" d="M216.00 -8.00 M216.00 -9.00 M216.00 -10.00 L217.00 -10.00 M218.00 -10.00 L219.00 -10.00 "/>
<path stroke="#000000" stroke-width="0.100000" fill="none" d="M222.00 -8.00 M222.00 -9.00 M222.00 -10.00 L223.00 -10.00 M224.00 -10.00 L225.00 -10.00 "/>
<path stroke="#000000" stroke-width="0.100000" fill="none" d="M234.00 -6.00 M234.00 -7.00 M234.00 -8.00 L235.00 -8.00 L236.00 -8.00 L237.00 -8.00 M238.00 -8.00 M239.00 -8.00 M240.00 -8.00 L241.00 -8.00 L242.00 -8.00 L243.00 -8.00 "/>
<path stroke="#000000" stroke-width="0.100000" fill="none" d="M234.00 -8.00 M234.00 -9.00 M234.00 -10.00 L235.00 -10.00 M236.00 -10.00 L237.00 -10.00 "/>
<path stroke="#000000" stroke-width="0.100000" fill="none" d="M240.00 -8.00 M240.00 -9.00 M240.00 -10.00 L241.00 -10.00 M242.00 -10.00 L243.00 -10.00 "/>
</g>
</svg>

