<svg width="500.000000" height="500.000000" xmlns="http://www.w3.org/2000/svg" version="1.1">
<rect width="100%" height="100%" fill="#fca" />
<g transform="scale(5.488474,5.488474) translate(5.050000,86.050003) ">
<path stroke="#000000" stroke-width="0.000000" fill="#000000" d="M0.00 0.00 L1.00 0.00 L1.00 -1.00 L0.00 -1.00 L-0.00 0.00 " />
<path stroke="#000000" stroke-width="0.000000" fill="#000000" d="M2.00 0.00 L3.00 0.00 L3.00 -1.00 L2.00 -1.00 L2.00 0.00 " />
<path stroke="#000000" stroke-width="0.000000" fill="#000000" d="M3.00 -2.00 L3.00 -3.00 L2.00 -3.00 L2.00 -2.00 L3.00 -2.00 " />
<path stroke="#000000" stroke-width="0.000000" fill="#000000" d="M1.00 -3.00 L0.00 -3.00 L0.00 -2.00 L1.00 -2.00 L1.00 -3.00 " />
<path stroke="#000000" stroke-width="0.000000" fill="#000000" d="M1.00 -2.00 L1.00 -1.00 L2.00 -1.00 L2.00 -2.00 L1.00 -2.00 " />
<path stroke="#000000" stroke-width="0.000000" fill="#000000" d="M6.00 0.00 L7.00 0.00 L7.00 -1.00 L6.00 -1.00 L6.00 0.00 " />
<path stroke="#000000" stroke-width="0.000000" fill="#000000" d="M8.00 0.00 L9.00 0.00 L9.00 -1.00 L8.00 -1.00 L8.00 0.00 " />
<path stroke="#000000" stroke-width="0.000000" fill="#000000" d="M9.00 -2.00 L9.00 -3.00 L8.00 -3.00 L8.00 -2.00 L9.00 -2.00 " />
<path stroke="#000000" stroke-width="0.000000" fill="#000000" d="M7.00 -3.00 L6.00 -3.00 L6.00 -2.00 L7.00 -2.00 L7.00 -3.00 " />
<path stroke="#000000" stroke-width="0.000000" fill="#000000" d="M7.00 -2.00 L7.00 -1.00 L8.00 -1.00 L8.00 -2.00 L7.00 -2.00 " />
<path stroke="#000000" stroke-width="0.000000" fill="#000000" d="M9.00 -6.00 L9.00 -7.00 L8.00 -7.00 L8.00 -6.00 L9.00 -6.00 " />
<path stroke="#000000" stroke-width="0.000000" fill="#000000" d="M9.00 -8.00 L9.00 -9.00 L8.00 -9.00 L8.00 -8.00 L9.00 -8.00 " />
<path stroke="#000000" stroke-width="0.000000" fill="#000000" d="M7.00 -9.00 L6.00 -9.00 L6.00 -8.00 L7.00 -8.00 L7.00 -9.00 " />
<path stroke="#000000" stroke-width="0.000000" fill="#000000" d="M6.00 -7.00 L6.00 -6.00 L7.00 -6.00 L7.00 -7.00 L6.00 -7.00 " />
<path stroke="#000000" stroke-width="0.000000" fill="#000000" d="M7.00 -7.00 L8.00 -7.00 L8.00 -8.00 L7.00 -8.00 L7.00 -7.00 " />
<path stroke="#000000" stroke-width="0.000000" fill="#000000" d="M3.00 -9.00 L2.00 -9.00 L2.00 -8.00 L3.00 -8.00 L3.00 -9.00 " />
<path stroke="#000000" stroke-width="0.000000" fill="#000000" d="M1.00 -9.00 L0.00 -9.00 L-0.00 -8.00 L1.00 -8.00 L1.00 -9.00 " />
<path stroke="#000000" stroke-width="0.000000" fill="#000000" d="M0.00 -7.00 L0.00 -6.00 L1.00 -6.00 L1.00 -7.00 L0.00 -7.00 " />
<path stroke="#000000" stroke-width="0.000000" fill="#000000" d="M2.00 -6.00 L3.00 -6.00 L3.00 -7.00 L2.00 -7.00 L2.00 -6.00 " />
<path stroke="#000000" stroke-width="0.000000" fill="#000000" d="M2.00 -7.00 L2.00 -8.00 L1.00 -8.00 L1.00 -7.00 L2.00 -7.00 " />
<path stroke="#000000" stroke-width="0.000000" fill="#000000" d="M3.00 -6.00 L3.00 -5.00 L4.00 -5.00 L4.00 -6.00 L3.00 -6.00 " />
<path stroke="#000000" stroke-width="0.000000" fill="#000000" d="M3.00 -4.00 L3.00 -3.00 L4.00 -3.00 L4.00 -4.00 L3.00 -4.00 " />
<path stroke="#000000" stroke-width="0.000000" fill="#000000" d="M5.00 -3.00 L6.00 -3.00 L6.00 -4.00 L5.00 -4.00 L5.00 -3.00 " />
<path stroke="#000000" stroke-width="0.000000" fill="#000000" d="M6.00 -5.00 L6.00 -6.00 L5.00 -6.00 L5.00 -5.00 L6.00 -5.00 " />
<path stroke="#000000" stroke-width="0.000000" fill="#000000" d="M5.00 -5.00 L4.00 -5.00 L4.00 -4.00 L5.00 -4.00 L5.00 -5.00 " />
<path stroke="#000000" stroke-width="0.000000" fill="#000000" d="M18.00 0.00 L19.00 0.00 L19.00 -1.00 L18.00 -1.00 L18.00 0.00 " />
<path stroke="#000000" stroke-width="0.000000" fill="#000000" d="M20.00 0.00 L21.00 0.00 L21.00 -1.00 L20.00 -1.00 L20.00 0.00 " />
<path stroke="#000000" stroke-width="0.000000" fill="#000000" d="M21.00 -2.00 L21.00 -3.00 L20.00 -3.00 L20.00 -2.00 L21.00 -2.00 " />
<path stroke="#000000" stroke-width="0.000000" fill="#000000" d="M19.00 -3.00 L18.00 -3.00 L18.00 -2.00 L19.00 -2.00 L19.00 -3.00 " />
<path stroke="#000000" stroke-width="0.000000" fill="#000000" d="M19.00 -2.00 L19.00 -1.00 L20.00 -1.00 L20.00 -2.00 L19.00 -2.00 " />
<path stroke="#000000" stroke-width="0.000000" fill="#000000" d="M24.00 0.00 L25.00 0.00 L25.00 -1.00 L24.00 -1.00 L24.00 0.00 " />
<path stroke="#000000" stroke-width="0.000000" fill="#000000" d="M26.00 -0.00 L27.00 -0.00 L27.00 -1.00 L26.00 -1.00 L26.00 0.00 " />
<path stroke="#000000" stroke-width="0.000000" fill="#000000" d="M27.00 -2.00 L27.00 -3.00 L26.00 -3.00 L26.00 -2.00 L27.00 -2.00 " />
<path stroke="#000000" stroke-width="0.000000" fill="#000000" d="M25.00 -3.00 L24.00 -3.00 L24.00 -2.00 L25.00 -2.00 L25.00 -3.00 " />
<path stroke="#000000" stroke-width="0.000000" fill="#000000" d="M25.00 -2.00 L25.00 -1.00 L26.00 -1.00 L26.00 -2.00 L25.00 -2.00 " />
<path stroke="#000000" stroke-width="0.000000" fill="#000000" d="M27.00 -6.00 L27.00 -7.00 L26.00 -7.00 L26.00 -6.00 L27.00 -6.00 " />
<path stroke="#000000" stroke-width="0.000000" fill="#000000" d="M27.00 -8.00 L27.00 -9.00 L26.00 -9.00 L26.00 -8.00 L27.00 -8.00 " />
<path stroke="#000000" stroke-width="0.000000" fill="#000000" d="M25.00 -9.00 L24.00 -9.00 L24.00 -8.00 L25.00 -8.00 L25.00 -9.00 " />
<path stroke="#000000" stroke-width="0.000000" fill="#000000" d="M24.00 -7.00 L24.00 -6.00 L25.00 -6.00 L25.00 -7.00 L24.00 -7.00 " />
<path stroke="#000000" stroke-width="0.000000" fill="#000000" d="M25.00 -7.00 L26.00 -7.00 L26.00 -8.00 L25.00 -8.00 L25.00 -7.00 " />
<path stroke="#000000" stroke-width="0.000000" fill="#000000" d="M21.00 -9.00 L20.00 -9.00 L20.00 -8.00 L21.00 -8.00 L21.00 -9.00 " />
<path stroke="#000000" stroke-width="0.000000" fill="#000000" d="M19.00 -9.00 L18.00 -9.00 L18.00 -8.00 L19.00 -8.00 L19.00 -9.00 " />
<path stroke="#000000" stroke-width="0.000000" fill="#000000" d="M18.00 -7.00 L18.00 -6.00 L19.00 -6.00 L19.00 -7.00 L18.00 -7.00 " />
<path stroke="#000000" stroke-width="0.000000" fill="#000000" d="M20.00 -6.00 L21.00 -6.00 L21.00 -7.00 L20.00 -7.00 L20.00 -6.00 " />
<path stroke="#000000" stroke-width="0.000000" fill="#000000" d="M20.00 -7.00 L20.00 -8.00 L19.00 -8.00 L19.00 -7.00 L20.00 -7.00 " />
<path stroke="#000000" stroke-width="0.000000" fill="#000000" d="M21.00 -6.00 L21.00 -5.00 L22.00 -5.00 L22.00 -6.00 L21.00 -6.00 " />
<path stroke="#000000" stroke-width="0.000000" fill="#000000" d="M21.00 -4.00 L21.00 -3.00 L22.00 -3.00 L22.00 -4.00 L21.00 -4.00 " />
<path stroke="#000000" stroke-width="0.000000" fill="#000000" d="M23.00 -3.00 L24.00 -3.00 L24.00 -4.00 L23.00 -4.00 L23.00 -3.00 " />
<path stroke="#000000" stroke-width="0.000000" fill="#000000" d="M24.00 -5.00 L24.00 -6.00 L23.00 -6.00 L23.00 -5.00 L24.00 -5.00 " />
<path stroke="#000000" stroke-width="0.000000" fill="#000000" d="M23.00 -5.00 L22.00 -5.00 L22.00 -4.00 L23.00 -4.00 L23.00 -5.00 " />
<path stroke="#000000" stroke-width="0.000000" fill="#000000" d="M27.00 -18.00 L27.00 -19.00 L26.00 -19.00 L26.00 -18.00 L27.00 -18.00 " />
<path stroke="#000000" stroke-width="0.000000" fill="#000000" d="M27.00 -20.00 L27.00 -21.00 L26.00 -21.00 L26.00 -20.00 L27.00 -20.00 " />
<path stroke="#000000" stroke-width="0.000000" fill="#000000" d="M25.00 -21.00 L24.00 -21.00 L24.00 -20.00 L25.00 -20.00 L25.00 -21.00 " />
<path stroke="#000000" stroke-width="0.000000" fill="#000000" d="M24.00 -19.00 L24.00 -18.00 L25.00 -18.00 L25.00 -19.00 L24.00 -19.00 " />
<path stroke="#000000" stroke-width="0.000000" fill="#000000" d="M25.00 -19.00 L26.00 -19.00 L26.00 -20.00 L25.00 -20.00 L25.00 -19.00 " />
<path stroke="#000000" stroke-width="0.000000" fill="#000000" d="M27.00 -24.00 L27.00 -25.00 L26.00 -25.00 L26.00 -24.00 L27.00 -24.00 " />
<path stroke="#000000" stroke-width="0.000000" fill="#000000" d="M27.00 -26.00 L27.00 -27.00 L26.00 -27.00 L26.00 -26.00 L27.00 -26.00 " />
<path stroke="#000000" stroke-width="0.000000" fill="#000000" d="M25.00 -27.00 L24.00 -27.00 L24.00 -26.00 L25.00 -26.00 L25.00 -27.00 " />
<path stroke="#000000" stroke-width="0.000000" fill="#000000" d="M24.00 -25.00 L24.00 -24.00 L25.00 -24.00 L25.00 -25.00 L24.00 -25.00 " />
<path stroke="#000000" stroke-width="0.000000" fill="#000000" d="M25.00 -25.00 L26.00 -25.00 L26.00 -26.00 L25.00 -26.00 L25.00 -25.00 " />
<path stroke="#000000" stroke-width="0.000000" fill="#000000" d="M21.00 -27.00 L20.00 -27.00 L20.00 -26.00 L21.00 -26.00 L21.00 -27.00 " />
<path stroke="#000000" stroke-width="0.000000" fill="#000000" d="M19.00 -27.00 L18.00 -27.00 L18.00 -26.00 L19.00 -26.00 L19.00 -27.00 " />
<path stroke="#000000" stroke-width="0.000000" fill="#000000" d="M18.00 -25.00 L18.00 -24.00 L19.00 -24.00 L19.00 -25.00 L18.00 -25.00 " />
<path stroke="#000000" stroke-width="0.000000" fill="#000000" d="M20.00 -24.00 L21.00 -24.00 L21.00 -25.00 L20.00 -25.00 L20.00 -24.00 " />
<path stroke="#000000" stroke-width="0.000000" fill="#000000" d="M20.00 -25.00 L20.00 -26.00 L19.00 -26.00 L19.00 -25.00 L20.00 -25.00 " />
<path stroke="#000000" stroke-width="0.000000" fill="#000000" d="M18.00 -21.00 L18.00 -20.00 L19.00 -20.00 L19.00 -21.00 L18.00 -21.00 " />
<path stroke="#000000" stroke-width="0.000000" fill="#000000" d="M18.00 -19.00 L18.00 -18.00 L19.00 -18.00 L19.00 -19.00 L18.00 -19.00 " />
<path stroke="#000000" stroke-width="0.000000" fill="#000000" d="M20.00 -18.00 L21.00 -18.00 L21.00 -19.00 L20.00 -19.00 L20.00 -18.00 " />
<path stroke="#000000" stroke-width="0.000000" fill="#000000" d="M21.00 -20.00 L21.00 -21.00 L20.00 -21.00 L20.00 -20.00 L21.00 -20.00 " />
<path stroke="#000000" stroke-width="0.000000" fill="#000000" d="M20.00 -20.00 L19.00 -20.00 L19.00 -19.00 L20.00 -19.00 L20.00 -20.00 " />
<path stroke="#000000" stroke-width="0.000000" fill="#000000" d="M21.00 -21.00 L22.00 -21.00 L22.00 -22.00 L21.00 -22.00 L21.00 -21.00 " />
<path stroke="#000000" stroke-width="0.000000" fill="#000000" d="M23.00 -21.00 L24.00 -21.00 L24.00 -22.00 L23.00 -22.00 L23.00 -21.00 " />
<path stroke="#000000" stroke-width="0.000000" fill="#000000" d="M24.00 -23.00 L24.00 -24.00 L23.00 -24.00 L23.00 -23.00 L24.00 -23.00 " />
<path stroke="#000000" stroke-width="0.000000" fill="#000000" d="M22.00 -24.00 L21.00 -24.00 L21.00 -23.00 L22.00 -23.00 L22.00 -24.00 " />
<path stroke="#000000" stroke-width="0.000000" fill="#000000" d="M22.00 -23.00 L22.00 -22.00 L23.00 -22.00 L23.00 -23.00 L22.00 -23.00 " />
<path stroke="#000000" stroke-width="0.000000" fill="#000000" d="M9.00 -27.00 L8.00 -27.00 L8.00 -26.00 L9.00 -26.00 L9.00 -27.00 " />
<path stroke="#000000" stroke-width="0.000000" fill="#000000" d="M7.00 -27.00 L6.00 -27.00 L6.00 -26.00 L7.00 -26.00 L7.00 -27.00 " />
<path stroke="#000000" stroke-width="0.000000" fill="#000000" d="M6.00 -25.00 L6.00 -24.00 L7.00 -24.00 L7.00 -25.00 L6.00 -25.00 " />
<path stroke="#000000" stroke-width="0.000000" fill="#000000" d="M8.00 -24.00 L9.00 -24.00 L9.00 -25.00 L8.00 -25.00 L8.00 -24.00 " />
<path stroke="#000000" stroke-width="0.000000" fill="#000000" d="M8.00 -25.00 L8.00 -26.00 L7.00 -26.00 L7.00 -25.00 L8.00 -25.00 " />
<path stroke="#000000" stroke-width="0.000000" fill="#000000" d="M3.00 -27.00 L2.00 -27.00 L2.00 -26.00 L3.00 -26.00 L3.00 -27.00 " />
<path stroke="#000000" stroke-width="0.000000" fill="#000000" d="M1.00 -27.00 L0.00 -27.00 L0.00 -26.00 L1.00 -26.00 L1.00 -27.00 " />
<path stroke="#000000" stroke-width="0.000000" fill="#000000" d="M0.00 -25.00 L0.00 -24.00 L1.00 -24.00 L1.00 -25.00 L0.00 -25.00 " />
<path stroke="#000000" stroke-width="0.000000" fill="#000000" d="M2.00 -24.00 L3.00 -24.00 L3.00 -25.00 L2.00 -25.00 L2.00 -24.00 " />
<path stroke="#000000" stroke-width="0.000000" fill="#000000" d="M2.00 -25.00 L2.00 -26.00 L1.00 -26.00 L1.00 -25.00 L2.00 -25.00 " />
<path stroke="#000000" stroke-width="0.000000" fill="#000000" d="M-0.00 -21.00 L-0.00 -20.00 L1.00 -20.00 L1.00 -21.00 L0.00 -21.00 " />
<path stroke="#000000" stroke-width="0.000000" fill="#000000" d="M0.00 -19.00 L0.00 -18.00 L1.00 -18.00 L1.00 -19.00 L0.00 -19.00 " />
<path stroke="#000000" stroke-width="0.000000" fill="#000000" d="M2.00 -18.00 L3.00 -18.00 L3.00 -19.00 L2.00 -19.00 L2.00 -18.00 " />
<path stroke="#000000" stroke-width="0.000000" fill="#000000" d="M3.00 -20.00 L3.00 -21.00 L2.00 -21.00 L2.00 -20.00 L3.00 -20.00 " />
<path stroke="#000000" stroke-width="0.000000" fill="#000000" d="M2.00 -20.00 L1.00 -20.00 L1.00 -19.00 L2.00 -19.00 L2.00 -20.00 " />
<path stroke="#000000" stroke-width="0.000000" fill="#000000" d="M6.00 -18.00 L7.00 -18.00 L7.00 -19.00 L6.00 -19.00 L6.00 -18.00 " />
<path stroke="#000000" stroke-width="0.000000" fill="#000000" d="M8.00 -18.00 L9.00 -18.00 L9.00 -19.00 L8.00 -19.00 L8.00 -18.00 " />
<path stroke="#000000" stroke-width="0.000000" fill="#000000" d="M9.00 -20.00 L9.00 -21.00 L8.00 -21.00 L8.00 -20.00 L9.00 -20.00 " />
<path stroke="#000000" stroke-width="0.000000" fill="#000000" d="M7.00 -21.00 L6.00 -21.00 L6.00 -20.00 L7.00 -20.00 L7.00 -21.00 " />
<path stroke="#000000" stroke-width="0.000000" fill="#000000" d="M7.00 -20.00 L7.00 -19.00 L8.00 -19.00 L8.00 -20.00 L7.00 -20.00 " />
<path stroke="#000000" stroke-width="0.000000" fill="#000000" d="M6.00 -21.00 L6.00 -22.00 L5.00 -22.00 L5.00 -21.00 L6.00 -21.00 " />
<path stroke="#000000" stroke-width="0.000000" fill="#000000" d="M6.00 -23.00 L6.00 -24.00 L5.00 -24.00 L5.00 -23.00 L6.00 -23.00 " />
<path stroke="#000000" stroke-width="0.000000" fill="#000000" d="M4.00 -24.00 L3.00 -24.00 L3.00 -23.00 L4.00 -23.00 L4.00 -24.00 " />
<path stroke="#000000" stroke-width="0.000000" fill="#000000" d="M3.00 -22.00 L3.00 -21.00 L4.00 -21.00 L4.00 -22.00 L3.00 -22.00 " />
<path stroke="#000000" stroke-width="0.000000" fill="#000000" d="M4.00 -22.00 L5.00 -22.00 L5.00 -23.00 L4.00 -23.00 L4.00 -22.00 " />
<path stroke="#000000" stroke-width="0.000000" fill="#000000" d="M9.00 -18.00 L9.00 -17.00 L10.00 -17.00 L10.00 -18.00 L9.00 -18.00 " />
<path stroke="#000000" stroke-width="0.000000" fill="#000000" d="M9.00 -16.00 L9.00 -15.00 L10.00 -15.00 L10.00 -16.00 L9.00 -16.00 " />
<path stroke="#000000" stroke-width="0.000000" fill="#000000" d="M11.00 -15.00 L12.00 -15.00 L12.00 -16.00 L11.00 -16.00 L11.00 -15.00 " />
<path stroke="#000000" stroke-width="0.000000" fill="#000000" d="M12.00 -17.00 L12.00 -18.00 L11.00 -18.00 L11.00 -17.00 L12.00 -17.00 " />
<path stroke="#000000" stroke-width="0.000000" fill="#000000" d="M11.00 -17.00 L10.00 -17.00 L10.00 -16.00 L11.00 -16.00 L11.00 -17.00 " />
<path stroke="#000000" stroke-width="0.000000" fill="#000000" d="M9.00 -12.00 L9.00 -11.00 L10.00 -11.00 L10.00 -12.00 L9.00 -12.00 " />
<path stroke="#000000" stroke-width="0.000000" fill="#000000" d="M9.00 -10.00 L9.00 -9.00 L10.00 -9.00 L10.00 -10.00 L9.00 -10.00 " />
<path stroke="#000000" stroke-width="0.000000" fill="#000000" d="M11.00 -9.00 L12.00 -9.00 L12.00 -10.00 L11.00 -10.00 L11.00 -9.00 " />
<path stroke="#000000" stroke-width="0.000000" fill="#000000" d="M12.00 -11.00 L12.00 -12.00 L11.00 -12.00 L11.00 -11.00 L12.00 -11.00 " />
<path stroke="#000000" stroke-width="0.000000" fill="#000000" d="M11.00 -11.00 L10.00 -11.00 L10.00 -10.00 L11.00 -10.00 L11.00 -11.00 " />
<path stroke="#000000" stroke-width="0.000000" fill="#000000" d="M15.00 -9.00 L16.00 -9.00 L16.00 -10.00 L15.00 -10.00 L15.00 -9.00 " />
<path stroke="#000000" stroke-width="0.000000" fill="#000000" d="M17.00 -9.00 L18.00 -9.00 L18.00 -10.00 L17.00 -10.00 L17.00 -9.00 " />
<path stroke="#000000" stroke-width="0.000000" fill="#000000" d="M18.00 -11.00 L18.00 -12.00 L17.00 -12.00 L17.00 -11.00 L18.00 -11.00 " />
<path stroke="#000000" stroke-width="0.000000" fill="#000000" d="M16.00 -12.00 L15.00 -12.00 L15.00 -11.00 L16.00 -11.00 L16.00 -12.00 " />
<path stroke="#000000" stroke-width="0.000000" fill="#000000" d="M16.00 -11.00 L16.00 -10.00 L17.00 -10.00 L17.00 -11.00 L16.00 -11.00 " />
<path stroke="#000000" stroke-width="0.000000" fill="#000000" d="M18.00 -15.00 L18.00 -16.00 L17.00 -16.00 L17.00 -15.00 L18.00 -15.00 " />
<path stroke="#000000" stroke-width="0.000000" fill="#000000" d="M18.00 -17.00 L18.00 -18.00 L17.00 -18.00 L17.00 -17.00 L18.00 -17.00 " />
<path stroke="#000000" stroke-width="0.000000" fill="#000000" d="M16.00 -18.00 L15.00 -18.00 L15.00 -17.00 L16.00 -17.00 L16.00 -18.00 " />
<path stroke="#000000" stroke-width="0.000000" fill="#000000" d="M15.00 -16.00 L15.00 -15.00 L16.00 -15.00 L16.00 -16.00 L15.00 -16.00 " />
<path stroke="#000000" stroke-width="0.000000" fill="#000000" d="M16.00 -16.00 L17.00 -16.00 L17.00 -17.00 L16.00 -17.00 L16.00 -16.00 " />
<path stroke="#000000" stroke-width="0.000000" fill="#000000" d="M15.00 -15.00 L14.00 -15.00 L14.00 -14.00 L15.00 -14.00 L15.00 -15.00 " />
<path stroke="#000000" stroke-width="0.000000" fill="#000000" d="M13.00 -15.00 L12.00 -15.00 L12.00 -14.00 L13.00 -14.00 L13.00 -15.00 " />
<path stroke="#000000" stroke-width="0.000000" fill="#000000" d="M12.00 -13.00 L12.00 -12.00 L13.00 -12.00 L13.00 -13.00 L12.00 -13.00 " />
<path stroke="#000000" stroke-width="0.000000" fill="#000000" d="M14.00 -12.00 L15.00 -12.00 L15.00 -13.00 L14.00 -13.00 L14.00 -12.00 " />
<path stroke="#000000" stroke-width="0.000000" fill="#000000" d="M14.00 -13.00 L14.00 -14.00 L13.00 -14.00 L13.00 -13.00 L14.00 -13.00 " />
<path stroke="#000000" stroke-width="0.000000" fill="#000000" d="M54.00 0.00 L55.00 0.00 L55.00 -1.00 L54.00 -1.00 L54.00 0.00 " />
<path stroke="#000000" stroke-width="0.000000" fill="#000000" d="M56.00 -0.00 L57.00 -0.00 L57.00 -1.00 L56.00 -1.00 L56.00 0.00 " />
<path stroke="#000000" stroke-width="0.000000" fill="#000000" d="M57.00 -2.00 L57.00 -3.00 L56.00 -3.00 L56.00 -2.00 L57.00 -2.00 " />
<path stroke="#000000" stroke-width="0.000000" fill="#000000" d="M55.00 -3.00 L54.00 -3.00 L54.00 -2.00 L55.00 -2.00 L55.00 -3.00 " />
<path stroke="#000000" stroke-width="0.000000" fill="#000000" d="M55.00 -2.00 L55.00 -1.00 L56.00 -1.00 L56.00 -2.00 L55.00 -2.00 " />
<path stroke="#000000" stroke-width="0.000000" fill="#000000" d="M60.00 0.00 L61.00 0.00 L61.00 -1.00 L60.00 -1.00 L60.00 0.00 " />
<path stroke="#000000" stroke-width="0.000000" fill="#000000" d="M62.00 0.00 L63.00 0.00 L63.00 -1.00 L62.00 -1.00 L62.00 0.00 " />
<path stroke="#000000" stroke-width="0.000000" fill="#000000" d="M63.00 -2.00 L63.00 -3.00 L62.00 -3.00 L62.00 -2.00 L63.00 -2.00 " />
<path stroke="#000000" stroke-width="0.000000" fill="#000000" d="M61.00 -3.00 L60.00 -3.00 L60.00 -2.00 L61.00 -2.00 L61.00 -3.00 " />
<path stroke="#000000" stroke-width="0.000000" fill="#000000" d="M61.00 -2.00 L61.00 -1.00 L62.00 -1.00 L62.00 -2.00 L61.00 -2.00 " />
<path stroke="#000000" stroke-width="0.000000" fill="#000000" d="M63.00 -6.00 L63.00 -7.00 L62.00 -7.00 L62.00 -6.00 L63.00 -6.00 " />
<path stroke="#000000" stroke-width="0.000000" fill="#000000" d="M63.00 -8.00 L63.00 -9.00 L62.00 -9.00 L62.00 -8.00 L63.00 -8.00 " />
<path stroke="#000000" stroke-width="0.000000" fill="#000000" d="M61.00 -9.00 L60.00 -9.00 L60.00 -8.00 L61.00 -8.00 L61.00 -9.00 " />
<path stroke="#000000" stroke-width="0.000000" fill="#000000" d="M60.00 -7.00 L60.00 -6.00 L61.00 -6.00 L61.00 -7.00 L60.00 -7.00 " />
<path stroke="#000000" stroke-width="0.000000" fill="#000000" d="M61.00 -7.00 L62.00 -7.00 L62.00 -8.00 L61.00 -8.00 L61.00 -7.00 " />
<path stroke="#000000" stroke-width="0.000000" fill="#000000" d="M57.00 -9.00 L56.00 -9.00 L56.00 -8.00 L57.00 -8.00 L57.00 -9.00 " />
<path stroke="#000000" stroke-width="0.000000" fill="#000000" d="M55.00 -9.00 L54.00 -9.00 L54.00 -8.00 L55.00 -8.00 L55.00 -9.00 " />
<path stroke="#000000" stroke-width="0.000000" fill="#000000" d="M54.00 -7.00 L54.00 -6.00 L55.00 -6.00 L55.00 -7.00 L54.00 -7.00 " />
<path stroke="#000000" stroke-width="0.000000" fill="#000000" d="M56.00 -6.00 L57.00 -6.00 L57.00 -7.00 L56.00 -7.00 L56.00 -6.00 " />
<path stroke="#000000" stroke-width="0.000000" fill="#000000" d="M56.00 -7.00 L56.00 -8.00 L55.00 -8.00 L55.00 -7.00 L56.00 -7.00 " />
<path stroke="#000000" stroke-width="0.000000" fill="#000000" d="M57.00 -6.00 L57.00 -5.00 L58.00 -5.00 L58.00 -6.00 L57.00 -6.00 " />
<path stroke="#000000" stroke-width="0.000000" fill="#000000" d="M57.00 -4.00 L57.00 -3.00 L58.00 -3.00 L58.00 -4.00 L57.00 -4.00 " />
<path stroke="#000000" stroke-width="0.000000" fill="#000000" d="M59.00 -3.00 L60.00 -3.00 L60.00 -4.00 L59.00 -4.00 L59.00 -3.00 " />
<path stroke="#000000" stroke-width="0.000000" fill="#000000" d="M60.00 -5.00 L60.00 -6.00 L59.00 -6.00 L59.00 -5.00 L60.00 -5.00 " />
<path stroke="#000000" stroke-width="0.000000" fill="#000000" d="M59.00 -5.00 L58.00 -5.00 L58.00 -4.00 L59.00 -4.00 L59.00 -5.00 " />
<path stroke="#000000" stroke-width="0.000000" fill="#000000" d="M72.00 0.00 L73.00 0.00 L73.00 -1.00 L72.00 -1.00 L72.00 0.00 " />
<path stroke="#000000" stroke-width="0.000000" fill="#000000" d="M74.00 -0.00 L75.00 -0.00 L75.00 -1.00 L74.00 -1.00 L74.00 0.00 " />
<path stroke="#000000" stroke-width="0.000000" fill="#000000" d="M75.00 -2.00 L75.00 -3.00 L74.00 -3.00 L74.00 -2.00 L75.00 -2.00 " />
<path stroke="#000000" stroke-width="0.000000" fill="#000000" d="M73.00 -3.00 L72.00 -3.00 L72.00 -2.00 L73.00 -2.00 L73.00 -3.00 " />
<path stroke="#000000" stroke-width="0.000000" fill="#000000" d="M73.00 -2.00 L73.00 -1.00 L74.00 -1.00 L74.00 -2.00 L73.00 -2.00 " />
<path stroke="#000000" stroke-width="0.000000" fill="#000000" d="M78.00 0.00 L79.00 0.00 L79.00 -1.00 L78.00 -1.00 L78.00 0.00 " />
<path stroke="#000000" stroke-width="0.000000" fill="#000000" d="M80.00 0.00 L81.00 0.00 L81.00 -1.00 L80.00 -1.00 L80.00 0.00 " />
<path stroke="#000000" stroke-width="0.000000" fill="#000000" d="M81.00 -2.00 L81.00 -3.00 L80.00 -3.00 L80.00 -2.00 L81.00 -2.00 " />
<path stroke="#000000" stroke-width="0.000000" fill="#000000" d="M79.00 -3.00 L78.00 -3.00 L78.00 -2.00 L79.00 -2.00 L79.00 -3.00 " />
<path stroke="#000000" stroke-width="0.000000" fill="#000000" d="M79.00 -2.00 L79.00 -1.00 L80.00 -1.00 L80.00 -2.00 L79.00 -2.00 " />
<path stroke="#000000" stroke-width="0.000000" fill="#000000" d="M81.00 -6.00 L81.00 -7.00 L80.00 -7.00 L80.00 -6.00 L81.00 -6.00 " />
<path stroke="#000000" stroke-width="0.000000" fill="#000000" d="M81.00 -8.00 L81.00 -9.00 L80.00 -9.00 L80.00 -8.00 L81.00 -8.00 " />
<path stroke="#000000" stroke-width="0.000000" fill="#000000" d="M79.00 -9.00 L78.00 -9.00 L78.00 -8.00 L79.00 -8.00 L79.00 -9.00 " />
<path stroke="#000000" stroke-width="0.000000" fill="#000000" d="M78.00 -7.00 L78.00 -6.00 L79.00 -6.00 L79.00 -7.00 L78.00 -7.00 " />
<path stroke="#000000" stroke-width="0.000000" fill="#000000" d="M79.00 -7.00 L80.00 -7.00 L80.00 -8.00 L79.00 -8.00 L79.00 -7.00 " />
<path stroke="#000000" stroke-width="0.000000" fill="#000000" d="M75.00 -9.00 L74.00 -9.00 L74.00 -8.00 L75.00 -8.00 L75.00 -9.00 " />
<path stroke="#000000" stroke-width="0.000000" fill="#000000" d="M73.00 -9.00 L72.00 -9.00 L72.00 -8.00 L73.00 -8.00 L73.00 -9.00 " />
<path stroke="#000000" stroke-width="0.000000" fill="#000000" d="M72.00 -7.00 L72.00 -6.00 L73.00 -6.00 L73.00 -7.00 L72.00 -7.00 " />
<path stroke="#000000" stroke-width="0.000000" fill="#000000" d="M74.00 -6.00 L75.00 -6.00 L75.00 -7.00 L74.00 -7.00 L74.00 -6.00 " />
<path stroke="#000000" stroke-width="0.000000" fill="#000000" d="M74.00 -7.00 L74.00 -8.00 L73.00 -8.00 L73.00 -7.00 L74.00 -7.00 " />
<path stroke="#000000" stroke-width="0.000000" fill="#000000" d="M75.00 -6.00 L75.00 -5.00 L76.00 -5.00 L76.00 -6.00 L75.00 -6.00 " />
<path stroke="#000000" stroke-width="0.000000" fill="#000000" d="M75.00 -4.00 L75.00 -3.00 L76.00 -3.00 L76.00 -4.00 L75.00 -4.00 " />
<path stroke="#000000" stroke-width="0.000000" fill="#000000" d="M77.00 -3.00 L78.00 -3.00 L78.00 -4.00 L77.00 -4.00 L77.00 -3.00 " />
<path stroke="#000000" stroke-width="0.000000" fill="#000000" d="M78.00 -5.00 L78.00 -6.00 L77.00 -6.00 L77.00 -5.00 L78.00 -5.00 " />
<path stroke="#000000" stroke-width="0.000000" fill="#000000" d="M77.00 -5.00 L76.00 -5.00 L76.00 -4.00 L77.00 -4.00 L77.00 -5.00 " />
<path stroke="#000000" stroke-width="0.000000" fill="#000000" d="M81.00 -18.00 L81.00 -19.00 L80.00 -19.00 L80.00 -18.00 L81.00 -18.00 " />
<path stroke="#000000" stroke-width="0.000000" fill="#000000" d="M81.00 -20.00 L81.00 -21.00 L80.00 -21.00 L80.00 -20.00 L81.00 -20.00 " />
<path stroke="#000000" stroke-width="0.000000" fill="#000000" d="M79.00 -21.00 L78.00 -21.00 L78.00 -20.00 L79.00 -20.00 L79.00 -21.00 " />
<path stroke="#000000" stroke-width="0.000000" fill="#000000" d="M78.00 -19.00 L78.00 -18.00 L79.00 -18.00 L79.00 -19.00 L78.00 -19.00 " />
<path stroke="#000000" stroke-width="0.000000" fill="#000000" d="M79.00 -19.00 L80.00 -19.00 L80.00 -20.00 L79.00 -20.00 L79.00 -19.00 " />
<path stroke="#000000" stroke-width="0.000000" fill="#000000" d="M81.00 -24.00 L81.00 -25.00 L80.00 -25.00 L80.00 -24.00 L81.00 -24.00 " />
<path stroke="#000000" stroke-width="0.000000" fill="#000000" d="M81.00 -26.00 L81.00 -27.00 L80.00 -27.00 L80.00 -26.00 L81.00 -26.00 " />
<path stroke="#000000" stroke-width="0.000000" fill="#000000" d="M79.00 -27.00 L78.00 -27.00 L78.00 -26.00 L79.00 -26.00 L79.00 -27.00 " />
<path stroke="#000000" stroke-width="0.000000" fill="#000000" d="M78.00 -25.00 L78.00 -24.00 L79.00 -24.00 L79.00 -25.00 L78.00 -25.00 " />
<path stroke="#000000" stroke-width="0.000000" fill="#000000" d="M79.00 -25.00 L80.00 -25.00 L80.00 -26.00 L79.00 -26.00 L79.00 -25.00 " />
<path stroke="#000000" stroke-width="0.000000" fill="#000000" d="M75.00 -27.00 L74.00 -27.00 L74.00 -26.00 L75.00 -26.00 L75.00 -27.00 " />
<path stroke="#000000" stroke-width="0.000000" fill="#000000" d="M73.00 -27.00 L72.00 -27.00 L72.00 -26.00 L73.00 -26.00 L73.00 -27.00 " />
<path stroke="#000000" stroke-width="0.000000" fill="#000000" d="M72.00 -25.00 L72.00 -24.00 L73.00 -24.00 L73.00 -25.00 L72.00 -25.00 " />
<path stroke="#000000" stroke-width="0.000000" fill="#000000" d="M74.00 -24.00 L75.00 -24.00 L75.00 -25.00 L74.00 -25.00 L74.00 -24.00 " />
<path stroke="#000000" stroke-width="0.000000" fill="#000000" d="M74.00 -25.00 L74.00 -26.00 L73.00 -26.00 L73.00 -25.00 L74.00 -25.00 " />
<path stroke="#000000" stroke-width="0.000000" fill="#000000" d="M72.00 -21.00 L72.00 -20.00 L73.00 -20.00 L73.00 -21.00 L72.00 -21.00 " />
<path stroke="#000000" stroke-width="0.000000" fill="#000000" d="M72.00 -19.00 L72.00 -18.00 L73.00 -18.00 L73.00 -19.00 L72.00 -19.00 " />
<path stroke="#000000" stroke-width="0.000000" fill="#000000" d="M74.00 -18.00 L75.00 -18.00 L75.00 -19.00 L74.00 -19.00 L74.00 -18.00 " />
<path stroke="#000000" stroke-width="0.000000" fill="#000000" d="M75.00 -20.00 L75.00 -21.00 L74.00 -21.00 L74.00 -20.00 L75.00 -20.00 " />
<path stroke="#000000" stroke-width="0.000000" fill="#000000" d="M74.00 -20.00 L73.00 -20.00 L73.00 -19.00 L74.00 -19.00 L74.00 -20.00 " />
<path stroke="#000000" stroke-width="0.000000" fill="#000000" d="M75.00 -21.00 L76.00 -21.00 L76.00 -22.00 L75.00 -22.00 L75.00 -21.00 " />
<path stroke="#000000" stroke-width="0.000000" fill="#000000" d="M77.00 -21.00 L78.00 -21.00 L78.00 -22.00 L77.00 -22.00 L77.00 -21.00 " />
<path stroke="#000000" stroke-width="0.000000" fill="#000000" d="M78.00 -23.00 L78.00 -24.00 L77.00 -24.00 L77.00 -23.00 L78.00 -23.00 " />
<path stroke="#000000" stroke-width="0.000000" fill="#000000" d="M76.00 -24.00 L75.00 -24.00 L75.00 -23.00 L76.00 -23.00 L76.00 -24.00 " />
<path stroke="#000000" stroke-width="0.000000" fill="#000000" d="M76.00 -23.00 L76.00 -22.00 L77.00 -22.00 L77.00 -23.00 L76.00 -23.00 " />
<path stroke="#000000" stroke-width="0.000000" fill="#000000" d="M63.00 -27.00 L62.00 -27.00 L62.00 -26.00 L63.00 -26.00 L63.00 -27.00 " />
<path stroke="#000000" stroke-width="0.000000" fill="#000000" d="M61.00 -27.00 L60.00 -27.00 L60.00 -26.00 L61.00 -26.00 L61.00 -27.00 " />
<path stroke="#000000" stroke-width="0.000000" fill="#000000" d="M60.00 -25.00 L60.00 -24.00 L61.00 -24.00 L61.00 -25.00 L60.00 -25.00 " />
<path stroke="#000000" stroke-width="0.000000" fill="#000000" d="M62.00 -24.00 L63.00 -24.00 L63.00 -25.00 L62.00 -25.00 L62.00 -24.00 " />
<path stroke="#000000" stroke-width="0.000000" fill="#000000" d="M62.00 -25.00 L62.00 -26.00 L61.00 -26.00 L61.00 -25.00 L62.00 -25.00 " />
<path stroke="#000000" stroke-width="0.000000" fill="#000000" d="M57.00 -27.00 L56.00 -27.00 L56.00 -26.00 L57.00 -26.00 L57.00 -27.00 " />
<path stroke="#000000" stroke-width="0.000000" fill="#000000" d="M55.00 -27.00 L54.00 -27.00 L54.00 -26.00 L55.00 -26.00 L55.00 -27.00 " />
<path stroke="#000000" stroke-width="0.000000" fill="#000000" d="M54.00 -25.00 L54.00 -24.00 L55.00 -24.00 L55.00 -25.00 L54.00 -25.00 " />
<path stroke="#000000" stroke-width="0.000000" fill="#000000" d="M56.00 -24.00 L57.00 -24.00 L57.00 -25.00 L56.00 -25.00 L56.00 -24.00 " />
<path stroke="#000000" stroke-width="0.000000" fill="#000000" d="M56.00 -25.00 L56.00 -26.00 L55.00 -26.00 L55.00 -25.00 L56.00 -25.00 " />
<path stroke="#000000" stroke-width="0.000000" fill="#000000" d="M54.00 -21.00 L54.00 -20.00 L55.00 -20.00 L55.00 -21.00 L54.00 -21.00 " />
<path stroke="#000000" stroke-width="0.000000" fill="#000000" d="M54.00 -19.00 L54.00 -18.00 L55.00 -18.00 L55.00 -19.00 L54.00 -19.00 " />
<path stroke="#000000" stroke-width="0.000000" fill="#000000" d="M56.00 -18.00 L57.00 -18.00 L57.00 -19.00 L56.00 -19.00 L56.00 -18.00 " />
<path stroke="#000000" stroke-width="0.000000" fill="#000000" d="M57.00 -20.00 L57.00 -21.00 L56.00 -21.00 L56.00 -20.00 L57.00 -20.00 " />
<path stroke="#000000" stroke-width="0.000000" fill="#000000" d="M56.00 -20.00 L55.00 -20.00 L55.00 -19.00 L56.00 -19.00 L56.00 -20.00 " />
<path stroke="#000000" stroke-width="0.000000" fill="#000000" d="M60.00 -18.00 L61.00 -18.00 L61.00 -19.00 L60.00 -19.00 L60.00 -18.00 " />
<path stroke="#000000" stroke-width="0.000000" fill="#000000" d="M62.00 -18.00 L63.00 -18.00 L63.00 -19.00 L62.00 -19.00 L62.00 -18.00 " />
<path stroke="#000000" stroke-width="0.000000" fill="#000000" d="M63.00 -20.00 L63.00 -21.00 L62.00 -21.00 L62.00 -20.00 L63.00 -20.00 " />
<path stroke="#000000" stroke-width="0.000000" fill="#000000" d="M61.00 -21.00 L60.00 -21.00 L60.00 -20.00 L61.00 -20.00 L61.00 -21.00 " />
<path stroke="#000000" stroke-width="0.000000" fill="#000000" d="M61.00 -20.00 L61.00 -19.00 L62.00 -19.00 L62.00 -20.00 L61.00 -20.00 " />
<path stroke="#000000" stroke-width="0.000000" fill="#000000" d="M60.00 -21.00 L60.00 -22.00 L59.00 -22.00 L59.00 -21.00 L60.00 -21.00 " />
<path stroke="#000000" stroke-width="0.000000" fill="#000000" d="M60.00 -23.00 L60.00 -24.00 L59.00 -24.00 L59.00 -23.00 L60.00 -23.00 " />
<path stroke="#000000" stroke-width="0.000000" fill="#000000" d="M58.00 -24.00 L57.00 -24.00 L57.00 -23.00 L58.00 -23.00 L58.00 -24.00 " />
<path stroke="#000000" stroke-width="0.000000" fill="#000000" d="M57.00 -22.00 L57.00 -21.00 L58.00 -21.00 L58.00 -22.00 L57.00 -22.00 " />
<path stroke="#000000" stroke-width="0.000000" fill="#000000" d="M58.00 -22.00 L59.00 -22.00 L59.00 -23.00 L58.00 -23.00 L58.00 -22.00 " />
<path stroke="#000000" stroke-width="0.000000" fill="#000000" d="M63.00 -18.00 L63.00 -17.00 L64.00 -17.00 L64.00 -18.00 L63.00 -18.00 " />
<path stroke="#000000" stroke-width="0.000000" fill="#000000" d="M63.00 -16.00 L63.00 -15.00 L64.00 -15.00 L64.00 -16.00 L63.00 -16.00 " />
<path stroke="#000000" stroke-width="0.000000" fill="#000000" d="M65.00 -15.00 L66.00 -15.00 L66.00 -16.00 L65.00 -16.00 L65.00 -15.00 " />
<path stroke="#000000" stroke-width="0.000000" fill="#000000" d="M66.00 -17.00 L66.00 -18.00 L65.00 -18.00 L65.00 -17.00 L66.00 -17.00 " />
<path stroke="#000000" stroke-width="0.000000" fill="#000000" d="M65.00 -17.00 L64.00 -17.00 L64.00 -16.00 L65.00 -16.00 L65.00 -17.00 " />
<path stroke="#000000" stroke-width="0.000000" fill="#000000" d="M63.00 -12.00 L63.00 -11.00 L64.00 -11.00 L64.00 -12.00 L63.00 -12.00 " />
<path stroke="#000000" stroke-width="0.000000" fill="#000000" d="M63.00 -10.00 L63.00 -9.00 L64.00 -9.00 L64.00 -10.00 L63.00 -10.00 " />
<path stroke="#000000" stroke-width="0.000000" fill="#000000" d="M65.00 -9.00 L66.00 -9.00 L66.00 -10.00 L65.00 -10.00 L65.00 -9.00 " />
<path stroke="#000000" stroke-width="0.000000" fill="#000000" d="M66.00 -11.00 L66.00 -12.00 L65.00 -12.00 L65.00 -11.00 L66.00 -11.00 " />
<path stroke="#000000" stroke-width="0.000000" fill="#000000" d="M65.00 -11.00 L64.00 -11.00 L64.00 -10.00 L65.00 -10.00 L65.00 -11.00 " />
<path stroke="#000000" stroke-width="0.000000" fill="#000000" d="M69.00 -9.00 L70.00 -9.00 L70.00 -10.00 L69.00 -10.00 L69.00 -9.00 " />
<path stroke="#000000" stroke-width="0.000000" fill="#000000" d="M71.00 -9.00 L72.00 -9.00 L72.00 -10.00 L71.00 -10.00 L71.00 -9.00 " />
<path stroke="#000000" stroke-width="0.000000" fill="#000000" d="M72.00 -11.00 L72.00 -12.00 L71.00 -12.00 L71.00 -11.00 L72.00 -11.00 " />
<path stroke="#000000" stroke-width="0.000000" fill="#000000" d="M70.00 -12.00 L69.00 -12.00 L69.00 -11.00 L70.00 -11.00 L70.00 -12.00 " />
<path stroke="#000000" stroke-width="0.000000" fill="#000000" d="M70.00 -11.00 L70.00 -10.00 L71.00 -10.00 L71.00 -11.00 L70.00 -11.00 " />
<path stroke="#000000" stroke-width="0.000000" fill="#000000" d="M72.00 -15.00 L72.00 -16.00 L71.00 -16.00 L71.00 -15.00 L72.00 -15.00 " />
<path stroke="#000000" stroke-width="0.000000" fill="#000000" d="M72.00 -17.00 L72.00 -18.00 L71.00 -18.00 L71.00 -17.00 L72.00 -17.00 " />
<path stroke="#000000" stroke-width="0.000000" fill="#000000" d="M70.00 -18.00 L69.00 -18.00 L69.00 -17.00 L70.00 -17.00 L70.00 -18.00 " />
<path stroke="#000000" stroke-width="0.000000" fill="#000000" d="M69.00 -16.00 L69.00 -15.00 L70.00 -15.00 L70.00 -16.00 L69.00 -16.00 " />
<path stroke="#000000" stroke-width="0.000000" fill="#000000" d="M70.00 -16.00 L71.00 -16.00 L71.00 -17.00 L70.00 -17.00 L70.00 -16.00 " />
<path stroke="#000000" stroke-width="0.000000" fill="#000000" d="M69.00 -15.00 L68.00 -15.00 L68.00 -14.00 L69.00 -14.00 L69.00 -15.00 " />
<path stroke="#000000" stroke-width="0.000000" fill="#000000" d="M67.00 -15.00 L66.00 -15.00 L66.00 -14.00 L67.00 -14.00 L67.00 -15.00 " />
<path stroke="#000000" stroke-width="0.000000" fill="#000000" d="M66.00 -13.00 L66.00 -12.00 L67.00 -12.00 L67.00 -13.00 L66.00 -13.00 " />
<path stroke="#000000" stroke-width="0.000000" fill="#000000" d="M68.00 -12.00 L69.00 -12.00 L69.00 -13.00 L68.00 -13.00 L68.00 -12.00 " />
<path stroke="#000000" stroke-width="0.000000" fill="#000000" d="M68.00 -13.00 L68.00 -14.00 L67.00 -14.00 L67.00 -13.00 L68.00 -13.00 " />
<path stroke="#000000" stroke-width="0.000000" fill="#000000" d="M81.00 -54.00 L81.00 -55.00 L80.00 -55.00 L80.00 -54.00 L81.00 -54.00 " />
<path stroke="#000000" stroke-width="0.000000" fill="#000000" d="M81.00 -56.00 L81.00 -57.00 L80.00 -57.00 L80.00 -56.00 L81.00 -56.00 " />
<path stroke="#000000" stroke-width="0.000000" fill="#000000" d="M79.00 -57.00 L78.00 -57.00 L78.00 -56.00 L79.00 -56.00 L79.00 -57.00 " />
<path stroke="#000000" stroke-width="0.000000" fill="#000000" d="M78.00 -55.00 L78.00 -54.00 L79.00 -54.00 L79.00 -55.00 L78.00 -55.00 " />
<path stroke="#000000" stroke-width="0.000000" fill="#000000" d="M79.00 -55.00 L80.00 -55.00 L80.00 -56.00 L79.00 -56.00 L79.00 -55.00 " />
<path stroke="#000000" stroke-width="0.000000" fill="#000000" d="M81.00 -60.00 L81.00 -61.00 L80.00 -61.00 L80.00 -60.00 L81.00 -60.00 " />
<path stroke="#000000" stroke-width="0.000000" fill="#000000" d="M81.00 -62.00 L81.00 -63.00 L80.00 -63.00 L80.00 -62.00 L81.00 -62.00 " />
<path stroke="#000000" stroke-width="0.000000" fill="#000000" d="M79.00 -63.00 L78.00 -63.00 L78.00 -62.00 L79.00 -62.00 L79.00 -63.00 " />
<path stroke="#000000" stroke-width="0.000000" fill="#000000" d="M78.00 -61.00 L78.00 -60.00 L79.00 -60.00 L79.00 -61.00 L78.00 -61.00 " />
<path stroke="#000000" stroke-width="0.000000" fill="#000000" d="M79.00 -61.00 L80.00 -61.00 L80.00 -62.00 L79.00 -62.00 L79.00 -61.00 " />
<path stroke="#000000" stroke-width="0.000000" fill="#000000" d="M75.00 -63.00 L74.00 -63.00 L74.00 -62.00 L75.00 -62.00 L75.00 -63.00 " />
<path stroke="#000000" stroke-width="0.000000" fill="#000000" d="M73.00 -63.00 L72.00 -63.00 L72.00 -62.00 L73.00 -62.00 L73.00 -63.00 " />
<path stroke="#000000" stroke-width="0.000000" fill="#000000" d="M72.00 -61.00 L72.00 -60.00 L73.00 -60.00 L73.00 -61.00 L72.00 -61.00 " />
<path stroke="#000000" stroke-width="0.000000" fill="#000000" d="M74.00 -60.00 L75.00 -60.00 L75.00 -61.00 L74.00 -61.00 L74.00 -60.00 " />
<path stroke="#000000" stroke-width="0.000000" fill="#000000" d="M74.00 -61.00 L74.00 -62.00 L73.00 -62.00 L73.00 -61.00 L74.00 -61.00 " />
<path stroke="#000000" stroke-width="0.000000" fill="#000000" d="M72.00 -57.00 L72.00 -56.00 L73.00 -56.00 L73.00 -57.00 L72.00 -57.00 " />
<path stroke="#000000" stroke-width="0.000000" fill="#000000" d="M72.00 -55.00 L72.00 -54.00 L73.00 -54.00 L73.00 -55.00 L72.00 -55.00 " />
<path stroke="#000000" stroke-width="0.000000" fill="#000000" d="M74.00 -54.00 L75.00 -54.00 L75.00 -55.00 L74.00 -55.00 L74.00 -54.00 " />
<path stroke="#000000" stroke-width="0.000000" fill="#000000" d="M75.00 -56.00 L75.00 -57.00 L74.00 -57.00 L74.00 -56.00 L75.00 -56.00 " />
<path stroke="#000000" stroke-width="0.000000" fill="#000000" d="M74.00 -56.00 L73.00 -56.00 L73.00 -55.00 L74.00 -55.00 L74.00 -56.00 " />
<path stroke="#000000" stroke-width="0.000000" fill="#000000" d="M75.00 -57.00 L76.00 -57.00 L76.00 -58.00 L75.00 -58.00 L75.00 -57.00 " />
<path stroke="#000000" stroke-width="0.000000" fill="#000000" d="M77.00 -57.00 L78.00 -57.00 L78.00 -58.00 L77.00 -58.00 L77.00 -57.00 " />
<path stroke="#000000" stroke-width="0.000000" fill="#000000" d="M78.00 -59.00 L78.00 -60.00 L77.00 -60.00 L77.00 -59.00 L78.00 -59.00 " />
<path stroke="#000000" stroke-width="0.000000" fill="#000000" d="M76.00 -60.00 L75.00 -60.00 L75.00 -59.00 L76.00 -59.00 L76.00 -60.00 " />
<path stroke="#000000" stroke-width="0.000000" fill="#000000" d="M76.00 -59.00 L76.00 -58.00 L77.00 -58.00 L77.00 -59.00 L76.00 -59.00 " />
<path stroke="#000000" stroke-width="0.000000" fill="#000000" d="M81.00 -72.00 L81.00 -73.00 L80.00 -73.00 L80.00 -72.00 L81.00 -72.00 " />
<path stroke="#000000" stroke-width="0.000000" fill="#000000" d="M81.00 -74.00 L81.00 -75.00 L80.00 -75.00 L80.00 -74.00 L81.00 -74.00 " />
<path stroke="#000000" stroke-width="0.000000" fill="#000000" d="M79.00 -75.00 L78.00 -75.00 L78.00 -74.00 L79.00 -74.00 L79.00 -75.00 " />
<path stroke="#000000" stroke-width="0.000000" fill="#000000" d="M78.00 -73.00 L78.00 -72.00 L79.00 -72.00 L79.00 -73.00 L78.00 -73.00 " />
<path stroke="#000000" stroke-width="0.000000" fill="#000000" d="M79.00 -73.00 L80.00 -73.00 L80.00 -74.00 L79.00 -74.00 L79.00 -73.00 " />
<path stroke="#000000" stroke-width="0.000000" fill="#000000" d="M81.00 -78.00 L81.00 -79.00 L80.00 -79.00 L80.00 -78.00 L81.00 -78.00 " />
<path stroke="#000000" stroke-width="0.000000" fill="#000000" d="M81.00 -80.00 L81.00 -81.00 L80.00 -81.00 L80.00 -80.00 L81.00 -80.00 " />
<path stroke="#000000" stroke-width="0.000000" fill="#000000" d="M79.00 -81.00 L78.00 -81.00 L78.00 -80.00 L79.00 -80.00 L79.00 -81.00 " />
<path stroke="#000000" stroke-width="0.000000" fill="#000000" d="M78.00 -79.00 L78.00 -78.00 L79.00 -78.00 L79.00 -79.00 L78.00 -79.00 " />
<path stroke="#000000" stroke-width="0.000000" fill="#000000" d="M79.00 -79.00 L80.00 -79.00 L80.00 -80.00 L79.00 -80.00 L79.00 -79.00 " />
<path stroke="#000000" stroke-width="0.000000" fill="#000000" d="M75.00 -81.00 L74.00 -81.00 L74.00 -80.00 L75.00 -80.00 L75.00 -81.00 " />
<path stroke="#000000" stroke-width="0.000000" fill="#000000" d="M73.00 -81.00 L72.00 -81.00 L72.00 -80.00 L73.00 -80.00 L73.00 -81.00 " />
<path stroke="#000000" stroke-width="0.000000" fill="#000000" d="M72.00 -79.00 L72.00 -78.00 L73.00 -78.00 L73.00 -79.00 L72.00 -79.00 " />
<path stroke="#000000" stroke-width="0.000000" fill="#000000" d="M74.00 -78.00 L75.00 -78.00 L75.00 -79.00 L74.00 -79.00 L74.00 -78.00 " />
<path stroke="#000000" stroke-width="0.000000" fill="#000000" d="M74.00 -79.00 L74.00 -80.00 L73.00 -80.00 L73.00 -79.00 L74.00 -79.00 " />
<path stroke="#000000" stroke-width="0.000000" fill="#000000" d="M72.00 -75.00 L72.00 -74.00 L73.00 -74.00 L73.00 -75.00 L72.00 -75.00 " />
<path stroke="#000000" stroke-width="0.000000" fill="#000000" d="M72.00 -73.00 L72.00 -72.00 L73.00 -72.00 L73.00 -73.00 L72.00 -73.00 " />
<path stroke="#000000" stroke-width="0.000000" fill="#000000" d="M74.00 -72.00 L75.00 -72.00 L75.00 -73.00 L74.00 -73.00 L74.00 -72.00 " />
<path stroke="#000000" stroke-width="0.000000" fill="#000000" d="M75.00 -74.00 L75.00 -75.00 L74.00 -75.00 L74.00 -74.00 L75.00 -74.00 " />
<path stroke="#000000" stroke-width="0.000000" fill="#000000" d="M74.00 -74.00 L73.00 -74.00 L73.00 -73.00 L74.00 -73.00 L74.00 -74.00 " />
<path stroke="#000000" stroke-width="0.000000" fill="#000000" d="M75.00 -75.00 L76.00 -75.00 L76.00 -76.00 L75.00 -76.00 L75.00 -75.00 " />
<path stroke="#000000" stroke-width="0.000000" fill="#000000" d="M77.00 -75.00 L78.00 -75.00 L78.00 -76.00 L77.00 -76.00 L77.00 -75.00 " />
<path stroke="#000000" stroke-width="0.000000" fill="#000000" d="M78.00 -77.00 L78.00 -78.00 L77.00 -78.00 L77.00 -77.00 L78.00 -77.00 " />
<path stroke="#000000" stroke-width="0.000000" fill="#000000" d="M76.00 -78.00 L75.00 -78.00 L75.00 -77.00 L76.00 -77.00 L76.00 -78.00 " />
<path stroke="#000000" stroke-width="0.000000" fill="#000000" d="M76.00 -77.00 L76.00 -76.00 L77.00 -76.00 L77.00 -77.00 L76.00 -77.00 " />
<path stroke="#000000" stroke-width="0.000000" fill="#000000" d="M63.00 -81.00 L62.00 -81.00 L62.00 -80.00 L63.00 -80.00 L63.00 -81.00 " />
<path stroke="#000000" stroke-width="0.000000" fill="#000000" d="M61.00 -81.00 L60.00 -81.00 L60.00 -80.00 L61.00 -80.00 L61.00 -81.00 " />
<path stroke="#000000" stroke-width="0.000000" fill="#000000" d="M60.00 -79.00 L60.00 -78.00 L61.00 -78.00 L61.00 -79.00 L60.00 -79.00 " />
<path stroke="#000000" stroke-width="0.000000" fill="#000000" d="M62.00 -78.00 L63.00 -78.00 L63.00 -79.00 L62.00 -79.00 L62.00 -78.00 " />
<path stroke="#000000" stroke-width="0.000000" fill="#000000" d="M62.00 -79.00 L62.00 -80.00 L61.00 -80.00 L61.00 -79.00 L62.00 -79.00 " />
<path stroke="#000000" stroke-width="0.000000" fill="#000000" d="M57.00 -81.00 L56.00 -81.00 L56.00 -80.00 L57.00 -80.00 L57.00 -81.00 " />
<path stroke="#000000" stroke-width="0.000000" fill="#000000" d="M55.00 -81.00 L54.00 -81.00 L54.00 -80.00 L55.00 -80.00 L55.00 -81.00 " />
<path stroke="#000000" stroke-width="0.000000" fill="#000000" d="M54.00 -79.00 L54.00 -78.00 L55.00 -78.00 L55.00 -79.00 L54.00 -79.00 " />
<path stroke="#000000" stroke-width="0.000000" fill="#000000" d="M56.00 -78.00 L57.00 -78.00 L57.00 -79.00 L56.00 -79.00 L56.00 -78.00 " />
<path stroke="#000000" stroke-width="0.000000" fill="#000000" d="M56.00 -79.00 L56.00 -80.00 L55.00 -80.00 L55.00 -79.00 L56.00 -79.00 " />
<path stroke="#000000" stroke-width="0.000000" fill="#000000" d="M54.00 -75.00 L54.00 -74.00 L55.00 -74.00 L55.00 -75.00 L54.00 -75.00 " />
<path stroke="#000000" stroke-width="0.000000" fill="#000000" d="M54.00 -73.00 L54.00 -72.00 L55.00 -72.00 L55.00 -73.00 L54.00 -73.00 " />
<path stroke="#000000" stroke-width="0.000000" fill="#000000" d="M56.00 -72.00 L57.00 -72.00 L57.00 -73.00 L56.00 -73.00 L56.00 -72.00 " />
<path stroke="#000000" stroke-width="0.000000" fill="#000000" d="M57.00 -74.00 L57.00 -75.00 L56.00 -75.00 L56.00 -74.00 L57.00 -74.00 " />
<path stroke="#000000" stroke-width="0.000000" fill="#000000" d="M56.00 -74.00 L55.00 -74.00 L55.00 -73.00 L56.00 -73.00 L56.00 -74.00 " />
<path stroke="#000000" stroke-width="0.000000" fill="#000000" d="M60.00 -72.00 L61.00 -72.00 L61.00 -73.00 L60.00 -73.00 L60.00 -72.00 " />
<path stroke="#000000" stroke-width="0.000000" fill="#000000" d="M62.00 -72.00 L63.00 -72.00 L63.00 -73.00 L62.00 -73.00 L62.00 -72.00 " />
<path stroke="#000000" stroke-width="0.000000" fill="#000000" d="M63.00 -74.00 L63.00 -75.00 L62.00 -75.00 L62.00 -74.00 L63.00 -74.00 " />
<path stroke="#000000" stroke-width="0.000000" fill="#000000" d="M61.00 -75.00 L60.00 -75.00 L60.00 -74.00 L61.00 -74.00 L61.00 -75.00 " />
<path stroke="#000000" stroke-width="0.000000" fill="#000000" d="M61.00 -74.00 L61.00 -73.00 L62.00 -73.00 L62.00 -74.00 L61.00 -74.00 " />
<path stroke="#000000" stroke-width="0.000000" fill="#000000" d="M60.00 -75.00 L60.00 -76.00 L59.00 -76.00 L59.00 -75.00 L60.00 -75.00 " />
<path stroke="#000000" stroke-width="0.000000" fill="#000000" d="M60.00 -77.00 L60.00 -78.00 L59.00 -78.00 L59.00 -77.00 L60.00 -77.00 " />
<path stroke="#000000" stroke-width="0.000000" fill="#000000" d="M58.00 -78.00 L57.00 -78.00 L57.00 -77.00 L58.00 -77.00 L58.00 -78.00 " />
<path stroke="#000000" stroke-width="0.000000" fill="#000000" d="M57.00 -76.00 L57.00 -75.00 L58.00 -75.00 L58.00 -76.00 L57.00 -76.00 " />
<path stroke="#000000" stroke-width="0.000000" fill="#000000" d="M58.00 -76.00 L59.00 -76.00 L59.00 -77.00 L58.00 -77.00 L58.00 -76.00 " />
<path stroke="#000000" stroke-width="0.000000" fill="#000000" d="M54.00 -63.00 L54.00 -62.00 L55.00 -62.00 L55.00 -63.00 L54.00 -63.00 " />
<path stroke="#000000" stroke-width="0.000000" fill="#000000" d="M54.00 -61.00 L54.00 -60.00 L55.00 -60.00 L55.00 -61.00 L54.00 -61.00 " />
<path stroke="#000000" stroke-width="0.000000" fill="#000000" d="M56.00 -60.00 L57.00 -60.00 L57.00 -61.00 L56.00 -61.00 L56.00 -60.00 " />
<path stroke="#000000" stroke-width="0.000000" fill="#000000" d="M57.00 -62.00 L57.00 -63.00 L56.00 -63.00 L56.00 -62.00 L57.00 -62.00 " />
<path stroke="#000000" stroke-width="0.000000" fill="#000000" d="M56.00 -62.00 L55.00 -62.00 L55.00 -61.00 L56.00 -61.00 L56.00 -62.00 " />
<path stroke="#000000" stroke-width="0.000000" fill="#000000" d="M54.00 -57.00 L54.00 -56.00 L55.00 -56.00 L55.00 -57.00 L54.00 -57.00 " />
<path stroke="#000000" stroke-width="0.000000" fill="#000000" d="M54.00 -55.00 L54.00 -54.00 L55.00 -54.00 L55.00 -55.00 L54.00 -55.00 " />
<path stroke="#000000" stroke-width="0.000000" fill="#000000" d="M56.00 -54.00 L57.00 -54.00 L57.00 -55.00 L56.00 -55.00 L56.00 -54.00 " />
<path stroke="#000000" stroke-width="0.000000" fill="#000000" d="M57.00 -56.00 L57.00 -57.00 L56.00 -57.00 L56.00 -56.00 L57.00 -56.00 " />
<path stroke="#000000" stroke-width="0.000000" fill="#000000" d="M56.00 -56.00 L55.00 -56.00 L55.00 -55.00 L56.00 -55.00 L56.00 -56.00 " />
<path stroke="#000000" stroke-width="0.000000" fill="#000000" d="M60.00 -54.00 L61.00 -54.00 L61.00 -55.00 L60.00 -55.00 L60.00 -54.00 " />
<path stroke="#000000" stroke-width="0.000000" fill="#000000" d="M62.00 -54.00 L63.00 -54.00 L63.00 -55.00 L62.00 -55.00 L62.00 -54.00 " />
<path stroke="#000000" stroke-width="0.000000" fill="#000000" d="M63.00 -56.00 L63.00 -57.00 L62.00 -57.00 L62.00 -56.00 L63.00 -56.00 " />
<path stroke="#000000" stroke-width="0.000000" fill="#000000" d="M61.00 -57.00 L60.00 -57.00 L60.00 -56.00 L61.00 -56.00 L61.00 -57.00 " />
<path stroke="#000000" stroke-width="0.000000" fill="#000000" d="M61.00 -56.00 L61.00 -55.00 L62.00 -55.00 L62.00 -56.00 L61.00 -56.00 " />
<path stroke="#000000" stroke-width="0.000000" fill="#000000" d="M63.00 -60.00 L63.00 -61.00 L62.00 -61.00 L62.00 -60.00 L63.00 -60.00 " />
<path stroke="#000000" stroke-width="0.000000" fill="#000000" d="M63.00 -62.00 L63.00 -63.00 L62.00 -63.00 L62.00 -62.00 L63.00 -62.00 " />
<path stroke="#000000" stroke-width="0.000000" fill="#000000" d="M61.00 -63.00 L60.00 -63.00 L60.00 -62.00 L61.00 -62.00 L61.00 -63.00 " />
<path stroke="#000000" stroke-width="0.000000" fill="#000000" d="M60.00 -61.00 L60.00 -60.00 L61.00 -60.00 L61.00 -61.00 L60.00 -61.00 " />
<path stroke="#000000" stroke-width="0.000000" fill="#000000" d="M61.00 -61.00 L62.00 -61.00 L62.00 -62.00 L61.00 -62.00 L61.00 -61.00 " />
<path stroke="#000000" stroke-width="0.000000" fill="#000000" d="M60.00 -60.00 L59.00 -60.00 L59.00 -59.00 L60.00 -59.00 L60.00 -60.00 " />
<path stroke="#000000" stroke-width="0.000000" fill="#000000" d="M58.00 -60.00 L57.00 -60.00 L57.00 -59.00 L58.00 -59.00 L58.00 -60.00 " />
<path stroke="#000000" stroke-width="0.000000" fill="#000000" d="M57.00 -58.00 L57.00 -57.00 L58.00 -57.00 L58.00 -58.00 L57.00 -58.00 " />
<path stroke="#000000" stroke-width="0.000000" fill="#000000" d="M59.00 -57.00 L60.00 -57.00 L60.00 -58.00 L59.00 -58.00 L59.00 -57.00 " />
<path stroke="#000000" stroke-width="0.000000" fill="#000000" d="M59.00 -58.00 L59.00 -59.00 L58.00 -59.00 L58.00 -58.00 L59.00 -58.00 " />
<path stroke="#000000" stroke-width="0.000000" fill="#000000" d="M63.00 -63.00 L64.00 -63.00 L64.00 -64.00 L63.00 -64.00 L63.00 -63.00 " />
<path stroke="#000000" stroke-width="0.000000" fill="#000000" d="M65.00 -63.00 L66.00 -63.00 L66.00 -64.00 L65.00 -64.00 L65.00 -63.00 " />
<path stroke="#000000" stroke-width="0.000000" fill="#000000" d="M66.00 -65.00 L66.00 -66.00 L65.00 -66.00 L65.00 -65.00 L66.00 -65.00 " />
<path stroke="#000000" stroke-width="0.000000" fill="#000000" d="M64.00 -66.00 L63.00 -66.00 L63.00 -65.00 L64.00 -65.00 L64.00 -66.00 " />
<path stroke="#000000" stroke-width="0.000000" fill="#000000" d="M64.00 -65.00 L64.00 -64.00 L65.00 -64.00 L65.00 -65.00 L64.00 -65.00 " />
<path stroke="#000000" stroke-width="0.000000" fill="#000000" d="M69.00 -63.00 L70.00 -63.00 L70.00 -64.00 L69.00 -64.00 L69.00 -63.00 " />
<path stroke="#000000" stroke-width="0.000000" fill="#000000" d="M71.00 -63.00 L72.00 -63.00 L72.00 -64.00 L71.00 -64.00 L71.00 -63.00 " />
<path stroke="#000000" stroke-width="0.000000" fill="#000000" d="M72.00 -65.00 L72.00 -66.00 L71.00 -66.00 L71.00 -65.00 L72.00 -65.00 " />
<path stroke="#000000" stroke-width="0.000000" fill="#000000" d="M70.00 -66.00 L69.00 -66.00 L69.00 -65.00 L70.00 -65.00 L70.00 -66.00 " />
<path stroke="#000000" stroke-width="0.000000" fill="#000000" d="M70.00 -65.00 L70.00 -64.00 L71.00 -64.00 L71.00 -65.00 L70.00 -65.00 " />
<path stroke="#000000" stroke-width="0.000000" fill="#000000" d="M72.00 -69.00 L72.00 -70.00 L71.00 -70.00 L71.00 -69.00 L72.00 -69.00 " />
<path stroke="#000000" stroke-width="0.000000" fill="#000000" d="M72.00 -71.00 L72.00 -72.00 L71.00 -72.00 L71.00 -71.00 L72.00 -71.00 " />
<path stroke="#000000" stroke-width="0.000000" fill="#000000" d="M70.00 -72.00 L69.00 -72.00 L69.00 -71.00 L70.00 -71.00 L70.00 -72.00 " />
<path stroke="#000000" stroke-width="0.000000" fill="#000000" d="M69.00 -70.00 L69.00 -69.00 L70.00 -69.00 L70.00 -70.00 L69.00 -70.00 " />
<path stroke="#000000" stroke-width="0.000000" fill="#000000" d="M70.00 -70.00 L71.00 -70.00 L71.00 -71.00 L70.00 -71.00 L70.00 -70.00 " />
<path stroke="#000000" stroke-width="0.000000" fill="#000000" d="M66.00 -72.00 L65.00 -72.00 L65.00 -71.00 L66.00 -71.00 L66.00 -72.00 " />
<path stroke="#000000" stroke-width="0.000000" fill="#000000" d="M64.00 -72.00 L63.00 -72.00 L63.00 -71.00 L64.00 -71.00 L64.00 -72.00 " />
<path stroke="#000000" stroke-width="0.000000" fill="#000000" d="M63.00 -70.00 L63.00 -69.00 L64.00 -69.00 L64.00 -70.00 L63.00 -70.00 " />
<path stroke="#000000" stroke-width="0.000000" fill="#000000" d="M65.00 -69.00 L66.00 -69.00 L66.00 -70.00 L65.00 -70.00 L65.00 -69.00 " />
<path stroke="#000000" stroke-width="0.000000" fill="#000000" d="M65.00 -70.00 L65.00 -71.00 L64.00 -71.00 L64.00 -70.00 L65.00 -70.00 " />
<path stroke="#000000" stroke-width="0.000000" fill="#000000" d="M66.00 -69.00 L66.00 -68.00 L67.00 -68.00 L67.00 -69.00 L66.00 -69.00 " />
<path stroke="#000000" stroke-width="0.000000" fill="#000000" d="M66.00 -67.00 L66.00 -66.00 L67.00 -66.00 L67.00 -67.00 L66.00 -67.00 " />
<path stroke="#000000" stroke-width="0.000000" fill="#000000" d="M68.00 -66.00 L69.00 -66.00 L69.00 -67.00 L68.00 -67.00 L68.00 -66.00 " />
<path stroke="#000000" stroke-width="0.000000" fill="#000000" d="M69.00 -68.00 L69.00 -69.00 L68.00 -69.00 L68.00 -68.00 L69.00 -68.00 " />
<path stroke="#000000" stroke-width="0.000000" fill="#000000" d="M68.00 -68.00 L67.00 -68.00 L67.00 -67.00 L68.00 -67.00 L68.00 -68.00 " />
<path stroke="#000000" stroke-width="0.000000" fill="#000000" d="M27.00 -81.00 L26.00 -81.00 L26.00 -80.00 L27.00 -80.00 L27.00 -81.00 " />
<path stroke="#000000" stroke-width="0.000000" fill="#000000" d="M25.00 -81.00 L24.00 -81.00 L24.00 -80.00 L25.00 -80.00 L25.00 -81.00 " />
<path stroke="#000000" stroke-width="0.000000" fill="#000000" d="M24.00 -79.00 L24.00 -78.00 L25.00 -78.00 L25.00 -79.00 L24.00 -79.00 " />
<path stroke="#000000" stroke-width="0.000000" fill="#000000" d="M26.00 -78.00 L27.00 -78.00 L27.00 -79.00 L26.00 -79.00 L26.00 -78.00 " />
<path stroke="#000000" stroke-width="0.000000" fill="#000000" d="M26.00 -79.00 L26.00 -80.00 L25.00 -80.00 L25.00 -79.00 L26.00 -79.00 " />
<path stroke="#000000" stroke-width="0.000000" fill="#000000" d="M21.00 -81.00 L20.00 -81.00 L20.00 -80.00 L21.00 -80.00 L21.00 -81.00 " />
<path stroke="#000000" stroke-width="0.000000" fill="#000000" d="M19.00 -81.00 L18.00 -81.00 L18.00 -80.00 L19.00 -80.00 L19.00 -81.00 " />
<path stroke="#000000" stroke-width="0.000000" fill="#000000" d="M18.00 -79.00 L18.00 -78.00 L19.00 -78.00 L19.00 -79.00 L18.00 -79.00 " />
<path stroke="#000000" stroke-width="0.000000" fill="#000000" d="M20.00 -78.00 L21.00 -78.00 L21.00 -79.00 L20.00 -79.00 L20.00 -78.00 " />
<path stroke="#000000" stroke-width="0.000000" fill="#000000" d="M20.00 -79.00 L20.00 -80.00 L19.00 -80.00 L19.00 -79.00 L20.00 -79.00 " />
<path stroke="#000000" stroke-width="0.000000" fill="#000000" d="M18.00 -75.00 L18.00 -74.00 L19.00 -74.00 L19.00 -75.00 L18.00 -75.00 " />
<path stroke="#000000" stroke-width="0.000000" fill="#000000" d="M18.00 -73.00 L18.00 -72.00 L19.00 -72.00 L19.00 -73.00 L18.00 -73.00 " />
<path stroke="#000000" stroke-width="0.000000" fill="#000000" d="M20.00 -72.00 L21.00 -72.00 L21.00 -73.00 L20.00 -73.00 L20.00 -72.00 " />
<path stroke="#000000" stroke-width="0.000000" fill="#000000" d="M21.00 -74.00 L21.00 -75.00 L20.00 -75.00 L20.00 -74.00 L21.00 -74.00 " />
<path stroke="#000000" stroke-width="0.000000" fill="#000000" d="M20.00 -74.00 L19.00 -74.00 L19.00 -73.00 L20.00 -73.00 L20.00 -74.00 " />
<path stroke="#000000" stroke-width="0.000000" fill="#000000" d="M24.00 -72.00 L25.00 -72.00 L25.00 -73.00 L24.00 -73.00 L24.00 -72.00 " />
<path stroke="#000000" stroke-width="0.000000" fill="#000000" d="M26.00 -72.00 L27.00 -72.00 L27.00 -73.00 L26.00 -73.00 L26.00 -72.00 " />
<path stroke="#000000" stroke-width="0.000000" fill="#000000" d="M27.00 -74.00 L27.00 -75.00 L26.00 -75.00 L26.00 -74.00 L27.00 -74.00 " />
<path stroke="#000000" stroke-width="0.000000" fill="#000000" d="M25.00 -75.00 L24.00 -75.00 L24.00 -74.00 L25.00 -74.00 L25.00 -75.00 " />
<path stroke="#000000" stroke-width="0.000000" fill="#000000" d="M25.00 -74.00 L25.00 -73.00 L26.00 -73.00 L26.00 -74.00 L25.00 -74.00 " />
<path stroke="#000000" stroke-width="0.000000" fill="#000000" d="M24.00 -75.00 L24.00 -76.00 L23.00 -76.00 L23.00 -75.00 L24.00 -75.00 " />
<path stroke="#000000" stroke-width="0.000000" fill="#000000" d="M24.00 -77.00 L24.00 -78.00 L23.00 -78.00 L23.00 -77.00 L24.00 -77.00 " />
<path stroke="#000000" stroke-width="0.000000" fill="#000000" d="M22.00 -78.00 L21.00 -78.00 L21.00 -77.00 L22.00 -77.00 L22.00 -78.00 " />
<path stroke="#000000" stroke-width="0.000000" fill="#000000" d="M21.00 -76.00 L21.00 -75.00 L22.00 -75.00 L22.00 -76.00 L21.00 -76.00 " />
<path stroke="#000000" stroke-width="0.000000" fill="#000000" d="M22.00 -76.00 L23.00 -76.00 L23.00 -77.00 L22.00 -77.00 L22.00 -76.00 " />
<path stroke="#000000" stroke-width="0.000000" fill="#000000" d="M9.00 -81.00 L8.00 -81.00 L8.00 -80.00 L9.00 -80.00 L9.00 -81.00 " />
<path stroke="#000000" stroke-width="0.000000" fill="#000000" d="M7.00 -81.00 L6.00 -81.00 L6.00 -80.00 L7.00 -80.00 L7.00 -81.00 " />
<path stroke="#000000" stroke-width="0.000000" fill="#000000" d="M6.00 -79.00 L6.00 -78.00 L7.00 -78.00 L7.00 -79.00 L6.00 -79.00 " />
<path stroke="#000000" stroke-width="0.000000" fill="#000000" d="M8.00 -78.00 L9.00 -78.00 L9.00 -79.00 L8.00 -79.00 L8.00 -78.00 " />
<path stroke="#000000" stroke-width="0.000000" fill="#000000" d="M8.00 -79.00 L8.00 -80.00 L7.00 -80.00 L7.00 -79.00 L8.00 -79.00 " />
<path stroke="#000000" stroke-width="0.000000" fill="#000000" d="M3.00 -81.00 L2.00 -81.00 L2.00 -80.00 L3.00 -80.00 L3.00 -81.00 " />
<path stroke="#000000" stroke-width="0.000000" fill="#000000" d="M1.00 -81.00 L0.00 -81.00 L0.00 -80.00 L1.00 -80.00 L1.00 -81.00 " />
<path stroke="#000000" stroke-width="0.000000" fill="#000000" d="M-0.00 -79.00 L-0.00 -78.00 L1.00 -78.00 L1.00 -79.00 L0.00 -79.00 " />
<path stroke="#000000" stroke-width="0.000000" fill="#000000" d="M2.00 -78.00 L3.00 -78.00 L3.00 -79.00 L2.00 -79.00 L2.00 -78.00 " />
<path stroke="#000000" stroke-width="0.000000" fill="#000000" d="M2.00 -79.00 L2.00 -80.00 L1.00 -80.00 L1.00 -79.00 L2.00 -79.00 " />
<path stroke="#000000" stroke-width="0.000000" fill="#000000" d="M-0.00 -75.00 L-0.00 -74.00 L1.00 -74.00 L1.00 -75.00 L0.00 -75.00 " />
<path stroke="#000000" stroke-width="0.000000" fill="#000000" d="M-0.00 -73.00 L-0.00 -72.00 L1.00 -72.00 L1.00 -73.00 L0.00 -73.00 " />
<path stroke="#000000" stroke-width="0.000000" fill="#000000" d="M2.00 -72.00 L3.00 -72.00 L3.00 -73.00 L2.00 -73.00 L2.00 -72.00 " />
<path stroke="#000000" stroke-width="0.000000" fill="#000000" d="M3.00 -74.00 L3.00 -75.00 L2.00 -75.00 L2.00 -74.00 L3.00 -74.00 " />
<path stroke="#000000" stroke-width="0.000000" fill="#000000" d="M2.00 -74.00 L1.00 -74.00 L1.00 -73.00 L2.00 -73.00 L2.00 -74.00 " />
<path stroke="#000000" stroke-width="0.000000" fill="#000000" d="M6.00 -72.00 L7.00 -72.00 L7.00 -73.00 L6.00 -73.00 L6.00 -72.00 " />
<path stroke="#000000" stroke-width="0.000000" fill="#000000" d="M8.00 -72.00 L9.00 -72.00 L9.00 -73.00 L8.00 -73.00 L8.00 -72.00 " />
<path stroke="#000000" stroke-width="0.000000" fill="#000000" d="M9.00 -74.00 L9.00 -75.00 L8.00 -75.00 L8.00 -74.00 L9.00 -74.00 " />
<path stroke="#000000" stroke-width="0.000000" fill="#000000" d="M7.00 -75.00 L6.00 -75.00 L6.00 -74.00 L7.00 -74.00 L7.00 -75.00 " />
<path stroke="#000000" stroke-width="0.000000" fill="#000000" d="M7.00 -74.00 L7.00 -73.00 L8.00 -73.00 L8.00 -74.00 L7.00 -74.00 " />
<path stroke="#000000" stroke-width="0.000000" fill="#000000" d="M6.00 -75.00 L6.00 -76.00 L5.00 -76.00 L5.00 -75.00 L6.00 -75.00 " />
<path stroke="#000000" stroke-width="0.000000" fill="#000000" d="M6.00 -77.00 L6.00 -78.00 L5.00 -78.00 L5.00 -77.00 L6.00 -77.00 " />
<path stroke="#000000" stroke-width="0.000000" fill="#000000" d="M4.00 -78.00 L3.00 -78.00 L3.00 -77.00 L4.00 -77.00 L4.00 -78.00 " />
<path stroke="#000000" stroke-width="0.000000" fill="#000000" d="M3.00 -76.00 L3.00 -75.00 L4.00 -75.00 L4.00 -76.00 L3.00 -76.00 " />
<path stroke="#000000" stroke-width="0.000000" fill="#000000" d="M4.00 -76.00 L5.00 -76.00 L5.00 -77.00 L4.00 -77.00 L4.00 -76.00 " />
<path stroke="#000000" stroke-width="0.000000" fill="#000000" d="M-0.00 -63.00 L-0.00 -62.00 L1.00 -62.00 L1.00 -63.00 L0.00 -63.00 " />
<path stroke="#000000" stroke-width="0.000000" fill="#000000" d="M-0.00 -61.00 L-0.00 -60.00 L1.00 -60.00 L1.00 -61.00 L0.00 -61.00 " />
<path stroke="#000000" stroke-width="0.000000" fill="#000000" d="M2.00 -60.00 L3.00 -60.00 L3.00 -61.00 L2.00 -61.00 L2.00 -60.00 " />
<path stroke="#000000" stroke-width="0.000000" fill="#000000" d="M3.00 -62.00 L3.00 -63.00 L2.00 -63.00 L2.00 -62.00 L3.00 -62.00 " />
<path stroke="#000000" stroke-width="0.000000" fill="#000000" d="M2.00 -62.00 L1.00 -62.00 L1.00 -61.00 L2.00 -61.00 L2.00 -62.00 " />
<path stroke="#000000" stroke-width="0.000000" fill="#000000" d="M-0.00 -57.00 L-0.00 -56.00 L1.00 -56.00 L1.00 -57.00 L0.00 -57.00 " />
<path stroke="#000000" stroke-width="0.000000" fill="#000000" d="M-0.00 -55.00 L-0.00 -54.00 L1.00 -54.00 L1.00 -55.00 L0.00 -55.00 " />
<path stroke="#000000" stroke-width="0.000000" fill="#000000" d="M2.00 -54.00 L3.00 -54.00 L3.00 -55.00 L2.00 -55.00 L2.00 -54.00 " />
<path stroke="#000000" stroke-width="0.000000" fill="#000000" d="M3.00 -56.00 L3.00 -57.00 L2.00 -57.00 L2.00 -56.00 L3.00 -56.00 " />
<path stroke="#000000" stroke-width="0.000000" fill="#000000" d="M2.00 -56.00 L1.00 -56.00 L1.00 -55.00 L2.00 -55.00 L2.00 -56.00 " />
<path stroke="#000000" stroke-width="0.000000" fill="#000000" d="M6.00 -54.00 L7.00 -54.00 L7.00 -55.00 L6.00 -55.00 L6.00 -54.00 " />
<path stroke="#000000" stroke-width="0.000000" fill="#000000" d="M8.00 -54.00 L9.00 -54.00 L9.00 -55.00 L8.00 -55.00 L8.00 -54.00 " />
<path stroke="#000000" stroke-width="0.000000" fill="#000000" d="M9.00 -56.00 L9.00 -57.00 L8.00 -57.00 L8.00 -56.00 L9.00 -56.00 " />
<path stroke="#000000" stroke-width="0.000000" fill="#000000" d="M7.00 -57.00 L6.00 -57.00 L6.00 -56.00 L7.00 -56.00 L7.00 -57.00 " />
<path stroke="#000000" stroke-width="0.000000" fill="#000000" d="M7.00 -56.00 L7.00 -55.00 L8.00 -55.00 L8.00 -56.00 L7.00 -56.00 " />
<path stroke="#000000" stroke-width="0.000000" fill="#000000" d="M9.00 -60.00 L9.00 -61.00 L8.00 -61.00 L8.00 -60.00 L9.00 -60.00 " />
<path stroke="#000000" stroke-width="0.000000" fill="#000000" d="M9.00 -62.00 L9.00 -63.00 L8.00 -63.00 L8.00 -62.00 L9.00 -62.00 " />
<path stroke="#000000" stroke-width="0.000000" fill="#000000" d="M7.00 -63.00 L6.00 -63.00 L6.00 -62.00 L7.00 -62.00 L7.00 -63.00 " />
<path stroke="#000000" stroke-width="0.000000" fill="#000000" d="M6.00 -61.00 L6.00 -60.00 L7.00 -60.00 L7.00 -61.00 L6.00 -61.00 " />
<path stroke="#000000" stroke-width="0.000000" fill="#000000" d="M7.00 -61.00 L8.00 -61.00 L8.00 -62.00 L7.00 -62.00 L7.00 -61.00 " />
<path stroke="#000000" stroke-width="0.000000" fill="#000000" d="M6.00 -60.00 L5.00 -60.00 L5.00 -59.00 L6.00 -59.00 L6.00 -60.00 " />
<path stroke="#000000" stroke-width="0.000000" fill="#000000" d="M4.00 -60.00 L3.00 -60.00 L3.00 -59.00 L4.00 -59.00 L4.00 -60.00 " />
<path stroke="#000000" stroke-width="0.000000" fill="#000000" d="M3.00 -58.00 L3.00 -57.00 L4.00 -57.00 L4.00 -58.00 L3.00 -58.00 " />
<path stroke="#000000" stroke-width="0.000000" fill="#000000" d="M5.00 -57.00 L6.00 -57.00 L6.00 -58.00 L5.00 -58.00 L5.00 -57.00 " />
<path stroke="#000000" stroke-width="0.000000" fill="#000000" d="M5.00 -58.00 L5.00 -59.00 L4.00 -59.00 L4.00 -58.00 L5.00 -58.00 " />
<path stroke="#000000" stroke-width="0.000000" fill="#000000" d="M18.00 -54.00 L19.00 -54.00 L19.00 -55.00 L18.00 -55.00 L18.00 -54.00 " />
<path stroke="#000000" stroke-width="0.000000" fill="#000000" d="M20.00 -54.00 L21.00 -54.00 L21.00 -55.00 L20.00 -55.00 L20.00 -54.00 " />
<path stroke="#000000" stroke-width="0.000000" fill="#000000" d="M21.00 -56.00 L21.00 -57.00 L20.00 -57.00 L20.00 -56.00 L21.00 -56.00 " />
<path stroke="#000000" stroke-width="0.000000" fill="#000000" d="M19.00 -57.00 L18.00 -57.00 L18.00 -56.00 L19.00 -56.00 L19.00 -57.00 " />
<path stroke="#000000" stroke-width="0.000000" fill="#000000" d="M19.00 -56.00 L19.00 -55.00 L20.00 -55.00 L20.00 -56.00 L19.00 -56.00 " />
<path stroke="#000000" stroke-width="0.000000" fill="#000000" d="M24.00 -54.00 L25.00 -54.00 L25.00 -55.00 L24.00 -55.00 L24.00 -54.00 " />
<path stroke="#000000" stroke-width="0.000000" fill="#000000" d="M26.00 -54.00 L27.00 -54.00 L27.00 -55.00 L26.00 -55.00 L26.00 -54.00 " />
<path stroke="#000000" stroke-width="0.000000" fill="#000000" d="M27.00 -56.00 L27.00 -57.00 L26.00 -57.00 L26.00 -56.00 L27.00 -56.00 " />
<path stroke="#000000" stroke-width="0.000000" fill="#000000" d="M25.00 -57.00 L24.00 -57.00 L24.00 -56.00 L25.00 -56.00 L25.00 -57.00 " />
<path stroke="#000000" stroke-width="0.000000" fill="#000000" d="M25.00 -56.00 L25.00 -55.00 L26.00 -55.00 L26.00 -56.00 L25.00 -56.00 " />
<path stroke="#000000" stroke-width="0.000000" fill="#000000" d="M27.00 -60.00 L27.00 -61.00 L26.00 -61.00 L26.00 -60.00 L27.00 -60.00 " />
<path stroke="#000000" stroke-width="0.000000" fill="#000000" d="M27.00 -62.00 L27.00 -63.00 L26.00 -63.00 L26.00 -62.00 L27.00 -62.00 " />
<path stroke="#000000" stroke-width="0.000000" fill="#000000" d="M25.00 -63.00 L24.00 -63.00 L24.00 -62.00 L25.00 -62.00 L25.00 -63.00 " />
<path stroke="#000000" stroke-width="0.000000" fill="#000000" d="M24.00 -61.00 L24.00 -60.00 L25.00 -60.00 L25.00 -61.00 L24.00 -61.00 " />
<path stroke="#000000" stroke-width="0.000000" fill="#000000" d="M25.00 -61.00 L26.00 -61.00 L26.00 -62.00 L25.00 -62.00 L25.00 -61.00 " />
<path stroke="#000000" stroke-width="0.000000" fill="#000000" d="M21.00 -63.00 L20.00 -63.00 L20.00 -62.00 L21.00 -62.00 L21.00 -63.00 " />
<path stroke="#000000" stroke-width="0.000000" fill="#000000" d="M19.00 -63.00 L18.00 -63.00 L18.00 -62.00 L19.00 -62.00 L19.00 -63.00 " />
<path stroke="#000000" stroke-width="0.000000" fill="#000000" d="M18.00 -61.00 L18.00 -60.00 L19.00 -60.00 L19.00 -61.00 L18.00 -61.00 " />
<path stroke="#000000" stroke-width="0.000000" fill="#000000" d="M20.00 -60.00 L21.00 -60.00 L21.00 -61.00 L20.00 -61.00 L20.00 -60.00 " />
<path stroke="#000000" stroke-width="0.000000" fill="#000000" d="M20.00 -61.00 L20.00 -62.00 L19.00 -62.00 L19.00 -61.00 L20.00 -61.00 " />
<path stroke="#000000" stroke-width="0.000000" fill="#000000" d="M21.00 -60.00 L21.00 -59.00 L22.00 -59.00 L22.00 -60.00 L21.00 -60.00 " />
<path stroke="#000000" stroke-width="0.000000" fill="#000000" d="M21.00 -58.00 L21.00 -57.00 L22.00 -57.00 L22.00 -58.00 L21.00 -58.00 " />
<path stroke="#000000" stroke-width="0.000000" fill="#000000" d="M23.00 -57.00 L24.00 -57.00 L24.00 -58.00 L23.00 -58.00 L23.00 -57.00 " />
<path stroke="#000000" stroke-width="0.000000" fill="#000000" d="M24.00 -59.00 L24.00 -60.00 L23.00 -60.00 L23.00 -59.00 L24.00 -59.00 " />
<path stroke="#000000" stroke-width="0.000000" fill="#000000" d="M23.00 -59.00 L22.00 -59.00 L22.00 -58.00 L23.00 -58.00 L23.00 -59.00 " />
<path stroke="#000000" stroke-width="0.000000" fill="#000000" d="M18.00 -63.00 L18.00 -64.00 L17.00 -64.00 L17.00 -63.00 L18.00 -63.00 " />
<path stroke="#000000" stroke-width="0.000000" fill="#000000" d="M18.00 -65.00 L18.00 -66.00 L17.00 -66.00 L17.00 -65.00 L18.00 -65.00 " />
<path stroke="#000000" stroke-width="0.000000" fill="#000000" d="M16.00 -66.00 L15.00 -66.00 L15.00 -65.00 L16.00 -65.00 L16.00 -66.00 " />
<path stroke="#000000" stroke-width="0.000000" fill="#000000" d="M15.00 -64.00 L15.00 -63.00 L16.00 -63.00 L16.00 -64.00 L15.00 -64.00 " />
<path stroke="#000000" stroke-width="0.000000" fill="#000000" d="M16.00 -64.00 L17.00 -64.00 L17.00 -65.00 L16.00 -65.00 L16.00 -64.00 " />
<path stroke="#000000" stroke-width="0.000000" fill="#000000" d="M18.00 -69.00 L18.00 -70.00 L17.00 -70.00 L17.00 -69.00 L18.00 -69.00 " />
<path stroke="#000000" stroke-width="0.000000" fill="#000000" d="M18.00 -71.00 L18.00 -72.00 L17.00 -72.00 L17.00 -71.00 L18.00 -71.00 " />
<path stroke="#000000" stroke-width="0.000000" fill="#000000" d="M16.00 -72.00 L15.00 -72.00 L15.00 -71.00 L16.00 -71.00 L16.00 -72.00 " />
<path stroke="#000000" stroke-width="0.000000" fill="#000000" d="M15.00 -70.00 L15.00 -69.00 L16.00 -69.00 L16.00 -70.00 L15.00 -70.00 " />
<path stroke="#000000" stroke-width="0.000000" fill="#000000" d="M16.00 -70.00 L17.00 -70.00 L17.00 -71.00 L16.00 -71.00 L16.00 -70.00 " />
<path stroke="#000000" stroke-width="0.000000" fill="#000000" d="M12.00 -72.00 L11.00 -72.00 L11.00 -71.00 L12.00 -71.00 L12.00 -72.00 " />
<path stroke="#000000" stroke-width="0.000000" fill="#000000" d="M10.00 -72.00 L9.00 -72.00 L9.00 -71.00 L10.00 -71.00 L10.00 -72.00 " />
<path stroke="#000000" stroke-width="0.000000" fill="#000000" d="M9.00 -70.00 L9.00 -69.00 L10.00 -69.00 L10.00 -70.00 L9.00 -70.00 " />
<path stroke="#000000" stroke-width="0.000000" fill="#000000" d="M11.00 -69.00 L12.00 -69.00 L12.00 -70.00 L11.00 -70.00 L11.00 -69.00 " />
<path stroke="#000000" stroke-width="0.000000" fill="#000000" d="M11.00 -70.00 L11.00 -71.00 L10.00 -71.00 L10.00 -70.00 L11.00 -70.00 " />
<path stroke="#000000" stroke-width="0.000000" fill="#000000" d="M9.00 -66.00 L9.00 -65.00 L10.00 -65.00 L10.00 -66.00 L9.00 -66.00 " />
<path stroke="#000000" stroke-width="0.000000" fill="#000000" d="M9.00 -64.00 L9.00 -63.00 L10.00 -63.00 L10.00 -64.00 L9.00 -64.00 " />
<path stroke="#000000" stroke-width="0.000000" fill="#000000" d="M11.00 -63.00 L12.00 -63.00 L12.00 -64.00 L11.00 -64.00 L11.00 -63.00 " />
<path stroke="#000000" stroke-width="0.000000" fill="#000000" d="M12.00 -65.00 L12.00 -66.00 L11.00 -66.00 L11.00 -65.00 L12.00 -65.00 " />
<path stroke="#000000" stroke-width="0.000000" fill="#000000" d="M11.00 -65.00 L10.00 -65.00 L10.00 -64.00 L11.00 -64.00 L11.00 -65.00 " />
<path stroke="#000000" stroke-width="0.000000" fill="#000000" d="M12.00 -66.00 L13.00 -66.00 L13.00 -67.00 L12.00 -67.00 L12.00 -66.00 " />
<path stroke="#000000" stroke-width="0.000000" fill="#000000" d="M14.00 -66.00 L15.00 -66.00 L15.00 -67.00 L14.00 -67.00 L14.00 -66.00 " />
<path stroke="#000000" stroke-width="0.000000" fill="#000000" d="M15.00 -68.00 L15.00 -69.00 L14.00 -69.00 L14.00 -68.00 L15.00 -68.00 " />
<path stroke="#000000" stroke-width="0.000000" fill="#000000" d="M13.00 -69.00 L12.00 -69.00 L12.00 -68.00 L13.00 -68.00 L13.00 -69.00 " />
<path stroke="#000000" stroke-width="0.000000" fill="#000000" d="M13.00 -68.00 L13.00 -67.00 L14.00 -67.00 L14.00 -68.00 L13.00 -68.00 " />
<path stroke="#000000" stroke-width="0.000000" fill="#000000" d="M27.00 -54.00 L27.00 -53.00 L28.00 -53.00 L28.00 -54.00 L27.00 -54.00 " />
<path stroke="#000000" stroke-width="0.000000" fill="#000000" d="M27.00 -52.00 L27.00 -51.00 L28.00 -51.00 L28.00 -52.00 L27.00 -52.00 " />
<path stroke="#000000" stroke-width="0.000000" fill="#000000" d="M29.00 -51.00 L30.00 -51.00 L30.00 -52.00 L29.00 -52.00 L29.00 -51.00 " />
<path stroke="#000000" stroke-width="0.000000" fill="#000000" d="M30.00 -53.00 L30.00 -54.00 L29.00 -54.00 L29.00 -53.00 L30.00 -53.00 " />
<path stroke="#000000" stroke-width="0.000000" fill="#000000" d="M29.00 -53.00 L28.00 -53.00 L28.00 -52.00 L29.00 -52.00 L29.00 -53.00 " />
<path stroke="#000000" stroke-width="0.000000" fill="#000000" d="M27.00 -48.00 L27.00 -47.00 L28.00 -47.00 L28.00 -48.00 L27.00 -48.00 " />
<path stroke="#000000" stroke-width="0.000000" fill="#000000" d="M27.00 -46.00 L27.00 -45.00 L28.00 -45.00 L28.00 -46.00 L27.00 -46.00 " />
<path stroke="#000000" stroke-width="0.000000" fill="#000000" d="M29.00 -45.00 L30.00 -45.00 L30.00 -46.00 L29.00 -46.00 L29.00 -45.00 " />
<path stroke="#000000" stroke-width="0.000000" fill="#000000" d="M30.00 -47.00 L30.00 -48.00 L29.00 -48.00 L29.00 -47.00 L30.00 -47.00 " />
<path stroke="#000000" stroke-width="0.000000" fill="#000000" d="M29.00 -47.00 L28.00 -47.00 L28.00 -46.00 L29.00 -46.00 L29.00 -47.00 " />
<path stroke="#000000" stroke-width="0.000000" fill="#000000" d="M33.00 -45.00 L34.00 -45.00 L34.00 -46.00 L33.00 -46.00 L33.00 -45.00 " />
<path stroke="#000000" stroke-width="0.000000" fill="#000000" d="M35.00 -45.00 L36.00 -45.00 L36.00 -46.00 L35.00 -46.00 L35.00 -45.00 " />
<path stroke="#000000" stroke-width="0.000000" fill="#000000" d="M36.00 -47.00 L36.00 -48.00 L35.00 -48.00 L35.00 -47.00 L36.00 -47.00 " />
<path stroke="#000000" stroke-width="0.000000" fill="#000000" d="M34.00 -48.00 L33.00 -48.00 L33.00 -47.00 L34.00 -47.00 L34.00 -48.00 " />
<path stroke="#000000" stroke-width="0.000000" fill="#000000" d="M34.00 -47.00 L34.00 -46.00 L35.00 -46.00 L35.00 -47.00 L34.00 -47.00 " />
<path stroke="#000000" stroke-width="0.000000" fill="#000000" d="M36.00 -51.00 L36.00 -52.00 L35.00 -52.00 L35.00 -51.00 L36.00 -51.00 " />
<path stroke="#000000" stroke-width="0.000000" fill="#000000" d="M36.00 -53.00 L36.00 -54.00 L35.00 -54.00 L35.00 -53.00 L36.00 -53.00 " />
<path stroke="#000000" stroke-width="0.000000" fill="#000000" d="M34.00 -54.00 L33.00 -54.00 L33.00 -53.00 L34.00 -53.00 L34.00 -54.00 " />
<path stroke="#000000" stroke-width="0.000000" fill="#000000" d="M33.00 -52.00 L33.00 -51.00 L34.00 -51.00 L34.00 -52.00 L33.00 -52.00 " />
<path stroke="#000000" stroke-width="0.000000" fill="#000000" d="M34.00 -52.00 L35.00 -52.00 L35.00 -53.00 L34.00 -53.00 L34.00 -52.00 " />
<path stroke="#000000" stroke-width="0.000000" fill="#000000" d="M33.00 -51.00 L32.00 -51.00 L32.00 -50.00 L33.00 -50.00 L33.00 -51.00 " />
<path stroke="#000000" stroke-width="0.000000" fill="#000000" d="M31.00 -51.00 L30.00 -51.00 L30.00 -50.00 L31.00 -50.00 L31.00 -51.00 " />
<path stroke="#000000" stroke-width="0.000000" fill="#000000" d="M30.00 -49.00 L30.00 -48.00 L31.00 -48.00 L31.00 -49.00 L30.00 -49.00 " />
<path stroke="#000000" stroke-width="0.000000" fill="#000000" d="M32.00 -48.00 L33.00 -48.00 L33.00 -49.00 L32.00 -49.00 L32.00 -48.00 " />
<path stroke="#000000" stroke-width="0.000000" fill="#000000" d="M32.00 -49.00 L32.00 -50.00 L31.00 -50.00 L31.00 -49.00 L32.00 -49.00 " />
<path stroke="#000000" stroke-width="0.000000" fill="#000000" d="M27.00 -36.00 L27.00 -35.00 L28.00 -35.00 L28.00 -36.00 L27.00 -36.00 " />
<path stroke="#000000" stroke-width="0.000000" fill="#000000" d="M27.00 -34.00 L27.00 -33.00 L28.00 -33.00 L28.00 -34.00 L27.00 -34.00 " />
<path stroke="#000000" stroke-width="0.000000" fill="#000000" d="M29.00 -33.00 L30.00 -33.00 L30.00 -34.00 L29.00 -34.00 L29.00 -33.00 " />
<path stroke="#000000" stroke-width="0.000000" fill="#000000" d="M30.00 -35.00 L30.00 -36.00 L29.00 -36.00 L29.00 -35.00 L30.00 -35.00 " />
<path stroke="#000000" stroke-width="0.000000" fill="#000000" d="M29.00 -35.00 L28.00 -35.00 L28.00 -34.00 L29.00 -34.00 L29.00 -35.00 " />
<path stroke="#000000" stroke-width="0.000000" fill="#000000" d="M27.00 -30.00 L27.00 -29.00 L28.00 -29.00 L28.00 -30.00 L27.00 -30.00 " />
<path stroke="#000000" stroke-width="0.000000" fill="#000000" d="M27.00 -28.00 L27.00 -27.00 L28.00 -27.00 L28.00 -28.00 L27.00 -28.00 " />
<path stroke="#000000" stroke-width="0.000000" fill="#000000" d="M29.00 -27.00 L30.00 -27.00 L30.00 -28.00 L29.00 -28.00 L29.00 -27.00 " />
<path stroke="#000000" stroke-width="0.000000" fill="#000000" d="M30.00 -29.00 L30.00 -30.00 L29.00 -30.00 L29.00 -29.00 L30.00 -29.00 " />
<path stroke="#000000" stroke-width="0.000000" fill="#000000" d="M29.00 -29.00 L28.00 -29.00 L28.00 -28.00 L29.00 -28.00 L29.00 -29.00 " />
<path stroke="#000000" stroke-width="0.000000" fill="#000000" d="M33.00 -27.00 L34.00 -27.00 L34.00 -28.00 L33.00 -28.00 L33.00 -27.00 " />
<path stroke="#000000" stroke-width="0.000000" fill="#000000" d="M35.00 -27.00 L36.00 -27.00 L36.00 -28.00 L35.00 -28.00 L35.00 -27.00 " />
<path stroke="#000000" stroke-width="0.000000" fill="#000000" d="M36.00 -29.00 L36.00 -30.00 L35.00 -30.00 L35.00 -29.00 L36.00 -29.00 " />
<path stroke="#000000" stroke-width="0.000000" fill="#000000" d="M34.00 -30.00 L33.00 -30.00 L33.00 -29.00 L34.00 -29.00 L34.00 -30.00 " />
<path stroke="#000000" stroke-width="0.000000" fill="#000000" d="M34.00 -29.00 L34.00 -28.00 L35.00 -28.00 L35.00 -29.00 L34.00 -29.00 " />
<path stroke="#000000" stroke-width="0.000000" fill="#000000" d="M36.00 -33.00 L36.00 -34.00 L35.00 -34.00 L35.00 -33.00 L36.00 -33.00 " />
<path stroke="#000000" stroke-width="0.000000" fill="#000000" d="M36.00 -35.00 L36.00 -36.00 L35.00 -36.00 L35.00 -35.00 L36.00 -35.00 " />
<path stroke="#000000" stroke-width="0.000000" fill="#000000" d="M34.00 -36.00 L33.00 -36.00 L33.00 -35.00 L34.00 -35.00 L34.00 -36.00 " />
<path stroke="#000000" stroke-width="0.000000" fill="#000000" d="M33.00 -34.00 L33.00 -33.00 L34.00 -33.00 L34.00 -34.00 L33.00 -34.00 " />
<path stroke="#000000" stroke-width="0.000000" fill="#000000" d="M34.00 -34.00 L35.00 -34.00 L35.00 -35.00 L34.00 -35.00 L34.00 -34.00 " />
<path stroke="#000000" stroke-width="0.000000" fill="#000000" d="M33.00 -33.00 L32.00 -33.00 L32.00 -32.00 L33.00 -32.00 L33.00 -33.00 " />
<path stroke="#000000" stroke-width="0.000000" fill="#000000" d="M31.00 -33.00 L30.00 -33.00 L30.00 -32.00 L31.00 -32.00 L31.00 -33.00 " />
<path stroke="#000000" stroke-width="0.000000" fill="#000000" d="M30.00 -31.00 L30.00 -30.00 L31.00 -30.00 L31.00 -31.00 L30.00 -31.00 " />
<path stroke="#000000" stroke-width="0.000000" fill="#000000" d="M32.00 -30.00 L33.00 -30.00 L33.00 -31.00 L32.00 -31.00 L32.00 -30.00 " />
<path stroke="#000000" stroke-width="0.000000" fill="#000000" d="M32.00 -31.00 L32.00 -32.00 L31.00 -32.00 L31.00 -31.00 L32.00 -31.00 " />
<path stroke="#000000" stroke-width="0.000000" fill="#000000" d="M45.00 -27.00 L46.00 -27.00 L46.00 -28.00 L45.00 -28.00 L45.00 -27.00 " />
<path stroke="#000000" stroke-width="0.000000" fill="#000000" d="M47.00 -27.00 L48.00 -27.00 L48.00 -28.00 L47.00 -28.00 L47.00 -27.00 " />
<path stroke="#000000" stroke-width="0.000000" fill="#000000" d="M48.00 -29.00 L48.00 -30.00 L47.00 -30.00 L47.00 -29.00 L48.00 -29.00 " />
<path stroke="#000000" stroke-width="0.000000" fill="#000000" d="M46.00 -30.00 L45.00 -30.00 L45.00 -29.00 L46.00 -29.00 L46.00 -30.00 " />
<path stroke="#000000" stroke-width="0.000000" fill="#000000" d="M46.00 -29.00 L46.00 -28.00 L47.00 -28.00 L47.00 -29.00 L46.00 -29.00 " />
<path stroke="#000000" stroke-width="0.000000" fill="#000000" d="M51.00 -27.00 L52.00 -27.00 L52.00 -28.00 L51.00 -28.00 L51.00 -27.00 " />
<path stroke="#000000" stroke-width="0.000000" fill="#000000" d="M53.00 -27.00 L54.00 -27.00 L54.00 -28.00 L53.00 -28.00 L53.00 -27.00 " />
<path stroke="#000000" stroke-width="0.000000" fill="#000000" d="M54.00 -29.00 L54.00 -30.00 L53.00 -30.00 L53.00 -29.00 L54.00 -29.00 " />
<path stroke="#000000" stroke-width="0.000000" fill="#000000" d="M52.00 -30.00 L51.00 -30.00 L51.00 -29.00 L52.00 -29.00 L52.00 -30.00 " />
<path stroke="#000000" stroke-width="0.000000" fill="#000000" d="M52.00 -29.00 L52.00 -28.00 L53.00 -28.00 L53.00 -29.00 L52.00 -29.00 " />
<path stroke="#000000" stroke-width="0.000000" fill="#000000" d="M54.00 -33.00 L54.00 -34.00 L53.00 -34.00 L53.00 -33.00 L54.00 -33.00 " />
<path stroke="#000000" stroke-width="0.000000" fill="#000000" d="M54.00 -35.00 L54.00 -36.00 L53.00 -36.00 L53.00 -35.00 L54.00 -35.00 " />
<path stroke="#000000" stroke-width="0.000000" fill="#000000" d="M52.00 -36.00 L51.00 -36.00 L51.00 -35.00 L52.00 -35.00 L52.00 -36.00 " />
<path stroke="#000000" stroke-width="0.000000" fill="#000000" d="M51.00 -34.00 L51.00 -33.00 L52.00 -33.00 L52.00 -34.00 L51.00 -34.00 " />
<path stroke="#000000" stroke-width="0.000000" fill="#000000" d="M52.00 -34.00 L53.00 -34.00 L53.00 -35.00 L52.00 -35.00 L52.00 -34.00 " />
<path stroke="#000000" stroke-width="0.000000" fill="#000000" d="M48.00 -36.00 L47.00 -36.00 L47.00 -35.00 L48.00 -35.00 L48.00 -36.00 " />
<path stroke="#000000" stroke-width="0.000000" fill="#000000" d="M46.00 -36.00 L45.00 -36.00 L45.00 -35.00 L46.00 -35.00 L46.00 -36.00 " />
<path stroke="#000000" stroke-width="0.000000" fill="#000000" d="M45.00 -34.00 L45.00 -33.00 L46.00 -33.00 L46.00 -34.00 L45.00 -34.00 " />
<path stroke="#000000" stroke-width="0.000000" fill="#000000" d="M47.00 -33.00 L48.00 -33.00 L48.00 -34.00 L47.00 -34.00 L47.00 -33.00 " />
<path stroke="#000000" stroke-width="0.000000" fill="#000000" d="M47.00 -34.00 L47.00 -35.00 L46.00 -35.00 L46.00 -34.00 L47.00 -34.00 " />
<path stroke="#000000" stroke-width="0.000000" fill="#000000" d="M48.00 -33.00 L48.00 -32.00 L49.00 -32.00 L49.00 -33.00 L48.00 -33.00 " />
<path stroke="#000000" stroke-width="0.000000" fill="#000000" d="M48.00 -31.00 L48.00 -30.00 L49.00 -30.00 L49.00 -31.00 L48.00 -31.00 " />
<path stroke="#000000" stroke-width="0.000000" fill="#000000" d="M50.00 -30.00 L51.00 -30.00 L51.00 -31.00 L50.00 -31.00 L50.00 -30.00 " />
<path stroke="#000000" stroke-width="0.000000" fill="#000000" d="M51.00 -32.00 L51.00 -33.00 L50.00 -33.00 L50.00 -32.00 L51.00 -32.00 " />
<path stroke="#000000" stroke-width="0.000000" fill="#000000" d="M50.00 -32.00 L49.00 -32.00 L49.00 -31.00 L50.00 -31.00 L50.00 -32.00 " />
<path stroke="#000000" stroke-width="0.000000" fill="#000000" d="M54.00 -45.00 L54.00 -46.00 L53.00 -46.00 L53.00 -45.00 L54.00 -45.00 " />
<path stroke="#000000" stroke-width="0.000000" fill="#000000" d="M54.00 -47.00 L54.00 -48.00 L53.00 -48.00 L53.00 -47.00 L54.00 -47.00 " />
<path stroke="#000000" stroke-width="0.000000" fill="#000000" d="M52.00 -48.00 L51.00 -48.00 L51.00 -47.00 L52.00 -47.00 L52.00 -48.00 " />
<path stroke="#000000" stroke-width="0.000000" fill="#000000" d="M51.00 -46.00 L51.00 -45.00 L52.00 -45.00 L52.00 -46.00 L51.00 -46.00 " />
<path stroke="#000000" stroke-width="0.000000" fill="#000000" d="M52.00 -46.00 L53.00 -46.00 L53.00 -47.00 L52.00 -47.00 L52.00 -46.00 " />
<path stroke="#000000" stroke-width="0.000000" fill="#000000" d="M54.00 -51.00 L54.00 -52.00 L53.00 -52.00 L53.00 -51.00 L54.00 -51.00 " />
<path stroke="#000000" stroke-width="0.000000" fill="#000000" d="M54.00 -53.00 L54.00 -54.00 L53.00 -54.00 L53.00 -53.00 L54.00 -53.00 " />
<path stroke="#000000" stroke-width="0.000000" fill="#000000" d="M52.00 -54.00 L51.00 -54.00 L51.00 -53.00 L52.00 -53.00 L52.00 -54.00 " />
<path stroke="#000000" stroke-width="0.000000" fill="#000000" d="M51.00 -52.00 L51.00 -51.00 L52.00 -51.00 L52.00 -52.00 L51.00 -52.00 " />
<path stroke="#000000" stroke-width="0.000000" fill="#000000" d="M52.00 -52.00 L53.00 -52.00 L53.00 -53.00 L52.00 -53.00 L52.00 -52.00 " />
<path stroke="#000000" stroke-width="0.000000" fill="#000000" d="M48.00 -54.00 L47.00 -54.00 L47.00 -53.00 L48.00 -53.00 L48.00 -54.00 " />
<path stroke="#000000" stroke-width="0.000000" fill="#000000" d="M46.00 -54.00 L45.00 -54.00 L45.00 -53.00 L46.00 -53.00 L46.00 -54.00 " />
<path stroke="#000000" stroke-width="0.000000" fill="#000000" d="M45.00 -52.00 L45.00 -51.00 L46.00 -51.00 L46.00 -52.00 L45.00 -52.00 " />
<path stroke="#000000" stroke-width="0.000000" fill="#000000" d="M47.00 -51.00 L48.00 -51.00 L48.00 -52.00 L47.00 -52.00 L47.00 -51.00 " />
<path stroke="#000000" stroke-width="0.000000" fill="#000000" d="M47.00 -52.00 L47.00 -53.00 L46.00 -53.00 L46.00 -52.00 L47.00 -52.00 " />
<path stroke="#000000" stroke-width="0.000000" fill="#000000" d="M45.00 -48.00 L45.00 -47.00 L46.00 -47.00 L46.00 -48.00 L45.00 -48.00 " />
<path stroke="#000000" stroke-width="0.000000" fill="#000000" d="M45.00 -46.00 L45.00 -45.00 L46.00 -45.00 L46.00 -46.00 L45.00 -46.00 " />
<path stroke="#000000" stroke-width="0.000000" fill="#000000" d="M47.00 -45.00 L48.00 -45.00 L48.00 -46.00 L47.00 -46.00 L47.00 -45.00 " />
<path stroke="#000000" stroke-width="0.000000" fill="#000000" d="M48.00 -47.00 L48.00 -48.00 L47.00 -48.00 L47.00 -47.00 L48.00 -47.00 " />
<path stroke="#000000" stroke-width="0.000000" fill="#000000" d="M47.00 -47.00 L46.00 -47.00 L46.00 -46.00 L47.00 -46.00 L47.00 -47.00 " />
<path stroke="#000000" stroke-width="0.000000" fill="#000000" d="M48.00 -48.00 L49.00 -48.00 L49.00 -49.00 L48.00 -49.00 L48.00 -48.00 " />
<path stroke="#000000" stroke-width="0.000000" fill="#000000" d="M50.00 -48.00 L51.00 -48.00 L51.00 -49.00 L50.00 -49.00 L50.00 -48.00 " />
<path stroke="#000000" stroke-width="0.000000" fill="#000000" d="M51.00 -50.00 L51.00 -51.00 L50.00 -51.00 L50.00 -50.00 L51.00 -50.00 " />
<path stroke="#000000" stroke-width="0.000000" fill="#000000" d="M49.00 -51.00 L48.00 -51.00 L48.00 -50.00 L49.00 -50.00 L49.00 -51.00 " />
<path stroke="#000000" stroke-width="0.000000" fill="#000000" d="M49.00 -50.00 L49.00 -49.00 L50.00 -49.00 L50.00 -50.00 L49.00 -50.00 " />
<path stroke="#000000" stroke-width="0.000000" fill="#000000" d="M45.00 -45.00 L44.00 -45.00 L44.00 -44.00 L45.00 -44.00 L45.00 -45.00 " />
<path stroke="#000000" stroke-width="0.000000" fill="#000000" d="M43.00 -45.00 L42.00 -45.00 L42.00 -44.00 L43.00 -44.00 L43.00 -45.00 " />
<path stroke="#000000" stroke-width="0.000000" fill="#000000" d="M42.00 -43.00 L42.00 -42.00 L43.00 -42.00 L43.00 -43.00 L42.00 -43.00 " />
<path stroke="#000000" stroke-width="0.000000" fill="#000000" d="M44.00 -42.00 L45.00 -42.00 L45.00 -43.00 L44.00 -43.00 L44.00 -42.00 " />
<path stroke="#000000" stroke-width="0.000000" fill="#000000" d="M44.00 -43.00 L44.00 -44.00 L43.00 -44.00 L43.00 -43.00 L44.00 -43.00 " />
<path stroke="#000000" stroke-width="0.000000" fill="#000000" d="M39.00 -45.00 L38.00 -45.00 L38.00 -44.00 L39.00 -44.00 L39.00 -45.00 " />
<path stroke="#000000" stroke-width="0.000000" fill="#000000" d="M37.00 -45.00 L36.00 -45.00 L36.00 -44.00 L37.00 -44.00 L37.00 -45.00 " />
<path stroke="#000000" stroke-width="0.000000" fill="#000000" d="M36.00 -43.00 L36.00 -42.00 L37.00 -42.00 L37.00 -43.00 L36.00 -43.00 " />
<path stroke="#000000" stroke-width="0.000000" fill="#000000" d="M38.00 -42.00 L39.00 -42.00 L39.00 -43.00 L38.00 -43.00 L38.00 -42.00 " />
<path stroke="#000000" stroke-width="0.000000" fill="#000000" d="M38.00 -43.00 L38.00 -44.00 L37.00 -44.00 L37.00 -43.00 L38.00 -43.00 " />
<path stroke="#000000" stroke-width="0.000000" fill="#000000" d="M36.00 -39.00 L36.00 -38.00 L37.00 -38.00 L37.00 -39.00 L36.00 -39.00 " />
<path stroke="#000000" stroke-width="0.000000" fill="#000000" d="M36.00 -37.00 L36.00 -36.00 L37.00 -36.00 L37.00 -37.00 L36.00 -37.00 " />
<path stroke="#000000" stroke-width="0.000000" fill="#000000" d="M38.00 -36.00 L39.00 -36.00 L39.00 -37.00 L38.00 -37.00 L38.00 -36.00 " />
<path stroke="#000000" stroke-width="0.000000" fill="#000000" d="M39.00 -38.00 L39.00 -39.00 L38.00 -39.00 L38.00 -38.00 L39.00 -38.00 " />
<path stroke="#000000" stroke-width="0.000000" fill="#000000" d="M38.00 -38.00 L37.00 -38.00 L37.00 -37.00 L38.00 -37.00 L38.00 -38.00 " />
<path stroke="#000000" stroke-width="0.000000" fill="#000000" d="M42.00 -36.00 L43.00 -36.00 L43.00 -37.00 L42.00 -37.00 L42.00 -36.00 " />
<path stroke="#000000" stroke-width="0.000000" fill="#000000" d="M44.00 -36.00 L45.00 -36.00 L45.00 -37.00 L44.00 -37.00 L44.00 -36.00 " />
<path stroke="#000000" stroke-width="0.000000" fill="#000000" d="M45.00 -38.00 L45.00 -39.00 L44.00 -39.00 L44.00 -38.00 L45.00 -38.00 " />
<path stroke="#000000" stroke-width="0.000000" fill="#000000" d="M43.00 -39.00 L42.00 -39.00 L42.00 -38.00 L43.00 -38.00 L43.00 -39.00 " />
<path stroke="#000000" stroke-width="0.000000" fill="#000000" d="M43.00 -38.00 L43.00 -37.00 L44.00 -37.00 L44.00 -38.00 L43.00 -38.00 " />
<path stroke="#000000" stroke-width="0.000000" fill="#000000" d="M42.00 -39.00 L42.00 -40.00 L41.00 -40.00 L41.00 -39.00 L42.00 -39.00 " />
<path stroke="#000000" stroke-width="0.000000" fill="#000000" d="M42.00 -41.00 L42.00 -42.00 L41.00 -42.00 L41.00 -41.00 L42.00 -41.00 " />
<path stroke="#000000" stroke-width="0.000000" fill="#000000" d="M40.00 -42.00 L39.00 -42.00 L39.00 -41.00 L40.00 -41.00 L40.00 -42.00 " />
<path stroke="#000000" stroke-width="0.000000" fill="#000000" d="M39.00 -40.00 L39.00 -39.00 L40.00 -39.00 L40.00 -40.00 L39.00 -40.00 " />
<path stroke="#000000" stroke-width="0.000000" fill="#000000" d="M40.00 -40.00 L41.00 -40.00 L41.00 -41.00 L40.00 -41.00 L40.00 -40.00 " />
<path stroke="#000000" stroke-width="0.000000" fill="none" d="M40.00 -40.00 M42.00 -40.00 M42.00 -39.00 M42.00 -45.00 M45.00 -45.00 M27.00 -45.00 M27.00 -54.00 M27.00 0.00 M0.00 -0.00 "/>
</g>
</svg>

