<svg viewBox="0 0 1000.000000 1868.683960" xmlns="http://www.w3.org/2000/svg" version="1.1">
<!-- SEED 534615654 -->
<rect width="1000.000000" height="1868.683960" fill="#DDFFAA" fill-opacity="1.000000"/>
<g transform="scale(24.722672,26.619431) translate(20.224352,66.099998) ">
<path stroke="#000000" stroke-opacity="1.000000" stroke-width="0.200000" fill="none" fill-opacity="1" d="M0.00 0.00 L0.00 -1.00 L0.00 -2.00 L0.00 -3.00 L0.00 -4.00 L0.00 -5.00 L0.00 -6.00 L0.00 -7.00 L0.00 -8.00 L0.00 -9.00 L0.00 -10.00 L0.00 -11.00 L0.00 -12.00 L0.00 -13.00 L0.00 -14.00 L0.00 -15.00 L0.00 -16.00 L0.00 -17.00 L0.00 -18.00 L0.00 -19.00 L0.00 -20.00 L0.00 -21.00 L0.00 -22.00 L0.00 -23.00 L0.00 -24.00 L0.00 -25.00 L0.00 -26.00 L0.00 -27.00 L0.00 -28.00 L0.00 -29.00 L0.00 -30.00 L0.00 -31.00 L0.00 -32.00 L0.00 -33.00 L0.00 -34.00 L0.00 -35.00 L0.00 -36.00 L0.00 -37.00 L0.00 -38.00 L0.00 -39.00 L0.00 -40.00 L0.00 -41.00 L0.00 -42.00 L0.00 -43.00 L0.00 -44.00 L0.00 -45.00 L0.00 -46.00 L0.00 -47.00 L0.00 -48.00 L0.00 -49.00 L0.00 -50.00 L0.00 -51.00 L0.00 -52.00 L0.00 -53.00 L0.00 -54.00 L0.00 -55.00 L0.00 -56.00 L0.00 -57.00 L0.00 -58.00 L0.00 -59.00 L0.00 -60.00 L0.00 -61.00 L0.00 -62.00 "/>
<path stroke="#000000" stroke-opacity="1.000000" stroke-width="0.200000" fill="none" fill-opacity="1" d="M0.00 -16.00 L-0.50 -16.87 L-1.00 -17.73 L-1.50 -18.60 L-2.00 -19.46 L-2.50 -20.33 L-3.00 -21.20 L-3.50 -22.06 L-4.00 -22.93 L-4.50 -23.79 L-5.00 -24.66 L-5.50 -25.53 L-6.00 -26.39 L-6.50 -27.26 L-7.00 -28.12 L-7.50 -28.99 L-8.00 -29.86 L-8.50 -30.72 L-9.00 -31.59 L-9.50 -32.45 L-10.00 -33.32 L-10.50 -34.19 L-11.00 -35.05 L-11.50 -35.92 L-12.00 -36.78 L-12.50 -37.65 L-13.00 -38.52 L-13.50 -39.38 L-14.00 -40.25 L-14.50 -41.11 L-15.00 -41.98 "/>
<path stroke="#000000" stroke-opacity="1.000000" stroke-width="0.200000" fill="none" fill-opacity="1" d="M-4.00 -22.93 L-4.87 -23.43 L-5.73 -23.93 L-6.60 -24.43 L-7.46 -24.93 L-8.33 -25.43 L-9.20 -25.93 L-10.06 -26.43 L-10.93 -26.93 L-11.79 -27.43 L-12.66 -27.93 L-13.53 -28.43 L-14.39 -28.93 L-15.26 -29.43 L-16.12 -29.93 "/>
<path stroke="#000000" stroke-opacity="1.000000" stroke-width="0.200000" fill="none" fill-opacity="1" d="M-7.46 -24.93 L-8.46 -24.93 L-9.46 -24.93 L-10.46 -24.93 L-11.46 -24.93 L-12.46 -24.93 L-13.46 -24.93 "/>
<path stroke="#000000" stroke-opacity="1.000000" stroke-width="0.200000" fill="none" fill-opacity="1" d="M-9.46 -24.93 L-10.33 -24.43 L-11.20 -23.93 "/>
<path stroke="#000000" stroke-opacity="1.000000" stroke-width="0.200000" fill="none" fill-opacity="1" d="M-9.46 -24.93 L-10.33 -25.43 L-11.20 -25.93 "/>
<path stroke="#000000" stroke-opacity="1.000000" stroke-width="0.200000" fill="none" fill-opacity="1" d="M-7.46 -24.93 L-7.96 -25.79 L-8.46 -26.66 L-8.96 -27.53 L-9.46 -28.39 L-9.96 -29.26 L-10.46 -30.12 "/>
<path stroke="#000000" stroke-opacity="1.000000" stroke-width="0.200000" fill="none" fill-opacity="1" d="M-8.46 -26.66 L-9.33 -27.16 L-10.20 -27.66 "/>
<path stroke="#000000" stroke-opacity="1.000000" stroke-width="0.200000" fill="none" fill-opacity="1" d="M-8.46 -26.66 L-8.46 -27.66 L-8.46 -28.66 "/>
<path stroke="#000000" stroke-opacity="1.000000" stroke-width="0.200000" fill="none" fill-opacity="1" d="M-12.66 -27.93 L-13.66 -27.93 L-14.66 -27.93 "/>
<path stroke="#000000" stroke-opacity="1.000000" stroke-width="0.200000" fill="none" fill-opacity="1" d="M-12.66 -27.93 L-13.16 -28.79 L-13.66 -29.66 "/>
<path stroke="#000000" stroke-opacity="1.000000" stroke-width="0.200000" fill="none" fill-opacity="1" d="M-4.00 -22.93 L-4.00 -23.93 L-4.00 -24.93 L-4.00 -25.93 L-4.00 -26.93 L-4.00 -27.93 L-4.00 -28.93 L-4.00 -29.93 L-4.00 -30.93 L-4.00 -31.93 L-4.00 -32.93 L-4.00 -33.93 L-4.00 -34.93 L-4.00 -35.93 L-4.00 -36.93 "/>
<path stroke="#000000" stroke-opacity="1.000000" stroke-width="0.200000" fill="none" fill-opacity="1" d="M-4.00 -26.93 L-4.50 -27.79 L-5.00 -28.66 L-5.50 -29.53 L-6.00 -30.39 L-6.50 -31.26 L-7.00 -32.12 "/>
<path stroke="#000000" stroke-opacity="1.000000" stroke-width="0.200000" fill="none" fill-opacity="1" d="M-5.00 -28.66 L-5.87 -29.16 L-6.73 -29.66 "/>
<path stroke="#000000" stroke-opacity="1.000000" stroke-width="0.200000" fill="none" fill-opacity="1" d="M-5.00 -28.66 L-5.00 -29.66 L-5.00 -30.66 "/>
<path stroke="#000000" stroke-opacity="1.000000" stroke-width="0.200000" fill="none" fill-opacity="1" d="M-4.00 -26.93 L-3.50 -27.79 L-3.00 -28.66 L-2.50 -29.53 L-2.00 -30.39 L-1.50 -31.26 L-1.00 -32.12 "/>
<path stroke="#000000" stroke-opacity="1.000000" stroke-width="0.200000" fill="none" fill-opacity="1" d="M-3.00 -28.66 L-3.00 -29.66 L-3.00 -30.66 "/>
<path stroke="#000000" stroke-opacity="1.000000" stroke-width="0.200000" fill="none" fill-opacity="1" d="M-3.00 -28.66 L-2.13 -29.16 L-1.27 -29.66 "/>
<path stroke="#000000" stroke-opacity="1.000000" stroke-width="0.200000" fill="none" fill-opacity="1" d="M-4.00 -32.93 L-4.50 -33.79 L-5.00 -34.66 "/>
<path stroke="#000000" stroke-opacity="1.000000" stroke-width="0.200000" fill="none" fill-opacity="1" d="M-4.00 -32.93 L-3.50 -33.79 L-3.00 -34.66 "/>
<path stroke="#000000" stroke-opacity="1.000000" stroke-width="0.200000" fill="none" fill-opacity="1" d="M-10.00 -33.32 L-10.87 -33.82 L-11.73 -34.32 L-12.60 -34.82 L-13.46 -35.32 L-14.33 -35.82 L-15.20 -36.32 "/>
<path stroke="#000000" stroke-opacity="1.000000" stroke-width="0.200000" fill="none" fill-opacity="1" d="M-11.73 -34.32 L-12.73 -34.32 L-13.73 -34.32 "/>
<path stroke="#000000" stroke-opacity="1.000000" stroke-width="0.200000" fill="none" fill-opacity="1" d="M-11.73 -34.32 L-12.23 -35.19 L-12.73 -36.05 "/>
<path stroke="#000000" stroke-opacity="1.000000" stroke-width="0.200000" fill="none" fill-opacity="1" d="M-10.00 -33.32 L-10.00 -34.32 L-10.00 -35.32 L-10.00 -36.32 L-10.00 -37.32 L-10.00 -38.32 L-10.00 -39.32 "/>
<path stroke="#000000" stroke-opacity="1.000000" stroke-width="0.200000" fill="none" fill-opacity="1" d="M-10.00 -35.32 L-10.50 -36.19 L-11.00 -37.05 "/>
<path stroke="#000000" stroke-opacity="1.000000" stroke-width="0.200000" fill="none" fill-opacity="1" d="M-10.00 -35.32 L-9.50 -36.19 L-9.00 -37.05 "/>
<path stroke="#000000" stroke-opacity="1.000000" stroke-width="0.200000" fill="none" fill-opacity="1" d="M-13.00 -38.52 L-13.87 -39.02 L-14.73 -39.52 "/>
<path stroke="#000000" stroke-opacity="1.000000" stroke-width="0.200000" fill="none" fill-opacity="1" d="M-13.00 -38.52 L-13.00 -39.52 L-13.00 -40.52 "/>
<path stroke="#000000" stroke-opacity="1.000000" stroke-width="0.200000" fill="none" fill-opacity="1" d="M0.00 -16.00 L0.50 -16.87 L1.00 -17.73 L1.50 -18.60 L2.00 -19.46 L2.50 -20.33 L3.00 -21.20 L3.50 -22.06 L4.00 -22.93 L4.50 -23.79 L5.00 -24.66 L5.50 -25.53 L6.00 -26.39 L6.50 -27.26 L7.00 -28.12 L7.50 -28.99 L8.00 -29.86 L8.50 -30.72 L9.00 -31.59 L9.50 -32.45 L10.00 -33.32 L10.50 -34.19 L11.00 -35.05 L11.50 -35.92 L12.00 -36.78 L12.50 -37.65 L13.00 -38.52 L13.50 -39.38 L14.00 -40.25 L14.50 -41.11 L15.00 -41.98 "/>
<path stroke="#000000" stroke-opacity="1.000000" stroke-width="0.200000" fill="none" fill-opacity="1" d="M4.00 -22.93 L4.00 -23.93 L4.00 -24.93 L4.00 -25.93 L4.00 -26.93 L4.00 -27.93 L4.00 -28.93 L4.00 -29.93 L4.00 -30.93 L4.00 -31.93 L4.00 -32.93 L4.00 -33.93 L4.00 -34.93 L4.00 -35.93 L4.00 -36.93 "/>
<path stroke="#000000" stroke-opacity="1.000000" stroke-width="0.200000" fill="none" fill-opacity="1" d="M4.00 -26.93 L3.50 -27.79 L3.00 -28.66 L2.50 -29.53 L2.00 -30.39 L1.50 -31.26 L1.00 -32.12 "/>
<path stroke="#000000" stroke-opacity="1.000000" stroke-width="0.200000" fill="none" fill-opacity="1" d="M3.00 -28.66 L2.13 -29.16 L1.27 -29.66 "/>
<path stroke="#000000" stroke-opacity="1.000000" stroke-width="0.200000" fill="none" fill-opacity="1" d="M3.00 -28.66 L3.00 -29.66 L3.00 -30.66 "/>
<path stroke="#000000" stroke-opacity="1.000000" stroke-width="0.200000" fill="none" fill-opacity="1" d="M4.00 -26.93 L4.50 -27.79 L5.00 -28.66 L5.50 -29.53 L6.00 -30.39 L6.50 -31.26 L7.00 -32.12 "/>
<path stroke="#000000" stroke-opacity="1.000000" stroke-width="0.200000" fill="none" fill-opacity="1" d="M5.00 -28.66 L5.00 -29.66 L5.00 -30.66 "/>
<path stroke="#000000" stroke-opacity="1.000000" stroke-width="0.200000" fill="none" fill-opacity="1" d="M5.00 -28.66 L5.87 -29.16 L6.73 -29.66 "/>
<path stroke="#000000" stroke-opacity="1.000000" stroke-width="0.200000" fill="none" fill-opacity="1" d="M4.00 -32.93 L3.50 -33.79 L3.00 -34.66 "/>
<path stroke="#000000" stroke-opacity="1.000000" stroke-width="0.200000" fill="none" fill-opacity="1" d="M4.00 -32.93 L4.50 -33.79 L5.00 -34.66 "/>
<path stroke="#000000" stroke-opacity="1.000000" stroke-width="0.200000" fill="none" fill-opacity="1" d="M4.00 -22.93 L4.87 -23.43 L5.73 -23.93 L6.60 -24.43 L7.46 -24.93 L8.33 -25.43 L9.20 -25.93 L10.06 -26.43 L10.93 -26.93 L11.79 -27.43 L12.66 -27.93 L13.53 -28.43 L14.39 -28.93 L15.26 -29.43 L16.12 -29.93 "/>
<path stroke="#000000" stroke-opacity="1.000000" stroke-width="0.200000" fill="none" fill-opacity="1" d="M7.46 -24.93 L7.96 -25.79 L8.46 -26.66 L8.96 -27.53 L9.46 -28.39 L9.96 -29.26 L10.46 -30.12 "/>
<path stroke="#000000" stroke-opacity="1.000000" stroke-width="0.200000" fill="none" fill-opacity="1" d="M8.46 -26.66 L8.46 -27.66 L8.46 -28.66 "/>
<path stroke="#000000" stroke-opacity="1.000000" stroke-width="0.200000" fill="none" fill-opacity="1" d="M8.46 -26.66 L9.33 -27.16 L10.20 -27.66 "/>
<path stroke="#000000" stroke-opacity="1.000000" stroke-width="0.200000" fill="none" fill-opacity="1" d="M7.46 -24.93 L8.46 -24.93 L9.46 -24.93 L10.46 -24.93 L11.46 -24.93 L12.46 -24.93 L13.46 -24.93 "/>
<path stroke="#000000" stroke-opacity="1.000000" stroke-width="0.200000" fill="none" fill-opacity="1" d="M9.46 -24.93 L10.33 -25.43 L11.20 -25.93 "/>
<path stroke="#000000" stroke-opacity="1.000000" stroke-width="0.200000" fill="none" fill-opacity="1" d="M9.46 -24.93 L10.33 -24.43 L11.20 -23.93 "/>
<path stroke="#000000" stroke-opacity="1.000000" stroke-width="0.200000" fill="none" fill-opacity="1" d="M12.66 -27.93 L13.16 -28.79 L13.66 -29.66 "/>
<path stroke="#000000" stroke-opacity="1.000000" stroke-width="0.200000" fill="none" fill-opacity="1" d="M12.66 -27.93 L13.66 -27.93 L14.66 -27.93 "/>
<path stroke="#000000" stroke-opacity="1.000000" stroke-width="0.200000" fill="none" fill-opacity="1" d="M10.00 -33.32 L10.00 -34.32 L10.00 -35.32 L10.00 -36.32 L10.00 -37.32 L10.00 -38.32 L10.00 -39.32 "/>
<path stroke="#000000" stroke-opacity="1.000000" stroke-width="0.200000" fill="none" fill-opacity="1" d="M10.00 -35.32 L9.50 -36.19 L9.00 -37.05 "/>
<path stroke="#000000" stroke-opacity="1.000000" stroke-width="0.200000" fill="none" fill-opacity="1" d="M10.00 -35.32 L10.50 -36.19 L11.00 -37.05 "/>
<path stroke="#000000" stroke-opacity="1.000000" stroke-width="0.200000" fill="none" fill-opacity="1" d="M10.00 -33.32 L10.87 -33.82 L11.73 -34.32 L12.60 -34.82 L13.46 -35.32 L14.33 -35.82 L15.20 -36.32 "/>
<path stroke="#000000" stroke-opacity="1.000000" stroke-width="0.200000" fill="none" fill-opacity="1" d="M11.73 -34.32 L12.23 -35.19 L12.73 -36.05 "/>
<path stroke="#000000" stroke-opacity="1.000000" stroke-width="0.200000" fill="none" fill-opacity="1" d="M11.73 -34.32 L12.73 -34.32 L13.73 -34.32 "/>
<path stroke="#000000" stroke-opacity="1.000000" stroke-width="0.200000" fill="none" fill-opacity="1" d="M13.00 -38.52 L13.00 -39.52 L13.00 -40.52 "/>
<path stroke="#000000" stroke-opacity="1.000000" stroke-width="0.200000" fill="none" fill-opacity="1" d="M13.00 -38.52 L13.87 -39.02 L14.73 -39.52 "/>
<path stroke="#000000" stroke-opacity="1.000000" stroke-width="0.200000" fill="none" fill-opacity="1" d="M0.00 -40.00 L-0.50 -40.87 L-1.00 -41.73 L-1.50 -42.60 L-2.00 -43.46 L-2.50 -44.33 L-3.00 -45.20 L-3.50 -46.06 L-4.00 -46.93 L-4.50 -47.79 L-5.00 -48.66 L-5.50 -49.53 L-6.00 -50.39 L-6.50 -51.26 L-7.00 -52.12 "/>
<path stroke="#000000" stroke-opacity="1.000000" stroke-width="0.200000" fill="none" fill-opacity="1" d="M-2.00 -43.46 L-2.87 -43.96 L-3.73 -44.46 L-4.60 -44.96 L-5.46 -45.46 L-6.33 -45.96 L-7.20 -46.46 "/>
<path stroke="#000000" stroke-opacity="1.000000" stroke-width="0.200000" fill="none" fill-opacity="1" d="M-3.73 -44.46 L-4.73 -44.46 L-5.73 -44.46 "/>
<path stroke="#000000" stroke-opacity="1.000000" stroke-width="0.200000" fill="none" fill-opacity="1" d="M-3.73 -44.46 L-4.23 -45.33 L-4.73 -46.20 "/>
<path stroke="#000000" stroke-opacity="1.000000" stroke-width="0.200000" fill="none" fill-opacity="1" d="M-2.00 -43.46 L-2.00 -44.46 L-2.00 -45.46 L-2.00 -46.46 L-2.00 -47.46 L-2.00 -48.46 L-2.00 -49.46 "/>
<path stroke="#000000" stroke-opacity="1.000000" stroke-width="0.200000" fill="none" fill-opacity="1" d="M-2.00 -45.46 L-2.50 -46.33 L-3.00 -47.20 "/>
<path stroke="#000000" stroke-opacity="1.000000" stroke-width="0.200000" fill="none" fill-opacity="1" d="M-2.00 -45.46 L-1.50 -46.33 L-1.00 -47.20 "/>
<path stroke="#000000" stroke-opacity="1.000000" stroke-width="0.200000" fill="none" fill-opacity="1" d="M-5.00 -48.66 L-5.87 -49.16 L-6.73 -49.66 "/>
<path stroke="#000000" stroke-opacity="1.000000" stroke-width="0.200000" fill="none" fill-opacity="1" d="M-5.00 -48.66 L-5.00 -49.66 L-5.00 -50.66 "/>
<path stroke="#000000" stroke-opacity="1.000000" stroke-width="0.200000" fill="none" fill-opacity="1" d="M0.00 -40.00 L0.50 -40.87 L1.00 -41.73 L1.50 -42.60 L2.00 -43.46 L2.50 -44.33 L3.00 -45.20 L3.50 -46.06 L4.00 -46.93 L4.50 -47.79 L5.00 -48.66 L5.50 -49.53 L6.00 -50.39 L6.50 -51.26 L7.00 -52.12 "/>
<path stroke="#000000" stroke-opacity="1.000000" stroke-width="0.200000" fill="none" fill-opacity="1" d="M2.00 -43.46 L2.00 -44.46 L2.00 -45.46 L2.00 -46.46 L2.00 -47.46 L2.00 -48.46 L2.00 -49.46 "/>
<path stroke="#000000" stroke-opacity="1.000000" stroke-width="0.200000" fill="none" fill-opacity="1" d="M2.00 -45.46 L1.50 -46.33 L1.00 -47.20 "/>
<path stroke="#000000" stroke-opacity="1.000000" stroke-width="0.200000" fill="none" fill-opacity="1" d="M2.00 -45.46 L2.50 -46.33 L3.00 -47.20 "/>
<path stroke="#000000" stroke-opacity="1.000000" stroke-width="0.200000" fill="none" fill-opacity="1" d="M2.00 -43.46 L2.87 -43.96 L3.73 -44.46 L4.60 -44.96 L5.46 -45.46 L6.33 -45.96 L7.20 -46.46 "/>
<path stroke="#000000" stroke-opacity="1.000000" stroke-width="0.200000" fill="none" fill-opacity="1" d="M3.73 -44.46 L4.23 -45.33 L4.73 -46.20 "/>
<path stroke="#000000" stroke-opacity="1.000000" stroke-width="0.200000" fill="none" fill-opacity="1" d="M3.73 -44.46 L4.73 -44.46 L5.73 -44.46 "/>
<path stroke="#000000" stroke-opacity="1.000000" stroke-width="0.200000" fill="none" fill-opacity="1" d="M5.00 -48.66 L5.00 -49.66 L5.00 -50.66 "/>
<path stroke="#000000" stroke-opacity="1.000000" stroke-width="0.200000" fill="none" fill-opacity="1" d="M5.00 -48.66 L5.87 -49.16 L6.73 -49.66 "/>
<path stroke="#000000" stroke-opacity="1.000000" stroke-width="0.200000" fill="none" fill-opacity="1" d="M0.00 -52.00 L-0.50 -52.87 L-1.00 -53.73 L-1.50 -54.60 L-2.00 -55.46 L-2.50 -56.33 L-3.00 -57.20 "/>
<path stroke="#000000" stroke-opacity="1.000000" stroke-width="0.200000" fill="none" fill-opacity="1" d="M-1.00 -53.73 L-1.87 -54.23 L-2.73 -54.73 "/>
<path stroke="#000000" stroke-opacity="1.000000" stroke-width="0.200000" fill="none" fill-opacity="1" d="M-1.00 -53.73 L-1.00 -54.73 L-1.00 -55.73 "/>
<path stroke="#000000" stroke-opacity="1.000000" stroke-width="0.200000" fill="none" fill-opacity="1" d="M0.00 -52.00 L0.50 -52.87 L1.00 -53.73 L1.50 -54.60 L2.00 -55.46 L2.50 -56.33 L3.00 -57.20 "/>
<path stroke="#000000" stroke-opacity="1.000000" stroke-width="0.200000" fill="none" fill-opacity="1" d="M1.00 -53.73 L1.00 -54.73 L1.00 -55.73 "/>
<path stroke="#000000" stroke-opacity="1.000000" stroke-width="0.200000" fill="none" fill-opacity="1" d="M1.00 -53.73 L1.87 -54.23 L2.73 -54.73 "/>
<path stroke="#000000" stroke-opacity="1.000000" stroke-width="0.200000" fill="none" fill-opacity="1" d="M0.00 -58.00 L-0.50 -58.87 L-1.00 -59.73 "/>
<path stroke="#000000" stroke-opacity="1.000000" stroke-width="0.200000" fill="none" fill-opacity="1" d="M0.00 -58.00 L0.50 -58.87 L1.00 -59.73 "/>
</g>
</svg>

