<svg viewBox="0 0 400.000000 48.192768" xmlns="http://www.w3.org/2000/svg" version="1.1">
<!-- SEED 1747642680 -->
<rect width="400.000000" height="48.192768" fill="#DDDDDD" fill-opacity="1.000000"/>
<g transform="scale(4.390779,2.662584) translate(5.050001,13.050000) ">
<path stroke="#000000" stroke-opacity="1.000000" stroke-width="0.100000" fill="none" fill-opacity="1" d="M0.00 0.00 L1.00 0.00 L2.00 0.00 L3.00 0.00 L4.00 0.00 L5.00 0.00 L6.00 0.00 L7.00 0.00 L8.00 0.00 L9.00 0.00 L10.00 0.00 L11.00 0.00 L12.00 0.00 L13.00 0.00 L14.00 0.00 L15.00 0.00 L16.00 0.00 L17.00 0.00 L18.00 0.00 L19.00 0.00 L20.00 0.00 L21.00 0.00 L22.00 0.00 L23.00 0.00 L24.00 0.00 L25.00 0.00 L26.00 0.00 L27.00 0.00 L28.00 0.00 L29.00 0.00 L30.00 0.00 L31.00 0.00 L32.00 0.00 L33.00 0.00 L34.00 0.00 L35.00 0.00 L36.00 0.00 L37.00 0.00 L38.00 0.00 L39.00 0.00 L40.00 0.00 L41.00 0.00 L42.00 0.00 L43.00 0.00 L44.00 0.00 L45.00 0.00 L46.00 0.00 L47.00 0.00 L48.00 0.00 L49.00 0.00 L50.00 0.00 L51.00 0.00 L52.00 0.00 L53.00 0.00 L54.00 0.00 L55.00 0.00 L56.00 0.00 L57.00 0.00 L58.00 0.00 L59.00 0.00 L60.00 0.00 L61.00 0.00 L62.00 0.00 L63.00 0.00 L64.00 0.00 L65.00 0.00 L66.00 0.00 L67.00 0.00 L68.00 0.00 L69.00 0.00 L70.00 0.00 L71.00 0.00 L72.00 0.00 L73.00 0.00 L74.00 0.00 L75.00 0.00 L76.00 0.00 L77.00 0.00 L78.00 0.00 L79.00 0.00 L80.00 0.00 L81.00 0.00 "/>
<path stroke="#000000" stroke-opacity="1.000000" stroke-width="0.100000" fill="none" fill-opacity="1" d="M0.00 0.00 M-0.00 -1.00 M-0.00 -2.00 L1.00 -2.00 L2.00 -2.00 L3.00 -2.00 L4.00 -2.00 L5.00 -2.00 L6.00 -2.00 L7.00 -2.00 L8.00 -2.00 L9.00 -2.00 L10.00 -2.00 L11.00 -2.00 L12.00 -2.00 L13.00 -2.00 L14.00 -2.00 L15.00 -2.00 L16.00 -2.00 L17.00 -2.00 L18.00 -2.00 L19.00 -2.00 L20.00 -2.00 L21.00 -2.00 L22.00 -2.00 L23.00 -2.00 L24.00 -2.00 L25.00 -2.00 L26.00 -2.00 L27.00 -2.00 M28.00 -2.00 M29.00 -2.00 M30.00 -2.00 M31.00 -2.00 M32.00 -2.00 M33.00 -2.00 M34.00 -2.00 M35.00 -2.00 M36.00 -2.00 M37.00 -2.00 M38.00 -2.00 M39.00 -2.00 M40.00 -2.00 M41.00 -2.00 M42.00 -2.00 M43.00 -2.00 M44.00 -2.00 M45.00 -2.00 M46.00 -2.00 M47.00 -2.00 M48.00 -2.00 M49.00 -2.00 M50.00 -2.00 M51.00 -2.00 M52.00 -2.00 M53.00 -2.00 M54.00 -2.00 L55.00 -2.00 L56.00 -2.00 L57.00 -2.00 L58.00 -2.00 L59.00 -2.00 L60.00 -2.00 L61.00 -2.00 L62.00 -2.00 L63.00 -2.00 L64.00 -2.00 L65.00 -2.00 L66.00 -2.00 L67.00 -2.00 L68.00 -2.00 L69.00 -2.00 L70.00 -2.00 L71.00 -2.00 L72.00 -2.00 L73.00 -2.00 L74.00 -2.00 L75.00 -2.00 L76.00 -2.00 L77.00 -2.00 L78.00 -2.00 L79.00 -2.00 L80.00 -2.00 L81.00 -2.00 "/>
<path stroke="#000000" stroke-opacity="1.000000" stroke-width="0.100000" fill="none" fill-opacity="1" d="M-0.00 -2.00 M-0.00 -3.00 M-0.00 -4.00 L1.00 -4.00 L2.00 -4.00 L3.00 -4.00 L4.00 -4.00 L5.00 -4.00 L6.00 -4.00 L7.00 -4.00 L8.00 -4.00 L9.00 -4.00 M10.00 -4.00 M11.00 -4.00 M12.00 -4.00 M13.00 -4.00 M14.00 -4.00 M15.00 -4.00 M16.00 -4.00 M17.00 -4.00 M18.00 -4.00 L19.00 -4.00 L20.00 -4.00 L21.00 -4.00 L22.00 -4.00 L23.00 -4.00 L24.00 -4.00 L25.00 -4.00 L26.00 -4.00 L27.00 -4.00 "/>
<path stroke="#000000" stroke-opacity="1.000000" stroke-width="0.100000" fill="none" fill-opacity="1" d="M-0.00 -4.00 M-0.00 -5.00 M-0.00 -6.00 L1.00 -6.00 L2.00 -6.00 L3.00 -6.00 M4.00 -6.00 M5.00 -6.00 M6.00 -6.00 L7.00 -6.00 L8.00 -6.00 L9.00 -6.00 "/>
<path stroke="#000000" stroke-opacity="1.000000" stroke-width="0.100000" fill="none" fill-opacity="1" d="M-0.00 -6.00 M-0.00 -7.00 M-0.00 -8.00 L1.00 -8.00 M2.00 -8.00 L3.00 -8.00 "/>
<path stroke="#000000" stroke-opacity="1.000000" stroke-width="0.100000" fill="none" fill-opacity="1" d="M6.00 -6.00 M6.00 -7.00 M6.00 -8.00 L7.00 -8.00 M8.00 -8.00 L9.00 -8.00 "/>
<path stroke="#000000" stroke-opacity="1.000000" stroke-width="0.100000" fill="none" fill-opacity="1" d="M18.00 -4.00 M18.00 -5.00 M18.00 -6.00 L19.00 -6.00 L20.00 -6.00 L21.00 -6.00 M22.00 -6.00 M23.00 -6.00 M24.00 -6.00 L25.00 -6.00 L26.00 -6.00 L27.00 -6.00 "/>
<path stroke="#000000" stroke-opacity="1.000000" stroke-width="0.100000" fill="none" fill-opacity="1" d="M18.00 -6.00 M18.00 -7.00 M18.00 -8.00 L19.00 -8.00 M20.00 -8.00 L21.00 -8.00 "/>
<path stroke="#000000" stroke-opacity="1.000000" stroke-width="0.100000" fill="none" fill-opacity="1" d="M24.00 -6.00 M24.00 -7.00 M24.00 -8.00 L25.00 -8.00 M26.00 -8.00 L27.00 -8.00 "/>
<path stroke="#000000" stroke-opacity="1.000000" stroke-width="0.100000" fill="none" fill-opacity="1" d="M54.00 -2.00 M54.00 -3.00 M54.00 -4.00 L55.00 -4.00 L56.00 -4.00 L57.00 -4.00 L58.00 -4.00 L59.00 -4.00 L60.00 -4.00 L61.00 -4.00 L62.00 -4.00 L63.00 -4.00 M64.00 -4.00 M65.00 -4.00 M66.00 -4.00 M67.00 -4.00 M68.00 -4.00 M69.00 -4.00 M70.00 -4.00 M71.00 -4.00 M72.00 -4.00 L73.00 -4.00 L74.00 -4.00 L75.00 -4.00 L76.00 -4.00 L77.00 -4.00 L78.00 -4.00 L79.00 -4.00 L80.00 -4.00 L81.00 -4.00 "/>
<path stroke="#000000" stroke-opacity="1.000000" stroke-width="0.100000" fill="none" fill-opacity="1" d="M54.00 -4.00 M54.00 -5.00 M54.00 -6.00 L55.00 -6.00 L56.00 -6.00 L57.00 -6.00 M58.00 -6.00 M59.00 -6.00 M60.00 -6.00 L61.00 -6.00 L62.00 -6.00 L63.00 -6.00 "/>
<path stroke="#000000" stroke-opacity="1.000000" stroke-width="0.100000" fill="none" fill-opacity="1" d="M54.00 -6.00 M54.00 -7.00 M54.00 -8.00 L55.00 -8.00 M56.00 -8.00 L57.00 -8.00 "/>
<path stroke="#000000" stroke-opacity="1.000000" stroke-width="0.100000" fill="none" fill-opacity="1" d="M60.00 -6.00 M60.00 -7.00 M60.00 -8.00 L61.00 -8.00 M62.00 -8.00 L63.00 -8.00 "/>
<path stroke="#000000" stroke-opacity="1.000000" stroke-width="0.100000" fill="none" fill-opacity="1" d="M72.00 -4.00 M72.00 -5.00 M72.00 -6.00 L73.00 -6.00 L74.00 -6.00 L75.00 -6.00 M76.00 -6.00 M77.00 -6.00 M78.00 -6.00 L79.00 -6.00 L80.00 -6.00 L81.00 -6.00 "/>
<path stroke="#000000" stroke-opacity="1.000000" stroke-width="0.100000" fill="none" fill-opacity="1" d="M72.00 -6.00 M72.00 -7.00 M72.00 -8.00 L73.00 -8.00 M74.00 -8.00 L75.00 -8.00 "/>
<path stroke="#000000" stroke-opacity="1.000000" stroke-width="0.100000" fill="none" fill-opacity="1" d="M78.00 -6.00 M78.00 -7.00 M78.00 -8.00 L79.00 -8.00 M80.00 -8.00 L81.00 -8.00 "/>
</g>
</svg>

