<svg width="500.000000" height="500.000000" xmlns="http://www.w3.org/2000/svg" version="1.1">
<rect width="500.000000" height="500.000000" fill="#AAFF88" fill-opacity="1.000000"/>
<g transform="scale(5.488474,5.488474) translate(5.050000,86.050003) ">
<path stroke="#000000" stroke-opacity="1.000000" stroke-width="0.000000" fill="#000000" fill-opacity="1.000000" d="M0.00 0.00 L1.00 0.00 L1.00 -1.00 L0.00 -1.00 L-0.00 0.00 " />
<path stroke="#000000" stroke-opacity="1.000000" stroke-width="0.000000" fill="#000000" fill-opacity="1.000000" d="M2.00 0.00 L3.00 0.00 L3.00 -1.00 L2.00 -1.00 L2.00 0.00 " />
<path stroke="#000000" stroke-opacity="1.000000" stroke-width="0.000000" fill="#000000" fill-opacity="1.000000" d="M3.00 -2.00 L3.00 -3.00 L2.00 -3.00 L2.00 -2.00 L3.00 -2.00 " />
<path stroke="#000000" stroke-opacity="1.000000" stroke-width="0.000000" fill="#000000" fill-opacity="1.000000" d="M1.00 -3.00 L0.00 -3.00 L0.00 -2.00 L1.00 -2.00 L1.00 -3.00 " />
<path stroke="#000000" stroke-opacity="1.000000" stroke-width="0.000000" fill="#000000" fill-opacity="1.000000" d="M6.00 0.00 L7.00 0.00 L7.00 -1.00 L6.00 -1.00 L6.00 0.00 " />
<path stroke="#000000" stroke-opacity="1.000000" stroke-width="0.000000" fill="#000000" fill-opacity="1.000000" d="M8.00 0.00 L9.00 0.00 L9.00 -1.00 L8.00 -1.00 L8.00 0.00 " />
<path stroke="#000000" stroke-opacity="1.000000" stroke-width="0.000000" fill="#000000" fill-opacity="1.000000" d="M9.00 -2.00 L9.00 -3.00 L8.00 -3.00 L8.00 -2.00 L9.00 -2.00 " />
<path stroke="#000000" stroke-opacity="1.000000" stroke-width="0.000000" fill="#000000" fill-opacity="1.000000" d="M7.00 -3.00 L6.00 -3.00 L6.00 -2.00 L7.00 -2.00 L7.00 -3.00 " />
<path stroke="#000000" stroke-opacity="1.000000" stroke-width="0.000000" fill="#000000" fill-opacity="1.000000" d="M9.00 -6.00 L9.00 -7.00 L8.00 -7.00 L8.00 -6.00 L9.00 -6.00 " />
<path stroke="#000000" stroke-opacity="1.000000" stroke-width="0.000000" fill="#000000" fill-opacity="1.000000" d="M9.00 -8.00 L9.00 -9.00 L8.00 -9.00 L8.00 -8.00 L9.00 -8.00 " />
<path stroke="#000000" stroke-opacity="1.000000" stroke-width="0.000000" fill="#000000" fill-opacity="1.000000" d="M7.00 -9.00 L6.00 -9.00 L6.00 -8.00 L7.00 -8.00 L7.00 -9.00 " />
<path stroke="#000000" stroke-opacity="1.000000" stroke-width="0.000000" fill="#000000" fill-opacity="1.000000" d="M6.00 -7.00 L6.00 -6.00 L7.00 -6.00 L7.00 -7.00 L6.00 -7.00 " />
<path stroke="#000000" stroke-opacity="1.000000" stroke-width="0.000000" fill="#000000" fill-opacity="1.000000" d="M3.00 -9.00 L2.00 -9.00 L2.00 -8.00 L3.00 -8.00 L3.00 -9.00 " />
<path stroke="#000000" stroke-opacity="1.000000" stroke-width="0.000000" fill="#000000" fill-opacity="1.000000" d="M1.00 -9.00 L0.00 -9.00 L-0.00 -8.00 L1.00 -8.00 L1.00 -9.00 " />
<path stroke="#000000" stroke-opacity="1.000000" stroke-width="0.000000" fill="#000000" fill-opacity="1.000000" d="M0.00 -7.00 L0.00 -6.00 L1.00 -6.00 L1.00 -7.00 L0.00 -7.00 " />
<path stroke="#000000" stroke-opacity="1.000000" stroke-width="0.000000" fill="#000000" fill-opacity="1.000000" d="M2.00 -6.00 L3.00 -6.00 L3.00 -7.00 L2.00 -7.00 L2.00 -6.00 " />
<path stroke="#000000" stroke-opacity="1.000000" stroke-width="0.000000" fill="#000000" fill-opacity="1.000000" d="M18.00 0.00 L19.00 0.00 L19.00 -1.00 L18.00 -1.00 L18.00 0.00 " />
<path stroke="#000000" stroke-opacity="1.000000" stroke-width="0.000000" fill="#000000" fill-opacity="1.000000" d="M20.00 -0.00 L21.00 -0.00 L21.00 -1.00 L20.00 -1.00 L20.00 0.00 " />
<path stroke="#000000" stroke-opacity="1.000000" stroke-width="0.000000" fill="#000000" fill-opacity="1.000000" d="M21.00 -2.00 L21.00 -3.00 L20.00 -3.00 L20.00 -2.00 L21.00 -2.00 " />
<path stroke="#000000" stroke-opacity="1.000000" stroke-width="0.000000" fill="#000000" fill-opacity="1.000000" d="M19.00 -3.00 L18.00 -3.00 L18.00 -2.00 L19.00 -2.00 L19.00 -3.00 " />
<path stroke="#000000" stroke-opacity="1.000000" stroke-width="0.000000" fill="#000000" fill-opacity="1.000000" d="M24.00 -0.00 L25.00 -0.00 L25.00 -1.00 L24.00 -1.00 L24.00 0.00 " />
<path stroke="#000000" stroke-opacity="1.000000" stroke-width="0.000000" fill="#000000" fill-opacity="1.000000" d="M26.00 0.00 L27.00 0.00 L27.00 -1.00 L26.00 -1.00 L26.00 0.00 " />
<path stroke="#000000" stroke-opacity="1.000000" stroke-width="0.000000" fill="#000000" fill-opacity="1.000000" d="M27.00 -2.00 L27.00 -3.00 L26.00 -3.00 L26.00 -2.00 L27.00 -2.00 " />
<path stroke="#000000" stroke-opacity="1.000000" stroke-width="0.000000" fill="#000000" fill-opacity="1.000000" d="M25.00 -3.00 L24.00 -3.00 L24.00 -2.00 L25.00 -2.00 L25.00 -3.00 " />
<path stroke="#000000" stroke-opacity="1.000000" stroke-width="0.000000" fill="#000000" fill-opacity="1.000000" d="M27.00 -6.00 L27.00 -7.00 L26.00 -7.00 L26.00 -6.00 L27.00 -6.00 " />
<path stroke="#000000" stroke-opacity="1.000000" stroke-width="0.000000" fill="#000000" fill-opacity="1.000000" d="M27.00 -8.00 L27.00 -9.00 L26.00 -9.00 L26.00 -8.00 L27.00 -8.00 " />
<path stroke="#000000" stroke-opacity="1.000000" stroke-width="0.000000" fill="#000000" fill-opacity="1.000000" d="M25.00 -9.00 L24.00 -9.00 L24.00 -8.00 L25.00 -8.00 L25.00 -9.00 " />
<path stroke="#000000" stroke-opacity="1.000000" stroke-width="0.000000" fill="#000000" fill-opacity="1.000000" d="M24.00 -7.00 L24.00 -6.00 L25.00 -6.00 L25.00 -7.00 L24.00 -7.00 " />
<path stroke="#000000" stroke-opacity="1.000000" stroke-width="0.000000" fill="#000000" fill-opacity="1.000000" d="M21.00 -9.00 L20.00 -9.00 L20.00 -8.00 L21.00 -8.00 L21.00 -9.00 " />
<path stroke="#000000" stroke-opacity="1.000000" stroke-width="0.000000" fill="#000000" fill-opacity="1.000000" d="M19.00 -9.00 L18.00 -9.00 L18.00 -8.00 L19.00 -8.00 L19.00 -9.00 " />
<path stroke="#000000" stroke-opacity="1.000000" stroke-width="0.000000" fill="#000000" fill-opacity="1.000000" d="M18.00 -7.00 L18.00 -6.00 L19.00 -6.00 L19.00 -7.00 L18.00 -7.00 " />
<path stroke="#000000" stroke-opacity="1.000000" stroke-width="0.000000" fill="#000000" fill-opacity="1.000000" d="M20.00 -6.00 L21.00 -6.00 L21.00 -7.00 L20.00 -7.00 L20.00 -6.00 " />
<path stroke="#000000" stroke-opacity="1.000000" stroke-width="0.000000" fill="#000000" fill-opacity="1.000000" d="M27.00 -18.00 L27.00 -19.00 L26.00 -19.00 L26.00 -18.00 L27.00 -18.00 " />
<path stroke="#000000" stroke-opacity="1.000000" stroke-width="0.000000" fill="#000000" fill-opacity="1.000000" d="M27.00 -20.00 L27.00 -21.00 L26.00 -21.00 L26.00 -20.00 L27.00 -20.00 " />
<path stroke="#000000" stroke-opacity="1.000000" stroke-width="0.000000" fill="#000000" fill-opacity="1.000000" d="M25.00 -21.00 L24.00 -21.00 L24.00 -20.00 L25.00 -20.00 L25.00 -21.00 " />
<path stroke="#000000" stroke-opacity="1.000000" stroke-width="0.000000" fill="#000000" fill-opacity="1.000000" d="M24.00 -19.00 L24.00 -18.00 L25.00 -18.00 L25.00 -19.00 L24.00 -19.00 " />
<path stroke="#000000" stroke-opacity="1.000000" stroke-width="0.000000" fill="#000000" fill-opacity="1.000000" d="M27.00 -24.00 L27.00 -25.00 L26.00 -25.00 L26.00 -24.00 L27.00 -24.00 " />
<path stroke="#000000" stroke-opacity="1.000000" stroke-width="0.000000" fill="#000000" fill-opacity="1.000000" d="M27.00 -26.00 L27.00 -27.00 L26.00 -27.00 L26.00 -26.00 L27.00 -26.00 " />
<path stroke="#000000" stroke-opacity="1.000000" stroke-width="0.000000" fill="#000000" fill-opacity="1.000000" d="M25.00 -27.00 L24.00 -27.00 L24.00 -26.00 L25.00 -26.00 L25.00 -27.00 " />
<path stroke="#000000" stroke-opacity="1.000000" stroke-width="0.000000" fill="#000000" fill-opacity="1.000000" d="M24.00 -25.00 L24.00 -24.00 L25.00 -24.00 L25.00 -25.00 L24.00 -25.00 " />
<path stroke="#000000" stroke-opacity="1.000000" stroke-width="0.000000" fill="#000000" fill-opacity="1.000000" d="M21.00 -27.00 L20.00 -27.00 L20.00 -26.00 L21.00 -26.00 L21.00 -27.00 " />
<path stroke="#000000" stroke-opacity="1.000000" stroke-width="0.000000" fill="#000000" fill-opacity="1.000000" d="M19.00 -27.00 L18.00 -27.00 L18.00 -26.00 L19.00 -26.00 L19.00 -27.00 " />
<path stroke="#000000" stroke-opacity="1.000000" stroke-width="0.000000" fill="#000000" fill-opacity="1.000000" d="M18.00 -25.00 L18.00 -24.00 L19.00 -24.00 L19.00 -25.00 L18.00 -25.00 " />
<path stroke="#000000" stroke-opacity="1.000000" stroke-width="0.000000" fill="#000000" fill-opacity="1.000000" d="M20.00 -24.00 L21.00 -24.00 L21.00 -25.00 L20.00 -25.00 L20.00 -24.00 " />
<path stroke="#000000" stroke-opacity="1.000000" stroke-width="0.000000" fill="#000000" fill-opacity="1.000000" d="M18.00 -21.00 L18.00 -20.00 L19.00 -20.00 L19.00 -21.00 L18.00 -21.00 " />
<path stroke="#000000" stroke-opacity="1.000000" stroke-width="0.000000" fill="#000000" fill-opacity="1.000000" d="M18.00 -19.00 L18.00 -18.00 L19.00 -18.00 L19.00 -19.00 L18.00 -19.00 " />
<path stroke="#000000" stroke-opacity="1.000000" stroke-width="0.000000" fill="#000000" fill-opacity="1.000000" d="M20.00 -18.00 L21.00 -18.00 L21.00 -19.00 L20.00 -19.00 L20.00 -18.00 " />
<path stroke="#000000" stroke-opacity="1.000000" stroke-width="0.000000" fill="#000000" fill-opacity="1.000000" d="M21.00 -20.00 L21.00 -21.00 L20.00 -21.00 L20.00 -20.00 L21.00 -20.00 " />
<path stroke="#000000" stroke-opacity="1.000000" stroke-width="0.000000" fill="#000000" fill-opacity="1.000000" d="M9.00 -27.00 L8.00 -27.00 L8.00 -26.00 L9.00 -26.00 L9.00 -27.00 " />
<path stroke="#000000" stroke-opacity="1.000000" stroke-width="0.000000" fill="#000000" fill-opacity="1.000000" d="M7.00 -27.00 L6.00 -27.00 L6.00 -26.00 L7.00 -26.00 L7.00 -27.00 " />
<path stroke="#000000" stroke-opacity="1.000000" stroke-width="0.000000" fill="#000000" fill-opacity="1.000000" d="M6.00 -25.00 L6.00 -24.00 L7.00 -24.00 L7.00 -25.00 L6.00 -25.00 " />
<path stroke="#000000" stroke-opacity="1.000000" stroke-width="0.000000" fill="#000000" fill-opacity="1.000000" d="M8.00 -24.00 L9.00 -24.00 L9.00 -25.00 L8.00 -25.00 L8.00 -24.00 " />
<path stroke="#000000" stroke-opacity="1.000000" stroke-width="0.000000" fill="#000000" fill-opacity="1.000000" d="M3.00 -27.00 L2.00 -27.00 L2.00 -26.00 L3.00 -26.00 L3.00 -27.00 " />
<path stroke="#000000" stroke-opacity="1.000000" stroke-width="0.000000" fill="#000000" fill-opacity="1.000000" d="M1.00 -27.00 L0.00 -27.00 L-0.00 -26.00 L1.00 -26.00 L1.00 -27.00 " />
<path stroke="#000000" stroke-opacity="1.000000" stroke-width="0.000000" fill="#000000" fill-opacity="1.000000" d="M0.00 -25.00 L0.00 -24.00 L1.00 -24.00 L1.00 -25.00 L0.00 -25.00 " />
<path stroke="#000000" stroke-opacity="1.000000" stroke-width="0.000000" fill="#000000" fill-opacity="1.000000" d="M2.00 -24.00 L3.00 -24.00 L3.00 -25.00 L2.00 -25.00 L2.00 -24.00 " />
<path stroke="#000000" stroke-opacity="1.000000" stroke-width="0.000000" fill="#000000" fill-opacity="1.000000" d="M-0.00 -21.00 L-0.00 -20.00 L1.00 -20.00 L1.00 -21.00 L0.00 -21.00 " />
<path stroke="#000000" stroke-opacity="1.000000" stroke-width="0.000000" fill="#000000" fill-opacity="1.000000" d="M-0.00 -19.00 L-0.00 -18.00 L1.00 -18.00 L1.00 -19.00 L0.00 -19.00 " />
<path stroke="#000000" stroke-opacity="1.000000" stroke-width="0.000000" fill="#000000" fill-opacity="1.000000" d="M2.00 -18.00 L3.00 -18.00 L3.00 -19.00 L2.00 -19.00 L2.00 -18.00 " />
<path stroke="#000000" stroke-opacity="1.000000" stroke-width="0.000000" fill="#000000" fill-opacity="1.000000" d="M3.00 -20.00 L3.00 -21.00 L2.00 -21.00 L2.00 -20.00 L3.00 -20.00 " />
<path stroke="#000000" stroke-opacity="1.000000" stroke-width="0.000000" fill="#000000" fill-opacity="1.000000" d="M6.00 -18.00 L7.00 -18.00 L7.00 -19.00 L6.00 -19.00 L6.00 -18.00 " />
<path stroke="#000000" stroke-opacity="1.000000" stroke-width="0.000000" fill="#000000" fill-opacity="1.000000" d="M8.00 -18.00 L9.00 -18.00 L9.00 -19.00 L8.00 -19.00 L8.00 -18.00 " />
<path stroke="#000000" stroke-opacity="1.000000" stroke-width="0.000000" fill="#000000" fill-opacity="1.000000" d="M9.00 -20.00 L9.00 -21.00 L8.00 -21.00 L8.00 -20.00 L9.00 -20.00 " />
<path stroke="#000000" stroke-opacity="1.000000" stroke-width="0.000000" fill="#000000" fill-opacity="1.000000" d="M7.00 -21.00 L6.00 -21.00 L6.00 -20.00 L7.00 -20.00 L7.00 -21.00 " />
<path stroke="#000000" stroke-opacity="1.000000" stroke-width="0.000000" fill="#000000" fill-opacity="1.000000" d="M54.00 0.00 L55.00 0.00 L55.00 -1.00 L54.00 -1.00 L54.00 0.00 " />
<path stroke="#000000" stroke-opacity="1.000000" stroke-width="0.000000" fill="#000000" fill-opacity="1.000000" d="M56.00 0.00 L57.00 0.00 L57.00 -1.00 L56.00 -1.00 L56.00 0.00 " />
<path stroke="#000000" stroke-opacity="1.000000" stroke-width="0.000000" fill="#000000" fill-opacity="1.000000" d="M57.00 -2.00 L57.00 -3.00 L56.00 -3.00 L56.00 -2.00 L57.00 -2.00 " />
<path stroke="#000000" stroke-opacity="1.000000" stroke-width="0.000000" fill="#000000" fill-opacity="1.000000" d="M55.00 -3.00 L54.00 -3.00 L54.00 -2.00 L55.00 -2.00 L55.00 -3.00 " />
<path stroke="#000000" stroke-opacity="1.000000" stroke-width="0.000000" fill="#000000" fill-opacity="1.000000" d="M60.00 0.00 L61.00 0.00 L61.00 -1.00 L60.00 -1.00 L60.00 0.00 " />
<path stroke="#000000" stroke-opacity="1.000000" stroke-width="0.000000" fill="#000000" fill-opacity="1.000000" d="M62.00 0.00 L63.00 0.00 L63.00 -1.00 L62.00 -1.00 L62.00 0.00 " />
<path stroke="#000000" stroke-opacity="1.000000" stroke-width="0.000000" fill="#000000" fill-opacity="1.000000" d="M63.00 -2.00 L63.00 -3.00 L62.00 -3.00 L62.00 -2.00 L63.00 -2.00 " />
<path stroke="#000000" stroke-opacity="1.000000" stroke-width="0.000000" fill="#000000" fill-opacity="1.000000" d="M61.00 -3.00 L60.00 -3.00 L60.00 -2.00 L61.00 -2.00 L61.00 -3.00 " />
<path stroke="#000000" stroke-opacity="1.000000" stroke-width="0.000000" fill="#000000" fill-opacity="1.000000" d="M63.00 -6.00 L63.00 -7.00 L62.00 -7.00 L62.00 -6.00 L63.00 -6.00 " />
<path stroke="#000000" stroke-opacity="1.000000" stroke-width="0.000000" fill="#000000" fill-opacity="1.000000" d="M63.00 -8.00 L63.00 -9.00 L62.00 -9.00 L62.00 -8.00 L63.00 -8.00 " />
<path stroke="#000000" stroke-opacity="1.000000" stroke-width="0.000000" fill="#000000" fill-opacity="1.000000" d="M61.00 -9.00 L60.00 -9.00 L60.00 -8.00 L61.00 -8.00 L61.00 -9.00 " />
<path stroke="#000000" stroke-opacity="1.000000" stroke-width="0.000000" fill="#000000" fill-opacity="1.000000" d="M60.00 -7.00 L60.00 -6.00 L61.00 -6.00 L61.00 -7.00 L60.00 -7.00 " />
<path stroke="#000000" stroke-opacity="1.000000" stroke-width="0.000000" fill="#000000" fill-opacity="1.000000" d="M57.00 -9.00 L56.00 -9.00 L56.00 -8.00 L57.00 -8.00 L57.00 -9.00 " />
<path stroke="#000000" stroke-opacity="1.000000" stroke-width="0.000000" fill="#000000" fill-opacity="1.000000" d="M55.00 -9.00 L54.00 -9.00 L54.00 -8.00 L55.00 -8.00 L55.00 -9.00 " />
<path stroke="#000000" stroke-opacity="1.000000" stroke-width="0.000000" fill="#000000" fill-opacity="1.000000" d="M54.00 -7.00 L54.00 -6.00 L55.00 -6.00 L55.00 -7.00 L54.00 -7.00 " />
<path stroke="#000000" stroke-opacity="1.000000" stroke-width="0.000000" fill="#000000" fill-opacity="1.000000" d="M56.00 -6.00 L57.00 -6.00 L57.00 -7.00 L56.00 -7.00 L56.00 -6.00 " />
<path stroke="#000000" stroke-opacity="1.000000" stroke-width="0.000000" fill="#000000" fill-opacity="1.000000" d="M72.00 0.00 L73.00 0.00 L73.00 -1.00 L72.00 -1.00 L72.00 0.00 " />
<path stroke="#000000" stroke-opacity="1.000000" stroke-width="0.000000" fill="#000000" fill-opacity="1.000000" d="M74.00 0.00 L75.00 0.00 L75.00 -1.00 L74.00 -1.00 L74.00 0.00 " />
<path stroke="#000000" stroke-opacity="1.000000" stroke-width="0.000000" fill="#000000" fill-opacity="1.000000" d="M75.00 -2.00 L75.00 -3.00 L74.00 -3.00 L74.00 -2.00 L75.00 -2.00 " />
<path stroke="#000000" stroke-opacity="1.000000" stroke-width="0.000000" fill="#000000" fill-opacity="1.000000" d="M73.00 -3.00 L72.00 -3.00 L72.00 -2.00 L73.00 -2.00 L73.00 -3.00 " />
<path stroke="#000000" stroke-opacity="1.000000" stroke-width="0.000000" fill="#000000" fill-opacity="1.000000" d="M78.00 0.00 L79.00 0.00 L79.00 -1.00 L78.00 -1.00 L78.00 0.00 " />
<path stroke="#000000" stroke-opacity="1.000000" stroke-width="0.000000" fill="#000000" fill-opacity="1.000000" d="M80.00 0.00 L81.00 0.00 L81.00 -1.00 L80.00 -1.00 L80.00 0.00 " />
<path stroke="#000000" stroke-opacity="1.000000" stroke-width="0.000000" fill="#000000" fill-opacity="1.000000" d="M81.00 -2.00 L81.00 -3.00 L80.00 -3.00 L80.00 -2.00 L81.00 -2.00 " />
<path stroke="#000000" stroke-opacity="1.000000" stroke-width="0.000000" fill="#000000" fill-opacity="1.000000" d="M79.00 -3.00 L78.00 -3.00 L78.00 -2.00 L79.00 -2.00 L79.00 -3.00 " />
<path stroke="#000000" stroke-opacity="1.000000" stroke-width="0.000000" fill="#000000" fill-opacity="1.000000" d="M81.00 -6.00 L81.00 -7.00 L80.00 -7.00 L80.00 -6.00 L81.00 -6.00 " />
<path stroke="#000000" stroke-opacity="1.000000" stroke-width="0.000000" fill="#000000" fill-opacity="1.000000" d="M81.00 -8.00 L81.00 -9.00 L80.00 -9.00 L80.00 -8.00 L81.00 -8.00 " />
<path stroke="#000000" stroke-opacity="1.000000" stroke-width="0.000000" fill="#000000" fill-opacity="1.000000" d="M79.00 -9.00 L78.00 -9.00 L78.00 -8.00 L79.00 -8.00 L79.00 -9.00 " />
<path stroke="#000000" stroke-opacity="1.000000" stroke-width="0.000000" fill="#000000" fill-opacity="1.000000" d="M78.00 -7.00 L78.00 -6.00 L79.00 -6.00 L79.00 -7.00 L78.00 -7.00 " />
<path stroke="#000000" stroke-opacity="1.000000" stroke-width="0.000000" fill="#000000" fill-opacity="1.000000" d="M75.00 -9.00 L74.00 -9.00 L74.00 -8.00 L75.00 -8.00 L75.00 -9.00 " />
<path stroke="#000000" stroke-opacity="1.000000" stroke-width="0.000000" fill="#000000" fill-opacity="1.000000" d="M73.00 -9.00 L72.00 -9.00 L72.00 -8.00 L73.00 -8.00 L73.00 -9.00 " />
<path stroke="#000000" stroke-opacity="1.000000" stroke-width="0.000000" fill="#000000" fill-opacity="1.000000" d="M72.00 -7.00 L72.00 -6.00 L73.00 -6.00 L73.00 -7.00 L72.00 -7.00 " />
<path stroke="#000000" stroke-opacity="1.000000" stroke-width="0.000000" fill="#000000" fill-opacity="1.000000" d="M74.00 -6.00 L75.00 -6.00 L75.00 -7.00 L74.00 -7.00 L74.00 -6.00 " />
<path stroke="#000000" stroke-opacity="1.000000" stroke-width="0.000000" fill="#000000" fill-opacity="1.000000" d="M81.00 -18.00 L81.00 -19.00 L80.00 -19.00 L80.00 -18.00 L81.00 -18.00 " />
<path stroke="#000000" stroke-opacity="1.000000" stroke-width="0.000000" fill="#000000" fill-opacity="1.000000" d="M81.00 -20.00 L81.00 -21.00 L80.00 -21.00 L80.00 -20.00 L81.00 -20.00 " />
<path stroke="#000000" stroke-opacity="1.000000" stroke-width="0.000000" fill="#000000" fill-opacity="1.000000" d="M79.00 -21.00 L78.00 -21.00 L78.00 -20.00 L79.00 -20.00 L79.00 -21.00 " />
<path stroke="#000000" stroke-opacity="1.000000" stroke-width="0.000000" fill="#000000" fill-opacity="1.000000" d="M78.00 -19.00 L78.00 -18.00 L79.00 -18.00 L79.00 -19.00 L78.00 -19.00 " />
<path stroke="#000000" stroke-opacity="1.000000" stroke-width="0.000000" fill="#000000" fill-opacity="1.000000" d="M81.00 -24.00 L81.00 -25.00 L80.00 -25.00 L80.00 -24.00 L81.00 -24.00 " />
<path stroke="#000000" stroke-opacity="1.000000" stroke-width="0.000000" fill="#000000" fill-opacity="1.000000" d="M81.00 -26.00 L81.00 -27.00 L80.00 -27.00 L80.00 -26.00 L81.00 -26.00 " />
<path stroke="#000000" stroke-opacity="1.000000" stroke-width="0.000000" fill="#000000" fill-opacity="1.000000" d="M79.00 -27.00 L78.00 -27.00 L78.00 -26.00 L79.00 -26.00 L79.00 -27.00 " />
<path stroke="#000000" stroke-opacity="1.000000" stroke-width="0.000000" fill="#000000" fill-opacity="1.000000" d="M78.00 -25.00 L78.00 -24.00 L79.00 -24.00 L79.00 -25.00 L78.00 -25.00 " />
<path stroke="#000000" stroke-opacity="1.000000" stroke-width="0.000000" fill="#000000" fill-opacity="1.000000" d="M75.00 -27.00 L74.00 -27.00 L74.00 -26.00 L75.00 -26.00 L75.00 -27.00 " />
<path stroke="#000000" stroke-opacity="1.000000" stroke-width="0.000000" fill="#000000" fill-opacity="1.000000" d="M73.00 -27.00 L72.00 -27.00 L72.00 -26.00 L73.00 -26.00 L73.00 -27.00 " />
<path stroke="#000000" stroke-opacity="1.000000" stroke-width="0.000000" fill="#000000" fill-opacity="1.000000" d="M72.00 -25.00 L72.00 -24.00 L73.00 -24.00 L73.00 -25.00 L72.00 -25.00 " />
<path stroke="#000000" stroke-opacity="1.000000" stroke-width="0.000000" fill="#000000" fill-opacity="1.000000" d="M74.00 -24.00 L75.00 -24.00 L75.00 -25.00 L74.00 -25.00 L74.00 -24.00 " />
<path stroke="#000000" stroke-opacity="1.000000" stroke-width="0.000000" fill="#000000" fill-opacity="1.000000" d="M72.00 -21.00 L72.00 -20.00 L73.00 -20.00 L73.00 -21.00 L72.00 -21.00 " />
<path stroke="#000000" stroke-opacity="1.000000" stroke-width="0.000000" fill="#000000" fill-opacity="1.000000" d="M72.00 -19.00 L72.00 -18.00 L73.00 -18.00 L73.00 -19.00 L72.00 -19.00 " />
<path stroke="#000000" stroke-opacity="1.000000" stroke-width="0.000000" fill="#000000" fill-opacity="1.000000" d="M74.00 -18.00 L75.00 -18.00 L75.00 -19.00 L74.00 -19.00 L74.00 -18.00 " />
<path stroke="#000000" stroke-opacity="1.000000" stroke-width="0.000000" fill="#000000" fill-opacity="1.000000" d="M75.00 -20.00 L75.00 -21.00 L74.00 -21.00 L74.00 -20.00 L75.00 -20.00 " />
<path stroke="#000000" stroke-opacity="1.000000" stroke-width="0.000000" fill="#000000" fill-opacity="1.000000" d="M63.00 -27.00 L62.00 -27.00 L62.00 -26.00 L63.00 -26.00 L63.00 -27.00 " />
<path stroke="#000000" stroke-opacity="1.000000" stroke-width="0.000000" fill="#000000" fill-opacity="1.000000" d="M61.00 -27.00 L60.00 -27.00 L60.00 -26.00 L61.00 -26.00 L61.00 -27.00 " />
<path stroke="#000000" stroke-opacity="1.000000" stroke-width="0.000000" fill="#000000" fill-opacity="1.000000" d="M60.00 -25.00 L60.00 -24.00 L61.00 -24.00 L61.00 -25.00 L60.00 -25.00 " />
<path stroke="#000000" stroke-opacity="1.000000" stroke-width="0.000000" fill="#000000" fill-opacity="1.000000" d="M62.00 -24.00 L63.00 -24.00 L63.00 -25.00 L62.00 -25.00 L62.00 -24.00 " />
<path stroke="#000000" stroke-opacity="1.000000" stroke-width="0.000000" fill="#000000" fill-opacity="1.000000" d="M57.00 -27.00 L56.00 -27.00 L56.00 -26.00 L57.00 -26.00 L57.00 -27.00 " />
<path stroke="#000000" stroke-opacity="1.000000" stroke-width="0.000000" fill="#000000" fill-opacity="1.000000" d="M55.00 -27.00 L54.00 -27.00 L54.00 -26.00 L55.00 -26.00 L55.00 -27.00 " />
<path stroke="#000000" stroke-opacity="1.000000" stroke-width="0.000000" fill="#000000" fill-opacity="1.000000" d="M54.00 -25.00 L54.00 -24.00 L55.00 -24.00 L55.00 -25.00 L54.00 -25.00 " />
<path stroke="#000000" stroke-opacity="1.000000" stroke-width="0.000000" fill="#000000" fill-opacity="1.000000" d="M56.00 -24.00 L57.00 -24.00 L57.00 -25.00 L56.00 -25.00 L56.00 -24.00 " />
<path stroke="#000000" stroke-opacity="1.000000" stroke-width="0.000000" fill="#000000" fill-opacity="1.000000" d="M54.00 -21.00 L54.00 -20.00 L55.00 -20.00 L55.00 -21.00 L54.00 -21.00 " />
<path stroke="#000000" stroke-opacity="1.000000" stroke-width="0.000000" fill="#000000" fill-opacity="1.000000" d="M54.00 -19.00 L54.00 -18.00 L55.00 -18.00 L55.00 -19.00 L54.00 -19.00 " />
<path stroke="#000000" stroke-opacity="1.000000" stroke-width="0.000000" fill="#000000" fill-opacity="1.000000" d="M56.00 -18.00 L57.00 -18.00 L57.00 -19.00 L56.00 -19.00 L56.00 -18.00 " />
<path stroke="#000000" stroke-opacity="1.000000" stroke-width="0.000000" fill="#000000" fill-opacity="1.000000" d="M57.00 -20.00 L57.00 -21.00 L56.00 -21.00 L56.00 -20.00 L57.00 -20.00 " />
<path stroke="#000000" stroke-opacity="1.000000" stroke-width="0.000000" fill="#000000" fill-opacity="1.000000" d="M60.00 -18.00 L61.00 -18.00 L61.00 -19.00 L60.00 -19.00 L60.00 -18.00 " />
<path stroke="#000000" stroke-opacity="1.000000" stroke-width="0.000000" fill="#000000" fill-opacity="1.000000" d="M62.00 -18.00 L63.00 -18.00 L63.00 -19.00 L62.00 -19.00 L62.00 -18.00 " />
<path stroke="#000000" stroke-opacity="1.000000" stroke-width="0.000000" fill="#000000" fill-opacity="1.000000" d="M63.00 -20.00 L63.00 -21.00 L62.00 -21.00 L62.00 -20.00 L63.00 -20.00 " />
<path stroke="#000000" stroke-opacity="1.000000" stroke-width="0.000000" fill="#000000" fill-opacity="1.000000" d="M61.00 -21.00 L60.00 -21.00 L60.00 -20.00 L61.00 -20.00 L61.00 -21.00 " />
<path stroke="#000000" stroke-opacity="1.000000" stroke-width="0.000000" fill="#000000" fill-opacity="1.000000" d="M81.00 -54.00 L81.00 -55.00 L80.00 -55.00 L80.00 -54.00 L81.00 -54.00 " />
<path stroke="#000000" stroke-opacity="1.000000" stroke-width="0.000000" fill="#000000" fill-opacity="1.000000" d="M81.00 -56.00 L81.00 -57.00 L80.00 -57.00 L80.00 -56.00 L81.00 -56.00 " />
<path stroke="#000000" stroke-opacity="1.000000" stroke-width="0.000000" fill="#000000" fill-opacity="1.000000" d="M79.00 -57.00 L78.00 -57.00 L78.00 -56.00 L79.00 -56.00 L79.00 -57.00 " />
<path stroke="#000000" stroke-opacity="1.000000" stroke-width="0.000000" fill="#000000" fill-opacity="1.000000" d="M78.00 -55.00 L78.00 -54.00 L79.00 -54.00 L79.00 -55.00 L78.00 -55.00 " />
<path stroke="#000000" stroke-opacity="1.000000" stroke-width="0.000000" fill="#000000" fill-opacity="1.000000" d="M81.00 -60.00 L81.00 -61.00 L80.00 -61.00 L80.00 -60.00 L81.00 -60.00 " />
<path stroke="#000000" stroke-opacity="1.000000" stroke-width="0.000000" fill="#000000" fill-opacity="1.000000" d="M81.00 -62.00 L81.00 -63.00 L80.00 -63.00 L80.00 -62.00 L81.00 -62.00 " />
<path stroke="#000000" stroke-opacity="1.000000" stroke-width="0.000000" fill="#000000" fill-opacity="1.000000" d="M79.00 -63.00 L78.00 -63.00 L78.00 -62.00 L79.00 -62.00 L79.00 -63.00 " />
<path stroke="#000000" stroke-opacity="1.000000" stroke-width="0.000000" fill="#000000" fill-opacity="1.000000" d="M78.00 -61.00 L78.00 -60.00 L79.00 -60.00 L79.00 -61.00 L78.00 -61.00 " />
<path stroke="#000000" stroke-opacity="1.000000" stroke-width="0.000000" fill="#000000" fill-opacity="1.000000" d="M75.00 -63.00 L74.00 -63.00 L74.00 -62.00 L75.00 -62.00 L75.00 -63.00 " />
<path stroke="#000000" stroke-opacity="1.000000" stroke-width="0.000000" fill="#000000" fill-opacity="1.000000" d="M73.00 -63.00 L72.00 -63.00 L72.00 -62.00 L73.00 -62.00 L73.00 -63.00 " />
<path stroke="#000000" stroke-opacity="1.000000" stroke-width="0.000000" fill="#000000" fill-opacity="1.000000" d="M72.00 -61.00 L72.00 -60.00 L73.00 -60.00 L73.00 -61.00 L72.00 -61.00 " />
<path stroke="#000000" stroke-opacity="1.000000" stroke-width="0.000000" fill="#000000" fill-opacity="1.000000" d="M74.00 -60.00 L75.00 -60.00 L75.00 -61.00 L74.00 -61.00 L74.00 -60.00 " />
<path stroke="#000000" stroke-opacity="1.000000" stroke-width="0.000000" fill="#000000" fill-opacity="1.000000" d="M72.00 -57.00 L72.00 -56.00 L73.00 -56.00 L73.00 -57.00 L72.00 -57.00 " />
<path stroke="#000000" stroke-opacity="1.000000" stroke-width="0.000000" fill="#000000" fill-opacity="1.000000" d="M72.00 -55.00 L72.00 -54.00 L73.00 -54.00 L73.00 -55.00 L72.00 -55.00 " />
<path stroke="#000000" stroke-opacity="1.000000" stroke-width="0.000000" fill="#000000" fill-opacity="1.000000" d="M74.00 -54.00 L75.00 -54.00 L75.00 -55.00 L74.00 -55.00 L74.00 -54.00 " />
<path stroke="#000000" stroke-opacity="1.000000" stroke-width="0.000000" fill="#000000" fill-opacity="1.000000" d="M75.00 -56.00 L75.00 -57.00 L74.00 -57.00 L74.00 -56.00 L75.00 -56.00 " />
<path stroke="#000000" stroke-opacity="1.000000" stroke-width="0.000000" fill="#000000" fill-opacity="1.000000" d="M81.00 -72.00 L81.00 -73.00 L80.00 -73.00 L80.00 -72.00 L81.00 -72.00 " />
<path stroke="#000000" stroke-opacity="1.000000" stroke-width="0.000000" fill="#000000" fill-opacity="1.000000" d="M81.00 -74.00 L81.00 -75.00 L80.00 -75.00 L80.00 -74.00 L81.00 -74.00 " />
<path stroke="#000000" stroke-opacity="1.000000" stroke-width="0.000000" fill="#000000" fill-opacity="1.000000" d="M79.00 -75.00 L78.00 -75.00 L78.00 -74.00 L79.00 -74.00 L79.00 -75.00 " />
<path stroke="#000000" stroke-opacity="1.000000" stroke-width="0.000000" fill="#000000" fill-opacity="1.000000" d="M78.00 -73.00 L78.00 -72.00 L79.00 -72.00 L79.00 -73.00 L78.00 -73.00 " />
<path stroke="#000000" stroke-opacity="1.000000" stroke-width="0.000000" fill="#000000" fill-opacity="1.000000" d="M81.00 -78.00 L81.00 -79.00 L80.00 -79.00 L80.00 -78.00 L81.00 -78.00 " />
<path stroke="#000000" stroke-opacity="1.000000" stroke-width="0.000000" fill="#000000" fill-opacity="1.000000" d="M81.00 -80.00 L81.00 -81.00 L80.00 -81.00 L80.00 -80.00 L81.00 -80.00 " />
<path stroke="#000000" stroke-opacity="1.000000" stroke-width="0.000000" fill="#000000" fill-opacity="1.000000" d="M79.00 -81.00 L78.00 -81.00 L78.00 -80.00 L79.00 -80.00 L79.00 -81.00 " />
<path stroke="#000000" stroke-opacity="1.000000" stroke-width="0.000000" fill="#000000" fill-opacity="1.000000" d="M78.00 -79.00 L78.00 -78.00 L79.00 -78.00 L79.00 -79.00 L78.00 -79.00 " />
<path stroke="#000000" stroke-opacity="1.000000" stroke-width="0.000000" fill="#000000" fill-opacity="1.000000" d="M75.00 -81.00 L74.00 -81.00 L74.00 -80.00 L75.00 -80.00 L75.00 -81.00 " />
<path stroke="#000000" stroke-opacity="1.000000" stroke-width="0.000000" fill="#000000" fill-opacity="1.000000" d="M73.00 -81.00 L72.00 -81.00 L72.00 -80.00 L73.00 -80.00 L73.00 -81.00 " />
<path stroke="#000000" stroke-opacity="1.000000" stroke-width="0.000000" fill="#000000" fill-opacity="1.000000" d="M72.00 -79.00 L72.00 -78.00 L73.00 -78.00 L73.00 -79.00 L72.00 -79.00 " />
<path stroke="#000000" stroke-opacity="1.000000" stroke-width="0.000000" fill="#000000" fill-opacity="1.000000" d="M74.00 -78.00 L75.00 -78.00 L75.00 -79.00 L74.00 -79.00 L74.00 -78.00 " />
<path stroke="#000000" stroke-opacity="1.000000" stroke-width="0.000000" fill="#000000" fill-opacity="1.000000" d="M72.00 -75.00 L72.00 -74.00 L73.00 -74.00 L73.00 -75.00 L72.00 -75.00 " />
<path stroke="#000000" stroke-opacity="1.000000" stroke-width="0.000000" fill="#000000" fill-opacity="1.000000" d="M72.00 -73.00 L72.00 -72.00 L73.00 -72.00 L73.00 -73.00 L72.00 -73.00 " />
<path stroke="#000000" stroke-opacity="1.000000" stroke-width="0.000000" fill="#000000" fill-opacity="1.000000" d="M74.00 -72.00 L75.00 -72.00 L75.00 -73.00 L74.00 -73.00 L74.00 -72.00 " />
<path stroke="#000000" stroke-opacity="1.000000" stroke-width="0.000000" fill="#000000" fill-opacity="1.000000" d="M75.00 -74.00 L75.00 -75.00 L74.00 -75.00 L74.00 -74.00 L75.00 -74.00 " />
<path stroke="#000000" stroke-opacity="1.000000" stroke-width="0.000000" fill="#000000" fill-opacity="1.000000" d="M63.00 -81.00 L62.00 -81.00 L62.00 -80.00 L63.00 -80.00 L63.00 -81.00 " />
<path stroke="#000000" stroke-opacity="1.000000" stroke-width="0.000000" fill="#000000" fill-opacity="1.000000" d="M61.00 -81.00 L60.00 -81.00 L60.00 -80.00 L61.00 -80.00 L61.00 -81.00 " />
<path stroke="#000000" stroke-opacity="1.000000" stroke-width="0.000000" fill="#000000" fill-opacity="1.000000" d="M60.00 -79.00 L60.00 -78.00 L61.00 -78.00 L61.00 -79.00 L60.00 -79.00 " />
<path stroke="#000000" stroke-opacity="1.000000" stroke-width="0.000000" fill="#000000" fill-opacity="1.000000" d="M62.00 -78.00 L63.00 -78.00 L63.00 -79.00 L62.00 -79.00 L62.00 -78.00 " />
<path stroke="#000000" stroke-opacity="1.000000" stroke-width="0.000000" fill="#000000" fill-opacity="1.000000" d="M57.00 -81.00 L56.00 -81.00 L56.00 -80.00 L57.00 -80.00 L57.00 -81.00 " />
<path stroke="#000000" stroke-opacity="1.000000" stroke-width="0.000000" fill="#000000" fill-opacity="1.000000" d="M55.00 -81.00 L54.00 -81.00 L54.00 -80.00 L55.00 -80.00 L55.00 -81.00 " />
<path stroke="#000000" stroke-opacity="1.000000" stroke-width="0.000000" fill="#000000" fill-opacity="1.000000" d="M54.00 -79.00 L54.00 -78.00 L55.00 -78.00 L55.00 -79.00 L54.00 -79.00 " />
<path stroke="#000000" stroke-opacity="1.000000" stroke-width="0.000000" fill="#000000" fill-opacity="1.000000" d="M56.00 -78.00 L57.00 -78.00 L57.00 -79.00 L56.00 -79.00 L56.00 -78.00 " />
<path stroke="#000000" stroke-opacity="1.000000" stroke-width="0.000000" fill="#000000" fill-opacity="1.000000" d="M54.00 -75.00 L54.00 -74.00 L55.00 -74.00 L55.00 -75.00 L54.00 -75.00 " />
<path stroke="#000000" stroke-opacity="1.000000" stroke-width="0.000000" fill="#000000" fill-opacity="1.000000" d="M54.00 -73.00 L54.00 -72.00 L55.00 -72.00 L55.00 -73.00 L54.00 -73.00 " />
<path stroke="#000000" stroke-opacity="1.000000" stroke-width="0.000000" fill="#000000" fill-opacity="1.000000" d="M56.00 -72.00 L57.00 -72.00 L57.00 -73.00 L56.00 -73.00 L56.00 -72.00 " />
<path stroke="#000000" stroke-opacity="1.000000" stroke-width="0.000000" fill="#000000" fill-opacity="1.000000" d="M57.00 -74.00 L57.00 -75.00 L56.00 -75.00 L56.00 -74.00 L57.00 -74.00 " />
<path stroke="#000000" stroke-opacity="1.000000" stroke-width="0.000000" fill="#000000" fill-opacity="1.000000" d="M60.00 -72.00 L61.00 -72.00 L61.00 -73.00 L60.00 -73.00 L60.00 -72.00 " />
<path stroke="#000000" stroke-opacity="1.000000" stroke-width="0.000000" fill="#000000" fill-opacity="1.000000" d="M62.00 -72.00 L63.00 -72.00 L63.00 -73.00 L62.00 -73.00 L62.00 -72.00 " />
<path stroke="#000000" stroke-opacity="1.000000" stroke-width="0.000000" fill="#000000" fill-opacity="1.000000" d="M63.00 -74.00 L63.00 -75.00 L62.00 -75.00 L62.00 -74.00 L63.00 -74.00 " />
<path stroke="#000000" stroke-opacity="1.000000" stroke-width="0.000000" fill="#000000" fill-opacity="1.000000" d="M61.00 -75.00 L60.00 -75.00 L60.00 -74.00 L61.00 -74.00 L61.00 -75.00 " />
<path stroke="#000000" stroke-opacity="1.000000" stroke-width="0.000000" fill="#000000" fill-opacity="1.000000" d="M54.00 -63.00 L54.00 -62.00 L55.00 -62.00 L55.00 -63.00 L54.00 -63.00 " />
<path stroke="#000000" stroke-opacity="1.000000" stroke-width="0.000000" fill="#000000" fill-opacity="1.000000" d="M54.00 -61.00 L54.00 -60.00 L55.00 -60.00 L55.00 -61.00 L54.00 -61.00 " />
<path stroke="#000000" stroke-opacity="1.000000" stroke-width="0.000000" fill="#000000" fill-opacity="1.000000" d="M56.00 -60.00 L57.00 -60.00 L57.00 -61.00 L56.00 -61.00 L56.00 -60.00 " />
<path stroke="#000000" stroke-opacity="1.000000" stroke-width="0.000000" fill="#000000" fill-opacity="1.000000" d="M57.00 -62.00 L57.00 -63.00 L56.00 -63.00 L56.00 -62.00 L57.00 -62.00 " />
<path stroke="#000000" stroke-opacity="1.000000" stroke-width="0.000000" fill="#000000" fill-opacity="1.000000" d="M54.00 -57.00 L54.00 -56.00 L55.00 -56.00 L55.00 -57.00 L54.00 -57.00 " />
<path stroke="#000000" stroke-opacity="1.000000" stroke-width="0.000000" fill="#000000" fill-opacity="1.000000" d="M54.00 -55.00 L54.00 -54.00 L55.00 -54.00 L55.00 -55.00 L54.00 -55.00 " />
<path stroke="#000000" stroke-opacity="1.000000" stroke-width="0.000000" fill="#000000" fill-opacity="1.000000" d="M56.00 -54.00 L57.00 -54.00 L57.00 -55.00 L56.00 -55.00 L56.00 -54.00 " />
<path stroke="#000000" stroke-opacity="1.000000" stroke-width="0.000000" fill="#000000" fill-opacity="1.000000" d="M57.00 -56.00 L57.00 -57.00 L56.00 -57.00 L56.00 -56.00 L57.00 -56.00 " />
<path stroke="#000000" stroke-opacity="1.000000" stroke-width="0.000000" fill="#000000" fill-opacity="1.000000" d="M60.00 -54.00 L61.00 -54.00 L61.00 -55.00 L60.00 -55.00 L60.00 -54.00 " />
<path stroke="#000000" stroke-opacity="1.000000" stroke-width="0.000000" fill="#000000" fill-opacity="1.000000" d="M62.00 -54.00 L63.00 -54.00 L63.00 -55.00 L62.00 -55.00 L62.00 -54.00 " />
<path stroke="#000000" stroke-opacity="1.000000" stroke-width="0.000000" fill="#000000" fill-opacity="1.000000" d="M63.00 -56.00 L63.00 -57.00 L62.00 -57.00 L62.00 -56.00 L63.00 -56.00 " />
<path stroke="#000000" stroke-opacity="1.000000" stroke-width="0.000000" fill="#000000" fill-opacity="1.000000" d="M61.00 -57.00 L60.00 -57.00 L60.00 -56.00 L61.00 -56.00 L61.00 -57.00 " />
<path stroke="#000000" stroke-opacity="1.000000" stroke-width="0.000000" fill="#000000" fill-opacity="1.000000" d="M63.00 -60.00 L63.00 -61.00 L62.00 -61.00 L62.00 -60.00 L63.00 -60.00 " />
<path stroke="#000000" stroke-opacity="1.000000" stroke-width="0.000000" fill="#000000" fill-opacity="1.000000" d="M63.00 -62.00 L63.00 -63.00 L62.00 -63.00 L62.00 -62.00 L63.00 -62.00 " />
<path stroke="#000000" stroke-opacity="1.000000" stroke-width="0.000000" fill="#000000" fill-opacity="1.000000" d="M61.00 -63.00 L60.00 -63.00 L60.00 -62.00 L61.00 -62.00 L61.00 -63.00 " />
<path stroke="#000000" stroke-opacity="1.000000" stroke-width="0.000000" fill="#000000" fill-opacity="1.000000" d="M60.00 -61.00 L60.00 -60.00 L61.00 -60.00 L61.00 -61.00 L60.00 -61.00 " />
<path stroke="#000000" stroke-opacity="1.000000" stroke-width="0.000000" fill="#000000" fill-opacity="1.000000" d="M27.00 -81.00 L26.00 -81.00 L26.00 -80.00 L27.00 -80.00 L27.00 -81.00 " />
<path stroke="#000000" stroke-opacity="1.000000" stroke-width="0.000000" fill="#000000" fill-opacity="1.000000" d="M25.00 -81.00 L24.00 -81.00 L24.00 -80.00 L25.00 -80.00 L25.00 -81.00 " />
<path stroke="#000000" stroke-opacity="1.000000" stroke-width="0.000000" fill="#000000" fill-opacity="1.000000" d="M24.00 -79.00 L24.00 -78.00 L25.00 -78.00 L25.00 -79.00 L24.00 -79.00 " />
<path stroke="#000000" stroke-opacity="1.000000" stroke-width="0.000000" fill="#000000" fill-opacity="1.000000" d="M26.00 -78.00 L27.00 -78.00 L27.00 -79.00 L26.00 -79.00 L26.00 -78.00 " />
<path stroke="#000000" stroke-opacity="1.000000" stroke-width="0.000000" fill="#000000" fill-opacity="1.000000" d="M21.00 -81.00 L20.00 -81.00 L20.00 -80.00 L21.00 -80.00 L21.00 -81.00 " />
<path stroke="#000000" stroke-opacity="1.000000" stroke-width="0.000000" fill="#000000" fill-opacity="1.000000" d="M19.00 -81.00 L18.00 -81.00 L18.00 -80.00 L19.00 -80.00 L19.00 -81.00 " />
<path stroke="#000000" stroke-opacity="1.000000" stroke-width="0.000000" fill="#000000" fill-opacity="1.000000" d="M18.00 -79.00 L18.00 -78.00 L19.00 -78.00 L19.00 -79.00 L18.00 -79.00 " />
<path stroke="#000000" stroke-opacity="1.000000" stroke-width="0.000000" fill="#000000" fill-opacity="1.000000" d="M20.00 -78.00 L21.00 -78.00 L21.00 -79.00 L20.00 -79.00 L20.00 -78.00 " />
<path stroke="#000000" stroke-opacity="1.000000" stroke-width="0.000000" fill="#000000" fill-opacity="1.000000" d="M18.00 -75.00 L18.00 -74.00 L19.00 -74.00 L19.00 -75.00 L18.00 -75.00 " />
<path stroke="#000000" stroke-opacity="1.000000" stroke-width="0.000000" fill="#000000" fill-opacity="1.000000" d="M18.00 -73.00 L18.00 -72.00 L19.00 -72.00 L19.00 -73.00 L18.00 -73.00 " />
<path stroke="#000000" stroke-opacity="1.000000" stroke-width="0.000000" fill="#000000" fill-opacity="1.000000" d="M20.00 -72.00 L21.00 -72.00 L21.00 -73.00 L20.00 -73.00 L20.00 -72.00 " />
<path stroke="#000000" stroke-opacity="1.000000" stroke-width="0.000000" fill="#000000" fill-opacity="1.000000" d="M21.00 -74.00 L21.00 -75.00 L20.00 -75.00 L20.00 -74.00 L21.00 -74.00 " />
<path stroke="#000000" stroke-opacity="1.000000" stroke-width="0.000000" fill="#000000" fill-opacity="1.000000" d="M24.00 -72.00 L25.00 -72.00 L25.00 -73.00 L24.00 -73.00 L24.00 -72.00 " />
<path stroke="#000000" stroke-opacity="1.000000" stroke-width="0.000000" fill="#000000" fill-opacity="1.000000" d="M26.00 -72.00 L27.00 -72.00 L27.00 -73.00 L26.00 -73.00 L26.00 -72.00 " />
<path stroke="#000000" stroke-opacity="1.000000" stroke-width="0.000000" fill="#000000" fill-opacity="1.000000" d="M27.00 -74.00 L27.00 -75.00 L26.00 -75.00 L26.00 -74.00 L27.00 -74.00 " />
<path stroke="#000000" stroke-opacity="1.000000" stroke-width="0.000000" fill="#000000" fill-opacity="1.000000" d="M25.00 -75.00 L24.00 -75.00 L24.00 -74.00 L25.00 -74.00 L25.00 -75.00 " />
<path stroke="#000000" stroke-opacity="1.000000" stroke-width="0.000000" fill="#000000" fill-opacity="1.000000" d="M9.00 -81.00 L8.00 -81.00 L8.00 -80.00 L9.00 -80.00 L9.00 -81.00 " />
<path stroke="#000000" stroke-opacity="1.000000" stroke-width="0.000000" fill="#000000" fill-opacity="1.000000" d="M7.00 -81.00 L6.00 -81.00 L6.00 -80.00 L7.00 -80.00 L7.00 -81.00 " />
<path stroke="#000000" stroke-opacity="1.000000" stroke-width="0.000000" fill="#000000" fill-opacity="1.000000" d="M6.00 -79.00 L6.00 -78.00 L7.00 -78.00 L7.00 -79.00 L6.00 -79.00 " />
<path stroke="#000000" stroke-opacity="1.000000" stroke-width="0.000000" fill="#000000" fill-opacity="1.000000" d="M8.00 -78.00 L9.00 -78.00 L9.00 -79.00 L8.00 -79.00 L8.00 -78.00 " />
<path stroke="#000000" stroke-opacity="1.000000" stroke-width="0.000000" fill="#000000" fill-opacity="1.000000" d="M3.00 -81.00 L2.00 -81.00 L2.00 -80.00 L3.00 -80.00 L3.00 -81.00 " />
<path stroke="#000000" stroke-opacity="1.000000" stroke-width="0.000000" fill="#000000" fill-opacity="1.000000" d="M1.00 -81.00 L0.00 -81.00 L-0.00 -80.00 L1.00 -80.00 L1.00 -81.00 " />
<path stroke="#000000" stroke-opacity="1.000000" stroke-width="0.000000" fill="#000000" fill-opacity="1.000000" d="M0.00 -79.00 L0.00 -78.00 L1.00 -78.00 L1.00 -79.00 L0.00 -79.00 " />
<path stroke="#000000" stroke-opacity="1.000000" stroke-width="0.000000" fill="#000000" fill-opacity="1.000000" d="M2.00 -78.00 L3.00 -78.00 L3.00 -79.00 L2.00 -79.00 L2.00 -78.00 " />
<path stroke="#000000" stroke-opacity="1.000000" stroke-width="0.000000" fill="#000000" fill-opacity="1.000000" d="M0.00 -75.00 L0.00 -74.00 L1.00 -74.00 L1.00 -75.00 L0.00 -75.00 " />
<path stroke="#000000" stroke-opacity="1.000000" stroke-width="0.000000" fill="#000000" fill-opacity="1.000000" d="M-0.00 -73.00 L-0.00 -72.00 L1.00 -72.00 L1.00 -73.00 L0.00 -73.00 " />
<path stroke="#000000" stroke-opacity="1.000000" stroke-width="0.000000" fill="#000000" fill-opacity="1.000000" d="M2.00 -72.00 L3.00 -72.00 L3.00 -73.00 L2.00 -73.00 L2.00 -72.00 " />
<path stroke="#000000" stroke-opacity="1.000000" stroke-width="0.000000" fill="#000000" fill-opacity="1.000000" d="M3.00 -74.00 L3.00 -75.00 L2.00 -75.00 L2.00 -74.00 L3.00 -74.00 " />
<path stroke="#000000" stroke-opacity="1.000000" stroke-width="0.000000" fill="#000000" fill-opacity="1.000000" d="M6.00 -72.00 L7.00 -72.00 L7.00 -73.00 L6.00 -73.00 L6.00 -72.00 " />
<path stroke="#000000" stroke-opacity="1.000000" stroke-width="0.000000" fill="#000000" fill-opacity="1.000000" d="M8.00 -72.00 L9.00 -72.00 L9.00 -73.00 L8.00 -73.00 L8.00 -72.00 " />
<path stroke="#000000" stroke-opacity="1.000000" stroke-width="0.000000" fill="#000000" fill-opacity="1.000000" d="M9.00 -74.00 L9.00 -75.00 L8.00 -75.00 L8.00 -74.00 L9.00 -74.00 " />
<path stroke="#000000" stroke-opacity="1.000000" stroke-width="0.000000" fill="#000000" fill-opacity="1.000000" d="M7.00 -75.00 L6.00 -75.00 L6.00 -74.00 L7.00 -74.00 L7.00 -75.00 " />
<path stroke="#000000" stroke-opacity="1.000000" stroke-width="0.000000" fill="#000000" fill-opacity="1.000000" d="M0.00 -63.00 L0.00 -62.00 L1.00 -62.00 L1.00 -63.00 L0.00 -63.00 " />
<path stroke="#000000" stroke-opacity="1.000000" stroke-width="0.000000" fill="#000000" fill-opacity="1.000000" d="M-0.00 -61.00 L-0.00 -60.00 L1.00 -60.00 L1.00 -61.00 L0.00 -61.00 " />
<path stroke="#000000" stroke-opacity="1.000000" stroke-width="0.000000" fill="#000000" fill-opacity="1.000000" d="M2.00 -60.00 L3.00 -60.00 L3.00 -61.00 L2.00 -61.00 L2.00 -60.00 " />
<path stroke="#000000" stroke-opacity="1.000000" stroke-width="0.000000" fill="#000000" fill-opacity="1.000000" d="M3.00 -62.00 L3.00 -63.00 L2.00 -63.00 L2.00 -62.00 L3.00 -62.00 " />
<path stroke="#000000" stroke-opacity="1.000000" stroke-width="0.000000" fill="#000000" fill-opacity="1.000000" d="M-0.00 -57.00 L-0.00 -56.00 L1.00 -56.00 L1.00 -57.00 L0.00 -57.00 " />
<path stroke="#000000" stroke-opacity="1.000000" stroke-width="0.000000" fill="#000000" fill-opacity="1.000000" d="M-0.00 -55.00 L-0.00 -54.00 L1.00 -54.00 L1.00 -55.00 L0.00 -55.00 " />
<path stroke="#000000" stroke-opacity="1.000000" stroke-width="0.000000" fill="#000000" fill-opacity="1.000000" d="M2.00 -54.00 L3.00 -54.00 L3.00 -55.00 L2.00 -55.00 L2.00 -54.00 " />
<path stroke="#000000" stroke-opacity="1.000000" stroke-width="0.000000" fill="#000000" fill-opacity="1.000000" d="M3.00 -56.00 L3.00 -57.00 L2.00 -57.00 L2.00 -56.00 L3.00 -56.00 " />
<path stroke="#000000" stroke-opacity="1.000000" stroke-width="0.000000" fill="#000000" fill-opacity="1.000000" d="M6.00 -54.00 L7.00 -54.00 L7.00 -55.00 L6.00 -55.00 L6.00 -54.00 " />
<path stroke="#000000" stroke-opacity="1.000000" stroke-width="0.000000" fill="#000000" fill-opacity="1.000000" d="M8.00 -54.00 L9.00 -54.00 L9.00 -55.00 L8.00 -55.00 L8.00 -54.00 " />
<path stroke="#000000" stroke-opacity="1.000000" stroke-width="0.000000" fill="#000000" fill-opacity="1.000000" d="M9.00 -56.00 L9.00 -57.00 L8.00 -57.00 L8.00 -56.00 L9.00 -56.00 " />
<path stroke="#000000" stroke-opacity="1.000000" stroke-width="0.000000" fill="#000000" fill-opacity="1.000000" d="M7.00 -57.00 L6.00 -57.00 L6.00 -56.00 L7.00 -56.00 L7.00 -57.00 " />
<path stroke="#000000" stroke-opacity="1.000000" stroke-width="0.000000" fill="#000000" fill-opacity="1.000000" d="M9.00 -60.00 L9.00 -61.00 L8.00 -61.00 L8.00 -60.00 L9.00 -60.00 " />
<path stroke="#000000" stroke-opacity="1.000000" stroke-width="0.000000" fill="#000000" fill-opacity="1.000000" d="M9.00 -62.00 L9.00 -63.00 L8.00 -63.00 L8.00 -62.00 L9.00 -62.00 " />
<path stroke="#000000" stroke-opacity="1.000000" stroke-width="0.000000" fill="#000000" fill-opacity="1.000000" d="M7.00 -63.00 L6.00 -63.00 L6.00 -62.00 L7.00 -62.00 L7.00 -63.00 " />
<path stroke="#000000" stroke-opacity="1.000000" stroke-width="0.000000" fill="#000000" fill-opacity="1.000000" d="M6.00 -61.00 L6.00 -60.00 L7.00 -60.00 L7.00 -61.00 L6.00 -61.00 " />
<path stroke="#000000" stroke-opacity="1.000000" stroke-width="0.000000" fill="#000000" fill-opacity="1.000000" d="M18.00 -54.00 L19.00 -54.00 L19.00 -55.00 L18.00 -55.00 L18.00 -54.00 " />
<path stroke="#000000" stroke-opacity="1.000000" stroke-width="0.000000" fill="#000000" fill-opacity="1.000000" d="M20.00 -54.00 L21.00 -54.00 L21.00 -55.00 L20.00 -55.00 L20.00 -54.00 " />
<path stroke="#000000" stroke-opacity="1.000000" stroke-width="0.000000" fill="#000000" fill-opacity="1.000000" d="M21.00 -56.00 L21.00 -57.00 L20.00 -57.00 L20.00 -56.00 L21.00 -56.00 " />
<path stroke="#000000" stroke-opacity="1.000000" stroke-width="0.000000" fill="#000000" fill-opacity="1.000000" d="M19.00 -57.00 L18.00 -57.00 L18.00 -56.00 L19.00 -56.00 L19.00 -57.00 " />
<path stroke="#000000" stroke-opacity="1.000000" stroke-width="0.000000" fill="#000000" fill-opacity="1.000000" d="M24.00 -54.00 L25.00 -54.00 L25.00 -55.00 L24.00 -55.00 L24.00 -54.00 " />
<path stroke="#000000" stroke-opacity="1.000000" stroke-width="0.000000" fill="#000000" fill-opacity="1.000000" d="M26.00 -54.00 L27.00 -54.00 L27.00 -55.00 L26.00 -55.00 L26.00 -54.00 " />
<path stroke="#000000" stroke-opacity="1.000000" stroke-width="0.000000" fill="#000000" fill-opacity="1.000000" d="M27.00 -56.00 L27.00 -57.00 L26.00 -57.00 L26.00 -56.00 L27.00 -56.00 " />
<path stroke="#000000" stroke-opacity="1.000000" stroke-width="0.000000" fill="#000000" fill-opacity="1.000000" d="M25.00 -57.00 L24.00 -57.00 L24.00 -56.00 L25.00 -56.00 L25.00 -57.00 " />
<path stroke="#000000" stroke-opacity="1.000000" stroke-width="0.000000" fill="#000000" fill-opacity="1.000000" d="M27.00 -60.00 L27.00 -61.00 L26.00 -61.00 L26.00 -60.00 L27.00 -60.00 " />
<path stroke="#000000" stroke-opacity="1.000000" stroke-width="0.000000" fill="#000000" fill-opacity="1.000000" d="M27.00 -62.00 L27.00 -63.00 L26.00 -63.00 L26.00 -62.00 L27.00 -62.00 " />
<path stroke="#000000" stroke-opacity="1.000000" stroke-width="0.000000" fill="#000000" fill-opacity="1.000000" d="M25.00 -63.00 L24.00 -63.00 L24.00 -62.00 L25.00 -62.00 L25.00 -63.00 " />
<path stroke="#000000" stroke-opacity="1.000000" stroke-width="0.000000" fill="#000000" fill-opacity="1.000000" d="M24.00 -61.00 L24.00 -60.00 L25.00 -60.00 L25.00 -61.00 L24.00 -61.00 " />
<path stroke="#000000" stroke-opacity="1.000000" stroke-width="0.000000" fill="#000000" fill-opacity="1.000000" d="M21.00 -63.00 L20.00 -63.00 L20.00 -62.00 L21.00 -62.00 L21.00 -63.00 " />
<path stroke="#000000" stroke-opacity="1.000000" stroke-width="0.000000" fill="#000000" fill-opacity="1.000000" d="M19.00 -63.00 L18.00 -63.00 L18.00 -62.00 L19.00 -62.00 L19.00 -63.00 " />
<path stroke="#000000" stroke-opacity="1.000000" stroke-width="0.000000" fill="#000000" fill-opacity="1.000000" d="M18.00 -61.00 L18.00 -60.00 L19.00 -60.00 L19.00 -61.00 L18.00 -61.00 " />
<path stroke="#000000" stroke-opacity="1.000000" stroke-width="0.000000" fill="#000000" fill-opacity="1.000000" d="M20.00 -60.00 L21.00 -60.00 L21.00 -61.00 L20.00 -61.00 L20.00 -60.00 " />
</g>
</svg>

