<svg width="300.000000" height="66.666664" xmlns="http://www.w3.org/2000/svg" version="1.1">
<rect width="100%" height="100%" fill="white" />
<g transform="scale(1.010101,0.766284) translate(13.500000,73.500000) ">
<path stroke="#000000" fill="none" d="M0.00 0.00 L10.00 0.00 L20.00 0.00 L30.00 0.00 L40.00 0.00 L50.00 0.00 L60.00 0.00 L70.00 0.00 L80.00 0.00 L90.00 0.00 L100.00 0.00 L110.00 0.00 L120.00 0.00 L130.00 0.00 L140.00 0.00 L150.00 0.00 L160.00 0.00 L170.00 0.00 L180.00 0.00 L190.00 0.00 L200.00 0.00 L210.00 0.00 L220.00 0.00 L230.00 0.00 L240.00 0.00 L250.00 0.00 L260.00 0.00 L270.00 0.00 " />
<path stroke="#000000" fill="none" d="M0.00 0.00 M0.00 -10.00 M0.00 -20.00 L10.00 -20.00 L20.00 -20.00 L30.00 -20.00 L40.00 -20.00 L50.00 -20.00 L60.00 -20.00 L70.00 -20.00 L80.00 -20.00 L90.00 -20.00 M100.00 -20.00 M110.00 -20.00 M120.00 -20.00 M130.00 -20.00 M140.00 -20.00 M150.00 -20.00 M160.00 -20.00 M170.00 -20.00 M180.00 -20.00 L190.00 -20.00 L200.00 -20.00 L210.00 -20.00 L220.00 -20.00 L230.00 -20.00 L240.00 -20.00 L250.00 -20.00 L260.00 -20.00 L270.00 -20.00 " />
<path stroke="#000000" fill="none" d="M0.00 -20.00 M0.00 -30.00 M0.00 -40.00 L10.00 -40.00 L20.00 -40.00 L30.00 -40.00 M40.00 -40.00 M50.00 -40.00 M60.00 -40.00 L70.00 -40.00 L80.00 -40.00 L90.00 -40.00 " />
<path stroke="#000000" fill="none" d="M0.00 -40.00 M0.00 -50.00 M0.00 -60.00 L10.00 -60.00 M20.00 -60.00 L30.00 -60.00 " />
<path stroke="#000000" fill="none" d="M60.00 -40.00 M60.00 -50.00 M60.00 -60.00 L70.00 -60.00 M80.00 -60.00 L90.00 -60.00 " />
<path stroke="#000000" fill="none" d="M180.00 -20.00 M180.00 -30.00 M180.00 -40.00 L190.00 -40.00 L200.00 -40.00 L210.00 -40.00 M220.00 -40.00 M230.00 -40.00 M240.00 -40.00 L250.00 -40.00 L260.00 -40.00 L270.00 -40.00 " />
<path stroke="#000000" fill="none" d="M180.00 -40.00 M180.00 -50.00 M180.00 -60.00 L190.00 -60.00 M200.00 -60.00 L210.00 -60.00 " />
<path stroke="#000000" fill="none" d="M240.00 -40.00 M240.00 -50.00 M240.00 -60.00 L250.00 -60.00 M260.00 -60.00 L270.00 -60.00 " />
</g>
</svg>

