<svg width="500.000000" height="81.481468" xmlns="http://www.w3.org/2000/svg" version="1.1">
<g transform="scale(16.949152,11.808909) translate(2.250000,4.650000) ">
<path stroke="#000000" stroke-width="0.100000" fill="none" d="M0.00 0.00 L25.00 0.00 " />
<path stroke="#000000" stroke-width="0.100000" fill="none" d="M0.00 0.00 M0.00 -0.30 L8.33 -0.30 M16.67 -0.30 L25.00 -0.30 " />
<path stroke="#000000" stroke-width="0.100000" fill="none" d="M0.00 -0.30 M0.00 -0.60 L2.78 -0.60 M5.56 -0.60 L8.33 -0.60 " />
<path stroke="#000000" stroke-width="0.100000" fill="none" d="M0.00 -0.60 M0.00 -0.90 L0.93 -0.90 M1.85 -0.90 L2.78 -0.90 " />
<path stroke="#000000" stroke-width="0.100000" fill="none" d="M0.00 -0.90 M0.00 -1.20 L0.31 -1.20 M0.62 -1.20 L0.93 -1.20 " />
<path stroke="#000000" stroke-width="0.100000" fill="none" d="M0.00 -1.20 M0.00 -1.50 L0.10 -1.50 M0.21 -1.50 L0.31 -1.50 " />
<path stroke="#000000" stroke-width="0.100000" fill="none" d="M0.00 -1.50 M0.00 -1.80 L0.03 -1.80 M0.07 -1.80 L0.10 -1.80 " />
<path stroke="#000000" stroke-width="0.100000" fill="none" d="M0.00 -1.80 M0.00 -2.10 L0.01 -2.10 M0.02 -2.10 L0.03 -2.10 " />
<path stroke="#000000" stroke-width="0.100000" fill="none" d="M0.00 -2.10 M0.00 -2.40 L0.00 -2.40 M0.01 -2.40 L0.01 -2.40 " />
<path stroke="#000000" stroke-width="0.100000" fill="none" d="M0.02 -2.10 M0.02 -2.40 L0.03 -2.40 M0.03 -2.40 L0.03 -2.40 " />
<path stroke="#000000" stroke-width="0.100000" fill="none" d="M0.07 -1.80 M0.07 -2.10 L0.08 -2.10 M0.09 -2.10 L0.10 -2.10 " />
<path stroke="#000000" stroke-width="0.100000" fill="none" d="M0.07 -2.10 M0.07 -2.40 L0.07 -2.40 M0.08 -2.40 L0.08 -2.40 " />
<path stroke="#000000" stroke-width="0.100000" fill="none" d="M0.09 -2.10 M0.09 -2.40 L0.10 -2.40 M0.10 -2.40 L0.10 -2.40 " />
<path stroke="#000000" stroke-width="0.100000" fill="none" d="M0.21 -1.50 M0.21 -1.80 L0.24 -1.80 M0.27 -1.80 L0.31 -1.80 " />
<path stroke="#000000" stroke-width="0.100000" fill="none" d="M0.21 -1.80 M0.21 -2.10 L0.22 -2.10 M0.23 -2.10 L0.24 -2.10 " />
<path stroke="#000000" stroke-width="0.100000" fill="none" d="M0.21 -2.10 M0.21 -2.40 L0.21 -2.40 M0.21 -2.40 L0.22 -2.40 " />
<path stroke="#000000" stroke-width="0.100000" fill="none" d="M0.23 -2.10 M0.23 -2.40 L0.23 -2.40 M0.24 -2.40 L0.24 -2.40 " />
<path stroke="#000000" stroke-width="0.100000" fill="none" d="M0.27 -1.80 M0.27 -2.10 L0.29 -2.10 M0.30 -2.10 L0.31 -2.10 " />
<path stroke="#000000" stroke-width="0.100000" fill="none" d="M0.27 -2.10 M0.27 -2.40 L0.28 -2.40 M0.28 -2.40 L0.29 -2.40 " />
<path stroke="#000000" stroke-width="0.100000" fill="none" d="M0.30 -2.10 M0.30 -2.40 L0.30 -2.40 M0.30 -2.40 L0.31 -2.40 " />
<path stroke="#000000" stroke-width="0.100000" fill="none" d="M0.62 -1.20 M0.62 -1.50 L0.72 -1.50 M0.82 -1.50 L0.93 -1.50 " />
<path stroke="#000000" stroke-width="0.100000" fill="none" d="M0.62 -1.50 M0.62 -1.80 L0.65 -1.80 M0.69 -1.80 L0.72 -1.80 " />
<path stroke="#000000" stroke-width="0.100000" fill="none" d="M0.62 -1.80 M0.62 -2.10 L0.63 -2.10 M0.64 -2.10 L0.65 -2.10 " />
<path stroke="#000000" stroke-width="0.100000" fill="none" d="M0.62 -2.10 M0.62 -2.40 L0.62 -2.40 M0.62 -2.40 L0.63 -2.40 " />
<path stroke="#000000" stroke-width="0.100000" fill="none" d="M0.64 -2.10 M0.64 -2.40 L0.64 -2.40 M0.65 -2.40 L0.65 -2.40 " />
<path stroke="#000000" stroke-width="0.100000" fill="none" d="M0.69 -1.80 M0.69 -2.10 L0.70 -2.10 M0.71 -2.10 L0.72 -2.10 " />
<path stroke="#000000" stroke-width="0.100000" fill="none" d="M0.69 -2.10 M0.69 -2.40 L0.69 -2.40 M0.69 -2.40 L0.70 -2.40 " />
<path stroke="#000000" stroke-width="0.100000" fill="none" d="M0.71 -2.10 M0.71 -2.40 L0.71 -2.40 M0.72 -2.40 L0.72 -2.40 " />
<path stroke="#000000" stroke-width="0.100000" fill="none" d="M0.82 -1.50 M0.82 -1.80 L0.86 -1.80 M0.89 -1.80 L0.93 -1.80 " />
<path stroke="#000000" stroke-width="0.100000" fill="none" d="M0.82 -1.80 M0.82 -2.10 L0.83 -2.10 M0.85 -2.10 L0.86 -2.10 " />
<path stroke="#000000" stroke-width="0.100000" fill="none" d="M0.82 -2.10 M0.82 -2.40 L0.83 -2.40 M0.83 -2.40 L0.83 -2.40 " />
<path stroke="#000000" stroke-width="0.100000" fill="none" d="M0.85 -2.10 M0.85 -2.40 L0.85 -2.40 M0.85 -2.40 L0.86 -2.40 " />
<path stroke="#000000" stroke-width="0.100000" fill="none" d="M0.89 -1.80 M0.89 -2.10 L0.90 -2.10 M0.91 -2.10 L0.93 -2.10 " />
<path stroke="#000000" stroke-width="0.100000" fill="none" d="M0.89 -2.10 M0.89 -2.40 L0.90 -2.40 M0.90 -2.40 L0.90 -2.40 " />
<path stroke="#000000" stroke-width="0.100000" fill="none" d="M0.91 -2.10 M0.91 -2.40 L0.92 -2.40 M0.92 -2.40 L0.93 -2.40 " />
<path stroke="#000000" stroke-width="0.100000" fill="none" d="M1.85 -0.90 M1.85 -1.20 L2.16 -1.20 M2.47 -1.20 L2.78 -1.20 " />
<path stroke="#000000" stroke-width="0.100000" fill="none" d="M1.85 -1.20 M1.85 -1.50 L1.95 -1.50 M2.06 -1.50 L2.16 -1.50 " />
<path stroke="#000000" stroke-width="0.100000" fill="none" d="M1.85 -1.50 M1.85 -1.80 L1.89 -1.80 M1.92 -1.80 L1.95 -1.80 " />
<path stroke="#000000" stroke-width="0.100000" fill="none" d="M1.85 -1.80 M1.85 -2.10 L1.86 -2.10 M1.87 -2.10 L1.89 -2.10 " />
<path stroke="#000000" stroke-width="0.100000" fill="none" d="M1.85 -2.10 M1.85 -2.40 L1.86 -2.40 M1.86 -2.40 L1.86 -2.40 " />
<path stroke="#000000" stroke-width="0.100000" fill="none" d="M1.87 -2.10 M1.87 -2.40 L1.88 -2.40 M1.88 -2.40 L1.89 -2.40 " />
<path stroke="#000000" stroke-width="0.100000" fill="none" d="M1.92 -1.80 M1.92 -2.10 L1.93 -2.10 M1.94 -2.10 L1.95 -2.10 " />
<path stroke="#000000" stroke-width="0.100000" fill="none" d="M1.92 -2.10 M1.92 -2.40 L1.92 -2.40 M1.93 -2.40 L1.93 -2.40 " />
<path stroke="#000000" stroke-width="0.100000" fill="none" d="M1.94 -2.10 M1.94 -2.40 L1.95 -2.40 M1.95 -2.40 L1.95 -2.40 " />
<path stroke="#000000" stroke-width="0.100000" fill="none" d="M2.06 -1.50 M2.06 -1.80 L2.09 -1.80 M2.13 -1.80 L2.16 -1.80 " />
<path stroke="#000000" stroke-width="0.100000" fill="none" d="M2.06 -1.80 M2.06 -2.10 L2.07 -2.10 M2.08 -2.10 L2.09 -2.10 " />
<path stroke="#000000" stroke-width="0.100000" fill="none" d="M2.06 -2.10 M2.06 -2.40 L2.06 -2.40 M2.07 -2.40 L2.07 -2.40 " />
<path stroke="#000000" stroke-width="0.100000" fill="none" d="M2.08 -2.10 M2.08 -2.40 L2.08 -2.40 M2.09 -2.40 L2.09 -2.40 " />
<path stroke="#000000" stroke-width="0.100000" fill="none" d="M2.13 -1.80 M2.13 -2.10 L2.14 -2.10 M2.15 -2.10 L2.16 -2.10 " />
<path stroke="#000000" stroke-width="0.100000" fill="none" d="M2.13 -2.10 M2.13 -2.40 L2.13 -2.40 M2.13 -2.40 L2.14 -2.40 " />
<path stroke="#000000" stroke-width="0.100000" fill="none" d="M2.15 -2.10 M2.15 -2.40 L2.15 -2.40 M2.16 -2.40 L2.16 -2.40 " />
<path stroke="#000000" stroke-width="0.100000" fill="none" d="M2.47 -1.20 M2.47 -1.50 L2.57 -1.50 M2.67 -1.50 L2.78 -1.50 " />
<path stroke="#000000" stroke-width="0.100000" fill="none" d="M2.47 -1.50 M2.47 -1.80 L2.50 -1.80 M2.54 -1.80 L2.57 -1.80 " />
<path stroke="#000000" stroke-width="0.100000" fill="none" d="M2.47 -1.80 M2.47 -2.10 L2.48 -2.10 M2.49 -2.10 L2.50 -2.10 " />
<path stroke="#000000" stroke-width="0.100000" fill="none" d="M2.47 -2.10 M2.47 -2.40 L2.47 -2.40 M2.48 -2.40 L2.48 -2.40 " />
<path stroke="#000000" stroke-width="0.100000" fill="none" d="M2.49 -2.10 M2.49 -2.40 L2.50 -2.40 M2.50 -2.40 L2.50 -2.40 " />
<path stroke="#000000" stroke-width="0.100000" fill="none" d="M2.54 -1.80 M2.54 -2.10 L2.55 -2.10 M2.56 -2.10 L2.57 -2.10 " />
<path stroke="#000000" stroke-width="0.100000" fill="none" d="M2.54 -2.10 M2.54 -2.40 L2.54 -2.40 M2.55 -2.40 L2.55 -2.40 " />
<path stroke="#000000" stroke-width="0.100000" fill="none" d="M2.56 -2.10 M2.56 -2.40 L2.56 -2.40 M2.57 -2.40 L2.57 -2.40 " />
<path stroke="#000000" stroke-width="0.100000" fill="none" d="M2.67 -1.50 M2.67 -1.80 L2.71 -1.80 M2.74 -1.80 L2.78 -1.80 " />
<path stroke="#000000" stroke-width="0.100000" fill="none" d="M2.67 -1.80 M2.67 -2.10 L2.69 -2.10 M2.70 -2.10 L2.71 -2.10 " />
<path stroke="#000000" stroke-width="0.100000" fill="none" d="M2.67 -2.10 M2.67 -2.40 L2.68 -2.40 M2.68 -2.40 L2.69 -2.40 " />
<path stroke="#000000" stroke-width="0.100000" fill="none" d="M2.70 -2.10 M2.70 -2.40 L2.70 -2.40 M2.71 -2.40 L2.71 -2.40 " />
<path stroke="#000000" stroke-width="0.100000" fill="none" d="M2.74 -1.80 M2.74 -2.10 L2.75 -2.10 M2.77 -2.10 L2.78 -2.10 " />
<path stroke="#000000" stroke-width="0.100000" fill="none" d="M2.74 -2.10 M2.74 -2.40 L2.75 -2.40 M2.75 -2.40 L2.75 -2.40 " />
<path stroke="#000000" stroke-width="0.100000" fill="none" d="M2.77 -2.10 M2.77 -2.40 L2.77 -2.40 M2.77 -2.40 L2.78 -2.40 " />
<path stroke="#000000" stroke-width="0.100000" fill="none" d="M5.56 -0.60 M5.56 -0.90 L6.48 -0.90 M7.41 -0.90 L8.33 -0.90 " />
<path stroke="#000000" stroke-width="0.100000" fill="none" d="M5.56 -0.90 M5.56 -1.20 L5.86 -1.20 M6.17 -1.20 L6.48 -1.20 " />
<path stroke="#000000" stroke-width="0.100000" fill="none" d="M5.56 -1.20 M5.56 -1.50 L5.66 -1.50 M5.76 -1.50 L5.86 -1.50 " />
<path stroke="#000000" stroke-width="0.100000" fill="none" d="M5.56 -1.50 M5.56 -1.80 L5.59 -1.80 M5.62 -1.80 L5.66 -1.80 " />
<path stroke="#000000" stroke-width="0.100000" fill="none" d="M5.56 -1.80 M5.56 -2.10 L5.57 -2.10 M5.58 -2.10 L5.59 -2.10 " />
<path stroke="#000000" stroke-width="0.100000" fill="none" d="M5.56 -2.10 M5.56 -2.40 L5.56 -2.40 M5.56 -2.40 L5.57 -2.40 " />
<path stroke="#000000" stroke-width="0.100000" fill="none" d="M5.58 -2.10 M5.58 -2.40 L5.58 -2.40 M5.59 -2.40 L5.59 -2.40 " />
<path stroke="#000000" stroke-width="0.100000" fill="none" d="M5.62 -1.80 M5.62 -2.10 L5.64 -2.10 M5.65 -2.10 L5.66 -2.10 " />
<path stroke="#000000" stroke-width="0.100000" fill="none" d="M5.62 -2.10 M5.62 -2.40 L5.63 -2.40 M5.63 -2.40 L5.64 -2.40 " />
<path stroke="#000000" stroke-width="0.100000" fill="none" d="M5.65 -2.10 M5.65 -2.40 L5.65 -2.40 M5.65 -2.40 L5.66 -2.40 " />
<path stroke="#000000" stroke-width="0.100000" fill="none" d="M5.76 -1.50 M5.76 -1.80 L5.80 -1.80 M5.83 -1.80 L5.86 -1.80 " />
<path stroke="#000000" stroke-width="0.100000" fill="none" d="M5.76 -1.80 M5.76 -2.10 L5.77 -2.10 M5.78 -2.10 L5.80 -2.10 " />
<path stroke="#000000" stroke-width="0.100000" fill="none" d="M5.76 -2.10 M5.76 -2.40 L5.77 -2.40 M5.77 -2.40 L5.77 -2.40 " />
<path stroke="#000000" stroke-width="0.100000" fill="none" d="M5.78 -2.10 M5.78 -2.40 L5.79 -2.40 M5.79 -2.40 L5.80 -2.40 " />
<path stroke="#000000" stroke-width="0.100000" fill="none" d="M5.83 -1.80 M5.83 -2.10 L5.84 -2.10 M5.85 -2.10 L5.86 -2.10 " />
<path stroke="#000000" stroke-width="0.100000" fill="none" d="M5.83 -2.10 M5.83 -2.40 L5.83 -2.40 M5.84 -2.40 L5.84 -2.40 " />
<path stroke="#000000" stroke-width="0.100000" fill="none" d="M5.85 -2.10 M5.85 -2.40 L5.86 -2.40 M5.86 -2.40 L5.86 -2.40 " />
<path stroke="#000000" stroke-width="0.100000" fill="none" d="M6.17 -1.20 M6.17 -1.50 L6.28 -1.50 M6.38 -1.50 L6.48 -1.50 " />
<path stroke="#000000" stroke-width="0.100000" fill="none" d="M6.17 -1.50 M6.17 -1.80 L6.21 -1.80 M6.24 -1.80 L6.28 -1.80 " />
<path stroke="#000000" stroke-width="0.100000" fill="none" d="M6.17 -1.80 M6.17 -2.10 L6.18 -2.10 M6.20 -2.10 L6.21 -2.10 " />
<path stroke="#000000" stroke-width="0.100000" fill="none" d="M6.17 -2.10 M6.17 -2.40 L6.18 -2.40 M6.18 -2.40 L6.18 -2.40 " />
<path stroke="#000000" stroke-width="0.100000" fill="none" d="M6.20 -2.10 M6.20 -2.40 L6.20 -2.40 M6.20 -2.40 L6.21 -2.40 " />
<path stroke="#000000" stroke-width="0.100000" fill="none" d="M6.24 -1.80 M6.24 -2.10 L6.25 -2.10 M6.26 -2.10 L6.28 -2.10 " />
<path stroke="#000000" stroke-width="0.100000" fill="none" d="M6.24 -2.10 M6.24 -2.40 L6.25 -2.40 M6.25 -2.40 L6.25 -2.40 " />
<path stroke="#000000" stroke-width="0.100000" fill="none" d="M6.26 -2.10 M6.26 -2.40 L6.27 -2.40 M6.27 -2.40 L6.28 -2.40 " />
<path stroke="#000000" stroke-width="0.100000" fill="none" d="M6.38 -1.50 M6.38 -1.80 L6.41 -1.80 M6.45 -1.80 L6.48 -1.80 " />
<path stroke="#000000" stroke-width="0.100000" fill="none" d="M6.38 -1.80 M6.38 -2.10 L6.39 -2.10 M6.40 -2.10 L6.41 -2.10 " />
<path stroke="#000000" stroke-width="0.100000" fill="none" d="M6.38 -2.10 M6.38 -2.40 L6.38 -2.40 M6.39 -2.40 L6.39 -2.40 " />
<path stroke="#000000" stroke-width="0.100000" fill="none" d="M6.40 -2.10 M6.40 -2.40 L6.41 -2.40 M6.41 -2.40 L6.41 -2.40 " />
<path stroke="#000000" stroke-width="0.100000" fill="none" d="M6.45 -1.80 M6.45 -2.10 L6.46 -2.10 M6.47 -2.10 L6.48 -2.10 " />
<path stroke="#000000" stroke-width="0.100000" fill="none" d="M6.45 -2.10 M6.45 -2.40 L6.45 -2.40 M6.45 -2.40 L6.46 -2.40 " />
<path stroke="#000000" stroke-width="0.100000" fill="none" d="M6.47 -2.10 M6.47 -2.40 L6.47 -2.40 M6.48 -2.40 L6.48 -2.40 " />
<path stroke="#000000" stroke-width="0.100000" fill="none" d="M7.41 -0.90 M7.41 -1.20 L7.72 -1.20 M8.02 -1.20 L8.33 -1.20 " />
<path stroke="#000000" stroke-width="0.100000" fill="none" d="M7.41 -1.20 M7.41 -1.50 L7.51 -1.50 M7.61 -1.50 L7.72 -1.50 " />
<path stroke="#000000" stroke-width="0.100000" fill="none" d="M7.41 -1.50 M7.41 -1.80 L7.44 -1.80 M7.48 -1.80 L7.51 -1.80 " />
<path stroke="#000000" stroke-width="0.100000" fill="none" d="M7.41 -1.80 M7.41 -2.10 L7.42 -2.10 M7.43 -2.10 L7.44 -2.10 " />
<path stroke="#000000" stroke-width="0.100000" fill="none" d="M7.41 -2.10 M7.41 -2.40 L7.41 -2.40 M7.42 -2.40 L7.42 -2.40 " />
<path stroke="#000000" stroke-width="0.100000" fill="none" d="M7.43 -2.10 M7.43 -2.40 L7.43 -2.40 M7.44 -2.40 L7.44 -2.40 " />
<path stroke="#000000" stroke-width="0.100000" fill="none" d="M7.48 -1.80 M7.48 -2.10 L7.49 -2.10 M7.50 -2.10 L7.51 -2.10 " />
<path stroke="#000000" stroke-width="0.100000" fill="none" d="M7.48 -2.10 M7.48 -2.40 L7.48 -2.40 M7.48 -2.40 L7.49 -2.40 " />
<path stroke="#000000" stroke-width="0.100000" fill="none" d="M7.50 -2.10 M7.50 -2.40 L7.50 -2.40 M7.51 -2.40 L7.51 -2.40 " />
<path stroke="#000000" stroke-width="0.100000" fill="none" d="M7.61 -1.50 M7.61 -1.80 L7.65 -1.80 M7.68 -1.80 L7.72 -1.80 " />
<path stroke="#000000" stroke-width="0.100000" fill="none" d="M7.61 -1.80 M7.61 -2.10 L7.62 -2.10 M7.64 -2.10 L7.65 -2.10 " />
<path stroke="#000000" stroke-width="0.100000" fill="none" d="M7.61 -2.10 M7.61 -2.40 L7.62 -2.40 M7.62 -2.40 L7.62 -2.40 " />
<path stroke="#000000" stroke-width="0.100000" fill="none" d="M7.64 -2.10 M7.64 -2.40 L7.64 -2.40 M7.64 -2.40 L7.65 -2.40 " />
<path stroke="#000000" stroke-width="0.100000" fill="none" d="M7.68 -1.80 M7.68 -2.10 L7.69 -2.10 M7.70 -2.10 L7.72 -2.10 " />
<path stroke="#000000" stroke-width="0.100000" fill="none" d="M7.68 -2.10 M7.68 -2.40 L7.69 -2.40 M7.69 -2.40 L7.69 -2.40 " />
<path stroke="#000000" stroke-width="0.100000" fill="none" d="M7.70 -2.10 M7.70 -2.40 L7.71 -2.40 M7.71 -2.40 L7.72 -2.40 " />
<path stroke="#000000" stroke-width="0.100000" fill="none" d="M8.02 -1.20 M8.02 -1.50 L8.13 -1.50 M8.23 -1.50 L8.33 -1.50 " />
<path stroke="#000000" stroke-width="0.100000" fill="none" d="M8.02 -1.50 M8.02 -1.80 L8.06 -1.80 M8.09 -1.80 L8.13 -1.80 " />
<path stroke="#000000" stroke-width="0.100000" fill="none" d="M8.02 -1.80 M8.02 -2.10 L8.04 -2.10 M8.05 -2.10 L8.06 -2.10 " />
<path stroke="#000000" stroke-width="0.100000" fill="none" d="M8.02 -2.10 M8.02 -2.40 L8.03 -2.40 M8.03 -2.40 L8.04 -2.40 " />
<path stroke="#000000" stroke-width="0.100000" fill="none" d="M8.05 -2.10 M8.05 -2.40 L8.05 -2.40 M8.06 -2.40 L8.06 -2.40 " />
<path stroke="#000000" stroke-width="0.100000" fill="none" d="M8.09 -1.80 M8.09 -2.10 L8.10 -2.10 M8.12 -2.10 L8.13 -2.10 " />
<path stroke="#000000" stroke-width="0.100000" fill="none" d="M8.09 -2.10 M8.09 -2.40 L8.10 -2.40 M8.10 -2.40 L8.10 -2.40 " />
<path stroke="#000000" stroke-width="0.100000" fill="none" d="M8.12 -2.10 M8.12 -2.40 L8.12 -2.40 M8.12 -2.40 L8.13 -2.40 " />
<path stroke="#000000" stroke-width="0.100000" fill="none" d="M8.23 -1.50 M8.23 -1.80 L8.26 -1.80 M8.30 -1.80 L8.33 -1.80 " />
<path stroke="#000000" stroke-width="0.100000" fill="none" d="M8.23 -1.80 M8.23 -2.10 L8.24 -2.10 M8.25 -2.10 L8.26 -2.10 " />
<path stroke="#000000" stroke-width="0.100000" fill="none" d="M8.23 -2.10 M8.23 -2.40 L8.23 -2.40 M8.24 -2.40 L8.24 -2.40 " />
<path stroke="#000000" stroke-width="0.100000" fill="none" d="M8.25 -2.10 M8.25 -2.40 L8.26 -2.40 M8.26 -2.40 L8.26 -2.40 " />
<path stroke="#000000" stroke-width="0.100000" fill="none" d="M8.30 -1.80 M8.30 -2.10 L8.31 -2.10 M8.32 -2.10 L8.33 -2.10 " />
<path stroke="#000000" stroke-width="0.100000" fill="none" d="M8.30 -2.10 M8.30 -2.40 L8.30 -2.40 M8.31 -2.40 L8.31 -2.40 " />
<path stroke="#000000" stroke-width="0.100000" fill="none" d="M8.32 -2.10 M8.32 -2.40 L8.33 -2.40 M8.33 -2.40 L8.33 -2.40 " />
<path stroke="#000000" stroke-width="0.100000" fill="none" d="M16.67 -0.30 M16.67 -0.60 L19.44 -0.60 M22.22 -0.60 L25.00 -0.60 " />
<path stroke="#000000" stroke-width="0.100000" fill="none" d="M16.67 -0.60 M16.67 -0.90 L17.59 -0.90 M18.52 -0.90 L19.44 -0.90 " />
<path stroke="#000000" stroke-width="0.100000" fill="none" d="M16.67 -0.90 M16.67 -1.20 L16.98 -1.20 M17.28 -1.20 L17.59 -1.20 " />
<path stroke="#000000" stroke-width="0.100000" fill="none" d="M16.67 -1.20 M16.67 -1.50 L16.77 -1.50 M16.87 -1.50 L16.98 -1.50 " />
<path stroke="#000000" stroke-width="0.100000" fill="none" d="M16.67 -1.50 M16.67 -1.80 L16.70 -1.80 M16.74 -1.80 L16.77 -1.80 " />
<path stroke="#000000" stroke-width="0.100000" fill="none" d="M16.67 -1.80 M16.67 -2.10 L16.68 -2.10 M16.69 -2.10 L16.70 -2.10 " />
<path stroke="#000000" stroke-width="0.100000" fill="none" d="M16.67 -2.10 M16.67 -2.40 L16.67 -2.40 M16.67 -2.40 L16.68 -2.40 " />
<path stroke="#000000" stroke-width="0.100000" fill="none" d="M16.69 -2.10 M16.69 -2.40 L16.69 -2.40 M16.70 -2.40 L16.70 -2.40 " />
<path stroke="#000000" stroke-width="0.100000" fill="none" d="M16.74 -1.80 M16.74 -2.10 L16.75 -2.10 M16.76 -2.10 L16.77 -2.10 " />
<path stroke="#000000" stroke-width="0.100000" fill="none" d="M16.74 -2.10 M16.74 -2.40 L16.74 -2.40 M16.74 -2.40 L16.75 -2.40 " />
<path stroke="#000000" stroke-width="0.100000" fill="none" d="M16.76 -2.10 M16.76 -2.40 L16.76 -2.40 M16.77 -2.40 L16.77 -2.40 " />
<path stroke="#000000" stroke-width="0.100000" fill="none" d="M16.87 -1.50 M16.87 -1.80 L16.91 -1.80 M16.94 -1.80 L16.98 -1.80 " />
<path stroke="#000000" stroke-width="0.100000" fill="none" d="M16.87 -1.80 M16.87 -2.10 L16.88 -2.10 M16.90 -2.10 L16.91 -2.10 " />
<path stroke="#000000" stroke-width="0.100000" fill="none" d="M16.87 -2.10 M16.87 -2.40 L16.88 -2.40 M16.88 -2.40 L16.88 -2.40 " />
<path stroke="#000000" stroke-width="0.100000" fill="none" d="M16.90 -2.10 M16.90 -2.40 L16.90 -2.40 M16.90 -2.40 L16.91 -2.40 " />
<path stroke="#000000" stroke-width="0.100000" fill="none" d="M16.94 -1.80 M16.94 -2.10 L16.95 -2.10 M16.96 -2.10 L16.98 -2.10 " />
<path stroke="#000000" stroke-width="0.100000" fill="none" d="M16.94 -2.10 M16.94 -2.40 L16.94 -2.40 M16.95 -2.40 L16.95 -2.40 " />
<path stroke="#000000" stroke-width="0.100000" fill="none" d="M16.96 -2.10 M16.96 -2.40 L16.97 -2.40 M16.97 -2.40 L16.98 -2.40 " />
<path stroke="#000000" stroke-width="0.100000" fill="none" d="M17.28 -1.20 M17.28 -1.50 L17.39 -1.50 M17.49 -1.50 L17.59 -1.50 " />
<path stroke="#000000" stroke-width="0.100000" fill="none" d="M17.28 -1.50 M17.28 -1.80 L17.32 -1.80 M17.35 -1.80 L17.39 -1.80 " />
<path stroke="#000000" stroke-width="0.100000" fill="none" d="M17.28 -1.80 M17.28 -2.10 L17.30 -2.10 M17.31 -2.10 L17.32 -2.10 " />
<path stroke="#000000" stroke-width="0.100000" fill="none" d="M17.28 -2.10 M17.28 -2.40 L17.29 -2.40 M17.29 -2.40 L17.30 -2.40 " />
<path stroke="#000000" stroke-width="0.100000" fill="none" d="M17.31 -2.10 M17.31 -2.40 L17.31 -2.40 M17.31 -2.40 L17.32 -2.40 " />
<path stroke="#000000" stroke-width="0.100000" fill="none" d="M17.35 -1.80 M17.35 -2.10 L17.36 -2.10 M17.38 -2.10 L17.39 -2.10 " />
<path stroke="#000000" stroke-width="0.100000" fill="none" d="M17.35 -2.10 M17.35 -2.40 L17.36 -2.40 M17.36 -2.40 L17.36 -2.40 " />
<path stroke="#000000" stroke-width="0.100000" fill="none" d="M17.38 -2.10 M17.38 -2.40 L17.38 -2.40 M17.38 -2.40 L17.39 -2.40 " />
<path stroke="#000000" stroke-width="0.100000" fill="none" d="M17.49 -1.50 M17.49 -1.80 L17.52 -1.80 M17.56 -1.80 L17.59 -1.80 " />
<path stroke="#000000" stroke-width="0.100000" fill="none" d="M17.49 -1.80 M17.49 -2.10 L17.50 -2.10 M17.51 -2.10 L17.52 -2.10 " />
<path stroke="#000000" stroke-width="0.100000" fill="none" d="M17.49 -2.10 M17.49 -2.40 L17.49 -2.40 M17.50 -2.40 L17.50 -2.40 " />
<path stroke="#000000" stroke-width="0.100000" fill="none" d="M17.51 -2.10 M17.51 -2.40 L17.52 -2.40 M17.52 -2.40 L17.52 -2.40 " />
<path stroke="#000000" stroke-width="0.100000" fill="none" d="M17.56 -1.80 M17.56 -2.10 L17.57 -2.10 M17.58 -2.10 L17.59 -2.10 " />
<path stroke="#000000" stroke-width="0.100000" fill="none" d="M17.56 -2.10 M17.56 -2.40 L17.56 -2.40 M17.57 -2.40 L17.57 -2.40 " />
<path stroke="#000000" stroke-width="0.100000" fill="none" d="M17.58 -2.10 M17.58 -2.40 L17.58 -2.40 M17.59 -2.40 L17.59 -2.40 " />
<path stroke="#000000" stroke-width="0.100000" fill="none" d="M18.52 -0.90 M18.52 -1.20 L18.83 -1.20 M19.14 -1.20 L19.44 -1.20 " />
<path stroke="#000000" stroke-width="0.100000" fill="none" d="M18.52 -1.20 M18.52 -1.50 L18.62 -1.50 M18.72 -1.50 L18.83 -1.50 " />
<path stroke="#000000" stroke-width="0.100000" fill="none" d="M18.52 -1.50 M18.52 -1.80 L18.55 -1.80 M18.59 -1.80 L18.62 -1.80 " />
<path stroke="#000000" stroke-width="0.100000" fill="none" d="M18.52 -1.80 M18.52 -2.10 L18.53 -2.10 M18.54 -2.10 L18.55 -2.10 " />
<path stroke="#000000" stroke-width="0.100000" fill="none" d="M18.52 -2.10 M18.52 -2.40 L18.52 -2.40 M18.53 -2.40 L18.53 -2.40 " />
<path stroke="#000000" stroke-width="0.100000" fill="none" d="M18.54 -2.10 M18.54 -2.40 L18.55 -2.40 M18.55 -2.40 L18.55 -2.40 " />
<path stroke="#000000" stroke-width="0.100000" fill="none" d="M18.59 -1.80 M18.59 -2.10 L18.60 -2.10 M18.61 -2.10 L18.62 -2.10 " />
<path stroke="#000000" stroke-width="0.100000" fill="none" d="M18.59 -2.10 M18.59 -2.40 L18.59 -2.40 M18.59 -2.40 L18.60 -2.40 " />
<path stroke="#000000" stroke-width="0.100000" fill="none" d="M18.61 -2.10 M18.61 -2.40 L18.61 -2.40 M18.62 -2.40 L18.62 -2.40 " />
<path stroke="#000000" stroke-width="0.100000" fill="none" d="M18.72 -1.50 M18.72 -1.80 L18.76 -1.80 M18.79 -1.80 L18.83 -1.80 " />
<path stroke="#000000" stroke-width="0.100000" fill="none" d="M18.72 -1.80 M18.72 -2.10 L18.74 -2.10 M18.75 -2.10 L18.76 -2.10 " />
<path stroke="#000000" stroke-width="0.100000" fill="none" d="M18.72 -2.10 M18.72 -2.40 L18.73 -2.40 M18.73 -2.40 L18.74 -2.40 " />
<path stroke="#000000" stroke-width="0.100000" fill="none" d="M18.75 -2.10 M18.75 -2.40 L18.75 -2.40 M18.75 -2.40 L18.76 -2.40 " />
<path stroke="#000000" stroke-width="0.100000" fill="none" d="M18.79 -1.80 M18.79 -2.10 L18.80 -2.10 M18.82 -2.10 L18.83 -2.10 " />
<path stroke="#000000" stroke-width="0.100000" fill="none" d="M18.79 -2.10 M18.79 -2.40 L18.80 -2.40 M18.80 -2.40 L18.80 -2.40 " />
<path stroke="#000000" stroke-width="0.100000" fill="none" d="M18.82 -2.10 M18.82 -2.40 L18.82 -2.40 M18.82 -2.40 L18.83 -2.40 " />
<path stroke="#000000" stroke-width="0.100000" fill="none" d="M19.14 -1.20 M19.14 -1.50 L19.24 -1.50 M19.34 -1.50 L19.44 -1.50 " />
<path stroke="#000000" stroke-width="0.100000" fill="none" d="M19.14 -1.50 M19.14 -1.80 L19.17 -1.80 M19.20 -1.80 L19.24 -1.80 " />
<path stroke="#000000" stroke-width="0.100000" fill="none" d="M19.14 -1.80 M19.14 -2.10 L19.15 -2.10 M19.16 -2.10 L19.17 -2.10 " />
<path stroke="#000000" stroke-width="0.100000" fill="none" d="M19.14 -2.10 M19.14 -2.40 L19.14 -2.40 M19.14 -2.40 L19.15 -2.40 " />
<path stroke="#000000" stroke-width="0.100000" fill="none" d="M19.16 -2.10 M19.16 -2.40 L19.16 -2.40 M19.17 -2.40 L19.17 -2.40 " />
<path stroke="#000000" stroke-width="0.100000" fill="none" d="M19.20 -1.80 M19.20 -2.10 L19.22 -2.10 M19.23 -2.10 L19.24 -2.10 " />
<path stroke="#000000" stroke-width="0.100000" fill="none" d="M19.20 -2.10 M19.20 -2.40 L19.21 -2.40 M19.21 -2.40 L19.22 -2.40 " />
<path stroke="#000000" stroke-width="0.100000" fill="none" d="M19.23 -2.10 M19.23 -2.40 L19.23 -2.40 M19.23 -2.40 L19.24 -2.40 " />
<path stroke="#000000" stroke-width="0.100000" fill="none" d="M19.34 -1.50 M19.34 -1.80 L19.38 -1.80 M19.41 -1.80 L19.44 -1.80 " />
<path stroke="#000000" stroke-width="0.100000" fill="none" d="M19.34 -1.80 M19.34 -2.10 L19.35 -2.10 M19.36 -2.10 L19.38 -2.10 " />
<path stroke="#000000" stroke-width="0.100000" fill="none" d="M19.34 -2.10 M19.34 -2.40 L19.35 -2.40 M19.35 -2.40 L19.35 -2.40 " />
<path stroke="#000000" stroke-width="0.100000" fill="none" d="M19.36 -2.10 M19.36 -2.40 L19.37 -2.40 M19.37 -2.40 L19.38 -2.40 " />
<path stroke="#000000" stroke-width="0.100000" fill="none" d="M19.41 -1.80 M19.41 -2.10 L19.42 -2.10 M19.43 -2.10 L19.44 -2.10 " />
<path stroke="#000000" stroke-width="0.100000" fill="none" d="M19.41 -2.10 M19.41 -2.40 L19.41 -2.40 M19.42 -2.40 L19.42 -2.40 " />
<path stroke="#000000" stroke-width="0.100000" fill="none" d="M19.43 -2.10 M19.43 -2.40 L19.44 -2.40 M19.44 -2.40 L19.44 -2.40 " />
<path stroke="#000000" stroke-width="0.100000" fill="none" d="M22.22 -0.60 M22.22 -0.90 L23.15 -0.90 M24.07 -0.90 L25.00 -0.90 " />
<path stroke="#000000" stroke-width="0.100000" fill="none" d="M22.22 -0.90 M22.22 -1.20 L22.53 -1.20 M22.84 -1.20 L23.15 -1.20 " />
<path stroke="#000000" stroke-width="0.100000" fill="none" d="M22.22 -1.20 M22.22 -1.50 L22.33 -1.50 M22.43 -1.50 L22.53 -1.50 " />
<path stroke="#000000" stroke-width="0.100000" fill="none" d="M22.22 -1.50 M22.22 -1.80 L22.26 -1.80 M22.29 -1.80 L22.33 -1.80 " />
<path stroke="#000000" stroke-width="0.100000" fill="none" d="M22.22 -1.80 M22.22 -2.10 L22.23 -2.10 M22.25 -2.10 L22.26 -2.10 " />
<path stroke="#000000" stroke-width="0.100000" fill="none" d="M22.22 -2.10 M22.22 -2.40 L22.23 -2.40 M22.23 -2.40 L22.23 -2.40 " />
<path stroke="#000000" stroke-width="0.100000" fill="none" d="M22.25 -2.10 M22.25 -2.40 L22.25 -2.40 M22.25 -2.40 L22.26 -2.40 " />
<path stroke="#000000" stroke-width="0.100000" fill="none" d="M22.29 -1.80 M22.29 -2.10 L22.30 -2.10 M22.31 -2.10 L22.33 -2.10 " />
<path stroke="#000000" stroke-width="0.100000" fill="none" d="M22.29 -2.10 M22.29 -2.40 L22.29 -2.40 M22.30 -2.40 L22.30 -2.40 " />
<path stroke="#000000" stroke-width="0.100000" fill="none" d="M22.31 -2.10 M22.31 -2.40 L22.32 -2.40 M22.32 -2.40 L22.33 -2.40 " />
<path stroke="#000000" stroke-width="0.100000" fill="none" d="M22.43 -1.50 M22.43 -1.80 L22.46 -1.80 M22.50 -1.80 L22.53 -1.80 " />
<path stroke="#000000" stroke-width="0.100000" fill="none" d="M22.43 -1.80 M22.43 -2.10 L22.44 -2.10 M22.45 -2.10 L22.46 -2.10 " />
<path stroke="#000000" stroke-width="0.100000" fill="none" d="M22.43 -2.10 M22.43 -2.40 L22.43 -2.40 M22.44 -2.40 L22.44 -2.40 " />
<path stroke="#000000" stroke-width="0.100000" fill="none" d="M22.45 -2.10 M22.45 -2.40 L22.45 -2.40 M22.46 -2.40 L22.46 -2.40 " />
<path stroke="#000000" stroke-width="0.100000" fill="none" d="M22.50 -1.80 M22.50 -2.10 L22.51 -2.10 M22.52 -2.10 L22.53 -2.10 " />
<path stroke="#000000" stroke-width="0.100000" fill="none" d="M22.50 -2.10 M22.50 -2.40 L22.50 -2.40 M22.50 -2.40 L22.51 -2.40 " />
<path stroke="#000000" stroke-width="0.100000" fill="none" d="M22.52 -2.10 M22.52 -2.40 L22.52 -2.40 M22.53 -2.40 L22.53 -2.40 " />
<path stroke="#000000" stroke-width="0.100000" fill="none" d="M22.84 -1.20 M22.84 -1.50 L22.94 -1.50 M23.05 -1.50 L23.15 -1.50 " />
<path stroke="#000000" stroke-width="0.100000" fill="none" d="M22.84 -1.50 M22.84 -1.80 L22.87 -1.80 M22.91 -1.80 L22.94 -1.80 " />
<path stroke="#000000" stroke-width="0.100000" fill="none" d="M22.84 -1.80 M22.84 -2.10 L22.85 -2.10 M22.86 -2.10 L22.87 -2.10 " />
<path stroke="#000000" stroke-width="0.100000" fill="none" d="M22.84 -2.10 M22.84 -2.40 L22.84 -2.40 M22.85 -2.40 L22.85 -2.40 " />
<path stroke="#000000" stroke-width="0.100000" fill="none" d="M22.86 -2.10 M22.86 -2.40 L22.87 -2.40 M22.87 -2.40 L22.87 -2.40 " />
<path stroke="#000000" stroke-width="0.100000" fill="none" d="M22.91 -1.80 M22.91 -2.10 L22.92 -2.10 M22.93 -2.10 L22.94 -2.10 " />
<path stroke="#000000" stroke-width="0.100000" fill="none" d="M22.91 -2.10 M22.91 -2.40 L22.91 -2.40 M22.92 -2.40 L22.92 -2.40 " />
<path stroke="#000000" stroke-width="0.100000" fill="none" d="M22.93 -2.10 M22.93 -2.40 L22.93 -2.40 M22.94 -2.40 L22.94 -2.40 " />
<path stroke="#000000" stroke-width="0.100000" fill="none" d="M23.05 -1.50 M23.05 -1.80 L23.08 -1.80 M23.11 -1.80 L23.15 -1.80 " />
<path stroke="#000000" stroke-width="0.100000" fill="none" d="M23.05 -1.80 M23.05 -2.10 L23.06 -2.10 M23.07 -2.10 L23.08 -2.10 " />
<path stroke="#000000" stroke-width="0.100000" fill="none" d="M23.05 -2.10 M23.05 -2.40 L23.05 -2.40 M23.05 -2.40 L23.06 -2.40 " />
<path stroke="#000000" stroke-width="0.100000" fill="none" d="M23.07 -2.10 M23.07 -2.40 L23.07 -2.40 M23.08 -2.40 L23.08 -2.40 " />
<path stroke="#000000" stroke-width="0.100000" fill="none" d="M23.11 -1.80 M23.11 -2.10 L23.13 -2.10 M23.14 -2.10 L23.15 -2.10 " />
<path stroke="#000000" stroke-width="0.100000" fill="none" d="M23.11 -2.10 M23.11 -2.40 L23.12 -2.40 M23.12 -2.40 L23.13 -2.40 " />
<path stroke="#000000" stroke-width="0.100000" fill="none" d="M23.14 -2.10 M23.14 -2.40 L23.14 -2.40 M23.14 -2.40 L23.15 -2.40 " />
<path stroke="#000000" stroke-width="0.100000" fill="none" d="M24.07 -0.90 M24.07 -1.20 L24.38 -1.20 M24.69 -1.20 L25.00 -1.20 " />
<path stroke="#000000" stroke-width="0.100000" fill="none" d="M24.07 -1.20 M24.07 -1.50 L24.18 -1.50 M24.28 -1.50 L24.38 -1.50 " />
<path stroke="#000000" stroke-width="0.100000" fill="none" d="M24.07 -1.50 M24.07 -1.80 L24.11 -1.80 M24.14 -1.80 L24.18 -1.80 " />
<path stroke="#000000" stroke-width="0.100000" fill="none" d="M24.07 -1.80 M24.07 -2.10 L24.09 -2.10 M24.10 -2.10 L24.11 -2.10 " />
<path stroke="#000000" stroke-width="0.100000" fill="none" d="M24.07 -2.10 M24.07 -2.40 L24.08 -2.40 M24.08 -2.40 L24.09 -2.40 " />
<path stroke="#000000" stroke-width="0.100000" fill="none" d="M24.10 -2.10 M24.10 -2.40 L24.10 -2.40 M24.10 -2.40 L24.11 -2.40 " />
<path stroke="#000000" stroke-width="0.100000" fill="none" d="M24.14 -1.80 M24.14 -2.10 L24.15 -2.10 M24.17 -2.10 L24.18 -2.10 " />
<path stroke="#000000" stroke-width="0.100000" fill="none" d="M24.14 -2.10 M24.14 -2.40 L24.15 -2.40 M24.15 -2.40 L24.15 -2.40 " />
<path stroke="#000000" stroke-width="0.100000" fill="none" d="M24.17 -2.10 M24.17 -2.40 L24.17 -2.40 M24.17 -2.40 L24.18 -2.40 " />
<path stroke="#000000" stroke-width="0.100000" fill="none" d="M24.28 -1.50 M24.28 -1.80 L24.31 -1.80 M24.35 -1.80 L24.38 -1.80 " />
<path stroke="#000000" stroke-width="0.100000" fill="none" d="M24.28 -1.80 M24.28 -2.10 L24.29 -2.10 M24.30 -2.10 L24.31 -2.10 " />
<path stroke="#000000" stroke-width="0.100000" fill="none" d="M24.28 -2.10 M24.28 -2.40 L24.28 -2.40 M24.29 -2.40 L24.29 -2.40 " />
<path stroke="#000000" stroke-width="0.100000" fill="none" d="M24.30 -2.10 M24.30 -2.40 L24.31 -2.40 M24.31 -2.40 L24.31 -2.40 " />
<path stroke="#000000" stroke-width="0.100000" fill="none" d="M24.35 -1.80 M24.35 -2.10 L24.36 -2.10 M24.37 -2.10 L24.38 -2.10 " />
<path stroke="#000000" stroke-width="0.100000" fill="none" d="M24.35 -2.10 M24.35 -2.40 L24.35 -2.40 M24.36 -2.40 L24.36 -2.40 " />
<path stroke="#000000" stroke-width="0.100000" fill="none" d="M24.37 -2.10 M24.37 -2.40 L24.38 -2.40 M24.38 -2.40 L24.38 -2.40 " />
<path stroke="#000000" stroke-width="0.100000" fill="none" d="M24.69 -1.20 M24.69 -1.50 L24.79 -1.50 M24.90 -1.50 L25.00 -1.50 " />
<path stroke="#000000" stroke-width="0.100000" fill="none" d="M24.69 -1.50 M24.69 -1.80 L24.73 -1.80 M24.76 -1.80 L24.79 -1.80 " />
<path stroke="#000000" stroke-width="0.100000" fill="none" d="M24.69 -1.80 M24.69 -2.10 L24.70 -2.10 M24.71 -2.10 L24.73 -2.10 " />
<path stroke="#000000" stroke-width="0.100000" fill="none" d="M24.69 -2.10 M24.69 -2.40 L24.70 -2.40 M24.70 -2.40 L24.70 -2.40 " />
<path stroke="#000000" stroke-width="0.100000" fill="none" d="M24.71 -2.10 M24.71 -2.40 L24.72 -2.40 M24.72 -2.40 L24.73 -2.40 " />
<path stroke="#000000" stroke-width="0.100000" fill="none" d="M24.76 -1.80 M24.76 -2.10 L24.77 -2.10 M24.78 -2.10 L24.79 -2.10 " />
<path stroke="#000000" stroke-width="0.100000" fill="none" d="M24.76 -2.10 M24.76 -2.40 L24.76 -2.40 M24.77 -2.40 L24.77 -2.40 " />
<path stroke="#000000" stroke-width="0.100000" fill="none" d="M24.78 -2.10 M24.78 -2.40 L24.79 -2.40 M24.79 -2.40 L24.79 -2.40 " />
<path stroke="#000000" stroke-width="0.100000" fill="none" d="M24.90 -1.50 M24.90 -1.80 L24.93 -1.80 M24.97 -1.80 L25.00 -1.80 " />
<path stroke="#000000" stroke-width="0.100000" fill="none" d="M24.90 -1.80 M24.90 -2.10 L24.91 -2.10 M24.92 -2.10 L24.93 -2.10 " />
<path stroke="#000000" stroke-width="0.100000" fill="none" d="M24.90 -2.10 M24.90 -2.40 L24.90 -2.40 M24.90 -2.40 L24.91 -2.40 " />
<path stroke="#000000" stroke-width="0.100000" fill="none" d="M24.92 -2.10 M24.92 -2.40 L24.92 -2.40 M24.93 -2.40 L24.93 -2.40 " />
<path stroke="#000000" stroke-width="0.100000" fill="none" d="M24.97 -1.80 M24.97 -2.10 L24.98 -2.10 M24.99 -2.10 L25.00 -2.10 " />
<path stroke="#000000" stroke-width="0.100000" fill="none" d="M24.97 -2.10 M24.97 -2.40 L24.97 -2.40 M24.97 -2.40 L24.98 -2.40 " />
<path stroke="#000000" stroke-width="0.100000" fill="none" d="M24.99 -2.10 M24.99 -2.40 L24.99 -2.40 M25.00 -2.40 L25.00 -2.40 " />
</g>
</svg>

