<svg viewBox="0 0 400.000000 400.000061" xmlns="http://www.w3.org/2000/svg" version="1.1">
<!-- SEED 653945356 -->
<rect width="400.000000" height="400.000061" fill="#FFBB44" fill-opacity="1.000000"/>
<g transform="scale(13.610329,13.610329) translate(14.194724,2.244975) ">
<path stroke="#000000" stroke-opacity="1.000000" stroke-width="0.300000" fill="none" fill-opacity="1" d="M0.00 0.00 L1.00 0.00 L1.00 1.00 L1.71 1.71 L2.71 1.71 L2.71 2.71 L1.71 2.71 L1.00 3.41 L1.00 4.41 L1.71 5.12 L2.71 5.12 L3.41 4.41 L3.41 3.41 L4.41 3.41 L4.41 4.41 L5.12 5.12 L6.12 5.12 L6.12 6.12 L5.12 6.12 L4.41 6.83 L4.41 7.83 L3.41 7.83 L3.41 6.83 L2.71 6.12 L1.71 6.12 L1.00 6.83 L1.00 7.83 L1.71 8.54 L2.71 8.54 L2.71 9.54 L1.71 9.54 L1.00 10.24 L1.00 11.24 L1.71 11.95 L2.71 11.95 L3.41 11.24 L3.41 10.24 L4.41 10.24 L4.41 11.24 L5.12 11.95 L6.12 11.95 L6.83 11.24 L6.83 10.24 L6.12 9.54 L5.12 9.54 L5.12 8.54 L6.12 8.54 L6.83 7.83 L6.83 6.83 L7.83 6.83 L7.83 7.83 L8.54 8.54 L9.54 8.54 L9.54 9.54 L8.54 9.54 L7.83 10.24 L7.83 11.24 L8.54 11.95 L9.54 11.95 L10.24 11.24 L10.24 10.24 L11.24 10.24 L11.24 11.24 L11.95 11.95 L12.95 11.95 L12.95 12.95 L11.95 12.95 L11.24 13.66 L11.24 14.66 L10.24 14.66 L10.24 13.66 L9.54 12.95 L8.54 12.95 L7.83 13.66 L7.83 14.66 L8.54 15.36 L9.54 15.36 L9.54 16.36 L8.54 16.36 L7.83 17.07 L7.83 18.07 L6.83 18.07 L6.83 17.07 L6.12 16.36 L5.12 16.36 L5.12 15.36 L6.12 15.36 L6.83 14.66 L6.83 13.66 L6.12 12.95 L5.12 12.95 L4.41 13.66 L4.41 14.66 L3.41 14.66 L3.41 13.66 L2.71 12.95 L1.71 12.95 L1.00 13.66 L1.00 14.66 L1.71 15.36 L2.71 15.36 L2.71 16.36 L1.71 16.36 L1.00 17.07 L1.00 18.07 L1.71 18.78 L2.71 18.78 L3.41 18.07 L3.41 17.07 L4.41 17.07 L4.41 18.07 L5.12 18.78 L6.12 18.78 L6.12 19.78 L5.12 19.78 L4.41 20.49 L4.41 21.49 L3.41 21.49 L3.41 20.49 L2.71 19.78 L1.71 19.78 L1.00 20.49 L1.00 21.49 L1.71 22.19 L2.71 22.19 L2.71 23.19 L1.71 23.19 L1.00 23.90 L1.00 24.90 L-0.00 24.90 L-0.00 23.90 L-0.71 23.19 L-1.71 23.19 L-1.71 22.19 L-0.71 22.19 L-0.00 21.49 L-0.00 20.49 L-0.71 19.78 L-1.71 19.78 L-2.41 20.49 L-2.41 21.49 L-3.41 21.49 L-3.41 20.49 L-4.12 19.78 L-5.12 19.78 L-5.12 18.78 L-4.12 18.78 L-3.41 18.07 L-3.41 17.07 L-2.41 17.07 L-2.41 18.07 L-1.71 18.78 L-0.71 18.78 L-0.00 18.07 L-0.00 17.07 L-0.71 16.36 L-1.71 16.36 L-1.71 15.36 L-0.71 15.36 L-0.00 14.66 L-0.00 13.66 L-0.71 12.95 L-1.71 12.95 L-2.41 13.66 L-2.41 14.66 L-3.41 14.66 L-3.41 13.66 L-4.12 12.95 L-5.12 12.95 L-5.83 13.66 L-5.83 14.66 L-5.12 15.36 L-4.12 15.36 L-4.12 16.36 L-5.12 16.36 L-5.83 17.07 L-5.83 18.07 L-6.83 18.07 L-6.83 17.07 L-7.54 16.36 L-8.54 16.36 L-8.54 15.36 L-7.54 15.36 L-6.83 14.66 L-6.83 13.66 L-7.54 12.95 L-8.54 12.95 L-9.24 13.66 L-9.24 14.66 L-10.24 14.66 L-10.24 13.66 L-10.95 12.95 L-11.95 12.95 L-11.95 11.95 L-10.95 11.95 L-10.24 11.24 L-10.24 10.24 L-9.24 10.24 L-9.24 11.24 L-8.54 11.95 L-7.54 11.95 L-6.83 11.24 L-6.83 10.24 L-7.54 9.54 L-8.54 9.54 L-8.54 8.54 L-7.54 8.54 L-6.83 7.83 L-6.83 6.83 L-5.83 6.83 L-5.83 7.83 L-5.12 8.54 L-4.12 8.54 L-4.12 9.54 L-5.12 9.54 L-5.83 10.24 L-5.83 11.24 L-5.12 11.95 L-4.12 11.95 L-3.41 11.24 L-3.41 10.24 L-2.41 10.24 L-2.41 11.24 L-1.71 11.95 L-0.71 11.95 L-0.00 11.24 L-0.00 10.24 L-0.71 9.54 L-1.71 9.54 L-1.71 8.54 L-0.71 8.54 L-0.00 7.83 L-0.00 6.83 L-0.71 6.12 L-1.71 6.12 L-2.41 6.83 L-2.41 7.83 L-3.41 7.83 L-3.41 6.83 L-4.12 6.12 L-5.12 6.12 L-5.12 5.12 L-4.12 5.12 L-3.41 4.41 L-3.41 3.41 L-2.41 3.41 L-2.41 4.41 L-1.71 5.12 L-0.71 5.12 L-0.00 4.41 L-0.00 3.41 L-0.71 2.71 L-1.71 2.71 L-1.71 1.71 L-0.71 1.71 L-0.00 1.00 L-0.00 0.00 "/>
</g>
</svg>

