<svg width="300.000000" height="454.838715" xmlns="http://www.w3.org/2000/svg" version="1.1">
<rect width="100%" height="100%" fill="white" />
<g transform="scale(0.840336,0.879765) translate(123.500000,393.500000) ">
<path stroke="#000000" fill="none" d="M0.00 0.00 L10.00 0.00 L10.00 -10.00 L0.00 -10.00 L0.00 -20.00 L-10.00 -20.00 L-10.00 -10.00 L-20.00 -10.00 L-20.00 -20.00 L-30.00 -20.00 L-30.00 -10.00 L-20.00 -10.00 L-20.00 0.00 L-30.00 -0.00 L-30.00 10.00 L-40.00 10.00 L-40.00 0.00 L-50.00 -0.00 L-50.00 10.00 L-40.00 10.00 L-40.00 20.00 L-30.00 20.00 L-30.00 10.00 L-20.00 10.00 L-20.00 20.00 L-30.00 20.00 L-30.00 30.00 L-20.00 30.00 L-20.00 40.00 L-30.00 40.00 L-30.00 50.00 L-40.00 50.00 L-40.00 40.00 L-50.00 40.00 L-50.00 50.00 L-40.00 50.00 L-40.00 60.00 L-30.00 60.00 L-30.00 50.00 L-20.00 50.00 L-20.00 60.00 L-10.00 60.00 L-10.00 50.00 L-20.00 50.00 L-20.00 40.00 L-10.00 40.00 L-10.00 30.00 L0.00 30.00 L-0.00 40.00 L-10.00 40.00 L-10.00 50.00 L0.00 50.00 L-0.00 60.00 L10.00 60.00 L10.00 50.00 L20.00 50.00 L20.00 60.00 L10.00 60.00 L10.00 70.00 L20.00 70.00 L20.00 80.00 L10.00 80.00 L10.00 90.00 L0.00 90.00 L0.00 80.00 L-10.00 80.00 L-10.00 90.00 L0.00 90.00 L-0.00 100.00 L10.00 100.00 L10.00 90.00 L20.00 90.00 L20.00 100.00 L30.00 100.00 L30.00 90.00 L20.00 90.00 L20.00 80.00 L30.00 80.00 L30.00 70.00 L40.00 70.00 L40.00 80.00 L50.00 80.00 L50.00 70.00 L40.00 70.00 L40.00 60.00 L30.00 60.00 L30.00 70.00 L20.00 70.00 L20.00 60.00 L30.00 60.00 L30.00 50.00 L20.00 50.00 L20.00 40.00 L30.00 40.00 L30.00 30.00 L40.00 30.00 L40.00 40.00 L30.00 40.00 L30.00 50.00 L40.00 50.00 L40.00 60.00 L50.00 60.00 L50.00 50.00 L60.00 50.00 L60.00 60.00 L70.00 60.00 L70.00 50.00 L60.00 50.00 L60.00 40.00 L70.00 40.00 L70.00 30.00 L80.00 30.00 L80.00 40.00 L70.00 40.00 L70.00 50.00 L80.00 50.00 L80.00 60.00 L90.00 60.00 L90.00 50.00 L100.00 50.00 L100.00 60.00 L90.00 60.00 L90.00 70.00 L100.00 70.00 L100.00 80.00 L90.00 80.00 L90.00 90.00 L80.00 90.00 L80.00 80.00 L70.00 80.00 L70.00 90.00 L80.00 90.00 L80.00 100.00 L90.00 100.00 L90.00 90.00 L100.00 90.00 L100.00 100.00 L110.00 100.00 L110.00 90.00 L100.00 90.00 L100.00 80.00 L110.00 80.00 L110.00 70.00 L120.00 70.00 L120.00 80.00 L130.00 80.00 L130.00 70.00 L120.00 70.00 L120.00 60.00 L110.00 60.00 L110.00 70.00 L100.00 70.00 L100.00 60.00 L110.00 60.00 L110.00 50.00 L100.00 50.00 L100.00 40.00 L110.00 40.00 L110.00 30.00 L120.00 30.00 L120.00 40.00 L130.00 40.00 L130.00 30.00 L120.00 30.00 L120.00 20.00 L110.00 20.00 L110.00 30.00 L100.00 30.00 L100.00 20.00 L90.00 20.00 L90.00 30.00 L100.00 30.00 L100.00 40.00 L90.00 40.00 L90.00 50.00 L80.00 50.00 L80.00 40.00 L90.00 40.00 L90.00 30.00 L80.00 30.00 L80.00 20.00 L70.00 20.00 L70.00 30.00 L60.00 30.00 L60.00 20.00 L70.00 20.00 L70.00 10.00 L60.00 10.00 L60.00 0.00 L70.00 0.00 L70.00 -10.00 L80.00 -10.00 L80.00 0.00 L70.00 -0.00 L70.00 10.00 L80.00 10.00 L80.00 20.00 L90.00 20.00 L90.00 10.00 L100.00 10.00 L100.00 20.00 L110.00 20.00 L110.00 10.00 L100.00 10.00 L100.00 0.00 L110.00 0.00 L110.00 -10.00 L120.00 -10.00 L120.00 0.00 L130.00 0.00 L130.00 -10.00 L120.00 -10.00 L120.00 -20.00 L110.00 -20.00 L110.00 -10.00 L100.00 -10.00 L100.00 -20.00 L110.00 -20.00 L110.00 -30.00 L100.00 -30.00 L100.00 -40.00 L110.00 -40.00 L110.00 -50.00 L120.00 -50.00 L120.00 -40.00 L110.00 -40.00 L110.00 -30.00 L120.00 -30.00 L120.00 -20.00 L130.00 -20.00 L130.00 -30.00 L140.00 -30.00 L140.00 -20.00 L150.00 -20.00 L150.00 -30.00 L140.00 -30.00 L140.00 -40.00 L150.00 -40.00 L150.00 -50.00 L160.00 -50.00 L160.00 -40.00 L150.00 -40.00 L150.00 -30.00 L160.00 -30.00 L160.00 -20.00 L170.00 -20.00 L170.00 -30.00 L180.00 -30.00 L180.00 -20.00 L170.00 -20.00 L170.00 -10.00 L180.00 -10.00 L180.00 0.00 L170.00 -0.00 L170.00 10.00 L160.00 10.00 L160.00 0.00 L150.00 -0.00 L150.00 10.00 L160.00 10.00 L160.00 20.00 L170.00 20.00 L170.00 10.00 L180.00 10.00 L180.00 20.00 L190.00 20.00 L190.00 10.00 L180.00 10.00 L180.00 0.00 L190.00 0.00 L190.00 -10.00 L200.00 -10.00 L200.00 0.00 L210.00 0.00 L210.00 -10.00 L200.00 -10.00 L200.00 -20.00 L190.00 -20.00 L190.00 -10.00 L180.00 -10.00 L180.00 -20.00 L190.00 -20.00 L190.00 -30.00 L180.00 -30.00 L180.00 -40.00 L190.00 -40.00 L190.00 -50.00 L200.00 -50.00 L200.00 -40.00 L210.00 -40.00 L210.00 -50.00 L200.00 -50.00 L200.00 -60.00 L190.00 -60.00 L190.00 -50.00 L180.00 -50.00 L180.00 -60.00 L170.00 -60.00 L170.00 -50.00 L180.00 -50.00 L180.00 -40.00 L170.00 -40.00 L170.00 -30.00 L160.00 -30.00 L160.00 -40.00 L170.00 -40.00 L170.00 -50.00 L160.00 -50.00 L160.00 -60.00 L150.00 -60.00 L150.00 -50.00 L140.00 -50.00 L140.00 -60.00 L150.00 -60.00 L150.00 -70.00 L140.00 -70.00 L140.00 -80.00 L150.00 -80.00 L150.00 -90.00 L160.00 -90.00 L160.00 -80.00 L170.00 -80.00 L170.00 -90.00 L160.00 -90.00 L160.00 -100.00 L150.00 -100.00 L150.00 -90.00 L140.00 -90.00 L140.00 -100.00 L130.00 -100.00 L130.00 -90.00 L140.00 -90.00 L140.00 -80.00 L130.00 -80.00 L130.00 -70.00 L120.00 -70.00 L120.00 -80.00 L110.00 -80.00 L110.00 -70.00 L120.00 -70.00 L120.00 -60.00 L130.00 -60.00 L130.00 -70.00 L140.00 -70.00 L140.00 -60.00 L130.00 -60.00 L130.00 -50.00 L140.00 -50.00 L140.00 -40.00 L130.00 -40.00 L130.00 -30.00 L120.00 -30.00 L120.00 -40.00 L130.00 -40.00 L130.00 -50.00 L120.00 -50.00 L120.00 -60.00 L110.00 -60.00 L110.00 -50.00 L100.00 -50.00 L100.00 -60.00 L90.00 -60.00 L90.00 -50.00 L100.00 -50.00 L100.00 -40.00 L90.00 -40.00 L90.00 -30.00 L80.00 -30.00 L80.00 -40.00 L90.00 -40.00 L90.00 -50.00 L80.00 -50.00 L80.00 -60.00 L70.00 -60.00 L70.00 -50.00 L60.00 -50.00 L60.00 -60.00 L70.00 -60.00 L70.00 -70.00 L60.00 -70.00 L60.00 -80.00 L70.00 -80.00 L70.00 -90.00 L80.00 -90.00 L80.00 -80.00 L70.00 -80.00 L70.00 -70.00 L80.00 -70.00 L80.00 -60.00 L90.00 -60.00 L90.00 -70.00 L100.00 -70.00 L100.00 -60.00 L110.00 -60.00 L110.00 -70.00 L100.00 -70.00 L100.00 -80.00 L110.00 -80.00 L110.00 -90.00 L120.00 -90.00 L120.00 -80.00 L130.00 -80.00 L130.00 -90.00 L120.00 -90.00 L120.00 -100.00 L110.00 -100.00 L110.00 -90.00 L100.00 -90.00 L100.00 -100.00 L110.00 -100.00 L110.00 -110.00 L100.00 -110.00 L100.00 -120.00 L110.00 -120.00 L110.00 -130.00 L120.00 -130.00 L120.00 -120.00 L130.00 -120.00 L130.00 -130.00 L120.00 -130.00 L120.00 -140.00 L110.00 -140.00 L110.00 -130.00 L100.00 -130.00 L100.00 -140.00 L90.00 -140.00 L90.00 -130.00 L100.00 -130.00 L100.00 -120.00 L90.00 -120.00 L90.00 -110.00 L80.00 -110.00 L80.00 -120.00 L90.00 -120.00 L90.00 -130.00 L80.00 -130.00 L80.00 -140.00 L70.00 -140.00 L70.00 -130.00 L60.00 -130.00 L60.00 -140.00 L70.00 -140.00 L70.00 -150.00 L60.00 -150.00 L60.00 -160.00 L70.00 -160.00 L70.00 -170.00 L80.00 -170.00 L80.00 -160.00 L70.00 -160.00 L70.00 -150.00 L80.00 -150.00 L80.00 -140.00 L90.00 -140.00 L90.00 -150.00 L100.00 -150.00 L100.00 -140.00 L110.00 -140.00 L110.00 -150.00 L100.00 -150.00 L100.00 -160.00 L110.00 -160.00 L110.00 -170.00 L120.00 -170.00 L120.00 -160.00 L130.00 -160.00 L130.00 -170.00 L120.00 -170.00 L120.00 -180.00 L110.00 -180.00 L110.00 -170.00 L100.00 -170.00 L100.00 -180.00 L110.00 -180.00 L110.00 -190.00 L100.00 -190.00 L100.00 -200.00 L110.00 -200.00 L110.00 -210.00 L120.00 -210.00 L120.00 -200.00 L110.00 -200.00 L110.00 -190.00 L120.00 -190.00 L120.00 -180.00 L130.00 -180.00 L130.00 -190.00 L140.00 -190.00 L140.00 -180.00 L150.00 -180.00 L150.00 -190.00 L140.00 -190.00 L140.00 -200.00 L150.00 -200.00 L150.00 -210.00 L160.00 -210.00 L160.00 -200.00 L150.00 -200.00 L150.00 -190.00 L160.00 -190.00 L160.00 -180.00 L170.00 -180.00 L170.00 -190.00 L180.00 -190.00 L180.00 -180.00 L170.00 -180.00 L170.00 -170.00 L180.00 -170.00 L180.00 -160.00 L170.00 -160.00 L170.00 -150.00 L160.00 -150.00 L160.00 -160.00 L150.00 -160.00 L150.00 -150.00 L160.00 -150.00 L160.00 -140.00 L170.00 -140.00 L170.00 -150.00 L180.00 -150.00 L180.00 -140.00 L190.00 -140.00 L190.00 -150.00 L180.00 -150.00 L180.00 -160.00 L190.00 -160.00 L190.00 -170.00 L200.00 -170.00 L200.00 -160.00 L210.00 -160.00 L210.00 -170.00 L200.00 -170.00 L200.00 -180.00 L190.00 -180.00 L190.00 -170.00 L180.00 -170.00 L180.00 -180.00 L190.00 -180.00 L190.00 -190.00 L180.00 -190.00 L180.00 -200.00 L190.00 -200.00 L190.00 -210.00 L200.00 -210.00 L200.00 -200.00 L210.00 -200.00 L210.00 -210.00 L200.00 -210.00 L200.00 -220.00 L190.00 -220.00 L190.00 -210.00 L180.00 -210.00 L180.00 -220.00 L170.00 -220.00 L170.00 -210.00 L180.00 -210.00 L180.00 -200.00 L170.00 -200.00 L170.00 -190.00 L160.00 -190.00 L160.00 -200.00 L170.00 -200.00 L170.00 -210.00 L160.00 -210.00 L160.00 -220.00 L150.00 -220.00 L150.00 -210.00 L140.00 -210.00 L140.00 -220.00 L150.00 -220.00 L150.00 -230.00 L140.00 -230.00 L140.00 -240.00 L150.00 -240.00 L150.00 -250.00 L160.00 -250.00 L160.00 -240.00 L170.00 -240.00 L170.00 -250.00 L160.00 -250.00 L160.00 -260.00 L150.00 -260.00 L150.00 -250.00 L140.00 -250.00 L140.00 -260.00 L130.00 -260.00 L130.00 -250.00 L140.00 -250.00 L140.00 -240.00 L130.00 -240.00 L130.00 -230.00 L120.00 -230.00 L120.00 -240.00 L110.00 -240.00 L110.00 -230.00 L120.00 -230.00 L120.00 -220.00 L130.00 -220.00 L130.00 -230.00 L140.00 -230.00 L140.00 -220.00 L130.00 -220.00 L130.00 -210.00 L140.00 -210.00 L140.00 -200.00 L130.00 -200.00 L130.00 -190.00 L120.00 -190.00 L120.00 -200.00 L130.00 -200.00 L130.00 -210.00 L120.00 -210.00 L120.00 -220.00 L110.00 -220.00 L110.00 -210.00 L100.00 -210.00 L100.00 -220.00 L90.00 -220.00 L90.00 -210.00 L100.00 -210.00 L100.00 -200.00 L90.00 -200.00 L90.00 -190.00 L80.00 -190.00 L80.00 -200.00 L90.00 -200.00 L90.00 -210.00 L80.00 -210.00 L80.00 -220.00 L70.00 -220.00 L70.00 -210.00 L60.00 -210.00 L60.00 -220.00 L70.00 -220.00 L70.00 -230.00 L60.00 -230.00 L60.00 -240.00 L70.00 -240.00 L70.00 -250.00 L80.00 -250.00 L80.00 -240.00 L90.00 -240.00 L90.00 -250.00 L80.00 -250.00 L80.00 -260.00 L70.00 -260.00 L70.00 -250.00 L60.00 -250.00 L60.00 -260.00 L50.00 -260.00 L50.00 -250.00 L60.00 -250.00 L60.00 -240.00 L50.00 -240.00 L50.00 -230.00 L40.00 -230.00 L40.00 -240.00 L30.00 -240.00 L30.00 -230.00 L40.00 -230.00 L40.00 -220.00 L50.00 -220.00 L50.00 -230.00 L60.00 -230.00 L60.00 -220.00 L50.00 -220.00 L50.00 -210.00 L60.00 -210.00 L60.00 -200.00 L50.00 -200.00 L50.00 -190.00 L40.00 -190.00 L40.00 -200.00 L30.00 -200.00 L30.00 -190.00 L40.00 -190.00 L40.00 -180.00 L50.00 -180.00 L50.00 -190.00 L60.00 -190.00 L60.00 -180.00 L70.00 -180.00 L70.00 -190.00 L60.00 -190.00 L60.00 -200.00 L70.00 -200.00 L70.00 -210.00 L80.00 -210.00 L80.00 -200.00 L70.00 -200.00 L70.00 -190.00 L80.00 -190.00 L80.00 -180.00 L90.00 -180.00 L90.00 -190.00 L100.00 -190.00 L100.00 -180.00 L90.00 -180.00 L90.00 -170.00 L100.00 -170.00 L100.00 -160.00 L90.00 -160.00 L90.00 -150.00 L80.00 -150.00 L80.00 -160.00 L90.00 -160.00 L90.00 -170.00 L80.00 -170.00 L80.00 -180.00 L70.00 -180.00 L70.00 -170.00 L60.00 -170.00 L60.00 -180.00 L50.00 -180.00 L50.00 -170.00 L60.00 -170.00 L60.00 -160.00 L50.00 -160.00 L50.00 -150.00 L40.00 -150.00 L40.00 -160.00 L30.00 -160.00 L30.00 -150.00 L40.00 -150.00 L40.00 -140.00 L50.00 -140.00 L50.00 -150.00 L60.00 -150.00 L60.00 -140.00 L50.00 -140.00 L50.00 -130.00 L60.00 -130.00 L60.00 -120.00 L50.00 -120.00 L50.00 -110.00 L40.00 -110.00 L40.00 -120.00 L50.00 -120.00 L50.00 -130.00 L40.00 -130.00 L40.00 -140.00 L30.00 -140.00 L30.00 -130.00 L20.00 -130.00 L20.00 -140.00 L10.00 -140.00 L10.00 -130.00 L20.00 -130.00 L20.00 -120.00 L10.00 -120.00 L10.00 -110.00 L0.00 -110.00 L0.00 -120.00 L10.00 -120.00 L10.00 -130.00 L0.00 -130.00 L0.00 -140.00 L-10.00 -140.00 L-10.00 -130.00 L-20.00 -130.00 L-20.00 -140.00 L-10.00 -140.00 L-10.00 -150.00 L-20.00 -150.00 L-20.00 -160.00 L-10.00 -160.00 L-10.00 -170.00 L0.00 -170.00 L-0.00 -160.00 L-10.00 -160.00 L-10.00 -150.00 L0.00 -150.00 L-0.00 -140.00 L10.00 -140.00 L10.00 -150.00 L20.00 -150.00 L20.00 -140.00 L30.00 -140.00 L30.00 -150.00 L20.00 -150.00 L20.00 -160.00 L30.00 -160.00 L30.00 -170.00 L40.00 -170.00 L40.00 -160.00 L50.00 -160.00 L50.00 -170.00 L40.00 -170.00 L40.00 -180.00 L30.00 -180.00 L30.00 -170.00 L20.00 -170.00 L20.00 -180.00 L30.00 -180.00 L30.00 -190.00 L20.00 -190.00 L20.00 -200.00 L30.00 -200.00 L30.00 -210.00 L40.00 -210.00 L40.00 -200.00 L50.00 -200.00 L50.00 -210.00 L40.00 -210.00 L40.00 -220.00 L30.00 -220.00 L30.00 -210.00 L20.00 -210.00 L20.00 -220.00 L10.00 -220.00 L10.00 -210.00 L20.00 -210.00 L20.00 -200.00 L10.00 -200.00 L10.00 -190.00 L0.00 -190.00 L0.00 -200.00 L10.00 -200.00 L10.00 -210.00 L0.00 -210.00 L0.00 -220.00 L-10.00 -220.00 L-10.00 -210.00 L-20.00 -210.00 L-20.00 -220.00 L-10.00 -220.00 L-10.00 -230.00 L-20.00 -230.00 L-20.00 -240.00 L-10.00 -240.00 L-10.00 -250.00 L0.00 -250.00 L-0.00 -240.00 L10.00 -240.00 L10.00 -250.00 L0.00 -250.00 L0.00 -260.00 L-10.00 -260.00 L-10.00 -250.00 L-20.00 -250.00 L-20.00 -260.00 L-30.00 -260.00 L-30.00 -250.00 L-20.00 -250.00 L-20.00 -240.00 L-30.00 -240.00 L-30.00 -230.00 L-40.00 -230.00 L-40.00 -240.00 L-50.00 -240.00 L-50.00 -230.00 L-40.00 -230.00 L-40.00 -220.00 L-30.00 -220.00 L-30.00 -230.00 L-20.00 -230.00 L-20.00 -220.00 L-30.00 -220.00 L-30.00 -210.00 L-20.00 -210.00 L-20.00 -200.00 L-30.00 -200.00 L-30.00 -190.00 L-40.00 -190.00 L-40.00 -200.00 L-30.00 -200.00 L-30.00 -210.00 L-40.00 -210.00 L-40.00 -220.00 L-50.00 -220.00 L-50.00 -210.00 L-60.00 -210.00 L-60.00 -220.00 L-70.00 -220.00 L-70.00 -210.00 L-60.00 -210.00 L-60.00 -200.00 L-70.00 -200.00 L-70.00 -190.00 L-80.00 -190.00 L-80.00 -200.00 L-70.00 -200.00 L-70.00 -210.00 L-80.00 -210.00 L-80.00 -220.00 L-90.00 -220.00 L-90.00 -210.00 L-100.00 -210.00 L-100.00 -220.00 L-90.00 -220.00 L-90.00 -230.00 L-100.00 -230.00 L-100.00 -240.00 L-90.00 -240.00 L-90.00 -250.00 L-80.00 -250.00 L-80.00 -240.00 L-90.00 -240.00 L-90.00 -230.00 L-80.00 -230.00 L-80.00 -220.00 L-70.00 -220.00 L-70.00 -230.00 L-60.00 -230.00 L-60.00 -220.00 L-50.00 -220.00 L-50.00 -230.00 L-60.00 -230.00 L-60.00 -240.00 L-50.00 -240.00 L-50.00 -250.00 L-40.00 -250.00 L-40.00 -240.00 L-30.00 -240.00 L-30.00 -250.00 L-40.00 -250.00 L-40.00 -260.00 L-50.00 -260.00 L-50.00 -250.00 L-60.00 -250.00 L-60.00 -260.00 L-50.00 -260.00 L-50.00 -270.00 L-60.00 -270.00 L-60.00 -280.00 L-50.00 -280.00 L-50.00 -290.00 L-40.00 -290.00 L-40.00 -280.00 L-30.00 -280.00 L-30.00 -290.00 L-40.00 -290.00 L-40.00 -300.00 L-50.00 -300.00 L-50.00 -290.00 L-60.00 -290.00 L-60.00 -300.00 L-70.00 -300.00 L-70.00 -290.00 L-60.00 -290.00 L-60.00 -280.00 L-70.00 -280.00 L-70.00 -270.00 L-80.00 -270.00 L-80.00 -280.00 L-70.00 -280.00 L-70.00 -290.00 L-80.00 -290.00 L-80.00 -300.00 L-90.00 -300.00 L-90.00 -290.00 L-100.00 -290.00 L-100.00 -300.00 L-90.00 -300.00 L-90.00 -310.00 L-100.00 -310.00 L-100.00 -320.00 L-90.00 -320.00 L-90.00 -330.00 L-80.00 -330.00 L-80.00 -320.00 L-90.00 -320.00 L-90.00 -310.00 L-80.00 -310.00 L-80.00 -300.00 L-70.00 -300.00 L-70.00 -310.00 L-60.00 -310.00 L-60.00 -300.00 L-50.00 -300.00 L-50.00 -310.00 L-60.00 -310.00 L-60.00 -320.00 L-50.00 -320.00 L-50.00 -330.00 L-40.00 -330.00 L-40.00 -320.00 L-30.00 -320.00 L-30.00 -330.00 L-40.00 -330.00 L-40.00 -340.00 L-50.00 -340.00 L-50.00 -330.00 L-60.00 -330.00 L-60.00 -340.00 L-50.00 -340.00 L-50.00 -350.00 L-60.00 -350.00 L-60.00 -360.00 L-50.00 -360.00 L-50.00 -370.00 L-40.00 -370.00 L-40.00 -360.00 L-50.00 -360.00 L-50.00 -350.00 L-40.00 -350.00 L-40.00 -340.00 L-30.00 -340.00 L-30.00 -350.00 L-20.00 -350.00 L-20.00 -340.00 L-10.00 -340.00 L-10.00 -350.00 L-20.00 -350.00 L-20.00 -360.00 L-10.00 -360.00 L-10.00 -370.00 L0.00 -370.00 L-0.00 -360.00 L-10.00 -360.00 L-10.00 -350.00 L0.00 -350.00 L-0.00 -340.00 L10.00 -340.00 L10.00 -350.00 L20.00 -350.00 L20.00 -340.00 L10.00 -340.00 L10.00 -330.00 L20.00 -330.00 L20.00 -320.00 L10.00 -320.00 L10.00 -310.00 L0.00 -310.00 L0.00 -320.00 " />
</g>
</svg>

