<svg viewBox="0 0 1000.000000 1484.848511" xmlns="http://www.w3.org/2000/svg" version="1.1">
<!-- SEED 215627767 -->
<rect width="1000.000000" height="1484.848511" fill="#000000" fill-opacity="1.000000"/>
<g transform="scale(26.525198,27.650810) translate(13.350000,40.349998) ">
<path stroke="#33FF33" stroke-opacity="1.000000" stroke-width="0.100000" fill="none" fill-opacity="1" d="M0.00 0.00 L1.00 0.00 L1.00 -1.00 L0.00 -1.00 L0.00 -2.00 L-1.00 -2.00 L-1.00 -1.00 L-2.00 -1.00 L-2.00 -2.00 L-3.00 -2.00 L-3.00 -1.00 L-2.00 -1.00 L-2.00 0.00 L-3.00 -0.00 L-3.00 1.00 L-4.00 1.00 L-4.00 0.00 L-5.00 -0.00 L-5.00 1.00 L-4.00 1.00 L-4.00 2.00 L-3.00 2.00 L-3.00 1.00 L-2.00 1.00 L-2.00 2.00 L-3.00 2.00 L-3.00 3.00 L-2.00 3.00 L-2.00 4.00 L-3.00 4.00 L-3.00 5.00 L-4.00 5.00 L-4.00 4.00 L-5.00 4.00 L-5.00 5.00 L-4.00 5.00 L-4.00 6.00 L-3.00 6.00 L-3.00 5.00 L-2.00 5.00 L-2.00 6.00 L-1.00 6.00 L-1.00 5.00 L-2.00 5.00 L-2.00 4.00 L-1.00 4.00 L-1.00 3.00 L0.00 3.00 L-0.00 4.00 L-1.00 4.00 L-1.00 5.00 L0.00 5.00 L-0.00 6.00 L1.00 6.00 L1.00 5.00 L2.00 5.00 L2.00 6.00 L1.00 6.00 L1.00 7.00 L2.00 7.00 L2.00 8.00 L1.00 8.00 L1.00 9.00 L0.00 9.00 L0.00 8.00 L-1.00 8.00 L-1.00 9.00 L0.00 9.00 L-0.00 10.00 L1.00 10.00 L1.00 9.00 L2.00 9.00 L2.00 10.00 L3.00 10.00 L3.00 9.00 L2.00 9.00 L2.00 8.00 L3.00 8.00 L3.00 7.00 L4.00 7.00 L4.00 8.00 L5.00 8.00 L5.00 7.00 L4.00 7.00 L4.00 6.00 L3.00 6.00 L3.00 7.00 L2.00 7.00 L2.00 6.00 L3.00 6.00 L3.00 5.00 L2.00 5.00 L2.00 4.00 L3.00 4.00 L3.00 3.00 L4.00 3.00 L4.00 4.00 L3.00 4.00 L3.00 5.00 L4.00 5.00 L4.00 6.00 L5.00 6.00 L5.00 5.00 L6.00 5.00 L6.00 6.00 L7.00 6.00 L7.00 5.00 L6.00 5.00 L6.00 4.00 L7.00 4.00 L7.00 3.00 L8.00 3.00 L8.00 4.00 L7.00 4.00 L7.00 5.00 L8.00 5.00 L8.00 6.00 L9.00 6.00 L9.00 5.00 L10.00 5.00 L10.00 6.00 L9.00 6.00 L9.00 7.00 L10.00 7.00 L10.00 8.00 L9.00 8.00 L9.00 9.00 L8.00 9.00 L8.00 8.00 L7.00 8.00 L7.00 9.00 L8.00 9.00 L8.00 10.00 L9.00 10.00 L9.00 9.00 L10.00 9.00 L10.00 10.00 L11.00 10.00 L11.00 9.00 L10.00 9.00 L10.00 8.00 L11.00 8.00 L11.00 7.00 L12.00 7.00 L12.00 8.00 L13.00 8.00 L13.00 7.00 L12.00 7.00 L12.00 6.00 L11.00 6.00 L11.00 7.00 L10.00 7.00 L10.00 6.00 L11.00 6.00 L11.00 5.00 L10.00 5.00 L10.00 4.00 L11.00 4.00 L11.00 3.00 L12.00 3.00 L12.00 4.00 L13.00 4.00 L13.00 3.00 L12.00 3.00 L12.00 2.00 L11.00 2.00 L11.00 3.00 L10.00 3.00 L10.00 2.00 L9.00 2.00 L9.00 3.00 L10.00 3.00 L10.00 4.00 L9.00 4.00 L9.00 5.00 L8.00 5.00 L8.00 4.00 L9.00 4.00 L9.00 3.00 L8.00 3.00 L8.00 2.00 L7.00 2.00 L7.00 3.00 L6.00 3.00 L6.00 2.00 L7.00 2.00 L7.00 1.00 L6.00 1.00 L6.00 0.00 L7.00 0.00 L7.00 -1.00 L8.00 -1.00 L8.00 0.00 L7.00 -0.00 L7.00 1.00 L8.00 1.00 L8.00 2.00 L9.00 2.00 L9.00 1.00 L10.00 1.00 L10.00 2.00 L11.00 2.00 L11.00 1.00 L10.00 1.00 L10.00 0.00 L11.00 0.00 L11.00 -1.00 L12.00 -1.00 L12.00 0.00 L13.00 0.00 L13.00 -1.00 L12.00 -1.00 L12.00 -2.00 L11.00 -2.00 L11.00 -1.00 L10.00 -1.00 L10.00 -2.00 L11.00 -2.00 L11.00 -3.00 L10.00 -3.00 L10.00 -4.00 L11.00 -4.00 L11.00 -5.00 L12.00 -5.00 L12.00 -4.00 L11.00 -4.00 L11.00 -3.00 L12.00 -3.00 L12.00 -2.00 L13.00 -2.00 L13.00 -3.00 L14.00 -3.00 L14.00 -2.00 L15.00 -2.00 L15.00 -3.00 L14.00 -3.00 L14.00 -4.00 L15.00 -4.00 L15.00 -5.00 L16.00 -5.00 L16.00 -4.00 L15.00 -4.00 L15.00 -3.00 L16.00 -3.00 L16.00 -2.00 L17.00 -2.00 L17.00 -3.00 L18.00 -3.00 L18.00 -2.00 L17.00 -2.00 L17.00 -1.00 L18.00 -1.00 L18.00 0.00 L17.00 -0.00 L17.00 1.00 L16.00 1.00 L16.00 0.00 L15.00 -0.00 L15.00 1.00 L16.00 1.00 L16.00 2.00 L17.00 2.00 L17.00 1.00 L18.00 1.00 L18.00 2.00 L19.00 2.00 L19.00 1.00 L18.00 1.00 L18.00 0.00 L19.00 0.00 L19.00 -1.00 L20.00 -1.00 L20.00 0.00 L21.00 0.00 L21.00 -1.00 L20.00 -1.00 L20.00 -2.00 L19.00 -2.00 L19.00 -1.00 L18.00 -1.00 L18.00 -2.00 L19.00 -2.00 L19.00 -3.00 L18.00 -3.00 L18.00 -4.00 L19.00 -4.00 L19.00 -5.00 L20.00 -5.00 L20.00 -4.00 L21.00 -4.00 L21.00 -5.00 L20.00 -5.00 L20.00 -6.00 L19.00 -6.00 L19.00 -5.00 L18.00 -5.00 L18.00 -6.00 L17.00 -6.00 L17.00 -5.00 L18.00 -5.00 L18.00 -4.00 L17.00 -4.00 L17.00 -3.00 L16.00 -3.00 L16.00 -4.00 L17.00 -4.00 L17.00 -5.00 L16.00 -5.00 L16.00 -6.00 L15.00 -6.00 L15.00 -5.00 L14.00 -5.00 L14.00 -6.00 L15.00 -6.00 L15.00 -7.00 L14.00 -7.00 L14.00 -8.00 L15.00 -8.00 L15.00 -9.00 L16.00 -9.00 L16.00 -8.00 L17.00 -8.00 L17.00 -9.00 L16.00 -9.00 L16.00 -10.00 L15.00 -10.00 L15.00 -9.00 L14.00 -9.00 L14.00 -10.00 L13.00 -10.00 L13.00 -9.00 L14.00 -9.00 L14.00 -8.00 L13.00 -8.00 L13.00 -7.00 L12.00 -7.00 L12.00 -8.00 L11.00 -8.00 L11.00 -7.00 L12.00 -7.00 L12.00 -6.00 L13.00 -6.00 L13.00 -7.00 L14.00 -7.00 L14.00 -6.00 L13.00 -6.00 L13.00 -5.00 L14.00 -5.00 L14.00 -4.00 L13.00 -4.00 L13.00 -3.00 L12.00 -3.00 L12.00 -4.00 L13.00 -4.00 L13.00 -5.00 L12.00 -5.00 L12.00 -6.00 L11.00 -6.00 L11.00 -5.00 L10.00 -5.00 L10.00 -6.00 L9.00 -6.00 L9.00 -5.00 L10.00 -5.00 L10.00 -4.00 L9.00 -4.00 L9.00 -3.00 L8.00 -3.00 L8.00 -4.00 L9.00 -4.00 L9.00 -5.00 L8.00 -5.00 L8.00 -6.00 L7.00 -6.00 L7.00 -5.00 L6.00 -5.00 L6.00 -6.00 L7.00 -6.00 L7.00 -7.00 L6.00 -7.00 L6.00 -8.00 L7.00 -8.00 L7.00 -9.00 L8.00 -9.00 L8.00 -8.00 L7.00 -8.00 L7.00 -7.00 L8.00 -7.00 L8.00 -6.00 L9.00 -6.00 L9.00 -7.00 L10.00 -7.00 L10.00 -6.00 L11.00 -6.00 L11.00 -7.00 L10.00 -7.00 L10.00 -8.00 L11.00 -8.00 L11.00 -9.00 L12.00 -9.00 L12.00 -8.00 L13.00 -8.00 L13.00 -9.00 L12.00 -9.00 L12.00 -10.00 L11.00 -10.00 L11.00 -9.00 L10.00 -9.00 L10.00 -10.00 L11.00 -10.00 L11.00 -11.00 L10.00 -11.00 L10.00 -12.00 L11.00 -12.00 L11.00 -13.00 L12.00 -13.00 L12.00 -12.00 L13.00 -12.00 L13.00 -13.00 L12.00 -13.00 L12.00 -14.00 L11.00 -14.00 L11.00 -13.00 L10.00 -13.00 L10.00 -14.00 L9.00 -14.00 L9.00 -13.00 L10.00 -13.00 L10.00 -12.00 L9.00 -12.00 L9.00 -11.00 L8.00 -11.00 L8.00 -12.00 L9.00 -12.00 L9.00 -13.00 L8.00 -13.00 L8.00 -14.00 L7.00 -14.00 L7.00 -13.00 L6.00 -13.00 L6.00 -14.00 L7.00 -14.00 L7.00 -15.00 L6.00 -15.00 L6.00 -16.00 L7.00 -16.00 L7.00 -17.00 L8.00 -17.00 L8.00 -16.00 L7.00 -16.00 L7.00 -15.00 L8.00 -15.00 L8.00 -14.00 L9.00 -14.00 L9.00 -15.00 L10.00 -15.00 L10.00 -14.00 L11.00 -14.00 L11.00 -15.00 L10.00 -15.00 L10.00 -16.00 L11.00 -16.00 L11.00 -17.00 L12.00 -17.00 L12.00 -16.00 L13.00 -16.00 L13.00 -17.00 L12.00 -17.00 L12.00 -18.00 L11.00 -18.00 L11.00 -17.00 L10.00 -17.00 L10.00 -18.00 L11.00 -18.00 L11.00 -19.00 L10.00 -19.00 L10.00 -20.00 L11.00 -20.00 L11.00 -21.00 L12.00 -21.00 L12.00 -20.00 L11.00 -20.00 L11.00 -19.00 L12.00 -19.00 L12.00 -18.00 L13.00 -18.00 L13.00 -19.00 L14.00 -19.00 L14.00 -18.00 L15.00 -18.00 L15.00 -19.00 L14.00 -19.00 L14.00 -20.00 L15.00 -20.00 L15.00 -21.00 L16.00 -21.00 L16.00 -20.00 L15.00 -20.00 L15.00 -19.00 L16.00 -19.00 L16.00 -18.00 L17.00 -18.00 L17.00 -19.00 L18.00 -19.00 L18.00 -18.00 L17.00 -18.00 L17.00 -17.00 L18.00 -17.00 L18.00 -16.00 L17.00 -16.00 L17.00 -15.00 L16.00 -15.00 L16.00 -16.00 L15.00 -16.00 L15.00 -15.00 L16.00 -15.00 L16.00 -14.00 L17.00 -14.00 L17.00 -15.00 L18.00 -15.00 L18.00 -14.00 L19.00 -14.00 L19.00 -15.00 L18.00 -15.00 L18.00 -16.00 L19.00 -16.00 L19.00 -17.00 L20.00 -17.00 L20.00 -16.00 L21.00 -16.00 L21.00 -17.00 L20.00 -17.00 L20.00 -18.00 L19.00 -18.00 L19.00 -17.00 L18.00 -17.00 L18.00 -18.00 L19.00 -18.00 L19.00 -19.00 L18.00 -19.00 L18.00 -20.00 L19.00 -20.00 L19.00 -21.00 L20.00 -21.00 L20.00 -20.00 L21.00 -20.00 L21.00 -21.00 L20.00 -21.00 L20.00 -22.00 L19.00 -22.00 L19.00 -21.00 L18.00 -21.00 L18.00 -22.00 L17.00 -22.00 L17.00 -21.00 L18.00 -21.00 L18.00 -20.00 L17.00 -20.00 L17.00 -19.00 L16.00 -19.00 L16.00 -20.00 L17.00 -20.00 L17.00 -21.00 L16.00 -21.00 L16.00 -22.00 L15.00 -22.00 L15.00 -21.00 L14.00 -21.00 L14.00 -22.00 L15.00 -22.00 L15.00 -23.00 L14.00 -23.00 L14.00 -24.00 L15.00 -24.00 L15.00 -25.00 L16.00 -25.00 L16.00 -24.00 L17.00 -24.00 L17.00 -25.00 L16.00 -25.00 L16.00 -26.00 L15.00 -26.00 L15.00 -25.00 L14.00 -25.00 L14.00 -26.00 L13.00 -26.00 L13.00 -25.00 L14.00 -25.00 L14.00 -24.00 L13.00 -24.00 L13.00 -23.00 L12.00 -23.00 L12.00 -24.00 L11.00 -24.00 L11.00 -23.00 L12.00 -23.00 L12.00 -22.00 L13.00 -22.00 L13.00 -23.00 L14.00 -23.00 L14.00 -22.00 L13.00 -22.00 L13.00 -21.00 L14.00 -21.00 L14.00 -20.00 L13.00 -20.00 L13.00 -19.00 L12.00 -19.00 L12.00 -20.00 L13.00 -20.00 L13.00 -21.00 L12.00 -21.00 L12.00 -22.00 L11.00 -22.00 L11.00 -21.00 L10.00 -21.00 L10.00 -22.00 L9.00 -22.00 L9.00 -21.00 L10.00 -21.00 L10.00 -20.00 L9.00 -20.00 L9.00 -19.00 L8.00 -19.00 L8.00 -20.00 L9.00 -20.00 L9.00 -21.00 L8.00 -21.00 L8.00 -22.00 L7.00 -22.00 L7.00 -21.00 L6.00 -21.00 L6.00 -22.00 L7.00 -22.00 L7.00 -23.00 L6.00 -23.00 L6.00 -24.00 L7.00 -24.00 L7.00 -25.00 L8.00 -25.00 L8.00 -24.00 L9.00 -24.00 L9.00 -25.00 L8.00 -25.00 L8.00 -26.00 L7.00 -26.00 L7.00 -25.00 L6.00 -25.00 L6.00 -26.00 L5.00 -26.00 L5.00 -25.00 L6.00 -25.00 L6.00 -24.00 L5.00 -24.00 L5.00 -23.00 L4.00 -23.00 L4.00 -24.00 L3.00 -24.00 L3.00 -23.00 L4.00 -23.00 L4.00 -22.00 L5.00 -22.00 L5.00 -23.00 L6.00 -23.00 L6.00 -22.00 L5.00 -22.00 L5.00 -21.00 L6.00 -21.00 L6.00 -20.00 L5.00 -20.00 L5.00 -19.00 L4.00 -19.00 L4.00 -20.00 L3.00 -20.00 L3.00 -19.00 L4.00 -19.00 L4.00 -18.00 L5.00 -18.00 L5.00 -19.00 L6.00 -19.00 L6.00 -18.00 L7.00 -18.00 L7.00 -19.00 L6.00 -19.00 L6.00 -20.00 L7.00 -20.00 L7.00 -21.00 L8.00 -21.00 L8.00 -20.00 L7.00 -20.00 L7.00 -19.00 L8.00 -19.00 L8.00 -18.00 L9.00 -18.00 L9.00 -19.00 L10.00 -19.00 L10.00 -18.00 L9.00 -18.00 L9.00 -17.00 L10.00 -17.00 L10.00 -16.00 L9.00 -16.00 L9.00 -15.00 L8.00 -15.00 L8.00 -16.00 L9.00 -16.00 L9.00 -17.00 L8.00 -17.00 L8.00 -18.00 L7.00 -18.00 L7.00 -17.00 L6.00 -17.00 L6.00 -18.00 L5.00 -18.00 L5.00 -17.00 L6.00 -17.00 L6.00 -16.00 L5.00 -16.00 L5.00 -15.00 L4.00 -15.00 L4.00 -16.00 L3.00 -16.00 L3.00 -15.00 L4.00 -15.00 L4.00 -14.00 L5.00 -14.00 L5.00 -15.00 L6.00 -15.00 L6.00 -14.00 L5.00 -14.00 L5.00 -13.00 L6.00 -13.00 L6.00 -12.00 L5.00 -12.00 L5.00 -11.00 L4.00 -11.00 L4.00 -12.00 L5.00 -12.00 L5.00 -13.00 L4.00 -13.00 L4.00 -14.00 L3.00 -14.00 L3.00 -13.00 L2.00 -13.00 L2.00 -14.00 L1.00 -14.00 L1.00 -13.00 L2.00 -13.00 L2.00 -12.00 L1.00 -12.00 L1.00 -11.00 L0.00 -11.00 L0.00 -12.00 L1.00 -12.00 L1.00 -13.00 L0.00 -13.00 L0.00 -14.00 L-1.00 -14.00 L-1.00 -13.00 L-2.00 -13.00 L-2.00 -14.00 L-1.00 -14.00 L-1.00 -15.00 L-2.00 -15.00 L-2.00 -16.00 L-1.00 -16.00 L-1.00 -17.00 L0.00 -17.00 L-0.00 -16.00 L-1.00 -16.00 L-1.00 -15.00 L0.00 -15.00 L-0.00 -14.00 L1.00 -14.00 L1.00 -15.00 L2.00 -15.00 L2.00 -14.00 L3.00 -14.00 L3.00 -15.00 L2.00 -15.00 L2.00 -16.00 L3.00 -16.00 L3.00 -17.00 L4.00 -17.00 L4.00 -16.00 L5.00 -16.00 L5.00 -17.00 L4.00 -17.00 L4.00 -18.00 L3.00 -18.00 L3.00 -17.00 L2.00 -17.00 L2.00 -18.00 L3.00 -18.00 L3.00 -19.00 L2.00 -19.00 L2.00 -20.00 L3.00 -20.00 L3.00 -21.00 L4.00 -21.00 L4.00 -20.00 L5.00 -20.00 L5.00 -21.00 L4.00 -21.00 L4.00 -22.00 L3.00 -22.00 L3.00 -21.00 L2.00 -21.00 L2.00 -22.00 L1.00 -22.00 L1.00 -21.00 L2.00 -21.00 L2.00 -20.00 L1.00 -20.00 L1.00 -19.00 L0.00 -19.00 L0.00 -20.00 L1.00 -20.00 L1.00 -21.00 L0.00 -21.00 L0.00 -22.00 L-1.00 -22.00 L-1.00 -21.00 L-2.00 -21.00 L-2.00 -22.00 L-1.00 -22.00 L-1.00 -23.00 L-2.00 -23.00 L-2.00 -24.00 L-1.00 -24.00 L-1.00 -25.00 L0.00 -25.00 L-0.00 -24.00 L1.00 -24.00 L1.00 -25.00 L0.00 -25.00 L0.00 -26.00 L-1.00 -26.00 L-1.00 -25.00 L-2.00 -25.00 L-2.00 -26.00 L-3.00 -26.00 L-3.00 -25.00 L-2.00 -25.00 L-2.00 -24.00 L-3.00 -24.00 L-3.00 -23.00 L-4.00 -23.00 L-4.00 -24.00 L-5.00 -24.00 L-5.00 -23.00 L-4.00 -23.00 L-4.00 -22.00 L-3.00 -22.00 L-3.00 -23.00 L-2.00 -23.00 L-2.00 -22.00 L-3.00 -22.00 L-3.00 -21.00 L-2.00 -21.00 L-2.00 -20.00 L-3.00 -20.00 L-3.00 -19.00 L-4.00 -19.00 L-4.00 -20.00 L-3.00 -20.00 L-3.00 -21.00 L-4.00 -21.00 L-4.00 -22.00 L-5.00 -22.00 L-5.00 -21.00 L-6.00 -21.00 L-6.00 -22.00 L-7.00 -22.00 L-7.00 -21.00 L-6.00 -21.00 L-6.00 -20.00 L-7.00 -20.00 L-7.00 -19.00 L-8.00 -19.00 L-8.00 -20.00 L-7.00 -20.00 L-7.00 -21.00 L-8.00 -21.00 L-8.00 -22.00 L-9.00 -22.00 L-9.00 -21.00 L-10.00 -21.00 L-10.00 -22.00 L-9.00 -22.00 L-9.00 -23.00 L-10.00 -23.00 L-10.00 -24.00 L-9.00 -24.00 L-9.00 -25.00 L-8.00 -25.00 L-8.00 -24.00 L-9.00 -24.00 L-9.00 -23.00 L-8.00 -23.00 L-8.00 -22.00 L-7.00 -22.00 L-7.00 -23.00 L-6.00 -23.00 L-6.00 -22.00 L-5.00 -22.00 L-5.00 -23.00 L-6.00 -23.00 L-6.00 -24.00 L-5.00 -24.00 L-5.00 -25.00 L-4.00 -25.00 L-4.00 -24.00 L-3.00 -24.00 L-3.00 -25.00 L-4.00 -25.00 L-4.00 -26.00 L-5.00 -26.00 L-5.00 -25.00 L-6.00 -25.00 L-6.00 -26.00 L-5.00 -26.00 L-5.00 -27.00 L-6.00 -27.00 L-6.00 -28.00 L-5.00 -28.00 L-5.00 -29.00 L-4.00 -29.00 L-4.00 -28.00 L-3.00 -28.00 L-3.00 -29.00 L-4.00 -29.00 L-4.00 -30.00 L-5.00 -30.00 L-5.00 -29.00 L-6.00 -29.00 L-6.00 -30.00 L-7.00 -30.00 L-7.00 -29.00 L-6.00 -29.00 L-6.00 -28.00 L-7.00 -28.00 L-7.00 -27.00 L-8.00 -27.00 L-8.00 -28.00 L-7.00 -28.00 L-7.00 -29.00 L-8.00 -29.00 L-8.00 -30.00 L-9.00 -30.00 L-9.00 -29.00 L-10.00 -29.00 L-10.00 -30.00 L-9.00 -30.00 L-9.00 -31.00 L-10.00 -31.00 L-10.00 -32.00 L-9.00 -32.00 L-9.00 -33.00 L-8.00 -33.00 L-8.00 -32.00 L-9.00 -32.00 L-9.00 -31.00 L-8.00 -31.00 L-8.00 -30.00 L-7.00 -30.00 L-7.00 -31.00 L-6.00 -31.00 L-6.00 -30.00 L-5.00 -30.00 L-5.00 -31.00 L-6.00 -31.00 L-6.00 -32.00 L-5.00 -32.00 L-5.00 -33.00 L-4.00 -33.00 L-4.00 -32.00 L-3.00 -32.00 L-3.00 -33.00 L-4.00 -33.00 L-4.00 -34.00 L-5.00 -34.00 L-5.00 -33.00 L-6.00 -33.00 L-6.00 -34.00 L-5.00 -34.00 L-5.00 -35.00 L-6.00 -35.00 L-6.00 -36.00 L-5.00 -36.00 L-5.00 -37.00 L-4.00 -37.00 L-4.00 -36.00 L-5.00 -36.00 L-5.00 -35.00 L-4.00 -35.00 L-4.00 -34.00 L-3.00 -34.00 L-3.00 -35.00 L-2.00 -35.00 L-2.00 -34.00 L-1.00 -34.00 L-1.00 -35.00 L-2.00 -35.00 L-2.00 -36.00 L-1.00 -36.00 L-1.00 -37.00 L0.00 -37.00 L-0.00 -36.00 L-1.00 -36.00 L-1.00 -35.00 L0.00 -35.00 L-0.00 -34.00 L1.00 -34.00 L1.00 -35.00 L2.00 -35.00 L2.00 -34.00 L1.00 -34.00 L1.00 -33.00 L2.00 -33.00 L2.00 -32.00 L1.00 -32.00 L1.00 -31.00 L0.00 -31.00 L0.00 -32.00 "/>
</g>
</svg>

