<svg viewBox="0 0 400.000000 377.583618" xmlns="http://www.w3.org/2000/svg" version="1.1">
<!-- SEED 88577367 -->
<rect width="400.000000" height="377.583618" fill="#DDAADD" fill-opacity="1.000000"/>
<g transform="scale(6.182382,6.150215) translate(41.349976,57.543564) ">
<path stroke="#000000" stroke-opacity="1.000000" stroke-width="0.300000" fill="none" fill-opacity="1" d="M0.00 0.00 L0.50 -0.87 L-0.50 -0.87 L-1.00 -1.73 L0.00 -1.73 L1.00 -1.73 L1.50 -0.87 L2.50 -0.87 L3.00 -1.73 L3.50 -2.60 L2.50 -2.60 L2.00 -1.73 L1.50 -2.60 L2.00 -3.46 L1.50 -4.33 L0.50 -4.33 L-0.50 -4.33 L0.00 -3.46 L1.00 -3.46 L0.50 -2.60 L-0.50 -2.60 L-1.00 -3.46 L-2.00 -3.46 L-1.50 -2.60 L-2.00 -1.73 L-2.50 -2.60 L-3.00 -3.46 L-2.50 -4.33 L-1.50 -4.33 L-1.00 -5.20 L-2.00 -5.20 L-2.50 -6.06 L-1.50 -6.06 L-0.50 -6.06 L0.00 -5.20 L1.00 -5.20 L1.50 -6.06 L0.50 -6.06 L0.00 -6.93 L1.00 -6.93 L2.00 -6.93 L2.50 -6.06 L2.00 -5.20 L2.50 -4.33 L3.00 -3.46 L3.50 -4.33 L3.00 -5.20 L4.00 -5.20 L4.50 -4.33 L5.50 -4.33 L6.00 -5.20 L5.00 -5.20 L4.50 -6.06 L5.50 -6.06 L6.50 -6.06 L7.00 -5.20 L8.00 -5.20 L8.50 -6.06 L9.00 -6.93 L8.00 -6.93 L7.50 -6.06 L7.00 -6.93 L7.50 -7.79 L8.50 -7.79 L9.00 -8.66 L9.50 -9.53 L8.50 -9.53 L8.00 -8.66 L7.50 -9.53 L8.00 -10.39 L7.50 -11.26 L6.50 -11.26 L5.50 -11.26 L6.00 -10.39 L7.00 -10.39 L6.50 -9.53 L5.50 -9.53 L5.00 -8.66 L5.50 -7.79 L6.00 -8.66 L7.00 -8.66 L6.50 -7.79 L6.00 -6.93 L5.00 -6.93 L4.50 -7.79 L3.50 -7.79 L4.00 -6.93 L3.50 -6.06 L3.00 -6.93 L2.50 -7.79 L3.00 -8.66 L4.00 -8.66 L4.50 -9.53 L5.00 -10.39 L4.00 -10.39 L3.50 -9.53 L3.00 -10.39 L3.50 -11.26 L3.00 -12.12 L2.00 -12.12 L2.50 -11.26 L2.00 -10.39 L1.50 -11.26 L1.00 -12.12 L1.50 -12.99 L1.00 -13.86 L0.00 -13.86 L-1.00 -13.86 L-0.50 -12.99 L0.50 -12.99 L0.00 -12.12 L-1.00 -12.12 L-1.50 -12.99 L-2.50 -12.99 L-3.50 -12.99 L-3.00 -12.12 L-2.00 -12.12 L-2.50 -11.26 L-3.50 -11.26 L-4.00 -10.39 L-3.50 -9.53 L-3.00 -8.66 L-2.50 -9.53 L-3.00 -10.39 L-2.00 -10.39 L-1.50 -9.53 L-0.50 -9.53 L0.00 -10.39 L-1.00 -10.39 L-1.50 -11.26 L-0.50 -11.26 L0.50 -11.26 L1.00 -10.39 L0.50 -9.53 L1.00 -8.66 L1.50 -9.53 L2.50 -9.53 L2.00 -8.66 L1.50 -7.79 L0.50 -7.79 L0.00 -8.66 L-1.00 -8.66 L-2.00 -8.66 L-1.50 -7.79 L-0.50 -7.79 L-1.00 -6.93 L-2.00 -6.93 L-2.50 -7.79 L-3.50 -7.79 L-3.00 -6.93 L-3.50 -6.06 L-4.00 -6.93 L-4.50 -7.79 L-4.00 -8.66 L-4.50 -9.53 L-5.50 -9.53 L-6.50 -9.53 L-6.00 -8.66 L-5.00 -8.66 L-5.50 -7.79 L-6.50 -7.79 L-7.00 -6.93 L-6.50 -6.06 L-6.00 -5.20 L-5.50 -6.06 L-6.00 -6.93 L-5.00 -6.93 L-4.50 -6.06 L-5.00 -5.20 L-4.50 -4.33 L-4.00 -5.20 L-3.00 -5.20 L-3.50 -4.33 L-4.00 -3.46 L-5.00 -3.46 L-5.50 -4.33 L-6.50 -4.33 L-6.00 -3.46 L-6.50 -2.60 L-7.00 -3.46 L-7.50 -4.33 L-7.00 -5.20 L-7.50 -6.06 L-8.50 -6.06 L-8.00 -5.20 L-8.50 -4.33 L-9.00 -5.20 L-9.50 -6.06 L-9.00 -6.93 L-8.00 -6.93 L-7.50 -7.79 L-7.00 -8.66 L-8.00 -8.66 L-8.50 -7.79 L-9.00 -8.66 L-8.50 -9.53 L-7.50 -9.53 L-7.00 -10.39 L-8.00 -10.39 L-8.50 -11.26 L-7.50 -11.26 L-6.50 -11.26 L-6.00 -10.39 L-5.00 -10.39 L-4.50 -11.26 L-4.00 -12.12 L-5.00 -12.12 L-5.50 -11.26 L-6.00 -12.12 L-5.50 -12.99 L-6.00 -13.86 L-7.00 -13.86 L-8.00 -13.86 L-7.50 -12.99 L-6.50 -12.99 L-7.00 -12.12 L-8.00 -12.12 L-8.50 -12.99 L-9.50 -12.99 L-9.00 -12.12 L-9.50 -11.26 L-10.00 -12.12 L-10.50 -12.99 L-10.00 -13.86 L-9.00 -13.86 L-8.50 -14.72 L-9.50 -14.72 L-10.00 -15.59 L-9.00 -15.59 L-8.00 -15.59 L-7.50 -14.72 L-6.50 -14.72 L-6.00 -15.59 L-7.00 -15.59 L-7.50 -16.45 L-6.50 -16.45 L-5.50 -16.45 L-5.00 -15.59 L-5.50 -14.72 L-5.00 -13.86 L-4.50 -12.99 L-4.00 -13.86 L-4.50 -14.72 L-3.50 -14.72 L-3.00 -13.86 L-2.00 -13.86 L-1.50 -14.72 L-2.50 -14.72 L-3.00 -15.59 L-2.00 -15.59 L-1.00 -15.59 L-0.50 -14.72 L0.50 -14.72 L1.00 -15.59 L1.50 -16.45 L0.50 -16.45 L0.00 -15.59 L-0.50 -16.45 L0.00 -17.32 L-0.50 -18.19 L-1.50 -18.19 L-2.50 -18.19 L-2.00 -17.32 L-1.00 -17.32 L-1.50 -16.45 L-2.50 -16.45 L-3.00 -17.32 L-4.00 -17.32 L-3.50 -16.45 L-4.00 -15.59 L-4.50 -16.45 L-5.00 -17.32 L-4.50 -18.19 L-3.50 -18.19 L-3.00 -19.05 L-4.00 -19.05 L-4.50 -19.92 L-3.50 -19.92 L-2.50 -19.92 L-2.00 -19.05 L-1.00 -19.05 L-0.50 -19.92 L-1.50 -19.92 L-2.00 -20.78 L-1.00 -20.78 L0.00 -20.78 L0.50 -19.92 L0.00 -19.05 L0.50 -18.19 L1.00 -17.32 L1.50 -18.19 L1.00 -19.05 L2.00 -19.05 L2.50 -18.19 L2.00 -17.32 L2.50 -16.45 L3.00 -17.32 L4.00 -17.32 L3.50 -16.45 L3.00 -15.59 L2.00 -15.59 L1.50 -14.72 L2.00 -13.86 L2.50 -12.99 L3.00 -13.86 L2.50 -14.72 L3.50 -14.72 L4.00 -13.86 L3.50 -12.99 L4.00 -12.12 L4.50 -11.26 L5.00 -12.12 L4.50 -12.99 L5.50 -12.99 L6.00 -12.12 L7.00 -12.12 L7.50 -12.99 L8.00 -13.86 L7.00 -13.86 L6.50 -12.99 L6.00 -13.86 L6.50 -14.72 L6.00 -15.59 L5.00 -15.59 L5.50 -14.72 L5.00 -13.86 L4.50 -14.72 L4.00 -15.59 L4.50 -16.45 L5.50 -16.45 L6.00 -17.32 L5.00 -17.32 L4.50 -18.19 L5.50 -18.19 L6.50 -18.19 L7.00 -17.32 L6.50 -16.45 L7.00 -15.59 L7.50 -14.72 L8.00 -15.59 L7.50 -16.45 L8.50 -16.45 L9.00 -15.59 L10.00 -15.59 L10.50 -16.45 L9.50 -16.45 L9.00 -17.32 L10.00 -17.32 L11.00 -17.32 L11.50 -16.45 L12.50 -16.45 L13.00 -17.32 L13.50 -18.19 L12.50 -18.19 L12.00 -17.32 L11.50 -18.19 L12.00 -19.05 L11.50 -19.92 L10.50 -19.92 L9.50 -19.92 L10.00 -19.05 L11.00 -19.05 L10.50 -18.19 L9.50 -18.19 L9.00 -19.05 L8.00 -19.05 L8.50 -18.19 L8.00 -17.32 L7.50 -18.19 L7.00 -19.05 L7.50 -19.92 L8.50 -19.92 L9.00 -20.78 L8.00 -20.78 L7.50 -21.65 L8.50 -21.65 L9.50 -21.65 L10.00 -20.78 L11.00 -20.78 L11.50 -21.65 L10.50 -21.65 L10.00 -22.52 L11.00 -22.52 L12.00 -22.52 L12.50 -21.65 L12.00 -20.78 L12.50 -19.92 L13.00 -19.05 L13.50 -19.92 L13.00 -20.78 L14.00 -20.78 L14.50 -19.92 L15.50 -19.92 L16.00 -20.78 L15.00 -20.78 L14.50 -21.65 L15.50 -21.65 L16.50 -21.65 L17.00 -20.78 L18.00 -20.78 L18.50 -21.65 L19.00 -22.52 L18.00 -22.52 L17.50 -21.65 L17.00 -22.52 L17.50 -23.38 L18.50 -23.38 L19.00 -24.25 L19.50 -25.11 L18.50 -25.11 L18.00 -24.25 L17.50 -25.11 L18.00 -25.98 L17.50 -26.85 L16.50 -26.85 L15.50 -26.85 L16.00 -25.98 L17.00 -25.98 L16.50 -25.11 L15.50 -25.11 L15.00 -24.25 L15.50 -23.38 L16.00 -24.25 L17.00 -24.25 L16.50 -23.38 L16.00 -22.52 L15.00 -22.52 L14.50 -23.38 L13.50 -23.38 L14.00 -22.52 L13.50 -21.65 L13.00 -22.52 L12.50 -23.38 L13.00 -24.25 L14.00 -24.25 L14.50 -25.11 L15.00 -25.98 L14.00 -25.98 L13.50 -25.11 L13.00 -25.98 L13.50 -26.85 L14.50 -26.85 L15.00 -27.71 L14.00 -27.71 L13.50 -28.58 L14.50 -28.58 L15.50 -28.58 L16.00 -27.71 L17.00 -27.71 L17.50 -28.58 L18.00 -29.44 L17.00 -29.44 L16.50 -28.58 L16.00 -29.44 L16.50 -30.31 L17.50 -30.31 L18.00 -31.18 L18.50 -32.04 L17.50 -32.04 L17.00 -31.18 L16.50 -32.04 L17.00 -32.91 L16.50 -33.78 L15.50 -33.78 L14.50 -33.78 L15.00 -32.91 L16.00 -32.91 L15.50 -32.04 L14.50 -32.04 L14.00 -31.18 L14.50 -30.31 L15.00 -31.18 L16.00 -31.18 L15.50 -30.31 L15.00 -29.44 L14.00 -29.44 L13.50 -30.31 L12.50 -30.31 L13.00 -29.44 L12.50 -28.58 L12.00 -29.44 L11.50 -30.31 L12.00 -31.18 L13.00 -31.18 L13.50 -32.04 L14.00 -32.91 L13.00 -32.91 L12.50 -32.04 L12.00 -32.91 L12.50 -33.78 L12.00 -34.64 L11.00 -34.64 L11.50 -33.78 L11.00 -32.91 L10.50 -33.78 L10.00 -34.64 L10.50 -35.51 L10.00 -36.37 L9.00 -36.37 L8.00 -36.37 L8.50 -35.51 L9.50 -35.51 L9.00 -34.64 L8.00 -34.64 L7.50 -35.51 L6.50 -35.51 L5.50 -35.51 L6.00 -34.64 L7.00 -34.64 L6.50 -33.78 L5.50 -33.78 L5.00 -32.91 L5.50 -32.04 L6.00 -31.18 L6.50 -32.04 L6.00 -32.91 L7.00 -32.91 L7.50 -32.04 L8.50 -32.04 L9.00 -32.91 L8.00 -32.91 L7.50 -33.78 L8.50 -33.78 L9.50 -33.78 L10.00 -32.91 L9.50 -32.04 L10.00 -31.18 L10.50 -32.04 L11.50 -32.04 L11.00 -31.18 L10.50 -30.31 L9.50 -30.31 L9.00 -31.18 L8.00 -31.18 L7.00 -31.18 L7.50 -30.31 L8.50 -30.31 L8.00 -29.44 L7.00 -29.44 L6.50 -28.58 L7.00 -27.71 L7.50 -28.58 L8.50 -28.58 L8.00 -27.71 L7.50 -26.85 L6.50 -26.85 L6.00 -25.98 L6.50 -25.11 L7.00 -24.25 L7.50 -25.11 L7.00 -25.98 L8.00 -25.98 L8.50 -25.11 L9.50 -25.11 L10.00 -25.98 L10.50 -26.85 L9.50 -26.85 L9.00 -25.98 L8.50 -26.85 L9.00 -27.71 L10.00 -27.71 L10.50 -28.58 L9.50 -28.58 L9.00 -29.44 L10.00 -29.44 L11.00 -29.44 L11.50 -28.58 L11.00 -27.71 L11.50 -26.85 L12.00 -27.71 L13.00 -27.71 L12.50 -26.85 L12.00 -25.98 L11.00 -25.98 L10.50 -25.11 L11.00 -24.25 L11.50 -25.11 L12.50 -25.11 L12.00 -24.25 L11.50 -23.38 L10.50 -23.38 L10.00 -24.25 L9.00 -24.25 L8.00 -24.25 L8.50 -23.38 L9.50 -23.38 L9.00 -22.52 L8.00 -22.52 L7.50 -23.38 L6.50 -23.38 L7.00 -22.52 L6.50 -21.65 L6.00 -22.52 L5.50 -23.38 L6.00 -24.25 L5.50 -25.11 L4.50 -25.11 L3.50 -25.11 L4.00 -24.25 L5.00 -24.25 L4.50 -23.38 L3.50 -23.38 L3.00 -22.52 L3.50 -21.65 L4.00 -20.78 L4.50 -21.65 L4.00 -22.52 L5.00 -22.52 L5.50 -21.65 L5.00 -20.78 L5.50 -19.92 L6.00 -20.78 L7.00 -20.78 L6.50 -19.92 L6.00 -19.05 L5.00 -19.05 L4.50 -19.92 L3.50 -19.92 L4.00 -19.05 L3.50 -18.19 L3.00 -19.05 L2.50 -19.92 L3.00 -20.78 L2.50 -21.65 L1.50 -21.65 L2.00 -20.78 L1.50 -19.92 L1.00 -20.78 L0.50 -21.65 L1.00 -22.52 L2.00 -22.52 L2.50 -23.38 L3.00 -24.25 L2.00 -24.25 L1.50 -23.38 L1.00 -24.25 L1.50 -25.11 L2.50 -25.11 L3.00 -25.98 L2.00 -25.98 L1.50 -26.85 L2.50 -26.85 L3.50 -26.85 L4.00 -25.98 L5.00 -25.98 L5.50 -26.85 L6.00 -27.71 L5.00 -27.71 L4.50 -26.85 L4.00 -27.71 L4.50 -28.58 L5.50 -28.58 L6.00 -29.44 L6.50 -30.31 L5.50 -30.31 L5.00 -29.44 L4.50 -30.31 L5.00 -31.18 L4.50 -32.04 L3.50 -32.04 L2.50 -32.04 L3.00 -31.18 L4.00 -31.18 L3.50 -30.31 L2.50 -30.31 L2.00 -29.44 L2.50 -28.58 L3.00 -29.44 L4.00 -29.44 L3.50 -28.58 L3.00 -27.71 L2.00 -27.71 L1.50 -28.58 L0.50 -28.58 L1.00 -27.71 L0.50 -26.85 L0.00 -27.71 L-0.50 -28.58 L0.00 -29.44 L1.00 -29.44 L1.50 -30.31 L2.00 -31.18 L1.00 -31.18 L0.50 -30.31 L0.00 -31.18 L0.50 -32.04 L0.00 -32.91 L-1.00 -32.91 L-0.50 -32.04 L-1.00 -31.18 L-1.50 -32.04 L-2.00 -32.91 L-1.50 -33.78 L-2.00 -34.64 L-3.00 -34.64 L-4.00 -34.64 L-3.50 -33.78 L-2.50 -33.78 L-3.00 -32.91 L-4.00 -32.91 L-4.50 -32.04 L-4.00 -31.18 L-3.50 -30.31 L-3.00 -31.18 L-3.50 -32.04 L-2.50 -32.04 L-2.00 -31.18 L-2.50 -30.31 L-2.00 -29.44 L-1.50 -30.31 L-0.50 -30.31 L-1.00 -29.44 L-1.50 -28.58 L-2.50 -28.58 L-3.00 -29.44 L-4.00 -29.44 L-3.50 -28.58 L-4.00 -27.71 L-4.50 -28.58 L-5.00 -29.44 L-4.50 -30.31 L-5.00 -31.18 L-6.00 -31.18 L-5.50 -30.31 L-6.00 -29.44 L-6.50 -30.31 L-7.00 -31.18 L-6.50 -32.04 L-5.50 -32.04 L-5.00 -32.91 L-4.50 -33.78 L-5.50 -33.78 L-6.00 -32.91 L-6.50 -33.78 L-6.00 -34.64 L-6.50 -35.51 L-7.50 -35.51 L-7.00 -34.64 L-7.50 -33.78 L-8.00 -34.64 L-8.50 -35.51 L-8.00 -36.37 L-8.50 -37.24 L-9.50 -37.24 L-10.50 -37.24 L-10.00 -36.37 L-9.00 -36.37 L-9.50 -35.51 L-10.50 -35.51 L-11.00 -36.37 L-12.00 -36.37 L-13.00 -36.37 L-12.50 -35.51 L-11.50 -35.51 L-12.00 -34.64 L-13.00 -34.64 L-13.50 -33.78 L-13.00 -32.91 L-12.50 -32.04 L-12.00 -32.91 L-12.50 -33.78 L-11.50 -33.78 L-11.00 -32.91 L-10.00 -32.91 L-9.50 -33.78 L-10.50 -33.78 L-11.00 -34.64 L-10.00 -34.64 L-9.00 -34.64 L-8.50 -33.78 L-9.00 -32.91 L-8.50 -32.04 L-8.00 -32.91 L-7.00 -32.91 L-7.50 -32.04 L-8.00 -31.18 L-9.00 -31.18 L-9.50 -32.04 L-10.50 -32.04 L-11.50 -32.04 L-11.00 -31.18 L-10.00 -31.18 L-10.50 -30.31 L-11.50 -30.31 L-12.00 -31.18 L-13.00 -31.18 L-12.50 -30.31 L-13.00 -29.44 L-13.50 -30.31 L-14.00 -31.18 L-13.50 -32.04 L-14.00 -32.91 L-15.00 -32.91 L-16.00 -32.91 L-15.50 -32.04 L-14.50 -32.04 L-15.00 -31.18 L-16.00 -31.18 L-16.50 -32.04 L-17.50 -32.04 L-18.50 -32.04 L-18.00 -31.18 L-17.00 -31.18 L-17.50 -30.31 L-18.50 -30.31 L-19.00 -29.44 L-18.50 -28.58 L-18.00 -27.71 L-17.50 -28.58 L-18.00 -29.44 L-17.00 -29.44 L-16.50 -28.58 L-15.50 -28.58 L-15.00 -29.44 L-16.00 -29.44 L-16.50 -30.31 L-15.50 -30.31 L-14.50 -30.31 L-14.00 -29.44 L-14.50 -28.58 L-14.00 -27.71 L-13.50 -28.58 L-12.50 -28.58 L-13.00 -27.71 L-13.50 -26.85 L-14.50 -26.85 L-15.00 -27.71 L-16.00 -27.71 L-17.00 -27.71 L-16.50 -26.85 L-15.50 -26.85 L-16.00 -25.98 L-17.00 -25.98 L-17.50 -25.11 L-17.00 -24.25 L-16.50 -25.11 L-15.50 -25.11 L-16.00 -24.25 L-16.50 -23.38 L-17.50 -23.38 L-18.00 -22.52 L-17.50 -21.65 L-17.00 -20.78 L-16.50 -21.65 L-17.00 -22.52 L-16.00 -22.52 L-15.50 -21.65 L-16.00 -20.78 L-15.50 -19.92 L-15.00 -19.05 L-14.50 -19.92 L-15.00 -20.78 L-14.00 -20.78 L-13.50 -19.92 L-12.50 -19.92 L-12.00 -20.78 L-11.50 -21.65 L-12.50 -21.65 L-13.00 -20.78 L-13.50 -21.65 L-13.00 -22.52 L-13.50 -23.38 L-14.50 -23.38 L-14.00 -22.52 L-14.50 -21.65 L-15.00 -22.52 L-15.50 -23.38 L-15.00 -24.25 L-14.00 -24.25 L-13.50 -25.11 L-14.50 -25.11 L-15.00 -25.98 L-14.00 -25.98 L-13.00 -25.98 L-12.50 -25.11 L-13.00 -24.25 L-12.50 -23.38 L-12.00 -22.52 L-11.50 -23.38 L-12.00 -24.25 L-11.00 -24.25 L-10.50 -23.38 L-9.50 -23.38 L-9.00 -24.25 L-10.00 -24.25 L-10.50 -25.11 L-9.50 -25.11 L-8.50 -25.11 L-8.00 -24.25 L-7.00 -24.25 L-6.50 -25.11 L-6.00 -25.98 L-7.00 -25.98 L-7.50 -25.11 L-8.00 -25.98 L-7.50 -26.85 L-8.00 -27.71 L-9.00 -27.71 L-10.00 -27.71 L-9.50 -26.85 L-8.50 -26.85 L-9.00 -25.98 L-10.00 -25.98 L-10.50 -26.85 L-11.50 -26.85 L-11.00 -25.98 L-11.50 -25.11 L-12.00 -25.98 L-12.50 -26.85 L-12.00 -27.71 L-11.00 -27.71 L-10.50 -28.58 L-11.50 -28.58 L-12.00 -29.44 L-11.00 -29.44 L-10.00 -29.44 L-9.50 -28.58 L-8.50 -28.58 L-8.00 -29.44 L-9.00 -29.44 L-9.50 -30.31 L-8.50 -30.31 L-7.50 -30.31 L-7.00 -29.44 L-7.50 -28.58 L-7.00 -27.71 L-6.50 -26.85 L-6.00 -27.71 L-6.50 -28.58 L-5.50 -28.58 L-5.00 -27.71 L-5.50 -26.85 L-5.00 -25.98 L-4.50 -26.85 L-3.50 -26.85 L-4.00 -25.98 L-4.50 -25.11 L-5.50 -25.11 L-6.00 -24.25 L-5.50 -23.38 L-5.00 -22.52 L-4.50 -23.38 L-5.00 -24.25 L-4.00 -24.25 L-3.50 -23.38 L-2.50 -23.38 L-2.00 -24.25 L-1.50 -25.11 L-2.50 -25.11 L-3.00 -24.25 L-3.50 -25.11 L-3.00 -25.98 L-2.00 -25.98 L-1.50 -26.85 L-2.50 -26.85 L-3.00 -27.71 L-2.00 -27.71 L-1.00 -27.71 L-0.50 -26.85 L-1.00 -25.98 L-0.50 -25.11 L0.00 -25.98 L1.00 -25.98 L0.50 -25.11 L0.00 -24.25 L-1.00 -24.25 L-1.50 -23.38 L-1.00 -22.52 L-0.50 -23.38 L0.50 -23.38 L0.00 -22.52 L-0.50 -21.65 L-1.50 -21.65 L-2.00 -22.52 L-3.00 -22.52 L-4.00 -22.52 L-3.50 -21.65 L-2.50 -21.65 L-3.00 -20.78 L-4.00 -20.78 L-4.50 -21.65 L-5.50 -21.65 L-5.00 -20.78 L-5.50 -19.92 L-6.00 -20.78 L-6.50 -21.65 L-6.00 -22.52 L-6.50 -23.38 L-7.50 -23.38 L-8.50 -23.38 L-8.00 -22.52 L-7.00 -22.52 L-7.50 -21.65 L-8.50 -21.65 L-9.00 -22.52 L-10.00 -22.52 L-11.00 -22.52 L-10.50 -21.65 L-9.50 -21.65 L-10.00 -20.78 L-11.00 -20.78 L-11.50 -19.92 L-11.00 -19.05 L-10.50 -18.19 L-10.00 -19.05 L-10.50 -19.92 L-9.50 -19.92 L-9.00 -19.05 L-8.00 -19.05 L-7.50 -19.92 L-8.50 -19.92 L-9.00 -20.78 L-8.00 -20.78 L-7.00 -20.78 L-6.50 -19.92 L-7.00 -19.05 L-6.50 -18.19 L-6.00 -19.05 L-5.00 -19.05 L-5.50 -18.19 L-6.00 -17.32 L-7.00 -17.32 L-7.50 -18.19 L-8.50 -18.19 L-9.50 -18.19 L-9.00 -17.32 L-8.00 -17.32 L-8.50 -16.45 L-9.50 -16.45 L-10.00 -17.32 L-11.00 -17.32 L-10.50 -16.45 L-11.00 -15.59 L-11.50 -16.45 L-12.00 -17.32 L-11.50 -18.19 L-12.00 -19.05 L-13.00 -19.05 L-14.00 -19.05 L-13.50 -18.19 L-12.50 -18.19 L-13.00 -17.32 L-14.00 -17.32 L-14.50 -16.45 L-14.00 -15.59 L-13.50 -14.72 L-13.00 -15.59 L-13.50 -16.45 L-12.50 -16.45 L-12.00 -15.59 L-12.50 -14.72 L-12.00 -13.86 L-11.50 -14.72 L-10.50 -14.72 L-11.00 -13.86 L-11.50 -12.99 L-12.50 -12.99 L-13.00 -13.86 L-14.00 -13.86 L-13.50 -12.99 L-14.00 -12.12 L-14.50 -12.99 L-15.00 -13.86 L-14.50 -14.72 L-15.00 -15.59 L-16.00 -15.59 L-15.50 -14.72 L-16.00 -13.86 L-16.50 -14.72 L-17.00 -15.59 L-16.50 -16.45 L-15.50 -16.45 L-15.00 -17.32 L-14.50 -18.19 L-15.50 -18.19 L-16.00 -17.32 L-16.50 -18.19 L-16.00 -19.05 L-16.50 -19.92 L-17.50 -19.92 L-17.00 -19.05 L-17.50 -18.19 L-18.00 -19.05 L-18.50 -19.92 L-18.00 -20.78 L-18.50 -21.65 L-19.50 -21.65 L-20.50 -21.65 L-20.00 -20.78 L-19.00 -20.78 L-19.50 -19.92 L-20.50 -19.92 L-21.00 -20.78 L-22.00 -20.78 L-23.00 -20.78 L-22.50 -19.92 L-21.50 -19.92 L-22.00 -19.05 L-23.00 -19.05 L-23.50 -18.19 L-23.00 -17.32 L-22.50 -16.45 L-22.00 -17.32 L-22.50 -18.19 L-21.50 -18.19 L-21.00 -17.32 L-20.00 -17.32 L-19.50 -18.19 L-20.50 -18.19 L-21.00 -19.05 L-20.00 -19.05 L-19.00 -19.05 L-18.50 -18.19 L-19.00 -17.32 L-18.50 -16.45 L-18.00 -17.32 L-17.00 -17.32 L-17.50 -16.45 L-18.00 -15.59 L-19.00 -15.59 L-19.50 -16.45 L-20.50 -16.45 L-21.50 -16.45 L-21.00 -15.59 L-20.00 -15.59 L-20.50 -14.72 L-21.50 -14.72 L-22.00 -13.86 L-21.50 -12.99 L-21.00 -13.86 L-20.00 -13.86 L-20.50 -12.99 L-21.00 -12.12 L-22.00 -12.12 L-22.50 -11.26 L-22.00 -10.39 L-21.50 -9.53 L-21.00 -10.39 L-21.50 -11.26 L-20.50 -11.26 L-20.00 -10.39 L-20.50 -9.53 L-20.00 -8.66 L-19.50 -7.79 L-19.00 -8.66 L-19.50 -9.53 L-18.50 -9.53 L-18.00 -8.66 L-17.00 -8.66 L-16.50 -9.53 L-16.00 -10.39 L-17.00 -10.39 L-17.50 -9.53 L-18.00 -10.39 L-17.50 -11.26 L-18.00 -12.12 L-19.00 -12.12 L-18.50 -11.26 L-19.00 -10.39 L-19.50 -11.26 L-20.00 -12.12 L-19.50 -12.99 L-18.50 -12.99 L-18.00 -13.86 L-19.00 -13.86 L-19.50 -14.72 L-18.50 -14.72 L-17.50 -14.72 L-17.00 -13.86 L-17.50 -12.99 L-17.00 -12.12 L-16.50 -11.26 L-16.00 -12.12 L-16.50 -12.99 L-15.50 -12.99 L-15.00 -12.12 L-15.50 -11.26 L-15.00 -10.39 L-14.50 -11.26 L-13.50 -11.26 L-14.00 -10.39 L-14.50 -9.53 L-15.50 -9.53 L-16.00 -8.66 L-15.50 -7.79 L-15.00 -6.93 L-14.50 -7.79 L-15.00 -8.66 L-14.00 -8.66 L-13.50 -7.79 L-12.50 -7.79 L-12.00 -8.66 L-11.50 -9.53 L-12.50 -9.53 L-13.00 -8.66 L-13.50 -9.53 L-13.00 -10.39 L-12.00 -10.39 L-11.50 -11.26 L-12.50 -11.26 L-13.00 -12.12 L-12.00 -12.12 L-11.00 -12.12 L-10.50 -11.26 L-11.00 -10.39 L-10.50 -9.53 L-10.00 -10.39 L-9.00 -10.39 L-9.50 -9.53 L-10.00 -8.66 L-11.00 -8.66 L-11.50 -7.79 L-11.00 -6.93 L-10.50 -7.79 L-9.50 -7.79 L-10.00 -6.93 L-10.50 -6.06 L-11.50 -6.06 L-12.00 -6.93 L-13.00 -6.93 L-14.00 -6.93 L-13.50 -6.06 L-12.50 -6.06 L-13.00 -5.20 L-14.00 -5.20 L-14.50 -6.06 L-15.50 -6.06 L-15.00 -5.20 L-15.50 -4.33 L-16.00 -5.20 L-16.50 -6.06 L-16.00 -6.93 L-16.50 -7.79 L-17.50 -7.79 L-18.50 -7.79 L-18.00 -6.93 L-17.00 -6.93 L-17.50 -6.06 L-18.50 -6.06 L-19.00 -5.20 L-18.50 -4.33 L-18.00 -3.46 L-17.50 -4.33 L-18.00 -5.20 L-17.00 -5.20 L-16.50 -4.33 L-17.00 -3.46 L-16.50 -2.60 L-16.00 -3.46 L-15.00 -3.46 L-15.50 -2.60 L-16.00 -1.73 L-17.00 -1.73 L-17.50 -2.60 L-18.50 -2.60 L-18.00 -1.73 L-18.50 -0.87 L-19.00 -1.73 L-19.50 -2.60 L-19.00 -3.46 L-19.50 -4.33 L-20.50 -4.33 L-20.00 -3.46 L-20.50 -2.60 L-21.00 -3.46 L-21.50 -4.33 L-21.00 -5.20 L-20.00 -5.20 L-19.50 -6.06 L-19.00 -6.93 L-20.00 -6.93 L-20.50 -6.06 L-21.00 -6.93 L-20.50 -7.79 L-21.00 -8.66 L-22.00 -8.66 L-21.50 -7.79 L-22.00 -6.93 L-22.50 -7.79 L-23.00 -8.66 L-22.50 -9.53 L-23.00 -10.39 L-24.00 -10.39 L-25.00 -10.39 L-24.50 -9.53 L-23.50 -9.53 L-24.00 -8.66 L-25.00 -8.66 L-25.50 -7.79 L-25.00 -6.93 L-24.50 -6.06 L-24.00 -6.93 L-24.50 -7.79 L-23.50 -7.79 L-23.00 -6.93 L-23.50 -6.06 L-23.00 -5.20 L-22.50 -6.06 L-21.50 -6.06 L-22.00 -5.20 L-22.50 -4.33 L-23.50 -4.33 L-24.00 -5.20 L-25.00 -5.20 L-24.50 -4.33 L-25.00 -3.46 L-25.50 -4.33 L-26.00 -5.20 L-25.50 -6.06 L-26.00 -6.93 L-27.00 -6.93 L-26.50 -6.06 L-27.00 -5.20 L-27.50 -6.06 L-28.00 -6.93 L-27.50 -7.79 L-26.50 -7.79 L-26.00 -8.66 L-25.50 -9.53 L-26.50 -9.53 L-27.00 -8.66 L-27.50 -9.53 L-27.00 -10.39 L-26.00 -10.39 L-25.50 -11.26 L-26.50 -11.26 L-27.00 -12.12 L-26.00 -12.12 L-25.00 -12.12 L-24.50 -11.26 L-23.50 -11.26 L-23.00 -12.12 L-22.50 -12.99 L-23.50 -12.99 L-24.00 -12.12 L-24.50 -12.99 L-24.00 -13.86 L-23.00 -13.86 L-22.50 -14.72 L-22.00 -15.59 L-23.00 -15.59 L-23.50 -14.72 L-24.00 -15.59 L-23.50 -16.45 L-24.00 -17.32 L-25.00 -17.32 L-26.00 -17.32 L-25.50 -16.45 L-24.50 -16.45 L-25.00 -15.59 L-26.00 -15.59 L-26.50 -14.72 L-26.00 -13.86 L-25.50 -14.72 L-24.50 -14.72 L-25.00 -13.86 L-25.50 -12.99 L-26.50 -12.99 L-27.00 -13.86 L-28.00 -13.86 L-27.50 -12.99 L-28.00 -12.12 L-28.50 -12.99 L-29.00 -13.86 L-28.50 -14.72 L-27.50 -14.72 L-27.00 -15.59 L-26.50 -16.45 L-27.50 -16.45 L-28.00 -15.59 L-28.50 -16.45 L-28.00 -17.32 L-27.00 -17.32 L-26.50 -18.19 L-27.50 -18.19 L-28.00 -19.05 L-27.00 -19.05 L-26.00 -19.05 L-25.50 -18.19 L-24.50 -18.19 L-24.00 -19.05 L-23.50 -19.92 L-24.50 -19.92 L-25.00 -19.05 L-25.50 -19.92 L-25.00 -20.78 L-25.50 -21.65 L-26.50 -21.65 L-27.50 -21.65 L-27.00 -20.78 L-26.00 -20.78 L-26.50 -19.92 L-27.50 -19.92 L-28.00 -20.78 L-29.00 -20.78 L-28.50 -19.92 L-29.00 -19.05 L-29.50 -19.92 L-30.00 -20.78 L-29.50 -21.65 L-28.50 -21.65 L-28.00 -22.52 L-29.00 -22.52 L-29.50 -23.38 L-28.50 -23.38 L-27.50 -23.38 L-27.00 -22.52 L-26.00 -22.52 L-25.50 -23.38 L-26.50 -23.38 L-27.00 -24.25 L-26.00 -24.25 L-25.00 -24.25 L-24.50 -23.38 L-25.00 -22.52 L-24.50 -21.65 L-24.00 -20.78 L-23.50 -21.65 L-24.00 -22.52 L-23.00 -22.52 L-22.50 -21.65 L-21.50 -21.65 L-21.00 -22.52 L-22.00 -22.52 L-22.50 -23.38 L-21.50 -23.38 L-20.50 -23.38 L-20.00 -22.52 L-19.00 -22.52 L-18.50 -23.38 L-18.00 -24.25 L-19.00 -24.25 L-19.50 -23.38 L-20.00 -24.25 L-19.50 -25.11 L-18.50 -25.11 L-18.00 -25.98 L-17.50 -26.85 L-18.50 -26.85 L-19.00 -25.98 L-19.50 -26.85 L-19.00 -27.71 L-19.50 -28.58 L-20.50 -28.58 L-21.50 -28.58 L-21.00 -27.71 L-20.00 -27.71 L-20.50 -26.85 L-21.50 -26.85 L-22.00 -25.98 L-21.50 -25.11 L-21.00 -25.98 L-20.00 -25.98 L-20.50 -25.11 L-21.00 -24.25 L-22.00 -24.25 L-22.50 -25.11 L-23.50 -25.11 L-23.00 -24.25 L-23.50 -23.38 L-24.00 -24.25 L-24.50 -25.11 L-24.00 -25.98 L-23.00 -25.98 L-22.50 -26.85 L-22.00 -27.71 L-23.00 -27.71 L-23.50 -26.85 L-24.00 -27.71 L-23.50 -28.58 L-24.00 -29.44 L-25.00 -29.44 L-24.50 -28.58 L-25.00 -27.71 L-25.50 -28.58 L-26.00 -29.44 L-25.50 -30.31 L-26.00 -31.18 L-27.00 -31.18 L-28.00 -31.18 L-27.50 -30.31 L-26.50 -30.31 L-27.00 -29.44 L-28.00 -29.44 L-28.50 -30.31 L-29.50 -30.31 L-30.50 -30.31 L-30.00 -29.44 L-29.00 -29.44 L-29.50 -28.58 L-30.50 -28.58 L-31.00 -27.71 L-30.50 -26.85 L-30.00 -25.98 L-29.50 -26.85 L-30.00 -27.71 L-29.00 -27.71 L-28.50 -26.85 L-27.50 -26.85 L-27.00 -27.71 L-28.00 -27.71 L-28.50 -28.58 L-27.50 -28.58 L-26.50 -28.58 L-26.00 -27.71 L-26.50 -26.85 L-26.00 -25.98 L-25.50 -26.85 L-24.50 -26.85 L-25.00 -25.98 L-25.50 -25.11 L-26.50 -25.11 L-27.00 -25.98 L-28.00 -25.98 L-29.00 -25.98 L-28.50 -25.11 L-27.50 -25.11 L-28.00 -24.25 L-29.00 -24.25 L-29.50 -25.11 L-30.50 -25.11 L-30.00 -24.25 L-30.50 -23.38 L-31.00 -24.25 L-31.50 -25.11 L-31.00 -25.98 L-31.50 -26.85 L-32.50 -26.85 L-33.50 -26.85 L-33.00 -25.98 L-32.00 -25.98 L-32.50 -25.11 L-33.50 -25.11 L-34.00 -24.25 L-33.50 -23.38 L-33.00 -22.52 L-32.50 -23.38 L-33.00 -24.25 L-32.00 -24.25 L-31.50 -23.38 L-32.00 -22.52 L-31.50 -21.65 L-31.00 -22.52 L-30.00 -22.52 L-30.50 -21.65 L-31.00 -20.78 L-32.00 -20.78 L-32.50 -21.65 L-33.50 -21.65 L-33.00 -20.78 L-33.50 -19.92 L-34.00 -20.78 L-34.50 -21.65 L-34.00 -22.52 L-34.50 -23.38 L-35.50 -23.38 L-35.00 -22.52 L-35.50 -21.65 L-36.00 -22.52 L-36.50 -23.38 L-36.00 -24.25 L-35.00 -24.25 L-34.50 -25.11 L-34.00 -25.98 L-35.00 -25.98 L-35.50 -25.11 L-36.00 -25.98 L-35.50 -26.85 L-34.50 -26.85 L-34.00 -27.71 L-35.00 -27.71 L-35.50 -28.58 L-34.50 -28.58 L-33.50 -28.58 L-33.00 -27.71 L-32.00 -27.71 L-31.50 -28.58 L-31.00 -29.44 L-32.00 -29.44 L-32.50 -28.58 L-33.00 -29.44 L-32.50 -30.31 L-33.00 -31.18 L-34.00 -31.18 L-35.00 -31.18 L-34.50 -30.31 L-33.50 -30.31 L-34.00 -29.44 L-35.00 -29.44 L-35.50 -30.31 L-36.50 -30.31 L-36.00 -29.44 L-36.50 -28.58 L-37.00 -29.44 L-37.50 -30.31 L-37.00 -31.18 L-36.00 -31.18 L-35.50 -32.04 L-36.50 -32.04 L-37.00 -32.91 L-36.00 -32.91 L-35.00 -32.91 L-34.50 -32.04 L-33.50 -32.04 L-33.00 -32.91 L-34.00 -32.91 L-34.50 -33.78 L-33.50 -33.78 L-32.50 -33.78 L-32.00 -32.91 L-32.50 -32.04 L-32.00 -31.18 L-31.50 -30.31 L-31.00 -31.18 L-31.50 -32.04 L-30.50 -32.04 L-30.00 -31.18 L-29.00 -31.18 L-28.50 -32.04 L-29.50 -32.04 L-30.00 -32.91 L-29.00 -32.91 L-28.00 -32.91 L-27.50 -32.04 L-26.50 -32.04 L-26.00 -32.91 L-25.50 -33.78 L-26.50 -33.78 L-27.00 -32.91 L-27.50 -33.78 L-27.00 -34.64 L-27.50 -35.51 L-28.50 -35.51 L-29.50 -35.51 L-29.00 -34.64 L-28.00 -34.64 L-28.50 -33.78 L-29.50 -33.78 L-30.00 -34.64 L-31.00 -34.64 L-30.50 -33.78 L-31.00 -32.91 L-31.50 -33.78 L-32.00 -34.64 L-31.50 -35.51 L-30.50 -35.51 L-30.00 -36.37 L-31.00 -36.37 L-31.50 -37.24 L-30.50 -37.24 L-29.50 -37.24 L-29.00 -36.37 L-28.00 -36.37 L-27.50 -37.24 L-28.50 -37.24 L-29.00 -38.11 L-28.00 -38.11 L-27.00 -38.11 L-26.50 -37.24 L-27.00 -36.37 L-26.50 -35.51 L-26.00 -34.64 L-25.50 -35.51 L-26.00 -36.37 L-25.00 -36.37 L-24.50 -35.51 L-25.00 -34.64 L-24.50 -33.78 L-24.00 -34.64 L-23.00 -34.64 L-23.50 -33.78 L-24.00 -32.91 L-25.00 -32.91 L-25.50 -32.04 L-25.00 -31.18 L-24.50 -30.31 L-24.00 -31.18 L-24.50 -32.04 L-23.50 -32.04 L-23.00 -31.18 L-23.50 -30.31 L-23.00 -29.44 L-22.50 -28.58 L-22.00 -29.44 L-22.50 -30.31 L-21.50 -30.31 L-21.00 -29.44 L-20.00 -29.44 L-19.50 -30.31 L-19.00 -31.18 L-20.00 -31.18 L-20.50 -30.31 L-21.00 -31.18 L-20.50 -32.04 L-21.00 -32.91 L-22.00 -32.91 L-21.50 -32.04 L-22.00 -31.18 L-22.50 -32.04 L-23.00 -32.91 L-22.50 -33.78 L-21.50 -33.78 L-21.00 -34.64 L-22.00 -34.64 L-22.50 -35.51 L-21.50 -35.51 L-20.50 -35.51 L-20.00 -34.64 L-20.50 -33.78 L-20.00 -32.91 L-19.50 -32.04 L-19.00 -32.91 L-19.50 -33.78 L-18.50 -33.78 L-18.00 -32.91 L-17.00 -32.91 L-16.50 -33.78 L-17.50 -33.78 L-18.00 -34.64 L-17.00 -34.64 L-16.00 -34.64 L-15.50 -33.78 L-14.50 -33.78 L-14.00 -34.64 L-13.50 -35.51 L-14.50 -35.51 L-15.00 -34.64 L-15.50 -35.51 L-15.00 -36.37 L-15.50 -37.24 L-16.50 -37.24 L-17.50 -37.24 L-17.00 -36.37 L-16.00 -36.37 L-16.50 -35.51 L-17.50 -35.51 L-18.00 -36.37 L-19.00 -36.37 L-18.50 -35.51 L-19.00 -34.64 L-19.50 -35.51 L-20.00 -36.37 L-19.50 -37.24 L-18.50 -37.24 L-18.00 -38.11 L-19.00 -38.11 L-19.50 -38.97 L-18.50 -38.97 L-17.50 -38.97 L-17.00 -38.11 L-16.00 -38.11 L-15.50 -38.97 L-16.50 -38.97 L-17.00 -39.84 L-16.00 -39.84 L-15.00 -39.84 L-14.50 -38.97 L-15.00 -38.11 L-14.50 -37.24 L-14.00 -36.37 L-13.50 -37.24 L-14.00 -38.11 L-13.00 -38.11 L-12.50 -37.24 L-11.50 -37.24 L-11.00 -38.11 L-12.00 -38.11 L-12.50 -38.97 L-11.50 -38.97 L-10.50 -38.97 L-10.00 -38.11 L-9.00 -38.11 L-8.50 -38.97 L-8.00 -39.84 L-9.00 -39.84 L-9.50 -38.97 L-10.00 -39.84 L-9.50 -40.70 L-8.50 -40.70 L-8.00 -41.57 L-7.50 -42.44 L-8.50 -42.44 L-9.00 -41.57 L-9.50 -42.44 L-9.00 -43.30 L-9.50 -44.17 L-10.50 -44.17 L-11.50 -44.17 L-11.00 -43.30 L-10.00 -43.30 L-10.50 -42.44 L-11.50 -42.44 L-12.00 -41.57 L-11.50 -40.70 L-11.00 -41.57 L-10.00 -41.57 L-10.50 -40.70 L-11.00 -39.84 L-12.00 -39.84 L-12.50 -40.70 L-13.50 -40.70 L-13.00 -39.84 L-13.50 -38.97 L-14.00 -39.84 L-14.50 -40.70 L-14.00 -41.57 L-13.00 -41.57 L-12.50 -42.44 L-12.00 -43.30 L-13.00 -43.30 L-13.50 -42.44 L-14.00 -43.30 L-13.50 -44.17 L-14.00 -45.03 L-15.00 -45.03 L-14.50 -44.17 L-15.00 -43.30 L-15.50 -44.17 L-16.00 -45.03 L-15.50 -45.90 L-16.00 -46.77 L-17.00 -46.77 L-18.00 -46.77 L-17.50 -45.90 L-16.50 -45.90 L-17.00 -45.03 L-18.00 -45.03 L-18.50 -45.90 L-19.50 -45.90 L-20.50 -45.90 L-20.00 -45.03 L-19.00 -45.03 L-19.50 -44.17 L-20.50 -44.17 L-21.00 -43.30 L-20.50 -42.44 L-20.00 -41.57 L-19.50 -42.44 L-20.00 -43.30 L-19.00 -43.30 L-18.50 -42.44 L-17.50 -42.44 L-17.00 -43.30 L-18.00 -43.30 L-18.50 -44.17 L-17.50 -44.17 L-16.50 -44.17 L-16.00 -43.30 L-16.50 -42.44 L-16.00 -41.57 L-15.50 -42.44 L-14.50 -42.44 L-15.00 -41.57 L-15.50 -40.70 L-16.50 -40.70 L-17.00 -41.57 L-18.00 -41.57 L-19.00 -41.57 L-18.50 -40.70 L-17.50 -40.70 L-18.00 -39.84 L-19.00 -39.84 L-19.50 -40.70 L-20.50 -40.70 L-20.00 -39.84 L-20.50 -38.97 L-21.00 -39.84 L-21.50 -40.70 L-21.00 -41.57 L-21.50 -42.44 L-22.50 -42.44 L-23.50 -42.44 L-23.00 -41.57 L-22.00 -41.57 L-22.50 -40.70 L-23.50 -40.70 L-24.00 -39.84 L-23.50 -38.97 L-23.00 -38.11 L-22.50 -38.97 L-23.00 -39.84 L-22.00 -39.84 L-21.50 -38.97 L-22.00 -38.11 L-21.50 -37.24 L-21.00 -38.11 L-20.00 -38.11 L-20.50 -37.24 L-21.00 -36.37 L-22.00 -36.37 L-22.50 -37.24 L-23.50 -37.24 L-23.00 -36.37 L-23.50 -35.51 L-24.00 -36.37 L-24.50 -37.24 L-24.00 -38.11 L-24.50 -38.97 L-25.50 -38.97 L-25.00 -38.11 L-25.50 -37.24 L-26.00 -38.11 L-26.50 -38.97 L-26.00 -39.84 L-25.00 -39.84 L-24.50 -40.70 L-24.00 -41.57 L-25.00 -41.57 L-25.50 -40.70 L-26.00 -41.57 L-25.50 -42.44 L-24.50 -42.44 L-24.00 -43.30 L-25.00 -43.30 L-25.50 -44.17 L-24.50 -44.17 L-23.50 -44.17 L-23.00 -43.30 L-22.00 -43.30 L-21.50 -44.17 L-21.00 -45.03 L-22.00 -45.03 L-22.50 -44.17 L-23.00 -45.03 L-22.50 -45.90 L-23.00 -46.77 L-24.00 -46.77 L-25.00 -46.77 L-24.50 -45.90 L-23.50 -45.90 L-24.00 -45.03 L-25.00 -45.03 L-25.50 -45.90 L-26.50 -45.90 L-26.00 -45.03 L-26.50 -44.17 L-27.00 -45.03 L-27.50 -45.90 L-27.00 -46.77 L-26.00 -46.77 L-25.50 -47.63 L-26.50 -47.63 L-27.00 -48.50 L-26.00 -48.50 L-25.00 -48.50 L-24.50 -47.63 L-23.50 -47.63 L-23.00 -48.50 L-24.00 -48.50 L-24.50 -49.36 L-23.50 -49.36 L-22.50 -49.36 L-22.00 -48.50 L-22.50 -47.63 L-22.00 -46.77 L-21.50 -45.90 L-21.00 -46.77 L-21.50 -47.63 L-20.50 -47.63 L-20.00 -46.77 L-19.00 -46.77 L-18.50 -47.63 L-19.50 -47.63 L-20.00 -48.50 L-19.00 -48.50 L-18.00 -48.50 L-17.50 -47.63 L-16.50 -47.63 L-16.00 -48.50 L-15.50 -49.36 L-16.50 -49.36 L-17.00 -48.50 L-17.50 -49.36 L-17.00 -50.23 L-17.50 -51.10 L-18.50 -51.10 L-19.50 -51.10 L-19.00 -50.23 L-18.00 -50.23 L-18.50 -49.36 L-19.50 -49.36 L-20.00 -50.23 L-21.00 -50.23 L-20.50 -49.36 L-21.00 -48.50 L-21.50 -49.36 L-22.00 -50.23 L-21.50 -51.10 L-20.50 -51.10 L-20.00 -51.96 L-21.00 -51.96 L-21.50 -52.83 L-20.50 -52.83 L-19.50 -52.83 L-19.00 -51.96 L-18.00 -51.96 L-17.50 -52.83 L-18.50 -52.83 L-19.00 -53.69 L-18.00 -53.69 L-17.00 -53.69 L-16.50 -52.83 L-17.00 -51.96 L-16.50 -51.10 L-16.00 -50.23 L-15.50 -51.10 L-16.00 -51.96 L-15.00 -51.96 L-14.50 -51.10 L-15.00 -50.23 L-14.50 -49.36 L-14.00 -50.23 L-13.00 -50.23 L-13.50 -49.36 L-14.00 -48.50 L-15.00 -48.50 L-15.50 -47.63 L-15.00 -46.77 L-14.50 -45.90 L-14.00 -46.77 L-14.50 -47.63 L-13.50 -47.63 L-13.00 -46.77 L-13.50 -45.90 L-13.00 -45.03 L-12.50 -44.17 L-12.00 -45.03 L-12.50 -45.90 L-11.50 -45.90 L-11.00 -45.03 L-10.00 -45.03 L-9.50 -45.90 L-9.00 -46.77 L-10.00 -46.77 L-10.50 -45.90 L-11.00 -46.77 L-10.50 -47.63 L-11.00 -48.50 L-12.00 -48.50 L-11.50 -47.63 L-12.00 -46.77 L-12.50 -47.63 L-13.00 -48.50 L-12.50 -49.36 L-11.50 -49.36 L-11.00 -50.23 L-12.00 -50.23 L-12.50 -51.10 L-11.50 -51.10 L-10.50 -51.10 L-10.00 -50.23 L-10.50 -49.36 L-10.00 -48.50 L-9.50 -47.63 L-9.00 -48.50 L-9.50 -49.36 L-8.50 -49.36 L-8.00 -48.50 L-8.50 -47.63 L-8.00 -46.77 L-7.50 -47.63 L-6.50 -47.63 L-7.00 -46.77 L-7.50 -45.90 L-8.50 -45.90 L-9.00 -45.03 L-8.50 -44.17 L-8.00 -43.30 L-7.50 -44.17 L-8.00 -45.03 L-7.00 -45.03 L-6.50 -44.17 L-5.50 -44.17 L-5.00 -45.03 L-4.50 -45.90 L-5.50 -45.90 L-6.00 -45.03 L-6.50 -45.90 L-6.00 -46.77 L-5.00 -46.77 L-4.50 -47.63 L-5.50 -47.63 L-6.00 -48.50 L-5.00 -48.50 L-4.00 -48.50 L-3.50 -47.63 L-4.00 -46.77 L-3.50 -45.90 L-3.00 -46.77 L-2.00 -46.77 L-2.50 -45.90 L-3.00 -45.03 L-4.00 -45.03 L-4.50 -44.17 L-4.00 -43.30 L-3.50 -44.17 L-2.50 -44.17 L-3.00 -43.30 L-3.50 -42.44 L-4.50 -42.44 L-5.00 -43.30 L-6.00 -43.30 L-7.00 -43.30 L-6.50 -42.44 L-5.50 -42.44 L-6.00 -41.57 L-7.00 -41.57 L-7.50 -40.70 L-7.00 -39.84 L-6.50 -40.70 L-5.50 -40.70 L-6.00 -39.84 L-6.50 -38.97 L-7.50 -38.97 L-8.00 -38.11 L-7.50 -37.24 L-7.00 -36.37 L-6.50 -37.24 L-7.00 -38.11 L-6.00 -38.11 L-5.50 -37.24 L-6.00 -36.37 L-5.50 -35.51 L-5.00 -34.64 L-4.50 -35.51 L-5.00 -36.37 L-4.00 -36.37 L-3.50 -35.51 L-2.50 -35.51 L-2.00 -36.37 L-1.50 -37.24 L-2.50 -37.24 L-3.00 -36.37 L-3.50 -37.24 L-3.00 -38.11 L-3.50 -38.97 L-4.50 -38.97 L-4.00 -38.11 L-4.50 -37.24 L-5.00 -38.11 L-5.50 -38.97 L-5.00 -39.84 L-4.00 -39.84 L-3.50 -40.70 L-4.50 -40.70 L-5.00 -41.57 L-4.00 -41.57 L-3.00 -41.57 L-2.50 -40.70 L-3.00 -39.84 L-2.50 -38.97 L-2.00 -38.11 L-1.50 -38.97 L-2.00 -39.84 L-1.00 -39.84 L-0.50 -38.97 L-1.00 -38.11 L-0.50 -37.24 L0.00 -38.11 L1.00 -38.11 L0.50 -37.24 L0.00 -36.37 L-1.00 -36.37 L-1.50 -35.51 L-1.00 -34.64 L-0.50 -33.78 L0.00 -34.64 L-0.50 -35.51 L0.50 -35.51 L1.00 -34.64 L0.50 -33.78 L1.00 -32.91 L1.50 -32.04 L2.00 -32.91 L1.50 -33.78 L2.50 -33.78 L3.00 -32.91 L4.00 -32.91 L4.50 -33.78 L5.00 -34.64 L4.00 -34.64 L3.50 -33.78 L3.00 -34.64 L3.50 -35.51 L3.00 -36.37 L2.00 -36.37 L2.50 -35.51 L2.00 -34.64 L1.50 -35.51 L1.00 -36.37 L1.50 -37.24 L2.50 -37.24 L3.00 -38.11 L2.00 -38.11 L1.50 -38.97 L2.50 -38.97 L3.50 -38.97 L4.00 -38.11 L3.50 -37.24 L4.00 -36.37 L4.50 -35.51 L5.00 -36.37 L4.50 -37.24 L5.50 -37.24 L6.00 -36.37 L7.00 -36.37 L7.50 -37.24 L6.50 -37.24 L6.00 -38.11 L7.00 -38.11 L8.00 -38.11 L8.50 -37.24 L9.50 -37.24 L10.00 -38.11 L10.50 -38.97 L9.50 -38.97 L9.00 -38.11 L8.50 -38.97 L9.00 -39.84 L10.00 -39.84 L10.50 -40.70 L11.00 -41.57 L10.00 -41.57 L9.50 -40.70 L9.00 -41.57 L9.50 -42.44 L9.00 -43.30 L8.00 -43.30 L7.00 -43.30 L7.50 -42.44 L8.50 -42.44 L8.00 -41.57 L7.00 -41.57 L6.50 -40.70 L7.00 -39.84 L7.50 -40.70 L8.50 -40.70 L8.00 -39.84 L7.50 -38.97 L6.50 -38.97 L6.00 -39.84 L5.00 -39.84 L5.50 -38.97 L5.00 -38.11 L4.50 -38.97 L4.00 -39.84 L4.50 -40.70 L5.50 -40.70 L6.00 -41.57 L6.50 -42.44 L5.50 -42.44 L5.00 -41.57 L4.50 -42.44 L5.00 -43.30 L4.50 -44.17 L3.50 -44.17 L4.00 -43.30 L3.50 -42.44 L3.00 -43.30 L2.50 -44.17 L3.00 -45.03 L2.50 -45.90 L1.50 -45.90 L0.50 -45.90 L1.00 -45.03 L2.00 -45.03 L1.50 -44.17 L0.50 -44.17 L0.00 -43.30 L0.50 -42.44 L1.00 -41.57 L1.50 -42.44 L1.00 -43.30 L2.00 -43.30 L2.50 -42.44 L2.00 -41.57 L2.50 -40.70 L3.00 -41.57 L4.00 -41.57 L3.50 -40.70 L3.00 -39.84 L2.00 -39.84 L1.50 -40.70 L0.50 -40.70 L1.00 -39.84 L0.50 -38.97 L0.00 -39.84 L-0.50 -40.70 L0.00 -41.57 L-0.50 -42.44 L-1.50 -42.44 L-1.00 -41.57 L-1.50 -40.70 L-2.00 -41.57 L-2.50 -42.44 L-2.00 -43.30 L-1.00 -43.30 L-0.50 -44.17 L0.00 -45.03 L-1.00 -45.03 L-1.50 -44.17 L-2.00 -45.03 L-1.50 -45.90 L-0.50 -45.90 L0.00 -46.77 L-1.00 -46.77 L-1.50 -47.63 L-0.50 -47.63 L0.50 -47.63 L1.00 -46.77 L2.00 -46.77 L2.50 -47.63 L3.00 -48.50 L2.00 -48.50 L1.50 -47.63 L1.00 -48.50 L1.50 -49.36 L1.00 -50.23 L0.00 -50.23 L-1.00 -50.23 L-0.50 -49.36 L0.50 -49.36 L0.00 -48.50 L-1.00 -48.50 L-1.50 -49.36 L-2.50 -49.36 L-2.00 -48.50 L-2.50 -47.63 L-3.00 -48.50 L-3.50 -49.36 L-3.00 -50.23 L-2.00 -50.23 L-1.50 -51.10 L-2.50 -51.10 L-3.00 -51.96 L-2.00 -51.96 L-1.00 -51.96 L-0.50 -51.10 L0.50 -51.10 L1.00 -51.96 L0.00 -51.96 L-0.50 -52.83 L0.50 -52.83 L1.50 -52.83 L2.00 -51.96 L1.50 -51.10 L2.00 -50.23 L2.50 -49.36 L3.00 -50.23 L2.50 -51.10 L3.50 -51.10 L4.00 -50.23 L3.50 -49.36 L4.00 -48.50 L4.50 -49.36 L5.50 -49.36 L5.00 -48.50 L4.50 -47.63 L3.50 -47.63 L3.00 -46.77 L3.50 -45.90 L4.00 -45.03 L4.50 -45.90 L4.00 -46.77 L5.00 -46.77 L5.50 -45.90 L5.00 -45.03 L5.50 -44.17 L6.00 -43.30 L6.50 -44.17 L6.00 -45.03 L7.00 -45.03 L7.50 -44.17 L8.50 -44.17 L9.00 -45.03 L9.50 -45.90 L8.50 -45.90 L8.00 -45.03 L7.50 -45.90 L8.00 -46.77 L7.50 -47.63 L6.50 -47.63 L7.00 -46.77 L6.50 -45.90 L6.00 -46.77 L5.50 -47.63 L6.00 -48.50 L7.00 -48.50 L7.50 -49.36 L6.50 -49.36 L6.00 -50.23 L7.00 -50.23 L8.00 -50.23 L8.50 -49.36 L8.00 -48.50 L8.50 -47.63 L9.00 -46.77 L9.50 -47.63 L9.00 -48.50 L10.00 -48.50 L10.50 -47.63 L11.50 -47.63 "/>
</g>
</svg>

