<svg width="300.000000" height="346.410583" xmlns="http://www.w3.org/2000/svg" version="1.1">
<rect width="100%" height="100%" fill="white" />
<g transform="scale(0.110677,0.112233) translate(140.296295,841.777100) ">
<path stroke="#000000" fill="none" d="M0.00 0.00 L10.00 0.00 L15.00 -8.66 L20.00 -0.00 L30.00 -0.00 L35.00 -8.66 L30.00 -17.32 L40.00 -17.32 L45.00 -25.98 L50.00 -17.32 L60.00 -17.32 L55.00 -8.66 L60.00 -0.00 L70.00 -0.00 L75.00 -8.66 L80.00 -0.00 L90.00 -0.00 L95.00 -8.66 L90.00 -17.32 L100.00 -17.32 L105.00 -25.98 L100.00 -34.64 L90.00 -34.64 L95.00 -43.30 L90.00 -51.96 L100.00 -51.96 L105.00 -60.62 L110.00 -51.96 L120.00 -51.96 L125.00 -60.62 L120.00 -69.28 L130.00 -69.28 L135.00 -77.94 L140.00 -69.28 L150.00 -69.28 L145.00 -60.62 L150.00 -51.96 L160.00 -51.96 L165.00 -60.62 L170.00 -51.96 L180.00 -51.96 L175.00 -43.30 L180.00 -34.64 L170.00 -34.64 L165.00 -25.98 L170.00 -17.32 L180.00 -17.32 L175.00 -8.66 L180.00 0.00 L190.00 0.00 L195.00 -8.66 L200.00 0.00 L210.00 0.00 L215.00 -8.66 L210.00 -17.32 L220.00 -17.32 L225.00 -25.98 L230.00 -17.32 L240.00 -17.32 L235.00 -8.66 L240.00 0.00 L250.00 0.00 L255.00 -8.66 L260.00 0.00 L270.00 0.00 L275.00 -8.66 L270.00 -17.32 L280.00 -17.32 L285.00 -25.98 L280.00 -34.64 L270.00 -34.64 L275.00 -43.30 L270.00 -51.96 L280.00 -51.96 L285.00 -60.62 L290.00 -51.96 L300.00 -51.96 L305.00 -60.62 L300.00 -69.28 L310.00 -69.28 L315.00 -77.94 L310.00 -86.60 L300.00 -86.60 L305.00 -95.26 L300.00 -103.92 L290.00 -103.92 L285.00 -95.26 L280.00 -103.92 L270.00 -103.92 L275.00 -112.58 L270.00 -121.24 L280.00 -121.24 L285.00 -129.90 L280.00 -138.56 L270.00 -138.56 L275.00 -147.22 L270.00 -155.88 L280.00 -155.88 L285.00 -164.54 L290.00 -155.88 L300.00 -155.88 L305.00 -164.54 L300.00 -173.21 L310.00 -173.21 L315.00 -181.87 L320.00 -173.21 L330.00 -173.21 L325.00 -164.54 L330.00 -155.88 L340.00 -155.88 L345.00 -164.54 L350.00 -155.88 L360.00 -155.88 L365.00 -164.54 L360.00 -173.21 L370.00 -173.21 L375.00 -181.87 L370.00 -190.53 L360.00 -190.53 L365.00 -199.19 L360.00 -207.85 L370.00 -207.85 L375.00 -216.51 L380.00 -207.85 L390.00 -207.85 L395.00 -216.51 L390.00 -225.17 L400.00 -225.17 L405.00 -233.83 L410.00 -225.17 L420.00 -225.17 L415.00 -216.51 L420.00 -207.85 L430.00 -207.85 L435.00 -216.51 L440.00 -207.85 L450.00 -207.85 L445.00 -199.19 L450.00 -190.53 L440.00 -190.53 L435.00 -181.87 L440.00 -173.21 L450.00 -173.21 L445.00 -164.54 L450.00 -155.88 L460.00 -155.88 L465.00 -164.54 L470.00 -155.88 L480.00 -155.88 L485.00 -164.54 L480.00 -173.21 L490.00 -173.21 L495.00 -181.87 L500.00 -173.21 L510.00 -173.21 L505.00 -164.54 L510.00 -155.88 L520.00 -155.88 L525.00 -164.54 L530.00 -155.88 L540.00 -155.88 L535.00 -147.22 L540.00 -138.56 L530.00 -138.56 L525.00 -129.90 L530.00 -121.24 L540.00 -121.24 L535.00 -112.58 L540.00 -103.92 L530.00 -103.92 L525.00 -95.26 L520.00 -103.92 L510.00 -103.92 L505.00 -95.26 L510.00 -86.60 L500.00 -86.60 L495.00 -77.94 L500.00 -69.28 L510.00 -69.28 L505.00 -60.62 L510.00 -51.96 L520.00 -51.96 L525.00 -60.62 L530.00 -51.96 L540.00 -51.96 L535.00 -43.30 L540.00 -34.64 L530.00 -34.64 L525.00 -25.98 L530.00 -17.32 L540.00 -17.32 L535.00 -8.66 L540.00 0.00 L550.00 0.00 L555.00 -8.66 L560.00 0.00 L570.00 0.00 L575.00 -8.66 L570.00 -17.32 L580.00 -17.32 L585.00 -25.98 L590.00 -17.32 L600.00 -17.32 L595.00 -8.66 L600.00 0.00 L610.00 0.00 L615.00 -8.66 L620.00 0.00 L630.00 0.00 L635.00 -8.66 L630.00 -17.32 L640.00 -17.32 L645.00 -25.98 L640.00 -34.64 L630.00 -34.64 L635.00 -43.30 L630.00 -51.96 L640.00 -51.96 L645.00 -60.62 L650.00 -51.96 L660.00 -51.96 L665.00 -60.62 L660.00 -69.28 L670.00 -69.28 L675.00 -77.94 L680.00 -69.28 L690.00 -69.28 L685.00 -60.62 L690.00 -51.96 L700.00 -51.96 L705.00 -60.62 L710.00 -51.96 L720.00 -51.96 L715.00 -43.30 L720.00 -34.64 L710.00 -34.64 L705.00 -25.98 L710.00 -17.32 L720.00 -17.32 L715.00 -8.66 L720.00 0.00 L730.00 0.00 L735.00 -8.66 L740.00 0.00 L750.00 0.00 L755.00 -8.66 L750.00 -17.32 L760.00 -17.32 L765.00 -25.98 L770.00 -17.32 L780.00 -17.32 L775.00 -8.66 L780.00 0.00 L790.00 0.00 L795.00 -8.66 L800.00 0.00 L810.00 0.00 L815.00 -8.66 L810.00 -17.32 L820.00 -17.32 L825.00 -25.98 L820.00 -34.64 L810.00 -34.64 L815.00 -43.30 L810.00 -51.96 L820.00 -51.96 L825.00 -60.62 L830.00 -51.96 L840.00 -51.96 L845.00 -60.62 L840.00 -69.28 L850.00 -69.28 L855.00 -77.94 L850.00 -86.60 L840.00 -86.60 L845.00 -95.26 L840.00 -103.92 L830.00 -103.92 L825.00 -95.26 L820.00 -103.92 L810.00 -103.92 L815.00 -112.58 L810.00 -121.24 L820.00 -121.24 L825.00 -129.90 L820.00 -138.56 L810.00 -138.56 L815.00 -147.22 L810.00 -155.88 L820.00 -155.88 L825.00 -164.54 L830.00 -155.88 L840.00 -155.88 L845.00 -164.54 L840.00 -173.21 L850.00 -173.21 L855.00 -181.87 L860.00 -173.21 L870.00 -173.21 L865.00 -164.54 L870.00 -155.88 L880.00 -155.88 L885.00 -164.54 L890.00 -155.88 L900.00 -155.88 L905.00 -164.54 L900.00 -173.21 L910.00 -173.21 L915.00 -181.87 L910.00 -190.53 L900.00 -190.53 L905.00 -199.19 L900.00 -207.85 L910.00 -207.85 L915.00 -216.51 L920.00 -207.85 L930.00 -207.85 L935.00 -216.51 L930.00 -225.17 L940.00 -225.17 L945.00 -233.83 L940.00 -242.49 L930.00 -242.49 L935.00 -251.15 L930.00 -259.81 L920.00 -259.81 L915.00 -251.15 L910.00 -259.81 L900.00 -259.81 L905.00 -268.47 L900.00 -277.13 L910.00 -277.13 L915.00 -285.79 L910.00 -294.45 L900.00 -294.45 L905.00 -303.11 L900.00 -311.77 L890.00 -311.77 L885.00 -303.11 L880.00 -311.77 L870.00 -311.77 L865.00 -303.11 L870.00 -294.45 L860.00 -294.45 L855.00 -285.79 L850.00 -294.45 L840.00 -294.45 L845.00 -303.11 L840.00 -311.77 L830.00 -311.77 L825.00 -303.11 L820.00 -311.77 L810.00 -311.77 L815.00 -320.43 L810.00 -329.09 L820.00 -329.09 L825.00 -337.75 L820.00 -346.41 L810.00 -346.41 L815.00 -355.07 L810.00 -363.73 L820.00 -363.73 L825.00 -372.39 L830.00 -363.73 L840.00 -363.73 L845.00 -372.39 L840.00 -381.05 L850.00 -381.05 L855.00 -389.71 L850.00 -398.37 L840.00 -398.37 L845.00 -407.03 L840.00 -415.69 L830.00 -415.69 L825.00 -407.03 L820.00 -415.69 L810.00 -415.69 L815.00 -424.35 L810.00 -433.01 L820.00 -433.01 L825.00 -441.67 L820.00 -450.33 L810.00 -450.33 L815.00 -458.99 L810.00 -467.65 L820.00 -467.65 L825.00 -476.31 L830.00 -467.65 L840.00 -467.65 L845.00 -476.31 L840.00 -484.97 L850.00 -484.97 L855.00 -493.63 L860.00 -484.97 L870.00 -484.97 L865.00 -476.31 L870.00 -467.65 L880.00 -467.65 L885.00 -476.31 L890.00 -467.65 L900.00 -467.65 L905.00 -476.31 L900.00 -484.97 L910.00 -484.97 L915.00 -493.63 L910.00 -502.29 L900.00 -502.29 L905.00 -510.95 L900.00 -519.61 L910.00 -519.61 L915.00 -528.28 L920.00 -519.61 L930.00 -519.61 L935.00 -528.28 L930.00 -536.94 L940.00 -536.94 L945.00 -545.60 L950.00 -536.94 L960.00 -536.94 L955.00 -528.28 L960.00 -519.61 L970.00 -519.61 L975.00 -528.28 L980.00 -519.61 L990.00 -519.61 L985.00 -510.95 L990.00 -502.29 L980.00 -502.29 L975.00 -493.63 L980.00 -484.97 L990.00 -484.97 L985.00 -476.31 L990.00 -467.65 L1000.00 -467.65 L1005.00 -476.31 L1010.00 -467.65 L1020.00 -467.65 L1025.00 -476.31 L1020.00 -484.97 L1030.00 -484.97 L1035.00 -493.63 L1040.00 -484.97 L1050.00 -484.97 L1045.00 -476.31 L1050.00 -467.65 L1060.00 -467.65 L1065.00 -476.31 L1070.00 -467.65 L1080.00 -467.65 L1085.00 -476.31 L1080.00 -484.97 L1090.00 -484.97 L1095.00 -493.63 L1090.00 -502.29 L1080.00 -502.29 L1085.00 -510.95 L1080.00 -519.61 L1090.00 -519.61 L1095.00 -528.28 L1100.00 -519.61 L1110.00 -519.61 L1115.00 -528.28 L1110.00 -536.94 L1120.00 -536.94 L1125.00 -545.60 L1120.00 -554.26 L1110.00 -554.26 L1115.00 -562.92 L1110.00 -571.58 L1100.00 -571.58 L1095.00 -562.92 L1090.00 -571.58 L1080.00 -571.58 L1085.00 -580.24 L1080.00 -588.90 L1090.00 -588.90 L1095.00 -597.56 L1090.00 -606.22 L1080.00 -606.22 L1085.00 -614.88 L1080.00 -623.54 L1090.00 -623.54 L1095.00 -632.20 L1100.00 -623.54 L1110.00 -623.54 L1115.00 -632.20 L1110.00 -640.86 L1120.00 -640.86 L1125.00 -649.52 L1130.00 -640.86 L1140.00 -640.86 L1135.00 -632.20 L1140.00 -623.54 L1150.00 -623.54 L1155.00 -632.20 L1160.00 -623.54 L1170.00 -623.54 L1175.00 -632.20 L1170.00 -640.86 L1180.00 -640.86 L1185.00 -649.52 L1180.00 -658.18 L1170.00 -658.18 L1175.00 -666.84 L1170.00 -675.50 L1180.00 -675.50 L1185.00 -684.16 L1190.00 -675.50 L1200.00 -675.50 L1205.00 -684.16 L1200.00 -692.82 L1210.00 -692.82 L1215.00 -701.48 L1220.00 -692.82 L1230.00 -692.82 L1225.00 -684.16 L1230.00 -675.50 L1240.00 -675.50 L1245.00 -684.16 L1250.00 -675.50 L1260.00 -675.50 L1255.00 -666.84 L1260.00 -658.18 L1250.00 -658.18 L1245.00 -649.52 L1250.00 -640.86 L1260.00 -640.86 L1255.00 -632.20 L1260.00 -623.54 L1270.00 -623.54 L1275.00 -632.20 L1280.00 -623.54 L1290.00 -623.54 L1295.00 -632.20 L1290.00 -640.86 L1300.00 -640.86 L1305.00 -649.52 L1310.00 -640.86 L1320.00 -640.86 L1315.00 -632.20 L1320.00 -623.54 L1330.00 -623.54 L1335.00 -632.20 L1340.00 -623.54 L1350.00 -623.54 L1345.00 -614.88 L1350.00 -606.22 L1340.00 -606.22 L1335.00 -597.56 L1340.00 -588.90 L1350.00 -588.90 L1345.00 -580.24 L1350.00 -571.58 L1340.00 -571.58 L1335.00 -562.92 L1330.00 -571.58 L1320.00 -571.58 L1315.00 -562.92 L1320.00 -554.26 L1310.00 -554.26 L1305.00 -545.60 L1310.00 -536.94 L1320.00 -536.94 L1315.00 -528.28 L1320.00 -519.61 L1330.00 -519.61 L1335.00 -528.28 L1340.00 -519.61 L1350.00 -519.61 L1345.00 -510.95 L1350.00 -502.29 L1340.00 -502.29 L1335.00 -493.63 L1340.00 -484.97 L1350.00 -484.97 L1345.00 -476.31 L1350.00 -467.65 L1360.00 -467.65 L1365.00 -476.31 L1370.00 -467.65 L1380.00 -467.65 L1385.00 -476.31 L1380.00 -484.97 L1390.00 -484.97 L1395.00 -493.63 L1400.00 -484.97 L1410.00 -484.97 L1405.00 -476.31 L1410.00 -467.65 L1420.00 -467.65 L1425.00 -476.31 L1430.00 -467.65 L1440.00 -467.65 L1445.00 -476.31 L1440.00 -484.97 L1450.00 -484.97 L1455.00 -493.63 L1450.00 -502.29 L1440.00 -502.29 L1445.00 -510.95 L1440.00 -519.61 L1450.00 -519.61 L1455.00 -528.28 L1460.00 -519.61 L1470.00 -519.61 L1475.00 -528.28 L1470.00 -536.94 L1480.00 -536.94 L1485.00 -545.60 L1490.00 -536.94 L1500.00 -536.94 L1495.00 -528.28 L1500.00 -519.61 L1510.00 -519.61 L1515.00 -528.28 L1520.00 -519.61 L1530.00 -519.61 L1525.00 -510.95 L1530.00 -502.29 L1520.00 -502.29 L1515.00 -493.63 L1520.00 -484.97 L1530.00 -484.97 L1525.00 -476.31 L1530.00 -467.65 L1540.00 -467.65 L1545.00 -476.31 L1550.00 -467.65 L1560.00 -467.65 L1565.00 -476.31 L1560.00 -484.97 L1570.00 -484.97 L1575.00 -493.63 L1580.00 -484.97 L1590.00 -484.97 L1585.00 -476.31 L1590.00 -467.65 L1600.00 -467.65 L1605.00 -476.31 L1610.00 -467.65 L1620.00 -467.65 L1615.00 -458.99 L1620.00 -450.33 L1610.00 -450.33 L1605.00 -441.67 L1610.00 -433.01 L1620.00 -433.01 L1615.00 -424.35 L1620.00 -415.69 L1610.00 -415.69 L1605.00 -407.03 L1600.00 -415.69 L1590.00 -415.69 L1585.00 -407.03 L1590.00 -398.37 L1580.00 -398.37 L1575.00 -389.71 L1580.00 -381.05 L1590.00 -381.05 L1585.00 -372.39 L1590.00 -363.73 L1600.00 -363.73 L1605.00 -372.39 L1610.00 -363.73 L1620.00 -363.73 L1615.00 -355.07 L1620.00 -346.41 L1610.00 -346.41 L1605.00 -337.75 L1610.00 -329.09 L1620.00 -329.09 L1615.00 -320.43 L1620.00 -311.77 L1610.00 -311.77 L1605.00 -303.11 L1600.00 -311.77 L1590.00 -311.77 L1585.00 -303.11 L1590.00 -294.45 L1580.00 -294.45 L1575.00 -285.79 L1570.00 -294.45 L1560.00 -294.45 L1565.00 -303.11 L1560.00 -311.77 L1550.00 -311.77 L1545.00 -303.11 L1540.00 -311.77 L1530.00 -311.77 L1525.00 -303.11 L1530.00 -294.45 L1520.00 -294.45 L1515.00 -285.79 L1520.00 -277.13 L1530.00 -277.13 L1525.00 -268.47 L1530.00 -259.81 L1520.00 -259.81 L1515.00 -251.15 L1510.00 -259.81 L1500.00 -259.81 L1495.00 -251.15 L1500.00 -242.49 L1490.00 -242.49 L1485.00 -233.83 L1490.00 -225.17 L1500.00 -225.17 L1495.00 -216.51 L1500.00 -207.85 L1510.00 -207.85 L1515.00 -216.51 L1520.00 -207.85 L1530.00 -207.85 L1525.00 -199.19 L1530.00 -190.53 L1520.00 -190.53 L1515.00 -181.87 L1520.00 -173.21 L1530.00 -173.21 L1525.00 -164.54 L1530.00 -155.88 L1540.00 -155.88 L1545.00 -164.54 L1550.00 -155.88 L1560.00 -155.88 L1565.00 -164.54 L1560.00 -173.21 L1570.00 -173.21 L1575.00 -181.87 L1580.00 -173.21 L1590.00 -173.21 L1585.00 -164.54 L1590.00 -155.88 L1600.00 -155.88 L1605.00 -164.54 L1610.00 -155.88 L1620.00 -155.88 L1615.00 -147.22 L1620.00 -138.56 L1610.00 -138.56 L1605.00 -129.90 L1610.00 -121.24 L1620.00 -121.24 L1615.00 -112.58 L1620.00 -103.92 L1610.00 -103.92 L1605.00 -95.26 L1600.00 -103.92 L1590.00 -103.92 L1585.00 -95.26 L1590.00 -86.60 L1580.00 -86.60 L1575.00 -77.94 L1580.00 -69.28 L1590.00 -69.28 L1585.00 -60.62 L1590.00 -51.96 L1600.00 -51.96 L1605.00 -60.62 L1610.00 -51.96 L1620.00 -51.96 L1615.00 -43.30 L1620.00 -34.64 L1610.00 -34.64 L1605.00 -25.98 L1610.00 -17.32 L1620.00 -17.32 L1615.00 -8.66 L1620.00 -0.00 L1630.00 -0.00 L1635.00 -8.66 L1640.00 -0.00 L1650.00 -0.00 L1655.00 -8.66 L1650.00 -17.32 L1660.00 -17.32 L1665.00 -25.98 L1670.00 -17.32 L1680.00 -17.32 L1675.00 -8.66 L1680.00 -0.00 L1690.00 -0.00 L1695.00 -8.66 L1700.00 -0.00 L1710.00 -0.00 L1715.00 -8.66 L1710.00 -17.32 L1720.00 -17.32 L1725.00 -25.98 L1720.00 -34.64 L1710.00 -34.64 L1715.00 -43.30 L1710.00 -51.96 L1720.00 -51.96 L1725.00 -60.62 L1730.00 -51.96 L1740.00 -51.96 L1745.00 -60.62 L1740.00 -69.28 L1750.00 -69.28 L1755.00 -77.94 L1760.00 -69.28 L1770.00 -69.28 L1765.00 -60.62 L1770.00 -51.96 L1780.00 -51.96 L1785.00 -60.62 L1790.00 -51.96 L1800.00 -51.96 L1795.00 -43.30 L1800.00 -34.64 L1790.00 -34.64 L1785.00 -25.98 L1790.00 -17.32 L1800.00 -17.32 L1795.00 -8.66 L1800.00 -0.00 L1810.00 -0.00 L1815.00 -8.66 L1820.00 -0.00 L1830.00 -0.00 L1835.00 -8.66 L1830.00 -17.32 L1840.00 -17.32 L1845.00 -25.98 L1850.00 -17.32 L1860.00 -17.32 L1855.00 -8.66 L1860.00 -0.00 L1870.00 -0.00 L1875.00 -8.66 L1880.00 -0.00 L1890.00 -0.00 L1895.00 -8.66 L1890.00 -17.32 L1900.00 -17.32 L1905.00 -25.98 L1900.00 -34.64 L1890.00 -34.64 L1895.00 -43.30 L1890.00 -51.96 L1900.00 -51.96 L1905.00 -60.62 L1910.00 -51.96 L1920.00 -51.96 L1925.00 -60.62 L1920.00 -69.28 L1930.00 -69.28 L1935.00 -77.94 L1930.00 -86.60 L1920.00 -86.60 L1925.00 -95.26 L1920.00 -103.92 L1910.00 -103.92 L1905.00 -95.26 L1900.00 -103.92 L1890.00 -103.92 L1895.00 -112.58 L1890.00 -121.24 L1900.00 -121.24 L1905.00 -129.90 L1900.00 -138.56 L1890.00 -138.56 L1895.00 -147.22 L1890.00 -155.88 L1900.00 -155.88 L1905.00 -164.54 L1910.00 -155.88 L1920.00 -155.88 L1925.00 -164.54 L1920.00 -173.21 L1930.00 -173.21 L1935.00 -181.87 L1940.00 -173.21 L1950.00 -173.21 L1945.00 -164.54 L1950.00 -155.88 L1960.00 -155.88 L1965.00 -164.54 L1970.00 -155.88 L1980.00 -155.88 L1985.00 -164.54 L1980.00 -173.21 L1990.00 -173.21 L1995.00 -181.87 L1990.00 -190.53 L1980.00 -190.53 L1985.00 -199.19 L1980.00 -207.85 L1990.00 -207.85 L1995.00 -216.51 L2000.00 -207.85 L2010.00 -207.85 L2015.00 -216.51 L2010.00 -225.17 L2020.00 -225.17 L2025.00 -233.83 L2030.00 -225.17 L2040.00 -225.17 L2035.00 -216.51 L2040.00 -207.85 L2050.00 -207.85 L2055.00 -216.51 L2060.00 -207.85 L2070.00 -207.85 L2065.00 -199.19 L2070.00 -190.53 L2060.00 -190.53 L2055.00 -181.87 L2060.00 -173.21 L2070.00 -173.21 L2065.00 -164.54 L2070.00 -155.88 L2080.00 -155.88 L2085.00 -164.54 L2090.00 -155.88 L2100.00 -155.88 L2105.00 -164.54 L2100.00 -173.21 L2110.00 -173.21 L2115.00 -181.87 L2120.00 -173.21 L2130.00 -173.21 L2125.00 -164.54 L2130.00 -155.88 L2140.00 -155.88 L2145.00 -164.54 L2150.00 -155.88 L2160.00 -155.88 L2155.00 -147.22 L2160.00 -138.56 L2150.00 -138.56 L2145.00 -129.90 L2150.00 -121.24 L2160.00 -121.24 L2155.00 -112.58 L2160.00 -103.92 L2150.00 -103.92 L2145.00 -95.26 L2140.00 -103.92 L2130.00 -103.92 L2125.00 -95.26 L2130.00 -86.60 L2120.00 -86.60 L2115.00 -77.94 L2120.00 -69.28 L2130.00 -69.28 L2125.00 -60.62 L2130.00 -51.96 L2140.00 -51.96 L2145.00 -60.62 L2150.00 -51.96 L2160.00 -51.96 L2155.00 -43.30 L2160.00 -34.64 L2150.00 -34.64 L2145.00 -25.98 L2150.00 -17.32 L2160.00 -17.32 L2155.00 -8.66 L2160.00 -0.00 L2170.00 -0.00 L2175.00 -8.66 L2180.00 -0.00 L2190.00 -0.00 L2195.00 -8.66 L2190.00 -17.32 L2200.00 -17.32 L2205.00 -25.98 L2210.00 -17.32 L2220.00 -17.32 L2215.00 -8.66 L2220.00 -0.00 L2230.00 -0.00 L2235.00 -8.66 L2240.00 -0.00 L2250.00 -0.00 L2255.00 -8.66 L2250.00 -17.32 L2260.00 -17.32 L2265.00 -25.98 L2260.00 -34.64 L2250.00 -34.64 L2255.00 -43.30 L2250.00 -51.96 L2260.00 -51.96 L2265.00 -60.62 L2270.00 -51.96 L2280.00 -51.96 L2285.00 -60.62 L2280.00 -69.28 L2290.00 -69.28 L2295.00 -77.94 L2300.00 -69.28 L2310.00 -69.28 L2305.00 -60.62 L2310.00 -51.96 L2320.00 -51.96 L2325.00 -60.62 L2330.00 -51.96 L2340.00 -51.96 L2335.00 -43.30 L2340.00 -34.64 L2330.00 -34.64 L2325.00 -25.98 L2330.00 -17.32 L2340.00 -17.32 L2335.00 -8.66 L2340.00 -0.00 L2350.00 -0.00 L2355.00 -8.66 L2360.00 -0.00 L2370.00 -0.00 L2375.00 -8.66 L2370.00 -17.32 L2380.00 -17.32 L2385.00 -25.98 L2390.00 -17.32 L2400.00 -17.32 L2395.00 -8.66 L2400.00 -0.00 L2410.00 -0.00 L2415.00 -8.66 L2420.00 -0.00 L2430.00 -0.00 L2425.00 8.66 L2430.00 17.32 L2420.00 17.32 L2415.00 25.98 L2420.00 34.64 L2430.00 34.64 L2425.00 43.30 L2430.00 51.96 L2420.00 51.96 L2415.00 60.62 L2410.00 51.96 L2400.00 51.96 L2395.00 60.62 L2400.00 69.28 L2390.00 69.28 L2385.00 77.94 L2390.00 86.60 L2400.00 86.60 L2395.00 95.26 L2400.00 103.92 L2410.00 103.92 L2415.00 95.26 L2420.00 103.92 L2430.00 103.92 L2425.00 112.58 L2430.00 121.24 L2420.00 121.24 L2415.00 129.90 L2420.00 138.56 L2430.00 138.56 L2425.00 147.22 L2430.00 155.88 L2420.00 155.88 L2415.00 164.54 L2410.00 155.88 L2400.00 155.88 L2395.00 164.54 L2400.00 173.21 L2390.00 173.21 L2385.00 181.87 L2380.00 173.21 L2370.00 173.21 L2375.00 164.54 L2370.00 155.88 L2360.00 155.88 L2355.00 164.54 L2350.00 155.88 L2340.00 155.88 L2335.00 164.54 L2340.00 173.21 L2330.00 173.21 L2325.00 181.87 L2330.00 190.53 L2340.00 190.53 L2335.00 199.19 L2340.00 207.85 L2330.00 207.85 L2325.00 216.51 L2320.00 207.85 L2310.00 207.85 L2305.00 216.51 L2310.00 225.17 L2300.00 225.17 L2295.00 233.83 L2300.00 242.49 L2310.00 242.49 L2305.00 251.15 L2310.00 259.81 L2320.00 259.81 L2325.00 251.15 L2330.00 259.81 L2340.00 259.81 L2335.00 268.47 L2340.00 277.13 L2330.00 277.13 L2325.00 285.79 L2330.00 294.45 L2340.00 294.45 L2335.00 303.11 L2340.00 311.77 L2350.00 311.77 L2355.00 303.11 L2360.00 311.77 L2370.00 311.77 L2375.00 303.11 L2370.00 294.45 L2380.00 294.45 L2385.00 285.79 L2390.00 294.45 L2400.00 294.45 L2395.00 303.11 L2400.00 311.77 L2410.00 311.77 L2415.00 303.11 L2420.00 311.77 L2430.00 311.77 L2425.00 320.43 L2430.00 329.09 L2420.00 329.09 L2415.00 337.75 L2420.00 346.41 L2430.00 346.41 L2425.00 355.07 L2430.00 363.73 L2420.00 363.73 L2415.00 372.39 L2410.00 363.73 L2400.00 363.73 L2395.00 372.39 L2400.00 381.05 L2390.00 381.05 L2385.00 389.71 L2390.00 398.37 L2400.00 398.37 L2395.00 407.03 L2400.00 415.69 L2410.00 415.69 L2415.00 407.03 L2420.00 415.69 L2430.00 415.69 L2425.00 424.35 L2430.00 433.01 L2420.00 433.01 L2415.00 441.67 L2420.00 450.33 L2430.00 450.33 L2425.00 458.99 L2430.00 467.65 L2420.00 467.65 L2415.00 476.31 L2410.00 467.65 L2400.00 467.65 L2395.00 476.31 L2400.00 484.97 L2390.00 484.97 L2385.00 493.63 L2380.00 484.97 L2370.00 484.97 L2375.00 476.31 L2370.00 467.65 L2360.00 467.65 L2355.00 476.31 L2350.00 467.65 L2340.00 467.65 L2335.00 476.31 L2340.00 484.97 L2330.00 484.97 L2325.00 493.63 L2330.00 502.29 L2340.00 502.29 L2335.00 510.95 L2340.00 519.61 L2330.00 519.61 L2325.00 528.28 L2320.00 519.61 L2310.00 519.61 L2305.00 528.28 L2310.00 536.94 L2300.00 536.94 L2295.00 545.60 L2290.00 536.94 L2280.00 536.94 L2285.00 528.28 L2280.00 519.61 L2270.00 519.61 L2265.00 528.28 L2260.00 519.61 L2250.00 519.61 L2255.00 510.95 L2250.00 502.29 L2260.00 502.29 L2265.00 493.63 L2260.00 484.97 L2250.00 484.97 L2255.00 476.31 L2250.00 467.65 L2240.00 467.65 L2235.00 476.31 L2230.00 467.65 L2220.00 467.65 L2215.00 476.31 L2220.00 484.97 L2210.00 484.97 L2205.00 493.63 L2200.00 484.97 L2190.00 484.97 L2195.00 476.31 L2190.00 467.65 L2180.00 467.65 L2175.00 476.31 L2170.00 467.65 L2160.00 467.65 L2155.00 476.31 L2160.00 484.97 L2150.00 484.97 L2145.00 493.63 L2150.00 502.29 L2160.00 502.29 L2155.00 510.95 L2160.00 519.61 L2150.00 519.61 L2145.00 528.28 L2140.00 519.61 L2130.00 519.61 L2125.00 528.28 L2130.00 536.94 L2120.00 536.94 L2115.00 545.60 L2120.00 554.26 L2130.00 554.26 L2125.00 562.92 L2130.00 571.58 L2140.00 571.58 L2145.00 562.92 L2150.00 571.58 L2160.00 571.58 L2155.00 580.24 L2160.00 588.90 L2150.00 588.90 L2145.00 597.56 L2150.00 606.22 L2160.00 606.22 L2155.00 614.88 L2160.00 623.54 L2150.00 623.54 L2145.00 632.20 L2140.00 623.54 L2130.00 623.54 L2125.00 632.20 L2130.00 640.86 L2120.00 640.86 L2115.00 649.52 L2110.00 640.86 L2100.00 640.86 L2105.00 632.20 L2100.00 623.54 L2090.00 623.54 L2085.00 632.20 L2080.00 623.54 L2070.00 623.54 L2065.00 632.20 L2070.00 640.86 L2060.00 640.86 L2055.00 649.52 L2060.00 658.18 L2070.00 658.18 L2065.00 666.84 L2070.00 675.50 L2060.00 675.50 L2055.00 684.16 L2050.00 675.50 L2040.00 675.50 L2035.00 684.16 L2040.00 692.82 L2030.00 692.82 L2025.00 701.48 L2030.00 710.14 L2040.00 710.14 L2035.00 718.80 L2040.00 727.46 L2050.00 727.46 L2055.00 718.80 L2060.00 727.46 L2070.00 727.46 L2065.00 736.12 L2070.00 744.78 L2060.00 744.78 L2055.00 753.44 L2060.00 762.10 L2070.00 762.10 L2065.00 770.76 L2070.00 779.42 L2080.00 779.42 L2085.00 770.76 L2090.00 779.42 L2100.00 779.42 L2105.00 770.76 L2100.00 762.10 L2110.00 762.10 L2115.00 753.44 L2120.00 762.10 L2130.00 762.10 L2125.00 770.76 L2130.00 779.42 L2140.00 779.42 L2145.00 770.76 L2150.00 779.42 L2160.00 779.42 L2155.00 788.08 L2160.00 796.74 L2150.00 796.74 L2145.00 805.40 L2150.00 814.06 L2160.00 814.06 L2155.00 822.72 L2160.00 831.39 L2150.00 831.39 L2145.00 840.05 L2140.00 831.39 L2130.00 831.39 L2125.00 840.05 L2130.00 848.71 L2120.00 848.71 L2115.00 857.37 L2120.00 866.03 L2130.00 866.03 L2125.00 874.69 L2130.00 883.35 L2140.00 883.35 L2145.00 874.69 L2150.00 883.35 L2160.00 883.35 L2155.00 892.01 L2160.00 900.67 L2150.00 900.67 L2145.00 909.33 L2150.00 917.99 L2160.00 917.99 L2155.00 926.65 L2160.00 935.31 L2170.00 935.31 L2175.00 926.65 L2180.00 935.31 L2190.00 935.31 L2195.00 926.65 L2190.00 917.99 L2200.00 917.99 L2205.00 909.33 L2210.00 917.99 L2220.00 917.99 L2215.00 926.65 L2220.00 935.31 L2230.00 935.31 L2235.00 926.65 L2240.00 935.31 L2250.00 935.31 L2255.00 926.65 L2250.00 917.99 L2260.00 917.99 L2265.00 909.33 L2260.00 900.67 L2250.00 900.67 L2255.00 892.01 L2250.00 883.35 L2260.00 883.35 L2265.00 874.69 L2270.00 883.35 L2280.00 883.35 L2285.00 874.69 L2280.00 866.03 L2290.00 866.03 L2295.00 857.37 L2300.00 866.03 L2310.00 866.03 L2305.00 874.69 L2310.00 883.35 L2320.00 883.35 L2325.00 874.69 L2330.00 883.35 L2340.00 883.35 L2335.00 892.01 L2340.00 900.67 L2330.00 900.67 L2325.00 909.33 L2330.00 917.99 L2340.00 917.99 L2335.00 926.65 L2340.00 935.31 L2350.00 935.31 L2355.00 926.65 L2360.00 935.31 L2370.00 935.31 L2375.00 926.65 L2370.00 917.99 L2380.00 917.99 L2385.00 909.33 L2390.00 917.99 L2400.00 917.99 L2395.00 926.65 L2400.00 935.31 L2410.00 935.31 L2415.00 926.65 L2420.00 935.31 L2430.00 935.31 L2425.00 943.97 L2430.00 952.63 L2420.00 952.63 L2415.00 961.29 L2420.00 969.95 L2430.00 969.95 L2425.00 978.61 L2430.00 987.27 L2420.00 987.27 L2415.00 995.93 L2410.00 987.27 L2400.00 987.27 L2395.00 995.93 L2400.00 1004.59 L2390.00 1004.59 L2385.00 1013.25 L2390.00 1021.91 L2400.00 1021.91 L2395.00 1030.57 L2400.00 1039.23 L2410.00 1039.23 L2415.00 1030.57 L2420.00 1039.23 L2430.00 1039.23 L2425.00 1047.89 L2430.00 1056.55 L2420.00 1056.55 L2415.00 1065.21 L2420.00 1073.87 L2430.00 1073.87 L2425.00 1082.53 L2430.00 1091.19 L2420.00 1091.19 L2415.00 1099.85 L2410.00 1091.19 L2400.00 1091.19 L2395.00 1099.85 L2400.00 1108.51 L2390.00 1108.51 L2385.00 1117.17 L2380.00 1108.51 L2370.00 1108.51 L2375.00 1099.85 L2370.00 1091.19 L2360.00 1091.19 L2355.00 1099.85 L2350.00 1091.19 L2340.00 1091.19 L2335.00 1099.85 L2340.00 1108.51 L2330.00 1108.51 L2325.00 1117.17 L2330.00 1125.83 L2340.00 1125.83 L2335.00 1134.49 L2340.00 1143.16 L2330.00 1143.16 L2325.00 1151.82 L2320.00 1143.16 L2310.00 1143.16 L2305.00 1151.82 L2310.00 1160.48 L2300.00 1160.48 L2295.00 1169.14 L2300.00 1177.80 L2310.00 1177.80 L2305.00 1186.46 L2310.00 1195.12 L2320.00 1195.12 L2325.00 1186.46 L2330.00 1195.12 L2340.00 1195.12 L2335.00 1203.78 L2340.00 1212.44 L2330.00 1212.44 L2325.00 1221.10 L2330.00 1229.76 L2340.00 1229.76 L2335.00 1238.42 L2340.00 1247.08 L2350.00 1247.08 L2355.00 1238.42 L2360.00 1247.08 L2370.00 1247.08 L2375.00 1238.42 L2370.00 1229.76 L2380.00 1229.76 L2385.00 1221.10 L2390.00 1229.76 L2400.00 1229.76 L2395.00 1238.42 L2400.00 1247.08 L2410.00 1247.08 L2415.00 1238.42 L2420.00 1247.08 L2430.00 1247.08 L2425.00 1255.74 L2430.00 1264.40 L2420.00 1264.40 L2415.00 1273.06 L2420.00 1281.72 L2430.00 1281.72 L2425.00 1290.38 L2430.00 1299.04 L2420.00 1299.04 L2415.00 1307.70 L2410.00 1299.04 L2400.00 1299.04 L2395.00 1307.70 L2400.00 1316.36 L2390.00 1316.36 L2385.00 1325.02 L2390.00 1333.68 L2400.00 1333.68 L2395.00 1342.34 L2400.00 1351.00 L2410.00 1351.00 L2415.00 1342.34 L2420.00 1351.00 L2430.00 1351.00 L2425.00 1359.66 L2430.00 1368.32 L2420.00 1368.32 L2415.00 1376.98 L2420.00 1385.64 L2430.00 1385.64 L2425.00 1394.30 L2430.00 1402.96 L2420.00 1402.96 L2415.00 1411.62 L2410.00 1402.96 L2400.00 1402.96 L2395.00 1411.62 L2400.00 1420.28 L2390.00 1420.28 L2385.00 1428.94 L2380.00 1420.28 L2370.00 1420.28 L2375.00 1411.62 L2370.00 1402.96 L2360.00 1402.96 L2355.00 1411.62 L2350.00 1402.96 L2340.00 1402.96 L2335.00 1411.62 L2340.00 1420.28 L2330.00 1420.28 L2325.00 1428.94 L2330.00 1437.60 L2340.00 1437.60 L2335.00 1446.26 L2340.00 1454.93 L2330.00 1454.93 L2325.00 1463.59 L2320.00 1454.93 L2310.00 1454.93 L2305.00 1463.59 L2310.00 1472.25 L2300.00 1472.25 L2295.00 1480.91 L2290.00 1472.25 L2280.00 1472.25 L2285.00 1463.59 L2280.00 1454.93 L2270.00 1454.93 L2265.00 1463.59 L2260.00 1454.93 L2250.00 1454.93 L2255.00 1446.26 L2250.00 1437.60 L2260.00 1437.60 L2265.00 1428.94 L2260.00 1420.28 L2250.00 1420.28 L2255.00 1411.62 L2250.00 1402.96 L2240.00 1402.96 L2235.00 1411.62 L2230.00 1402.96 L2220.00 1402.96 L2215.00 1411.62 L2220.00 1420.28 L2210.00 1420.28 L2205.00 1428.94 L2200.00 1420.28 L2190.00 1420.28 L2195.00 1411.62 L2190.00 1402.96 L2180.00 1402.96 L2175.00 1411.62 L2170.00 1402.96 L2160.00 1402.96 L2155.00 1411.62 L2160.00 1420.28 L2150.00 1420.28 L2145.00 1428.94 L2150.00 1437.60 L2160.00 1437.60 L2155.00 1446.26 L2160.00 1454.93 L2150.00 1454.93 L2145.00 1463.59 L2140.00 1454.93 L2130.00 1454.93 L2125.00 1463.59 L2130.00 1472.25 L2120.00 1472.25 L2115.00 1480.91 L2120.00 1489.57 L2130.00 1489.57 L2125.00 1498.23 L2130.00 1506.89 L2140.00 1506.89 L2145.00 1498.23 L2150.00 1506.89 L2160.00 1506.89 L2155.00 1515.55 L2160.00 1524.21 L2150.00 1524.21 L2145.00 1532.87 L2150.00 1541.53 L2160.00 1541.53 L2155.00 1550.19 L2160.00 1558.85 L2150.00 1558.85 L2145.00 1567.51 L2140.00 1558.85 L2130.00 1558.85 L2125.00 1567.51 L2130.00 1576.17 L2120.00 1576.17 L2115.00 1584.83 L2110.00 1576.17 L2100.00 1576.17 L2105.00 1567.51 L2100.00 1558.85 L2090.00 1558.85 L2085.00 1567.51 L2080.00 1558.85 L2070.00 1558.85 L2065.00 1567.51 L2070.00 1576.17 L2060.00 1576.17 L2055.00 1584.83 L2060.00 1593.49 L2070.00 1593.49 L2065.00 1602.15 L2070.00 1610.81 L2060.00 1610.81 L2055.00 1619.47 L2050.00 1610.81 L2040.00 1610.81 L2035.00 1619.47 L2040.00 1628.13 L2030.00 1628.13 L2025.00 1636.79 L2020.00 1628.13 L2010.00 1628.13 L2015.00 1619.47 L2010.00 1610.81 L2000.00 1610.81 L1995.00 1619.47 L1990.00 1610.81 L1980.00 1610.81 L1985.00 1602.15 L1980.00 1593.49 L1990.00 1593.49 L1995.00 1584.83 L1990.00 1576.17 L1980.00 1576.17 L1985.00 1567.51 L1980.00 1558.85 L1970.00 1558.85 L1965.00 1567.51 L1960.00 1558.85 L1950.00 1558.85 L1945.00 1567.51 L1950.00 1576.17 L1940.00 1576.17 L1935.00 1584.83 L1930.00 1576.17 L1920.00 1576.17 L1925.00 1567.51 L1920.00 1558.85 L1910.00 1558.85 L1905.00 1567.51 L1900.00 1558.85 L1890.00 1558.85 L1895.00 1550.19 L1890.00 1541.53 L1900.00 1541.53 L1905.00 1532.87 L1900.00 1524.21 L1890.00 1524.21 L1895.00 1515.55 L1890.00 1506.89 L1900.00 1506.89 L1905.00 1498.23 L1910.00 1506.89 L1920.00 1506.89 L1925.00 1498.23 L1920.00 1489.57 L1930.00 1489.57 L1935.00 1480.91 L1930.00 1472.25 L1920.00 1472.25 L1925.00 1463.59 L1920.00 1454.93 L1910.00 1454.93 L1905.00 1463.59 L1900.00 1454.93 L1890.00 1454.93 L1895.00 1446.26 L1890.00 1437.60 L1900.00 1437.60 L1905.00 1428.94 L1900.00 1420.28 L1890.00 1420.28 L1895.00 1411.62 L1890.00 1402.96 L1880.00 1402.96 L1875.00 1411.62 L1870.00 1402.96 L1860.00 1402.96 L1855.00 1411.62 L1860.00 1420.28 L1850.00 1420.28 L1845.00 1428.94 L1840.00 1420.28 L1830.00 1420.28 L1835.00 1411.62 L1830.00 1402.96 L1820.00 1402.96 L1815.00 1411.62 L1810.00 1402.96 L1800.00 1402.96 L1795.00 1411.62 L1800.00 1420.28 L1790.00 1420.28 L1785.00 1428.94 L1790.00 1437.60 L1800.00 1437.60 L1795.00 1446.26 L1800.00 1454.93 L1790.00 1454.93 L1785.00 1463.59 L1780.00 1454.93 L1770.00 1454.93 L1765.00 1463.59 L1770.00 1472.25 L1760.00 1472.25 L1755.00 1480.91 L1750.00 1472.25 L1740.00 1472.25 L1745.00 1463.59 L1740.00 1454.93 L1730.00 1454.93 L1725.00 1463.59 L1720.00 1454.93 L1710.00 1454.93 L1715.00 1446.26 L1710.00 1437.60 L1720.00 1437.60 L1725.00 1428.94 L1720.00 1420.28 L1710.00 1420.28 L1715.00 1411.62 L1710.00 1402.96 L1700.00 1402.96 L1695.00 1411.62 L1690.00 1402.96 L1680.00 1402.96 L1675.00 1411.62 L1680.00 1420.28 L1670.00 1420.28 L1665.00 1428.94 L1660.00 1420.28 L1650.00 1420.28 L1655.00 1411.62 L1650.00 1402.96 L1640.00 1402.96 L1635.00 1411.62 L1630.00 1402.96 L1620.00 1402.96 L1615.00 1411.62 L1620.00 1420.28 L1610.00 1420.28 L1605.00 1428.94 L1610.00 1437.60 L1620.00 1437.60 L1615.00 1446.26 L1620.00 1454.93 L1610.00 1454.93 L1605.00 1463.59 L1600.00 1454.93 L1590.00 1454.93 L1585.00 1463.59 L1590.00 1472.25 L1580.00 1472.25 L1575.00 1480.91 L1580.00 1489.57 L1590.00 1489.57 L1585.00 1498.23 L1590.00 1506.89 L1600.00 1506.89 L1605.00 1498.23 L1610.00 1506.89 L1620.00 1506.89 L1615.00 1515.55 L1620.00 1524.21 L1610.00 1524.21 L1605.00 1532.87 L1610.00 1541.53 L1620.00 1541.53 L1615.00 1550.19 L1620.00 1558.85 L1610.00 1558.85 L1605.00 1567.51 L1600.00 1558.85 L1590.00 1558.85 L1585.00 1567.51 L1590.00 1576.17 L1580.00 1576.17 L1575.00 1584.83 L1570.00 1576.17 L1560.00 1576.17 L1565.00 1567.51 L1560.00 1558.85 L1550.00 1558.85 L1545.00 1567.51 L1540.00 1558.85 L1530.00 1558.85 L1525.00 1567.51 L1530.00 1576.17 L1520.00 1576.17 L1515.00 1584.83 L1520.00 1593.49 L1530.00 1593.49 L1525.00 1602.15 L1530.00 1610.81 L1520.00 1610.81 L1515.00 1619.47 L1510.00 1610.81 L1500.00 1610.81 L1495.00 1619.47 L1500.00 1628.13 L1490.00 1628.13 L1485.00 1636.79 L1490.00 1645.45 L1500.00 1645.45 L1495.00 1654.11 L1500.00 1662.77 L1510.00 1662.77 L1515.00 1654.11 L1520.00 1662.77 L1530.00 1662.77 L1525.00 1671.43 L1530.00 1680.09 L1520.00 1680.09 L1515.00 1688.75 L1520.00 1697.41 L1530.00 1697.41 L1525.00 1706.07 L1530.00 1714.73 L1540.00 1714.73 L1545.00 1706.07 L1550.00 1714.73 L1560.00 1714.73 L1565.00 1706.07 L1560.00 1697.41 L1570.00 1697.41 L1575.00 1688.75 L1580.00 1697.41 L1590.00 1697.41 L1585.00 1706.07 L1590.00 1714.73 L1600.00 1714.73 L1605.00 1706.07 L1610.00 1714.73 L1620.00 1714.73 L1615.00 1723.39 L1620.00 1732.05 L1610.00 1732.05 L1605.00 1740.71 L1610.00 1749.37 L1620.00 1749.37 L1615.00 1758.03 L1620.00 1766.70 L1610.00 1766.70 L1605.00 1775.36 L1600.00 1766.70 L1590.00 1766.70 L1585.00 1775.36 L1590.00 1784.02 L1580.00 1784.02 L1575.00 1792.68 L1580.00 1801.34 L1590.00 1801.34 L1585.00 1810.00 L1590.00 1818.66 L1600.00 1818.66 L1605.00 1810.00 L1610.00 1818.66 L1620.00 1818.66 L1615.00 1827.32 L1620.00 1835.98 L1610.00 1835.98 L1605.00 1844.64 L1610.00 1853.30 L1620.00 1853.30 L1615.00 1861.96 L1620.00 1870.62 L1610.00 1870.62 L1605.00 1879.28 L1600.00 1870.62 L1590.00 1870.62 L1585.00 1879.28 L1590.00 1887.94 L1580.00 1887.94 L1575.00 1896.60 L1570.00 1887.94 L1560.00 1887.94 L1565.00 1879.28 L1560.00 1870.62 L1550.00 1870.62 L1545.00 1879.28 L1540.00 1870.62 L1530.00 1870.62 L1525.00 1879.28 L1530.00 1887.94 L1520.00 1887.94 L1515.00 1896.60 L1520.00 1905.26 L1530.00 1905.26 L1525.00 1913.92 L1530.00 1922.58 L1520.00 1922.58 L1515.00 1931.24 L1510.00 1922.58 L1500.00 1922.58 L1495.00 1931.24 L1500.00 1939.90 L1490.00 1939.90 L1485.00 1948.56 L1480.00 1939.90 L1470.00 1939.90 L1475.00 1931.24 L1470.00 1922.58 L1460.00 1922.58 L1455.00 1931.24 L1450.00 1922.58 L1440.00 1922.58 L1445.00 1913.92 L1440.00 1905.26 L1450.00 1905.26 L1455.00 1896.60 L1450.00 1887.94 L1440.00 1887.94 L1445.00 1879.28 L1440.00 1870.62 L1430.00 1870.62 L1425.00 1879.28 L1420.00 1870.62 L1410.00 1870.62 L1405.00 1879.28 L1410.00 1887.94 L1400.00 1887.94 L1395.00 1896.60 L1390.00 1887.94 L1380.00 1887.94 L1385.00 1879.28 L1380.00 1870.62 L1370.00 1870.62 L1365.00 1879.28 L1360.00 1870.62 L1350.00 1870.62 L1345.00 1879.28 L1350.00 1887.94 L1340.00 1887.94 L1335.00 1896.60 L1340.00 1905.26 L1350.00 1905.26 L1345.00 1913.92 L1350.00 1922.58 L1340.00 1922.58 L1335.00 1931.24 L1330.00 1922.58 L1320.00 1922.58 L1315.00 1931.24 L1320.00 1939.90 L1310.00 1939.90 L1305.00 1948.56 L1310.00 1957.22 L1320.00 1957.22 L1315.00 1965.88 L1320.00 1974.54 L1330.00 1974.54 L1335.00 1965.88 L1340.00 1974.54 L1350.00 1974.54 L1345.00 1983.20 L1350.00 1991.86 L1340.00 1991.86 L1335.00 2000.52 L1340.00 2009.18 L1350.00 2009.18 L1345.00 2017.84 L1350.00 2026.50 L1340.00 2026.50 L1335.00 2035.16 L1330.00 2026.50 L1320.00 2026.50 L1315.00 2035.16 L1320.00 2043.82 L1310.00 2043.82 L1305.00 2052.48 L1300.00 2043.82 L1290.00 2043.82 L1295.00 2035.16 L1290.00 2026.50 L1280.00 2026.50 L1275.00 2035.16 L1270.00 2026.50 L1260.00 2026.50 L1255.00 2035.16 L1260.00 2043.82 L1250.00 2043.82 L1245.00 2052.48 L1250.00 2061.14 L1260.00 2061.14 L1255.00 2069.80 L1260.00 2078.46 L1250.00 2078.46 L1245.00 2087.12 L1240.00 2078.46 L1230.00 2078.46 L1225.00 2087.12 L1230.00 2095.78 L1220.00 2095.78 L1215.00 2104.45 L1210.00 2095.78 L1200.00 2095.78 L1205.00 2087.12 L1200.00 2078.46 L1190.00 2078.46 L1185.00 2087.12 L1180.00 2078.46 L1170.00 2078.46 L1175.00 2069.80 L1170.00 2061.14 L1180.00 2061.14 L1185.00 2052.48 L1180.00 2043.82 L1170.00 2043.82 L1175.00 2035.16 L1170.00 2026.50 L1160.00 2026.50 L1155.00 2035.16 L1150.00 2026.50 L1140.00 2026.50 L1135.00 2035.16 L1140.00 2043.82 L1130.00 2043.82 L1125.00 2052.48 L1120.00 2043.82 L1110.00 2043.82 L1115.00 2035.16 L1110.00 2026.50 L1100.00 2026.50 L1095.00 2035.16 L1090.00 2026.50 L1080.00 2026.50 L1085.00 2017.84 L1080.00 2009.18 L1090.00 2009.18 L1095.00 2000.52 L1090.00 1991.86 L1080.00 1991.86 L1085.00 1983.20 L1080.00 1974.54 L1090.00 1974.54 L1095.00 1965.88 L1100.00 1974.54 L1110.00 1974.54 L1115.00 1965.88 L1110.00 1957.22 L1120.00 1957.22 L1125.00 1948.56 L1120.00 1939.90 L1110.00 1939.90 L1115.00 1931.24 L1110.00 1922.58 L1100.00 1922.58 L1095.00 1931.24 L1090.00 1922.58 L1080.00 1922.58 L1085.00 1913.92 L1080.00 1905.26 L1090.00 1905.26 L1095.00 1896.60 L1090.00 1887.94 L1080.00 1887.94 L1085.00 1879.28 L1080.00 1870.62 L1070.00 1870.62 L1065.00 1879.28 L1060.00 1870.62 L1050.00 1870.62 L1045.00 1879.28 L1050.00 1887.94 L1040.00 1887.94 L1035.00 1896.60 L1030.00 1887.94 L1020.00 1887.94 L1025.00 1879.28 L1020.00 1870.62 L1010.00 1870.62 L1005.00 1879.28 L1000.00 1870.62 L990.00 1870.62 L985.00 1879.28 L990.00 1887.94 L980.00 1887.94 L975.00 1896.60 L980.00 1905.26 L990.00 1905.26 L985.00 1913.92 L990.00 1922.58 L980.00 1922.58 L975.00 1931.24 L970.00 1922.58 L960.00 1922.58 L955.00 1931.24 L960.00 1939.90 L950.00 1939.90 L945.00 1948.56 L940.00 1939.90 L930.00 1939.90 L935.00 1931.24 L930.00 1922.58 L920.00 1922.58 L915.00 1931.24 L910.00 1922.58 L900.00 1922.58 L905.00 1913.92 L900.00 1905.26 L910.00 1905.26 L915.00 1896.60 L910.00 1887.94 L900.00 1887.94 L905.00 1879.28 L900.00 1870.62 L890.00 1870.62 L885.00 1879.28 L880.00 1870.62 L870.00 1870.62 L865.00 1879.28 L870.00 1887.94 L860.00 1887.94 L855.00 1896.60 L850.00 1887.94 L840.00 1887.94 L845.00 1879.28 L840.00 1870.62 L830.00 1870.62 L825.00 1879.28 L820.00 1870.62 L810.00 1870.62 L815.00 1861.96 L810.00 1853.30 L820.00 1853.30 L825.00 1844.64 L820.00 1835.98 L810.00 1835.98 L815.00 1827.32 L810.00 1818.66 L820.00 1818.66 L825.00 1810.00 L830.00 1818.66 L840.00 1818.66 L845.00 1810.00 L840.00 1801.34 L850.00 1801.34 L855.00 1792.68 L850.00 1784.02 L840.00 1784.02 L845.00 1775.36 L840.00 1766.69 L830.00 1766.69 L825.00 1775.36 L820.00 1766.69 L810.00 1766.69 L815.00 1758.03 L810.00 1749.37 L820.00 1749.37 L825.00 1740.71 L820.00 1732.05 L810.00 1732.05 L815.00 1723.39 L810.00 1714.73 L820.00 1714.73 L825.00 1706.07 L830.00 1714.73 L840.00 1714.73 L845.00 1706.07 L840.00 1697.41 L850.00 1697.41 L855.00 1688.75 L860.00 1697.41 L870.00 1697.41 L865.00 1706.07 L870.00 1714.73 L880.00 1714.73 L885.00 1706.07 L890.00 1714.73 L900.00 1714.73 L905.00 1706.07 L900.00 1697.41 L910.00 1697.41 L915.00 1688.75 L910.00 1680.09 L900.00 1680.09 L905.00 1671.43 L900.00 1662.77 L910.00 1662.77 L915.00 1654.11 L920.00 1662.77 L930.00 1662.77 L935.00 1654.11 L930.00 1645.45 L940.00 1645.45 L945.00 1636.79 L940.00 1628.13 L930.00 1628.13 L935.00 1619.47 L930.00 1610.81 L920.00 1610.81 L915.00 1619.47 L910.00 1610.81 L900.00 1610.81 L905.00 1602.15 L900.00 1593.49 L910.00 1593.49 L915.00 1584.83 L910.00 1576.17 L900.00 1576.17 L905.00 1567.51 L900.00 1558.85 L890.00 1558.85 L885.00 1567.51 L880.00 1558.85 L870.00 1558.85 L865.00 1567.51 L870.00 1576.17 L860.00 1576.17 L855.00 1584.83 L850.00 1576.17 L840.00 1576.17 L845.00 1567.51 L840.00 1558.85 L830.00 1558.85 L825.00 1567.51 L820.00 1558.85 L810.00 1558.85 L815.00 1550.19 L810.00 1541.53 L820.00 1541.53 L825.00 1532.87 L820.00 1524.21 L810.00 1524.21 L815.00 1515.55 L810.00 1506.89 L820.00 1506.89 L825.00 1498.23 L830.00 1506.89 L840.00 1506.89 L845.00 1498.23 L840.00 1489.57 L850.00 1489.57 L855.00 1480.91 L850.00 1472.25 L840.00 1472.25 L845.00 1463.59 L840.00 1454.92 L830.00 1454.92 L825.00 1463.59 L820.00 1454.92 L810.00 1454.92 L815.00 1446.26 L810.00 1437.60 L820.00 1437.60 L825.00 1428.94 L820.00 1420.28 L810.00 1420.28 L815.00 1411.62 L810.00 1402.96 L800.00 1402.96 L795.00 1411.62 L790.00 1402.96 L780.00 1402.96 L775.00 1411.62 L780.00 1420.28 L770.00 1420.28 L765.00 1428.94 L760.00 1420.28 L750.00 1420.28 L755.00 1411.62 L750.00 1402.96 L740.00 1402.96 L735.00 1411.62 L730.00 1402.96 L720.00 1402.96 L715.00 1411.62 L720.00 1420.28 L710.00 1420.28 L705.00 1428.94 L710.00 1437.60 L720.00 1437.60 L715.00 1446.26 L720.00 1454.92 L710.00 1454.92 L705.00 1463.59 L700.00 1454.92 L690.00 1454.92 L685.00 1463.59 L690.00 1472.25 L680.00 1472.25 L675.00 1480.91 L670.00 1472.25 L660.00 1472.25 L665.00 1463.59 L660.00 1454.92 L650.00 1454.92 L645.00 1463.59 L640.00 1454.92 L630.00 1454.92 L635.00 1446.26 L630.00 1437.60 L640.00 1437.60 L645.00 1428.94 L640.00 1420.28 L630.00 1420.28 L635.00 1411.62 L630.00 1402.96 L620.00 1402.96 L615.00 1411.62 L610.00 1402.96 L600.00 1402.96 L595.00 1411.62 L600.00 1420.28 L590.00 1420.28 L585.00 1428.94 L580.00 1420.28 L570.00 1420.28 L575.00 1411.62 L570.00 1402.96 L560.00 1402.96 L555.00 1411.62 L550.00 1402.96 L540.00 1402.96 L535.00 1411.62 L540.00 1420.28 L530.00 1420.28 L525.00 1428.94 L530.00 1437.60 L540.00 1437.60 L535.00 1446.26 L540.00 1454.92 L530.00 1454.92 L525.00 1463.59 L520.00 1454.92 L510.00 1454.92 L505.00 1463.59 L510.00 1472.25 L500.00 1472.25 L495.00 1480.91 L500.00 1489.57 L510.00 1489.57 L505.00 1498.23 L510.00 1506.89 L520.00 1506.89 L525.00 1498.23 L530.00 1506.89 L540.00 1506.89 L535.00 1515.55 L540.00 1524.21 L530.00 1524.21 L525.00 1532.87 L530.00 1541.53 L540.00 1541.53 L535.00 1550.19 L540.00 1558.85 L530.00 1558.85 L525.00 1567.51 L520.00 1558.85 L510.00 1558.85 L505.00 1567.51 L510.00 1576.17 L500.00 1576.17 L495.00 1584.83 L490.00 1576.17 L480.00 1576.17 L485.00 1567.51 L480.00 1558.85 L470.00 1558.85 L465.00 1567.51 L460.00 1558.85 L450.00 1558.85 L445.00 1567.51 L450.00 1576.17 L440.00 1576.17 L435.00 1584.83 L440.00 1593.49 L450.00 1593.49 L445.00 1602.15 L450.00 1610.81 L440.00 1610.81 L435.00 1619.47 L430.00 1610.81 L420.00 1610.81 L415.00 1619.47 L420.00 1628.13 L410.00 1628.13 L405.00 1636.79 L400.00 1628.13 L390.00 1628.13 L395.00 1619.47 L390.00 1610.81 L380.00 1610.81 L375.00 1619.47 L370.00 1610.81 L360.00 1610.81 L365.00 1602.15 L360.00 1593.49 L370.00 1593.49 L375.00 1584.83 L370.00 1576.17 L360.00 1576.17 L365.00 1567.51 L360.00 1558.85 L350.00 1558.85 L345.00 1567.51 L340.00 1558.85 L330.00 1558.85 L325.00 1567.51 L330.00 1576.17 L320.00 1576.17 L315.00 1584.83 L310.00 1576.17 L300.00 1576.17 L305.00 1567.51 L300.00 1558.85 L290.00 1558.85 L285.00 1567.51 L280.00 1558.85 L270.00 1558.85 L275.00 1550.19 L270.00 1541.53 L280.00 1541.53 L285.00 1532.87 L280.00 1524.21 L270.00 1524.21 L275.00 1515.55 L270.00 1506.89 L280.00 1506.89 L285.00 1498.23 L290.00 1506.89 L300.00 1506.89 L305.00 1498.23 L300.00 1489.57 L310.00 1489.57 L315.00 1480.91 L310.00 1472.25 L300.00 1472.25 L305.00 1463.59 L300.00 1454.92 L290.00 1454.92 L285.00 1463.59 L280.00 1454.92 L270.00 1454.92 L275.00 1446.26 L270.00 1437.60 L280.00 1437.60 L285.00 1428.94 L280.00 1420.28 L270.00 1420.28 L275.00 1411.62 L270.00 1402.96 L260.00 1402.96 L255.00 1411.62 L250.00 1402.96 L240.00 1402.96 L235.00 1411.62 L240.00 1420.28 L230.00 1420.28 L225.00 1428.94 L220.00 1420.28 L210.00 1420.28 L215.00 1411.62 L210.00 1402.96 L200.00 1402.96 L195.00 1411.62 L190.00 1402.96 L180.00 1402.96 L175.00 1411.62 L180.00 1420.28 L170.00 1420.28 L165.00 1428.94 L170.00 1437.60 L180.00 1437.60 L175.00 1446.26 L180.00 1454.92 L170.00 1454.92 L165.00 1463.59 L160.00 1454.92 L150.00 1454.92 L145.00 1463.59 L150.00 1472.25 L140.00 1472.25 L135.00 1480.91 L130.00 1472.25 L120.00 1472.25 L125.00 1463.59 L120.00 1454.92 L110.00 1454.92 L105.00 1463.59 L100.00 1454.92 L90.00 1454.92 L95.00 1446.26 L90.00 1437.60 L100.00 1437.60 L105.00 1428.94 L100.00 1420.28 L90.00 1420.28 L95.00 1411.62 L90.00 1402.96 L80.00 1402.96 L75.00 1411.62 L70.00 1402.96 L60.00 1402.96 L55.00 1411.62 L60.00 1420.28 L50.00 1420.28 L45.00 1428.94 L40.00 1420.28 L30.00 1420.28 L35.00 1411.62 L30.00 1402.96 L20.00 1402.96 L15.00 1411.62 L10.00 1402.96 L0.00 1402.96 L5.00 1394.30 L-0.00 1385.64 L10.00 1385.64 L15.00 1376.98 L10.00 1368.32 L0.00 1368.32 L5.00 1359.66 L-0.00 1351.00 L10.00 1351.00 L15.00 1342.34 L20.00 1351.00 L30.00 1351.00 L35.00 1342.34 L30.00 1333.68 L40.00 1333.68 L45.00 1325.02 L40.00 1316.36 L30.00 1316.36 L35.00 1307.70 L30.00 1299.04 L20.00 1299.04 L15.00 1307.70 L10.00 1299.04 L0.00 1299.04 L5.00 1290.38 L-0.00 1281.72 L10.00 1281.72 L15.00 1273.06 L10.00 1264.40 L0.00 1264.40 L5.00 1255.74 L-0.00 1247.08 L10.00 1247.08 L15.00 1238.42 L20.00 1247.08 L30.00 1247.08 L35.00 1238.42 L30.00 1229.76 L40.00 1229.76 L45.00 1221.10 L50.00 1229.76 L60.00 1229.76 L55.00 1238.42 L60.00 1247.08 L70.00 1247.08 L75.00 1238.42 L80.00 1247.08 L90.00 1247.08 L95.00 1238.42 L90.00 1229.76 L100.00 1229.76 L105.00 1221.10 L100.00 1212.44 L90.00 1212.44 L95.00 1203.78 L90.00 1195.12 L100.00 1195.12 L105.00 1186.46 L110.00 1195.12 L120.00 1195.12 L125.00 1186.46 L120.00 1177.80 L130.00 1177.80 L135.00 1169.14 L130.00 1160.48 L120.00 1160.48 L125.00 1151.82 L120.00 1143.15 L110.00 1143.15 L105.00 1151.82 L100.00 1143.15 L90.00 1143.15 L95.00 1134.49 L90.00 1125.83 L100.00 1125.83 L105.00 1117.17 L100.00 1108.51 L90.00 1108.51 L95.00 1099.85 L90.00 1091.19 L80.00 1091.19 L75.00 1099.85 L70.00 1091.19 L60.00 1091.19 L55.00 1099.85 L60.00 1108.51 L50.00 1108.51 L45.00 1117.17 L40.00 1108.51 L30.00 1108.51 L35.00 1099.85 L30.00 1091.19 L20.00 1091.19 L15.00 1099.85 L10.00 1091.19 L0.00 1091.19 L5.00 1082.53 L-0.00 1073.87 L10.00 1073.87 L15.00 1065.21 L10.00 1056.55 L0.00 1056.55 L5.00 1047.89 L-0.00 1039.23 L10.00 1039.23 L15.00 1030.57 L20.00 1039.23 L30.00 1039.23 L35.00 1030.57 L30.00 1021.91 L40.00 1021.91 L45.00 1013.25 L40.00 1004.59 L30.00 1004.59 L35.00 995.93 L30.00 987.27 L20.00 987.27 L15.00 995.93 L10.00 987.27 L0.00 987.27 L5.00 978.61 L-0.00 969.95 L10.00 969.95 L15.00 961.29 L10.00 952.63 L0.00 952.63 L5.00 943.97 L-0.00 935.31 L10.00 935.31 L15.00 926.65 L20.00 935.31 L30.00 935.31 L35.00 926.65 L30.00 917.99 L40.00 917.99 L45.00 909.33 L50.00 917.99 L60.00 917.99 L55.00 926.65 L60.00 935.31 L70.00 935.31 L75.00 926.65 L80.00 935.31 L90.00 935.31 L95.00 926.65 L90.00 917.99 L100.00 917.99 L105.00 909.33 L100.00 900.67 L90.00 900.67 L95.00 892.01 L90.00 883.35 L100.00 883.35 L105.00 874.69 L110.00 883.35 L120.00 883.35 L125.00 874.69 L120.00 866.03 L130.00 866.03 L135.00 857.37 L140.00 866.03 L150.00 866.03 L145.00 874.69 L150.00 883.35 L160.00 883.35 L165.00 874.69 L170.00 883.35 L180.00 883.35 L175.00 892.01 L180.00 900.67 L170.00 900.67 L165.00 909.33 L170.00 917.99 L180.00 917.99 L175.00 926.65 L180.00 935.31 L190.00 935.31 L195.00 926.65 L200.00 935.31 L210.00 935.31 L215.00 926.65 L210.00 917.99 L220.00 917.99 L225.00 909.33 L230.00 917.99 L240.00 917.99 L235.00 926.65 L240.00 935.31 L250.00 935.31 L255.00 926.65 L260.00 935.31 L270.00 935.31 L275.00 926.65 L270.00 917.99 L280.00 917.99 L285.00 909.33 L280.00 900.67 L270.00 900.67 L275.00 892.01 L270.00 883.35 L280.00 883.35 L285.00 874.69 L290.00 883.35 L300.00 883.35 L305.00 874.69 L300.00 866.03 L310.00 866.03 L315.00 857.37 L310.00 848.71 L300.00 848.71 L305.00 840.05 L300.00 831.38 L290.00 831.38 L285.00 840.05 L280.00 831.38 L270.00 831.38 L275.00 822.72 L270.00 814.06 L280.00 814.06 L285.00 805.40 L280.00 796.74 L270.00 796.74 L275.00 788.08 L270.00 779.42 L280.00 779.42 L285.00 770.76 L290.00 779.42 L300.00 779.42 L305.00 770.76 L300.00 762.10 L310.00 762.10 L315.00 753.44 L320.00 762.10 L330.00 762.10 L325.00 770.76 L330.00 779.42 L340.00 779.42 L345.00 770.76 L350.00 779.42 L360.00 779.42 L365.00 770.76 L360.00 762.10 L370.00 762.10 L375.00 753.44 L370.00 744.78 L360.00 744.78 L365.00 736.12 L360.00 727.46 L370.00 727.46 L375.00 718.80 L380.00 727.46 L390.00 727.46 L395.00 718.80 L390.00 710.14 L400.00 710.14 L405.00 701.48 L400.00 692.82 L390.00 692.82 L395.00 684.16 L390.00 675.50 L380.00 675.50 L375.00 684.16 L370.00 675.50 L360.00 675.50 L365.00 666.84 L360.00 658.18 L370.00 658.18 L375.00 649.52 L370.00 640.86 L360.00 640.86 L365.00 632.20 L360.00 623.54 L350.00 623.54 L345.00 632.20 L340.00 623.54 L330.00 623.54 L325.00 632.20 L330.00 640.86 L320.00 640.86 L315.00 649.52 L310.00 640.86 L300.00 640.86 L305.00 632.20 L300.00 623.54 L290.00 623.54 L285.00 632.20 L280.00 623.54 L270.00 623.54 L275.00 614.88 L270.00 606.22 L280.00 606.22 L285.00 597.56 L280.00 588.90 L270.00 588.90 L275.00 580.24 L270.00 571.58 L280.00 571.58 L285.00 562.92 L290.00 571.58 L300.00 571.58 L305.00 562.92 L300.00 554.26 L310.00 554.26 L315.00 545.60 L310.00 536.94 L300.00 536.94 L305.00 528.28 L300.00 519.61 L290.00 519.61 L285.00 528.28 L280.00 519.61 L270.00 519.61 L275.00 510.95 L270.00 502.29 L280.00 502.29 L285.00 493.63 L280.00 484.97 L270.00 484.97 L275.00 476.31 L270.00 467.65 L260.00 467.65 L255.00 476.31 L250.00 467.65 L240.00 467.65 L235.00 476.31 L240.00 484.97 L230.00 484.97 L225.00 493.63 L220.00 484.97 L210.00 484.97 L215.00 476.31 L210.00 467.65 L200.00 467.65 L195.00 476.31 L190.00 467.65 L180.00 467.65 L175.00 476.31 L180.00 484.97 L170.00 484.97 L165.00 493.63 L170.00 502.29 L180.00 502.29 L175.00 510.95 L180.00 519.61 L170.00 519.61 L165.00 528.28 L160.00 519.61 L150.00 519.61 L145.00 528.28 L150.00 536.94 L140.00 536.94 L135.00 545.60 L130.00 536.94 L120.00 536.94 L125.00 528.28 L120.00 519.61 L110.00 519.61 L105.00 528.28 L100.00 519.61 L90.00 519.61 L95.00 510.95 L90.00 502.29 L100.00 502.29 L105.00 493.63 L100.00 484.97 L90.00 484.97 L95.00 476.31 L90.00 467.65 L80.00 467.65 L75.00 476.31 L70.00 467.65 L60.00 467.65 L55.00 476.31 L60.00 484.97 L50.00 484.97 L45.00 493.63 L40.00 484.97 L30.00 484.97 L35.00 476.31 L30.00 467.65 L20.00 467.65 L15.00 476.31 L10.00 467.65 L0.00 467.65 L5.00 458.99 L-0.00 450.33 L10.00 450.33 L15.00 441.67 L10.00 433.01 L0.00 433.01 L5.00 424.35 L-0.00 415.69 L10.00 415.69 L15.00 407.03 L20.00 415.69 L30.00 415.69 L35.00 407.03 L30.00 398.37 L40.00 398.37 L45.00 389.71 L40.00 381.05 L30.00 381.05 L35.00 372.39 L30.00 363.73 L20.00 363.73 L15.00 372.39 L10.00 363.73 L0.00 363.73 L5.00 355.07 L-0.00 346.41 L10.00 346.41 L15.00 337.75 L10.00 329.09 L0.00 329.09 L5.00 320.43 L-0.00 311.77 L10.00 311.77 L15.00 303.11 L20.00 311.77 L30.00 311.77 L35.00 303.11 L30.00 294.45 L40.00 294.45 L45.00 285.79 L50.00 294.45 L60.00 294.45 L55.00 303.11 L60.00 311.77 L70.00 311.77 L75.00 303.11 L80.00 311.77 L90.00 311.77 L95.00 303.11 L90.00 294.45 L100.00 294.45 L105.00 285.79 L100.00 277.13 L90.00 277.13 L95.00 268.47 L90.00 259.81 L100.00 259.81 L105.00 251.15 L110.00 259.81 L120.00 259.81 L125.00 251.15 L120.00 242.49 L130.00 242.49 L135.00 233.83 L130.00 225.17 L120.00 225.17 L125.00 216.51 L120.00 207.85 L110.00 207.85 L105.00 216.51 L100.00 207.85 L90.00 207.85 L95.00 199.19 L90.00 190.53 L100.00 190.53 L105.00 181.87 L100.00 173.20 L90.00 173.20 L95.00 164.54 L90.00 155.88 L80.00 155.88 L75.00 164.54 L70.00 155.88 L60.00 155.88 L55.00 164.54 L60.00 173.20 L50.00 173.20 L45.00 181.87 L40.00 173.20 L30.00 173.20 L35.00 164.54 L30.00 155.88 L20.00 155.88 L15.00 164.54 L10.00 155.88 L0.00 155.88 L5.00 147.22 L-0.00 138.56 L10.00 138.56 L15.00 129.90 L10.00 121.24 L0.00 121.24 L5.00 112.58 L-0.00 103.92 L10.00 103.92 L15.00 95.26 L20.00 103.92 L30.00 103.92 L35.00 95.26 L30.00 86.60 L40.00 86.60 L45.00 77.94 L40.00 69.28 L30.00 69.28 L35.00 60.62 L30.00 51.96 L20.00 51.96 L15.00 60.62 L10.00 51.96 L0.00 51.96 L5.00 43.30 L-0.00 34.64 L10.00 34.64 L15.00 25.98 L10.00 17.32 L0.00 17.32 L5.00 8.66 L-0.00 -0.00 " />
</g>
</svg>

