<svg viewBox="0 0 400.000000 400.000000" xmlns="http://www.w3.org/2000/svg" version="1.1">
<!-- SEED 88577367 -->
<rect width="400.000000" height="400.000000" fill="#DDAADD" fill-opacity="1.000000"/>
<g transform="scale(3.372681,3.372681) translate(27.299999,91.300003) ">
<path stroke="#000000" stroke-opacity="1.000000" stroke-width="0.300000" fill="none" fill-opacity="1" d="M0.00 0.00 L1.00 0.00 L1.00 -1.00 L2.00 -1.00 L2.00 0.00 L2.00 1.00 L3.00 1.00 L3.00 0.00 L4.00 0.00 L4.00 -1.00 L3.00 -1.00 L3.00 -2.00 L4.00 -2.00 L5.00 -2.00 L5.00 -3.00 L4.00 -3.00 L4.00 -4.00 L5.00 -4.00 L5.00 -5.00 L6.00 -5.00 L6.00 -4.00 L6.00 -3.00 L7.00 -3.00 L7.00 -4.00 L8.00 -4.00 L8.00 -3.00 L9.00 -3.00 L9.00 -2.00 L8.00 -2.00 L7.00 -2.00 L7.00 -1.00 L8.00 -1.00 L8.00 0.00 L8.00 1.00 L9.00 1.00 L9.00 2.00 L8.00 2.00 L7.00 2.00 L7.00 3.00 L8.00 3.00 L8.00 4.00 L9.00 4.00 L9.00 3.00 L10.00 3.00 L10.00 4.00 L10.00 5.00 L11.00 5.00 L11.00 4.00 L12.00 4.00 L12.00 3.00 L11.00 3.00 L11.00 2.00 L12.00 2.00 L13.00 2.00 L13.00 1.00 L12.00 1.00 L12.00 0.00 L13.00 0.00 L13.00 -1.00 L14.00 -1.00 L14.00 0.00 L14.00 1.00 L15.00 1.00 L15.00 0.00 L16.00 0.00 L16.00 -1.00 L15.00 -1.00 L15.00 -2.00 L16.00 -2.00 L17.00 -2.00 L17.00 -3.00 L16.00 -3.00 L16.00 -4.00 L15.00 -4.00 L15.00 -3.00 L14.00 -3.00 L14.00 -4.00 L14.00 -5.00 L13.00 -5.00 L13.00 -4.00 L12.00 -4.00 L12.00 -5.00 L11.00 -5.00 L11.00 -6.00 L12.00 -6.00 L13.00 -6.00 L13.00 -7.00 L12.00 -7.00 L12.00 -8.00 L13.00 -8.00 L13.00 -9.00 L14.00 -9.00 L14.00 -8.00 L14.00 -7.00 L15.00 -7.00 L15.00 -8.00 L16.00 -8.00 L17.00 -8.00 L17.00 -9.00 L18.00 -9.00 L18.00 -8.00 L18.00 -7.00 L19.00 -7.00 L19.00 -8.00 L20.00 -8.00 L20.00 -9.00 L19.00 -9.00 L19.00 -10.00 L20.00 -10.00 L21.00 -10.00 L21.00 -11.00 L20.00 -11.00 L20.00 -12.00 L19.00 -12.00 L19.00 -11.00 L18.00 -11.00 L18.00 -12.00 L18.00 -13.00 L17.00 -13.00 L17.00 -12.00 L16.00 -12.00 L16.00 -13.00 L15.00 -13.00 L15.00 -14.00 L16.00 -14.00 L17.00 -14.00 L17.00 -15.00 L16.00 -15.00 L16.00 -16.00 L17.00 -16.00 L17.00 -17.00 L18.00 -17.00 L18.00 -16.00 L18.00 -15.00 L19.00 -15.00 L19.00 -16.00 L20.00 -16.00 L20.00 -17.00 L19.00 -17.00 L19.00 -18.00 L20.00 -18.00 L21.00 -18.00 L21.00 -19.00 L20.00 -19.00 L20.00 -20.00 L21.00 -20.00 L21.00 -21.00 L22.00 -21.00 L22.00 -20.00 L22.00 -19.00 L23.00 -19.00 L23.00 -20.00 L24.00 -20.00 L24.00 -19.00 L25.00 -19.00 L25.00 -18.00 L24.00 -18.00 L23.00 -18.00 L23.00 -17.00 L24.00 -17.00 L24.00 -16.00 L24.00 -15.00 L25.00 -15.00 L25.00 -14.00 L24.00 -14.00 L23.00 -14.00 L23.00 -13.00 L24.00 -13.00 L24.00 -12.00 L25.00 -12.00 L25.00 -13.00 L26.00 -13.00 L26.00 -12.00 L26.00 -11.00 L27.00 -11.00 L27.00 -12.00 L28.00 -12.00 L28.00 -13.00 L27.00 -13.00 L27.00 -14.00 L28.00 -14.00 L29.00 -14.00 L29.00 -15.00 L28.00 -15.00 L28.00 -16.00 L29.00 -16.00 L29.00 -17.00 L30.00 -17.00 L30.00 -16.00 L30.00 -15.00 L31.00 -15.00 L31.00 -16.00 L32.00 -16.00 L32.00 -15.00 L33.00 -15.00 L33.00 -14.00 L32.00 -14.00 L31.00 -14.00 L31.00 -13.00 L32.00 -13.00 L32.00 -12.00 L33.00 -12.00 L33.00 -13.00 L34.00 -13.00 L34.00 -12.00 L34.00 -11.00 L35.00 -11.00 L35.00 -12.00 L36.00 -12.00 L36.00 -11.00 L37.00 -11.00 L37.00 -10.00 L36.00 -10.00 L35.00 -10.00 L35.00 -9.00 L36.00 -9.00 L36.00 -8.00 L35.00 -8.00 L35.00 -7.00 L34.00 -7.00 L34.00 -8.00 L34.00 -9.00 L33.00 -9.00 L33.00 -8.00 L32.00 -8.00 L31.00 -8.00 L31.00 -7.00 L30.00 -7.00 L30.00 -8.00 L30.00 -9.00 L29.00 -9.00 L29.00 -8.00 L28.00 -8.00 L28.00 -7.00 L29.00 -7.00 L29.00 -6.00 L28.00 -6.00 L27.00 -6.00 L27.00 -5.00 L28.00 -5.00 L28.00 -4.00 L29.00 -4.00 L29.00 -5.00 L30.00 -5.00 L30.00 -4.00 L30.00 -3.00 L31.00 -3.00 L31.00 -4.00 L32.00 -4.00 L32.00 -3.00 L33.00 -3.00 L33.00 -2.00 L32.00 -2.00 L31.00 -2.00 L31.00 -1.00 L32.00 -1.00 L32.00 0.00 L32.00 1.00 L33.00 1.00 L33.00 2.00 L32.00 2.00 L31.00 2.00 L31.00 3.00 L32.00 3.00 L32.00 4.00 L33.00 4.00 L33.00 3.00 L34.00 3.00 L34.00 4.00 L34.00 5.00 L35.00 5.00 L35.00 4.00 L36.00 4.00 L36.00 5.00 L37.00 5.00 L37.00 6.00 L36.00 6.00 L35.00 6.00 L35.00 7.00 L36.00 7.00 L36.00 8.00 L35.00 8.00 L35.00 9.00 L34.00 9.00 L34.00 8.00 L34.00 7.00 L33.00 7.00 L33.00 8.00 L32.00 8.00 L31.00 8.00 L31.00 9.00 L30.00 9.00 L30.00 8.00 L30.00 7.00 L29.00 7.00 L29.00 8.00 L28.00 8.00 L28.00 9.00 L29.00 9.00 L29.00 10.00 L28.00 10.00 L27.00 10.00 L27.00 11.00 L28.00 11.00 L28.00 12.00 L29.00 12.00 L29.00 11.00 L30.00 11.00 L30.00 12.00 L30.00 13.00 L31.00 13.00 L31.00 12.00 L32.00 12.00 L32.00 13.00 L33.00 13.00 L33.00 14.00 L32.00 14.00 L31.00 14.00 L31.00 15.00 L32.00 15.00 L32.00 16.00 L33.00 16.00 L33.00 15.00 L34.00 15.00 L34.00 16.00 L34.00 17.00 L35.00 17.00 L35.00 16.00 L36.00 16.00 L36.00 15.00 L35.00 15.00 L35.00 14.00 L36.00 14.00 L37.00 14.00 L37.00 13.00 L36.00 13.00 L36.00 12.00 L37.00 12.00 L37.00 11.00 L38.00 11.00 L38.00 12.00 L38.00 13.00 L39.00 13.00 L39.00 12.00 L40.00 12.00 L40.00 13.00 L41.00 13.00 L41.00 14.00 L40.00 14.00 L39.00 14.00 L39.00 15.00 L40.00 15.00 L40.00 16.00 L40.00 17.00 L41.00 17.00 L41.00 18.00 L40.00 18.00 L39.00 18.00 L39.00 19.00 L40.00 19.00 L40.00 20.00 L41.00 20.00 L41.00 19.00 L42.00 19.00 L42.00 20.00 L42.00 21.00 L43.00 21.00 L43.00 20.00 L44.00 20.00 L44.00 19.00 L43.00 19.00 L43.00 18.00 L44.00 18.00 L45.00 18.00 L45.00 17.00 L44.00 17.00 L44.00 16.00 L45.00 16.00 L45.00 15.00 L46.00 15.00 L46.00 16.00 L46.00 17.00 L47.00 17.00 L47.00 16.00 L48.00 16.00 L48.00 15.00 L47.00 15.00 L47.00 14.00 L48.00 14.00 L49.00 14.00 L49.00 13.00 L48.00 13.00 L48.00 12.00 L47.00 12.00 L47.00 13.00 L46.00 13.00 L46.00 12.00 L46.00 11.00 L45.00 11.00 L45.00 12.00 L44.00 12.00 L44.00 11.00 L43.00 11.00 L43.00 10.00 L44.00 10.00 L45.00 10.00 L45.00 9.00 L44.00 9.00 L44.00 8.00 L45.00 8.00 L45.00 7.00 L46.00 7.00 L46.00 8.00 L46.00 9.00 L47.00 9.00 L47.00 8.00 L48.00 8.00 L49.00 8.00 L49.00 7.00 L50.00 7.00 L50.00 8.00 L50.00 9.00 L51.00 9.00 L51.00 8.00 L52.00 8.00 L52.00 7.00 L51.00 7.00 L51.00 6.00 L52.00 6.00 L53.00 6.00 L53.00 5.00 L52.00 5.00 L52.00 4.00 L51.00 4.00 L51.00 5.00 L50.00 5.00 L50.00 4.00 L50.00 3.00 L49.00 3.00 L49.00 4.00 L48.00 4.00 L48.00 3.00 L47.00 3.00 L47.00 2.00 L48.00 2.00 L49.00 2.00 L49.00 1.00 L48.00 1.00 L48.00 0.00 L49.00 0.00 L49.00 -1.00 L50.00 -1.00 L50.00 0.00 L50.00 1.00 L51.00 1.00 L51.00 0.00 L52.00 0.00 L52.00 -1.00 L51.00 -1.00 L51.00 -2.00 L52.00 -2.00 L53.00 -2.00 L53.00 -3.00 L52.00 -3.00 L52.00 -4.00 L53.00 -4.00 L53.00 -5.00 L54.00 -5.00 L54.00 -4.00 L54.00 -3.00 L55.00 -3.00 L55.00 -4.00 L56.00 -4.00 L56.00 -3.00 L57.00 -3.00 L57.00 -2.00 L56.00 -2.00 L55.00 -2.00 L55.00 -1.00 L56.00 -1.00 L56.00 0.00 L56.00 1.00 L57.00 1.00 L57.00 2.00 L56.00 2.00 L55.00 2.00 L55.00 3.00 L56.00 3.00 L56.00 4.00 L57.00 4.00 L57.00 3.00 L58.00 3.00 L58.00 4.00 L58.00 5.00 L59.00 5.00 L59.00 4.00 L60.00 4.00 L60.00 3.00 L59.00 3.00 L59.00 2.00 L60.00 2.00 L61.00 2.00 L61.00 1.00 L60.00 1.00 L60.00 0.00 L61.00 0.00 L61.00 -1.00 L62.00 -1.00 L62.00 0.00 L62.00 1.00 L63.00 1.00 L63.00 0.00 L64.00 0.00 L64.00 -1.00 L63.00 -1.00 L63.00 -2.00 L64.00 -2.00 L65.00 -2.00 L65.00 -3.00 L64.00 -3.00 L64.00 -4.00 L63.00 -4.00 L63.00 -3.00 L62.00 -3.00 L62.00 -4.00 L62.00 -5.00 L61.00 -5.00 L61.00 -4.00 L60.00 -4.00 L60.00 -5.00 L59.00 -5.00 L59.00 -6.00 L60.00 -6.00 L61.00 -6.00 L61.00 -7.00 L60.00 -7.00 L60.00 -8.00 L61.00 -8.00 L61.00 -9.00 L62.00 -9.00 L62.00 -8.00 L62.00 -7.00 L63.00 -7.00 L63.00 -8.00 L64.00 -8.00 L65.00 -8.00 L65.00 -9.00 L66.00 -9.00 L66.00 -8.00 L66.00 -7.00 L67.00 -7.00 L67.00 -8.00 L68.00 -8.00 L68.00 -9.00 L67.00 -9.00 L67.00 -10.00 L68.00 -10.00 L69.00 -10.00 L69.00 -11.00 L68.00 -11.00 L68.00 -12.00 L67.00 -12.00 L67.00 -11.00 L66.00 -11.00 L66.00 -12.00 L66.00 -13.00 L65.00 -13.00 L65.00 -12.00 L64.00 -12.00 L64.00 -13.00 L63.00 -13.00 L63.00 -14.00 L64.00 -14.00 L65.00 -14.00 L65.00 -15.00 L64.00 -15.00 L64.00 -16.00 L63.00 -16.00 L63.00 -15.00 L62.00 -15.00 L62.00 -16.00 L62.00 -17.00 L61.00 -17.00 L61.00 -16.00 L60.00 -16.00 L60.00 -15.00 L61.00 -15.00 L61.00 -14.00 L60.00 -14.00 L59.00 -14.00 L59.00 -13.00 L60.00 -13.00 L60.00 -12.00 L59.00 -12.00 L59.00 -11.00 L58.00 -11.00 L58.00 -12.00 L58.00 -13.00 L57.00 -13.00 L57.00 -12.00 L56.00 -12.00 L56.00 -13.00 L55.00 -13.00 L55.00 -14.00 L56.00 -14.00 L57.00 -14.00 L57.00 -15.00 L56.00 -15.00 L56.00 -16.00 L56.00 -17.00 L55.00 -17.00 L55.00 -18.00 L56.00 -18.00 L57.00 -18.00 L57.00 -19.00 L56.00 -19.00 L56.00 -20.00 L55.00 -20.00 L55.00 -19.00 L54.00 -19.00 L54.00 -20.00 L54.00 -21.00 L53.00 -21.00 L53.00 -20.00 L52.00 -20.00 L52.00 -19.00 L53.00 -19.00 L53.00 -18.00 L52.00 -18.00 L51.00 -18.00 L51.00 -17.00 L52.00 -17.00 L52.00 -16.00 L51.00 -16.00 L51.00 -15.00 L50.00 -15.00 L50.00 -16.00 L50.00 -17.00 L49.00 -17.00 L49.00 -16.00 L48.00 -16.00 L48.00 -17.00 L47.00 -17.00 L47.00 -18.00 L48.00 -18.00 L49.00 -18.00 L49.00 -19.00 L48.00 -19.00 L48.00 -20.00 L47.00 -20.00 L47.00 -19.00 L46.00 -19.00 L46.00 -20.00 L46.00 -21.00 L45.00 -21.00 L45.00 -20.00 L44.00 -20.00 L44.00 -21.00 L43.00 -21.00 L43.00 -22.00 L44.00 -22.00 L45.00 -22.00 L45.00 -23.00 L44.00 -23.00 L44.00 -24.00 L45.00 -24.00 L45.00 -25.00 L46.00 -25.00 L46.00 -24.00 L46.00 -23.00 L47.00 -23.00 L47.00 -24.00 L48.00 -24.00 L49.00 -24.00 L49.00 -25.00 L50.00 -25.00 L50.00 -24.00 L50.00 -23.00 L51.00 -23.00 L51.00 -24.00 L52.00 -24.00 L52.00 -25.00 L51.00 -25.00 L51.00 -26.00 L52.00 -26.00 L53.00 -26.00 L53.00 -27.00 L52.00 -27.00 L52.00 -28.00 L51.00 -28.00 L51.00 -27.00 L50.00 -27.00 L50.00 -28.00 L50.00 -29.00 L49.00 -29.00 L49.00 -28.00 L48.00 -28.00 L48.00 -29.00 L47.00 -29.00 L47.00 -30.00 L48.00 -30.00 L49.00 -30.00 L49.00 -31.00 L48.00 -31.00 L48.00 -32.00 L49.00 -32.00 L49.00 -33.00 L50.00 -33.00 L50.00 -32.00 L50.00 -31.00 L51.00 -31.00 L51.00 -32.00 L52.00 -32.00 L52.00 -33.00 L51.00 -33.00 L51.00 -34.00 L52.00 -34.00 L53.00 -34.00 L53.00 -35.00 L52.00 -35.00 L52.00 -36.00 L53.00 -36.00 L53.00 -37.00 L54.00 -37.00 L54.00 -36.00 L54.00 -35.00 L55.00 -35.00 L55.00 -36.00 L56.00 -36.00 L56.00 -35.00 L57.00 -35.00 L57.00 -34.00 L56.00 -34.00 L55.00 -34.00 L55.00 -33.00 L56.00 -33.00 L56.00 -32.00 L56.00 -31.00 L57.00 -31.00 L57.00 -30.00 L56.00 -30.00 L55.00 -30.00 L55.00 -29.00 L56.00 -29.00 L56.00 -28.00 L57.00 -28.00 L57.00 -29.00 L58.00 -29.00 L58.00 -28.00 L58.00 -27.00 L59.00 -27.00 L59.00 -28.00 L60.00 -28.00 L60.00 -29.00 L59.00 -29.00 L59.00 -30.00 L60.00 -30.00 L61.00 -30.00 L61.00 -31.00 L60.00 -31.00 L60.00 -32.00 L61.00 -32.00 L61.00 -33.00 L62.00 -33.00 L62.00 -32.00 L62.00 -31.00 L63.00 -31.00 L63.00 -32.00 L64.00 -32.00 L65.00 -32.00 L65.00 -33.00 L66.00 -33.00 L66.00 -32.00 L66.00 -31.00 L67.00 -31.00 L67.00 -32.00 L68.00 -32.00 L68.00 -33.00 L67.00 -33.00 L67.00 -34.00 L68.00 -34.00 L69.00 -34.00 L69.00 -35.00 L68.00 -35.00 L68.00 -36.00 L69.00 -36.00 L69.00 -37.00 L70.00 -37.00 L70.00 -36.00 L70.00 -35.00 L71.00 -35.00 L71.00 -36.00 L72.00 -36.00 L72.00 -35.00 L73.00 -35.00 L73.00 -34.00 L72.00 -34.00 L71.00 -34.00 L71.00 -33.00 L72.00 -33.00 L72.00 -32.00 L72.00 -31.00 L73.00 -31.00 L73.00 -30.00 L72.00 -30.00 L71.00 -30.00 L71.00 -29.00 L72.00 -29.00 L72.00 -28.00 L73.00 -28.00 L73.00 -29.00 L74.00 -29.00 L74.00 -28.00 L74.00 -27.00 L75.00 -27.00 L75.00 -28.00 L76.00 -28.00 L76.00 -29.00 L75.00 -29.00 L75.00 -30.00 L76.00 -30.00 L77.00 -30.00 L77.00 -31.00 L76.00 -31.00 L76.00 -32.00 L77.00 -32.00 L77.00 -33.00 L78.00 -33.00 L78.00 -32.00 L78.00 -31.00 L79.00 -31.00 L79.00 -32.00 L80.00 -32.00 L80.00 -33.00 L79.00 -33.00 L79.00 -34.00 L80.00 -34.00 L81.00 -34.00 L81.00 -35.00 L80.00 -35.00 L80.00 -36.00 L79.00 -36.00 L79.00 -35.00 L78.00 -35.00 L78.00 -36.00 L78.00 -37.00 L77.00 -37.00 L77.00 -36.00 L76.00 -36.00 L76.00 -37.00 L75.00 -37.00 L75.00 -38.00 L76.00 -38.00 L77.00 -38.00 L77.00 -39.00 L76.00 -39.00 L76.00 -40.00 L77.00 -40.00 L77.00 -41.00 L78.00 -41.00 L78.00 -40.00 L78.00 -39.00 L79.00 -39.00 L79.00 -40.00 L80.00 -40.00 L81.00 -40.00 L81.00 -41.00 L82.00 -41.00 L82.00 -40.00 L82.00 -39.00 L83.00 -39.00 L83.00 -40.00 L84.00 -40.00 L84.00 -41.00 L83.00 -41.00 L83.00 -42.00 L84.00 -42.00 L85.00 -42.00 L85.00 -43.00 L84.00 -43.00 L84.00 -44.00 L83.00 -44.00 L83.00 -43.00 L82.00 -43.00 L82.00 -44.00 L82.00 -45.00 L81.00 -45.00 L81.00 -44.00 L80.00 -44.00 L80.00 -45.00 L79.00 -45.00 L79.00 -46.00 L80.00 -46.00 L81.00 -46.00 L81.00 -47.00 L80.00 -47.00 L80.00 -48.00 L79.00 -48.00 L79.00 -47.00 L78.00 -47.00 L78.00 -48.00 L78.00 -49.00 L77.00 -49.00 L77.00 -48.00 L76.00 -48.00 L76.00 -47.00 L77.00 -47.00 L77.00 -46.00 L76.00 -46.00 L75.00 -46.00 L75.00 -45.00 L76.00 -45.00 L76.00 -44.00 L75.00 -44.00 L75.00 -43.00 L74.00 -43.00 L74.00 -44.00 L74.00 -45.00 L73.00 -45.00 L73.00 -44.00 L72.00 -44.00 L72.00 -45.00 L71.00 -45.00 L71.00 -46.00 L72.00 -46.00 L73.00 -46.00 L73.00 -47.00 L72.00 -47.00 L72.00 -48.00 L72.00 -49.00 L71.00 -49.00 L71.00 -50.00 L72.00 -50.00 L73.00 -50.00 L73.00 -51.00 L72.00 -51.00 L72.00 -52.00 L71.00 -52.00 L71.00 -51.00 L70.00 -51.00 L70.00 -52.00 L70.00 -53.00 L69.00 -53.00 L69.00 -52.00 L68.00 -52.00 L68.00 -51.00 L69.00 -51.00 L69.00 -50.00 L68.00 -50.00 L67.00 -50.00 L67.00 -49.00 L68.00 -49.00 L68.00 -48.00 L67.00 -48.00 L67.00 -47.00 L66.00 -47.00 L66.00 -48.00 L66.00 -49.00 L65.00 -49.00 L65.00 -48.00 L64.00 -48.00 L64.00 -49.00 L63.00 -49.00 L63.00 -50.00 L64.00 -50.00 L65.00 -50.00 L65.00 -51.00 L64.00 -51.00 L64.00 -52.00 L63.00 -52.00 L63.00 -51.00 L62.00 -51.00 L62.00 -52.00 L62.00 -53.00 L61.00 -53.00 L61.00 -52.00 L60.00 -52.00 L60.00 -53.00 L59.00 -53.00 L59.00 -54.00 L60.00 -54.00 L61.00 -54.00 L61.00 -55.00 L60.00 -55.00 L60.00 -56.00 L61.00 -56.00 L61.00 -57.00 L62.00 -57.00 L62.00 -56.00 L62.00 -55.00 L63.00 -55.00 L63.00 -56.00 L64.00 -56.00 L65.00 -56.00 L65.00 -57.00 L66.00 -57.00 L66.00 -56.00 L66.00 -55.00 L67.00 -55.00 L67.00 -56.00 L68.00 -56.00 L68.00 -57.00 L67.00 -57.00 L67.00 -58.00 L68.00 -58.00 L69.00 -58.00 L69.00 -59.00 L68.00 -59.00 L68.00 -60.00 L67.00 -60.00 L67.00 -59.00 L66.00 -59.00 L66.00 -60.00 L66.00 -61.00 L65.00 -61.00 L65.00 -60.00 L64.00 -60.00 L64.00 -61.00 L63.00 -61.00 L63.00 -62.00 L64.00 -62.00 L65.00 -62.00 L65.00 -63.00 L64.00 -63.00 L64.00 -64.00 L63.00 -64.00 L63.00 -63.00 L62.00 -63.00 L62.00 -64.00 L62.00 -65.00 L61.00 -65.00 L61.00 -64.00 L60.00 -64.00 L60.00 -63.00 L61.00 -63.00 L61.00 -62.00 L60.00 -62.00 L59.00 -62.00 L59.00 -61.00 L60.00 -61.00 L60.00 -60.00 L59.00 -60.00 L59.00 -59.00 L58.00 -59.00 L58.00 -60.00 L58.00 -61.00 L57.00 -61.00 L57.00 -60.00 L56.00 -60.00 L56.00 -61.00 L55.00 -61.00 L55.00 -62.00 L56.00 -62.00 L57.00 -62.00 L57.00 -63.00 L56.00 -63.00 L56.00 -64.00 L56.00 -65.00 L55.00 -65.00 L55.00 -66.00 L56.00 -66.00 L57.00 -66.00 L57.00 -67.00 L56.00 -67.00 L56.00 -68.00 L55.00 -68.00 L55.00 -67.00 L54.00 -67.00 L54.00 -68.00 L54.00 -69.00 L53.00 -69.00 L53.00 -68.00 L52.00 -68.00 L52.00 -67.00 L53.00 -67.00 L53.00 -66.00 L52.00 -66.00 L51.00 -66.00 L51.00 -65.00 L52.00 -65.00 L52.00 -64.00 L51.00 -64.00 L51.00 -63.00 L50.00 -63.00 L50.00 -64.00 L50.00 -65.00 L49.00 -65.00 L49.00 -64.00 L48.00 -64.00 L48.00 -63.00 L49.00 -63.00 L49.00 -62.00 L48.00 -62.00 L47.00 -62.00 L47.00 -61.00 L48.00 -61.00 L48.00 -60.00 L49.00 -60.00 L49.00 -61.00 L50.00 -61.00 L50.00 -60.00 L50.00 -59.00 L51.00 -59.00 L51.00 -60.00 L52.00 -60.00 L52.00 -59.00 L53.00 -59.00 L53.00 -58.00 L52.00 -58.00 L51.00 -58.00 L51.00 -57.00 L52.00 -57.00 L52.00 -56.00 L51.00 -56.00 L51.00 -55.00 L50.00 -55.00 L50.00 -56.00 L50.00 -57.00 L49.00 -57.00 L49.00 -56.00 L48.00 -56.00 L47.00 -56.00 L47.00 -55.00 L46.00 -55.00 L46.00 -56.00 L46.00 -57.00 L45.00 -57.00 L45.00 -56.00 L44.00 -56.00 L44.00 -55.00 L45.00 -55.00 L45.00 -54.00 L44.00 -54.00 L43.00 -54.00 L43.00 -53.00 L44.00 -53.00 L44.00 -52.00 L45.00 -52.00 L45.00 -53.00 L46.00 -53.00 L46.00 -52.00 L46.00 -51.00 L47.00 -51.00 L47.00 -52.00 L48.00 -52.00 L48.00 -51.00 L49.00 -51.00 L49.00 -50.00 L48.00 -50.00 L47.00 -50.00 L47.00 -49.00 L48.00 -49.00 L48.00 -48.00 L47.00 -48.00 L47.00 -47.00 L46.00 -47.00 L46.00 -48.00 L46.00 -49.00 L45.00 -49.00 L45.00 -48.00 L44.00 -48.00 L44.00 -47.00 L45.00 -47.00 L45.00 -46.00 L44.00 -46.00 L43.00 -46.00 L43.00 -45.00 L44.00 -45.00 L44.00 -44.00 L43.00 -44.00 L43.00 -43.00 L42.00 -43.00 L42.00 -44.00 L42.00 -45.00 L41.00 -45.00 L41.00 -44.00 L40.00 -44.00 L40.00 -45.00 L39.00 -45.00 L39.00 -46.00 L40.00 -46.00 L41.00 -46.00 L41.00 -47.00 L40.00 -47.00 L40.00 -48.00 L40.00 -49.00 L39.00 -49.00 L39.00 -50.00 L40.00 -50.00 L41.00 -50.00 L41.00 -51.00 L40.00 -51.00 L40.00 -52.00 L39.00 -52.00 L39.00 -51.00 L38.00 -51.00 L38.00 -52.00 L38.00 -53.00 L37.00 -53.00 L37.00 -52.00 L36.00 -52.00 L36.00 -51.00 L37.00 -51.00 L37.00 -50.00 L36.00 -50.00 L35.00 -50.00 L35.00 -49.00 L36.00 -49.00 L36.00 -48.00 L35.00 -48.00 L35.00 -47.00 L34.00 -47.00 L34.00 -48.00 L34.00 -49.00 L33.00 -49.00 L33.00 -48.00 L32.00 -48.00 L32.00 -49.00 L31.00 -49.00 L31.00 -50.00 L32.00 -50.00 L33.00 -50.00 L33.00 -51.00 L32.00 -51.00 L32.00 -52.00 L31.00 -52.00 L31.00 -51.00 L30.00 -51.00 L30.00 -52.00 L30.00 -53.00 L29.00 -53.00 L29.00 -52.00 L28.00 -52.00 L28.00 -53.00 L27.00 -53.00 L27.00 -54.00 L28.00 -54.00 L29.00 -54.00 L29.00 -55.00 L28.00 -55.00 L28.00 -56.00 L29.00 -56.00 L29.00 -57.00 L30.00 -57.00 L30.00 -56.00 L30.00 -55.00 L31.00 -55.00 L31.00 -56.00 L32.00 -56.00 L33.00 -56.00 L33.00 -57.00 L34.00 -57.00 L34.00 -56.00 L34.00 -55.00 L35.00 -55.00 L35.00 -56.00 L36.00 -56.00 L36.00 -57.00 L35.00 -57.00 L35.00 -58.00 L36.00 -58.00 L37.00 -58.00 L37.00 -59.00 L36.00 -59.00 L36.00 -60.00 L35.00 -60.00 L35.00 -59.00 L34.00 -59.00 L34.00 -60.00 L34.00 -61.00 L33.00 -61.00 L33.00 -60.00 L32.00 -60.00 L32.00 -61.00 L31.00 -61.00 L31.00 -62.00 L32.00 -62.00 L33.00 -62.00 L33.00 -63.00 L32.00 -63.00 L32.00 -64.00 L32.00 -65.00 L31.00 -65.00 L31.00 -66.00 L32.00 -66.00 L33.00 -66.00 L33.00 -67.00 L32.00 -67.00 L32.00 -68.00 L31.00 -68.00 L31.00 -67.00 L30.00 -67.00 L30.00 -68.00 L30.00 -69.00 L29.00 -69.00 L29.00 -68.00 L28.00 -68.00 L28.00 -69.00 L27.00 -69.00 L27.00 -70.00 L28.00 -70.00 L29.00 -70.00 L29.00 -71.00 L28.00 -71.00 L28.00 -72.00 L29.00 -72.00 L29.00 -73.00 L30.00 -73.00 L30.00 -72.00 L30.00 -71.00 L31.00 -71.00 L31.00 -72.00 L32.00 -72.00 L33.00 -72.00 L33.00 -73.00 L34.00 -73.00 L34.00 -72.00 L34.00 -71.00 L35.00 -71.00 L35.00 -72.00 L36.00 -72.00 L36.00 -73.00 L35.00 -73.00 L35.00 -74.00 L36.00 -74.00 L37.00 -74.00 L37.00 -75.00 L36.00 -75.00 L36.00 -76.00 L35.00 -76.00 L35.00 -75.00 L34.00 -75.00 L34.00 -76.00 L34.00 -77.00 L33.00 -77.00 L33.00 -76.00 L32.00 -76.00 L32.00 -77.00 L31.00 -77.00 L31.00 -78.00 L32.00 -78.00 L33.00 -78.00 L33.00 -79.00 L32.00 -79.00 L32.00 -80.00 L31.00 -80.00 L31.00 -79.00 L30.00 -79.00 L30.00 -80.00 L30.00 -81.00 L29.00 -81.00 L29.00 -80.00 L28.00 -80.00 L28.00 -79.00 L29.00 -79.00 L29.00 -78.00 L28.00 -78.00 L27.00 -78.00 L27.00 -77.00 L28.00 -77.00 L28.00 -76.00 L27.00 -76.00 L27.00 -75.00 L26.00 -75.00 L26.00 -76.00 L26.00 -77.00 L25.00 -77.00 L25.00 -76.00 L24.00 -76.00 L24.00 -77.00 L23.00 -77.00 L23.00 -78.00 L24.00 -78.00 L25.00 -78.00 L25.00 -79.00 L24.00 -79.00 L24.00 -80.00 L24.00 -81.00 L23.00 -81.00 L23.00 -82.00 L24.00 -82.00 L25.00 -82.00 L25.00 -83.00 L24.00 -83.00 L24.00 -84.00 L23.00 -84.00 L23.00 -83.00 L22.00 -83.00 L22.00 -84.00 L22.00 -85.00 L21.00 -85.00 L21.00 -84.00 L20.00 -84.00 L20.00 -83.00 L21.00 -83.00 L21.00 -82.00 L20.00 -82.00 L19.00 -82.00 L19.00 -81.00 L20.00 -81.00 L20.00 -80.00 L19.00 -80.00 L19.00 -79.00 L18.00 -79.00 L18.00 -80.00 L18.00 -81.00 L17.00 -81.00 L17.00 -80.00 L16.00 -80.00 L16.00 -79.00 L17.00 -79.00 L17.00 -78.00 L16.00 -78.00 L15.00 -78.00 L15.00 -77.00 L16.00 -77.00 L16.00 -76.00 L17.00 -76.00 L17.00 -77.00 L18.00 -77.00 L18.00 -76.00 L18.00 -75.00 L19.00 -75.00 L19.00 -76.00 L20.00 -76.00 L20.00 -75.00 L21.00 -75.00 L21.00 -74.00 L20.00 -74.00 L19.00 -74.00 L19.00 -73.00 L20.00 -73.00 L20.00 -72.00 L19.00 -72.00 L19.00 -71.00 L18.00 -71.00 L18.00 -72.00 L18.00 -73.00 L17.00 -73.00 L17.00 -72.00 L16.00 -72.00 L15.00 -72.00 L15.00 -71.00 L14.00 -71.00 L14.00 -72.00 L14.00 -73.00 L13.00 -73.00 L13.00 -72.00 L12.00 -72.00 L12.00 -71.00 L13.00 -71.00 L13.00 -70.00 L12.00 -70.00 L11.00 -70.00 L11.00 -69.00 L12.00 -69.00 L12.00 -68.00 L13.00 -68.00 L13.00 -69.00 L14.00 -69.00 L14.00 -68.00 L14.00 -67.00 L15.00 -67.00 L15.00 -68.00 L16.00 -68.00 L16.00 -67.00 L17.00 -67.00 L17.00 -66.00 L16.00 -66.00 L15.00 -66.00 L15.00 -65.00 L16.00 -65.00 L16.00 -64.00 L15.00 -64.00 L15.00 -63.00 L14.00 -63.00 L14.00 -64.00 L14.00 -65.00 L13.00 -65.00 L13.00 -64.00 L12.00 -64.00 L12.00 -63.00 L13.00 -63.00 L13.00 -62.00 L12.00 -62.00 L11.00 -62.00 L11.00 -61.00 L12.00 -61.00 L12.00 -60.00 L11.00 -60.00 L11.00 -59.00 L10.00 -59.00 L10.00 -60.00 L10.00 -61.00 L9.00 -61.00 L9.00 -60.00 L8.00 -60.00 L8.00 -61.00 L7.00 -61.00 L7.00 -62.00 L8.00 -62.00 L9.00 -62.00 L9.00 -63.00 L8.00 -63.00 L8.00 -64.00 L8.00 -65.00 L7.00 -65.00 L7.00 -66.00 L8.00 -66.00 L9.00 -66.00 L9.00 -67.00 L8.00 -67.00 L8.00 -68.00 L7.00 -68.00 L7.00 -67.00 L6.00 -67.00 L6.00 -68.00 L6.00 -69.00 L5.00 -69.00 L5.00 -68.00 L4.00 -68.00 L4.00 -67.00 L5.00 -67.00 L5.00 -66.00 L4.00 -66.00 L3.00 -66.00 L3.00 -65.00 L4.00 -65.00 L4.00 -64.00 L3.00 -64.00 L3.00 -63.00 L2.00 -63.00 L2.00 -64.00 L2.00 -65.00 L1.00 -65.00 L1.00 -64.00 L0.00 -64.00 L0.00 -63.00 L1.00 -63.00 L1.00 -62.00 L0.00 -62.00 L-1.00 -62.00 L-1.00 -61.00 L0.00 -61.00 L0.00 -60.00 L1.00 -60.00 L1.00 -61.00 L2.00 -61.00 L2.00 -60.00 L2.00 -59.00 L3.00 -59.00 L3.00 -60.00 L4.00 -60.00 L4.00 -59.00 L5.00 -59.00 L5.00 -58.00 L4.00 -58.00 L3.00 -58.00 L3.00 -57.00 L4.00 -57.00 L4.00 -56.00 L3.00 -56.00 L3.00 -55.00 L2.00 -55.00 L2.00 -56.00 L2.00 -57.00 L1.00 -57.00 L1.00 -56.00 L0.00 -56.00 L-1.00 -56.00 L-1.00 -55.00 L-2.00 -55.00 L-2.00 -56.00 L-2.00 -57.00 L-3.00 -57.00 L-3.00 -56.00 L-4.00 -56.00 L-4.00 -55.00 L-3.00 -55.00 L-3.00 -54.00 L-4.00 -54.00 L-5.00 -54.00 L-5.00 -53.00 L-4.00 -53.00 L-4.00 -52.00 L-3.00 -52.00 L-3.00 -53.00 L-2.00 -53.00 L-2.00 -52.00 L-2.00 -51.00 L-1.00 -51.00 L-1.00 -52.00 L0.00 -52.00 L0.00 -51.00 L1.00 -51.00 L1.00 -50.00 L0.00 -50.00 L-1.00 -50.00 L-1.00 -49.00 L0.00 -49.00 L0.00 -48.00 L1.00 -48.00 L1.00 -49.00 L2.00 -49.00 L2.00 -48.00 L2.00 -47.00 L3.00 -47.00 L3.00 -48.00 L4.00 -48.00 L4.00 -49.00 L3.00 -49.00 L3.00 -50.00 L4.00 -50.00 L5.00 -50.00 L5.00 -51.00 L4.00 -51.00 L4.00 -52.00 L5.00 -52.00 L5.00 -53.00 L6.00 -53.00 L6.00 -52.00 L6.00 -51.00 L7.00 -51.00 L7.00 -52.00 L8.00 -52.00 L8.00 -51.00 L9.00 -51.00 L9.00 -50.00 L8.00 -50.00 L7.00 -50.00 L7.00 -49.00 L8.00 -49.00 L8.00 -48.00 L8.00 -47.00 L9.00 -47.00 L9.00 -46.00 L8.00 -46.00 L7.00 -46.00 L7.00 -45.00 L8.00 -45.00 L8.00 -44.00 L9.00 -44.00 L9.00 -45.00 L10.00 -45.00 L10.00 -44.00 L10.00 -43.00 L11.00 -43.00 L11.00 -44.00 L12.00 -44.00 L12.00 -45.00 L11.00 -45.00 L11.00 -46.00 L12.00 -46.00 L13.00 -46.00 L13.00 -47.00 L12.00 -47.00 L12.00 -48.00 L13.00 -48.00 L13.00 -49.00 L14.00 -49.00 L14.00 -48.00 L14.00 -47.00 L15.00 -47.00 L15.00 -48.00 L16.00 -48.00 L16.00 -47.00 L17.00 -47.00 L17.00 -46.00 L16.00 -46.00 L15.00 -46.00 L15.00 -45.00 L16.00 -45.00 L16.00 -44.00 L17.00 -44.00 L17.00 -45.00 L18.00 -45.00 L18.00 -44.00 L18.00 -43.00 L19.00 -43.00 L19.00 -44.00 L20.00 -44.00 L20.00 -43.00 L21.00 -43.00 L21.00 -42.00 L20.00 -42.00 L19.00 -42.00 L19.00 -41.00 L20.00 -41.00 L20.00 -40.00 L19.00 -40.00 L19.00 -39.00 L18.00 -39.00 L18.00 -40.00 L18.00 -41.00 L17.00 -41.00 L17.00 -40.00 L16.00 -40.00 L15.00 -40.00 L15.00 -39.00 L14.00 -39.00 L14.00 -40.00 L14.00 -41.00 L13.00 -41.00 L13.00 -40.00 L12.00 -40.00 L12.00 -39.00 L13.00 -39.00 L13.00 -38.00 L12.00 -38.00 L11.00 -38.00 L11.00 -37.00 L12.00 -37.00 L12.00 -36.00 L13.00 -36.00 L13.00 -37.00 L14.00 -37.00 L14.00 -36.00 L14.00 -35.00 L15.00 -35.00 L15.00 -36.00 L16.00 -36.00 L16.00 -35.00 L17.00 -35.00 L17.00 -34.00 L16.00 -34.00 L15.00 -34.00 L15.00 -33.00 L16.00 -33.00 L16.00 -32.00 L15.00 -32.00 L15.00 -31.00 L14.00 -31.00 L14.00 -32.00 L14.00 -33.00 L13.00 -33.00 L13.00 -32.00 L12.00 -32.00 L12.00 -31.00 L13.00 -31.00 L13.00 -30.00 L12.00 -30.00 L11.00 -30.00 L11.00 -29.00 L12.00 -29.00 L12.00 -28.00 L11.00 -28.00 L11.00 -27.00 L10.00 -27.00 L10.00 -28.00 L10.00 -29.00 L9.00 -29.00 L9.00 -28.00 L8.00 -28.00 L8.00 -29.00 L7.00 -29.00 L7.00 -30.00 L8.00 -30.00 L9.00 -30.00 L9.00 -31.00 L8.00 -31.00 L8.00 -32.00 L8.00 -33.00 L7.00 -33.00 L7.00 -34.00 L8.00 -34.00 L9.00 -34.00 L9.00 -35.00 L8.00 -35.00 L8.00 -36.00 L7.00 -36.00 L7.00 -35.00 L6.00 -35.00 L6.00 -36.00 L6.00 -37.00 L5.00 -37.00 L5.00 -36.00 L4.00 -36.00 L4.00 -35.00 L5.00 -35.00 L5.00 -34.00 L4.00 -34.00 L3.00 -34.00 L3.00 -33.00 L4.00 -33.00 L4.00 -32.00 L3.00 -32.00 L3.00 -31.00 L2.00 -31.00 L2.00 -32.00 L2.00 -33.00 L1.00 -33.00 L1.00 -32.00 L0.00 -32.00 L-1.00 -32.00 L-1.00 -31.00 L-2.00 -31.00 L-2.00 -32.00 L-2.00 -33.00 L-3.00 -33.00 L-3.00 -32.00 L-4.00 -32.00 L-4.00 -31.00 L-3.00 -31.00 L-3.00 -30.00 L-4.00 -30.00 L-5.00 -30.00 L-5.00 -29.00 L-4.00 -29.00 L-4.00 -28.00 L-5.00 -28.00 L-5.00 -27.00 L-6.00 -27.00 L-6.00 -28.00 L-6.00 -29.00 L-7.00 -29.00 L-7.00 -28.00 L-8.00 -28.00 L-8.00 -29.00 L-9.00 -29.00 L-9.00 -30.00 L-8.00 -30.00 L-7.00 -30.00 L-7.00 -31.00 L-8.00 -31.00 L-8.00 -32.00 L-8.00 -33.00 L-9.00 -33.00 L-9.00 -34.00 L-8.00 -34.00 L-7.00 -34.00 L-7.00 -35.00 L-8.00 -35.00 L-8.00 -36.00 L-9.00 -36.00 L-9.00 -35.00 L-10.00 -35.00 L-10.00 -36.00 L-10.00 -37.00 L-11.00 -37.00 L-11.00 -36.00 L-12.00 -36.00 L-12.00 -35.00 L-11.00 -35.00 L-11.00 -34.00 L-12.00 -34.00 L-13.00 -34.00 L-13.00 -33.00 L-12.00 -33.00 L-12.00 -32.00 L-13.00 -32.00 L-13.00 -31.00 L-14.00 -31.00 L-14.00 -32.00 L-14.00 -33.00 L-15.00 -33.00 L-15.00 -32.00 L-16.00 -32.00 L-16.00 -31.00 L-15.00 -31.00 L-15.00 -30.00 L-16.00 -30.00 L-17.00 -30.00 L-17.00 -29.00 L-16.00 -29.00 L-16.00 -28.00 L-15.00 -28.00 L-15.00 -29.00 L-14.00 -29.00 L-14.00 -28.00 L-14.00 -27.00 L-13.00 -27.00 L-13.00 -28.00 L-12.00 -28.00 L-12.00 -27.00 L-11.00 -27.00 L-11.00 -26.00 L-12.00 -26.00 L-13.00 -26.00 L-13.00 -25.00 L-12.00 -25.00 L-12.00 -24.00 L-13.00 -24.00 L-13.00 -23.00 L-14.00 -23.00 L-14.00 -24.00 L-14.00 -25.00 L-15.00 -25.00 L-15.00 -24.00 L-16.00 -24.00 L-17.00 -24.00 L-17.00 -23.00 L-18.00 -23.00 L-18.00 -24.00 L-18.00 -25.00 L-19.00 -25.00 L-19.00 -24.00 L-20.00 -24.00 L-20.00 -23.00 L-19.00 -23.00 L-19.00 -22.00 L-20.00 -22.00 L-21.00 -22.00 L-21.00 -21.00 L-20.00 -21.00 L-20.00 -20.00 L-19.00 -20.00 L-19.00 -21.00 L-18.00 -21.00 L-18.00 -20.00 L-18.00 -19.00 L-17.00 -19.00 L-17.00 -20.00 L-16.00 -20.00 L-16.00 -19.00 L-15.00 -19.00 L-15.00 -18.00 L-16.00 -18.00 L-17.00 -18.00 L-17.00 -17.00 L-16.00 -17.00 L-16.00 -16.00 L-15.00 -16.00 L-15.00 -17.00 L-14.00 -17.00 L-14.00 -16.00 L-14.00 -15.00 L-13.00 -15.00 L-13.00 -16.00 L-12.00 -16.00 L-12.00 -17.00 L-13.00 -17.00 L-13.00 -18.00 L-12.00 -18.00 L-11.00 -18.00 L-11.00 -19.00 L-12.00 -19.00 L-12.00 -20.00 L-11.00 -20.00 L-11.00 -21.00 L-10.00 -21.00 L-10.00 -20.00 L-10.00 -19.00 L-9.00 -19.00 L-9.00 -20.00 L-8.00 -20.00 L-8.00 -19.00 L-7.00 -19.00 L-7.00 -18.00 L-8.00 -18.00 L-9.00 -18.00 L-9.00 -17.00 L-8.00 -17.00 L-8.00 -16.00 L-8.00 -15.00 L-7.00 -15.00 L-7.00 -14.00 L-8.00 -14.00 L-9.00 -14.00 L-9.00 -13.00 L-8.00 -13.00 L-8.00 -12.00 L-7.00 -12.00 L-7.00 -13.00 L-6.00 -13.00 L-6.00 -12.00 L-6.00 -11.00 L-5.00 -11.00 L-5.00 -12.00 L-4.00 -12.00 L-4.00 -13.00 L-5.00 -13.00 L-5.00 -14.00 L-4.00 -14.00 L-3.00 -14.00 L-3.00 -15.00 L-4.00 -15.00 L-4.00 -16.00 L-3.00 -16.00 L-3.00 -17.00 L-2.00 -17.00 L-2.00 -16.00 L-2.00 -15.00 L-1.00 -15.00 L-1.00 -16.00 L0.00 -16.00 L0.00 -15.00 L1.00 -15.00 L1.00 -14.00 L0.00 -14.00 L-1.00 -14.00 L-1.00 -13.00 L0.00 -13.00 L0.00 -12.00 L1.00 -12.00 L1.00 -13.00 L2.00 -13.00 L2.00 -12.00 L2.00 -11.00 L3.00 -11.00 L3.00 -12.00 L4.00 -12.00 L4.00 -11.00 L5.00 -11.00 L5.00 -10.00 L4.00 -10.00 L3.00 -10.00 L3.00 -9.00 L4.00 -9.00 L4.00 -8.00 L3.00 -8.00 L3.00 -7.00 L2.00 -7.00 L2.00 -8.00 L2.00 -9.00 L1.00 -9.00 L1.00 -8.00 L0.00 -8.00 L-1.00 -8.00 L-1.00 -7.00 L-2.00 -7.00 L-2.00 -8.00 L-2.00 -9.00 L-3.00 -9.00 L-3.00 -8.00 L-4.00 -8.00 L-4.00 -7.00 L-3.00 -7.00 L-3.00 -6.00 L-4.00 -6.00 L-5.00 -6.00 L-5.00 -5.00 L-4.00 -5.00 L-4.00 -4.00 L-3.00 -4.00 L-3.00 -5.00 L-2.00 -5.00 L-2.00 -4.00 L-2.00 -3.00 L-1.00 -3.00 L-1.00 -4.00 L0.00 -4.00 L0.00 -3.00 L1.00 -3.00 L1.00 -2.00 L0.00 -2.00 L-1.00 -2.00 L-1.00 -1.00 L0.00 -1.00 L0.00 -0.00 "/>
</g>
</svg>

