<svg width="500.000000" height="576.719543" xmlns="http://www.w3.org/2000/svg" version="1.1">
<rect width="100%" height="100%" fill="#aaf" />
<g transform="scale(1.831104,1.856482) translate(15.029628,85.177658) ">
<path stroke="#FFFFFF" stroke-width="1.000000" fill="rgba(255,255,255,0.400000)" d="M0.00 0.00 L1.00 0.00 L1.50 -0.87 L2.00 0.00 L3.00 0.00 L3.50 -0.87 L3.00 -1.73 L4.00 -1.73 L4.50 -2.60 L5.00 -1.73 L6.00 -1.73 L5.50 -0.87 L6.00 0.00 L7.00 0.00 L7.50 -0.87 L8.00 0.00 L9.00 0.00 L9.50 -0.87 L9.00 -1.73 L10.00 -1.73 L10.50 -2.60 L10.00 -3.46 L9.00 -3.46 L9.50 -4.33 L9.00 -5.20 L10.00 -5.20 L10.50 -6.06 L11.00 -5.20 L12.00 -5.20 L12.50 -6.06 L12.00 -6.93 L13.00 -6.93 L13.50 -7.79 L14.00 -6.93 L15.00 -6.93 L14.50 -6.06 L15.00 -5.20 L16.00 -5.20 L16.50 -6.06 L17.00 -5.20 L18.00 -5.20 L17.50 -4.33 L18.00 -3.46 L17.00 -3.46 L16.50 -2.60 L17.00 -1.73 L18.00 -1.73 L17.50 -0.87 L18.00 0.00 L19.00 0.00 L19.50 -0.87 L20.00 0.00 L21.00 0.00 L21.50 -0.87 L21.00 -1.73 L22.00 -1.73 L22.50 -2.60 L23.00 -1.73 L24.00 -1.73 L23.50 -0.87 L24.00 0.00 L25.00 0.00 L25.50 -0.87 L26.00 0.00 L27.00 0.00 L27.50 -0.87 L27.00 -1.73 L28.00 -1.73 L28.50 -2.60 L28.00 -3.46 L27.00 -3.46 L27.50 -4.33 L27.00 -5.20 L28.00 -5.20 L28.50 -6.06 L29.00 -5.20 L30.00 -5.20 L30.50 -6.06 L30.00 -6.93 L31.00 -6.93 L31.50 -7.79 L31.00 -8.66 L30.00 -8.66 L30.50 -9.53 L30.00 -10.39 L29.00 -10.39 L28.50 -9.53 L28.00 -10.39 L27.00 -10.39 L27.50 -11.26 L27.00 -12.12 L28.00 -12.12 L28.50 -12.99 L28.00 -13.86 L27.00 -13.86 L27.50 -14.72 L27.00 -15.59 L28.00 -15.59 L28.50 -16.45 L29.00 -15.59 L30.00 -15.59 L30.50 -16.45 L30.00 -17.32 L31.00 -17.32 L31.50 -18.19 L32.00 -17.32 L33.00 -17.32 L32.50 -16.45 L33.00 -15.59 L34.00 -15.59 L34.50 -16.45 L35.00 -15.59 L36.00 -15.59 L36.50 -16.45 L36.00 -17.32 L37.00 -17.32 L37.50 -18.19 L37.00 -19.05 L36.00 -19.05 L36.50 -19.92 L36.00 -20.78 L37.00 -20.78 L37.50 -21.65 L38.00 -20.78 L39.00 -20.78 L39.50 -21.65 L39.00 -22.52 L40.00 -22.52 L40.50 -23.38 L41.00 -22.52 L42.00 -22.52 L41.50 -21.65 L42.00 -20.78 L43.00 -20.78 L43.50 -21.65 L44.00 -20.78 L45.00 -20.78 L44.50 -19.92 L45.00 -19.05 L44.00 -19.05 L43.50 -18.19 L44.00 -17.32 L45.00 -17.32 L44.50 -16.45 L45.00 -15.59 L46.00 -15.59 L46.50 -16.45 L47.00 -15.59 L48.00 -15.59 L48.50 -16.45 L48.00 -17.32 L49.00 -17.32 L49.50 -18.19 L50.00 -17.32 L51.00 -17.32 L50.50 -16.45 L51.00 -15.59 L52.00 -15.59 L52.50 -16.45 L53.00 -15.59 L54.00 -15.59 L53.50 -14.72 L54.00 -13.86 L53.00 -13.86 L52.50 -12.99 L53.00 -12.12 L54.00 -12.12 L53.50 -11.26 L54.00 -10.39 L53.00 -10.39 L52.50 -9.53 L52.00 -10.39 L51.00 -10.39 L50.50 -9.53 L51.00 -8.66 L50.00 -8.66 L49.50 -7.79 L50.00 -6.93 L51.00 -6.93 L50.50 -6.06 L51.00 -5.20 L52.00 -5.20 L52.50 -6.06 L53.00 -5.20 L54.00 -5.20 L53.50 -4.33 L54.00 -3.46 L53.00 -3.46 L52.50 -2.60 L53.00 -1.73 L54.00 -1.73 L53.50 -0.87 L54.00 -0.00 L55.00 -0.00 L55.50 -0.87 L56.00 -0.00 L57.00 -0.00 L57.50 -0.87 L57.00 -1.73 L58.00 -1.73 L58.50 -2.60 L59.00 -1.73 L60.00 -1.73 L59.50 -0.87 L60.00 -0.00 L61.00 -0.00 L61.50 -0.87 L62.00 -0.00 L63.00 -0.00 L63.50 -0.87 L63.00 -1.73 L64.00 -1.73 L64.50 -2.60 L64.00 -3.46 L63.00 -3.46 L63.50 -4.33 L63.00 -5.20 L64.00 -5.20 L64.50 -6.06 L65.00 -5.20 L66.00 -5.20 L66.50 -6.06 L66.00 -6.93 L67.00 -6.93 L67.50 -7.79 L68.00 -6.93 L69.00 -6.93 L68.50 -6.06 L69.00 -5.20 L70.00 -5.20 L70.50 -6.06 L71.00 -5.20 L72.00 -5.20 L71.50 -4.33 L72.00 -3.46 L71.00 -3.46 L70.50 -2.60 L71.00 -1.73 L72.00 -1.73 L71.50 -0.87 L72.00 -0.00 L73.00 -0.00 L73.50 -0.87 L74.00 -0.00 L75.00 -0.00 L75.50 -0.87 L75.00 -1.73 L76.00 -1.73 L76.50 -2.60 L77.00 -1.73 L78.00 -1.73 L77.50 -0.87 L78.00 -0.00 L79.00 -0.00 L79.50 -0.87 L80.00 -0.00 L81.00 -0.00 L81.50 -0.87 L81.00 -1.73 L82.00 -1.73 L82.50 -2.60 L82.00 -3.46 L81.00 -3.46 L81.50 -4.33 L81.00 -5.20 L82.00 -5.20 L82.50 -6.06 L83.00 -5.20 L84.00 -5.20 L84.50 -6.06 L84.00 -6.93 L85.00 -6.93 L85.50 -7.79 L85.00 -8.66 L84.00 -8.66 L84.50 -9.53 L84.00 -10.39 L83.00 -10.39 L82.50 -9.53 L82.00 -10.39 L81.00 -10.39 L81.50 -11.26 L81.00 -12.12 L82.00 -12.12 L82.50 -12.99 L82.00 -13.86 L81.00 -13.86 L81.50 -14.72 L81.00 -15.59 L82.00 -15.59 L82.50 -16.45 L83.00 -15.59 L84.00 -15.59 L84.50 -16.45 L84.00 -17.32 L85.00 -17.32 L85.50 -18.19 L86.00 -17.32 L87.00 -17.32 L86.50 -16.45 L87.00 -15.59 L88.00 -15.59 L88.50 -16.45 L89.00 -15.59 L90.00 -15.59 L90.50 -16.45 L90.00 -17.32 L91.00 -17.32 L91.50 -18.19 L91.00 -19.05 L90.00 -19.05 L90.50 -19.92 L90.00 -20.78 L91.00 -20.78 L91.50 -21.65 L92.00 -20.78 L93.00 -20.78 L93.50 -21.65 L93.00 -22.52 L94.00 -22.52 L94.50 -23.38 L94.00 -24.25 L93.00 -24.25 L93.50 -25.11 L93.00 -25.98 L92.00 -25.98 L91.50 -25.11 L91.00 -25.98 L90.00 -25.98 L90.50 -26.85 L90.00 -27.71 L91.00 -27.71 L91.50 -28.58 L91.00 -29.44 L90.00 -29.44 L90.50 -30.31 L90.00 -31.18 L89.00 -31.18 L88.50 -30.31 L88.00 -31.18 L87.00 -31.18 L86.50 -30.31 L87.00 -29.44 L86.00 -29.44 L85.50 -28.58 L85.00 -29.44 L84.00 -29.44 L84.50 -30.31 L84.00 -31.18 L83.00 -31.18 L82.50 -30.31 L82.00 -31.18 L81.00 -31.18 L81.50 -32.04 L81.00 -32.91 L82.00 -32.91 L82.50 -33.77 L82.00 -34.64 L81.00 -34.64 L81.50 -35.51 L81.00 -36.37 L82.00 -36.37 L82.50 -37.24 L83.00 -36.37 L84.00 -36.37 L84.50 -37.24 L84.00 -38.11 L85.00 -38.11 L85.50 -38.97 L85.00 -39.84 L84.00 -39.84 L84.50 -40.70 L84.00 -41.57 L83.00 -41.57 L82.50 -40.70 L82.00 -41.57 L81.00 -41.57 L81.50 -42.44 L81.00 -43.30 L82.00 -43.30 L82.50 -44.17 L82.00 -45.03 L81.00 -45.03 L81.50 -45.90 L81.00 -46.77 L82.00 -46.77 L82.50 -47.63 L83.00 -46.77 L84.00 -46.77 L84.50 -47.63 L84.00 -48.50 L85.00 -48.50 L85.50 -49.36 L86.00 -48.50 L87.00 -48.50 L86.50 -47.63 L87.00 -46.77 L88.00 -46.77 L88.50 -47.63 L89.00 -46.77 L90.00 -46.77 L90.50 -47.63 L90.00 -48.50 L91.00 -48.50 L91.50 -49.36 L91.00 -50.23 L90.00 -50.23 L90.50 -51.10 L90.00 -51.96 L91.00 -51.96 L91.50 -52.83 L92.00 -51.96 L93.00 -51.96 L93.50 -52.83 L93.00 -53.69 L94.00 -53.69 L94.50 -54.56 L95.00 -53.69 L96.00 -53.69 L95.50 -52.83 L96.00 -51.96 L97.00 -51.96 L97.50 -52.83 L98.00 -51.96 L99.00 -51.96 L98.50 -51.10 L99.00 -50.23 L98.00 -50.23 L97.50 -49.36 L98.00 -48.50 L99.00 -48.50 L98.50 -47.63 L99.00 -46.77 L100.00 -46.77 L100.50 -47.63 L101.00 -46.77 L102.00 -46.77 L102.50 -47.63 L102.00 -48.50 L103.00 -48.50 L103.50 -49.36 L104.00 -48.50 L105.00 -48.50 L104.50 -47.63 L105.00 -46.77 L106.00 -46.77 L106.50 -47.63 L107.00 -46.77 L108.00 -46.77 L108.50 -47.63 L108.00 -48.50 L109.00 -48.50 L109.50 -49.36 L109.00 -50.23 L108.00 -50.23 L108.50 -51.10 L108.00 -51.96 L109.00 -51.96 L109.50 -52.83 L110.00 -51.96 L111.00 -51.96 L111.50 -52.83 L111.00 -53.69 L112.00 -53.69 L112.50 -54.56 L112.00 -55.43 L111.00 -55.43 L111.50 -56.29 L111.00 -57.16 L110.00 -57.16 L109.50 -56.29 L109.00 -57.16 L108.00 -57.16 L108.50 -58.02 L108.00 -58.89 L109.00 -58.89 L109.50 -59.76 L109.00 -60.62 L108.00 -60.62 L108.50 -61.49 L108.00 -62.35 L109.00 -62.35 L109.50 -63.22 L110.00 -62.35 L111.00 -62.35 L111.50 -63.22 L111.00 -64.09 L112.00 -64.09 L112.50 -64.95 L113.00 -64.09 L114.00 -64.09 L113.50 -63.22 L114.00 -62.35 L115.00 -62.35 L115.50 -63.22 L116.00 -62.35 L117.00 -62.35 L117.50 -63.22 L117.00 -64.09 L118.00 -64.09 L118.50 -64.95 L118.00 -65.82 L117.00 -65.82 L117.50 -66.68 L117.00 -67.55 L118.00 -67.55 L118.50 -68.42 L119.00 -67.55 L120.00 -67.55 L120.50 -68.42 L120.00 -69.28 L121.00 -69.28 L121.50 -70.15 L122.00 -69.28 L123.00 -69.28 L122.50 -68.42 L123.00 -67.55 L124.00 -67.55 L124.50 -68.42 L125.00 -67.55 L126.00 -67.55 L125.50 -66.68 L126.00 -65.82 L125.00 -65.82 L124.50 -64.95 L125.00 -64.09 L126.00 -64.09 L125.50 -63.22 L126.00 -62.35 L127.00 -62.35 L127.50 -63.22 L128.00 -62.35 L129.00 -62.35 L129.50 -63.22 L129.00 -64.09 L130.00 -64.09 L130.50 -64.95 L131.00 -64.09 L132.00 -64.09 L131.50 -63.22 L132.00 -62.35 L133.00 -62.35 L133.50 -63.22 L134.00 -62.35 L135.00 -62.35 L134.50 -61.49 L135.00 -60.62 L134.00 -60.62 L133.50 -59.76 L134.00 -58.89 L135.00 -58.89 L134.50 -58.02 L135.00 -57.16 L134.00 -57.16 L133.50 -56.29 L133.00 -57.16 L132.00 -57.16 L131.50 -56.29 L132.00 -55.43 L131.00 -55.43 L130.50 -54.56 L131.00 -53.69 L132.00 -53.69 L131.50 -52.83 L132.00 -51.96 L133.00 -51.96 L133.50 -52.83 L134.00 -51.96 L135.00 -51.96 L134.50 -51.10 L135.00 -50.23 L134.00 -50.23 L133.50 -49.36 L134.00 -48.50 L135.00 -48.50 L134.50 -47.63 L135.00 -46.77 L136.00 -46.77 L136.50 -47.63 L137.00 -46.77 L138.00 -46.77 L138.50 -47.63 L138.00 -48.50 L139.00 -48.50 L139.50 -49.36 L140.00 -48.50 L141.00 -48.50 L140.50 -47.63 L141.00 -46.77 L142.00 -46.77 L142.50 -47.63 L143.00 -46.77 L144.00 -46.77 L144.50 -47.63 L144.00 -48.50 L145.00 -48.50 L145.50 -49.36 L145.00 -50.23 L144.00 -50.23 L144.50 -51.10 L144.00 -51.96 L145.00 -51.96 L145.50 -52.83 L146.00 -51.96 L147.00 -51.96 L147.50 -52.83 L147.00 -53.69 L148.00 -53.69 L148.50 -54.56 L149.00 -53.69 L150.00 -53.69 L149.50 -52.83 L150.00 -51.96 L151.00 -51.96 L151.50 -52.83 L152.00 -51.96 L153.00 -51.96 L152.50 -51.10 L153.00 -50.23 L152.00 -50.23 L151.50 -49.36 L152.00 -48.50 L153.00 -48.50 L152.50 -47.63 L153.00 -46.77 L154.00 -46.77 L154.50 -47.63 L155.00 -46.77 L156.00 -46.77 L156.50 -47.63 L156.00 -48.50 L157.00 -48.50 L157.50 -49.36 L158.00 -48.50 L159.00 -48.50 L158.50 -47.63 L159.00 -46.77 L160.00 -46.77 L160.50 -47.63 L161.00 -46.77 L162.00 -46.77 L161.50 -45.90 L162.00 -45.03 L161.00 -45.03 L160.50 -44.17 L161.00 -43.30 L162.00 -43.30 L161.50 -42.44 L162.00 -41.57 L161.00 -41.57 L160.50 -40.70 L160.00 -41.57 L159.00 -41.57 L158.50 -40.70 L159.00 -39.84 L158.00 -39.84 L157.50 -38.97 L158.00 -38.11 L159.00 -38.11 L158.50 -37.24 L159.00 -36.37 L160.00 -36.37 L160.50 -37.24 L161.00 -36.37 L162.00 -36.37 L161.50 -35.51 L162.00 -34.64 L161.00 -34.64 L160.50 -33.77 L161.00 -32.91 L162.00 -32.91 L161.50 -32.04 L162.00 -31.18 L161.00 -31.18 L160.50 -30.31 L160.00 -31.18 L159.00 -31.18 L158.50 -30.31 L159.00 -29.44 L158.00 -29.44 L157.50 -28.58 L157.00 -29.44 L156.00 -29.44 L156.50 -30.31 L156.00 -31.18 L155.00 -31.18 L154.50 -30.31 L154.00 -31.18 L153.00 -31.18 L152.50 -30.31 L153.00 -29.44 L152.00 -29.44 L151.50 -28.58 L152.00 -27.71 L153.00 -27.71 L152.50 -26.85 L153.00 -25.98 L152.00 -25.98 L151.50 -25.11 L151.00 -25.98 L150.00 -25.98 L149.50 -25.11 L150.00 -24.25 L149.00 -24.25 L148.50 -23.38 L149.00 -22.52 L150.00 -22.52 L149.50 -21.65 L150.00 -20.78 L151.00 -20.78 L151.50 -21.65 L152.00 -20.78 L153.00 -20.78 L152.50 -19.92 L153.00 -19.05 L152.00 -19.05 L151.50 -18.19 L152.00 -17.32 L153.00 -17.32 L152.50 -16.45 L153.00 -15.59 L154.00 -15.59 L154.50 -16.45 L155.00 -15.59 L156.00 -15.59 L156.50 -16.45 L156.00 -17.32 L157.00 -17.32 L157.50 -18.19 L158.00 -17.32 L159.00 -17.32 L158.50 -16.45 L159.00 -15.59 L160.00 -15.59 L160.50 -16.45 L161.00 -15.59 L162.00 -15.59 L161.50 -14.72 L162.00 -13.86 L161.00 -13.86 L160.50 -12.99 L161.00 -12.12 L162.00 -12.12 L161.50 -11.26 L162.00 -10.39 L161.00 -10.39 L160.50 -9.53 L160.00 -10.39 L159.00 -10.39 L158.50 -9.53 L159.00 -8.66 L158.00 -8.66 L157.50 -7.79 L158.00 -6.93 L159.00 -6.93 L158.50 -6.06 L159.00 -5.20 L160.00 -5.20 L160.50 -6.06 L161.00 -5.20 L162.00 -5.20 L161.50 -4.33 L162.00 -3.46 L161.00 -3.46 L160.50 -2.60 L161.00 -1.73 L162.00 -1.73 L161.50 -0.87 L162.00 -0.00 L163.00 -0.00 L163.50 -0.87 L164.00 -0.00 L165.00 -0.00 L165.50 -0.87 L165.00 -1.73 L166.00 -1.73 L166.50 -2.60 L167.00 -1.73 L168.00 -1.73 L167.50 -0.87 L168.00 -0.00 L169.00 -0.00 L169.50 -0.87 L170.00 -0.00 L171.00 -0.00 L171.50 -0.87 L171.00 -1.73 L172.00 -1.73 L172.50 -2.60 L172.00 -3.46 L171.00 -3.46 L171.50 -4.33 L171.00 -5.20 L172.00 -5.20 L172.50 -6.06 L173.00 -5.20 L174.00 -5.20 L174.50 -6.06 L174.00 -6.93 L175.00 -6.93 L175.50 -7.79 L176.00 -6.93 L177.00 -6.93 L176.50 -6.06 L177.00 -5.20 L178.00 -5.20 L178.50 -6.06 L179.00 -5.20 L180.00 -5.20 L179.50 -4.33 L180.00 -3.46 L179.00 -3.46 L178.50 -2.60 L179.00 -1.73 L180.00 -1.73 L179.50 -0.87 L180.00 -0.00 L181.00 -0.00 L181.50 -0.87 L182.00 -0.00 L183.00 -0.00 L183.50 -0.87 L183.00 -1.73 L184.00 -1.73 L184.50 -2.60 L185.00 -1.73 L186.00 -1.73 L185.50 -0.87 L186.00 -0.00 L187.00 -0.00 L187.50 -0.87 L188.00 -0.00 L189.00 -0.00 L189.50 -0.87 L189.00 -1.73 L190.00 -1.73 L190.50 -2.60 L190.00 -3.46 L189.00 -3.46 L189.50 -4.33 L189.00 -5.20 L190.00 -5.20 L190.50 -6.06 L191.00 -5.20 L192.00 -5.20 L192.50 -6.06 L192.00 -6.93 L193.00 -6.93 L193.50 -7.79 L193.00 -8.66 L192.00 -8.66 L192.50 -9.53 L192.00 -10.39 L191.00 -10.39 L190.50 -9.53 L190.00 -10.39 L189.00 -10.39 L189.50 -11.26 L189.00 -12.12 L190.00 -12.12 L190.50 -12.99 L190.00 -13.86 L189.00 -13.86 L189.50 -14.72 L189.00 -15.59 L190.00 -15.59 L190.50 -16.45 L191.00 -15.59 L192.00 -15.59 L192.50 -16.45 L192.00 -17.32 L193.00 -17.32 L193.50 -18.19 L194.00 -17.32 L195.00 -17.32 L194.50 -16.45 L195.00 -15.59 L196.00 -15.59 L196.50 -16.45 L197.00 -15.59 L198.00 -15.59 L198.50 -16.45 L198.00 -17.32 L199.00 -17.32 L199.50 -18.19 L199.00 -19.05 L198.00 -19.05 L198.50 -19.92 L198.00 -20.78 L199.00 -20.78 L199.50 -21.65 L200.00 -20.78 L201.00 -20.78 L201.50 -21.65 L201.00 -22.52 L202.00 -22.52 L202.50 -23.38 L203.00 -22.52 L204.00 -22.52 L203.50 -21.65 L204.00 -20.78 L205.00 -20.78 L205.50 -21.65 L206.00 -20.78 L207.00 -20.78 L206.50 -19.92 L207.00 -19.05 L206.00 -19.05 L205.50 -18.19 L206.00 -17.32 L207.00 -17.32 L206.50 -16.45 L207.00 -15.59 L208.00 -15.59 L208.50 -16.45 L209.00 -15.59 L210.00 -15.59 L210.50 -16.45 L210.00 -17.32 L211.00 -17.32 L211.50 -18.19 L212.00 -17.32 L213.00 -17.32 L212.50 -16.45 L213.00 -15.59 L214.00 -15.59 L214.50 -16.45 L215.00 -15.59 L216.00 -15.59 L215.50 -14.72 L216.00 -13.86 L215.00 -13.86 L214.50 -12.99 L215.00 -12.12 L216.00 -12.12 L215.50 -11.26 L216.00 -10.39 L215.00 -10.39 L214.50 -9.53 L214.00 -10.39 L213.00 -10.39 L212.50 -9.53 L213.00 -8.66 L212.00 -8.66 L211.50 -7.79 L212.00 -6.93 L213.00 -6.93 L212.50 -6.06 L213.00 -5.20 L214.00 -5.20 L214.50 -6.06 L215.00 -5.20 L216.00 -5.20 L215.50 -4.33 L216.00 -3.46 L215.00 -3.46 L214.50 -2.60 L215.00 -1.73 L216.00 -1.73 L215.50 -0.87 L216.00 -0.00 L217.00 -0.00 L217.50 -0.87 L218.00 -0.00 L219.00 -0.00 L219.50 -0.87 L219.00 -1.73 L220.00 -1.73 L220.50 -2.60 L221.00 -1.73 L222.00 -1.73 L221.50 -0.87 L222.00 -0.00 L223.00 -0.00 L223.50 -0.87 L224.00 -0.00 L225.00 -0.00 L225.50 -0.87 L225.00 -1.73 L226.00 -1.73 L226.50 -2.60 L226.00 -3.46 L225.00 -3.46 L225.50 -4.33 L225.00 -5.20 L226.00 -5.20 L226.50 -6.06 L227.00 -5.20 L228.00 -5.20 L228.50 -6.06 L228.00 -6.93 L229.00 -6.93 L229.50 -7.79 L230.00 -6.93 L231.00 -6.93 L230.50 -6.06 L231.00 -5.20 L232.00 -5.20 L232.50 -6.06 L233.00 -5.20 L234.00 -5.20 L233.50 -4.33 L234.00 -3.46 L233.00 -3.46 L232.50 -2.60 L233.00 -1.73 L234.00 -1.73 L233.50 -0.87 L234.00 -0.00 L235.00 -0.00 L235.50 -0.87 L236.00 -0.00 L237.00 -0.00 L237.50 -0.87 L237.00 -1.73 L238.00 -1.73 L238.50 -2.60 L239.00 -1.73 L240.00 -1.73 L239.50 -0.87 L240.00 -0.00 L241.00 -0.00 L241.50 -0.87 L242.00 -0.00 L243.00 -0.00 L242.50 0.87 L243.00 1.73 L242.00 1.73 L241.50 2.60 L242.00 3.46 L243.00 3.46 L242.50 4.33 L243.00 5.20 L242.00 5.20 L241.50 6.06 L241.00 5.20 L240.00 5.20 L239.50 6.06 L240.00 6.93 L239.00 6.93 L238.50 7.79 L239.00 8.66 L240.00 8.66 L239.50 9.53 L240.00 10.39 L241.00 10.39 L241.50 9.53 L242.00 10.39 L243.00 10.39 L242.50 11.26 L243.00 12.12 L242.00 12.12 L241.50 12.99 L242.00 13.86 L243.00 13.86 L242.50 14.72 L243.00 15.59 L242.00 15.59 L241.50 16.45 L241.00 15.59 L240.00 15.59 L239.50 16.45 L240.00 17.32 L239.00 17.32 L238.50 18.19 L238.00 17.32 L237.00 17.32 L237.50 16.45 L237.00 15.59 L236.00 15.59 L235.50 16.45 L235.00 15.59 L234.00 15.59 L233.50 16.45 L234.00 17.32 L233.00 17.32 L232.50 18.19 L233.00 19.05 L234.00 19.05 L233.50 19.92 L234.00 20.78 L233.00 20.78 L232.50 21.65 L232.00 20.78 L231.00 20.78 L230.50 21.65 L231.00 22.52 L230.00 22.52 L229.50 23.38 L230.00 24.25 L231.00 24.25 L230.50 25.11 L231.00 25.98 L232.00 25.98 L232.50 25.11 L233.00 25.98 L234.00 25.98 L233.50 26.85 L234.00 27.71 L233.00 27.71 L232.50 28.58 L233.00 29.44 L234.00 29.44 L233.50 30.31 L234.00 31.18 L235.00 31.18 L235.50 30.31 L236.00 31.18 L237.00 31.18 L237.50 30.31 L237.00 29.44 L238.00 29.44 L238.50 28.58 L239.00 29.44 L240.00 29.44 L239.50 30.31 L240.00 31.18 L241.00 31.18 L241.50 30.31 L242.00 31.18 L243.00 31.18 L242.50 32.04 L243.00 32.91 L242.00 32.91 L241.50 33.77 L242.00 34.64 L243.00 34.64 L242.50 35.51 L243.00 36.37 L242.00 36.37 L241.50 37.24 L241.00 36.37 L240.00 36.37 L239.50 37.24 L240.00 38.11 L239.00 38.11 L238.50 38.97 L239.00 39.84 L240.00 39.84 L239.50 40.70 L240.00 41.57 L241.00 41.57 L241.50 40.70 L242.00 41.57 L243.00 41.57 L242.50 42.44 L243.00 43.30 L242.00 43.30 L241.50 44.17 L242.00 45.03 L243.00 45.03 L242.50 45.90 L243.00 46.77 L242.00 46.77 L241.50 47.63 L241.00 46.77 L240.00 46.77 L239.50 47.63 L240.00 48.50 L239.00 48.50 L238.50 49.36 L238.00 48.50 L237.00 48.50 L237.50 47.63 L237.00 46.77 L236.00 46.77 L235.50 47.63 L235.00 46.77 L234.00 46.77 L233.50 47.63 L234.00 48.50 L233.00 48.50 L232.50 49.36 L233.00 50.23 L234.00 50.23 L233.50 51.10 L234.00 51.96 L233.00 51.96 L232.50 52.83 L232.00 51.96 L231.00 51.96 L230.50 52.83 L231.00 53.69 L230.00 53.69 L229.50 54.56 L229.00 53.69 L228.00 53.69 L228.50 52.83 L228.00 51.96 L227.00 51.96 L226.50 52.83 L226.00 51.96 L225.00 51.96 L225.50 51.10 L225.00 50.23 L226.00 50.23 L226.50 49.36 L226.00 48.50 L225.00 48.50 L225.50 47.63 L225.00 46.77 L224.00 46.77 L223.50 47.63 L223.00 46.77 L222.00 46.77 L221.50 47.63 L222.00 48.50 L221.00 48.50 L220.50 49.36 L220.00 48.50 L219.00 48.50 L219.50 47.63 L219.00 46.77 L218.00 46.77 L217.50 47.63 L217.00 46.77 L216.00 46.77 L215.50 47.63 L216.00 48.50 L215.00 48.50 L214.50 49.36 L215.00 50.23 L216.00 50.23 L215.50 51.10 L216.00 51.96 L215.00 51.96 L214.50 52.83 L214.00 51.96 L213.00 51.96 L212.50 52.83 L213.00 53.69 L212.00 53.69 L211.50 54.56 L212.00 55.43 L213.00 55.43 L212.50 56.29 L213.00 57.16 L214.00 57.16 L214.50 56.29 L215.00 57.16 L216.00 57.16 L215.50 58.02 L216.00 58.89 L215.00 58.89 L214.50 59.76 L215.00 60.62 L216.00 60.62 L215.50 61.49 L216.00 62.35 L215.00 62.35 L214.50 63.22 L214.00 62.35 L213.00 62.35 L212.50 63.22 L213.00 64.09 L212.00 64.09 L211.50 64.95 L211.00 64.09 L210.00 64.09 L210.50 63.22 L210.00 62.35 L209.00 62.35 L208.50 63.22 L208.00 62.35 L207.00 62.35 L206.50 63.22 L207.00 64.09 L206.00 64.09 L205.50 64.95 L206.00 65.82 L207.00 65.82 L206.50 66.68 L207.00 67.55 L206.00 67.55 L205.50 68.42 L205.00 67.55 L204.00 67.55 L203.50 68.42 L204.00 69.28 L203.00 69.28 L202.50 70.15 L203.00 71.01 L204.00 71.01 L203.50 71.88 L204.00 72.75 L205.00 72.75 L205.50 71.88 L206.00 72.75 L207.00 72.75 L206.50 73.61 L207.00 74.48 L206.00 74.48 L205.50 75.34 L206.00 76.21 L207.00 76.21 L206.50 77.08 L207.00 77.94 L208.00 77.94 L208.50 77.08 L209.00 77.94 L210.00 77.94 L210.50 77.08 L210.00 76.21 L211.00 76.21 L211.50 75.34 L212.00 76.21 L213.00 76.21 L212.50 77.08 L213.00 77.94 L214.00 77.94 L214.50 77.08 L215.00 77.94 L216.00 77.94 L215.50 78.81 L216.00 79.67 L215.00 79.67 L214.50 80.54 L215.00 81.41 L216.00 81.41 L215.50 82.27 L216.00 83.14 L215.00 83.14 L214.50 84.00 L214.00 83.14 L213.00 83.14 L212.50 84.00 L213.00 84.87 L212.00 84.87 L211.50 85.74 L212.00 86.60 L213.00 86.60 L212.50 87.47 L213.00 88.33 L214.00 88.33 L214.50 87.47 L215.00 88.33 L216.00 88.33 L215.50 89.20 L216.00 90.07 L215.00 90.07 L214.50 90.93 L215.00 91.80 L216.00 91.80 L215.50 92.66 L216.00 93.53 L217.00 93.53 L217.50 92.66 L218.00 93.53 L219.00 93.53 L219.50 92.66 L219.00 91.80 L220.00 91.80 L220.50 90.93 L221.00 91.80 L222.00 91.80 L221.50 92.66 L222.00 93.53 L223.00 93.53 L223.50 92.66 L224.00 93.53 L225.00 93.53 L225.50 92.66 L225.00 91.80 L226.00 91.80 L226.50 90.93 L226.00 90.07 L225.00 90.07 L225.50 89.20 L225.00 88.33 L226.00 88.33 L226.50 87.47 L227.00 88.33 L228.00 88.33 L228.50 87.47 L228.00 86.60 L229.00 86.60 L229.50 85.74 L230.00 86.60 L231.00 86.60 L230.50 87.47 L231.00 88.33 L232.00 88.33 L232.50 87.47 L233.00 88.33 L234.00 88.33 L233.50 89.20 L234.00 90.07 L233.00 90.07 L232.50 90.93 L233.00 91.80 L234.00 91.80 L233.50 92.66 L234.00 93.53 L235.00 93.53 L235.50 92.66 L236.00 93.53 L237.00 93.53 L237.50 92.66 L237.00 91.80 L238.00 91.80 L238.50 90.93 L239.00 91.80 L240.00 91.80 L239.50 92.66 L240.00 93.53 L241.00 93.53 L241.50 92.66 L242.00 93.53 L243.00 93.53 L242.50 94.40 L243.00 95.26 L242.00 95.26 L241.50 96.13 L242.00 96.99 L243.00 96.99 L242.50 97.86 L243.00 98.73 L242.00 98.73 L241.50 99.59 L241.00 98.73 L240.00 98.73 L239.50 99.59 L240.00 100.46 L239.00 100.46 L238.50 101.33 L239.00 102.19 L240.00 102.19 L239.50 103.06 L240.00 103.92 L241.00 103.92 L241.50 103.06 L242.00 103.92 L243.00 103.92 L242.50 104.79 L243.00 105.66 L242.00 105.66 L241.50 106.52 L242.00 107.39 L243.00 107.39 L242.50 108.25 L243.00 109.12 L242.00 109.12 L241.50 109.99 L241.00 109.12 L240.00 109.12 L239.50 109.99 L240.00 110.85 L239.00 110.85 L238.50 111.72 L238.00 110.85 L237.00 110.85 L237.50 109.99 L237.00 109.12 L236.00 109.12 L235.50 109.99 L235.00 109.12 L234.00 109.12 L233.50 109.99 L234.00 110.85 L233.00 110.85 L232.50 111.72 L233.00 112.58 L234.00 112.58 L233.50 113.45 L234.00 114.32 L233.00 114.32 L232.50 115.18 L232.00 114.32 L231.00 114.32 L230.50 115.18 L231.00 116.05 L230.00 116.05 L229.50 116.91 L230.00 117.78 L231.00 117.78 L230.50 118.65 L231.00 119.51 L232.00 119.51 L232.50 118.65 L233.00 119.51 L234.00 119.51 L233.50 120.38 L234.00 121.24 L233.00 121.24 L232.50 122.11 L233.00 122.98 L234.00 122.98 L233.50 123.84 L234.00 124.71 L235.00 124.71 L235.50 123.84 L236.00 124.71 L237.00 124.71 L237.50 123.84 L237.00 122.98 L238.00 122.98 L238.50 122.11 L239.00 122.98 L240.00 122.98 L239.50 123.84 L240.00 124.71 L241.00 124.71 L241.50 123.84 L242.00 124.71 L243.00 124.71 L242.50 125.57 L243.00 126.44 L242.00 126.44 L241.50 127.31 L242.00 128.17 L243.00 128.17 L242.50 129.04 L243.00 129.90 L242.00 129.90 L241.50 130.77 L241.00 129.90 L240.00 129.90 L239.50 130.77 L240.00 131.64 L239.00 131.64 L238.50 132.50 L239.00 133.37 L240.00 133.37 L239.50 134.23 L240.00 135.10 L241.00 135.10 L241.50 134.23 L242.00 135.10 L243.00 135.10 L242.50 135.97 L243.00 136.83 L242.00 136.83 L241.50 137.70 L242.00 138.56 L243.00 138.56 L242.50 139.43 L243.00 140.30 L242.00 140.30 L241.50 141.16 L241.00 140.30 L240.00 140.30 L239.50 141.16 L240.00 142.03 L239.00 142.03 L238.50 142.89 L238.00 142.03 L237.00 142.03 L237.50 141.16 L237.00 140.30 L236.00 140.30 L235.50 141.16 L235.00 140.30 L234.00 140.30 L233.50 141.16 L234.00 142.03 L233.00 142.03 L232.50 142.89 L233.00 143.76 L234.00 143.76 L233.50 144.63 L234.00 145.49 L233.00 145.49 L232.50 146.36 L232.00 145.49 L231.00 145.49 L230.50 146.36 L231.00 147.22 L230.00 147.22 L229.50 148.09 L229.00 147.22 L228.00 147.22 L228.50 146.36 L228.00 145.49 L227.00 145.49 L226.50 146.36 L226.00 145.49 L225.00 145.49 L225.50 144.63 L225.00 143.76 L226.00 143.76 L226.50 142.89 L226.00 142.03 L225.00 142.03 L225.50 141.16 L225.00 140.30 L224.00 140.30 L223.50 141.16 L223.00 140.30 L222.00 140.30 L221.50 141.16 L222.00 142.03 L221.00 142.03 L220.50 142.89 L220.00 142.03 L219.00 142.03 L219.50 141.16 L219.00 140.30 L218.00 140.30 L217.50 141.16 L217.00 140.30 L216.00 140.30 L215.50 141.16 L216.00 142.03 L215.00 142.03 L214.50 142.89 L215.00 143.76 L216.00 143.76 L215.50 144.63 L216.00 145.49 L215.00 145.49 L214.50 146.36 L214.00 145.49 L213.00 145.49 L212.50 146.36 L213.00 147.22 L212.00 147.22 L211.50 148.09 L212.00 148.96 L213.00 148.96 L212.50 149.82 L213.00 150.69 L214.00 150.69 L214.50 149.82 L215.00 150.69 L216.00 150.69 L215.50 151.55 L216.00 152.42 L215.00 152.42 L214.50 153.29 L215.00 154.15 L216.00 154.15 L215.50 155.02 L216.00 155.88 L215.00 155.88 L214.50 156.75 L214.00 155.88 L213.00 155.88 L212.50 156.75 L213.00 157.62 L212.00 157.62 L211.50 158.48 L211.00 157.62 L210.00 157.62 L210.50 156.75 L210.00 155.88 L209.00 155.88 L208.50 156.75 L208.00 155.88 L207.00 155.88 L206.50 156.75 L207.00 157.62 L206.00 157.62 L205.50 158.48 L206.00 159.35 L207.00 159.35 L206.50 160.21 L207.00 161.08 L206.00 161.08 L205.50 161.95 L205.00 161.08 L204.00 161.08 L203.50 161.95 L204.00 162.81 L203.00 162.81 L202.50 163.68 L202.00 162.81 L201.00 162.81 L201.50 161.95 L201.00 161.08 L200.00 161.08 L199.50 161.95 L199.00 161.08 L198.00 161.08 L198.50 160.21 L198.00 159.35 L199.00 159.35 L199.50 158.48 L199.00 157.62 L198.00 157.62 L198.50 156.75 L198.00 155.88 L197.00 155.88 L196.50 156.75 L196.00 155.88 L195.00 155.88 L194.50 156.75 L195.00 157.62 L194.00 157.62 L193.50 158.48 L193.00 157.62 L192.00 157.62 L192.50 156.75 L192.00 155.88 L191.00 155.88 L190.50 156.75 L190.00 155.88 L189.00 155.88 L189.50 155.02 L189.00 154.15 L190.00 154.15 L190.50 153.29 L190.00 152.42 L189.00 152.42 L189.50 151.55 L189.00 150.69 L190.00 150.69 L190.50 149.82 L191.00 150.69 L192.00 150.69 L192.50 149.82 L192.00 148.96 L193.00 148.96 L193.50 148.09 L193.00 147.22 L192.00 147.22 L192.50 146.36 L192.00 145.49 L191.00 145.49 L190.50 146.36 L190.00 145.49 L189.00 145.49 L189.50 144.63 L189.00 143.76 L190.00 143.76 L190.50 142.89 L190.00 142.03 L189.00 142.03 L189.50 141.16 L189.00 140.30 L188.00 140.30 L187.50 141.16 L187.00 140.30 L186.00 140.30 L185.50 141.16 L186.00 142.03 L185.00 142.03 L184.50 142.89 L184.00 142.03 L183.00 142.03 L183.50 141.16 L183.00 140.30 L182.00 140.30 L181.50 141.16 L181.00 140.30 L180.00 140.30 L179.50 141.16 L180.00 142.03 L179.00 142.03 L178.50 142.89 L179.00 143.76 L180.00 143.76 L179.50 144.63 L180.00 145.49 L179.00 145.49 L178.50 146.36 L178.00 145.49 L177.00 145.49 L176.50 146.36 L177.00 147.22 L176.00 147.22 L175.50 148.09 L175.00 147.22 L174.00 147.22 L174.50 146.36 L174.00 145.49 L173.00 145.49 L172.50 146.36 L172.00 145.49 L171.00 145.49 L171.50 144.63 L171.00 143.76 L172.00 143.76 L172.50 142.89 L172.00 142.03 L171.00 142.03 L171.50 141.16 L171.00 140.30 L170.00 140.30 L169.50 141.16 L169.00 140.30 L168.00 140.30 L167.50 141.16 L168.00 142.03 L167.00 142.03 L166.50 142.89 L166.00 142.03 L165.00 142.03 L165.50 141.16 L165.00 140.30 L164.00 140.30 L163.50 141.16 L163.00 140.30 L162.00 140.30 L161.50 141.16 L162.00 142.03 L161.00 142.03 L160.50 142.89 L161.00 143.76 L162.00 143.76 L161.50 144.63 L162.00 145.49 L161.00 145.49 L160.50 146.36 L160.00 145.49 L159.00 145.49 L158.50 146.36 L159.00 147.22 L158.00 147.22 L157.50 148.09 L158.00 148.96 L159.00 148.96 L158.50 149.82 L159.00 150.69 L160.00 150.69 L160.50 149.82 L161.00 150.69 L162.00 150.69 L161.50 151.55 L162.00 152.42 L161.00 152.42 L160.50 153.29 L161.00 154.15 L162.00 154.15 L161.50 155.02 L162.00 155.88 L161.00 155.88 L160.50 156.75 L160.00 155.88 L159.00 155.88 L158.50 156.75 L159.00 157.62 L158.00 157.62 L157.50 158.48 L157.00 157.62 L156.00 157.62 L156.50 156.75 L156.00 155.88 L155.00 155.88 L154.50 156.75 L154.00 155.88 L153.00 155.88 L152.50 156.75 L153.00 157.62 L152.00 157.62 L151.50 158.48 L152.00 159.35 L153.00 159.35 L152.50 160.21 L153.00 161.08 L152.00 161.08 L151.50 161.95 L151.00 161.08 L150.00 161.08 L149.50 161.95 L150.00 162.81 L149.00 162.81 L148.50 163.68 L149.00 164.55 L150.00 164.55 L149.50 165.41 L150.00 166.28 L151.00 166.28 L151.50 165.41 L152.00 166.28 L153.00 166.28 L152.50 167.14 L153.00 168.01 L152.00 168.01 L151.50 168.88 L152.00 169.74 L153.00 169.74 L152.50 170.61 L153.00 171.47 L154.00 171.47 L154.50 170.61 L155.00 171.47 L156.00 171.47 L156.50 170.61 L156.00 169.74 L157.00 169.74 L157.50 168.88 L158.00 169.74 L159.00 169.74 L158.50 170.61 L159.00 171.47 L160.00 171.47 L160.50 170.61 L161.00 171.47 L162.00 171.47 L161.50 172.34 L162.00 173.21 L161.00 173.21 L160.50 174.07 L161.00 174.94 L162.00 174.94 L161.50 175.80 L162.00 176.67 L161.00 176.67 L160.50 177.54 L160.00 176.67 L159.00 176.67 L158.50 177.54 L159.00 178.40 L158.00 178.40 L157.50 179.27 L158.00 180.13 L159.00 180.13 L158.50 181.00 L159.00 181.87 L160.00 181.87 L160.50 181.00 L161.00 181.87 L162.00 181.87 L161.50 182.73 L162.00 183.60 L161.00 183.60 L160.50 184.46 L161.00 185.33 L162.00 185.33 L161.50 186.20 L162.00 187.06 L161.00 187.06 L160.50 187.93 L160.00 187.06 L159.00 187.06 L158.50 187.93 L159.00 188.79 L158.00 188.79 L157.50 189.66 L157.00 188.79 L156.00 188.79 L156.50 187.93 L156.00 187.06 L155.00 187.06 L154.50 187.93 L154.00 187.06 L153.00 187.06 L152.50 187.93 L153.00 188.79 L152.00 188.79 L151.50 189.66 L152.00 190.53 L153.00 190.53 L152.50 191.39 L153.00 192.26 L152.00 192.26 L151.50 193.12 L151.00 192.26 L150.00 192.26 L149.50 193.12 L150.00 193.99 L149.00 193.99 L148.50 194.86 L148.00 193.99 L147.00 193.99 L147.50 193.12 L147.00 192.26 L146.00 192.26 L145.50 193.12 L145.00 192.26 L144.00 192.26 L144.50 191.39 L144.00 190.53 L145.00 190.53 L145.50 189.66 L145.00 188.79 L144.00 188.79 L144.50 187.93 L144.00 187.06 L143.00 187.06 L142.50 187.93 L142.00 187.06 L141.00 187.06 L140.50 187.93 L141.00 188.79 L140.00 188.79 L139.50 189.66 L139.00 188.79 L138.00 188.79 L138.50 187.93 L138.00 187.06 L137.00 187.06 L136.50 187.93 L136.00 187.06 L135.00 187.06 L134.50 187.93 L135.00 188.79 L134.00 188.79 L133.50 189.66 L134.00 190.53 L135.00 190.53 L134.50 191.39 L135.00 192.26 L134.00 192.26 L133.50 193.12 L133.00 192.26 L132.00 192.26 L131.50 193.12 L132.00 193.99 L131.00 193.99 L130.50 194.86 L131.00 195.72 L132.00 195.72 L131.50 196.59 L132.00 197.45 L133.00 197.45 L133.50 196.59 L134.00 197.45 L135.00 197.45 L134.50 198.32 L135.00 199.19 L134.00 199.19 L133.50 200.05 L134.00 200.92 L135.00 200.92 L134.50 201.78 L135.00 202.65 L134.00 202.65 L133.50 203.52 L133.00 202.65 L132.00 202.65 L131.50 203.52 L132.00 204.38 L131.00 204.38 L130.50 205.25 L130.00 204.38 L129.00 204.38 L129.50 203.52 L129.00 202.65 L128.00 202.65 L127.50 203.52 L127.00 202.65 L126.00 202.65 L125.50 203.52 L126.00 204.38 L125.00 204.38 L124.50 205.25 L125.00 206.11 L126.00 206.11 L125.50 206.98 L126.00 207.85 L125.00 207.85 L124.50 208.71 L124.00 207.85 L123.00 207.85 L122.50 208.71 L123.00 209.58 L122.00 209.58 L121.50 210.44 L121.00 209.58 L120.00 209.58 L120.50 208.71 L120.00 207.85 L119.00 207.85 L118.50 208.71 L118.00 207.85 L117.00 207.85 L117.50 206.98 L117.00 206.11 L118.00 206.11 L118.50 205.25 L118.00 204.38 L117.00 204.38 L117.50 203.52 L117.00 202.65 L116.00 202.65 L115.50 203.52 L115.00 202.65 L114.00 202.65 L113.50 203.52 L114.00 204.38 L113.00 204.38 L112.50 205.25 L112.00 204.38 L111.00 204.38 L111.50 203.52 L111.00 202.65 L110.00 202.65 L109.50 203.52 L109.00 202.65 L108.00 202.65 L108.50 201.78 L108.00 200.92 L109.00 200.92 L109.50 200.05 L109.00 199.19 L108.00 199.19 L108.50 198.32 L108.00 197.45 L109.00 197.45 L109.50 196.59 L110.00 197.45 L111.00 197.45 L111.50 196.59 L111.00 195.72 L112.00 195.72 L112.50 194.86 L112.00 193.99 L111.00 193.99 L111.50 193.12 L111.00 192.26 L110.00 192.26 L109.50 193.12 L109.00 192.26 L108.00 192.26 L108.50 191.39 L108.00 190.53 L109.00 190.53 L109.50 189.66 L109.00 188.79 L108.00 188.79 L108.50 187.93 L108.00 187.06 L107.00 187.06 L106.50 187.93 L106.00 187.06 L105.00 187.06 L104.50 187.93 L105.00 188.79 L104.00 188.79 L103.50 189.66 L103.00 188.79 L102.00 188.79 L102.50 187.93 L102.00 187.06 L101.00 187.06 L100.50 187.93 L100.00 187.06 L99.00 187.06 L98.50 187.93 L99.00 188.79 L98.00 188.79 L97.50 189.66 L98.00 190.53 L99.00 190.53 L98.50 191.39 L99.00 192.26 L98.00 192.26 L97.50 193.12 L97.00 192.26 L96.00 192.26 L95.50 193.12 L96.00 193.99 L95.00 193.99 L94.50 194.86 L94.00 193.99 L93.00 193.99 L93.50 193.12 L93.00 192.26 L92.00 192.26 L91.50 193.12 L91.00 192.26 L90.00 192.26 L90.50 191.39 L90.00 190.53 L91.00 190.53 L91.50 189.66 L91.00 188.79 L90.00 188.79 L90.50 187.93 L90.00 187.06 L89.00 187.06 L88.50 187.93 L88.00 187.06 L87.00 187.06 L86.50 187.93 L87.00 188.79 L86.00 188.79 L85.50 189.66 L85.00 188.79 L84.00 188.79 L84.50 187.93 L84.00 187.06 L83.00 187.06 L82.50 187.93 L82.00 187.06 L81.00 187.06 L81.50 186.20 L81.00 185.33 L82.00 185.33 L82.50 184.46 L82.00 183.60 L81.00 183.60 L81.50 182.73 L81.00 181.87 L82.00 181.87 L82.50 181.00 L83.00 181.87 L84.00 181.87 L84.50 181.00 L84.00 180.13 L85.00 180.13 L85.50 179.27 L85.00 178.40 L84.00 178.40 L84.50 177.54 L84.00 176.67 L83.00 176.67 L82.50 177.54 L82.00 176.67 L81.00 176.67 L81.50 175.80 L81.00 174.94 L82.00 174.94 L82.50 174.07 L82.00 173.21 L81.00 173.21 L81.50 172.34 L81.00 171.47 L82.00 171.47 L82.50 170.61 L83.00 171.47 L84.00 171.47 L84.50 170.61 L84.00 169.74 L85.00 169.74 L85.50 168.88 L86.00 169.74 L87.00 169.74 L86.50 170.61 L87.00 171.47 L88.00 171.47 L88.50 170.61 L89.00 171.47 L90.00 171.47 L90.50 170.61 L90.00 169.74 L91.00 169.74 L91.50 168.88 L91.00 168.01 L90.00 168.01 L90.50 167.14 L90.00 166.28 L91.00 166.28 L91.50 165.41 L92.00 166.28 L93.00 166.28 L93.50 165.41 L93.00 164.55 L94.00 164.55 L94.50 163.68 L94.00 162.81 L93.00 162.81 L93.50 161.95 L93.00 161.08 L92.00 161.08 L91.50 161.95 L91.00 161.08 L90.00 161.08 L90.50 160.21 L90.00 159.35 L91.00 159.35 L91.50 158.48 L91.00 157.62 L90.00 157.62 L90.50 156.75 L90.00 155.88 L89.00 155.88 L88.50 156.75 L88.00 155.88 L87.00 155.88 L86.50 156.75 L87.00 157.62 L86.00 157.62 L85.50 158.48 L85.00 157.62 L84.00 157.62 L84.50 156.75 L84.00 155.88 L83.00 155.88 L82.50 156.75 L82.00 155.88 L81.00 155.88 L81.50 155.02 L81.00 154.15 L82.00 154.15 L82.50 153.29 L82.00 152.42 L81.00 152.42 L81.50 151.55 L81.00 150.69 L82.00 150.69 L82.50 149.82 L83.00 150.69 L84.00 150.69 L84.50 149.82 L84.00 148.96 L85.00 148.96 L85.50 148.09 L85.00 147.22 L84.00 147.22 L84.50 146.36 L84.00 145.49 L83.00 145.49 L82.50 146.36 L82.00 145.49 L81.00 145.49 L81.50 144.63 L81.00 143.76 L82.00 143.76 L82.50 142.89 L82.00 142.03 L81.00 142.03 L81.50 141.16 L81.00 140.30 L80.00 140.30 L79.50 141.16 L79.00 140.30 L78.00 140.30 L77.50 141.16 L78.00 142.03 L77.00 142.03 L76.50 142.89 L76.00 142.03 L75.00 142.03 L75.50 141.16 L75.00 140.30 L74.00 140.30 L73.50 141.16 L73.00 140.30 L72.00 140.30 L71.50 141.16 L72.00 142.03 L71.00 142.03 L70.50 142.89 L71.00 143.76 L72.00 143.76 L71.50 144.63 L72.00 145.49 L71.00 145.49 L70.50 146.36 L70.00 145.49 L69.00 145.49 L68.50 146.36 L69.00 147.22 L68.00 147.22 L67.50 148.09 L67.00 147.22 L66.00 147.22 L66.50 146.36 L66.00 145.49 L65.00 145.49 L64.50 146.36 L64.00 145.49 L63.00 145.49 L63.50 144.63 L63.00 143.76 L64.00 143.76 L64.50 142.89 L64.00 142.03 L63.00 142.03 L63.50 141.16 L63.00 140.30 L62.00 140.30 L61.50 141.16 L61.00 140.30 L60.00 140.30 L59.50 141.16 L60.00 142.03 L59.00 142.03 L58.50 142.89 L58.00 142.03 L57.00 142.03 L57.50 141.16 L57.00 140.30 L56.00 140.30 L55.50 141.16 L55.00 140.30 L54.00 140.30 L53.50 141.16 L54.00 142.03 L53.00 142.03 L52.50 142.89 L53.00 143.76 L54.00 143.76 L53.50 144.63 L54.00 145.49 L53.00 145.49 L52.50 146.36 L52.00 145.49 L51.00 145.49 L50.50 146.36 L51.00 147.22 L50.00 147.22 L49.50 148.09 L50.00 148.96 L51.00 148.96 L50.50 149.82 L51.00 150.69 L52.00 150.69 L52.50 149.82 L53.00 150.69 L54.00 150.69 L53.50 151.55 L54.00 152.42 L53.00 152.42 L52.50 153.29 L53.00 154.15 L54.00 154.15 L53.50 155.02 L54.00 155.88 L53.00 155.88 L52.50 156.75 L52.00 155.88 L51.00 155.88 L50.50 156.75 L51.00 157.62 L50.00 157.62 L49.50 158.48 L49.00 157.62 L48.00 157.62 L48.50 156.75 L48.00 155.88 L47.00 155.88 L46.50 156.75 L46.00 155.88 L45.00 155.88 L44.50 156.75 L45.00 157.62 L44.00 157.62 L43.50 158.48 L44.00 159.35 L45.00 159.35 L44.50 160.21 L45.00 161.08 L44.00 161.08 L43.50 161.95 L43.00 161.08 L42.00 161.08 L41.50 161.95 L42.00 162.81 L41.00 162.81 L40.50 163.68 L40.00 162.81 L39.00 162.81 L39.50 161.95 L39.00 161.08 L38.00 161.08 L37.50 161.95 L37.00 161.08 L36.00 161.08 L36.50 160.21 L36.00 159.35 L37.00 159.35 L37.50 158.48 L37.00 157.62 L36.00 157.62 L36.50 156.75 L36.00 155.88 L35.00 155.88 L34.50 156.75 L34.00 155.88 L33.00 155.88 L32.50 156.75 L33.00 157.62 L32.00 157.62 L31.50 158.48 L31.00 157.62 L30.00 157.62 L30.50 156.75 L30.00 155.88 L29.00 155.88 L28.50 156.75 L28.00 155.88 L27.00 155.88 L27.50 155.02 L27.00 154.15 L28.00 154.15 L28.50 153.29 L28.00 152.42 L27.00 152.42 L27.50 151.55 L27.00 150.69 L28.00 150.69 L28.50 149.82 L29.00 150.69 L30.00 150.69 L30.50 149.82 L30.00 148.96 L31.00 148.96 L31.50 148.09 L31.00 147.22 L30.00 147.22 L30.50 146.36 L30.00 145.49 L29.00 145.49 L28.50 146.36 L28.00 145.49 L27.00 145.49 L27.50 144.63 L27.00 143.76 L28.00 143.76 L28.50 142.89 L28.00 142.03 L27.00 142.03 L27.50 141.16 L27.00 140.30 L26.00 140.30 L25.50 141.16 L25.00 140.30 L24.00 140.30 L23.50 141.16 L24.00 142.03 L23.00 142.03 L22.50 142.89 L22.00 142.03 L21.00 142.03 L21.50 141.16 L21.00 140.30 L20.00 140.30 L19.50 141.16 L19.00 140.30 L18.00 140.30 L17.50 141.16 L18.00 142.03 L17.00 142.03 L16.50 142.89 L17.00 143.76 L18.00 143.76 L17.50 144.63 L18.00 145.49 L17.00 145.49 L16.50 146.36 L16.00 145.49 L15.00 145.49 L14.50 146.36 L15.00 147.22 L14.00 147.22 L13.50 148.09 L13.00 147.22 L12.00 147.22 L12.50 146.36 L12.00 145.49 L11.00 145.49 L10.50 146.36 L10.00 145.49 L9.00 145.49 L9.50 144.63 L9.00 143.76 L10.00 143.76 L10.50 142.89 L10.00 142.03 L9.00 142.03 L9.50 141.16 L9.00 140.30 L8.00 140.30 L7.50 141.16 L7.00 140.30 L6.00 140.30 L5.50 141.16 L6.00 142.03 L5.00 142.03 L4.50 142.89 L4.00 142.03 L3.00 142.03 L3.50 141.16 L3.00 140.30 L2.00 140.30 L1.50 141.16 L1.00 140.30 L0.00 140.30 L0.50 139.43 L-0.00 138.56 L1.00 138.56 L1.50 137.70 L1.00 136.83 L0.00 136.83 L0.50 135.97 L-0.00 135.10 L1.00 135.10 L1.50 134.23 L2.00 135.10 L3.00 135.10 L3.50 134.23 L3.00 133.37 L4.00 133.37 L4.50 132.50 L4.00 131.64 L3.00 131.64 L3.50 130.77 L3.00 129.90 L2.00 129.90 L1.50 130.77 L1.00 129.90 L0.00 129.90 L0.50 129.04 L-0.00 128.17 L1.00 128.17 L1.50 127.31 L1.00 126.44 L0.00 126.44 L0.50 125.57 L-0.00 124.71 L1.00 124.71 L1.50 123.84 L2.00 124.71 L3.00 124.71 L3.50 123.84 L3.00 122.98 L4.00 122.98 L4.50 122.11 L5.00 122.98 L6.00 122.98 L5.50 123.84 L6.00 124.71 L7.00 124.71 L7.50 123.84 L8.00 124.71 L9.00 124.71 L9.50 123.84 L9.00 122.98 L10.00 122.98 L10.50 122.11 L10.00 121.24 L9.00 121.24 L9.50 120.38 L9.00 119.51 L10.00 119.51 L10.50 118.65 L11.00 119.51 L12.00 119.51 L12.50 118.65 L12.00 117.78 L13.00 117.78 L13.50 116.91 L13.00 116.05 L12.00 116.05 L12.50 115.18 L12.00 114.32 L11.00 114.32 L10.50 115.18 L10.00 114.32 L9.00 114.32 L9.50 113.45 L9.00 112.58 L10.00 112.58 L10.50 111.72 L10.00 110.85 L9.00 110.85 L9.50 109.99 L9.00 109.12 L8.00 109.12 L7.50 109.99 L7.00 109.12 L6.00 109.12 L5.50 109.99 L6.00 110.85 L5.00 110.85 L4.50 111.72 L4.00 110.85 L3.00 110.85 L3.50 109.99 L3.00 109.12 L2.00 109.12 L1.50 109.99 L1.00 109.12 L0.00 109.12 L0.50 108.25 L-0.00 107.39 L1.00 107.39 L1.50 106.52 L1.00 105.66 L0.00 105.66 L0.50 104.79 L-0.00 103.92 L1.00 103.92 L1.50 103.06 L2.00 103.92 L3.00 103.92 L3.50 103.06 L3.00 102.19 L4.00 102.19 L4.50 101.33 L4.00 100.46 L3.00 100.46 L3.50 99.59 L3.00 98.73 L2.00 98.73 L1.50 99.59 L1.00 98.73 L0.00 98.73 L0.50 97.86 L-0.00 96.99 L1.00 96.99 L1.50 96.13 L1.00 95.26 L0.00 95.26 L0.50 94.40 L-0.00 93.53 L1.00 93.53 L1.50 92.66 L2.00 93.53 L3.00 93.53 L3.50 92.66 L3.00 91.80 L4.00 91.80 L4.50 90.93 L5.00 91.80 L6.00 91.80 L5.50 92.66 L6.00 93.53 L7.00 93.53 L7.50 92.66 L8.00 93.53 L9.00 93.53 L9.50 92.66 L9.00 91.80 L10.00 91.80 L10.50 90.93 L10.00 90.07 L9.00 90.07 L9.50 89.20 L9.00 88.33 L10.00 88.33 L10.50 87.47 L11.00 88.33 L12.00 88.33 L12.50 87.47 L12.00 86.60 L13.00 86.60 L13.50 85.74 L14.00 86.60 L15.00 86.60 L14.50 87.47 L15.00 88.33 L16.00 88.33 L16.50 87.47 L17.00 88.33 L18.00 88.33 L17.50 89.20 L18.00 90.07 L17.00 90.07 L16.50 90.93 L17.00 91.80 L18.00 91.80 L17.50 92.66 L18.00 93.53 L19.00 93.53 L19.50 92.66 L20.00 93.53 L21.00 93.53 L21.50 92.66 L21.00 91.80 L22.00 91.80 L22.50 90.93 L23.00 91.80 L24.00 91.80 L23.50 92.66 L24.00 93.53 L25.00 93.53 L25.50 92.66 L26.00 93.53 L27.00 93.53 L27.50 92.66 L27.00 91.80 L28.00 91.80 L28.50 90.93 L28.00 90.07 L27.00 90.07 L27.50 89.20 L27.00 88.33 L28.00 88.33 L28.50 87.47 L29.00 88.33 L30.00 88.33 L30.50 87.47 L30.00 86.60 L31.00 86.60 L31.50 85.74 L31.00 84.87 L30.00 84.87 L30.50 84.00 L30.00 83.14 L29.00 83.14 L28.50 84.00 L28.00 83.14 L27.00 83.14 L27.50 82.27 L27.00 81.41 L28.00 81.41 L28.50 80.54 L28.00 79.67 L27.00 79.67 L27.50 78.81 L27.00 77.94 L28.00 77.94 L28.50 77.08 L29.00 77.94 L30.00 77.94 L30.50 77.08 L30.00 76.21 L31.00 76.21 L31.50 75.34 L32.00 76.21 L33.00 76.21 L32.50 77.08 L33.00 77.94 L34.00 77.94 L34.50 77.08 L35.00 77.94 L36.00 77.94 L36.50 77.08 L36.00 76.21 L37.00 76.21 L37.50 75.34 L37.00 74.48 L36.00 74.48 L36.50 73.61 L36.00 72.75 L37.00 72.75 L37.50 71.88 L38.00 72.75 L39.00 72.75 L39.50 71.88 L39.00 71.01 L40.00 71.01 L40.50 70.15 L40.00 69.28 L39.00 69.28 L39.50 68.42 L39.00 67.55 L38.00 67.55 L37.50 68.42 L37.00 67.55 L36.00 67.55 L36.50 66.68 L36.00 65.82 L37.00 65.82 L37.50 64.95 L37.00 64.09 L36.00 64.09 L36.50 63.22 L36.00 62.35 L35.00 62.35 L34.50 63.22 L34.00 62.35 L33.00 62.35 L32.50 63.22 L33.00 64.09 L32.00 64.09 L31.50 64.95 L31.00 64.09 L30.00 64.09 L30.50 63.22 L30.00 62.35 L29.00 62.35 L28.50 63.22 L28.00 62.35 L27.00 62.35 L27.50 61.49 L27.00 60.62 L28.00 60.62 L28.50 59.76 L28.00 58.89 L27.00 58.89 L27.50 58.02 L27.00 57.16 L28.00 57.16 L28.50 56.29 L29.00 57.16 L30.00 57.16 L30.50 56.29 L30.00 55.43 L31.00 55.43 L31.50 54.56 L31.00 53.69 L30.00 53.69 L30.50 52.83 L30.00 51.96 L29.00 51.96 L28.50 52.83 L28.00 51.96 L27.00 51.96 L27.50 51.10 L27.00 50.23 L28.00 50.23 L28.50 49.36 L28.00 48.50 L27.00 48.50 L27.50 47.63 L27.00 46.77 L26.00 46.77 L25.50 47.63 L25.00 46.77 L24.00 46.77 L23.50 47.63 L24.00 48.50 L23.00 48.50 L22.50 49.36 L22.00 48.50 L21.00 48.50 L21.50 47.63 L21.00 46.77 L20.00 46.77 L19.50 47.63 L19.00 46.77 L18.00 46.77 L17.50 47.63 L18.00 48.50 L17.00 48.50 L16.50 49.36 L17.00 50.23 L18.00 50.23 L17.50 51.10 L18.00 51.96 L17.00 51.96 L16.50 52.83 L16.00 51.96 L15.00 51.96 L14.50 52.83 L15.00 53.69 L14.00 53.69 L13.50 54.56 L13.00 53.69 L12.00 53.69 L12.50 52.83 L12.00 51.96 L11.00 51.96 L10.50 52.83 L10.00 51.96 L9.00 51.96 L9.50 51.10 L9.00 50.23 L10.00 50.23 L10.50 49.36 L10.00 48.50 L9.00 48.50 L9.50 47.63 L9.00 46.77 L8.00 46.77 L7.50 47.63 L7.00 46.77 L6.00 46.77 L5.50 47.63 L6.00 48.50 L5.00 48.50 L4.50 49.36 L4.00 48.50 L3.00 48.50 L3.50 47.63 L3.00 46.77 L2.00 46.77 L1.50 47.63 L1.00 46.77 L0.00 46.77 L0.50 45.90 L-0.00 45.03 L1.00 45.03 L1.50 44.17 L1.00 43.30 L0.00 43.30 L0.50 42.44 L-0.00 41.57 L1.00 41.57 L1.50 40.70 L2.00 41.57 L3.00 41.57 L3.50 40.70 L3.00 39.84 L4.00 39.84 L4.50 38.97 L4.00 38.11 L3.00 38.11 L3.50 37.24 L3.00 36.37 L2.00 36.37 L1.50 37.24 L1.00 36.37 L0.00 36.37 L0.50 35.51 L-0.00 34.64 L1.00 34.64 L1.50 33.77 L1.00 32.91 L0.00 32.91 L0.50 32.04 L-0.00 31.18 L1.00 31.18 L1.50 30.31 L2.00 31.18 L3.00 31.18 L3.50 30.31 L3.00 29.44 L4.00 29.44 L4.50 28.58 L5.00 29.44 L6.00 29.44 L5.50 30.31 L6.00 31.18 L7.00 31.18 L7.50 30.31 L8.00 31.18 L9.00 31.18 L9.50 30.31 L9.00 29.44 L10.00 29.44 L10.50 28.58 L10.00 27.71 L9.00 27.71 L9.50 26.85 L9.00 25.98 L10.00 25.98 L10.50 25.11 L11.00 25.98 L12.00 25.98 L12.50 25.11 L12.00 24.25 L13.00 24.25 L13.50 23.38 L13.00 22.52 L12.00 22.52 L12.50 21.65 L12.00 20.78 L11.00 20.78 L10.50 21.65 L10.00 20.78 L9.00 20.78 L9.50 19.92 L9.00 19.05 L10.00 19.05 L10.50 18.19 L10.00 17.32 L9.00 17.32 L9.50 16.45 L9.00 15.59 L8.00 15.59 L7.50 16.45 L7.00 15.59 L6.00 15.59 L5.50 16.45 L6.00 17.32 L5.00 17.32 L4.50 18.19 L4.00 17.32 L3.00 17.32 L3.50 16.45 L3.00 15.59 L2.00 15.59 L1.50 16.45 L1.00 15.59 L0.00 15.59 L0.50 14.72 L-0.00 13.86 L1.00 13.86 L1.50 12.99 L1.00 12.12 L0.00 12.12 L0.50 11.26 L-0.00 10.39 L1.00 10.39 L1.50 9.53 L2.00 10.39 L3.00 10.39 L3.50 9.53 L3.00 8.66 L4.00 8.66 L4.50 7.79 L4.00 6.93 L3.00 6.93 L3.50 6.06 L3.00 5.20 L2.00 5.20 L1.50 6.06 L1.00 5.20 L0.00 5.20 L0.50 4.33 L-0.00 3.46 L1.00 3.46 L1.50 2.60 L1.00 1.73 L0.00 1.73 L0.50 0.87 L-0.00 -0.00 " />
</g>
</svg>

