<svg viewBox="0 0 400.000000 399.999847" xmlns="http://www.w3.org/2000/svg" version="1.1">
<!-- SEED 14892857 -->
<rect width="400.000000" height="399.999847" fill="#DDAADD" fill-opacity="1.000000"/>
<g transform="scale(12.675433,12.675432) translate(15.778532,2.343505) ">
<path stroke="#000000" stroke-opacity="1.000000" stroke-width="0.300000" fill="none" fill-opacity="1" d="M0.00 0.00 L0.71 0.71 L0.00 1.41 L-0.71 2.12 L-1.41 2.83 L-2.12 3.54 L-1.41 4.24 L-0.71 3.54 L0.00 2.83 L0.71 2.12 L1.41 1.41 L2.12 2.12 L1.41 2.83 L0.71 3.54 L0.00 4.24 L-0.71 4.95 L0.00 5.66 L0.71 6.36 L1.41 7.07 L2.12 6.36 L2.83 5.66 L3.54 4.95 L4.24 4.24 L4.95 4.95 L4.24 5.66 L3.54 6.36 L2.83 7.07 L2.12 7.78 L2.83 8.49 L3.54 7.78 L4.24 7.07 L4.95 6.36 L5.66 5.66 L6.36 6.36 L5.66 7.07 L4.95 6.36 L4.24 5.66 L3.54 4.95 L2.83 4.24 L2.12 4.95 L2.83 5.66 L3.54 6.36 L4.24 7.07 L4.95 7.78 L4.24 8.49 L3.54 7.78 L2.83 7.07 L2.12 6.36 L1.41 5.66 L0.71 6.36 L-0.00 7.07 L-0.71 7.78 L-0.00 8.49 L0.71 9.19 L1.41 9.90 L2.12 10.61 L1.41 11.31 L0.71 10.61 L-0.00 9.90 L-0.71 9.19 L-1.41 8.49 L-2.12 9.19 L-1.41 9.90 L-0.71 10.61 L-0.00 11.31 L0.71 12.02 L-0.00 12.73 L-0.71 13.44 L-1.41 14.14 L-2.12 13.44 L-2.83 12.73 L-3.54 12.02 L-4.24 11.31 L-4.95 12.02 L-4.24 12.73 L-3.54 13.44 L-2.83 14.14 L-2.12 14.85 L-2.83 15.56 L-3.54 14.85 L-4.24 14.14 L-4.95 13.44 L-5.66 12.73 L-6.36 13.44 L-7.07 14.14 L-7.78 14.85 L-7.07 15.56 L-6.36 16.26 L-5.66 16.97 L-4.95 17.68 L-5.66 18.38 L-6.36 17.68 L-7.07 16.97 L-7.78 16.26 L-8.49 15.56 L-9.19 16.26 L-8.49 16.97 L-7.78 17.68 L-7.07 18.38 L-6.36 19.09 L-7.07 19.80 L-7.78 19.09 L-7.07 18.38 L-6.36 17.68 L-5.66 16.97 L-4.95 16.26 L-5.66 15.56 L-6.36 16.26 L-7.07 16.97 L-7.78 17.68 L-8.49 18.38 L-9.19 17.68 L-8.49 16.97 L-7.78 16.26 L-7.07 15.56 L-6.36 14.85 L-7.07 14.14 L-7.78 13.44 L-8.49 12.73 L-9.19 13.44 L-9.90 14.14 L-10.61 14.85 L-11.31 15.56 L-12.02 14.85 L-11.31 14.14 L-10.61 13.44 L-9.90 12.73 L-9.19 12.02 L-9.90 11.31 L-10.61 12.02 L-11.31 12.73 L-12.02 13.44 L-12.73 14.14 L-13.44 13.44 L-12.73 12.73 L-12.02 13.44 L-11.31 14.14 L-10.61 14.85 L-9.90 15.56 L-9.19 14.85 L-9.90 14.14 L-10.61 13.44 L-11.31 12.73 L-12.02 12.02 L-11.31 11.31 L-10.61 12.02 L-9.90 12.73 L-9.19 13.44 L-8.49 14.14 L-7.78 13.44 L-7.07 12.73 L-6.36 12.02 L-7.07 11.31 L-7.78 10.61 L-8.49 9.90 L-9.19 9.19 L-8.49 8.49 L-7.78 9.19 L-7.07 9.90 L-6.36 10.61 L-5.66 11.31 L-4.95 10.61 L-5.66 9.90 L-6.36 9.19 L-7.07 8.49 L-7.78 7.78 L-7.07 7.07 L-6.36 7.78 L-7.07 8.49 L-7.78 9.19 L-8.49 9.90 L-9.19 10.61 L-8.49 11.31 L-7.78 10.61 L-7.07 9.90 L-6.36 9.19 L-5.66 8.49 L-4.95 9.19 L-5.66 9.90 L-6.36 10.61 L-7.07 11.31 L-7.78 12.02 L-7.07 12.73 L-6.36 13.44 L-5.66 14.14 L-4.95 13.44 L-4.24 12.73 L-3.54 12.02 L-2.83 11.31 L-2.12 12.02 L-2.83 12.73 L-3.54 13.44 L-4.24 14.14 L-4.95 14.85 L-4.24 15.56 L-3.54 14.85 L-2.83 14.14 L-2.12 13.44 L-1.41 12.73 L-0.71 13.44 L-0.00 14.14 L0.71 14.85 L-0.00 15.56 L-0.71 16.26 L-1.41 16.97 L-2.12 17.68 L-1.41 18.38 L-0.71 17.68 L-0.00 16.97 L0.71 16.26 L1.41 15.56 L2.12 16.26 L1.41 16.97 L0.71 17.68 L-0.00 18.38 L-0.71 19.09 L-0.00 19.80 L0.71 20.51 L1.41 21.21 L2.12 20.51 L2.83 19.80 L3.54 19.09 L4.24 18.38 L4.95 19.09 L4.24 19.80 L3.54 20.51 L2.83 21.21 L2.12 21.92 L2.83 22.63 L3.54 21.92 L4.24 21.21 L4.95 20.51 L5.66 19.80 L6.36 20.51 L5.66 21.21 L4.95 20.51 L4.24 19.80 L3.54 19.09 L2.83 18.38 L2.12 19.09 L2.83 19.80 L3.54 20.51 L4.24 21.21 L4.95 21.92 L4.24 22.63 L3.54 21.92 L2.83 21.21 L2.12 20.51 L1.41 19.80 L0.71 20.51 L-0.00 21.21 L-0.71 21.92 L-0.00 22.63 L0.71 23.33 L1.41 24.04 L2.12 24.75 L1.41 25.46 L0.71 24.75 L-0.00 24.04 L-0.71 23.33 L-1.41 22.63 L-2.12 23.33 L-1.41 24.04 L-0.71 24.75 L-0.00 25.46 L0.71 26.16 L-0.00 26.87 L-0.71 26.16 L-0.00 25.46 L0.71 24.75 L1.41 24.04 L2.12 23.33 L1.41 22.63 L0.71 23.33 L-0.00 24.04 L-0.71 24.75 L-1.41 25.46 L-2.12 24.75 L-1.41 24.04 L-0.71 23.33 L0.00 22.63 L0.71 21.92 L0.00 21.21 L-0.71 20.51 L-1.41 19.80 L-2.12 20.51 L-2.83 21.21 L-3.54 21.92 L-4.24 22.63 L-4.95 21.92 L-4.24 21.21 L-3.54 20.51 L-2.83 19.80 L-2.12 19.09 L-2.83 18.38 L-3.54 19.09 L-4.24 19.80 L-4.95 20.51 L-5.66 21.21 L-6.36 20.51 L-5.66 19.80 L-4.95 20.51 L-4.24 21.21 L-3.54 21.92 L-2.83 22.63 L-2.12 21.92 L-2.83 21.21 L-3.54 20.51 L-4.24 19.80 L-4.95 19.09 L-4.24 18.38 L-3.54 19.09 L-2.83 19.80 L-2.12 20.51 L-1.41 21.21 L-0.71 20.51 L0.00 19.80 L0.71 19.09 L0.00 18.38 L-0.71 17.68 L-1.41 16.97 L-2.12 16.26 L-1.41 15.56 L-0.71 16.26 L0.00 16.97 L0.71 17.68 L1.41 18.38 L2.12 17.68 L1.41 16.97 L0.71 16.26 L0.00 15.56 L-0.71 14.85 L0.00 14.14 L0.71 13.44 L1.41 12.73 L2.12 13.44 L2.83 14.14 L3.54 14.85 L4.24 15.56 L4.95 14.85 L4.24 14.14 L3.54 13.44 L2.83 12.73 L2.12 12.02 L2.83 11.31 L3.54 12.02 L4.24 12.73 L4.95 13.44 L5.66 14.14 L6.36 13.44 L7.07 12.73 L7.78 12.02 L7.07 11.31 L6.36 10.61 L5.66 9.90 L4.95 9.19 L5.66 8.49 L6.36 9.19 L7.07 9.90 L7.78 10.61 L8.49 11.31 L9.19 10.61 L8.49 9.90 L7.78 9.19 L7.07 8.49 L6.36 7.78 L7.07 7.07 L7.78 7.78 L7.07 8.49 L6.36 9.19 L5.66 9.90 L4.95 10.61 L5.66 11.31 L6.36 10.61 L7.07 9.90 L7.78 9.19 L8.49 8.49 L9.19 9.19 L8.49 9.90 L7.78 10.61 L7.07 11.31 L6.36 12.02 L7.07 12.73 L7.78 13.44 L8.49 14.14 L9.19 13.44 L9.90 12.73 L10.61 12.02 L11.31 11.31 L12.02 12.02 L11.31 12.73 L10.61 13.44 L9.90 14.14 L9.19 14.85 L9.90 15.56 L10.61 14.85 L11.31 14.14 L12.02 13.44 L12.73 12.73 L13.44 13.44 L12.73 14.14 L12.02 13.44 L11.31 12.73 L10.61 12.02 L9.90 11.31 L9.19 12.02 L9.90 12.73 L10.61 13.44 L11.31 14.14 L12.02 14.85 L11.31 15.56 L10.61 14.85 L9.90 14.14 L9.19 13.44 L8.49 12.73 L7.78 13.44 L7.07 14.14 L6.36 14.85 L7.07 15.56 L7.78 16.26 L8.49 16.97 L9.19 17.68 L8.49 18.38 L7.78 17.68 L7.07 16.97 L6.36 16.26 L5.66 15.56 L4.95 16.26 L5.66 16.97 L6.36 17.68 L7.07 18.38 L7.78 19.09 L7.07 19.80 L6.36 19.09 L7.07 18.38 L7.78 17.68 L8.49 16.97 L9.19 16.26 L8.49 15.56 L7.78 16.26 L7.07 16.97 L6.36 17.68 L5.66 18.38 L4.95 17.68 L5.66 16.97 L6.36 16.26 L7.07 15.56 L7.78 14.85 L7.07 14.14 L6.36 13.44 L5.66 12.73 L4.95 13.44 L4.24 14.14 L3.54 14.85 L2.83 15.56 L2.12 14.85 L2.83 14.14 L3.54 13.44 L4.24 12.73 L4.95 12.02 L4.24 11.31 L3.54 12.02 L2.83 12.73 L2.12 13.44 L1.41 14.14 L0.71 13.44 L0.00 12.73 L-0.71 12.02 L0.00 11.31 L0.71 10.61 L1.41 9.90 L2.12 9.19 L1.41 8.49 L0.71 9.19 L0.00 9.90 L-0.71 10.61 L-1.41 11.31 L-2.12 10.61 L-1.41 9.90 L-0.71 9.19 L0.00 8.49 L0.71 7.78 L0.00 7.07 L-0.71 6.36 L-1.41 5.66 L-2.12 6.36 L-2.83 7.07 L-3.54 7.78 L-4.24 8.49 L-4.95 7.78 L-4.24 7.07 L-3.54 6.36 L-2.83 5.66 L-2.12 4.95 L-2.83 4.24 L-3.54 4.95 L-4.24 5.66 L-4.95 6.36 L-5.66 7.07 L-6.36 6.36 L-5.66 5.66 L-4.95 6.36 L-4.24 7.07 L-3.54 7.78 L-2.83 8.49 L-2.12 7.78 L-2.83 7.07 L-3.54 6.36 L-4.24 5.66 L-4.95 4.95 L-4.24 4.24 L-3.54 4.95 L-2.83 5.66 L-2.12 6.36 L-1.41 7.07 L-0.71 6.36 L0.00 5.66 L0.71 4.95 L0.00 4.24 L-0.71 3.54 L-1.41 2.83 L-2.12 2.12 L-1.41 1.41 L-0.71 2.12 L0.00 2.83 L0.71 3.54 L1.41 4.24 L2.12 3.54 L1.41 2.83 L0.71 2.12 L0.00 1.41 L-0.71 0.71 L0.00 0.00 "/>
</g>
</svg>

