<svg viewBox="0 0 1000.000000 1527.112183" xmlns="http://www.w3.org/2000/svg" version="1.1">
<!-- SEED 2986157928 -->
<rect width="1000.000000" height="1527.112183" fill="#DDFFAA" fill-opacity="1.000000"/>
<g transform="scale(3.250350,3.405410) translate(174.646332,427.144501) ">
<path stroke="#000000" stroke-opacity="1.000000" stroke-width="1.000000" fill="none" fill-opacity="1" d="M0.00 0.00 L0.00 -54.45 L0.00 -108.90 L0.00 -148.94 L0.00 -188.98 L0.00 -218.42 L0.00 -247.86 L0.00 -269.50 L0.00 -291.15 L0.00 -307.07 L0.00 -322.98 L0.00 -334.69 L0.00 -346.39 L0.00 -354.99 L0.00 -363.60 L0.00 -369.93 L0.00 -376.25 L0.00 -380.91 L0.00 -385.56 L0.00 -388.98 L0.00 -392.40 L0.00 -394.92 L0.00 -397.43 L0.00 -399.28 L0.00 -401.13 L0.00 -402.49 L0.00 -403.85 L0.00 -404.85 L0.00 -405.85 "/>
<path stroke="#000000" stroke-opacity="1.000000" stroke-width="1.000000" fill="none" fill-opacity="1" d="M0.00 -54.45 L-20.82 -75.27 L-41.63 -96.08 L-56.94 -111.39 L-72.25 -126.70 L-83.50 -137.95 L-94.76 -149.21 L-103.03 -157.48 L-111.31 -165.76 L-117.39 -171.84 L-123.48 -177.93 L-127.95 -182.40 L-132.43 -186.88 L-135.72 -190.17 L-139.01 -193.46 L-141.42 -195.88 L-143.84 -198.29 L-145.62 -200.07 L-147.40 -201.85 L-148.71 -203.16 L-150.02 -204.47 L-150.98 -205.43 L-151.94 -206.39 L-152.65 -207.10 L-153.35 -207.80 "/>
<path stroke="#000000" stroke-opacity="1.000000" stroke-width="1.000000" fill="none" fill-opacity="1" d="M-20.82 -75.27 L-36.73 -75.27 L-52.65 -75.27 L-64.35 -75.27 L-76.06 -75.27 L-84.66 -75.27 L-93.27 -75.27 L-99.60 -75.27 L-105.92 -75.27 L-110.58 -75.27 L-115.23 -75.27 L-118.65 -75.27 L-122.07 -75.27 L-124.59 -75.27 L-127.10 -75.27 L-128.95 -75.27 L-130.80 -75.27 L-132.16 -75.27 L-133.52 -75.27 L-134.52 -75.27 L-135.52 -75.27 "/>
<path stroke="#000000" stroke-opacity="1.000000" stroke-width="1.000000" fill="none" fill-opacity="1" d="M-36.73 -75.27 L-42.82 -69.18 L-48.90 -63.10 L-53.38 -58.62 L-57.85 -54.15 L-61.14 -50.86 L-64.43 -47.57 L-66.85 -45.15 L-69.27 -42.73 L-71.05 -40.95 L-72.83 -39.17 L-74.13 -37.87 L-75.44 -36.56 L-76.40 -35.60 L-77.37 -34.64 L-78.07 -33.93 L-78.78 -33.22 "/>
<path stroke="#000000" stroke-opacity="1.000000" stroke-width="1.000000" fill="none" fill-opacity="1" d="M-42.82 -69.18 L-42.82 -64.53 L-42.82 -59.88 L-42.82 -56.46 L-42.82 -53.04 L-42.82 -50.52 L-42.82 -48.00 L-42.82 -46.16 L-42.82 -44.31 L-42.82 -42.95 L-42.82 -41.59 L-42.82 -40.59 L-42.82 -39.59 "/>
<path stroke="#000000" stroke-opacity="1.000000" stroke-width="1.000000" fill="none" fill-opacity="1" d="M-42.82 -64.53 L-41.04 -62.75 L-39.26 -60.97 L-37.95 -59.66 L-36.65 -58.36 L-35.68 -57.40 L-34.72 -56.43 L-34.01 -55.73 L-33.31 -55.02 "/>
<path stroke="#000000" stroke-opacity="1.000000" stroke-width="1.000000" fill="none" fill-opacity="1" d="M-41.04 -62.75 L-39.68 -62.75 L-38.32 -62.75 L-37.32 -62.75 L-36.32 -62.75 "/>
<path stroke="#000000" stroke-opacity="1.000000" stroke-width="1.000000" fill="none" fill-opacity="1" d="M-37.95 -59.66 L-37.95 -58.66 L-37.95 -57.66 "/>
<path stroke="#000000" stroke-opacity="1.000000" stroke-width="1.000000" fill="none" fill-opacity="1" d="M-42.82 -56.46 L-44.13 -55.15 L-45.43 -53.84 L-46.40 -52.88 L-47.36 -51.92 L-48.06 -51.21 L-48.77 -50.50 "/>
<path stroke="#000000" stroke-opacity="1.000000" stroke-width="1.000000" fill="none" fill-opacity="1" d="M-44.13 -55.15 L-45.13 -55.15 L-46.13 -55.15 "/>
<path stroke="#000000" stroke-opacity="1.000000" stroke-width="1.000000" fill="none" fill-opacity="1" d="M-42.82 -50.52 L-41.86 -49.56 L-40.89 -48.60 L-40.19 -47.89 L-39.48 -47.18 "/>
<path stroke="#000000" stroke-opacity="1.000000" stroke-width="1.000000" fill="none" fill-opacity="1" d="M-42.82 -46.16 L-43.53 -45.45 L-44.23 -44.74 "/>
<path stroke="#000000" stroke-opacity="1.000000" stroke-width="1.000000" fill="none" fill-opacity="1" d="M-53.38 -58.62 L-56.80 -58.62 L-60.22 -58.62 L-62.73 -58.62 L-65.25 -58.62 L-67.10 -58.62 L-68.95 -58.62 L-70.31 -58.62 L-71.67 -58.62 L-72.67 -58.62 L-73.67 -58.62 "/>
<path stroke="#000000" stroke-opacity="1.000000" stroke-width="1.000000" fill="none" fill-opacity="1" d="M-56.80 -58.62 L-58.11 -59.93 L-59.41 -61.24 L-60.38 -62.20 L-61.34 -63.16 L-62.04 -63.87 L-62.75 -64.58 "/>
<path stroke="#000000" stroke-opacity="1.000000" stroke-width="1.000000" fill="none" fill-opacity="1" d="M-58.11 -59.93 L-58.11 -60.93 L-58.11 -61.93 "/>
<path stroke="#000000" stroke-opacity="1.000000" stroke-width="1.000000" fill="none" fill-opacity="1" d="M-62.73 -58.62 L-63.70 -57.66 L-64.66 -56.70 L-65.37 -55.99 L-66.07 -55.29 "/>
<path stroke="#000000" stroke-opacity="1.000000" stroke-width="1.000000" fill="none" fill-opacity="1" d="M-67.10 -58.62 L-67.81 -59.33 L-68.51 -60.04 "/>
<path stroke="#000000" stroke-opacity="1.000000" stroke-width="1.000000" fill="none" fill-opacity="1" d="M-61.14 -50.86 L-61.14 -48.34 L-61.14 -45.83 L-61.14 -43.98 L-61.14 -42.13 L-61.14 -40.77 L-61.14 -39.41 L-61.14 -38.41 L-61.14 -37.41 "/>
<path stroke="#000000" stroke-opacity="1.000000" stroke-width="1.000000" fill="none" fill-opacity="1" d="M-61.14 -48.34 L-60.18 -47.38 L-59.22 -46.42 L-58.51 -45.71 L-57.80 -45.01 "/>
<path stroke="#000000" stroke-opacity="1.000000" stroke-width="1.000000" fill="none" fill-opacity="1" d="M-61.14 -43.98 L-61.85 -43.27 L-62.56 -42.56 "/>
<path stroke="#000000" stroke-opacity="1.000000" stroke-width="1.000000" fill="none" fill-opacity="1" d="M-66.85 -45.15 L-68.70 -45.15 L-70.55 -45.15 L-71.91 -45.15 L-73.27 -45.15 L-74.27 -45.15 L-75.27 -45.15 "/>
<path stroke="#000000" stroke-opacity="1.000000" stroke-width="1.000000" fill="none" fill-opacity="1" d="M-68.70 -45.15 L-69.41 -45.86 L-70.11 -46.56 "/>
<path stroke="#000000" stroke-opacity="1.000000" stroke-width="1.000000" fill="none" fill-opacity="1" d="M-71.05 -40.95 L-71.05 -39.59 L-71.05 -38.23 L-71.05 -37.23 L-71.05 -36.23 "/>
<path stroke="#000000" stroke-opacity="1.000000" stroke-width="1.000000" fill="none" fill-opacity="1" d="M-74.13 -37.87 L-75.13 -37.87 L-76.13 -37.87 "/>
<path stroke="#000000" stroke-opacity="1.000000" stroke-width="1.000000" fill="none" fill-opacity="1" d="M-64.35 -75.27 L-68.83 -79.74 L-73.30 -84.22 L-76.59 -87.51 L-79.88 -90.80 L-82.30 -93.21 L-84.72 -95.63 L-86.50 -97.41 L-88.28 -99.19 L-89.58 -100.50 L-90.89 -101.81 L-91.85 -102.77 L-92.82 -103.73 L-93.52 -104.44 L-94.23 -105.14 "/>
<path stroke="#000000" stroke-opacity="1.000000" stroke-width="1.000000" fill="none" fill-opacity="1" d="M-68.83 -79.74 L-68.83 -83.16 L-68.83 -86.58 L-68.83 -89.10 L-68.83 -91.61 L-68.83 -93.46 L-68.83 -95.31 L-68.83 -96.67 L-68.83 -98.03 L-68.83 -99.03 L-68.83 -100.03 "/>
<path stroke="#000000" stroke-opacity="1.000000" stroke-width="1.000000" fill="none" fill-opacity="1" d="M-68.83 -83.16 L-67.52 -84.47 L-66.21 -85.78 L-65.25 -86.74 L-64.29 -87.70 L-63.58 -88.41 L-62.87 -89.12 "/>
<path stroke="#000000" stroke-opacity="1.000000" stroke-width="1.000000" fill="none" fill-opacity="1" d="M-67.52 -84.47 L-66.52 -84.47 L-65.52 -84.47 "/>
<path stroke="#000000" stroke-opacity="1.000000" stroke-width="1.000000" fill="none" fill-opacity="1" d="M-68.83 -89.10 L-69.79 -90.06 L-70.75 -91.02 L-71.46 -91.73 L-72.17 -92.44 "/>
<path stroke="#000000" stroke-opacity="1.000000" stroke-width="1.000000" fill="none" fill-opacity="1" d="M-68.83 -93.46 L-68.12 -94.17 L-67.41 -94.88 "/>
<path stroke="#000000" stroke-opacity="1.000000" stroke-width="1.000000" fill="none" fill-opacity="1" d="M-76.59 -87.51 L-79.11 -87.51 L-81.62 -87.51 L-83.47 -87.51 L-85.32 -87.51 L-86.68 -87.51 L-88.04 -87.51 L-89.04 -87.51 L-90.04 -87.51 "/>
<path stroke="#000000" stroke-opacity="1.000000" stroke-width="1.000000" fill="none" fill-opacity="1" d="M-79.11 -87.51 L-80.07 -86.54 L-81.03 -85.58 L-81.74 -84.88 L-82.44 -84.17 "/>
<path stroke="#000000" stroke-opacity="1.000000" stroke-width="1.000000" fill="none" fill-opacity="1" d="M-83.47 -87.51 L-84.18 -88.21 L-84.89 -88.92 "/>
<path stroke="#000000" stroke-opacity="1.000000" stroke-width="1.000000" fill="none" fill-opacity="1" d="M-82.30 -93.21 L-82.30 -95.06 L-82.30 -96.91 L-82.30 -98.27 L-82.30 -99.63 L-82.30 -100.63 L-82.30 -101.63 "/>
<path stroke="#000000" stroke-opacity="1.000000" stroke-width="1.000000" fill="none" fill-opacity="1" d="M-82.30 -95.06 L-81.59 -95.77 L-80.89 -96.48 "/>
<path stroke="#000000" stroke-opacity="1.000000" stroke-width="1.000000" fill="none" fill-opacity="1" d="M-86.50 -97.41 L-87.86 -97.41 L-89.22 -97.41 L-90.22 -97.41 L-91.22 -97.41 "/>
<path stroke="#000000" stroke-opacity="1.000000" stroke-width="1.000000" fill="none" fill-opacity="1" d="M-89.58 -100.50 L-89.58 -101.50 L-89.58 -102.50 "/>
<path stroke="#000000" stroke-opacity="1.000000" stroke-width="1.000000" fill="none" fill-opacity="1" d="M-84.66 -75.27 L-87.95 -71.98 L-91.24 -68.69 L-93.66 -66.27 L-96.08 -63.85 L-97.86 -62.07 L-99.64 -60.29 L-100.95 -58.98 L-102.25 -57.68 L-103.21 -56.72 L-104.18 -55.75 L-104.88 -55.05 L-105.59 -54.34 "/>
<path stroke="#000000" stroke-opacity="1.000000" stroke-width="1.000000" fill="none" fill-opacity="1" d="M-87.95 -71.98 L-87.95 -69.46 L-87.95 -66.95 L-87.95 -65.10 L-87.95 -63.25 L-87.95 -61.89 L-87.95 -60.53 L-87.95 -59.53 L-87.95 -58.53 "/>
<path stroke="#000000" stroke-opacity="1.000000" stroke-width="1.000000" fill="none" fill-opacity="1" d="M-87.95 -69.46 L-86.99 -68.50 L-86.03 -67.54 L-85.32 -66.83 L-84.61 -66.12 "/>
<path stroke="#000000" stroke-opacity="1.000000" stroke-width="1.000000" fill="none" fill-opacity="1" d="M-87.95 -65.10 L-88.66 -64.39 L-89.37 -63.68 "/>
<path stroke="#000000" stroke-opacity="1.000000" stroke-width="1.000000" fill="none" fill-opacity="1" d="M-93.66 -66.27 L-95.51 -66.27 L-97.36 -66.27 L-98.72 -66.27 L-100.08 -66.27 L-101.08 -66.27 L-102.08 -66.27 "/>
<path stroke="#000000" stroke-opacity="1.000000" stroke-width="1.000000" fill="none" fill-opacity="1" d="M-95.51 -66.27 L-96.22 -66.98 L-96.92 -67.68 "/>
<path stroke="#000000" stroke-opacity="1.000000" stroke-width="1.000000" fill="none" fill-opacity="1" d="M-97.86 -62.07 L-97.86 -60.71 L-97.86 -59.35 L-97.86 -58.35 L-97.86 -57.35 "/>
<path stroke="#000000" stroke-opacity="1.000000" stroke-width="1.000000" fill="none" fill-opacity="1" d="M-100.95 -58.98 L-101.95 -58.98 L-102.95 -58.98 "/>
<path stroke="#000000" stroke-opacity="1.000000" stroke-width="1.000000" fill="none" fill-opacity="1" d="M-99.60 -75.27 L-102.01 -77.69 L-104.43 -80.11 L-106.21 -81.88 L-107.99 -83.66 L-109.30 -84.97 L-110.61 -86.28 L-111.57 -87.24 L-112.53 -88.20 L-113.24 -88.91 L-113.94 -89.62 "/>
<path stroke="#000000" stroke-opacity="1.000000" stroke-width="1.000000" fill="none" fill-opacity="1" d="M-102.01 -77.69 L-102.01 -79.54 L-102.01 -81.39 L-102.01 -82.75 L-102.01 -84.11 L-102.01 -85.11 L-102.01 -86.11 "/>
<path stroke="#000000" stroke-opacity="1.000000" stroke-width="1.000000" fill="none" fill-opacity="1" d="M-102.01 -79.54 L-101.31 -80.24 L-100.60 -80.95 "/>
<path stroke="#000000" stroke-opacity="1.000000" stroke-width="1.000000" fill="none" fill-opacity="1" d="M-106.21 -81.88 L-107.57 -81.88 L-108.93 -81.88 L-109.93 -81.88 L-110.93 -81.88 "/>
<path stroke="#000000" stroke-opacity="1.000000" stroke-width="1.000000" fill="none" fill-opacity="1" d="M-109.30 -84.97 L-109.30 -85.97 L-109.30 -86.97 "/>
<path stroke="#000000" stroke-opacity="1.000000" stroke-width="1.000000" fill="none" fill-opacity="1" d="M-110.58 -75.27 L-112.35 -73.49 L-114.13 -71.71 L-115.44 -70.40 L-116.75 -69.09 L-117.71 -68.13 L-118.67 -67.17 L-119.38 -66.46 L-120.09 -65.76 "/>
<path stroke="#000000" stroke-opacity="1.000000" stroke-width="1.000000" fill="none" fill-opacity="1" d="M-112.35 -73.49 L-112.35 -72.13 L-112.35 -70.77 L-112.35 -69.77 L-112.35 -68.77 "/>
<path stroke="#000000" stroke-opacity="1.000000" stroke-width="1.000000" fill="none" fill-opacity="1" d="M-115.44 -70.40 L-116.44 -70.40 L-117.44 -70.40 "/>
<path stroke="#000000" stroke-opacity="1.000000" stroke-width="1.000000" fill="none" fill-opacity="1" d="M-118.65 -75.27 L-119.96 -76.58 L-121.26 -77.88 L-122.23 -78.85 L-123.19 -79.81 L-123.89 -80.51 L-124.60 -81.22 "/>
<path stroke="#000000" stroke-opacity="1.000000" stroke-width="1.000000" fill="none" fill-opacity="1" d="M-119.96 -76.58 L-119.96 -77.58 L-119.96 -78.58 "/>
<path stroke="#000000" stroke-opacity="1.000000" stroke-width="1.000000" fill="none" fill-opacity="1" d="M-124.59 -75.27 L-125.55 -74.31 L-126.51 -73.34 L-127.22 -72.64 L-127.92 -71.93 "/>
<path stroke="#000000" stroke-opacity="1.000000" stroke-width="1.000000" fill="none" fill-opacity="1" d="M-128.95 -75.27 L-129.66 -75.97 L-130.36 -76.68 "/>
<path stroke="#000000" stroke-opacity="1.000000" stroke-width="1.000000" fill="none" fill-opacity="1" d="M-56.94 -111.39 L-56.94 -123.09 L-56.94 -134.80 L-56.94 -143.40 L-56.94 -152.01 L-56.94 -158.34 L-56.94 -164.66 L-56.94 -169.32 L-56.94 -173.97 L-56.94 -177.39 L-56.94 -180.81 L-56.94 -183.33 L-56.94 -185.84 L-56.94 -187.69 L-56.94 -189.54 L-56.94 -190.90 L-56.94 -192.26 L-56.94 -193.26 L-56.94 -194.26 "/>
<path stroke="#000000" stroke-opacity="1.000000" stroke-width="1.000000" fill="none" fill-opacity="1" d="M-56.94 -123.09 L-52.47 -127.57 L-47.99 -132.04 L-44.70 -135.33 L-41.41 -138.62 L-38.99 -141.04 L-36.57 -143.46 L-34.79 -145.24 L-33.02 -147.02 L-31.71 -148.33 L-30.40 -149.63 L-29.44 -150.60 L-28.48 -151.56 L-27.77 -152.26 L-27.06 -152.97 "/>
<path stroke="#000000" stroke-opacity="1.000000" stroke-width="1.000000" fill="none" fill-opacity="1" d="M-52.47 -127.57 L-49.04 -127.57 L-45.62 -127.57 L-43.11 -127.57 L-40.59 -127.57 L-38.74 -127.57 L-36.89 -127.57 L-35.53 -127.57 L-34.17 -127.57 L-33.17 -127.57 L-32.17 -127.57 "/>
<path stroke="#000000" stroke-opacity="1.000000" stroke-width="1.000000" fill="none" fill-opacity="1" d="M-49.04 -127.57 L-47.74 -126.26 L-46.43 -124.95 L-45.47 -123.99 L-44.51 -123.03 L-43.80 -122.32 L-43.09 -121.62 "/>
<path stroke="#000000" stroke-opacity="1.000000" stroke-width="1.000000" fill="none" fill-opacity="1" d="M-47.74 -126.26 L-47.74 -125.26 L-47.74 -124.26 "/>
<path stroke="#000000" stroke-opacity="1.000000" stroke-width="1.000000" fill="none" fill-opacity="1" d="M-43.11 -127.57 L-42.15 -128.53 L-41.18 -129.49 L-40.48 -130.20 L-39.77 -130.91 "/>
<path stroke="#000000" stroke-opacity="1.000000" stroke-width="1.000000" fill="none" fill-opacity="1" d="M-38.74 -127.57 L-38.04 -126.86 L-37.33 -126.15 "/>
<path stroke="#000000" stroke-opacity="1.000000" stroke-width="1.000000" fill="none" fill-opacity="1" d="M-44.70 -135.33 L-44.70 -137.85 L-44.70 -140.36 L-44.70 -142.21 L-44.70 -144.06 L-44.70 -145.42 L-44.70 -146.78 L-44.70 -147.78 L-44.70 -148.78 "/>
<path stroke="#000000" stroke-opacity="1.000000" stroke-width="1.000000" fill="none" fill-opacity="1" d="M-44.70 -137.85 L-45.66 -138.81 L-46.62 -139.77 L-47.33 -140.48 L-48.04 -141.19 "/>
<path stroke="#000000" stroke-opacity="1.000000" stroke-width="1.000000" fill="none" fill-opacity="1" d="M-44.70 -142.21 L-43.99 -142.92 L-43.29 -143.63 "/>
<path stroke="#000000" stroke-opacity="1.000000" stroke-width="1.000000" fill="none" fill-opacity="1" d="M-38.99 -141.04 L-37.14 -141.04 L-35.29 -141.04 L-33.93 -141.04 L-32.57 -141.04 L-31.57 -141.04 L-30.57 -141.04 "/>
<path stroke="#000000" stroke-opacity="1.000000" stroke-width="1.000000" fill="none" fill-opacity="1" d="M-37.14 -141.04 L-36.44 -140.33 L-35.73 -139.63 "/>
<path stroke="#000000" stroke-opacity="1.000000" stroke-width="1.000000" fill="none" fill-opacity="1" d="M-34.79 -145.24 L-34.79 -146.60 L-34.79 -147.96 L-34.79 -148.96 L-34.79 -149.96 "/>
<path stroke="#000000" stroke-opacity="1.000000" stroke-width="1.000000" fill="none" fill-opacity="1" d="M-31.71 -148.33 L-30.71 -148.33 L-29.71 -148.33 "/>
<path stroke="#000000" stroke-opacity="1.000000" stroke-width="1.000000" fill="none" fill-opacity="1" d="M-56.94 -143.40 L-60.23 -146.69 L-63.52 -149.98 L-65.94 -152.40 L-68.36 -154.82 L-70.14 -156.60 L-71.92 -158.38 L-73.22 -159.69 L-74.53 -160.99 L-75.49 -161.96 L-76.45 -162.92 L-77.16 -163.62 L-77.87 -164.33 "/>
<path stroke="#000000" stroke-opacity="1.000000" stroke-width="1.000000" fill="none" fill-opacity="1" d="M-60.23 -146.69 L-62.75 -146.69 L-65.26 -146.69 L-67.11 -146.69 L-68.96 -146.69 L-70.32 -146.69 L-71.68 -146.69 L-72.68 -146.69 L-73.68 -146.69 "/>
<path stroke="#000000" stroke-opacity="1.000000" stroke-width="1.000000" fill="none" fill-opacity="1" d="M-62.75 -146.69 L-63.71 -145.73 L-64.67 -144.77 L-65.38 -144.06 L-66.08 -143.36 "/>
<path stroke="#000000" stroke-opacity="1.000000" stroke-width="1.000000" fill="none" fill-opacity="1" d="M-67.11 -146.69 L-67.82 -147.40 L-68.52 -148.11 "/>
<path stroke="#000000" stroke-opacity="1.000000" stroke-width="1.000000" fill="none" fill-opacity="1" d="M-65.94 -152.40 L-65.94 -154.25 L-65.94 -156.10 L-65.94 -157.46 L-65.94 -158.82 L-65.94 -159.82 L-65.94 -160.82 "/>
<path stroke="#000000" stroke-opacity="1.000000" stroke-width="1.000000" fill="none" fill-opacity="1" d="M-65.94 -154.25 L-65.23 -154.96 L-64.52 -155.67 "/>
<path stroke="#000000" stroke-opacity="1.000000" stroke-width="1.000000" fill="none" fill-opacity="1" d="M-70.14 -156.60 L-71.50 -156.60 L-72.86 -156.60 L-73.86 -156.60 L-74.86 -156.60 "/>
<path stroke="#000000" stroke-opacity="1.000000" stroke-width="1.000000" fill="none" fill-opacity="1" d="M-73.22 -159.69 L-73.22 -160.69 L-73.22 -161.69 "/>
<path stroke="#000000" stroke-opacity="1.000000" stroke-width="1.000000" fill="none" fill-opacity="1" d="M-56.94 -158.34 L-54.52 -160.76 L-52.10 -163.17 L-50.32 -164.95 L-48.54 -166.73 L-47.24 -168.04 L-45.93 -169.35 L-44.97 -170.31 L-44.01 -171.27 L-43.30 -171.98 L-42.59 -172.68 "/>
<path stroke="#000000" stroke-opacity="1.000000" stroke-width="1.000000" fill="none" fill-opacity="1" d="M-54.52 -160.76 L-52.67 -160.76 L-50.82 -160.76 L-49.46 -160.76 L-48.10 -160.76 L-47.10 -160.76 L-46.10 -160.76 "/>
<path stroke="#000000" stroke-opacity="1.000000" stroke-width="1.000000" fill="none" fill-opacity="1" d="M-52.67 -160.76 L-51.96 -160.05 L-51.26 -159.34 "/>
<path stroke="#000000" stroke-opacity="1.000000" stroke-width="1.000000" fill="none" fill-opacity="1" d="M-50.32 -164.95 L-50.32 -166.31 L-50.32 -167.67 L-50.32 -168.67 L-50.32 -169.67 "/>
<path stroke="#000000" stroke-opacity="1.000000" stroke-width="1.000000" fill="none" fill-opacity="1" d="M-47.24 -168.04 L-46.24 -168.04 L-45.24 -168.04 "/>
<path stroke="#000000" stroke-opacity="1.000000" stroke-width="1.000000" fill="none" fill-opacity="1" d="M-56.94 -169.32 L-58.72 -171.09 L-60.50 -172.87 L-61.81 -174.18 L-63.11 -175.49 L-64.07 -176.45 L-65.04 -177.41 L-65.74 -178.12 L-66.45 -178.83 "/>
<path stroke="#000000" stroke-opacity="1.000000" stroke-width="1.000000" fill="none" fill-opacity="1" d="M-58.72 -171.09 L-60.08 -171.09 L-61.44 -171.09 L-62.44 -171.09 L-63.44 -171.09 "/>
<path stroke="#000000" stroke-opacity="1.000000" stroke-width="1.000000" fill="none" fill-opacity="1" d="M-61.81 -174.18 L-61.81 -175.18 L-61.81 -176.18 "/>
<path stroke="#000000" stroke-opacity="1.000000" stroke-width="1.000000" fill="none" fill-opacity="1" d="M-56.94 -177.39 L-55.63 -178.70 L-54.32 -180.01 L-53.36 -180.97 L-52.40 -181.93 L-51.69 -182.64 L-50.99 -183.34 "/>
<path stroke="#000000" stroke-opacity="1.000000" stroke-width="1.000000" fill="none" fill-opacity="1" d="M-55.63 -178.70 L-54.63 -178.70 L-53.63 -178.70 "/>
<path stroke="#000000" stroke-opacity="1.000000" stroke-width="1.000000" fill="none" fill-opacity="1" d="M-56.94 -183.33 L-57.90 -184.29 L-58.86 -185.25 L-59.57 -185.96 L-60.28 -186.66 "/>
<path stroke="#000000" stroke-opacity="1.000000" stroke-width="1.000000" fill="none" fill-opacity="1" d="M-56.94 -187.69 L-56.23 -188.40 L-55.53 -189.11 "/>
<path stroke="#000000" stroke-opacity="1.000000" stroke-width="1.000000" fill="none" fill-opacity="1" d="M-83.50 -137.95 L-92.11 -137.95 L-100.71 -137.95 L-107.04 -137.95 L-113.37 -137.95 L-118.02 -137.95 L-122.67 -137.95 L-126.09 -137.95 L-129.51 -137.95 L-132.03 -137.95 L-134.55 -137.95 L-136.39 -137.95 L-138.24 -137.95 L-139.60 -137.95 L-140.96 -137.95 L-141.96 -137.95 L-142.96 -137.95 "/>
<path stroke="#000000" stroke-opacity="1.000000" stroke-width="1.000000" fill="none" fill-opacity="1" d="M-92.11 -137.95 L-95.40 -134.66 L-98.69 -131.37 L-101.11 -128.95 L-103.52 -126.53 L-105.30 -124.76 L-107.08 -122.98 L-108.39 -121.67 L-109.70 -120.36 L-110.66 -119.40 L-111.62 -118.44 L-112.33 -117.73 L-113.03 -117.02 "/>
<path stroke="#000000" stroke-opacity="1.000000" stroke-width="1.000000" fill="none" fill-opacity="1" d="M-95.40 -134.66 L-95.40 -132.15 L-95.40 -129.63 L-95.40 -127.78 L-95.40 -125.93 L-95.40 -124.57 L-95.40 -123.21 L-95.40 -122.21 L-95.40 -121.21 "/>
<path stroke="#000000" stroke-opacity="1.000000" stroke-width="1.000000" fill="none" fill-opacity="1" d="M-95.40 -132.15 L-94.43 -131.19 L-93.47 -130.22 L-92.77 -129.52 L-92.06 -128.81 "/>
<path stroke="#000000" stroke-opacity="1.000000" stroke-width="1.000000" fill="none" fill-opacity="1" d="M-95.40 -127.78 L-96.10 -127.07 L-96.81 -126.37 "/>
<path stroke="#000000" stroke-opacity="1.000000" stroke-width="1.000000" fill="none" fill-opacity="1" d="M-101.11 -128.95 L-102.95 -128.95 L-104.80 -128.95 L-106.16 -128.95 L-107.52 -128.95 L-108.52 -128.95 L-109.52 -128.95 "/>
<path stroke="#000000" stroke-opacity="1.000000" stroke-width="1.000000" fill="none" fill-opacity="1" d="M-102.95 -128.95 L-103.66 -129.66 L-104.37 -130.37 "/>
<path stroke="#000000" stroke-opacity="1.000000" stroke-width="1.000000" fill="none" fill-opacity="1" d="M-105.30 -124.76 L-105.30 -123.40 L-105.30 -122.04 L-105.30 -121.04 L-105.30 -120.04 "/>
<path stroke="#000000" stroke-opacity="1.000000" stroke-width="1.000000" fill="none" fill-opacity="1" d="M-108.39 -121.67 L-109.39 -121.67 L-110.39 -121.67 "/>
<path stroke="#000000" stroke-opacity="1.000000" stroke-width="1.000000" fill="none" fill-opacity="1" d="M-107.04 -137.95 L-109.46 -140.37 L-111.88 -142.79 L-113.66 -144.57 L-115.43 -146.35 L-116.74 -147.66 L-118.05 -148.96 L-119.01 -149.92 L-119.97 -150.89 L-120.68 -151.59 L-121.39 -152.30 "/>
<path stroke="#000000" stroke-opacity="1.000000" stroke-width="1.000000" fill="none" fill-opacity="1" d="M-109.46 -140.37 L-109.46 -142.22 L-109.46 -144.07 L-109.46 -145.43 L-109.46 -146.79 L-109.46 -147.79 L-109.46 -148.79 "/>
<path stroke="#000000" stroke-opacity="1.000000" stroke-width="1.000000" fill="none" fill-opacity="1" d="M-109.46 -142.22 L-108.75 -142.93 L-108.04 -143.63 "/>
<path stroke="#000000" stroke-opacity="1.000000" stroke-width="1.000000" fill="none" fill-opacity="1" d="M-113.66 -144.57 L-115.02 -144.57 L-116.38 -144.57 L-117.38 -144.57 L-118.38 -144.57 "/>
<path stroke="#000000" stroke-opacity="1.000000" stroke-width="1.000000" fill="none" fill-opacity="1" d="M-116.74 -147.66 L-116.74 -148.66 L-116.74 -149.66 "/>
<path stroke="#000000" stroke-opacity="1.000000" stroke-width="1.000000" fill="none" fill-opacity="1" d="M-118.02 -137.95 L-119.80 -136.17 L-121.58 -134.39 L-122.88 -133.09 L-124.19 -131.78 L-125.15 -130.82 L-126.12 -129.86 L-126.82 -129.15 L-127.53 -128.44 "/>
<path stroke="#000000" stroke-opacity="1.000000" stroke-width="1.000000" fill="none" fill-opacity="1" d="M-119.80 -136.17 L-119.80 -134.81 L-119.80 -133.45 L-119.80 -132.45 L-119.80 -131.45 "/>
<path stroke="#000000" stroke-opacity="1.000000" stroke-width="1.000000" fill="none" fill-opacity="1" d="M-122.88 -133.09 L-123.88 -133.09 L-124.88 -133.09 "/>
<path stroke="#000000" stroke-opacity="1.000000" stroke-width="1.000000" fill="none" fill-opacity="1" d="M-126.09 -137.95 L-127.40 -139.26 L-128.71 -140.57 L-129.67 -141.53 L-130.63 -142.49 L-131.34 -143.20 L-132.05 -143.91 "/>
<path stroke="#000000" stroke-opacity="1.000000" stroke-width="1.000000" fill="none" fill-opacity="1" d="M-127.40 -139.26 L-127.40 -140.26 L-127.40 -141.26 "/>
<path stroke="#000000" stroke-opacity="1.000000" stroke-width="1.000000" fill="none" fill-opacity="1" d="M-132.03 -137.95 L-132.99 -136.99 L-133.95 -136.03 L-134.66 -135.32 L-135.37 -134.61 "/>
<path stroke="#000000" stroke-opacity="1.000000" stroke-width="1.000000" fill="none" fill-opacity="1" d="M-136.39 -137.95 L-137.10 -138.66 L-137.81 -139.37 "/>
<path stroke="#000000" stroke-opacity="1.000000" stroke-width="1.000000" fill="none" fill-opacity="1" d="M-103.03 -157.48 L-103.03 -163.81 L-103.03 -170.14 L-103.03 -174.79 L-103.03 -179.44 L-103.03 -182.86 L-103.03 -186.28 L-103.03 -188.80 L-103.03 -191.32 L-103.03 -193.17 L-103.03 -195.01 L-103.03 -196.37 L-103.03 -197.73 L-103.03 -198.73 L-103.03 -199.73 "/>
<path stroke="#000000" stroke-opacity="1.000000" stroke-width="1.000000" fill="none" fill-opacity="1" d="M-103.03 -163.81 L-100.61 -166.23 L-98.19 -168.65 L-96.41 -170.43 L-94.64 -172.21 L-93.33 -173.51 L-92.02 -174.82 L-91.06 -175.78 L-90.10 -176.74 L-89.39 -177.45 L-88.68 -178.16 "/>
<path stroke="#000000" stroke-opacity="1.000000" stroke-width="1.000000" fill="none" fill-opacity="1" d="M-100.61 -166.23 L-98.76 -166.23 L-96.91 -166.23 L-95.55 -166.23 L-94.19 -166.23 L-93.19 -166.23 L-92.19 -166.23 "/>
<path stroke="#000000" stroke-opacity="1.000000" stroke-width="1.000000" fill="none" fill-opacity="1" d="M-98.76 -166.23 L-98.06 -165.52 L-97.35 -164.81 "/>
<path stroke="#000000" stroke-opacity="1.000000" stroke-width="1.000000" fill="none" fill-opacity="1" d="M-96.41 -170.43 L-96.41 -171.79 L-96.41 -173.15 L-96.41 -174.15 L-96.41 -175.15 "/>
<path stroke="#000000" stroke-opacity="1.000000" stroke-width="1.000000" fill="none" fill-opacity="1" d="M-93.33 -173.51 L-92.33 -173.51 L-91.33 -173.51 "/>
<path stroke="#000000" stroke-opacity="1.000000" stroke-width="1.000000" fill="none" fill-opacity="1" d="M-103.03 -174.79 L-104.81 -176.57 L-106.59 -178.35 L-107.90 -179.66 L-109.20 -180.96 L-110.17 -181.92 L-111.13 -182.89 L-111.83 -183.59 L-112.54 -184.30 "/>
<path stroke="#000000" stroke-opacity="1.000000" stroke-width="1.000000" fill="none" fill-opacity="1" d="M-104.81 -176.57 L-106.17 -176.57 L-107.53 -176.57 L-108.53 -176.57 L-109.53 -176.57 "/>
<path stroke="#000000" stroke-opacity="1.000000" stroke-width="1.000000" fill="none" fill-opacity="1" d="M-107.90 -179.66 L-107.90 -180.66 L-107.90 -181.66 "/>
<path stroke="#000000" stroke-opacity="1.000000" stroke-width="1.000000" fill="none" fill-opacity="1" d="M-103.03 -182.86 L-101.72 -184.17 L-100.42 -185.48 L-99.45 -186.44 L-98.49 -187.40 L-97.79 -188.11 L-97.08 -188.82 "/>
<path stroke="#000000" stroke-opacity="1.000000" stroke-width="1.000000" fill="none" fill-opacity="1" d="M-101.72 -184.17 L-100.72 -184.17 L-99.72 -184.17 "/>
<path stroke="#000000" stroke-opacity="1.000000" stroke-width="1.000000" fill="none" fill-opacity="1" d="M-103.03 -188.80 L-103.99 -189.76 L-104.95 -190.72 L-105.66 -191.43 L-106.37 -192.14 "/>
<path stroke="#000000" stroke-opacity="1.000000" stroke-width="1.000000" fill="none" fill-opacity="1" d="M-103.03 -193.17 L-102.32 -193.87 L-101.62 -194.58 "/>
<path stroke="#000000" stroke-opacity="1.000000" stroke-width="1.000000" fill="none" fill-opacity="1" d="M-117.39 -171.84 L-122.04 -171.84 L-126.70 -171.84 L-130.12 -171.84 L-133.54 -171.84 L-136.05 -171.84 L-138.57 -171.84 L-140.42 -171.84 L-142.27 -171.84 L-143.63 -171.84 L-144.99 -171.84 L-145.99 -171.84 L-146.99 -171.84 "/>
<path stroke="#000000" stroke-opacity="1.000000" stroke-width="1.000000" fill="none" fill-opacity="1" d="M-122.04 -171.84 L-123.82 -170.06 L-125.60 -168.29 L-126.91 -166.98 L-128.22 -165.67 L-129.18 -164.71 L-130.14 -163.75 L-130.85 -163.04 L-131.56 -162.33 "/>
<path stroke="#000000" stroke-opacity="1.000000" stroke-width="1.000000" fill="none" fill-opacity="1" d="M-123.82 -170.06 L-123.82 -168.70 L-123.82 -167.34 L-123.82 -166.34 L-123.82 -165.34 "/>
<path stroke="#000000" stroke-opacity="1.000000" stroke-width="1.000000" fill="none" fill-opacity="1" d="M-126.91 -166.98 L-127.91 -166.98 L-128.91 -166.98 "/>
<path stroke="#000000" stroke-opacity="1.000000" stroke-width="1.000000" fill="none" fill-opacity="1" d="M-130.12 -171.84 L-131.43 -173.15 L-132.73 -174.46 L-133.70 -175.42 L-134.66 -176.38 L-135.36 -177.09 L-136.07 -177.80 "/>
<path stroke="#000000" stroke-opacity="1.000000" stroke-width="1.000000" fill="none" fill-opacity="1" d="M-131.43 -173.15 L-131.43 -174.15 L-131.43 -175.15 "/>
<path stroke="#000000" stroke-opacity="1.000000" stroke-width="1.000000" fill="none" fill-opacity="1" d="M-136.05 -171.84 L-137.02 -170.88 L-137.98 -169.92 L-138.68 -169.21 L-139.39 -168.51 "/>
<path stroke="#000000" stroke-opacity="1.000000" stroke-width="1.000000" fill="none" fill-opacity="1" d="M-140.42 -171.84 L-141.13 -172.55 L-141.83 -173.26 "/>
<path stroke="#000000" stroke-opacity="1.000000" stroke-width="1.000000" fill="none" fill-opacity="1" d="M-127.95 -182.40 L-127.95 -185.82 L-127.95 -189.24 L-127.95 -191.76 L-127.95 -194.28 L-127.95 -196.12 L-127.95 -197.97 L-127.95 -199.33 L-127.95 -200.69 L-127.95 -201.69 L-127.95 -202.69 "/>
<path stroke="#000000" stroke-opacity="1.000000" stroke-width="1.000000" fill="none" fill-opacity="1" d="M-127.95 -185.82 L-126.64 -187.13 L-125.34 -188.44 L-124.37 -189.40 L-123.41 -190.36 L-122.70 -191.07 L-122.00 -191.78 "/>
<path stroke="#000000" stroke-opacity="1.000000" stroke-width="1.000000" fill="none" fill-opacity="1" d="M-126.64 -187.13 L-125.64 -187.13 L-124.64 -187.13 "/>
<path stroke="#000000" stroke-opacity="1.000000" stroke-width="1.000000" fill="none" fill-opacity="1" d="M-127.95 -191.76 L-128.91 -192.72 L-129.87 -193.68 L-130.58 -194.39 L-131.29 -195.10 "/>
<path stroke="#000000" stroke-opacity="1.000000" stroke-width="1.000000" fill="none" fill-opacity="1" d="M-127.95 -196.12 L-127.24 -196.83 L-126.54 -197.54 "/>
<path stroke="#000000" stroke-opacity="1.000000" stroke-width="1.000000" fill="none" fill-opacity="1" d="M-135.72 -190.17 L-138.23 -190.17 L-140.75 -190.17 L-142.60 -190.17 L-144.45 -190.17 L-145.81 -190.17 L-147.17 -190.17 L-148.17 -190.17 L-149.17 -190.17 "/>
<path stroke="#000000" stroke-opacity="1.000000" stroke-width="1.000000" fill="none" fill-opacity="1" d="M-138.23 -190.17 L-139.19 -189.20 L-140.15 -188.24 L-140.86 -187.54 L-141.57 -186.83 "/>
<path stroke="#000000" stroke-opacity="1.000000" stroke-width="1.000000" fill="none" fill-opacity="1" d="M-142.60 -190.17 L-143.30 -190.87 L-144.01 -191.58 "/>
<path stroke="#000000" stroke-opacity="1.000000" stroke-width="1.000000" fill="none" fill-opacity="1" d="M-141.42 -195.88 L-141.42 -197.72 L-141.42 -199.57 L-141.42 -200.93 L-141.42 -202.29 L-141.42 -203.29 L-141.42 -204.29 "/>
<path stroke="#000000" stroke-opacity="1.000000" stroke-width="1.000000" fill="none" fill-opacity="1" d="M-141.42 -197.72 L-140.72 -198.43 L-140.01 -199.14 "/>
<path stroke="#000000" stroke-opacity="1.000000" stroke-width="1.000000" fill="none" fill-opacity="1" d="M-145.62 -200.07 L-146.98 -200.07 L-148.34 -200.07 L-149.34 -200.07 L-150.34 -200.07 "/>
<path stroke="#000000" stroke-opacity="1.000000" stroke-width="1.000000" fill="none" fill-opacity="1" d="M-148.71 -203.16 L-148.71 -204.16 L-148.71 -205.16 "/>
<path stroke="#000000" stroke-opacity="1.000000" stroke-width="1.000000" fill="none" fill-opacity="1" d="M0.00 -148.94 L15.31 -164.25 L30.61 -179.55 L41.87 -190.81 L53.12 -202.06 L61.40 -210.34 L69.67 -218.61 L75.76 -224.70 L81.84 -230.78 L86.32 -235.26 L90.79 -239.73 L94.08 -243.02 L97.37 -246.31 L99.79 -248.73 L102.21 -251.15 L103.99 -252.93 L105.77 -254.71 L107.07 -256.01 L108.38 -257.32 L109.34 -258.28 L110.31 -259.25 L111.01 -259.95 L111.72 -260.66 "/>
<path stroke="#000000" stroke-opacity="1.000000" stroke-width="1.000000" fill="none" fill-opacity="1" d="M15.31 -164.25 L27.01 -164.25 L38.71 -164.25 L47.32 -164.25 L55.92 -164.25 L62.25 -164.25 L68.58 -164.25 L73.23 -164.25 L77.88 -164.25 L81.31 -164.25 L84.73 -164.25 L87.24 -164.25 L89.76 -164.25 L91.61 -164.25 L93.46 -164.25 L94.82 -164.25 L96.18 -164.25 L97.18 -164.25 L98.18 -164.25 "/>
<path stroke="#000000" stroke-opacity="1.000000" stroke-width="1.000000" fill="none" fill-opacity="1" d="M27.01 -164.25 L31.48 -159.77 L35.96 -155.30 L39.25 -152.01 L42.54 -148.72 L44.96 -146.30 L47.38 -143.88 L49.15 -142.10 L50.93 -140.32 L52.24 -139.01 L53.55 -137.71 L54.51 -136.74 L55.47 -135.78 L56.18 -135.08 L56.89 -134.37 "/>
<path stroke="#000000" stroke-opacity="1.000000" stroke-width="1.000000" fill="none" fill-opacity="1" d="M31.48 -159.77 L31.48 -156.35 L31.48 -152.93 L31.48 -150.41 L31.48 -147.90 L31.48 -146.05 L31.48 -144.20 L31.48 -142.84 L31.48 -141.48 L31.48 -140.48 L31.48 -139.48 "/>
<path stroke="#000000" stroke-opacity="1.000000" stroke-width="1.000000" fill="none" fill-opacity="1" d="M31.48 -156.35 L30.18 -155.04 L28.87 -153.73 L27.91 -152.77 L26.94 -151.81 L26.24 -151.10 L25.53 -150.40 "/>
<path stroke="#000000" stroke-opacity="1.000000" stroke-width="1.000000" fill="none" fill-opacity="1" d="M30.18 -155.04 L29.18 -155.04 L28.18 -155.04 "/>
<path stroke="#000000" stroke-opacity="1.000000" stroke-width="1.000000" fill="none" fill-opacity="1" d="M31.48 -150.41 L32.45 -149.45 L33.41 -148.49 L34.11 -147.78 L34.82 -147.08 "/>
<path stroke="#000000" stroke-opacity="1.000000" stroke-width="1.000000" fill="none" fill-opacity="1" d="M31.48 -146.05 L30.78 -145.34 L30.07 -144.63 "/>
<path stroke="#000000" stroke-opacity="1.000000" stroke-width="1.000000" fill="none" fill-opacity="1" d="M39.25 -152.01 L41.76 -152.01 L44.28 -152.01 L46.13 -152.01 L47.98 -152.01 L49.34 -152.01 L50.70 -152.01 L51.70 -152.01 L52.70 -152.01 "/>
<path stroke="#000000" stroke-opacity="1.000000" stroke-width="1.000000" fill="none" fill-opacity="1" d="M41.76 -152.01 L42.73 -152.97 L43.69 -153.93 L44.39 -154.64 L45.10 -155.35 "/>
<path stroke="#000000" stroke-opacity="1.000000" stroke-width="1.000000" fill="none" fill-opacity="1" d="M46.13 -152.01 L46.84 -151.30 L47.54 -150.59 "/>
<path stroke="#000000" stroke-opacity="1.000000" stroke-width="1.000000" fill="none" fill-opacity="1" d="M44.96 -146.30 L44.96 -144.45 L44.96 -142.60 L44.96 -141.24 L44.96 -139.88 L44.96 -138.88 L44.96 -137.88 "/>
<path stroke="#000000" stroke-opacity="1.000000" stroke-width="1.000000" fill="none" fill-opacity="1" d="M44.96 -144.45 L44.25 -143.74 L43.54 -143.03 "/>
<path stroke="#000000" stroke-opacity="1.000000" stroke-width="1.000000" fill="none" fill-opacity="1" d="M49.15 -142.10 L50.51 -142.10 L51.87 -142.10 L52.87 -142.10 L53.87 -142.10 "/>
<path stroke="#000000" stroke-opacity="1.000000" stroke-width="1.000000" fill="none" fill-opacity="1" d="M52.24 -139.01 L52.24 -138.01 L52.24 -137.01 "/>
<path stroke="#000000" stroke-opacity="1.000000" stroke-width="1.000000" fill="none" fill-opacity="1" d="M47.32 -164.25 L50.61 -167.54 L53.90 -170.83 L56.32 -173.24 L58.74 -175.66 L60.52 -177.44 L62.29 -179.22 L63.60 -180.53 L64.91 -181.84 L65.87 -182.80 L66.83 -183.76 L67.54 -184.47 L68.25 -185.17 "/>
<path stroke="#000000" stroke-opacity="1.000000" stroke-width="1.000000" fill="none" fill-opacity="1" d="M50.61 -167.54 L50.61 -170.05 L50.61 -172.57 L50.61 -174.42 L50.61 -176.27 L50.61 -177.63 L50.61 -178.99 L50.61 -179.99 L50.61 -180.99 "/>
<path stroke="#000000" stroke-opacity="1.000000" stroke-width="1.000000" fill="none" fill-opacity="1" d="M50.61 -170.05 L49.65 -171.01 L48.69 -171.97 L47.98 -172.68 L47.27 -173.39 "/>
<path stroke="#000000" stroke-opacity="1.000000" stroke-width="1.000000" fill="none" fill-opacity="1" d="M50.61 -174.42 L51.32 -175.12 L52.02 -175.83 "/>
<path stroke="#000000" stroke-opacity="1.000000" stroke-width="1.000000" fill="none" fill-opacity="1" d="M56.32 -173.24 L58.17 -173.24 L60.02 -173.24 L61.38 -173.24 L62.74 -173.24 L63.74 -173.24 L64.74 -173.24 "/>
<path stroke="#000000" stroke-opacity="1.000000" stroke-width="1.000000" fill="none" fill-opacity="1" d="M58.17 -173.24 L58.87 -172.54 L59.58 -171.83 "/>
<path stroke="#000000" stroke-opacity="1.000000" stroke-width="1.000000" fill="none" fill-opacity="1" d="M60.52 -177.44 L60.52 -178.80 L60.52 -180.16 L60.52 -181.16 L60.52 -182.16 "/>
<path stroke="#000000" stroke-opacity="1.000000" stroke-width="1.000000" fill="none" fill-opacity="1" d="M63.60 -180.53 L64.60 -180.53 L65.60 -180.53 "/>
<path stroke="#000000" stroke-opacity="1.000000" stroke-width="1.000000" fill="none" fill-opacity="1" d="M62.25 -164.25 L64.67 -161.83 L67.09 -159.41 L68.87 -157.63 L70.65 -155.85 L71.95 -154.54 L73.26 -153.23 L74.22 -152.27 L75.19 -151.31 L75.89 -150.60 L76.60 -149.90 "/>
<path stroke="#000000" stroke-opacity="1.000000" stroke-width="1.000000" fill="none" fill-opacity="1" d="M64.67 -161.83 L64.67 -159.98 L64.67 -158.13 L64.67 -156.77 L64.67 -155.41 L64.67 -154.41 L64.67 -153.41 "/>
<path stroke="#000000" stroke-opacity="1.000000" stroke-width="1.000000" fill="none" fill-opacity="1" d="M64.67 -159.98 L63.96 -159.27 L63.26 -158.56 "/>
<path stroke="#000000" stroke-opacity="1.000000" stroke-width="1.000000" fill="none" fill-opacity="1" d="M68.87 -157.63 L70.23 -157.63 L71.59 -157.63 L72.59 -157.63 L73.59 -157.63 "/>
<path stroke="#000000" stroke-opacity="1.000000" stroke-width="1.000000" fill="none" fill-opacity="1" d="M71.95 -154.54 L71.95 -153.54 L71.95 -152.54 "/>
<path stroke="#000000" stroke-opacity="1.000000" stroke-width="1.000000" fill="none" fill-opacity="1" d="M73.23 -164.25 L75.01 -166.02 L76.79 -167.80 L78.10 -169.11 L79.40 -170.42 L80.37 -171.38 L81.33 -172.34 L82.04 -173.05 L82.74 -173.76 "/>
<path stroke="#000000" stroke-opacity="1.000000" stroke-width="1.000000" fill="none" fill-opacity="1" d="M75.01 -166.02 L75.01 -167.38 L75.01 -168.74 L75.01 -169.74 L75.01 -170.74 "/>
<path stroke="#000000" stroke-opacity="1.000000" stroke-width="1.000000" fill="none" fill-opacity="1" d="M78.10 -169.11 L79.10 -169.11 L80.10 -169.11 "/>
<path stroke="#000000" stroke-opacity="1.000000" stroke-width="1.000000" fill="none" fill-opacity="1" d="M81.31 -164.25 L82.61 -162.94 L83.92 -161.63 L84.88 -160.67 L85.84 -159.71 L86.55 -159.00 L87.26 -158.29 "/>
<path stroke="#000000" stroke-opacity="1.000000" stroke-width="1.000000" fill="none" fill-opacity="1" d="M82.61 -162.94 L82.61 -161.94 L82.61 -160.94 "/>
<path stroke="#000000" stroke-opacity="1.000000" stroke-width="1.000000" fill="none" fill-opacity="1" d="M87.24 -164.25 L88.20 -165.21 L89.17 -166.17 L89.87 -166.88 L90.58 -167.58 "/>
<path stroke="#000000" stroke-opacity="1.000000" stroke-width="1.000000" fill="none" fill-opacity="1" d="M91.61 -164.25 L92.31 -163.54 L93.02 -162.83 "/>
<path stroke="#000000" stroke-opacity="1.000000" stroke-width="1.000000" fill="none" fill-opacity="1" d="M41.87 -190.81 L41.87 -199.41 L41.87 -208.02 L41.87 -214.35 L41.87 -220.67 L41.87 -225.33 L41.87 -229.98 L41.87 -233.40 L41.87 -236.82 L41.87 -239.34 L41.87 -241.85 L41.87 -243.70 L41.87 -245.55 L41.87 -246.91 L41.87 -248.27 L41.87 -249.27 L41.87 -250.27 "/>
<path stroke="#000000" stroke-opacity="1.000000" stroke-width="1.000000" fill="none" fill-opacity="1" d="M41.87 -199.41 L38.58 -202.70 L35.29 -205.99 L32.87 -208.41 L30.45 -210.83 L28.67 -212.61 L26.89 -214.39 L25.58 -215.70 L24.28 -217.00 L23.32 -217.97 L22.35 -218.93 L21.65 -219.63 L20.94 -220.34 "/>
<path stroke="#000000" stroke-opacity="1.000000" stroke-width="1.000000" fill="none" fill-opacity="1" d="M38.58 -202.70 L36.06 -202.70 L33.55 -202.70 L31.70 -202.70 L29.85 -202.70 L28.49 -202.70 L27.13 -202.70 L26.13 -202.70 L25.13 -202.70 "/>
<path stroke="#000000" stroke-opacity="1.000000" stroke-width="1.000000" fill="none" fill-opacity="1" d="M36.06 -202.70 L35.10 -201.74 L34.14 -200.78 L33.43 -200.07 L32.72 -199.36 "/>
<path stroke="#000000" stroke-opacity="1.000000" stroke-width="1.000000" fill="none" fill-opacity="1" d="M31.70 -202.70 L30.99 -203.41 L30.28 -204.12 "/>
<path stroke="#000000" stroke-opacity="1.000000" stroke-width="1.000000" fill="none" fill-opacity="1" d="M32.87 -208.41 L32.87 -210.26 L32.87 -212.11 L32.87 -213.47 L32.87 -214.83 L32.87 -215.83 L32.87 -216.83 "/>
<path stroke="#000000" stroke-opacity="1.000000" stroke-width="1.000000" fill="none" fill-opacity="1" d="M32.87 -210.26 L33.58 -210.97 L34.28 -211.68 "/>
<path stroke="#000000" stroke-opacity="1.000000" stroke-width="1.000000" fill="none" fill-opacity="1" d="M28.67 -212.61 L27.31 -212.61 L25.95 -212.61 L24.95 -212.61 L23.95 -212.61 "/>
<path stroke="#000000" stroke-opacity="1.000000" stroke-width="1.000000" fill="none" fill-opacity="1" d="M25.58 -215.70 L25.58 -216.70 L25.58 -217.70 "/>
<path stroke="#000000" stroke-opacity="1.000000" stroke-width="1.000000" fill="none" fill-opacity="1" d="M41.87 -214.35 L44.29 -216.76 L46.71 -219.18 L48.48 -220.96 L50.26 -222.74 L51.57 -224.05 L52.88 -225.36 L53.84 -226.32 L54.80 -227.28 L55.51 -227.99 L56.22 -228.69 "/>
<path stroke="#000000" stroke-opacity="1.000000" stroke-width="1.000000" fill="none" fill-opacity="1" d="M44.29 -216.76 L46.14 -216.76 L47.99 -216.76 L49.35 -216.76 L50.71 -216.76 L51.71 -216.76 L52.71 -216.76 "/>
<path stroke="#000000" stroke-opacity="1.000000" stroke-width="1.000000" fill="none" fill-opacity="1" d="M46.14 -216.76 L46.84 -216.06 L47.55 -215.35 "/>
<path stroke="#000000" stroke-opacity="1.000000" stroke-width="1.000000" fill="none" fill-opacity="1" d="M48.48 -220.96 L48.48 -222.32 L48.48 -223.68 L48.48 -224.68 L48.48 -225.68 "/>
<path stroke="#000000" stroke-opacity="1.000000" stroke-width="1.000000" fill="none" fill-opacity="1" d="M51.57 -224.05 L52.57 -224.05 L53.57 -224.05 "/>
<path stroke="#000000" stroke-opacity="1.000000" stroke-width="1.000000" fill="none" fill-opacity="1" d="M41.87 -225.33 L40.09 -227.10 L38.31 -228.88 L37.00 -230.19 L35.69 -231.50 L34.73 -232.46 L33.77 -233.42 L33.06 -234.13 L32.36 -234.84 "/>
<path stroke="#000000" stroke-opacity="1.000000" stroke-width="1.000000" fill="none" fill-opacity="1" d="M40.09 -227.10 L38.73 -227.10 L37.37 -227.10 L36.37 -227.10 L35.37 -227.10 "/>
<path stroke="#000000" stroke-opacity="1.000000" stroke-width="1.000000" fill="none" fill-opacity="1" d="M37.00 -230.19 L37.00 -231.19 L37.00 -232.19 "/>
<path stroke="#000000" stroke-opacity="1.000000" stroke-width="1.000000" fill="none" fill-opacity="1" d="M41.87 -233.40 L43.18 -234.71 L44.48 -236.01 L45.45 -236.98 L46.41 -237.94 L47.11 -238.65 L47.82 -239.35 "/>
<path stroke="#000000" stroke-opacity="1.000000" stroke-width="1.000000" fill="none" fill-opacity="1" d="M43.18 -234.71 L44.18 -234.71 L45.18 -234.71 "/>
<path stroke="#000000" stroke-opacity="1.000000" stroke-width="1.000000" fill="none" fill-opacity="1" d="M41.87 -239.34 L40.91 -240.30 L39.94 -241.26 L39.24 -241.97 L38.53 -242.67 "/>
<path stroke="#000000" stroke-opacity="1.000000" stroke-width="1.000000" fill="none" fill-opacity="1" d="M41.87 -243.70 L42.57 -244.41 L43.28 -245.11 "/>
<path stroke="#000000" stroke-opacity="1.000000" stroke-width="1.000000" fill="none" fill-opacity="1" d="M61.40 -210.34 L67.73 -210.34 L74.05 -210.34 L78.71 -210.34 L83.36 -210.34 L86.78 -210.34 L90.20 -210.34 L92.72 -210.34 L95.23 -210.34 L97.08 -210.34 L98.93 -210.34 L100.29 -210.34 L101.65 -210.34 L102.65 -210.34 L103.65 -210.34 "/>
<path stroke="#000000" stroke-opacity="1.000000" stroke-width="1.000000" fill="none" fill-opacity="1" d="M67.73 -210.34 L70.14 -207.92 L72.56 -205.50 L74.34 -203.72 L76.12 -201.94 L77.43 -200.63 L78.74 -199.33 L79.70 -198.36 L80.66 -197.40 L81.37 -196.70 L82.07 -195.99 "/>
<path stroke="#000000" stroke-opacity="1.000000" stroke-width="1.000000" fill="none" fill-opacity="1" d="M70.14 -207.92 L70.14 -206.07 L70.14 -204.22 L70.14 -202.86 L70.14 -201.50 L70.14 -200.50 L70.14 -199.50 "/>
<path stroke="#000000" stroke-opacity="1.000000" stroke-width="1.000000" fill="none" fill-opacity="1" d="M70.14 -206.07 L69.44 -205.36 L68.73 -204.65 "/>
<path stroke="#000000" stroke-opacity="1.000000" stroke-width="1.000000" fill="none" fill-opacity="1" d="M74.34 -203.72 L75.70 -203.72 L77.06 -203.72 L78.06 -203.72 L79.06 -203.72 "/>
<path stroke="#000000" stroke-opacity="1.000000" stroke-width="1.000000" fill="none" fill-opacity="1" d="M77.43 -200.63 L77.43 -199.63 L77.43 -198.63 "/>
<path stroke="#000000" stroke-opacity="1.000000" stroke-width="1.000000" fill="none" fill-opacity="1" d="M78.71 -210.34 L80.48 -212.12 L82.26 -213.89 L83.57 -215.20 L84.88 -216.51 L85.84 -217.47 L86.80 -218.43 L87.51 -219.14 L88.22 -219.85 "/>
<path stroke="#000000" stroke-opacity="1.000000" stroke-width="1.000000" fill="none" fill-opacity="1" d="M80.48 -212.12 L80.48 -213.48 L80.48 -214.84 L80.48 -215.84 L80.48 -216.84 "/>
<path stroke="#000000" stroke-opacity="1.000000" stroke-width="1.000000" fill="none" fill-opacity="1" d="M83.57 -215.20 L84.57 -215.20 L85.57 -215.20 "/>
<path stroke="#000000" stroke-opacity="1.000000" stroke-width="1.000000" fill="none" fill-opacity="1" d="M86.78 -210.34 L88.09 -209.03 L89.39 -207.72 L90.36 -206.76 L91.32 -205.80 L92.03 -205.09 L92.73 -204.38 "/>
<path stroke="#000000" stroke-opacity="1.000000" stroke-width="1.000000" fill="none" fill-opacity="1" d="M88.09 -209.03 L88.09 -208.03 L88.09 -207.03 "/>
<path stroke="#000000" stroke-opacity="1.000000" stroke-width="1.000000" fill="none" fill-opacity="1" d="M92.72 -210.34 L93.68 -211.30 L94.64 -212.26 L95.35 -212.97 L96.05 -213.67 "/>
<path stroke="#000000" stroke-opacity="1.000000" stroke-width="1.000000" fill="none" fill-opacity="1" d="M97.08 -210.34 L97.79 -209.63 L98.49 -208.92 "/>
<path stroke="#000000" stroke-opacity="1.000000" stroke-width="1.000000" fill="none" fill-opacity="1" d="M75.76 -224.70 L75.76 -229.35 L75.76 -234.00 L75.76 -237.42 L75.76 -240.85 L75.76 -243.36 L75.76 -245.88 L75.76 -247.73 L75.76 -249.58 L75.76 -250.94 L75.76 -252.30 L75.76 -253.30 L75.76 -254.30 "/>
<path stroke="#000000" stroke-opacity="1.000000" stroke-width="1.000000" fill="none" fill-opacity="1" d="M75.76 -229.35 L73.98 -231.13 L72.20 -232.91 L70.89 -234.22 L69.59 -235.52 L68.62 -236.49 L67.66 -237.45 L66.95 -238.15 L66.25 -238.86 "/>
<path stroke="#000000" stroke-opacity="1.000000" stroke-width="1.000000" fill="none" fill-opacity="1" d="M73.98 -231.13 L72.62 -231.13 L71.26 -231.13 L70.26 -231.13 L69.26 -231.13 "/>
<path stroke="#000000" stroke-opacity="1.000000" stroke-width="1.000000" fill="none" fill-opacity="1" d="M70.89 -234.22 L70.89 -235.22 L70.89 -236.22 "/>
<path stroke="#000000" stroke-opacity="1.000000" stroke-width="1.000000" fill="none" fill-opacity="1" d="M75.76 -237.42 L77.07 -238.73 L78.37 -240.04 L79.34 -241.00 L80.30 -241.96 L81.00 -242.67 L81.71 -243.38 "/>
<path stroke="#000000" stroke-opacity="1.000000" stroke-width="1.000000" fill="none" fill-opacity="1" d="M77.07 -238.73 L78.07 -238.73 L79.07 -238.73 "/>
<path stroke="#000000" stroke-opacity="1.000000" stroke-width="1.000000" fill="none" fill-opacity="1" d="M75.76 -243.36 L74.80 -244.32 L73.84 -245.28 L73.13 -245.99 L72.42 -246.70 "/>
<path stroke="#000000" stroke-opacity="1.000000" stroke-width="1.000000" fill="none" fill-opacity="1" d="M75.76 -247.73 L76.47 -248.43 L77.17 -249.14 "/>
<path stroke="#000000" stroke-opacity="1.000000" stroke-width="1.000000" fill="none" fill-opacity="1" d="M86.32 -235.26 L89.74 -235.26 L93.16 -235.26 L95.68 -235.26 L98.19 -235.26 L100.04 -235.26 L101.89 -235.26 L103.25 -235.26 L104.61 -235.26 L105.61 -235.26 L106.61 -235.26 "/>
<path stroke="#000000" stroke-opacity="1.000000" stroke-width="1.000000" fill="none" fill-opacity="1" d="M89.74 -235.26 L91.05 -233.95 L92.35 -232.64 L93.32 -231.68 L94.28 -230.72 L94.98 -230.01 L95.69 -229.30 "/>
<path stroke="#000000" stroke-opacity="1.000000" stroke-width="1.000000" fill="none" fill-opacity="1" d="M91.05 -233.95 L91.05 -232.95 L91.05 -231.95 "/>
<path stroke="#000000" stroke-opacity="1.000000" stroke-width="1.000000" fill="none" fill-opacity="1" d="M95.68 -235.26 L96.64 -236.22 L97.60 -237.18 L98.31 -237.89 L99.01 -238.59 "/>
<path stroke="#000000" stroke-opacity="1.000000" stroke-width="1.000000" fill="none" fill-opacity="1" d="M100.04 -235.26 L100.75 -234.55 L101.45 -233.84 "/>
<path stroke="#000000" stroke-opacity="1.000000" stroke-width="1.000000" fill="none" fill-opacity="1" d="M94.08 -243.02 L94.08 -245.54 L94.08 -248.05 L94.08 -249.90 L94.08 -251.75 L94.08 -253.11 L94.08 -254.47 L94.08 -255.47 L94.08 -256.47 "/>
<path stroke="#000000" stroke-opacity="1.000000" stroke-width="1.000000" fill="none" fill-opacity="1" d="M94.08 -245.54 L93.12 -246.50 L92.16 -247.46 L91.45 -248.17 L90.74 -248.87 "/>
<path stroke="#000000" stroke-opacity="1.000000" stroke-width="1.000000" fill="none" fill-opacity="1" d="M94.08 -249.90 L94.79 -250.61 L95.50 -251.32 "/>
<path stroke="#000000" stroke-opacity="1.000000" stroke-width="1.000000" fill="none" fill-opacity="1" d="M99.79 -248.73 L101.64 -248.73 L103.49 -248.73 L104.85 -248.73 L106.21 -248.73 L107.21 -248.73 L108.21 -248.73 "/>
<path stroke="#000000" stroke-opacity="1.000000" stroke-width="1.000000" fill="none" fill-opacity="1" d="M101.64 -248.73 L102.35 -248.02 L103.05 -247.32 "/>
<path stroke="#000000" stroke-opacity="1.000000" stroke-width="1.000000" fill="none" fill-opacity="1" d="M103.99 -252.93 L103.99 -254.29 L103.99 -255.65 L103.99 -256.65 L103.99 -257.65 "/>
<path stroke="#000000" stroke-opacity="1.000000" stroke-width="1.000000" fill="none" fill-opacity="1" d="M107.07 -256.01 L108.07 -256.01 L109.07 -256.01 "/>
<path stroke="#000000" stroke-opacity="1.000000" stroke-width="1.000000" fill="none" fill-opacity="1" d="M0.00 -218.42 L-11.25 -229.67 L-22.51 -240.93 L-30.79 -249.20 L-39.06 -257.48 L-45.15 -263.56 L-51.23 -269.65 L-55.70 -274.12 L-60.18 -278.60 L-63.47 -281.89 L-66.76 -285.18 L-69.18 -287.59 L-71.60 -290.01 L-73.38 -291.79 L-75.15 -293.57 L-76.46 -294.88 L-77.77 -296.19 L-78.73 -297.15 L-79.69 -298.11 L-80.40 -298.82 L-81.11 -299.52 "/>
<path stroke="#000000" stroke-opacity="1.000000" stroke-width="1.000000" fill="none" fill-opacity="1" d="M-11.25 -229.67 L-19.86 -229.67 L-28.47 -229.67 L-34.79 -229.67 L-41.12 -229.67 L-45.77 -229.67 L-50.43 -229.67 L-53.85 -229.67 L-57.27 -229.67 L-59.78 -229.67 L-62.30 -229.67 L-64.15 -229.67 L-66.00 -229.67 L-67.36 -229.67 L-68.72 -229.67 L-69.72 -229.67 L-70.72 -229.67 "/>
<path stroke="#000000" stroke-opacity="1.000000" stroke-width="1.000000" fill="none" fill-opacity="1" d="M-19.86 -229.67 L-23.15 -226.38 L-26.44 -223.09 L-28.86 -220.67 L-31.28 -218.25 L-33.06 -216.47 L-34.84 -214.70 L-36.14 -213.39 L-37.45 -212.08 L-38.41 -211.12 L-39.37 -210.16 L-40.08 -209.45 L-40.79 -208.74 "/>
<path stroke="#000000" stroke-opacity="1.000000" stroke-width="1.000000" fill="none" fill-opacity="1" d="M-23.15 -226.38 L-23.15 -223.87 L-23.15 -221.35 L-23.15 -219.50 L-23.15 -217.65 L-23.15 -216.29 L-23.15 -214.93 L-23.15 -213.93 L-23.15 -212.93 "/>
<path stroke="#000000" stroke-opacity="1.000000" stroke-width="1.000000" fill="none" fill-opacity="1" d="M-23.15 -223.87 L-22.19 -222.90 L-21.23 -221.94 L-20.52 -221.24 L-19.81 -220.53 "/>
<path stroke="#000000" stroke-opacity="1.000000" stroke-width="1.000000" fill="none" fill-opacity="1" d="M-23.15 -219.50 L-23.86 -218.79 L-24.56 -218.09 "/>
<path stroke="#000000" stroke-opacity="1.000000" stroke-width="1.000000" fill="none" fill-opacity="1" d="M-28.86 -220.67 L-30.71 -220.67 L-32.56 -220.67 L-33.92 -220.67 L-35.28 -220.67 L-36.28 -220.67 L-37.28 -220.67 "/>
<path stroke="#000000" stroke-opacity="1.000000" stroke-width="1.000000" fill="none" fill-opacity="1" d="M-30.71 -220.67 L-31.42 -221.38 L-32.12 -222.09 "/>
<path stroke="#000000" stroke-opacity="1.000000" stroke-width="1.000000" fill="none" fill-opacity="1" d="M-33.06 -216.47 L-33.06 -215.11 L-33.06 -213.75 L-33.06 -212.75 L-33.06 -211.75 "/>
<path stroke="#000000" stroke-opacity="1.000000" stroke-width="1.000000" fill="none" fill-opacity="1" d="M-36.14 -213.39 L-37.14 -213.39 L-38.14 -213.39 "/>
<path stroke="#000000" stroke-opacity="1.000000" stroke-width="1.000000" fill="none" fill-opacity="1" d="M-34.79 -229.67 L-37.21 -232.09 L-39.63 -234.51 L-41.41 -236.29 L-43.19 -238.07 L-44.50 -239.37 L-45.80 -240.68 L-46.77 -241.64 L-47.73 -242.61 L-48.43 -243.31 L-49.14 -244.02 "/>
<path stroke="#000000" stroke-opacity="1.000000" stroke-width="1.000000" fill="none" fill-opacity="1" d="M-37.21 -232.09 L-37.21 -233.94 L-37.21 -235.79 L-37.21 -237.15 L-37.21 -238.51 L-37.21 -239.51 L-37.21 -240.51 "/>
<path stroke="#000000" stroke-opacity="1.000000" stroke-width="1.000000" fill="none" fill-opacity="1" d="M-37.21 -233.94 L-36.51 -234.65 L-35.80 -235.35 "/>
<path stroke="#000000" stroke-opacity="1.000000" stroke-width="1.000000" fill="none" fill-opacity="1" d="M-41.41 -236.29 L-42.77 -236.29 L-44.13 -236.29 L-45.13 -236.29 L-46.13 -236.29 "/>
<path stroke="#000000" stroke-opacity="1.000000" stroke-width="1.000000" fill="none" fill-opacity="1" d="M-44.50 -239.37 L-44.50 -240.37 L-44.50 -241.37 "/>
<path stroke="#000000" stroke-opacity="1.000000" stroke-width="1.000000" fill="none" fill-opacity="1" d="M-45.77 -229.67 L-47.55 -227.89 L-49.33 -226.11 L-50.64 -224.81 L-51.95 -223.50 L-52.91 -222.54 L-53.87 -221.57 L-54.58 -220.87 L-55.28 -220.16 "/>
<path stroke="#000000" stroke-opacity="1.000000" stroke-width="1.000000" fill="none" fill-opacity="1" d="M-47.55 -227.89 L-47.55 -226.53 L-47.55 -225.17 L-47.55 -224.17 L-47.55 -223.17 "/>
<path stroke="#000000" stroke-opacity="1.000000" stroke-width="1.000000" fill="none" fill-opacity="1" d="M-50.64 -224.81 L-51.64 -224.81 L-52.64 -224.81 "/>
<path stroke="#000000" stroke-opacity="1.000000" stroke-width="1.000000" fill="none" fill-opacity="1" d="M-53.85 -229.67 L-55.15 -230.98 L-56.46 -232.29 L-57.42 -233.25 L-58.39 -234.21 L-59.09 -234.92 L-59.80 -235.62 "/>
<path stroke="#000000" stroke-opacity="1.000000" stroke-width="1.000000" fill="none" fill-opacity="1" d="M-55.15 -230.98 L-55.15 -231.98 L-55.15 -232.98 "/>
<path stroke="#000000" stroke-opacity="1.000000" stroke-width="1.000000" fill="none" fill-opacity="1" d="M-59.78 -229.67 L-60.74 -228.71 L-61.71 -227.75 L-62.41 -227.04 L-63.12 -226.33 "/>
<path stroke="#000000" stroke-opacity="1.000000" stroke-width="1.000000" fill="none" fill-opacity="1" d="M-64.15 -229.67 L-64.86 -230.38 L-65.56 -231.09 "/>
<path stroke="#000000" stroke-opacity="1.000000" stroke-width="1.000000" fill="none" fill-opacity="1" d="M-30.79 -249.20 L-30.79 -255.53 L-30.79 -261.86 L-30.79 -266.51 L-30.79 -271.16 L-30.79 -274.58 L-30.79 -278.00 L-30.79 -280.52 L-30.79 -283.03 L-30.79 -284.88 L-30.79 -286.73 L-30.79 -288.09 L-30.79 -289.45 L-30.79 -290.45 L-30.79 -291.45 "/>
<path stroke="#000000" stroke-opacity="1.000000" stroke-width="1.000000" fill="none" fill-opacity="1" d="M-30.79 -255.53 L-28.37 -257.95 L-25.95 -260.37 L-24.17 -262.15 L-22.39 -263.92 L-21.08 -265.23 L-19.77 -266.54 L-18.81 -267.50 L-17.85 -268.46 L-17.14 -269.17 L-16.44 -269.88 "/>
<path stroke="#000000" stroke-opacity="1.000000" stroke-width="1.000000" fill="none" fill-opacity="1" d="M-28.37 -257.95 L-26.52 -257.95 L-24.67 -257.95 L-23.31 -257.95 L-21.95 -257.95 L-20.95 -257.95 L-19.95 -257.95 "/>
<path stroke="#000000" stroke-opacity="1.000000" stroke-width="1.000000" fill="none" fill-opacity="1" d="M-26.52 -257.95 L-25.81 -257.24 L-25.10 -256.53 "/>
<path stroke="#000000" stroke-opacity="1.000000" stroke-width="1.000000" fill="none" fill-opacity="1" d="M-24.17 -262.15 L-24.17 -263.51 L-24.17 -264.87 L-24.17 -265.87 L-24.17 -266.87 "/>
<path stroke="#000000" stroke-opacity="1.000000" stroke-width="1.000000" fill="none" fill-opacity="1" d="M-21.08 -265.23 L-20.08 -265.23 L-19.08 -265.23 "/>
<path stroke="#000000" stroke-opacity="1.000000" stroke-width="1.000000" fill="none" fill-opacity="1" d="M-30.79 -266.51 L-32.56 -268.29 L-34.34 -270.07 L-35.65 -271.37 L-36.96 -272.68 L-37.92 -273.64 L-38.88 -274.61 L-39.59 -275.31 L-40.30 -276.02 "/>
<path stroke="#000000" stroke-opacity="1.000000" stroke-width="1.000000" fill="none" fill-opacity="1" d="M-32.56 -268.29 L-33.92 -268.29 L-35.28 -268.29 L-36.28 -268.29 L-37.28 -268.29 "/>
<path stroke="#000000" stroke-opacity="1.000000" stroke-width="1.000000" fill="none" fill-opacity="1" d="M-35.65 -271.37 L-35.65 -272.37 L-35.65 -273.37 "/>
<path stroke="#000000" stroke-opacity="1.000000" stroke-width="1.000000" fill="none" fill-opacity="1" d="M-30.79 -274.58 L-29.48 -275.89 L-28.17 -277.20 L-27.21 -278.16 L-26.25 -279.12 L-25.54 -279.83 L-24.83 -280.54 "/>
<path stroke="#000000" stroke-opacity="1.000000" stroke-width="1.000000" fill="none" fill-opacity="1" d="M-29.48 -275.89 L-28.48 -275.89 L-27.48 -275.89 "/>
<path stroke="#000000" stroke-opacity="1.000000" stroke-width="1.000000" fill="none" fill-opacity="1" d="M-30.79 -280.52 L-31.75 -281.48 L-32.71 -282.44 L-33.42 -283.15 L-34.12 -283.86 "/>
<path stroke="#000000" stroke-opacity="1.000000" stroke-width="1.000000" fill="none" fill-opacity="1" d="M-30.79 -284.88 L-30.08 -285.59 L-29.37 -286.30 "/>
<path stroke="#000000" stroke-opacity="1.000000" stroke-width="1.000000" fill="none" fill-opacity="1" d="M-45.15 -263.56 L-49.80 -263.56 L-54.45 -263.56 L-57.87 -263.56 L-61.29 -263.56 L-63.81 -263.56 L-66.32 -263.56 L-68.17 -263.56 L-70.02 -263.56 L-71.38 -263.56 L-72.74 -263.56 L-73.74 -263.56 L-74.74 -263.56 "/>
<path stroke="#000000" stroke-opacity="1.000000" stroke-width="1.000000" fill="none" fill-opacity="1" d="M-49.80 -263.56 L-51.58 -261.78 L-53.36 -260.00 L-54.66 -258.70 L-55.97 -257.39 L-56.93 -256.43 L-57.89 -255.47 L-58.60 -254.76 L-59.31 -254.05 "/>
<path stroke="#000000" stroke-opacity="1.000000" stroke-width="1.000000" fill="none" fill-opacity="1" d="M-51.58 -261.78 L-51.58 -260.42 L-51.58 -259.06 L-51.58 -258.06 L-51.58 -257.06 "/>
<path stroke="#000000" stroke-opacity="1.000000" stroke-width="1.000000" fill="none" fill-opacity="1" d="M-54.66 -258.70 L-55.66 -258.70 L-56.66 -258.70 "/>
<path stroke="#000000" stroke-opacity="1.000000" stroke-width="1.000000" fill="none" fill-opacity="1" d="M-57.87 -263.56 L-59.18 -264.87 L-60.49 -266.18 L-61.45 -267.14 L-62.41 -268.10 L-63.12 -268.81 L-63.82 -269.52 "/>
<path stroke="#000000" stroke-opacity="1.000000" stroke-width="1.000000" fill="none" fill-opacity="1" d="M-59.18 -264.87 L-59.18 -265.87 L-59.18 -266.87 "/>
<path stroke="#000000" stroke-opacity="1.000000" stroke-width="1.000000" fill="none" fill-opacity="1" d="M-63.81 -263.56 L-64.77 -262.60 L-65.73 -261.64 L-66.44 -260.93 L-67.15 -260.22 "/>
<path stroke="#000000" stroke-opacity="1.000000" stroke-width="1.000000" fill="none" fill-opacity="1" d="M-68.17 -263.56 L-68.88 -264.27 L-69.59 -264.98 "/>
<path stroke="#000000" stroke-opacity="1.000000" stroke-width="1.000000" fill="none" fill-opacity="1" d="M-55.70 -274.12 L-55.70 -277.54 L-55.70 -280.96 L-55.70 -283.48 L-55.70 -285.99 L-55.70 -287.84 L-55.70 -289.69 L-55.70 -291.05 L-55.70 -292.41 L-55.70 -293.41 L-55.70 -294.41 "/>
<path stroke="#000000" stroke-opacity="1.000000" stroke-width="1.000000" fill="none" fill-opacity="1" d="M-55.70 -277.54 L-54.40 -278.85 L-53.09 -280.16 L-52.13 -281.12 L-51.17 -282.08 L-50.46 -282.79 L-49.75 -283.50 "/>
<path stroke="#000000" stroke-opacity="1.000000" stroke-width="1.000000" fill="none" fill-opacity="1" d="M-54.40 -278.85 L-53.40 -278.85 L-52.40 -278.85 "/>
<path stroke="#000000" stroke-opacity="1.000000" stroke-width="1.000000" fill="none" fill-opacity="1" d="M-55.70 -283.48 L-56.67 -284.44 L-57.63 -285.40 L-58.34 -286.11 L-59.04 -286.82 "/>
<path stroke="#000000" stroke-opacity="1.000000" stroke-width="1.000000" fill="none" fill-opacity="1" d="M-55.70 -287.84 L-55.00 -288.55 L-54.29 -289.26 "/>
<path stroke="#000000" stroke-opacity="1.000000" stroke-width="1.000000" fill="none" fill-opacity="1" d="M-63.47 -281.89 L-65.98 -281.89 L-68.50 -281.89 L-70.35 -281.89 L-72.20 -281.89 L-73.56 -281.89 L-74.92 -281.89 L-75.92 -281.89 L-76.92 -281.89 "/>
<path stroke="#000000" stroke-opacity="1.000000" stroke-width="1.000000" fill="none" fill-opacity="1" d="M-65.98 -281.89 L-66.95 -280.92 L-67.91 -279.96 L-68.61 -279.25 L-69.32 -278.55 "/>
<path stroke="#000000" stroke-opacity="1.000000" stroke-width="1.000000" fill="none" fill-opacity="1" d="M-70.35 -281.89 L-71.06 -282.59 L-71.76 -283.30 "/>
<path stroke="#000000" stroke-opacity="1.000000" stroke-width="1.000000" fill="none" fill-opacity="1" d="M-69.18 -287.59 L-69.18 -289.44 L-69.18 -291.29 L-69.18 -292.65 L-69.18 -294.01 L-69.18 -295.01 L-69.18 -296.01 "/>
<path stroke="#000000" stroke-opacity="1.000000" stroke-width="1.000000" fill="none" fill-opacity="1" d="M-69.18 -289.44 L-68.47 -290.15 L-67.76 -290.86 "/>
<path stroke="#000000" stroke-opacity="1.000000" stroke-width="1.000000" fill="none" fill-opacity="1" d="M-73.38 -291.79 L-74.74 -291.79 L-76.10 -291.79 L-77.10 -291.79 L-78.10 -291.79 "/>
<path stroke="#000000" stroke-opacity="1.000000" stroke-width="1.000000" fill="none" fill-opacity="1" d="M-76.46 -294.88 L-76.46 -295.88 L-76.46 -296.88 "/>
<path stroke="#000000" stroke-opacity="1.000000" stroke-width="1.000000" fill="none" fill-opacity="1" d="M0.00 -269.50 L8.28 -277.78 L16.55 -286.05 L22.64 -292.14 L28.72 -298.22 L33.20 -302.70 L37.67 -307.17 L40.96 -310.46 L44.25 -313.75 L46.67 -316.17 L49.09 -318.59 L50.87 -320.37 L52.64 -322.15 L53.95 -323.45 L55.26 -324.76 L56.22 -325.72 L57.18 -326.69 L57.89 -327.39 L58.60 -328.10 "/>
<path stroke="#000000" stroke-opacity="1.000000" stroke-width="1.000000" fill="none" fill-opacity="1" d="M8.28 -277.78 L14.60 -277.78 L20.93 -277.78 L25.58 -277.78 L30.24 -277.78 L33.66 -277.78 L37.08 -277.78 L39.59 -277.78 L42.11 -277.78 L43.96 -277.78 L45.81 -277.78 L47.17 -277.78 L48.53 -277.78 L49.53 -277.78 L50.53 -277.78 "/>
<path stroke="#000000" stroke-opacity="1.000000" stroke-width="1.000000" fill="none" fill-opacity="1" d="M14.60 -277.78 L17.02 -275.36 L19.44 -272.94 L21.22 -271.16 L23.00 -269.38 L24.31 -268.07 L25.61 -266.77 L26.58 -265.80 L27.54 -264.84 L28.24 -264.14 L28.95 -263.43 "/>
<path stroke="#000000" stroke-opacity="1.000000" stroke-width="1.000000" fill="none" fill-opacity="1" d="M17.02 -275.36 L17.02 -273.51 L17.02 -271.66 L17.02 -270.30 L17.02 -268.94 L17.02 -267.94 L17.02 -266.94 "/>
<path stroke="#000000" stroke-opacity="1.000000" stroke-width="1.000000" fill="none" fill-opacity="1" d="M17.02 -273.51 L16.31 -272.80 L15.61 -272.09 "/>
<path stroke="#000000" stroke-opacity="1.000000" stroke-width="1.000000" fill="none" fill-opacity="1" d="M21.22 -271.16 L22.58 -271.16 L23.94 -271.16 L24.94 -271.16 L25.94 -271.16 "/>
<path stroke="#000000" stroke-opacity="1.000000" stroke-width="1.000000" fill="none" fill-opacity="1" d="M24.31 -268.07 L24.31 -267.07 L24.31 -266.07 "/>
<path stroke="#000000" stroke-opacity="1.000000" stroke-width="1.000000" fill="none" fill-opacity="1" d="M25.58 -277.78 L27.36 -279.56 L29.14 -281.34 L30.45 -282.64 L31.76 -283.95 L32.72 -284.91 L33.68 -285.87 L34.39 -286.58 L35.09 -287.29 "/>
<path stroke="#000000" stroke-opacity="1.000000" stroke-width="1.000000" fill="none" fill-opacity="1" d="M27.36 -279.56 L27.36 -280.92 L27.36 -282.28 L27.36 -283.28 L27.36 -284.28 "/>
<path stroke="#000000" stroke-opacity="1.000000" stroke-width="1.000000" fill="none" fill-opacity="1" d="M30.45 -282.64 L31.45 -282.64 L32.45 -282.64 "/>
<path stroke="#000000" stroke-opacity="1.000000" stroke-width="1.000000" fill="none" fill-opacity="1" d="M33.66 -277.78 L34.96 -276.47 L36.27 -275.16 L37.23 -274.20 L38.20 -273.24 L38.90 -272.53 L39.61 -271.82 "/>
<path stroke="#000000" stroke-opacity="1.000000" stroke-width="1.000000" fill="none" fill-opacity="1" d="M34.96 -276.47 L34.96 -275.47 L34.96 -274.47 "/>
<path stroke="#000000" stroke-opacity="1.000000" stroke-width="1.000000" fill="none" fill-opacity="1" d="M39.59 -277.78 L40.55 -278.74 L41.52 -279.70 L42.22 -280.41 L42.93 -281.12 "/>
<path stroke="#000000" stroke-opacity="1.000000" stroke-width="1.000000" fill="none" fill-opacity="1" d="M43.96 -277.78 L44.67 -277.07 L45.37 -276.36 "/>
<path stroke="#000000" stroke-opacity="1.000000" stroke-width="1.000000" fill="none" fill-opacity="1" d="M22.64 -292.14 L22.64 -296.79 L22.64 -301.44 L22.64 -304.86 L22.64 -308.29 L22.64 -310.80 L22.64 -313.32 L22.64 -315.17 L22.64 -317.02 L22.64 -318.38 L22.64 -319.74 L22.64 -320.74 L22.64 -321.74 "/>
<path stroke="#000000" stroke-opacity="1.000000" stroke-width="1.000000" fill="none" fill-opacity="1" d="M22.64 -296.79 L20.86 -298.57 L19.08 -300.35 L17.77 -301.66 L16.46 -302.96 L15.50 -303.93 L14.54 -304.89 L13.83 -305.59 L13.13 -306.30 "/>
<path stroke="#000000" stroke-opacity="1.000000" stroke-width="1.000000" fill="none" fill-opacity="1" d="M20.86 -298.57 L19.50 -298.57 L18.14 -298.57 L17.14 -298.57 L16.14 -298.57 "/>
<path stroke="#000000" stroke-opacity="1.000000" stroke-width="1.000000" fill="none" fill-opacity="1" d="M17.77 -301.66 L17.77 -302.66 L17.77 -303.66 "/>
<path stroke="#000000" stroke-opacity="1.000000" stroke-width="1.000000" fill="none" fill-opacity="1" d="M22.64 -304.86 L23.94 -306.17 L25.25 -307.48 L26.21 -308.44 L27.18 -309.40 L27.88 -310.11 L28.59 -310.82 "/>
<path stroke="#000000" stroke-opacity="1.000000" stroke-width="1.000000" fill="none" fill-opacity="1" d="M23.94 -306.17 L24.94 -306.17 L25.94 -306.17 "/>
<path stroke="#000000" stroke-opacity="1.000000" stroke-width="1.000000" fill="none" fill-opacity="1" d="M22.64 -310.80 L21.67 -311.76 L20.71 -312.72 L20.01 -313.43 L19.30 -314.14 "/>
<path stroke="#000000" stroke-opacity="1.000000" stroke-width="1.000000" fill="none" fill-opacity="1" d="M22.64 -315.17 L23.34 -315.87 L24.05 -316.58 "/>
<path stroke="#000000" stroke-opacity="1.000000" stroke-width="1.000000" fill="none" fill-opacity="1" d="M33.20 -302.70 L36.62 -302.70 L40.04 -302.70 L42.55 -302.70 L45.07 -302.70 L46.92 -302.70 L48.77 -302.70 L50.13 -302.70 L51.49 -302.70 L52.49 -302.70 L53.49 -302.70 "/>
<path stroke="#000000" stroke-opacity="1.000000" stroke-width="1.000000" fill="none" fill-opacity="1" d="M36.62 -302.70 L37.92 -301.39 L39.23 -300.08 L40.19 -299.12 L41.16 -298.16 L41.86 -297.45 L42.57 -296.74 "/>
<path stroke="#000000" stroke-opacity="1.000000" stroke-width="1.000000" fill="none" fill-opacity="1" d="M37.92 -301.39 L37.92 -300.39 L37.92 -299.39 "/>
<path stroke="#000000" stroke-opacity="1.000000" stroke-width="1.000000" fill="none" fill-opacity="1" d="M42.55 -302.70 L43.51 -303.66 L44.48 -304.62 L45.18 -305.33 L45.89 -306.03 "/>
<path stroke="#000000" stroke-opacity="1.000000" stroke-width="1.000000" fill="none" fill-opacity="1" d="M46.92 -302.70 L47.62 -301.99 L48.33 -301.28 "/>
<path stroke="#000000" stroke-opacity="1.000000" stroke-width="1.000000" fill="none" fill-opacity="1" d="M40.96 -310.46 L40.96 -312.98 L40.96 -315.49 L40.96 -317.34 L40.96 -319.19 L40.96 -320.55 L40.96 -321.91 L40.96 -322.91 L40.96 -323.91 "/>
<path stroke="#000000" stroke-opacity="1.000000" stroke-width="1.000000" fill="none" fill-opacity="1" d="M40.96 -312.98 L40.00 -313.94 L39.04 -314.90 L38.33 -315.61 L37.62 -316.31 "/>
<path stroke="#000000" stroke-opacity="1.000000" stroke-width="1.000000" fill="none" fill-opacity="1" d="M40.96 -317.34 L41.67 -318.05 L42.37 -318.76 "/>
<path stroke="#000000" stroke-opacity="1.000000" stroke-width="1.000000" fill="none" fill-opacity="1" d="M46.67 -316.17 L48.52 -316.17 L50.37 -316.17 L51.73 -316.17 L53.09 -316.17 L54.09 -316.17 L55.09 -316.17 "/>
<path stroke="#000000" stroke-opacity="1.000000" stroke-width="1.000000" fill="none" fill-opacity="1" d="M48.52 -316.17 L49.22 -315.46 L49.93 -314.76 "/>
<path stroke="#000000" stroke-opacity="1.000000" stroke-width="1.000000" fill="none" fill-opacity="1" d="M50.87 -320.37 L50.87 -321.73 L50.87 -323.09 L50.87 -324.09 L50.87 -325.09 "/>
<path stroke="#000000" stroke-opacity="1.000000" stroke-width="1.000000" fill="none" fill-opacity="1" d="M53.95 -323.45 L54.95 -323.45 L55.95 -323.45 "/>
<path stroke="#000000" stroke-opacity="1.000000" stroke-width="1.000000" fill="none" fill-opacity="1" d="M0.00 -307.07 L-6.08 -313.15 L-12.17 -319.24 L-16.64 -323.71 L-21.12 -328.18 L-24.41 -331.47 L-27.70 -334.76 L-30.12 -337.18 L-32.54 -339.60 L-34.31 -341.38 L-36.09 -343.16 L-37.40 -344.47 L-38.71 -345.77 L-39.67 -346.74 L-40.63 -347.70 L-41.34 -348.41 L-42.05 -349.11 "/>
<path stroke="#000000" stroke-opacity="1.000000" stroke-width="1.000000" fill="none" fill-opacity="1" d="M-6.08 -313.15 L-10.74 -313.15 L-15.39 -313.15 L-18.81 -313.15 L-22.23 -313.15 L-24.75 -313.15 L-27.26 -313.15 L-29.11 -313.15 L-30.96 -313.15 L-32.32 -313.15 L-33.68 -313.15 L-34.68 -313.15 L-35.68 -313.15 "/>
<path stroke="#000000" stroke-opacity="1.000000" stroke-width="1.000000" fill="none" fill-opacity="1" d="M-10.74 -313.15 L-12.52 -311.37 L-14.29 -309.59 L-15.60 -308.29 L-16.91 -306.98 L-17.87 -306.02 L-18.83 -305.05 L-19.54 -304.35 L-20.25 -303.64 "/>
<path stroke="#000000" stroke-opacity="1.000000" stroke-width="1.000000" fill="none" fill-opacity="1" d="M-12.52 -311.37 L-12.52 -310.01 L-12.52 -308.65 L-12.52 -307.65 L-12.52 -306.65 "/>
<path stroke="#000000" stroke-opacity="1.000000" stroke-width="1.000000" fill="none" fill-opacity="1" d="M-15.60 -308.29 L-16.60 -308.29 L-17.60 -308.29 "/>
<path stroke="#000000" stroke-opacity="1.000000" stroke-width="1.000000" fill="none" fill-opacity="1" d="M-18.81 -313.15 L-20.12 -314.46 L-21.43 -315.77 L-22.39 -316.73 L-23.35 -317.69 L-24.06 -318.40 L-24.76 -319.10 "/>
<path stroke="#000000" stroke-opacity="1.000000" stroke-width="1.000000" fill="none" fill-opacity="1" d="M-20.12 -314.46 L-20.12 -315.46 L-20.12 -316.46 "/>
<path stroke="#000000" stroke-opacity="1.000000" stroke-width="1.000000" fill="none" fill-opacity="1" d="M-24.75 -313.15 L-25.71 -312.19 L-26.67 -311.23 L-27.38 -310.52 L-28.09 -309.81 "/>
<path stroke="#000000" stroke-opacity="1.000000" stroke-width="1.000000" fill="none" fill-opacity="1" d="M-29.11 -313.15 L-29.82 -313.86 L-30.53 -314.56 "/>
<path stroke="#000000" stroke-opacity="1.000000" stroke-width="1.000000" fill="none" fill-opacity="1" d="M-16.64 -323.71 L-16.64 -327.13 L-16.64 -330.55 L-16.64 -333.07 L-16.64 -335.58 L-16.64 -337.43 L-16.64 -339.28 L-16.64 -340.64 L-16.64 -342.00 L-16.64 -343.00 L-16.64 -344.00 "/>
<path stroke="#000000" stroke-opacity="1.000000" stroke-width="1.000000" fill="none" fill-opacity="1" d="M-16.64 -327.13 L-15.34 -328.44 L-14.03 -329.75 L-13.07 -330.71 L-12.11 -331.67 L-11.40 -332.38 L-10.69 -333.08 "/>
<path stroke="#000000" stroke-opacity="1.000000" stroke-width="1.000000" fill="none" fill-opacity="1" d="M-15.34 -328.44 L-14.34 -328.44 L-13.34 -328.44 "/>
<path stroke="#000000" stroke-opacity="1.000000" stroke-width="1.000000" fill="none" fill-opacity="1" d="M-16.64 -333.07 L-17.61 -334.03 L-18.57 -334.99 L-19.27 -335.70 L-19.98 -336.40 "/>
<path stroke="#000000" stroke-opacity="1.000000" stroke-width="1.000000" fill="none" fill-opacity="1" d="M-16.64 -337.43 L-15.94 -338.14 L-15.23 -338.85 "/>
<path stroke="#000000" stroke-opacity="1.000000" stroke-width="1.000000" fill="none" fill-opacity="1" d="M-24.41 -331.47 L-26.92 -331.47 L-29.44 -331.47 L-31.29 -331.47 L-33.14 -331.47 L-34.50 -331.47 L-35.86 -331.47 L-36.86 -331.47 L-37.86 -331.47 "/>
<path stroke="#000000" stroke-opacity="1.000000" stroke-width="1.000000" fill="none" fill-opacity="1" d="M-26.92 -331.47 L-27.89 -330.51 L-28.85 -329.55 L-29.55 -328.84 L-30.26 -328.14 "/>
<path stroke="#000000" stroke-opacity="1.000000" stroke-width="1.000000" fill="none" fill-opacity="1" d="M-31.29 -331.47 L-32.00 -332.18 L-32.70 -332.89 "/>
<path stroke="#000000" stroke-opacity="1.000000" stroke-width="1.000000" fill="none" fill-opacity="1" d="M-30.12 -337.18 L-30.12 -339.03 L-30.12 -340.88 L-30.12 -342.24 L-30.12 -343.60 L-30.12 -344.60 L-30.12 -345.60 "/>
<path stroke="#000000" stroke-opacity="1.000000" stroke-width="1.000000" fill="none" fill-opacity="1" d="M-30.12 -339.03 L-29.41 -339.74 L-28.70 -340.45 "/>
<path stroke="#000000" stroke-opacity="1.000000" stroke-width="1.000000" fill="none" fill-opacity="1" d="M-34.31 -341.38 L-35.67 -341.38 L-37.03 -341.38 L-38.03 -341.38 L-39.03 -341.38 "/>
<path stroke="#000000" stroke-opacity="1.000000" stroke-width="1.000000" fill="none" fill-opacity="1" d="M-37.40 -344.47 L-37.40 -345.47 L-37.40 -346.47 "/>
<path stroke="#000000" stroke-opacity="1.000000" stroke-width="1.000000" fill="none" fill-opacity="1" d="M0.00 -334.69 L4.47 -339.16 L8.95 -343.63 L12.24 -346.92 L15.53 -350.21 L17.95 -352.63 L20.37 -355.05 L22.14 -356.83 L23.92 -358.61 L25.23 -359.92 L26.54 -361.22 L27.50 -362.19 L28.46 -363.15 L29.17 -363.86 L29.88 -364.56 "/>
<path stroke="#000000" stroke-opacity="1.000000" stroke-width="1.000000" fill="none" fill-opacity="1" d="M4.47 -339.16 L7.90 -339.16 L11.32 -339.16 L13.83 -339.16 L16.35 -339.16 L18.20 -339.16 L20.05 -339.16 L21.41 -339.16 L22.77 -339.16 L23.77 -339.16 L24.77 -339.16 "/>
<path stroke="#000000" stroke-opacity="1.000000" stroke-width="1.000000" fill="none" fill-opacity="1" d="M7.90 -339.16 L9.20 -337.85 L10.51 -336.54 L11.47 -335.58 L12.43 -334.62 L13.14 -333.91 L13.85 -333.21 "/>
<path stroke="#000000" stroke-opacity="1.000000" stroke-width="1.000000" fill="none" fill-opacity="1" d="M9.20 -337.85 L9.20 -336.85 L9.20 -335.85 "/>
<path stroke="#000000" stroke-opacity="1.000000" stroke-width="1.000000" fill="none" fill-opacity="1" d="M13.83 -339.16 L14.79 -340.12 L15.76 -341.08 L16.46 -341.79 L17.17 -342.50 "/>
<path stroke="#000000" stroke-opacity="1.000000" stroke-width="1.000000" fill="none" fill-opacity="1" d="M18.20 -339.16 L18.90 -338.45 L19.61 -337.75 "/>
<path stroke="#000000" stroke-opacity="1.000000" stroke-width="1.000000" fill="none" fill-opacity="1" d="M12.24 -346.92 L12.24 -349.44 L12.24 -351.95 L12.24 -353.80 L12.24 -355.65 L12.24 -357.01 L12.24 -358.37 L12.24 -359.37 L12.24 -360.37 "/>
<path stroke="#000000" stroke-opacity="1.000000" stroke-width="1.000000" fill="none" fill-opacity="1" d="M12.24 -349.44 L11.28 -350.40 L10.32 -351.36 L9.61 -352.07 L8.90 -352.78 "/>
<path stroke="#000000" stroke-opacity="1.000000" stroke-width="1.000000" fill="none" fill-opacity="1" d="M12.24 -353.80 L12.95 -354.51 L13.65 -355.22 "/>
<path stroke="#000000" stroke-opacity="1.000000" stroke-width="1.000000" fill="none" fill-opacity="1" d="M17.95 -352.63 L19.80 -352.63 L21.65 -352.63 L23.01 -352.63 L24.37 -352.63 L25.37 -352.63 L26.37 -352.63 "/>
<path stroke="#000000" stroke-opacity="1.000000" stroke-width="1.000000" fill="none" fill-opacity="1" d="M19.80 -352.63 L20.50 -351.93 L21.21 -351.22 "/>
<path stroke="#000000" stroke-opacity="1.000000" stroke-width="1.000000" fill="none" fill-opacity="1" d="M22.14 -356.83 L22.14 -358.19 L22.14 -359.55 L22.14 -360.55 L22.14 -361.55 "/>
<path stroke="#000000" stroke-opacity="1.000000" stroke-width="1.000000" fill="none" fill-opacity="1" d="M25.23 -359.92 L26.23 -359.92 L27.23 -359.92 "/>
<path stroke="#000000" stroke-opacity="1.000000" stroke-width="1.000000" fill="none" fill-opacity="1" d="M0.00 -354.99 L-3.29 -358.28 L-6.58 -361.57 L-9.00 -363.99 L-11.42 -366.41 L-13.20 -368.19 L-14.98 -369.97 L-16.28 -371.28 L-17.59 -372.59 L-18.55 -373.55 L-19.51 -374.51 L-20.22 -375.22 L-20.93 -375.92 "/>
<path stroke="#000000" stroke-opacity="1.000000" stroke-width="1.000000" fill="none" fill-opacity="1" d="M-3.29 -358.28 L-5.81 -358.28 L-8.32 -358.28 L-10.17 -358.28 L-12.02 -358.28 L-13.38 -358.28 L-14.74 -358.28 L-15.74 -358.28 L-16.74 -358.28 "/>
<path stroke="#000000" stroke-opacity="1.000000" stroke-width="1.000000" fill="none" fill-opacity="1" d="M-5.81 -358.28 L-6.77 -357.32 L-7.73 -356.36 L-8.44 -355.65 L-9.14 -354.95 "/>
<path stroke="#000000" stroke-opacity="1.000000" stroke-width="1.000000" fill="none" fill-opacity="1" d="M-10.17 -358.28 L-10.88 -358.99 L-11.58 -359.70 "/>
<path stroke="#000000" stroke-opacity="1.000000" stroke-width="1.000000" fill="none" fill-opacity="1" d="M-9.00 -363.99 L-9.00 -365.84 L-9.00 -367.69 L-9.00 -369.05 L-9.00 -370.41 L-9.00 -371.41 L-9.00 -372.41 "/>
<path stroke="#000000" stroke-opacity="1.000000" stroke-width="1.000000" fill="none" fill-opacity="1" d="M-9.00 -365.84 L-8.29 -366.55 L-7.58 -367.26 "/>
<path stroke="#000000" stroke-opacity="1.000000" stroke-width="1.000000" fill="none" fill-opacity="1" d="M-13.20 -368.19 L-14.56 -368.19 L-15.92 -368.19 L-16.92 -368.19 L-17.92 -368.19 "/>
<path stroke="#000000" stroke-opacity="1.000000" stroke-width="1.000000" fill="none" fill-opacity="1" d="M-16.28 -371.28 L-16.28 -372.28 L-16.28 -373.28 "/>
<path stroke="#000000" stroke-opacity="1.000000" stroke-width="1.000000" fill="none" fill-opacity="1" d="M0.00 -369.93 L2.42 -372.35 L4.84 -374.77 L6.62 -376.54 L8.40 -378.32 L9.70 -379.63 L11.01 -380.94 L11.97 -381.90 L12.93 -382.86 L13.64 -383.57 L14.35 -384.28 "/>
<path stroke="#000000" stroke-opacity="1.000000" stroke-width="1.000000" fill="none" fill-opacity="1" d="M2.42 -372.35 L4.27 -372.35 L6.12 -372.35 L7.48 -372.35 L8.84 -372.35 L9.84 -372.35 L10.84 -372.35 "/>
<path stroke="#000000" stroke-opacity="1.000000" stroke-width="1.000000" fill="none" fill-opacity="1" d="M4.27 -372.35 L4.98 -371.64 L5.68 -370.93 "/>
<path stroke="#000000" stroke-opacity="1.000000" stroke-width="1.000000" fill="none" fill-opacity="1" d="M6.62 -376.54 L6.62 -377.90 L6.62 -379.26 L6.62 -380.26 L6.62 -381.26 "/>
<path stroke="#000000" stroke-opacity="1.000000" stroke-width="1.000000" fill="none" fill-opacity="1" d="M9.70 -379.63 L10.70 -379.63 L11.70 -379.63 "/>
<path stroke="#000000" stroke-opacity="1.000000" stroke-width="1.000000" fill="none" fill-opacity="1" d="M0.00 -380.91 L-1.78 -382.69 L-3.56 -384.46 L-4.87 -385.77 L-6.17 -387.08 L-7.13 -388.04 L-8.10 -389.00 L-8.80 -389.71 L-9.51 -390.42 "/>
<path stroke="#000000" stroke-opacity="1.000000" stroke-width="1.000000" fill="none" fill-opacity="1" d="M-1.78 -382.69 L-3.14 -382.69 L-4.50 -382.69 L-5.50 -382.69 L-6.50 -382.69 "/>
<path stroke="#000000" stroke-opacity="1.000000" stroke-width="1.000000" fill="none" fill-opacity="1" d="M-4.87 -385.77 L-4.87 -386.77 L-4.87 -387.77 "/>
<path stroke="#000000" stroke-opacity="1.000000" stroke-width="1.000000" fill="none" fill-opacity="1" d="M0.00 -388.98 L1.31 -390.29 L2.62 -391.60 L3.58 -392.56 L4.54 -393.52 L5.25 -394.23 L5.95 -394.93 "/>
<path stroke="#000000" stroke-opacity="1.000000" stroke-width="1.000000" fill="none" fill-opacity="1" d="M1.31 -390.29 L2.31 -390.29 L3.31 -390.29 "/>
<path stroke="#000000" stroke-opacity="1.000000" stroke-width="1.000000" fill="none" fill-opacity="1" d="M0.00 -394.92 L-0.96 -395.88 L-1.92 -396.84 L-2.63 -397.55 L-3.34 -398.25 "/>
<path stroke="#000000" stroke-opacity="1.000000" stroke-width="1.000000" fill="none" fill-opacity="1" d="M0.00 -399.28 L0.71 -399.99 L1.41 -400.70 "/>
</g>
</svg>

