<svg viewBox="0 0 400.000000 250.000000" xmlns="http://www.w3.org/2000/svg" version="1.1">
<!-- SEED 14892857 -->
<rect width="400.000000" height="250.000000" fill="#DDAADD" fill-opacity="1.000000"/>
<g transform="scale(2.844950,2.699784) translate(38.299999,22.300001) ">
<path stroke="#000000" stroke-opacity="1.000000" stroke-width="0.300000" fill="none" fill-opacity="1" d="M0.00 0.00 L-1.00 -0.00 L-1.00 1.00 L-1.00 2.00 L0.00 2.00 L0.00 3.00 L1.00 3.00 L2.00 3.00 L2.00 2.00 L2.00 3.00 L3.00 3.00 L4.00 3.00 L4.00 2.00 L5.00 2.00 L5.00 1.00 L5.00 0.00 L4.00 0.00 L4.00 1.00 L5.00 1.00 L6.00 1.00 L6.00 0.00 L7.00 0.00 L7.00 -1.00 L7.00 -2.00 L6.00 -2.00 L7.00 -2.00 L7.00 -3.00 L7.00 -4.00 L6.00 -4.00 L6.00 -5.00 L5.00 -5.00 L4.00 -5.00 L4.00 -4.00 L4.00 -3.00 L5.00 -3.00 L6.00 -3.00 L6.00 -4.00 L7.00 -4.00 L7.00 -5.00 L7.00 -6.00 L6.00 -6.00 L7.00 -6.00 L7.00 -7.00 L7.00 -8.00 L6.00 -8.00 L6.00 -9.00 L5.00 -9.00 L4.00 -9.00 L4.00 -8.00 L5.00 -8.00 L5.00 -9.00 L5.00 -10.00 L4.00 -10.00 L4.00 -11.00 L3.00 -11.00 L2.00 -11.00 L2.00 -10.00 L2.00 -11.00 L1.00 -11.00 L0.00 -11.00 L0.00 -10.00 L-1.00 -10.00 L-1.00 -9.00 L-1.00 -8.00 L0.00 -8.00 L0.00 -7.00 L1.00 -7.00 L2.00 -7.00 L2.00 -8.00 L3.00 -8.00 L3.00 -9.00 L3.00 -10.00 L2.00 -10.00 L3.00 -10.00 L3.00 -11.00 L3.00 -12.00 L2.00 -12.00 L2.00 -13.00 L1.00 -13.00 L0.00 -13.00 L0.00 -12.00 L1.00 -12.00 L1.00 -13.00 L1.00 -14.00 L0.00 -14.00 L0.00 -15.00 L-1.00 -15.00 L-2.00 -15.00 L-2.00 -14.00 L-2.00 -15.00 L-3.00 -15.00 L-4.00 -15.00 L-4.00 -14.00 L-5.00 -14.00 L-5.00 -13.00 L-5.00 -12.00 L-4.00 -12.00 L-3.00 -12.00 L-3.00 -13.00 L-3.00 -14.00 L-4.00 -14.00 L-4.00 -15.00 L-5.00 -15.00 L-6.00 -15.00 L-6.00 -14.00 L-6.00 -15.00 L-7.00 -15.00 L-8.00 -15.00 L-8.00 -14.00 L-9.00 -14.00 L-9.00 -13.00 L-9.00 -12.00 L-8.00 -12.00 L-8.00 -13.00 L-9.00 -13.00 L-10.00 -13.00 L-10.00 -12.00 L-11.00 -12.00 L-11.00 -11.00 L-11.00 -10.00 L-10.00 -10.00 L-11.00 -10.00 L-11.00 -9.00 L-11.00 -8.00 L-10.00 -8.00 L-10.00 -7.00 L-9.00 -7.00 L-8.00 -7.00 L-8.00 -8.00 L-8.00 -7.00 L-7.00 -7.00 L-6.00 -7.00 L-6.00 -8.00 L-5.00 -8.00 L-5.00 -9.00 L-5.00 -10.00 L-6.00 -10.00 L-5.00 -10.00 L-5.00 -11.00 L-5.00 -12.00 L-6.00 -12.00 L-6.00 -13.00 L-7.00 -13.00 L-8.00 -13.00 L-8.00 -12.00 L-7.00 -12.00 L-7.00 -13.00 L-7.00 -14.00 L-8.00 -14.00 L-8.00 -15.00 L-9.00 -15.00 L-10.00 -15.00 L-10.00 -14.00 L-10.00 -15.00 L-11.00 -15.00 L-12.00 -15.00 L-12.00 -14.00 L-13.00 -14.00 L-13.00 -13.00 L-13.00 -12.00 L-12.00 -12.00 L-11.00 -12.00 L-11.00 -13.00 L-11.00 -14.00 L-12.00 -14.00 L-12.00 -15.00 L-13.00 -15.00 L-14.00 -15.00 L-14.00 -14.00 L-14.00 -15.00 L-15.00 -15.00 L-16.00 -15.00 L-16.00 -14.00 L-17.00 -14.00 L-17.00 -13.00 L-17.00 -12.00 L-16.00 -12.00 L-16.00 -13.00 L-17.00 -13.00 L-18.00 -13.00 L-18.00 -12.00 L-19.00 -12.00 L-19.00 -11.00 L-19.00 -10.00 L-18.00 -10.00 L-19.00 -10.00 L-19.00 -9.00 L-19.00 -8.00 L-18.00 -8.00 L-18.00 -7.00 L-17.00 -7.00 L-16.00 -7.00 L-16.00 -8.00 L-15.00 -8.00 L-15.00 -9.00 L-15.00 -10.00 L-16.00 -10.00 L-16.00 -11.00 L-17.00 -11.00 L-18.00 -11.00 L-18.00 -10.00 L-18.00 -11.00 L-19.00 -11.00 L-20.00 -11.00 L-20.00 -10.00 L-21.00 -10.00 L-21.00 -9.00 L-21.00 -8.00 L-20.00 -8.00 L-20.00 -9.00 L-21.00 -9.00 L-22.00 -9.00 L-22.00 -8.00 L-23.00 -8.00 L-23.00 -7.00 L-23.00 -6.00 L-22.00 -6.00 L-23.00 -6.00 L-23.00 -5.00 L-23.00 -4.00 L-22.00 -4.00 L-22.00 -3.00 L-21.00 -3.00 L-20.00 -3.00 L-20.00 -4.00 L-20.00 -5.00 L-21.00 -5.00 L-22.00 -5.00 L-22.00 -4.00 L-23.00 -4.00 L-23.00 -3.00 L-23.00 -2.00 L-22.00 -2.00 L-23.00 -2.00 L-23.00 -1.00 L-23.00 0.00 L-22.00 0.00 L-22.00 1.00 L-21.00 1.00 L-20.00 1.00 L-20.00 0.00 L-21.00 0.00 L-21.00 1.00 L-21.00 2.00 L-20.00 2.00 L-20.00 3.00 L-19.00 3.00 L-18.00 3.00 L-18.00 2.00 L-18.00 3.00 L-17.00 3.00 L-16.00 3.00 L-16.00 2.00 L-15.00 2.00 L-15.00 1.00 L-15.00 0.00 L-16.00 0.00 L-16.00 1.00 L-15.00 1.00 L-14.00 1.00 L-14.00 0.00 L-13.00 0.00 L-13.00 -1.00 L-13.00 -2.00 L-14.00 -2.00 L-13.00 -2.00 L-13.00 -3.00 L-13.00 -4.00 L-14.00 -4.00 L-14.00 -5.00 L-15.00 -5.00 L-16.00 -5.00 L-16.00 -4.00 L-15.00 -4.00 L-15.00 -5.00 L-15.00 -6.00 L-16.00 -6.00 L-16.00 -7.00 L-17.00 -7.00 L-18.00 -7.00 L-18.00 -6.00 L-18.00 -7.00 L-19.00 -7.00 L-20.00 -7.00 L-20.00 -6.00 L-21.00 -6.00 L-21.00 -5.00 L-21.00 -4.00 L-20.00 -4.00 L-19.00 -4.00 L-19.00 -5.00 L-19.00 -6.00 L-20.00 -6.00 L-20.00 -7.00 L-21.00 -7.00 L-22.00 -7.00 L-22.00 -6.00 L-22.00 -7.00 L-23.00 -7.00 L-24.00 -7.00 L-24.00 -6.00 L-25.00 -6.00 L-25.00 -5.00 L-25.00 -4.00 L-24.00 -4.00 L-24.00 -5.00 L-25.00 -5.00 L-26.00 -5.00 L-26.00 -4.00 L-27.00 -4.00 L-27.00 -3.00 L-27.00 -2.00 L-26.00 -2.00 L-27.00 -2.00 L-27.00 -1.00 L-27.00 0.00 L-26.00 0.00 L-26.00 1.00 L-25.00 1.00 L-24.00 1.00 L-24.00 0.00 L-23.00 0.00 L-23.00 -1.00 L-23.00 -2.00 L-24.00 -2.00 L-24.00 -3.00 L-25.00 -3.00 L-26.00 -3.00 L-26.00 -2.00 L-26.00 -3.00 L-27.00 -3.00 L-28.00 -3.00 L-28.00 -2.00 L-29.00 -2.00 L-29.00 -1.00 L-29.00 0.00 L-28.00 0.00 L-28.00 -1.00 L-29.00 -1.00 L-30.00 -1.00 L-30.00 0.00 L-31.00 0.00 L-31.00 1.00 L-31.00 2.00 L-30.00 2.00 L-31.00 2.00 L-31.00 3.00 L-31.00 4.00 L-30.00 4.00 L-30.00 5.00 L-29.00 5.00 L-28.00 5.00 L-28.00 4.00 L-28.00 3.00 L-29.00 3.00 L-30.00 3.00 L-30.00 4.00 L-31.00 4.00 L-31.00 5.00 L-31.00 6.00 L-30.00 6.00 L-31.00 6.00 L-31.00 7.00 L-31.00 8.00 L-30.00 8.00 L-30.00 9.00 L-29.00 9.00 L-28.00 9.00 L-28.00 8.00 L-29.00 8.00 L-29.00 9.00 L-29.00 10.00 L-28.00 10.00 L-28.00 11.00 L-27.00 11.00 L-26.00 11.00 L-26.00 10.00 L-26.00 11.00 L-25.00 11.00 L-24.00 11.00 L-24.00 10.00 L-23.00 10.00 L-23.00 9.00 L-23.00 8.00 L-24.00 8.00 L-23.00 8.00 L-23.00 7.00 L-23.00 6.00 L-24.00 6.00 L-24.00 5.00 L-25.00 5.00 L-26.00 5.00 L-26.00 6.00 L-26.00 5.00 L-27.00 5.00 L-28.00 5.00 L-28.00 6.00 L-29.00 6.00 L-29.00 7.00 L-29.00 8.00 L-28.00 8.00 L-28.00 7.00 L-29.00 7.00 L-30.00 7.00 L-30.00 8.00 L-31.00 8.00 L-31.00 9.00 L-31.00 10.00 L-30.00 10.00 L-31.00 10.00 L-31.00 11.00 L-31.00 12.00 L-30.00 12.00 L-30.00 13.00 L-29.00 13.00 L-28.00 13.00 L-28.00 12.00 L-28.00 11.00 L-29.00 11.00 L-30.00 11.00 L-30.00 12.00 L-31.00 12.00 L-31.00 13.00 L-31.00 14.00 L-30.00 14.00 L-31.00 14.00 L-31.00 15.00 L-31.00 16.00 L-30.00 16.00 L-30.00 17.00 L-29.00 17.00 L-28.00 17.00 L-28.00 16.00 L-29.00 16.00 L-29.00 17.00 L-29.00 18.00 L-28.00 18.00 L-28.00 19.00 L-27.00 19.00 L-26.00 19.00 L-26.00 18.00 L-26.00 19.00 L-25.00 19.00 L-24.00 19.00 L-24.00 18.00 L-23.00 18.00 L-23.00 17.00 L-23.00 16.00 L-24.00 16.00 L-24.00 15.00 L-25.00 15.00 L-26.00 15.00 L-26.00 16.00 L-27.00 16.00 L-27.00 17.00 L-27.00 18.00 L-26.00 18.00 L-27.00 18.00 L-27.00 19.00 L-27.00 20.00 L-26.00 20.00 L-26.00 21.00 L-25.00 21.00 L-24.00 21.00 L-24.00 20.00 L-25.00 20.00 L-25.00 21.00 L-25.00 22.00 L-24.00 22.00 L-24.00 23.00 L-23.00 23.00 L-22.00 23.00 L-22.00 22.00 L-22.00 23.00 L-21.00 23.00 L-20.00 23.00 L-20.00 22.00 L-19.00 22.00 L-19.00 21.00 L-19.00 20.00 L-20.00 20.00 L-21.00 20.00 L-21.00 21.00 L-21.00 22.00 L-20.00 22.00 L-20.00 23.00 L-19.00 23.00 L-18.00 23.00 L-18.00 22.00 L-18.00 23.00 L-17.00 23.00 L-16.00 23.00 L-16.00 22.00 L-15.00 22.00 L-15.00 21.00 L-15.00 20.00 L-16.00 20.00 L-16.00 21.00 L-15.00 21.00 L-14.00 21.00 L-14.00 20.00 L-13.00 20.00 L-13.00 19.00 L-13.00 18.00 L-14.00 18.00 L-13.00 18.00 L-13.00 17.00 L-13.00 16.00 L-14.00 16.00 L-14.00 15.00 L-15.00 15.00 L-16.00 15.00 L-16.00 16.00 L-16.00 17.00 L-15.00 17.00 L-14.00 17.00 L-14.00 16.00 L-13.00 16.00 L-13.00 15.00 L-13.00 14.00 L-14.00 14.00 L-13.00 14.00 L-13.00 13.00 L-13.00 12.00 L-14.00 12.00 L-14.00 11.00 L-15.00 11.00 L-16.00 11.00 L-16.00 12.00 L-15.00 12.00 L-15.00 11.00 L-15.00 10.00 L-16.00 10.00 L-16.00 9.00 L-17.00 9.00 L-18.00 9.00 L-18.00 10.00 L-18.00 9.00 L-19.00 9.00 L-20.00 9.00 L-20.00 10.00 L-21.00 10.00 L-21.00 11.00 L-21.00 12.00 L-20.00 12.00 L-19.00 12.00 L-19.00 11.00 L-19.00 10.00 L-20.00 10.00 L-20.00 9.00 L-21.00 9.00 L-22.00 9.00 L-22.00 10.00 L-22.00 9.00 L-23.00 9.00 L-24.00 9.00 L-24.00 10.00 L-25.00 10.00 L-25.00 11.00 L-25.00 12.00 L-24.00 12.00 L-24.00 11.00 L-25.00 11.00 L-26.00 11.00 L-26.00 12.00 L-27.00 12.00 L-27.00 13.00 L-27.00 14.00 L-26.00 14.00 L-27.00 14.00 L-27.00 15.00 L-27.00 16.00 L-26.00 16.00 L-26.00 17.00 L-25.00 17.00 L-24.00 17.00 L-24.00 16.00 L-23.00 16.00 L-23.00 15.00 L-23.00 14.00 L-24.00 14.00 L-24.00 13.00 L-25.00 13.00 L-26.00 13.00 L-26.00 14.00 L-26.00 13.00 L-27.00 13.00 L-28.00 13.00 L-28.00 14.00 L-29.00 14.00 L-29.00 15.00 L-29.00 16.00 L-28.00 16.00 L-28.00 15.00 L-29.00 15.00 L-30.00 15.00 L-30.00 16.00 L-31.00 16.00 L-31.00 17.00 L-31.00 18.00 L-30.00 18.00 L-31.00 18.00 L-31.00 19.00 L-31.00 20.00 L-30.00 20.00 L-30.00 21.00 L-29.00 21.00 L-28.00 21.00 L-28.00 20.00 L-28.00 19.00 L-29.00 19.00 L-30.00 19.00 L-30.00 20.00 L-31.00 20.00 L-31.00 21.00 L-31.00 22.00 L-30.00 22.00 L-31.00 22.00 L-31.00 23.00 L-31.00 24.00 L-30.00 24.00 L-30.00 25.00 L-29.00 25.00 L-28.00 25.00 L-28.00 24.00 L-29.00 24.00 L-29.00 25.00 L-29.00 26.00 L-28.00 26.00 L-28.00 27.00 L-27.00 27.00 L-26.00 27.00 L-26.00 26.00 L-26.00 27.00 L-25.00 27.00 L-24.00 27.00 L-24.00 26.00 L-23.00 26.00 L-23.00 25.00 L-23.00 24.00 L-24.00 24.00 L-23.00 24.00 L-23.00 23.00 L-23.00 22.00 L-24.00 22.00 L-24.00 21.00 L-25.00 21.00 L-26.00 21.00 L-26.00 22.00 L-26.00 21.00 L-27.00 21.00 L-28.00 21.00 L-28.00 22.00 L-29.00 22.00 L-29.00 23.00 L-29.00 24.00 L-28.00 24.00 L-28.00 23.00 L-29.00 23.00 L-30.00 23.00 L-30.00 24.00 L-31.00 24.00 L-31.00 25.00 L-31.00 26.00 L-30.00 26.00 L-31.00 26.00 L-31.00 27.00 L-31.00 28.00 L-30.00 28.00 L-30.00 29.00 L-29.00 29.00 L-28.00 29.00 L-28.00 28.00 L-28.00 27.00 L-29.00 27.00 L-30.00 27.00 L-30.00 28.00 L-31.00 28.00 L-31.00 29.00 L-31.00 30.00 L-30.00 30.00 L-31.00 30.00 L-31.00 31.00 L-31.00 32.00 L-30.00 32.00 L-30.00 33.00 L-29.00 33.00 L-28.00 33.00 L-28.00 32.00 L-29.00 32.00 L-29.00 33.00 L-29.00 34.00 L-28.00 34.00 L-28.00 35.00 L-27.00 35.00 L-26.00 35.00 L-26.00 34.00 L-26.00 35.00 L-25.00 35.00 L-24.00 35.00 L-24.00 34.00 L-23.00 34.00 L-23.00 33.00 L-23.00 32.00 L-24.00 32.00 L-24.00 31.00 L-25.00 31.00 L-26.00 31.00 L-26.00 32.00 L-27.00 32.00 L-27.00 33.00 L-27.00 34.00 L-26.00 34.00 L-27.00 34.00 L-27.00 35.00 L-27.00 36.00 L-26.00 36.00 L-26.00 37.00 L-25.00 37.00 L-24.00 37.00 L-24.00 36.00 L-25.00 36.00 L-25.00 37.00 L-25.00 38.00 L-24.00 38.00 L-24.00 39.00 L-23.00 39.00 L-22.00 39.00 L-22.00 38.00 L-22.00 39.00 L-21.00 39.00 L-20.00 39.00 L-20.00 38.00 L-19.00 38.00 L-19.00 37.00 L-19.00 36.00 L-20.00 36.00 L-21.00 36.00 L-21.00 37.00 L-21.00 38.00 L-20.00 38.00 L-20.00 39.00 L-19.00 39.00 L-18.00 39.00 L-18.00 38.00 L-18.00 39.00 L-17.00 39.00 L-16.00 39.00 L-16.00 38.00 L-15.00 38.00 L-15.00 37.00 L-15.00 36.00 L-16.00 36.00 L-16.00 37.00 L-15.00 37.00 L-14.00 37.00 L-14.00 36.00 L-13.00 36.00 L-13.00 35.00 L-13.00 34.00 L-14.00 34.00 L-13.00 34.00 L-13.00 33.00 L-13.00 32.00 L-14.00 32.00 L-14.00 31.00 L-15.00 31.00 L-16.00 31.00 L-16.00 32.00 L-15.00 32.00 L-15.00 31.00 L-15.00 30.00 L-16.00 30.00 L-16.00 29.00 L-17.00 29.00 L-18.00 29.00 L-18.00 30.00 L-18.00 29.00 L-19.00 29.00 L-20.00 29.00 L-20.00 30.00 L-21.00 30.00 L-21.00 31.00 L-21.00 32.00 L-20.00 32.00 L-20.00 31.00 L-21.00 31.00 L-22.00 31.00 L-22.00 32.00 L-23.00 32.00 L-23.00 33.00 L-23.00 34.00 L-22.00 34.00 L-23.00 34.00 L-23.00 35.00 L-23.00 36.00 L-22.00 36.00 L-22.00 37.00 L-21.00 37.00 L-20.00 37.00 L-20.00 36.00 L-20.00 35.00 L-21.00 35.00 L-22.00 35.00 L-22.00 36.00 L-23.00 36.00 L-23.00 37.00 L-23.00 38.00 L-22.00 38.00 L-23.00 38.00 L-23.00 39.00 L-23.00 40.00 L-22.00 40.00 L-22.00 41.00 L-21.00 41.00 L-20.00 41.00 L-20.00 40.00 L-21.00 40.00 L-21.00 41.00 L-21.00 42.00 L-20.00 42.00 L-20.00 43.00 L-19.00 43.00 L-18.00 43.00 L-18.00 42.00 L-18.00 43.00 L-17.00 43.00 L-16.00 43.00 L-16.00 42.00 L-15.00 42.00 L-15.00 41.00 L-15.00 40.00 L-16.00 40.00 L-16.00 39.00 L-17.00 39.00 L-18.00 39.00 L-18.00 40.00 L-19.00 40.00 L-19.00 41.00 L-19.00 42.00 L-18.00 42.00 L-19.00 42.00 L-19.00 43.00 L-19.00 44.00 L-18.00 44.00 L-18.00 45.00 L-17.00 45.00 L-16.00 45.00 L-16.00 44.00 L-17.00 44.00 L-17.00 45.00 L-17.00 46.00 L-16.00 46.00 L-16.00 47.00 L-15.00 47.00 L-14.00 47.00 L-14.00 46.00 L-14.00 47.00 L-13.00 47.00 L-12.00 47.00 L-12.00 46.00 L-11.00 46.00 L-11.00 45.00 L-11.00 44.00 L-12.00 44.00 L-13.00 44.00 L-13.00 45.00 L-13.00 46.00 L-12.00 46.00 L-12.00 47.00 L-11.00 47.00 L-10.00 47.00 L-10.00 46.00 L-10.00 47.00 L-9.00 47.00 L-8.00 47.00 L-8.00 46.00 L-7.00 46.00 L-7.00 45.00 L-7.00 44.00 L-8.00 44.00 L-8.00 45.00 L-7.00 45.00 L-6.00 45.00 L-6.00 44.00 L-5.00 44.00 L-5.00 43.00 L-5.00 42.00 L-6.00 42.00 L-5.00 42.00 L-5.00 41.00 L-5.00 40.00 L-6.00 40.00 L-6.00 39.00 L-7.00 39.00 L-8.00 39.00 L-8.00 40.00 L-8.00 39.00 L-9.00 39.00 L-10.00 39.00 L-10.00 40.00 L-11.00 40.00 L-11.00 41.00 L-11.00 42.00 L-10.00 42.00 L-11.00 42.00 L-11.00 43.00 L-11.00 44.00 L-10.00 44.00 L-10.00 45.00 L-9.00 45.00 L-8.00 45.00 L-8.00 44.00 L-9.00 44.00 L-9.00 45.00 L-9.00 46.00 L-8.00 46.00 L-8.00 47.00 L-7.00 47.00 L-6.00 47.00 L-6.00 46.00 L-6.00 47.00 L-5.00 47.00 L-4.00 47.00 L-4.00 46.00 L-3.00 46.00 L-3.00 45.00 L-3.00 44.00 L-4.00 44.00 L-5.00 44.00 L-5.00 45.00 L-5.00 46.00 L-4.00 46.00 L-4.00 47.00 L-3.00 47.00 L-2.00 47.00 L-2.00 46.00 L-2.00 47.00 L-1.00 47.00 L0.00 47.00 L-0.00 46.00 L1.00 46.00 L1.00 45.00 L1.00 44.00 L-0.00 44.00 L-0.00 45.00 L1.00 45.00 L2.00 45.00 L2.00 44.00 L3.00 44.00 L3.00 43.00 L3.00 42.00 L2.00 42.00 L3.00 42.00 L3.00 41.00 L3.00 40.00 L2.00 40.00 L2.00 39.00 L1.00 39.00 L-0.00 39.00 L-0.00 40.00 L-1.00 40.00 L-1.00 41.00 L-1.00 42.00 L-0.00 42.00 L-0.00 43.00 L1.00 43.00 L2.00 43.00 L2.00 42.00 L2.00 43.00 L3.00 43.00 L4.00 43.00 L4.00 42.00 L5.00 42.00 L5.00 41.00 L5.00 40.00 L4.00 40.00 L4.00 41.00 L5.00 41.00 L6.00 41.00 L6.00 40.00 L7.00 40.00 L7.00 39.00 L7.00 38.00 L6.00 38.00 L7.00 38.00 L7.00 37.00 L7.00 36.00 L6.00 36.00 L6.00 35.00 L5.00 35.00 L4.00 35.00 L4.00 36.00 L4.00 37.00 L5.00 37.00 L6.00 37.00 L6.00 36.00 L7.00 36.00 L7.00 35.00 L7.00 34.00 L6.00 34.00 L7.00 34.00 L7.00 33.00 L7.00 32.00 L6.00 32.00 L6.00 31.00 L5.00 31.00 L4.00 31.00 L4.00 32.00 L5.00 32.00 L5.00 31.00 L5.00 30.00 L4.00 30.00 L4.00 29.00 L3.00 29.00 L2.00 29.00 L2.00 30.00 L2.00 29.00 L1.00 29.00 L0.00 29.00 L0.00 30.00 L-1.00 30.00 L-1.00 31.00 L-1.00 32.00 L0.00 32.00 L0.00 33.00 L1.00 33.00 L2.00 33.00 L2.00 32.00 L3.00 32.00 L3.00 31.00 L3.00 30.00 L2.00 30.00 L3.00 30.00 L3.00 29.00 L3.00 28.00 L2.00 28.00 L2.00 27.00 L1.00 27.00 L0.00 27.00 L-0.00 28.00 L1.00 28.00 L1.00 27.00 L1.00 26.00 L-0.00 26.00 L-0.00 25.00 L-1.00 25.00 L-2.00 25.00 L-2.00 26.00 L-2.00 25.00 L-3.00 25.00 L-4.00 25.00 L-4.00 26.00 L-5.00 26.00 L-5.00 27.00 L-5.00 28.00 L-4.00 28.00 L-3.00 28.00 L-3.00 27.00 L-3.00 26.00 L-4.00 26.00 L-4.00 25.00 L-5.00 25.00 L-6.00 25.00 L-6.00 26.00 L-6.00 25.00 L-7.00 25.00 L-8.00 25.00 L-8.00 26.00 L-9.00 26.00 L-9.00 27.00 L-9.00 28.00 L-8.00 28.00 L-8.00 27.00 L-9.00 27.00 L-10.00 27.00 L-10.00 28.00 L-11.00 28.00 L-11.00 29.00 L-11.00 30.00 L-10.00 30.00 L-11.00 30.00 L-11.00 31.00 L-11.00 32.00 L-10.00 32.00 L-10.00 33.00 L-9.00 33.00 L-8.00 33.00 L-8.00 32.00 L-7.00 32.00 L-7.00 31.00 L-7.00 30.00 L-8.00 30.00 L-8.00 29.00 L-9.00 29.00 L-10.00 29.00 L-10.00 30.00 L-10.00 29.00 L-11.00 29.00 L-12.00 29.00 L-12.00 30.00 L-13.00 30.00 L-13.00 31.00 L-13.00 32.00 L-12.00 32.00 L-12.00 31.00 L-13.00 31.00 L-14.00 31.00 L-14.00 32.00 L-15.00 32.00 L-15.00 33.00 L-15.00 34.00 L-14.00 34.00 L-15.00 34.00 L-15.00 35.00 L-15.00 36.00 L-14.00 36.00 L-14.00 37.00 L-13.00 37.00 L-12.00 37.00 L-12.00 36.00 L-12.00 35.00 L-13.00 35.00 L-14.00 35.00 L-14.00 36.00 L-15.00 36.00 L-15.00 37.00 L-15.00 38.00 L-14.00 38.00 L-15.00 38.00 L-15.00 39.00 L-15.00 40.00 L-14.00 40.00 L-14.00 41.00 L-13.00 41.00 L-12.00 41.00 L-12.00 40.00 L-13.00 40.00 L-13.00 41.00 L-13.00 42.00 L-12.00 42.00 L-12.00 43.00 L-11.00 43.00 L-10.00 43.00 L-10.00 42.00 L-10.00 43.00 L-9.00 43.00 L-8.00 43.00 L-8.00 42.00 L-7.00 42.00 L-7.00 41.00 L-7.00 40.00 L-8.00 40.00 L-7.00 40.00 L-7.00 39.00 L-7.00 38.00 L-8.00 38.00 L-8.00 37.00 L-9.00 37.00 L-10.00 37.00 L-10.00 38.00 L-10.00 37.00 L-11.00 37.00 L-12.00 37.00 L-12.00 38.00 L-13.00 38.00 L-13.00 39.00 L-13.00 40.00 L-12.00 40.00 L-12.00 39.00 L-13.00 39.00 L-14.00 39.00 L-14.00 40.00 L-15.00 40.00 L-15.00 41.00 L-15.00 42.00 L-14.00 42.00 L-15.00 42.00 L-15.00 43.00 L-15.00 44.00 L-14.00 44.00 L-14.00 45.00 L-13.00 45.00 L-12.00 45.00 L-12.00 44.00 L-12.00 43.00 L-13.00 43.00 L-14.00 43.00 L-14.00 44.00 L-15.00 44.00 L-15.00 45.00 L-15.00 46.00 L-14.00 46.00 L-15.00 46.00 L-15.00 47.00 L-15.00 48.00 L-14.00 48.00 L-14.00 49.00 L-13.00 49.00 L-12.00 49.00 L-12.00 48.00 L-13.00 48.00 L-13.00 49.00 L-13.00 50.00 L-12.00 50.00 L-12.00 51.00 L-11.00 51.00 L-10.00 51.00 L-10.00 50.00 L-10.00 51.00 L-9.00 51.00 L-8.00 51.00 L-8.00 50.00 L-7.00 50.00 L-7.00 49.00 L-7.00 48.00 L-8.00 48.00 L-8.00 47.00 L-9.00 47.00 L-10.00 47.00 L-10.00 48.00 L-11.00 48.00 L-11.00 49.00 L-11.00 50.00 L-10.00 50.00 L-11.00 50.00 L-11.00 51.00 L-11.00 52.00 L-10.00 52.00 L-10.00 53.00 L-9.00 53.00 L-8.00 53.00 L-8.00 52.00 L-9.00 52.00 L-9.00 53.00 L-9.00 54.00 L-8.00 54.00 L-8.00 55.00 L-7.00 55.00 L-6.00 55.00 L-6.00 54.00 L-6.00 55.00 L-5.00 55.00 L-4.00 55.00 L-4.00 54.00 L-3.00 54.00 L-3.00 53.00 L-3.00 52.00 L-4.00 52.00 L-5.00 52.00 L-5.00 53.00 L-5.00 54.00 L-4.00 54.00 L-4.00 55.00 L-3.00 55.00 L-2.00 55.00 L-2.00 54.00 L-2.00 55.00 L-1.00 55.00 L0.00 55.00 L-0.00 54.00 L1.00 54.00 L1.00 53.00 L1.00 52.00 L-0.00 52.00 L-0.00 53.00 L1.00 53.00 L2.00 53.00 L2.00 52.00 L3.00 52.00 L3.00 51.00 L3.00 50.00 L2.00 50.00 L3.00 50.00 L3.00 49.00 L3.00 48.00 L2.00 48.00 L2.00 47.00 L1.00 47.00 L-0.00 47.00 L-0.00 48.00 L1.00 48.00 L1.00 47.00 L1.00 46.00 L-0.00 46.00 L-0.00 45.00 L-1.00 45.00 L-2.00 45.00 L-2.00 46.00 L-2.00 45.00 L-3.00 45.00 L-4.00 45.00 L-4.00 46.00 L-5.00 46.00 L-5.00 47.00 L-5.00 48.00 L-4.00 48.00 L-4.00 47.00 L-5.00 47.00 L-6.00 47.00 L-6.00 48.00 L-7.00 48.00 L-7.00 49.00 L-7.00 50.00 L-6.00 50.00 L-7.00 50.00 L-7.00 51.00 L-7.00 52.00 L-6.00 52.00 L-6.00 53.00 L-5.00 53.00 L-4.00 53.00 L-4.00 52.00 L-4.00 51.00 L-5.00 51.00 L-6.00 51.00 L-6.00 52.00 L-7.00 52.00 L-7.00 53.00 L-7.00 54.00 L-6.00 54.00 L-7.00 54.00 L-7.00 55.00 L-7.00 56.00 L-6.00 56.00 L-6.00 57.00 L-5.00 57.00 L-4.00 57.00 L-4.00 56.00 L-5.00 56.00 L-5.00 57.00 L-5.00 58.00 L-4.00 58.00 L-4.00 59.00 L-3.00 59.00 L-2.00 59.00 L-2.00 58.00 L-2.00 59.00 L-1.00 59.00 L0.00 59.00 L-0.00 58.00 L1.00 58.00 L1.00 57.00 L1.00 56.00 L-0.00 56.00 L-0.00 55.00 L-1.00 55.00 L-2.00 55.00 L-2.00 56.00 L-3.00 56.00 L-3.00 57.00 L-3.00 58.00 L-2.00 58.00 L-3.00 58.00 L-3.00 59.00 L-3.00 60.00 L-2.00 60.00 L-2.00 61.00 L-1.00 61.00 L0.00 61.00 L-0.00 60.00 L-1.00 60.00 L-1.00 61.00 L-1.00 62.00 L0.00 62.00 L-0.00 63.00 L1.00 63.00 L2.00 63.00 L2.00 62.00 L2.00 63.00 L3.00 63.00 L4.00 63.00 L4.00 62.00 L5.00 62.00 L5.00 61.00 L5.00 60.00 L4.00 60.00 L3.00 60.00 L3.00 61.00 L3.00 62.00 L4.00 62.00 L4.00 63.00 L5.00 63.00 L6.00 63.00 L6.00 62.00 L6.00 63.00 L7.00 63.00 L8.00 63.00 L8.00 62.00 L9.00 62.00 L9.00 61.00 L9.00 60.00 L8.00 60.00 L8.00 61.00 L9.00 61.00 L10.00 61.00 L10.00 60.00 L11.00 60.00 L11.00 59.00 L11.00 58.00 L10.00 58.00 L11.00 58.00 L11.00 57.00 L11.00 56.00 L10.00 56.00 L10.00 55.00 L9.00 55.00 L8.00 55.00 L8.00 56.00 L8.00 55.00 L7.00 55.00 L6.00 55.00 L6.00 56.00 L5.00 56.00 L5.00 57.00 L5.00 58.00 L6.00 58.00 L5.00 58.00 L5.00 59.00 L5.00 60.00 L6.00 60.00 L6.00 61.00 L7.00 61.00 L8.00 61.00 L8.00 60.00 L7.00 60.00 L7.00 61.00 L7.00 62.00 L8.00 62.00 L8.00 63.00 L9.00 63.00 L10.00 63.00 L10.00 62.00 L10.00 63.00 L11.00 63.00 L12.00 63.00 L12.00 62.00 L13.00 62.00 L13.00 61.00 L13.00 60.00 L12.00 60.00 L11.00 60.00 L11.00 61.00 L11.00 62.00 L12.00 62.00 L12.00 63.00 L13.00 63.00 L14.00 63.00 L14.00 62.00 L14.00 63.00 L15.00 63.00 L16.00 63.00 L16.00 62.00 L17.00 62.00 L17.00 61.00 L17.00 60.00 L16.00 60.00 L16.00 61.00 L17.00 61.00 L18.00 61.00 L18.00 60.00 L19.00 60.00 L19.00 59.00 L19.00 58.00 L18.00 58.00 L19.00 58.00 L19.00 57.00 L19.00 56.00 L18.00 56.00 L18.00 55.00 L17.00 55.00 L16.00 55.00 L16.00 56.00 L15.00 56.00 L15.00 57.00 L15.00 58.00 L16.00 58.00 L16.00 59.00 L17.00 59.00 L18.00 59.00 L18.00 58.00 L18.00 59.00 L19.00 59.00 L20.00 59.00 L20.00 58.00 L21.00 58.00 L21.00 57.00 L21.00 56.00 L20.00 56.00 L20.00 57.00 L21.00 57.00 L22.00 57.00 L22.00 56.00 L23.00 56.00 L23.00 55.00 L23.00 54.00 L22.00 54.00 L23.00 54.00 L23.00 53.00 L23.00 52.00 L22.00 52.00 L22.00 51.00 L21.00 51.00 L20.00 51.00 L20.00 52.00 L20.00 53.00 L21.00 53.00 L22.00 53.00 L22.00 52.00 L23.00 52.00 L23.00 51.00 L23.00 50.00 L22.00 50.00 L23.00 50.00 L23.00 49.00 L23.00 48.00 L22.00 48.00 L22.00 47.00 L21.00 47.00 L20.00 47.00 L20.00 48.00 L21.00 48.00 L21.00 47.00 L21.00 46.00 L20.00 46.00 L20.00 45.00 L19.00 45.00 L18.00 45.00 L18.00 46.00 L18.00 45.00 L17.00 45.00 L16.00 45.00 L16.00 46.00 L15.00 46.00 L15.00 47.00 L15.00 48.00 L16.00 48.00 L17.00 48.00 L17.00 47.00 L17.00 46.00 L16.00 46.00 L16.00 45.00 L15.00 45.00 L14.00 45.00 L14.00 46.00 L14.00 45.00 L13.00 45.00 L12.00 45.00 L12.00 46.00 L11.00 46.00 L11.00 47.00 L11.00 48.00 L12.00 48.00 L12.00 47.00 L11.00 47.00 L10.00 47.00 L10.00 48.00 L9.00 48.00 L9.00 49.00 L9.00 50.00 L10.00 50.00 L9.00 50.00 L9.00 51.00 L9.00 52.00 L10.00 52.00 L10.00 53.00 L11.00 53.00 L12.00 53.00 L12.00 52.00 L12.00 51.00 L11.00 51.00 L10.00 51.00 L10.00 52.00 L9.00 52.00 L9.00 53.00 L9.00 54.00 L10.00 54.00 L9.00 54.00 L9.00 55.00 L9.00 56.00 L10.00 56.00 L10.00 57.00 L11.00 57.00 L12.00 57.00 L12.00 56.00 L11.00 56.00 L11.00 57.00 L11.00 58.00 L12.00 58.00 L12.00 59.00 L13.00 59.00 L14.00 59.00 L14.00 58.00 L14.00 59.00 L15.00 59.00 L16.00 59.00 L16.00 58.00 L17.00 58.00 L17.00 57.00 L17.00 56.00 L16.00 56.00 L16.00 55.00 L15.00 55.00 L14.00 55.00 L14.00 56.00 L13.00 56.00 L13.00 57.00 L13.00 58.00 L14.00 58.00 L13.00 58.00 L13.00 59.00 L13.00 60.00 L14.00 60.00 L14.00 61.00 L15.00 61.00 L16.00 61.00 L16.00 60.00 L15.00 60.00 L15.00 61.00 L15.00 62.00 L16.00 62.00 L16.00 63.00 L17.00 63.00 L18.00 63.00 L18.00 62.00 L18.00 63.00 L19.00 63.00 L20.00 63.00 L20.00 62.00 L21.00 62.00 L21.00 61.00 L21.00 60.00 L20.00 60.00 L19.00 60.00 L19.00 61.00 L19.00 62.00 L20.00 62.00 L20.00 63.00 L21.00 63.00 L22.00 63.00 L22.00 62.00 L22.00 63.00 L23.00 63.00 L24.00 63.00 L24.00 62.00 L25.00 62.00 L25.00 61.00 L25.00 60.00 L24.00 60.00 L24.00 61.00 L25.00 61.00 L26.00 61.00 L26.00 60.00 L27.00 60.00 L27.00 59.00 L27.00 58.00 L26.00 58.00 L27.00 58.00 L27.00 57.00 L27.00 56.00 L26.00 56.00 L26.00 55.00 L25.00 55.00 L24.00 55.00 L24.00 56.00 L24.00 55.00 L23.00 55.00 L22.00 55.00 L22.00 56.00 L21.00 56.00 L21.00 57.00 L21.00 58.00 L22.00 58.00 L21.00 58.00 L21.00 59.00 L21.00 60.00 L22.00 60.00 L22.00 61.00 L23.00 61.00 L24.00 61.00 L24.00 60.00 L23.00 60.00 L23.00 61.00 L23.00 62.00 L24.00 62.00 L24.00 63.00 L25.00 63.00 L26.00 63.00 L26.00 62.00 L26.00 63.00 L27.00 63.00 L28.00 63.00 L28.00 62.00 L29.00 62.00 L29.00 61.00 L29.00 60.00 L28.00 60.00 L27.00 60.00 L27.00 61.00 L27.00 62.00 L28.00 62.00 L28.00 63.00 L29.00 63.00 L30.00 63.00 L30.00 62.00 L30.00 63.00 L31.00 63.00 L32.00 63.00 L32.00 62.00 L33.00 62.00 L33.00 61.00 L33.00 60.00 L32.00 60.00 L32.00 61.00 L33.00 61.00 L34.00 61.00 L34.00 60.00 L35.00 60.00 L35.00 59.00 L35.00 58.00 L34.00 58.00 L35.00 58.00 L35.00 57.00 L35.00 56.00 L34.00 56.00 L34.00 55.00 L33.00 55.00 L32.00 55.00 L32.00 56.00 L31.00 56.00 L31.00 57.00 L31.00 58.00 L32.00 58.00 L32.00 59.00 L33.00 59.00 L34.00 59.00 L34.00 58.00 L34.00 59.00 L35.00 59.00 L36.00 59.00 L36.00 58.00 L37.00 58.00 L37.00 57.00 L37.00 56.00 L36.00 56.00 L36.00 57.00 L37.00 57.00 L38.00 57.00 L38.00 56.00 L39.00 56.00 L39.00 55.00 L39.00 54.00 L38.00 54.00 L39.00 54.00 L39.00 53.00 L39.00 52.00 L38.00 52.00 L38.00 51.00 L37.00 51.00 L36.00 51.00 L36.00 52.00 L36.00 53.00 L37.00 53.00 L38.00 53.00 L38.00 52.00 L39.00 52.00 L39.00 51.00 L39.00 50.00 L38.00 50.00 L39.00 50.00 L39.00 49.00 L39.00 48.00 L38.00 48.00 L38.00 47.00 L37.00 47.00 L36.00 47.00 L36.00 48.00 L37.00 48.00 L37.00 47.00 L37.00 46.00 L36.00 46.00 L36.00 45.00 L35.00 45.00 L34.00 45.00 L34.00 46.00 L34.00 45.00 L33.00 45.00 L32.00 45.00 L32.00 46.00 L31.00 46.00 L31.00 47.00 L31.00 48.00 L32.00 48.00 L32.00 47.00 L31.00 47.00 L30.00 47.00 L30.00 48.00 L29.00 48.00 L29.00 49.00 L29.00 50.00 L30.00 50.00 L29.00 50.00 L29.00 51.00 L29.00 52.00 L30.00 52.00 L30.00 53.00 L31.00 53.00 L32.00 53.00 L32.00 52.00 L31.00 52.00 L31.00 53.00 L31.00 54.00 L32.00 54.00 L32.00 55.00 L33.00 55.00 L34.00 55.00 L34.00 54.00 L34.00 55.00 L35.00 55.00 L36.00 55.00 L36.00 54.00 L37.00 54.00 L37.00 53.00 L37.00 52.00 L36.00 52.00 L35.00 52.00 L35.00 53.00 L35.00 54.00 L36.00 54.00 L36.00 55.00 L37.00 55.00 L38.00 55.00 L38.00 54.00 L38.00 55.00 L39.00 55.00 L40.00 55.00 L40.00 54.00 L41.00 54.00 L41.00 53.00 L41.00 52.00 L40.00 52.00 L40.00 53.00 L41.00 53.00 L42.00 53.00 L42.00 52.00 L43.00 52.00 L43.00 51.00 L43.00 50.00 L42.00 50.00 L43.00 50.00 L43.00 49.00 L43.00 48.00 L42.00 48.00 L42.00 47.00 L41.00 47.00 L40.00 47.00 L40.00 48.00 L39.00 48.00 L39.00 49.00 L39.00 50.00 L40.00 50.00 L40.00 51.00 L41.00 51.00 L42.00 51.00 L42.00 50.00 L42.00 51.00 L43.00 51.00 L44.00 51.00 L44.00 50.00 L45.00 50.00 L45.00 49.00 L45.00 48.00 L44.00 48.00 L44.00 49.00 L45.00 49.00 L46.00 49.00 L46.00 48.00 L47.00 48.00 L47.00 47.00 L47.00 46.00 L46.00 46.00 L47.00 46.00 L47.00 45.00 L47.00 44.00 L46.00 44.00 L46.00 43.00 L45.00 43.00 L44.00 43.00 L44.00 44.00 L44.00 45.00 L45.00 45.00 L46.00 45.00 L46.00 44.00 L47.00 44.00 L47.00 43.00 L47.00 42.00 L46.00 42.00 L47.00 42.00 L47.00 41.00 L47.00 40.00 L46.00 40.00 L46.00 39.00 L45.00 39.00 L44.00 39.00 L44.00 40.00 L45.00 40.00 L45.00 39.00 L45.00 38.00 L44.00 38.00 L44.00 37.00 L43.00 37.00 L42.00 37.00 L42.00 38.00 L42.00 37.00 L41.00 37.00 L40.00 37.00 L40.00 38.00 L39.00 38.00 L39.00 39.00 L39.00 40.00 L40.00 40.00 L39.00 40.00 L39.00 41.00 L39.00 42.00 L40.00 42.00 L40.00 43.00 L41.00 43.00 L42.00 43.00 L42.00 42.00 L42.00 43.00 L43.00 43.00 L44.00 43.00 L44.00 42.00 L45.00 42.00 L45.00 41.00 L45.00 40.00 L44.00 40.00 L44.00 41.00 L45.00 41.00 L46.00 41.00 L46.00 40.00 L47.00 40.00 L47.00 39.00 L47.00 38.00 L46.00 38.00 L47.00 38.00 L47.00 37.00 L47.00 36.00 L46.00 36.00 L46.00 35.00 L45.00 35.00 L44.00 35.00 L44.00 36.00 L44.00 37.00 L45.00 37.00 L46.00 37.00 L46.00 36.00 L47.00 36.00 L47.00 35.00 L47.00 34.00 L46.00 34.00 L47.00 34.00 L47.00 33.00 L47.00 32.00 L46.00 32.00 L46.00 31.00 L45.00 31.00 L44.00 31.00 L44.00 32.00 L45.00 32.00 L45.00 31.00 L45.00 30.00 L44.00 30.00 L44.00 29.00 L43.00 29.00 L42.00 29.00 L42.00 30.00 L42.00 29.00 L41.00 29.00 L40.00 29.00 L40.00 30.00 L39.00 30.00 L39.00 31.00 L39.00 32.00 L40.00 32.00 L40.00 33.00 L41.00 33.00 L42.00 33.00 L42.00 32.00 L43.00 32.00 L43.00 31.00 L43.00 30.00 L42.00 30.00 L43.00 30.00 L43.00 29.00 L43.00 28.00 L42.00 28.00 L42.00 27.00 L41.00 27.00 L40.00 27.00 L40.00 28.00 L41.00 28.00 L41.00 27.00 L41.00 26.00 L40.00 26.00 L40.00 25.00 L39.00 25.00 L38.00 25.00 L38.00 26.00 L38.00 25.00 L37.00 25.00 L36.00 25.00 L36.00 26.00 L35.00 26.00 L35.00 27.00 L35.00 28.00 L36.00 28.00 L37.00 28.00 L37.00 27.00 L37.00 26.00 L36.00 26.00 L36.00 25.00 L35.00 25.00 L34.00 25.00 L34.00 26.00 L34.00 25.00 L33.00 25.00 L32.00 25.00 L32.00 26.00 L31.00 26.00 L31.00 27.00 L31.00 28.00 L32.00 28.00 L32.00 27.00 L31.00 27.00 L30.00 27.00 L30.00 28.00 L29.00 28.00 L29.00 29.00 L29.00 30.00 L30.00 30.00 L29.00 30.00 L29.00 31.00 L29.00 32.00 L30.00 32.00 L30.00 33.00 L31.00 33.00 L32.00 33.00 L32.00 32.00 L32.00 33.00 L33.00 33.00 L34.00 33.00 L34.00 32.00 L35.00 32.00 L35.00 31.00 L35.00 30.00 L34.00 30.00 L35.00 30.00 L35.00 29.00 L35.00 28.00 L34.00 28.00 L34.00 27.00 L33.00 27.00 L32.00 27.00 L32.00 28.00 L33.00 28.00 L33.00 27.00 L33.00 26.00 L32.00 26.00 L32.00 25.00 L31.00 25.00 L30.00 25.00 L30.00 26.00 L30.00 25.00 L29.00 25.00 L28.00 25.00 L28.00 26.00 L27.00 26.00 L27.00 27.00 L27.00 28.00 L28.00 28.00 L29.00 28.00 L29.00 27.00 L29.00 26.00 L28.00 26.00 L28.00 25.00 L27.00 25.00 L26.00 25.00 L26.00 26.00 L26.00 25.00 L25.00 25.00 L24.00 25.00 L24.00 26.00 L23.00 26.00 L23.00 27.00 L23.00 28.00 L24.00 28.00 L24.00 27.00 L23.00 27.00 L22.00 27.00 L22.00 28.00 L21.00 28.00 L21.00 29.00 L21.00 30.00 L22.00 30.00 L21.00 30.00 L21.00 31.00 L21.00 32.00 L22.00 32.00 L22.00 33.00 L23.00 33.00 L24.00 33.00 L24.00 32.00 L25.00 32.00 L25.00 31.00 L25.00 30.00 L24.00 30.00 L24.00 29.00 L23.00 29.00 L22.00 29.00 L22.00 30.00 L22.00 29.00 L21.00 29.00 L20.00 29.00 L20.00 30.00 L19.00 30.00 L19.00 31.00 L19.00 32.00 L20.00 32.00 L20.00 31.00 L19.00 31.00 L18.00 31.00 L18.00 32.00 L17.00 32.00 L17.00 33.00 L17.00 34.00 L18.00 34.00 L17.00 34.00 L17.00 35.00 L17.00 36.00 L18.00 36.00 L18.00 37.00 L19.00 37.00 L20.00 37.00 L20.00 36.00 L20.00 35.00 L19.00 35.00 L18.00 35.00 L18.00 36.00 L17.00 36.00 L17.00 37.00 L17.00 38.00 L18.00 38.00 L17.00 38.00 L17.00 39.00 L17.00 40.00 L18.00 40.00 L18.00 41.00 L19.00 41.00 L20.00 41.00 L20.00 40.00 L19.00 40.00 L19.00 41.00 L19.00 42.00 L20.00 42.00 L20.00 43.00 L21.00 43.00 L22.00 43.00 L22.00 42.00 L22.00 43.00 L23.00 43.00 L24.00 43.00 L24.00 42.00 L25.00 42.00 L25.00 41.00 L25.00 40.00 L24.00 40.00 L25.00 40.00 L25.00 39.00 L25.00 38.00 L24.00 38.00 L24.00 37.00 L23.00 37.00 L22.00 37.00 L22.00 38.00 L22.00 37.00 L21.00 37.00 L20.00 37.00 L20.00 38.00 L19.00 38.00 L19.00 39.00 L19.00 40.00 L20.00 40.00 L20.00 39.00 L19.00 39.00 L18.00 39.00 L18.00 40.00 L17.00 40.00 L17.00 41.00 L17.00 42.00 L18.00 42.00 L17.00 42.00 L17.00 43.00 L17.00 44.00 L18.00 44.00 L18.00 45.00 L19.00 45.00 L20.00 45.00 L20.00 44.00 L20.00 43.00 L19.00 43.00 L18.00 43.00 L18.00 44.00 L17.00 44.00 L17.00 45.00 L17.00 46.00 L18.00 46.00 L17.00 46.00 L17.00 47.00 L17.00 48.00 L18.00 48.00 L18.00 49.00 L19.00 49.00 L20.00 49.00 L20.00 48.00 L19.00 48.00 L19.00 49.00 L19.00 50.00 L20.00 50.00 L20.00 51.00 L21.00 51.00 L22.00 51.00 L22.00 50.00 L22.00 51.00 L23.00 51.00 L24.00 51.00 L24.00 50.00 L25.00 50.00 L25.00 49.00 L25.00 48.00 L24.00 48.00 L24.00 47.00 L23.00 47.00 L22.00 47.00 L22.00 48.00 L21.00 48.00 L21.00 49.00 L21.00 50.00 L22.00 50.00 L21.00 50.00 L21.00 51.00 L21.00 52.00 L22.00 52.00 L22.00 53.00 L23.00 53.00 L24.00 53.00 L24.00 52.00 L23.00 52.00 L23.00 53.00 L23.00 54.00 L24.00 54.00 L24.00 55.00 L25.00 55.00 L26.00 55.00 L26.00 54.00 L26.00 55.00 L27.00 55.00 L28.00 55.00 L28.00 54.00 L29.00 54.00 L29.00 53.00 L29.00 52.00 L28.00 52.00 L27.00 52.00 L27.00 53.00 L27.00 54.00 L28.00 54.00 L28.00 55.00 L29.00 55.00 L30.00 55.00 L30.00 54.00 L30.00 55.00 L31.00 55.00 L32.00 55.00 L32.00 54.00 L33.00 54.00 L33.00 53.00 L33.00 52.00 L32.00 52.00 L32.00 53.00 L33.00 53.00 L34.00 53.00 L34.00 52.00 L35.00 52.00 L35.00 51.00 L35.00 50.00 L34.00 50.00 L35.00 50.00 L35.00 49.00 L35.00 48.00 L34.00 48.00 L34.00 47.00 L33.00 47.00 L32.00 47.00 L32.00 48.00 L33.00 48.00 L33.00 47.00 L33.00 46.00 L32.00 46.00 L32.00 45.00 L31.00 45.00 L30.00 45.00 L30.00 46.00 L30.00 45.00 L29.00 45.00 L28.00 45.00 L28.00 46.00 L27.00 46.00 L27.00 47.00 L27.00 48.00 L28.00 48.00 L28.00 47.00 L27.00 47.00 L26.00 47.00 L26.00 48.00 L25.00 48.00 L25.00 49.00 L25.00 50.00 L26.00 50.00 L25.00 50.00 L25.00 51.00 L25.00 52.00 L26.00 52.00 L26.00 53.00 L27.00 53.00 L28.00 53.00 L28.00 52.00 L28.00 51.00 L27.00 51.00 L26.00 51.00 L26.00 52.00 L25.00 52.00 L25.00 53.00 L25.00 54.00 L26.00 54.00 L25.00 54.00 L25.00 55.00 L25.00 56.00 L26.00 56.00 L26.00 57.00 L27.00 57.00 L28.00 57.00 L28.00 56.00 L27.00 56.00 L27.00 57.00 L27.00 58.00 L28.00 58.00 L28.00 59.00 L29.00 59.00 L30.00 59.00 L30.00 58.00 L30.00 59.00 L31.00 59.00 L32.00 59.00 L32.00 58.00 L33.00 58.00 L33.00 57.00 L33.00 56.00 L32.00 56.00 L32.00 55.00 L31.00 55.00 L30.00 55.00 L30.00 56.00 L29.00 56.00 L29.00 57.00 L29.00 58.00 L30.00 58.00 L29.00 58.00 L29.00 59.00 L29.00 60.00 L30.00 60.00 L30.00 61.00 L31.00 61.00 L32.00 61.00 L32.00 60.00 L31.00 60.00 L31.00 61.00 L31.00 62.00 L32.00 62.00 L32.00 63.00 L33.00 63.00 L34.00 63.00 L34.00 62.00 L34.00 63.00 L35.00 63.00 L36.00 63.00 L36.00 62.00 L37.00 62.00 L37.00 61.00 L37.00 60.00 L36.00 60.00 L35.00 60.00 L35.00 61.00 L35.00 62.00 L36.00 62.00 L36.00 63.00 L37.00 63.00 L38.00 63.00 L38.00 62.00 L38.00 63.00 L39.00 63.00 L40.00 63.00 L40.00 62.00 L41.00 62.00 L41.00 61.00 L41.00 60.00 L40.00 60.00 L40.00 61.00 L41.00 61.00 L42.00 61.00 L42.00 60.00 L43.00 60.00 L43.00 59.00 L43.00 58.00 L42.00 58.00 L43.00 58.00 L43.00 57.00 L43.00 56.00 L42.00 56.00 L42.00 55.00 L41.00 55.00 L40.00 55.00 L40.00 56.00 L40.00 55.00 L39.00 55.00 L38.00 55.00 L38.00 56.00 L37.00 56.00 L37.00 57.00 L37.00 58.00 L38.00 58.00 L37.00 58.00 L37.00 59.00 L37.00 60.00 L38.00 60.00 L38.00 61.00 L39.00 61.00 L40.00 61.00 L40.00 60.00 L39.00 60.00 L39.00 61.00 L39.00 62.00 L40.00 62.00 L40.00 63.00 L41.00 63.00 L42.00 63.00 L42.00 62.00 L42.00 63.00 L43.00 63.00 L44.00 63.00 L44.00 62.00 L45.00 62.00 L45.00 61.00 L45.00 60.00 L44.00 60.00 L43.00 60.00 L43.00 61.00 L43.00 62.00 L44.00 62.00 L44.00 63.00 L45.00 63.00 L46.00 63.00 L46.00 62.00 L46.00 63.00 L47.00 63.00 L48.00 63.00 L48.00 62.00 L49.00 62.00 L49.00 61.00 L49.00 60.00 L48.00 60.00 L48.00 61.00 L49.00 61.00 L50.00 61.00 L50.00 60.00 L51.00 60.00 L51.00 59.00 L51.00 58.00 L50.00 58.00 L51.00 58.00 L51.00 57.00 L51.00 56.00 L50.00 56.00 L50.00 55.00 L49.00 55.00 L48.00 55.00 L48.00 56.00 L47.00 56.00 L47.00 57.00 L47.00 58.00 L48.00 58.00 L48.00 59.00 L49.00 59.00 L50.00 59.00 L50.00 58.00 L50.00 59.00 L51.00 59.00 L52.00 59.00 L52.00 58.00 L53.00 58.00 L53.00 57.00 L53.00 56.00 L52.00 56.00 L52.00 57.00 L53.00 57.00 L54.00 57.00 L54.00 56.00 L55.00 56.00 L55.00 55.00 L55.00 54.00 L54.00 54.00 L55.00 54.00 L55.00 53.00 L55.00 52.00 L54.00 52.00 L54.00 51.00 L53.00 51.00 L52.00 51.00 L52.00 52.00 L52.00 53.00 L53.00 53.00 L54.00 53.00 L54.00 52.00 L55.00 52.00 L55.00 51.00 L55.00 50.00 L54.00 50.00 L55.00 50.00 L55.00 49.00 L55.00 48.00 L54.00 48.00 L54.00 47.00 L53.00 47.00 L52.00 47.00 L52.00 48.00 L53.00 48.00 L53.00 47.00 L53.00 46.00 L52.00 46.00 L52.00 45.00 L51.00 45.00 L50.00 45.00 L50.00 46.00 L50.00 45.00 L49.00 45.00 L48.00 45.00 L48.00 46.00 L47.00 46.00 L47.00 47.00 L47.00 48.00 L48.00 48.00 L49.00 48.00 L49.00 47.00 L49.00 46.00 L48.00 46.00 L48.00 45.00 L47.00 45.00 L46.00 45.00 L46.00 46.00 L46.00 45.00 L45.00 45.00 L44.00 45.00 L44.00 46.00 L43.00 46.00 L43.00 47.00 L43.00 48.00 L44.00 48.00 L44.00 47.00 L43.00 47.00 L42.00 47.00 L42.00 48.00 L41.00 48.00 L41.00 49.00 L41.00 50.00 L42.00 50.00 L41.00 50.00 L41.00 51.00 L41.00 52.00 L42.00 52.00 L42.00 53.00 L43.00 53.00 L44.00 53.00 L44.00 52.00 L44.00 51.00 L43.00 51.00 L42.00 51.00 L42.00 52.00 L41.00 52.00 L41.00 53.00 L41.00 54.00 L42.00 54.00 L41.00 54.00 L41.00 55.00 L41.00 56.00 L42.00 56.00 L42.00 57.00 L43.00 57.00 L44.00 57.00 L44.00 56.00 L43.00 56.00 L43.00 57.00 L43.00 58.00 L44.00 58.00 L44.00 59.00 L45.00 59.00 L46.00 59.00 L46.00 58.00 L46.00 59.00 L47.00 59.00 L48.00 59.00 L48.00 58.00 L49.00 58.00 L49.00 57.00 L49.00 56.00 L48.00 56.00 L48.00 55.00 L47.00 55.00 L46.00 55.00 L46.00 56.00 L45.00 56.00 L45.00 57.00 L45.00 58.00 L46.00 58.00 L45.00 58.00 L45.00 59.00 L45.00 60.00 L46.00 60.00 L46.00 61.00 L47.00 61.00 L48.00 61.00 L48.00 60.00 L47.00 60.00 L47.00 61.00 L47.00 62.00 L48.00 62.00 L48.00 63.00 L49.00 63.00 L50.00 63.00 L50.00 62.00 L50.00 63.00 L51.00 63.00 L52.00 63.00 L52.00 62.00 L53.00 62.00 L53.00 61.00 L53.00 60.00 L52.00 60.00 L51.00 60.00 L51.00 61.00 L51.00 62.00 L52.00 62.00 L52.00 63.00 L53.00 63.00 L54.00 63.00 L54.00 62.00 L54.00 63.00 L55.00 63.00 L56.00 63.00 L56.00 62.00 L57.00 62.00 L57.00 61.00 L57.00 60.00 L56.00 60.00 L56.00 61.00 L57.00 61.00 L58.00 61.00 L58.00 60.00 L59.00 60.00 L59.00 59.00 L59.00 58.00 L58.00 58.00 L59.00 58.00 L59.00 57.00 L59.00 56.00 L58.00 56.00 L58.00 55.00 L57.00 55.00 L56.00 55.00 L56.00 56.00 L56.00 55.00 L55.00 55.00 L54.00 55.00 L54.00 56.00 L53.00 56.00 L53.00 57.00 L53.00 58.00 L54.00 58.00 L53.00 58.00 L53.00 59.00 L53.00 60.00 L54.00 60.00 L54.00 61.00 L55.00 61.00 L56.00 61.00 L56.00 60.00 L55.00 60.00 L55.00 61.00 L55.00 62.00 L56.00 62.00 L56.00 63.00 L57.00 63.00 L58.00 63.00 L58.00 62.00 L58.00 63.00 L59.00 63.00 L60.00 63.00 L60.00 62.00 L61.00 62.00 L61.00 61.00 L61.00 60.00 L60.00 60.00 L59.00 60.00 L59.00 61.00 L59.00 62.00 L60.00 62.00 L60.00 63.00 L61.00 63.00 L62.00 63.00 L62.00 62.00 L62.00 63.00 L63.00 63.00 L64.00 63.00 L64.00 62.00 L65.00 62.00 L65.00 61.00 L65.00 60.00 L64.00 60.00 L64.00 61.00 L65.00 61.00 L66.00 61.00 L66.00 60.00 L67.00 60.00 L67.00 59.00 L67.00 58.00 L66.00 58.00 L67.00 58.00 L67.00 57.00 L67.00 56.00 L66.00 56.00 L66.00 55.00 L65.00 55.00 L64.00 55.00 L64.00 56.00 L63.00 56.00 L63.00 57.00 L63.00 58.00 L64.00 58.00 L64.00 59.00 L65.00 59.00 L66.00 59.00 L66.00 58.00 L66.00 59.00 L67.00 59.00 L68.00 59.00 L68.00 58.00 L69.00 58.00 L69.00 57.00 L69.00 56.00 L68.00 56.00 L68.00 57.00 L69.00 57.00 L70.00 57.00 L70.00 56.00 L71.00 56.00 L71.00 55.00 L71.00 54.00 L70.00 54.00 L71.00 54.00 L71.00 53.00 L71.00 52.00 L70.00 52.00 L70.00 51.00 L69.00 51.00 L68.00 51.00 L68.00 52.00 L68.00 53.00 L69.00 53.00 L70.00 53.00 L70.00 52.00 L71.00 52.00 L71.00 51.00 L71.00 50.00 L70.00 50.00 L71.00 50.00 L71.00 49.00 L71.00 48.00 L70.00 48.00 L70.00 47.00 L69.00 47.00 L68.00 47.00 L68.00 48.00 L69.00 48.00 L69.00 47.00 L69.00 46.00 L68.00 46.00 L68.00 45.00 L67.00 45.00 L66.00 45.00 L66.00 46.00 L66.00 45.00 L65.00 45.00 L64.00 45.00 L64.00 46.00 L63.00 46.00 L63.00 47.00 L63.00 48.00 L64.00 48.00 L64.00 47.00 L63.00 47.00 L62.00 47.00 L62.00 48.00 L61.00 48.00 L61.00 49.00 L61.00 50.00 L62.00 50.00 L61.00 50.00 L61.00 51.00 L61.00 52.00 L62.00 52.00 L62.00 53.00 L63.00 53.00 L64.00 53.00 L64.00 52.00 L63.00 52.00 L63.00 53.00 L63.00 54.00 L64.00 54.00 L64.00 55.00 L65.00 55.00 L66.00 55.00 L66.00 54.00 L66.00 55.00 L67.00 55.00 L68.00 55.00 L68.00 54.00 L69.00 54.00 L69.00 53.00 L69.00 52.00 L68.00 52.00 L67.00 52.00 L67.00 53.00 L67.00 54.00 L68.00 54.00 L68.00 55.00 L69.00 55.00 L70.00 55.00 L70.00 54.00 L70.00 55.00 L71.00 55.00 L72.00 55.00 L72.00 54.00 L73.00 54.00 L73.00 53.00 L73.00 52.00 L72.00 52.00 L72.00 53.00 L73.00 53.00 L74.00 53.00 L74.00 52.00 L75.00 52.00 L75.00 51.00 L75.00 50.00 L74.00 50.00 L75.00 50.00 L75.00 49.00 L75.00 48.00 L74.00 48.00 L74.00 47.00 L73.00 47.00 L72.00 47.00 L72.00 48.00 L71.00 48.00 L71.00 49.00 L71.00 50.00 L72.00 50.00 L72.00 51.00 L73.00 51.00 L74.00 51.00 L74.00 50.00 L74.00 51.00 L75.00 51.00 L76.00 51.00 L76.00 50.00 L77.00 50.00 L77.00 49.00 L77.00 48.00 L76.00 48.00 L76.00 49.00 L77.00 49.00 L78.00 49.00 L78.00 48.00 L79.00 48.00 L79.00 47.00 L79.00 46.00 L78.00 46.00 L79.00 46.00 L79.00 45.00 L79.00 44.00 L78.00 44.00 L78.00 43.00 L77.00 43.00 L76.00 43.00 L76.00 44.00 L76.00 45.00 L77.00 45.00 L78.00 45.00 L78.00 44.00 L79.00 44.00 L79.00 43.00 L79.00 42.00 L78.00 42.00 L79.00 42.00 L79.00 41.00 L79.00 40.00 L78.00 40.00 L78.00 39.00 L77.00 39.00 L76.00 39.00 L76.00 40.00 L77.00 40.00 L77.00 39.00 L77.00 38.00 L76.00 38.00 L76.00 37.00 L75.00 37.00 L74.00 37.00 L74.00 38.00 L74.00 37.00 L73.00 37.00 L72.00 37.00 L72.00 38.00 L71.00 38.00 L71.00 39.00 L71.00 40.00 L72.00 40.00 L71.00 40.00 L71.00 41.00 L71.00 42.00 L72.00 42.00 L72.00 43.00 L73.00 43.00 L74.00 43.00 L74.00 42.00 L74.00 43.00 L75.00 43.00 L76.00 43.00 L76.00 42.00 L77.00 42.00 L77.00 41.00 L77.00 40.00 L76.00 40.00 L76.00 41.00 L77.00 41.00 L78.00 41.00 L78.00 40.00 L79.00 40.00 L79.00 39.00 L79.00 38.00 L78.00 38.00 L79.00 38.00 L79.00 37.00 L79.00 36.00 L78.00 36.00 L78.00 35.00 L77.00 35.00 L76.00 35.00 L76.00 36.00 L76.00 37.00 L77.00 37.00 L78.00 37.00 L78.00 36.00 L79.00 36.00 L79.00 35.00 L79.00 34.00 L78.00 34.00 L79.00 34.00 L79.00 33.00 L79.00 32.00 L78.00 32.00 L78.00 31.00 L77.00 31.00 L76.00 31.00 L76.00 32.00 L77.00 32.00 L77.00 31.00 L77.00 30.00 L76.00 30.00 L76.00 29.00 L75.00 29.00 L74.00 29.00 L74.00 30.00 L74.00 29.00 L73.00 29.00 L72.00 29.00 L72.00 30.00 L71.00 30.00 L71.00 31.00 L71.00 32.00 L72.00 32.00 L72.00 33.00 L73.00 33.00 L74.00 33.00 L74.00 32.00 L75.00 32.00 L75.00 31.00 L75.00 30.00 L74.00 30.00 L75.00 30.00 L75.00 29.00 L75.00 28.00 L74.00 28.00 L74.00 27.00 L73.00 27.00 L72.00 27.00 L72.00 28.00 L73.00 28.00 L73.00 27.00 L73.00 26.00 L72.00 26.00 L72.00 25.00 L71.00 25.00 L70.00 25.00 L70.00 26.00 L70.00 25.00 L69.00 25.00 L68.00 25.00 L68.00 26.00 L67.00 26.00 L67.00 27.00 L67.00 28.00 L68.00 28.00 L69.00 28.00 L69.00 27.00 L69.00 26.00 L68.00 26.00 L68.00 25.00 L67.00 25.00 L66.00 25.00 L66.00 26.00 L66.00 25.00 L65.00 25.00 L64.00 25.00 L64.00 26.00 L63.00 26.00 L63.00 27.00 L63.00 28.00 L64.00 28.00 L64.00 27.00 L63.00 27.00 L62.00 27.00 L62.00 28.00 L61.00 28.00 L61.00 29.00 L61.00 30.00 L62.00 30.00 L61.00 30.00 L61.00 31.00 L61.00 32.00 L62.00 32.00 L62.00 33.00 L63.00 33.00 L64.00 33.00 L64.00 32.00 L65.00 32.00 L65.00 31.00 L65.00 30.00 L64.00 30.00 L64.00 29.00 L63.00 29.00 L62.00 29.00 L62.00 30.00 L62.00 29.00 L61.00 29.00 L60.00 29.00 L60.00 30.00 L59.00 30.00 L59.00 31.00 L59.00 32.00 L60.00 32.00 L60.00 31.00 L59.00 31.00 L58.00 31.00 L58.00 32.00 L57.00 32.00 L57.00 33.00 L57.00 34.00 L58.00 34.00 L57.00 34.00 L57.00 35.00 L57.00 36.00 L58.00 36.00 L58.00 37.00 L59.00 37.00 L60.00 37.00 L60.00 36.00 L60.00 35.00 L59.00 35.00 L58.00 35.00 L58.00 36.00 L57.00 36.00 L57.00 37.00 L57.00 38.00 L58.00 38.00 L57.00 38.00 L57.00 39.00 L57.00 40.00 L58.00 40.00 L58.00 41.00 L59.00 41.00 L60.00 41.00 L60.00 40.00 L59.00 40.00 L59.00 41.00 L59.00 42.00 L60.00 42.00 L60.00 43.00 L61.00 43.00 L62.00 43.00 L62.00 42.00 L62.00 43.00 L63.00 43.00 L64.00 43.00 L64.00 42.00 L65.00 42.00 L65.00 41.00 L65.00 40.00 L64.00 40.00 L64.00 39.00 L63.00 39.00 L62.00 39.00 L62.00 40.00 L61.00 40.00 L61.00 41.00 L61.00 42.00 L62.00 42.00 L61.00 42.00 L61.00 43.00 L61.00 44.00 L62.00 44.00 L62.00 45.00 L63.00 45.00 L64.00 45.00 L64.00 44.00 L63.00 44.00 L63.00 45.00 L63.00 46.00 L64.00 46.00 L64.00 47.00 L65.00 47.00 L66.00 47.00 L66.00 46.00 L66.00 47.00 L67.00 47.00 L68.00 47.00 L68.00 46.00 L69.00 46.00 L69.00 45.00 L69.00 44.00 L68.00 44.00 L67.00 44.00 L67.00 45.00 L67.00 46.00 L68.00 46.00 L68.00 47.00 L69.00 47.00 L70.00 47.00 L70.00 46.00 L70.00 47.00 L71.00 47.00 L72.00 47.00 L72.00 46.00 L73.00 46.00 L73.00 45.00 L73.00 44.00 L72.00 44.00 L72.00 45.00 L73.00 45.00 L74.00 45.00 L74.00 44.00 L75.00 44.00 L75.00 43.00 L75.00 42.00 L74.00 42.00 L75.00 42.00 L75.00 41.00 L75.00 40.00 L74.00 40.00 L74.00 39.00 L73.00 39.00 L72.00 39.00 L72.00 40.00 L72.00 39.00 L71.00 39.00 L70.00 39.00 L70.00 40.00 L69.00 40.00 L69.00 41.00 L69.00 42.00 L70.00 42.00 L69.00 42.00 L69.00 43.00 L69.00 44.00 L70.00 44.00 L70.00 45.00 L71.00 45.00 L72.00 45.00 L72.00 44.00 L71.00 44.00 L71.00 45.00 L71.00 46.00 L72.00 46.00 L72.00 47.00 L73.00 47.00 L74.00 47.00 L74.00 46.00 L74.00 47.00 L75.00 47.00 L76.00 47.00 L76.00 46.00 L77.00 46.00 L77.00 45.00 L77.00 44.00 L76.00 44.00 L75.00 44.00 L75.00 45.00 L75.00 46.00 L76.00 46.00 L76.00 47.00 L77.00 47.00 L78.00 47.00 L78.00 46.00 L78.00 47.00 L79.00 47.00 L80.00 47.00 L80.00 46.00 L81.00 46.00 L81.00 45.00 L81.00 44.00 L80.00 44.00 L80.00 45.00 L81.00 45.00 L82.00 45.00 L82.00 44.00 L83.00 44.00 L83.00 43.00 L83.00 42.00 L82.00 42.00 L83.00 42.00 L83.00 41.00 L83.00 40.00 L82.00 40.00 L82.00 39.00 L81.00 39.00 L80.00 39.00 L80.00 40.00 L79.00 40.00 L79.00 41.00 L79.00 42.00 L80.00 42.00 L80.00 43.00 L81.00 43.00 L82.00 43.00 L82.00 42.00 L82.00 43.00 L83.00 43.00 L84.00 43.00 L84.00 42.00 L85.00 42.00 L85.00 41.00 L85.00 40.00 L84.00 40.00 L84.00 41.00 L85.00 41.00 L86.00 41.00 L86.00 40.00 L87.00 40.00 L87.00 39.00 L87.00 38.00 L86.00 38.00 L87.00 38.00 L87.00 37.00 L87.00 36.00 L86.00 36.00 L86.00 35.00 L85.00 35.00 L84.00 35.00 L84.00 36.00 L84.00 37.00 L85.00 37.00 L86.00 37.00 L86.00 36.00 L87.00 36.00 L87.00 35.00 L87.00 34.00 L86.00 34.00 L87.00 34.00 L87.00 33.00 L87.00 32.00 L86.00 32.00 L86.00 31.00 L85.00 31.00 L84.00 31.00 L84.00 32.00 L85.00 32.00 L85.00 31.00 L85.00 30.00 L84.00 30.00 L84.00 29.00 L83.00 29.00 L82.00 29.00 L82.00 30.00 L82.00 29.00 L81.00 29.00 L80.00 29.00 L80.00 30.00 L79.00 30.00 L79.00 31.00 L79.00 32.00 L80.00 32.00 L80.00 31.00 L79.00 31.00 L78.00 31.00 L78.00 32.00 L77.00 32.00 L77.00 33.00 L77.00 34.00 L78.00 34.00 L77.00 34.00 L77.00 35.00 L77.00 36.00 L78.00 36.00 L78.00 37.00 L79.00 37.00 L80.00 37.00 L80.00 36.00 L79.00 36.00 L79.00 37.00 L79.00 38.00 L80.00 38.00 L80.00 39.00 L81.00 39.00 L82.00 39.00 L82.00 38.00 L82.00 39.00 L83.00 39.00 L84.00 39.00 L84.00 38.00 L85.00 38.00 L85.00 37.00 L85.00 36.00 L84.00 36.00 L83.00 36.00 L83.00 37.00 L83.00 38.00 L84.00 38.00 L84.00 39.00 L85.00 39.00 L86.00 39.00 L86.00 38.00 L86.00 39.00 L87.00 39.00 L88.00 39.00 L88.00 38.00 L89.00 38.00 L89.00 37.00 L89.00 36.00 L88.00 36.00 L88.00 37.00 L89.00 37.00 L90.00 37.00 L90.00 36.00 L91.00 36.00 L91.00 35.00 L91.00 34.00 L90.00 34.00 L91.00 34.00 L91.00 33.00 L91.00 32.00 L90.00 32.00 L90.00 31.00 L89.00 31.00 L88.00 31.00 L88.00 32.00 L87.00 32.00 L87.00 33.00 L87.00 34.00 L88.00 34.00 L88.00 35.00 L89.00 35.00 L90.00 35.00 L90.00 34.00 L90.00 35.00 L91.00 35.00 L92.00 35.00 L92.00 34.00 L93.00 34.00 L93.00 33.00 L93.00 32.00 L92.00 32.00 L92.00 33.00 L93.00 33.00 L94.00 33.00 L94.00 32.00 L95.00 32.00 L95.00 31.00 L95.00 30.00 L94.00 30.00 L95.00 30.00 L95.00 29.00 L95.00 28.00 L94.00 28.00 L94.00 27.00 L93.00 27.00 L92.00 27.00 L92.00 28.00 L92.00 29.00 L93.00 29.00 L94.00 29.00 L94.00 28.00 L95.00 28.00 L95.00 27.00 L95.00 26.00 L94.00 26.00 L95.00 26.00 L95.00 25.00 L95.00 24.00 L94.00 24.00 L94.00 23.00 L93.00 23.00 L92.00 23.00 L92.00 24.00 L93.00 24.00 L93.00 23.00 L93.00 22.00 L92.00 22.00 L92.00 21.00 L91.00 21.00 L90.00 21.00 L90.00 22.00 L90.00 21.00 L89.00 21.00 L88.00 21.00 L88.00 22.00 L87.00 22.00 L87.00 23.00 L87.00 24.00 L88.00 24.00 L87.00 24.00 L87.00 25.00 L87.00 26.00 L88.00 26.00 L88.00 27.00 L89.00 27.00 L90.00 27.00 L90.00 26.00 L90.00 27.00 L91.00 27.00 L92.00 27.00 L92.00 26.00 L93.00 26.00 L93.00 25.00 L93.00 24.00 L92.00 24.00 L92.00 25.00 L93.00 25.00 L94.00 25.00 L94.00 24.00 L95.00 24.00 L95.00 23.00 L95.00 22.00 L94.00 22.00 L95.00 22.00 L95.00 21.00 L95.00 20.00 L94.00 20.00 L94.00 19.00 L93.00 19.00 L92.00 19.00 L92.00 20.00 L92.00 21.00 L93.00 21.00 L94.00 21.00 L94.00 20.00 L95.00 20.00 L95.00 19.00 L95.00 18.00 L94.00 18.00 L95.00 18.00 L95.00 17.00 L95.00 16.00 L94.00 16.00 L94.00 15.00 L93.00 15.00 L92.00 15.00 L92.00 16.00 L93.00 16.00 L93.00 15.00 L93.00 14.00 L92.00 14.00 L92.00 13.00 L91.00 13.00 L90.00 13.00 L90.00 14.00 L90.00 13.00 L89.00 13.00 L88.00 13.00 L88.00 14.00 L87.00 14.00 L87.00 15.00 L87.00 16.00 L88.00 16.00 L88.00 17.00 L89.00 17.00 L90.00 17.00 L90.00 16.00 L91.00 16.00 L91.00 15.00 L91.00 14.00 L90.00 14.00 L91.00 14.00 L91.00 13.00 L91.00 12.00 L90.00 12.00 L90.00 11.00 L89.00 11.00 L88.00 11.00 L88.00 12.00 L89.00 12.00 L89.00 11.00 L89.00 10.00 L88.00 10.00 L88.00 9.00 L87.00 9.00 L86.00 9.00 L86.00 10.00 L86.00 9.00 L85.00 9.00 L84.00 9.00 L84.00 10.00 L83.00 10.00 L83.00 11.00 L83.00 12.00 L84.00 12.00 L85.00 12.00 L85.00 11.00 L85.00 10.00 L84.00 10.00 L84.00 9.00 L83.00 9.00 L82.00 9.00 L82.00 10.00 L82.00 9.00 L81.00 9.00 L80.00 9.00 L80.00 10.00 L79.00 10.00 L79.00 11.00 L79.00 12.00 L80.00 12.00 L80.00 11.00 L79.00 11.00 L78.00 11.00 L78.00 12.00 L77.00 12.00 L77.00 13.00 L77.00 14.00 L78.00 14.00 L77.00 14.00 L77.00 15.00 L77.00 16.00 L78.00 16.00 L78.00 17.00 L79.00 17.00 L80.00 17.00 L80.00 16.00 L80.00 15.00 L79.00 15.00 L78.00 15.00 L78.00 16.00 L77.00 16.00 L77.00 17.00 L77.00 18.00 L78.00 18.00 L77.00 18.00 L77.00 19.00 L77.00 20.00 L78.00 20.00 L78.00 21.00 L79.00 21.00 L80.00 21.00 L80.00 20.00 L79.00 20.00 L79.00 21.00 L79.00 22.00 L80.00 22.00 L80.00 23.00 L81.00 23.00 L82.00 23.00 L82.00 22.00 L82.00 23.00 L83.00 23.00 L84.00 23.00 L84.00 22.00 L85.00 22.00 L85.00 21.00 L85.00 20.00 L84.00 20.00 L83.00 20.00 L83.00 21.00 L83.00 22.00 L84.00 22.00 L84.00 23.00 L85.00 23.00 L86.00 23.00 L86.00 22.00 L86.00 23.00 L87.00 23.00 L88.00 23.00 L88.00 22.00 L89.00 22.00 L89.00 21.00 L89.00 20.00 L88.00 20.00 L88.00 21.00 L89.00 21.00 L90.00 21.00 L90.00 20.00 L91.00 20.00 L91.00 19.00 L91.00 18.00 L90.00 18.00 L91.00 18.00 L91.00 17.00 L91.00 16.00 L90.00 16.00 L90.00 15.00 L89.00 15.00 L88.00 15.00 L88.00 16.00 L87.00 16.00 L87.00 17.00 L87.00 18.00 L88.00 18.00 L88.00 19.00 L89.00 19.00 L90.00 19.00 L90.00 18.00 L90.00 19.00 L91.00 19.00 L92.00 19.00 L92.00 18.00 L93.00 18.00 L93.00 17.00 L93.00 16.00 L92.00 16.00 L92.00 17.00 L93.00 17.00 L94.00 17.00 L94.00 16.00 L95.00 16.00 L95.00 15.00 L95.00 14.00 L94.00 14.00 L95.00 14.00 L95.00 13.00 L95.00 12.00 L94.00 12.00 L94.00 11.00 L93.00 11.00 L92.00 11.00 L92.00 12.00 L92.00 13.00 L93.00 13.00 L94.00 13.00 L94.00 12.00 L95.00 12.00 L95.00 11.00 L95.00 10.00 L94.00 10.00 L95.00 10.00 L95.00 9.00 L95.00 8.00 L94.00 8.00 L94.00 7.00 L93.00 7.00 L92.00 7.00 L92.00 8.00 L93.00 8.00 L93.00 7.00 L93.00 6.00 L92.00 6.00 L92.00 5.00 L91.00 5.00 L90.00 5.00 L90.00 6.00 L90.00 5.00 L89.00 5.00 L88.00 5.00 L88.00 6.00 L87.00 6.00 L87.00 7.00 L87.00 8.00 L88.00 8.00 L87.00 8.00 L87.00 9.00 L87.00 10.00 L88.00 10.00 L88.00 11.00 L89.00 11.00 L90.00 11.00 L90.00 10.00 L90.00 11.00 L91.00 11.00 L92.00 11.00 L92.00 10.00 L93.00 10.00 L93.00 9.00 L93.00 8.00 L92.00 8.00 L92.00 9.00 L93.00 9.00 L94.00 9.00 L94.00 8.00 L95.00 8.00 L95.00 7.00 L95.00 6.00 L94.00 6.00 L95.00 6.00 L95.00 5.00 L95.00 4.00 L94.00 4.00 L94.00 3.00 L93.00 3.00 L92.00 3.00 L92.00 4.00 L92.00 5.00 L93.00 5.00 L94.00 5.00 L94.00 4.00 L95.00 4.00 L95.00 3.00 L95.00 2.00 L94.00 2.00 L95.00 2.00 L95.00 1.00 L95.00 0.00 L94.00 0.00 L94.00 -1.00 L93.00 -1.00 L92.00 -1.00 L92.00 0.00 L93.00 0.00 L93.00 -1.00 L93.00 -2.00 L92.00 -2.00 L92.00 -3.00 L91.00 -3.00 L90.00 -3.00 L90.00 -2.00 L90.00 -3.00 L89.00 -3.00 L88.00 -3.00 L88.00 -2.00 L87.00 -2.00 L87.00 -1.00 L87.00 0.00 L88.00 0.00 L88.00 1.00 L89.00 1.00 L90.00 1.00 L90.00 0.00 L91.00 0.00 L91.00 -1.00 L91.00 -2.00 L90.00 -2.00 L91.00 -2.00 L91.00 -3.00 L91.00 -4.00 L90.00 -4.00 L90.00 -5.00 L89.00 -5.00 L88.00 -5.00 L88.00 -4.00 L89.00 -4.00 L89.00 -5.00 L89.00 -6.00 L88.00 -6.00 L88.00 -7.00 L87.00 -7.00 L86.00 -7.00 L86.00 -6.00 L86.00 -7.00 L85.00 -7.00 L84.00 -7.00 L84.00 -6.00 L83.00 -6.00 L83.00 -5.00 L83.00 -4.00 L84.00 -4.00 L85.00 -4.00 L85.00 -5.00 L85.00 -6.00 L84.00 -6.00 L84.00 -7.00 L83.00 -7.00 L82.00 -7.00 L82.00 -6.00 L82.00 -7.00 L81.00 -7.00 L80.00 -7.00 L80.00 -6.00 L79.00 -6.00 L79.00 -5.00 L79.00 -4.00 L80.00 -4.00 L80.00 -5.00 L79.00 -5.00 L78.00 -5.00 L78.00 -4.00 L77.00 -4.00 L77.00 -3.00 L77.00 -2.00 L78.00 -2.00 L77.00 -2.00 L77.00 -1.00 L77.00 -0.00 L78.00 -0.00 L78.00 1.00 L79.00 1.00 L80.00 1.00 L80.00 -0.00 L79.00 -0.00 L79.00 1.00 L79.00 2.00 L80.00 2.00 L80.00 3.00 L81.00 3.00 L82.00 3.00 L82.00 2.00 L82.00 3.00 L83.00 3.00 L84.00 3.00 L84.00 2.00 L85.00 2.00 L85.00 1.00 L85.00 -0.00 L84.00 -0.00 L84.00 1.00 L85.00 1.00 L86.00 1.00 L86.00 -0.00 L87.00 -0.00 L87.00 -1.00 L87.00 -2.00 L86.00 -2.00 L87.00 -2.00 L87.00 -3.00 L87.00 -4.00 L86.00 -4.00 L86.00 -5.00 L85.00 -5.00 L84.00 -5.00 L84.00 -4.00 L84.00 -3.00 L85.00 -3.00 L86.00 -3.00 L86.00 -4.00 L87.00 -4.00 L87.00 -5.00 L87.00 -6.00 L86.00 -6.00 L87.00 -6.00 L87.00 -7.00 L87.00 -8.00 L86.00 -8.00 L86.00 -9.00 L85.00 -9.00 L84.00 -9.00 L84.00 -8.00 L85.00 -8.00 L85.00 -9.00 L85.00 -10.00 L84.00 -10.00 L84.00 -11.00 L83.00 -11.00 L82.00 -11.00 L82.00 -10.00 L82.00 -11.00 L81.00 -11.00 L80.00 -11.00 L80.00 -10.00 L79.00 -10.00 L79.00 -9.00 L79.00 -8.00 L80.00 -8.00 L80.00 -7.00 L81.00 -7.00 L82.00 -7.00 L82.00 -8.00 L83.00 -8.00 L83.00 -9.00 L83.00 -10.00 L82.00 -10.00 L83.00 -10.00 L83.00 -11.00 L83.00 -12.00 L82.00 -12.00 L82.00 -13.00 L81.00 -13.00 L80.00 -13.00 L80.00 -12.00 L81.00 -12.00 L81.00 -13.00 L81.00 -14.00 L80.00 -14.00 L80.00 -15.00 L79.00 -15.00 L78.00 -15.00 L78.00 -14.00 L78.00 -15.00 L77.00 -15.00 L76.00 -15.00 L76.00 -14.00 L75.00 -14.00 L75.00 -13.00 L75.00 -12.00 L76.00 -12.00 L77.00 -12.00 L77.00 -13.00 L77.00 -14.00 L76.00 -14.00 L76.00 -15.00 L75.00 -15.00 L74.00 -15.00 L74.00 -14.00 L74.00 -15.00 L73.00 -15.00 L72.00 -15.00 L72.00 -14.00 L71.00 -14.00 L71.00 -13.00 L71.00 -12.00 L72.00 -12.00 L72.00 -13.00 L71.00 -13.00 L70.00 -13.00 L70.00 -12.00 L69.00 -12.00 L69.00 -11.00 L69.00 -10.00 L70.00 -10.00 L69.00 -10.00 L69.00 -9.00 L69.00 -8.00 L70.00 -8.00 L70.00 -7.00 L71.00 -7.00 L72.00 -7.00 L72.00 -8.00 L72.00 -7.00 L73.00 -7.00 L74.00 -7.00 L74.00 -8.00 L75.00 -8.00 L75.00 -9.00 L75.00 -10.00 L74.00 -10.00 L75.00 -10.00 L75.00 -11.00 L75.00 -12.00 L74.00 -12.00 L74.00 -13.00 L73.00 -13.00 L72.00 -13.00 L72.00 -12.00 L73.00 -12.00 L73.00 -13.00 L73.00 -14.00 L72.00 -14.00 L72.00 -15.00 L71.00 -15.00 L70.00 -15.00 L70.00 -14.00 L70.00 -15.00 L69.00 -15.00 L68.00 -15.00 L68.00 -14.00 L67.00 -14.00 L67.00 -13.00 L67.00 -12.00 L68.00 -12.00 L69.00 -12.00 L69.00 -13.00 L69.00 -14.00 L68.00 -14.00 L68.00 -15.00 L67.00 -15.00 L66.00 -15.00 L66.00 -14.00 L66.00 -15.00 L65.00 -15.00 L64.00 -15.00 L64.00 -14.00 L63.00 -14.00 L63.00 -13.00 L63.00 -12.00 L64.00 -12.00 L64.00 -13.00 L63.00 -13.00 L62.00 -13.00 L62.00 -12.00 L61.00 -12.00 L61.00 -11.00 L61.00 -10.00 L62.00 -10.00 L61.00 -10.00 L61.00 -9.00 L61.00 -8.00 L62.00 -8.00 L62.00 -7.00 L63.00 -7.00 L64.00 -7.00 L64.00 -8.00 L65.00 -8.00 L65.00 -9.00 L65.00 -10.00 L64.00 -10.00 L64.00 -11.00 L63.00 -11.00 L62.00 -11.00 L62.00 -10.00 L62.00 -11.00 L61.00 -11.00 L60.00 -11.00 L60.00 -10.00 L59.00 -10.00 L59.00 -9.00 L59.00 -8.00 L60.00 -8.00 L60.00 -9.00 L59.00 -9.00 L58.00 -9.00 L58.00 -8.00 L57.00 -8.00 L57.00 -7.00 L57.00 -6.00 L58.00 -6.00 L57.00 -6.00 L57.00 -5.00 L57.00 -4.00 L58.00 -4.00 L58.00 -3.00 L59.00 -3.00 L60.00 -3.00 L60.00 -4.00 L60.00 -5.00 L59.00 -5.00 L58.00 -5.00 L58.00 -4.00 L57.00 -4.00 L57.00 -3.00 L57.00 -2.00 L58.00 -2.00 L57.00 -2.00 L57.00 -1.00 L57.00 -0.00 L58.00 -0.00 L58.00 1.00 L59.00 1.00 L60.00 1.00 L60.00 -0.00 L59.00 -0.00 L59.00 1.00 L59.00 2.00 L60.00 2.00 L60.00 3.00 L61.00 3.00 L62.00 3.00 L62.00 2.00 L62.00 3.00 L63.00 3.00 L64.00 3.00 L64.00 2.00 L65.00 2.00 L65.00 1.00 L65.00 -0.00 L64.00 -0.00 "/>
</g>
</svg>

