<svg width="500.000000" height="64.814812" xmlns="http://www.w3.org/2000/svg" version="1.1">
<rect width="500.000000" height="64.814812" fill="#BBBBFF" fill-opacity="1.000000"/>
<g transform="scale(16.949152,10.802468) translate(2.250000,3.750000) ">
<path stroke="#000000" stroke-opacity="1.000000" stroke-width="0.100000" fill="none" fill-opacity="1" d="M0.00 0.00 L25.00 0.00 "/>
<path stroke="#000000" stroke-opacity="1.000000" stroke-width="0.100000" fill="none" fill-opacity="1" d="M0.00 0.00 M0.00 -0.30 L8.33 -0.30 M16.67 -0.30 L25.00 -0.30 "/>
<path stroke="#000000" stroke-opacity="1.000000" stroke-width="0.100000" fill="none" fill-opacity="1" d="M0.00 -0.30 M0.00 -0.60 L2.78 -0.60 M5.56 -0.60 L8.33 -0.60 "/>
<path stroke="#000000" stroke-opacity="1.000000" stroke-width="0.100000" fill="none" fill-opacity="1" d="M0.00 -0.60 M0.00 -0.90 L0.93 -0.90 M1.85 -0.90 L2.78 -0.90 "/>
<path stroke="#000000" stroke-opacity="1.000000" stroke-width="0.100000" fill="none" fill-opacity="1" d="M0.00 -0.90 M0.00 -1.20 L0.31 -1.20 M0.62 -1.20 L0.93 -1.20 "/>
<path stroke="#000000" stroke-opacity="1.000000" stroke-width="0.100000" fill="none" fill-opacity="1" d="M0.00 -1.20 M0.00 -1.50 L0.10 -1.50 M0.21 -1.50 L0.31 -1.50 "/>
<path stroke="#000000" stroke-opacity="1.000000" stroke-width="0.100000" fill="none" fill-opacity="1" d="M0.62 -1.20 M0.62 -1.50 L0.72 -1.50 M0.82 -1.50 L0.93 -1.50 "/>
<path stroke="#000000" stroke-opacity="1.000000" stroke-width="0.100000" fill="none" fill-opacity="1" d="M1.85 -0.90 M1.85 -1.20 L2.16 -1.20 M2.47 -1.20 L2.78 -1.20 "/>
<path stroke="#000000" stroke-opacity="1.000000" stroke-width="0.100000" fill="none" fill-opacity="1" d="M1.85 -1.20 M1.85 -1.50 L1.95 -1.50 M2.06 -1.50 L2.16 -1.50 "/>
<path stroke="#000000" stroke-opacity="1.000000" stroke-width="0.100000" fill="none" fill-opacity="1" d="M2.47 -1.20 M2.47 -1.50 L2.57 -1.50 M2.67 -1.50 L2.78 -1.50 "/>
<path stroke="#000000" stroke-opacity="1.000000" stroke-width="0.100000" fill="none" fill-opacity="1" d="M5.56 -0.60 M5.56 -0.90 L6.48 -0.90 M7.41 -0.90 L8.33 -0.90 "/>
<path stroke="#000000" stroke-opacity="1.000000" stroke-width="0.100000" fill="none" fill-opacity="1" d="M5.56 -0.90 M5.56 -1.20 L5.86 -1.20 M6.17 -1.20 L6.48 -1.20 "/>
<path stroke="#000000" stroke-opacity="1.000000" stroke-width="0.100000" fill="none" fill-opacity="1" d="M5.56 -1.20 M5.56 -1.50 L5.66 -1.50 M5.76 -1.50 L5.86 -1.50 "/>
<path stroke="#000000" stroke-opacity="1.000000" stroke-width="0.100000" fill="none" fill-opacity="1" d="M6.17 -1.20 M6.17 -1.50 L6.28 -1.50 M6.38 -1.50 L6.48 -1.50 "/>
<path stroke="#000000" stroke-opacity="1.000000" stroke-width="0.100000" fill="none" fill-opacity="1" d="M7.41 -0.90 M7.41 -1.20 L7.72 -1.20 M8.02 -1.20 L8.33 -1.20 "/>
<path stroke="#000000" stroke-opacity="1.000000" stroke-width="0.100000" fill="none" fill-opacity="1" d="M7.41 -1.20 M7.41 -1.50 L7.51 -1.50 M7.61 -1.50 L7.72 -1.50 "/>
<path stroke="#000000" stroke-opacity="1.000000" stroke-width="0.100000" fill="none" fill-opacity="1" d="M8.02 -1.20 M8.02 -1.50 L8.13 -1.50 M8.23 -1.50 L8.33 -1.50 "/>
<path stroke="#000000" stroke-opacity="1.000000" stroke-width="0.100000" fill="none" fill-opacity="1" d="M16.67 -0.30 M16.67 -0.60 L19.44 -0.60 M22.22 -0.60 L25.00 -0.60 "/>
<path stroke="#000000" stroke-opacity="1.000000" stroke-width="0.100000" fill="none" fill-opacity="1" d="M16.67 -0.60 M16.67 -0.90 L17.59 -0.90 M18.52 -0.90 L19.44 -0.90 "/>
<path stroke="#000000" stroke-opacity="1.000000" stroke-width="0.100000" fill="none" fill-opacity="1" d="M16.67 -0.90 M16.67 -1.20 L16.98 -1.20 M17.28 -1.20 L17.59 -1.20 "/>
<path stroke="#000000" stroke-opacity="1.000000" stroke-width="0.100000" fill="none" fill-opacity="1" d="M16.67 -1.20 M16.67 -1.50 L16.77 -1.50 M16.87 -1.50 L16.98 -1.50 "/>
<path stroke="#000000" stroke-opacity="1.000000" stroke-width="0.100000" fill="none" fill-opacity="1" d="M17.28 -1.20 M17.28 -1.50 L17.39 -1.50 M17.49 -1.50 L17.59 -1.50 "/>
<path stroke="#000000" stroke-opacity="1.000000" stroke-width="0.100000" fill="none" fill-opacity="1" d="M18.52 -0.90 M18.52 -1.20 L18.83 -1.20 M19.14 -1.20 L19.44 -1.20 "/>
<path stroke="#000000" stroke-opacity="1.000000" stroke-width="0.100000" fill="none" fill-opacity="1" d="M18.52 -1.20 M18.52 -1.50 L18.62 -1.50 M18.72 -1.50 L18.83 -1.50 "/>
<path stroke="#000000" stroke-opacity="1.000000" stroke-width="0.100000" fill="none" fill-opacity="1" d="M19.14 -1.20 M19.14 -1.50 L19.24 -1.50 M19.34 -1.50 L19.44 -1.50 "/>
<path stroke="#000000" stroke-opacity="1.000000" stroke-width="0.100000" fill="none" fill-opacity="1" d="M22.22 -0.60 M22.22 -0.90 L23.15 -0.90 M24.07 -0.90 L25.00 -0.90 "/>
<path stroke="#000000" stroke-opacity="1.000000" stroke-width="0.100000" fill="none" fill-opacity="1" d="M22.22 -0.90 M22.22 -1.20 L22.53 -1.20 M22.84 -1.20 L23.15 -1.20 "/>
<path stroke="#000000" stroke-opacity="1.000000" stroke-width="0.100000" fill="none" fill-opacity="1" d="M22.22 -1.20 M22.22 -1.50 L22.33 -1.50 M22.43 -1.50 L22.53 -1.50 "/>
<path stroke="#000000" stroke-opacity="1.000000" stroke-width="0.100000" fill="none" fill-opacity="1" d="M22.84 -1.20 M22.84 -1.50 L22.94 -1.50 M23.05 -1.50 L23.15 -1.50 "/>
<path stroke="#000000" stroke-opacity="1.000000" stroke-width="0.100000" fill="none" fill-opacity="1" d="M24.07 -0.90 M24.07 -1.20 L24.38 -1.20 M24.69 -1.20 L25.00 -1.20 "/>
<path stroke="#000000" stroke-opacity="1.000000" stroke-width="0.100000" fill="none" fill-opacity="1" d="M24.07 -1.20 M24.07 -1.50 L24.18 -1.50 M24.28 -1.50 L24.38 -1.50 "/>
<path stroke="#000000" stroke-opacity="1.000000" stroke-width="0.100000" fill="none" fill-opacity="1" d="M24.69 -1.20 M24.69 -1.50 L24.79 -1.50 M24.90 -1.50 L25.00 -1.50 "/>
</g>
</svg>

