<svg width="300.000000" height="295.060699" xmlns="http://www.w3.org/2000/svg" version="1.1">
<rect width="100%" height="100%" fill="white" />
<g transform="scale(1.835614,1.832825) translate(80.870865,78.811378) ">
<path stroke="#000000" fill="none" d="M0.00 0.00 " />
<path stroke="#000000" fill="none" d="M0.00 0.00 L9.14 -4.07 L8.09 -14.01 L13.09 -22.67 L3.95 -18.61 L-2.74 -26.04 L6.40 -30.10 L13.09 -22.67 L6.40 -30.10 L-2.74 -26.04 L6.40 -30.10 L-3.38 -32.18 L-4.43 -42.13 L-3.38 -32.18 L6.40 -30.10 L-2.74 -26.04 L6.40 -30.10 L13.09 -22.67 L18.09 -31.33 L11.40 -38.76 L10.35 -48.71 L5.35 -40.05 L-4.43 -42.13 L0.57 -50.79 L10.35 -48.71 L19.49 -52.78 L18.44 -62.72 L19.49 -52.78 L24.49 -61.44 L34.27 -59.36 " />
<path stroke="#000000" fill="none" d="M8.09 -14.01 L-1.05 -9.95 L0.00 -0.00 " />
<path stroke="#000000" fill="none" d="M3.95 -18.61 L-1.05 -9.95 L8.09 -14.01 " />
<path stroke="#000000" fill="none" d="M13.09 -22.67 L3.95 -18.61 L-2.74 -26.04 " />
<path stroke="#000000" fill="none" d="M13.09 -22.67 L14.14 -12.73 L23.92 -10.65 L14.14 -12.73 L9.14 -4.07 L8.09 -14.01 " />
<path stroke="#000000" fill="none" d="M23.92 -10.65 L22.87 -20.59 L13.09 -22.67 " />
<path stroke="#000000" fill="none" d="M8.09 -14.01 L13.09 -22.67 L14.14 -12.73 " />
<path stroke="#000000" fill="none" d="M-2.74 -26.04 L3.95 -18.61 L13.09 -22.67 " />
<path stroke="#000000" fill="none" d="M-3.38 -32.18 L-12.52 -28.12 L-2.74 -26.04 " />
<path stroke="#000000" fill="none" d="M-4.43 -42.13 L5.35 -40.05 L10.35 -48.71 L11.40 -38.76 L18.09 -31.33 L13.09 -22.67 " />
<path stroke="#000000" fill="none" d="M11.40 -38.76 L6.40 -30.10 L5.35 -40.05 " />
<path stroke="#000000" fill="none" d="M13.09 -22.67 L6.40 -30.10 L11.40 -38.76 " />
<path stroke="#000000" fill="none" d="M-4.43 -42.13 L-13.56 -38.06 L-12.52 -28.12 L-19.21 -35.55 L-12.52 -28.12 L-17.52 -19.46 L-26.65 -15.39 L-25.61 -5.44 L-16.47 -9.51 L-17.52 -19.46 L-10.83 -12.02 L-1.05 -9.95 L-0.00 -0.00 " />
<path stroke="#000000" fill="none" d="M-19.21 -35.55 L-20.25 -45.49 L-13.56 -38.06 " />
<path stroke="#000000" fill="none" d="M-17.52 -19.46 L-24.21 -26.89 L-19.21 -35.55 " />
<path stroke="#000000" fill="none" d="M-17.52 -19.46 L-7.74 -17.38 L-2.74 -26.04 L6.40 -30.10 L-3.38 -32.18 L-4.43 -42.13 " />
<path stroke="#000000" fill="none" d="M-2.74 -26.04 L-12.52 -28.12 L-17.52 -19.46 " />
<path stroke="#000000" fill="none" d="M-3.38 -32.18 L-12.52 -28.12 L-2.74 -26.04 " />
<path stroke="#000000" fill="none" d="M-25.61 -5.44 L-16.47 -9.51 L-17.52 -19.46 " />
<path stroke="#000000" fill="none" d="M-10.83 -12.02 L-9.78 -2.08 L-16.47 -9.51 " />
<path stroke="#000000" fill="none" d="M-10.83 -12.02 L-1.05 -9.95 L-7.74 -17.38 L-2.74 -26.04 L-7.74 -17.38 L-17.52 -19.46 " />
<path stroke="#000000" fill="none" d="M-7.74 -17.38 L-17.52 -19.46 L-10.83 -12.02 " />
<path stroke="#000000" fill="none" d="M-17.52 -19.46 L-12.52 -28.12 L-2.74 -26.04 " />
<path stroke="#000000" fill="none" d="M-0.00 -0.00 L-9.78 -2.08 L-10.83 -12.02 " />
<path stroke="#000000" fill="none" d="M-2.74 -26.04 L-12.52 -28.12 L-3.38 -32.18 " />
<path stroke="#000000" fill="none" d="M13.09 -22.67 L3.95 -18.61 L-2.74 -26.04 " />
<path stroke="#000000" fill="none" d="M13.09 -22.67 L18.09 -31.33 L11.40 -38.76 L10.35 -48.71 L5.35 -40.05 L-4.43 -42.13 " />
<path stroke="#000000" fill="none" d="M11.40 -38.76 L6.40 -30.10 L13.09 -22.67 " />
<path stroke="#000000" fill="none" d="M5.35 -40.05 L6.40 -30.10 L11.40 -38.76 " />
<path stroke="#000000" fill="none" d="M11.40 -38.76 L6.40 -30.10 L13.09 -22.67 " />
<path stroke="#000000" fill="none" d="M5.35 -40.05 L6.40 -30.10 L11.40 -38.76 " />
<path stroke="#000000" fill="none" d="M10.35 -48.71 L5.35 -40.05 L-4.43 -42.13 " />
<path stroke="#000000" fill="none" d="M10.35 -48.71 L17.04 -41.28 L26.18 -45.35 L17.04 -41.28 L18.09 -31.33 L11.40 -38.76 " />
<path stroke="#000000" fill="none" d="M26.18 -45.35 L19.49 -52.78 L10.35 -48.71 " />
<path stroke="#000000" fill="none" d="M11.40 -38.76 L10.35 -48.71 L17.04 -41.28 " />
<path stroke="#000000" fill="none" d="M10.35 -48.71 L19.49 -52.78 L18.44 -62.72 L9.31 -58.65 L10.35 -48.71 L3.66 -56.14 L-6.12 -58.22 L-7.16 -68.17 L-6.12 -58.22 L3.66 -56.14 L-6.12 -58.22 L0.57 -50.79 L-4.43 -42.13 " />
<path stroke="#000000" fill="none" d="M18.44 -62.72 L9.31 -58.65 L10.35 -48.71 " />
<path stroke="#000000" fill="none" d="M3.66 -56.14 L2.62 -66.09 L9.31 -58.65 " />
<path stroke="#000000" fill="none" d="M3.66 -56.14 L-6.12 -58.22 L0.57 -50.79 L-4.43 -42.13 L0.57 -50.79 L10.35 -48.71 " />
<path stroke="#000000" fill="none" d="M0.57 -50.79 L10.35 -48.71 L3.66 -56.14 " />
<path stroke="#000000" fill="none" d="M10.35 -48.71 L5.35 -40.05 L-4.43 -42.13 " />
<path stroke="#000000" fill="none" d="M-7.16 -68.17 L2.62 -66.09 L3.66 -56.14 " />
<path stroke="#000000" fill="none" d="M3.66 -56.14 L2.62 -66.09 L-7.16 -68.17 " />
<path stroke="#000000" fill="none" d="M0.57 -50.79 L10.35 -48.71 L3.66 -56.14 " />
<path stroke="#000000" fill="none" d="M-4.43 -42.13 L-11.12 -49.56 L-20.25 -45.49 L-15.25 -54.15 L-16.30 -64.10 L-7.16 -68.17 " />
<path stroke="#000000" fill="none" d="M-15.25 -54.15 L-6.12 -58.22 L-11.12 -49.56 " />
<path stroke="#000000" fill="none" d="M-7.16 -68.17 L-6.12 -58.22 L-15.25 -54.15 " />
<path stroke="#000000" fill="none" d="M18.44 -62.72 L9.31 -58.65 L10.35 -48.71 " />
<path stroke="#000000" fill="none" d="M24.49 -61.44 L23.44 -71.38 L18.44 -62.72 " />
<path stroke="#000000" fill="none" d="M34.27 -59.36 L29.27 -50.70 L35.96 -43.27 L26.18 -45.35 L17.04 -41.28 L10.35 -48.71 " />
<path stroke="#000000" fill="none" d="M26.18 -45.35 L19.49 -52.78 L29.27 -50.70 " />
<path stroke="#000000" fill="none" d="M10.35 -48.71 L19.49 -52.78 L26.18 -45.35 " />
<path stroke="#000000" fill="none" d="M34.27 -59.36 L29.27 -50.70 L35.96 -43.27 L26.18 -45.35 L35.96 -43.27 L37.01 -33.32 L32.01 -24.66 L38.70 -17.23 L43.70 -25.89 L37.01 -33.32 L46.79 -31.24 L55.92 -35.31 L62.62 -27.88 L53.48 -23.81 L54.53 -13.87 L53.48 -23.81 L48.48 -15.15 L38.70 -17.23 L29.56 -13.16 L30.61 -3.22 L23.92 -10.65 L30.61 -3.22 L25.61 5.44 L30.61 -3.22 L23.92 -10.65 L18.92 -1.99 L25.61 5.44 L15.83 3.36 L6.69 7.43 L0.00 -0.00 " />
<path stroke="#000000" fill="none" d="M26.18 -45.35 L19.49 -52.78 L29.27 -50.70 " />
<path stroke="#000000" fill="none" d="M37.01 -33.32 L27.23 -35.40 L26.18 -45.35 " />
<path stroke="#000000" fill="none" d="M37.01 -33.32 L46.14 -37.39 L45.10 -47.33 L50.10 -55.99 L40.96 -51.93 L34.27 -59.36 " />
<path stroke="#000000" fill="none" d="M45.10 -47.33 L35.96 -43.27 L37.01 -33.32 " />
<path stroke="#000000" fill="none" d="M40.96 -51.93 L35.96 -43.27 L45.10 -47.33 " />
<path stroke="#000000" fill="none" d="M38.70 -17.23 L43.70 -25.89 L37.01 -33.32 " />
<path stroke="#000000" fill="none" d="M46.79 -31.24 L53.48 -23.81 L43.70 -25.89 " />
<path stroke="#000000" fill="none" d="M46.79 -31.24 L55.92 -35.31 L46.14 -37.39 L45.10 -47.33 L46.14 -37.39 L37.01 -33.32 " />
<path stroke="#000000" fill="none" d="M46.14 -37.39 L37.01 -33.32 L46.79 -31.24 " />
<path stroke="#000000" fill="none" d="M37.01 -33.32 L35.96 -43.27 L45.10 -47.33 " />
<path stroke="#000000" fill="none" d="M62.62 -27.88 L53.48 -23.81 L46.79 -31.24 " />
<path stroke="#000000" fill="none" d="M54.53 -13.87 L63.66 -17.93 L62.62 -27.88 " />
<path stroke="#000000" fill="none" d="M48.48 -15.15 L49.53 -5.21 L54.53 -13.87 " />
<path stroke="#000000" fill="none" d="M38.70 -17.23 L43.70 -25.89 L37.01 -33.32 L46.79 -31.24 L55.92 -35.31 L62.62 -27.88 " />
<path stroke="#000000" fill="none" d="M46.79 -31.24 L53.48 -23.81 L43.70 -25.89 " />
<path stroke="#000000" fill="none" d="M62.62 -27.88 L53.48 -23.81 L46.79 -31.24 " />
<path stroke="#000000" fill="none" d="M38.70 -17.23 L32.01 -24.66 L22.87 -20.59 L27.87 -29.25 L22.87 -20.59 L13.09 -22.67 L22.87 -20.59 L27.87 -29.25 L37.01 -33.32 L27.23 -35.40 L26.18 -45.35 L35.96 -43.27 L37.01 -33.32 " />
<path stroke="#000000" fill="none" d="M27.87 -29.25 L37.01 -33.32 L32.01 -24.66 " />
<path stroke="#000000" fill="none" d="M13.09 -22.67 L18.09 -31.33 L27.87 -29.25 " />
<path stroke="#000000" fill="none" d="M13.09 -22.67 L14.14 -12.73 L23.92 -10.65 L30.61 -3.22 L29.56 -13.16 L38.70 -17.23 " />
<path stroke="#000000" fill="none" d="M23.92 -10.65 L22.87 -20.59 L13.09 -22.67 " />
<path stroke="#000000" fill="none" d="M29.56 -13.16 L22.87 -20.59 L23.92 -10.65 " />
<path stroke="#000000" fill="none" d="M27.87 -29.25 L18.09 -31.33 L13.09 -22.67 " />
<path stroke="#000000" fill="none" d="M27.23 -35.40 L18.09 -31.33 L27.87 -29.25 " />
<path stroke="#000000" fill="none" d="M37.01 -33.32 L27.23 -35.40 L26.18 -45.35 " />
<path stroke="#000000" fill="none" d="M37.01 -33.32 L32.01 -24.66 L38.70 -17.23 L32.01 -24.66 L22.87 -20.59 L27.87 -29.25 " />
<path stroke="#000000" fill="none" d="M38.70 -17.23 L43.70 -25.89 L37.01 -33.32 " />
<path stroke="#000000" fill="none" d="M27.87 -29.25 L37.01 -33.32 L32.01 -24.66 " />
<path stroke="#000000" fill="none" d="M23.92 -10.65 L22.87 -20.59 L29.56 -13.16 " />
<path stroke="#000000" fill="none" d="M25.61 5.44 L18.92 -1.99 L23.92 -10.65 " />
<path stroke="#000000" fill="none" d="M25.61 5.44 L35.39 7.52 L40.39 -1.14 L49.53 -5.21 L39.74 -7.28 L38.70 -17.23 " />
<path stroke="#000000" fill="none" d="M40.39 -1.14 L30.61 -3.22 L25.61 5.44 " />
<path stroke="#000000" fill="none" d="M39.74 -7.28 L30.61 -3.22 L40.39 -1.14 " />
<path stroke="#000000" fill="none" d="M23.92 -10.65 L18.92 -1.99 L25.61 5.44 " />
<path stroke="#000000" fill="none" d="M15.83 3.36 L9.14 -4.07 L18.92 -1.99 " />
<path stroke="#000000" fill="none" d="M15.83 3.36 L6.69 7.43 L16.47 9.51 L17.52 19.46 L16.47 9.51 L25.61 5.44 " />
<path stroke="#000000" fill="none" d="M16.47 9.51 L25.61 5.44 L15.83 3.36 " />
<path stroke="#000000" fill="none" d="M25.61 5.44 L26.65 15.39 L17.52 19.46 " />
<path stroke="#000000" fill="none" d="M0.00 -0.00 L9.14 -4.07 L15.83 3.36 " />
<path stroke="#000000" fill="none" d="M0.00 -0.00 L9.14 -4.07 L8.09 -14.01 L13.09 -22.67 L3.95 -18.61 L-2.74 -26.04 L6.40 -30.10 L13.09 -22.67 L22.87 -20.59 L27.87 -29.25 L22.87 -20.59 L32.01 -24.66 L38.70 -17.23 " />
<path stroke="#000000" fill="none" d="M8.09 -14.01 L-1.05 -9.95 L0.00 -0.00 " />
<path stroke="#000000" fill="none" d="M3.95 -18.61 L-1.05 -9.95 L8.09 -14.01 " />
<path stroke="#000000" fill="none" d="M13.09 -22.67 L3.95 -18.61 L-2.74 -26.04 " />
<path stroke="#000000" fill="none" d="M13.09 -22.67 L14.14 -12.73 L23.92 -10.65 L14.14 -12.73 L9.14 -4.07 L8.09 -14.01 " />
<path stroke="#000000" fill="none" d="M23.92 -10.65 L22.87 -20.59 L13.09 -22.67 " />
<path stroke="#000000" fill="none" d="M8.09 -14.01 L13.09 -22.67 L14.14 -12.73 " />
<path stroke="#000000" fill="none" d="M27.87 -29.25 L18.09 -31.33 L13.09 -22.67 " />
<path stroke="#000000" fill="none" d="M32.01 -24.66 L37.01 -33.32 L27.87 -29.25 " />
<path stroke="#000000" fill="none" d="M38.70 -17.23 L29.56 -13.16 L30.61 -3.22 L23.92 -10.65 L14.14 -12.73 L13.09 -22.67 " />
<path stroke="#000000" fill="none" d="M23.92 -10.65 L22.87 -20.59 L29.56 -13.16 " />
<path stroke="#000000" fill="none" d="M13.09 -22.67 L22.87 -20.59 L23.92 -10.65 " />
<path stroke="#000000" fill="none" d="M0.00 0.00 L-1.05 -9.95 L-10.83 -12.02 L-17.52 -19.46 L-16.47 -9.51 L-25.61 -5.44 L-26.65 -15.39 L-17.52 -19.46 L-26.65 -15.39 L-25.61 -5.44 L-26.65 -15.39 L-31.65 -6.73 L-41.43 -8.81 L-31.65 -6.73 L-26.65 -15.39 L-25.61 -5.44 L-26.65 -15.39 L-17.52 -19.46 L-24.21 -26.89 L-33.34 -22.82 L-43.13 -24.90 L-36.43 -17.47 L-41.43 -8.81 L-48.13 -16.24 L-43.13 -24.90 L-44.17 -34.84 L-53.95 -36.92 L-44.17 -34.84 L-50.86 -42.28 L-45.86 -50.94 " />
<path stroke="#000000" fill="none" d="M-10.83 -12.02 L-9.78 -2.08 L-0.00 0.00 " />
<path stroke="#000000" fill="none" d="M-16.47 -9.51 L-9.78 -2.08 L-10.83 -12.02 " />
<path stroke="#000000" fill="none" d="M-17.52 -19.46 L-16.47 -9.51 L-25.61 -5.44 " />
<path stroke="#000000" fill="none" d="M-17.52 -19.46 L-7.74 -17.38 L-2.74 -26.04 L-7.74 -17.38 L-1.05 -9.95 L-10.83 -12.02 " />
<path stroke="#000000" fill="none" d="M-2.74 -26.04 L-12.52 -28.12 L-17.52 -19.46 " />
<path stroke="#000000" fill="none" d="M-10.83 -12.02 L-17.52 -19.46 L-7.74 -17.38 " />
<path stroke="#000000" fill="none" d="M-25.61 -5.44 L-16.47 -9.51 L-17.52 -19.46 " />
<path stroke="#000000" fill="none" d="M-31.65 -6.73 L-30.61 3.22 L-25.61 -5.44 " />
<path stroke="#000000" fill="none" d="M-41.43 -8.81 L-36.43 -17.47 L-43.13 -24.90 L-33.34 -22.82 L-24.21 -26.89 L-17.52 -19.46 " />
<path stroke="#000000" fill="none" d="M-33.34 -22.82 L-26.65 -15.39 L-36.44 -17.47 " />
<path stroke="#000000" fill="none" d="M-17.52 -19.46 L-26.65 -15.39 L-33.34 -22.82 " />
<path stroke="#000000" fill="none" d="M-41.43 -8.81 L-40.39 1.14 L-30.61 3.22 L-39.74 7.28 L-30.61 3.22 L-23.92 10.65 L-22.87 20.59 L-13.09 22.67 L-14.14 12.73 L-23.92 10.65 L-14.78 6.58 L-9.78 -2.08 L-0.00 0.00 " />
<path stroke="#000000" fill="none" d="M-39.74 7.28 L-49.53 5.21 L-40.39 1.14 " />
<path stroke="#000000" fill="none" d="M-23.92 10.65 L-33.05 14.72 L-39.74 7.28 " />
<path stroke="#000000" fill="none" d="M-23.92 10.65 L-18.92 1.99 L-25.61 -5.44 L-26.65 -15.39 L-31.65 -6.73 L-41.44 -8.81 " />
<path stroke="#000000" fill="none" d="M-25.61 -5.44 L-30.61 3.22 L-23.92 10.65 " />
<path stroke="#000000" fill="none" d="M-31.65 -6.73 L-30.61 3.22 L-25.61 -5.44 " />
<path stroke="#000000" fill="none" d="M-13.09 22.67 L-14.14 12.73 L-23.92 10.65 " />
<path stroke="#000000" fill="none" d="M-14.78 6.58 L-5.00 8.66 L-14.14 12.73 " />
<path stroke="#000000" fill="none" d="M-14.78 6.58 L-9.78 -2.08 L-18.92 1.99 L-25.61 -5.44 L-18.92 1.99 L-23.92 10.65 " />
<path stroke="#000000" fill="none" d="M-18.92 1.99 L-23.92 10.65 L-14.78 6.58 " />
<path stroke="#000000" fill="none" d="M-23.92 10.65 L-30.61 3.22 L-25.61 -5.44 " />
<path stroke="#000000" fill="none" d="M-0.00 0.00 L-5.00 8.66 L-14.78 6.58 " />
<path stroke="#000000" fill="none" d="M-25.61 -5.44 L-30.61 3.22 L-31.65 -6.73 " />
<path stroke="#000000" fill="none" d="M-17.52 -19.46 L-16.47 -9.51 L-25.61 -5.44 " />
<path stroke="#000000" fill="none" d="M-17.52 -19.46 L-24.21 -26.89 L-33.34 -22.82 L-43.13 -24.90 L-36.43 -17.47 L-41.43 -8.81 " />
<path stroke="#000000" fill="none" d="M-33.34 -22.82 L-26.65 -15.39 L-17.52 -19.46 " />
<path stroke="#000000" fill="none" d="M-36.43 -17.47 L-26.65 -15.39 L-33.34 -22.82 " />
<path stroke="#000000" fill="none" d="M-33.34 -22.82 L-26.65 -15.39 L-17.52 -19.46 " />
<path stroke="#000000" fill="none" d="M-36.43 -17.47 L-26.65 -15.39 L-33.34 -22.82 " />
<path stroke="#000000" fill="none" d="M-43.13 -24.90 L-36.43 -17.47 L-41.43 -8.81 " />
<path stroke="#000000" fill="none" d="M-43.13 -24.90 L-33.99 -28.97 L-35.04 -38.91 L-33.99 -28.97 L-24.21 -26.89 L-33.34 -22.82 " />
<path stroke="#000000" fill="none" d="M-35.04 -38.91 L-44.17 -34.84 L-43.13 -24.90 " />
<path stroke="#000000" fill="none" d="M-33.34 -22.82 L-43.13 -24.90 L-33.99 -28.97 " />
<path stroke="#000000" fill="none" d="M-43.13 -24.90 L-44.17 -34.84 L-53.95 -36.92 L-52.91 -26.98 L-43.13 -24.90 L-52.26 -20.83 L-57.26 -12.17 L-67.04 -14.25 L-57.26 -12.17 L-52.26 -20.83 L-57.26 -12.17 L-48.13 -16.24 L-41.43 -8.81 " />
<path stroke="#000000" fill="none" d="M-53.95 -36.92 L-52.91 -26.98 L-43.13 -24.90 " />
<path stroke="#000000" fill="none" d="M-52.26 -20.83 L-62.04 -22.91 L-52.91 -26.98 " />
<path stroke="#000000" fill="none" d="M-52.26 -20.83 L-57.26 -12.17 L-48.13 -16.24 L-41.43 -8.81 L-48.13 -16.24 L-43.13 -24.90 " />
<path stroke="#000000" fill="none" d="M-48.13 -16.24 L-43.13 -24.90 L-52.26 -20.83 " />
<path stroke="#000000" fill="none" d="M-43.13 -24.90 L-36.43 -17.47 L-41.43 -8.81 " />
<path stroke="#000000" fill="none" d="M-67.04 -14.25 L-62.04 -22.91 L-52.26 -20.83 " />
<path stroke="#000000" fill="none" d="M-52.26 -20.83 L-62.04 -22.91 L-67.04 -14.25 " />
<path stroke="#000000" fill="none" d="M-48.13 -16.24 L-43.13 -24.90 L-52.26 -20.83 " />
<path stroke="#000000" fill="none" d="M-41.43 -8.81 L-50.57 -4.74 L-49.53 5.21 L-56.22 -2.23 L-66.00 -4.31 L-67.04 -14.25 " />
<path stroke="#000000" fill="none" d="M-56.22 -2.23 L-57.26 -12.17 L-50.57 -4.74 " />
<path stroke="#000000" fill="none" d="M-67.04 -14.25 L-57.26 -12.17 L-56.22 -2.23 " />
<path stroke="#000000" fill="none" d="M-53.95 -36.92 L-52.91 -26.98 L-43.13 -24.90 " />
<path stroke="#000000" fill="none" d="M-50.86 -42.28 L-60.64 -44.35 L-53.95 -36.92 " />
<path stroke="#000000" fill="none" d="M-45.86 -50.94 L-39.17 -43.50 L-30.04 -47.57 L-35.04 -38.91 L-33.99 -28.97 L-43.13 -24.90 " />
<path stroke="#000000" fill="none" d="M-35.04 -38.91 L-44.17 -34.84 L-39.17 -43.50 " />
<path stroke="#000000" fill="none" d="M-43.13 -24.90 L-44.17 -34.84 L-35.04 -38.91 " />
<path stroke="#000000" fill="none" d="M-45.86 -50.94 L-39.17 -43.50 L-30.04 -47.57 L-35.04 -38.91 L-30.04 -47.57 L-20.25 -45.49 L-13.56 -38.06 L-4.43 -42.13 L-11.12 -49.56 L-20.25 -45.49 L-15.25 -54.15 L-16.30 -64.10 L-7.16 -68.17 L-6.12 -58.22 L3.66 -56.14 L-6.12 -58.22 L0.57 -50.79 L-4.43 -42.13 L-3.38 -32.18 L6.40 -30.10 L-2.74 -26.04 L6.40 -30.10 L13.09 -22.67 L6.40 -30.10 L-2.74 -26.04 L3.95 -18.61 L13.09 -22.67 L8.09 -14.01 L9.14 -4.07 L-0.00 -0.00 " />
<path stroke="#000000" fill="none" d="M-35.04 -38.91 L-44.17 -34.84 L-39.17 -43.50 " />
<path stroke="#000000" fill="none" d="M-20.25 -45.49 L-25.25 -36.83 L-35.04 -38.91 " />
<path stroke="#000000" fill="none" d="M-20.25 -45.49 L-21.30 -55.44 L-31.08 -57.52 L-37.77 -64.95 L-36.73 -55.00 L-45.86 -50.94 " />
<path stroke="#000000" fill="none" d="M-31.08 -57.52 L-30.04 -47.57 L-20.25 -45.49 " />
<path stroke="#000000" fill="none" d="M-36.73 -55.00 L-30.04 -47.57 L-31.08 -57.52 " />
<path stroke="#000000" fill="none" d="M-4.43 -42.13 L-11.12 -49.56 L-20.25 -45.49 " />
<path stroke="#000000" fill="none" d="M-15.25 -54.15 L-6.12 -58.22 L-11.12 -49.56 " />
<path stroke="#000000" fill="none" d="M-15.25 -54.15 L-16.30 -64.10 L-21.30 -55.44 L-31.08 -57.52 L-21.30 -55.44 L-20.25 -45.49 " />
<path stroke="#000000" fill="none" d="M-21.30 -55.44 L-20.25 -45.49 L-15.25 -54.15 " />
<path stroke="#000000" fill="none" d="M-20.25 -45.49 L-30.04 -47.57 L-31.08 -57.52 " />
<path stroke="#000000" fill="none" d="M-7.16 -68.17 L-6.12 -58.22 L-15.25 -54.15 " />
<path stroke="#000000" fill="none" d="M3.66 -56.14 L2.62 -66.09 L-7.16 -68.17 " />
<path stroke="#000000" fill="none" d="M0.57 -50.79 L10.35 -48.71 L3.66 -56.14 " />
<path stroke="#000000" fill="none" d="M-4.43 -42.13 L-11.12 -49.56 L-20.25 -45.49 L-15.25 -54.15 L-16.30 -64.10 L-7.16 -68.17 " />
<path stroke="#000000" fill="none" d="M-15.25 -54.15 L-6.12 -58.22 L-11.12 -49.56 " />
<path stroke="#000000" fill="none" d="M-7.16 -68.17 L-6.12 -58.22 L-15.25 -54.15 " />
<path stroke="#000000" fill="none" d="M-4.43 -42.13 L-13.56 -38.06 L-12.52 -28.12 L-19.21 -35.55 L-12.52 -28.12 L-17.52 -19.46 L-12.52 -28.12 L-19.21 -35.55 L-20.25 -45.49 L-25.25 -36.83 L-35.04 -38.91 L-30.04 -47.57 L-20.25 -45.49 " />
<path stroke="#000000" fill="none" d="M-19.21 -35.55 L-20.25 -45.49 L-13.56 -38.06 " />
<path stroke="#000000" fill="none" d="M-17.52 -19.46 L-24.21 -26.89 L-19.21 -35.55 " />
<path stroke="#000000" fill="none" d="M-17.52 -19.46 L-7.74 -17.38 L-2.74 -26.04 L6.40 -30.10 L-3.38 -32.18 L-4.43 -42.13 " />
<path stroke="#000000" fill="none" d="M-2.74 -26.04 L-12.52 -28.12 L-17.52 -19.46 " />
<path stroke="#000000" fill="none" d="M-3.38 -32.18 L-12.52 -28.12 L-2.74 -26.04 " />
<path stroke="#000000" fill="none" d="M-19.21 -35.55 L-24.21 -26.89 L-17.52 -19.46 " />
<path stroke="#000000" fill="none" d="M-25.25 -36.83 L-24.21 -26.89 L-19.21 -35.55 " />
<path stroke="#000000" fill="none" d="M-20.25 -45.49 L-25.25 -36.83 L-35.04 -38.91 " />
<path stroke="#000000" fill="none" d="M-20.25 -45.49 L-13.56 -38.06 L-4.43 -42.13 L-13.56 -38.06 L-12.52 -28.12 L-19.21 -35.55 " />
<path stroke="#000000" fill="none" d="M-4.43 -42.13 L-11.12 -49.56 L-20.25 -45.49 " />
<path stroke="#000000" fill="none" d="M-19.21 -35.55 L-20.25 -45.49 L-13.56 -38.06 " />
<path stroke="#000000" fill="none" d="M-2.74 -26.04 L-12.52 -28.12 L-3.38 -32.18 " />
<path stroke="#000000" fill="none" d="M13.09 -22.67 L3.95 -18.61 L-2.74 -26.04 " />
<path stroke="#000000" fill="none" d="M13.09 -22.67 L18.09 -31.33 L11.40 -38.76 L10.35 -48.71 L5.35 -40.05 L-4.43 -42.13 " />
<path stroke="#000000" fill="none" d="M11.40 -38.76 L6.40 -30.10 L13.09 -22.67 " />
<path stroke="#000000" fill="none" d="M5.35 -40.05 L6.40 -30.10 L11.40 -38.76 " />
<path stroke="#000000" fill="none" d="M-2.74 -26.04 L3.95 -18.61 L13.09 -22.67 " />
<path stroke="#000000" fill="none" d="M8.09 -14.01 L-1.05 -9.95 L3.95 -18.61 " />
<path stroke="#000000" fill="none" d="M8.09 -14.01 L9.14 -4.07 L14.14 -12.73 L23.92 -10.65 L14.14 -12.73 L13.09 -22.67 " />
<path stroke="#000000" fill="none" d="M14.14 -12.73 L13.09 -22.67 L8.09 -14.01 " />
<path stroke="#000000" fill="none" d="M13.09 -22.67 L22.87 -20.59 L23.92 -10.65 " />
<path stroke="#000000" fill="none" d="M-0.00 -0.00 L-1.05 -9.95 L8.09 -14.01 " />
<path stroke="#000000" fill="none" d="M-0.00 -0.00 L-1.05 -9.95 L-10.83 -12.02 L-17.52 -19.46 L-16.47 -9.51 L-25.61 -5.44 L-26.65 -15.39 L-17.52 -19.46 L-12.52 -28.12 L-19.21 -35.55 L-12.52 -28.12 L-13.56 -38.06 L-4.43 -42.13 " />
<path stroke="#000000" fill="none" d="M-10.83 -12.02 L-9.78 -2.08 L-0.00 -0.00 " />
<path stroke="#000000" fill="none" d="M-16.47 -9.51 L-9.78 -2.08 L-10.83 -12.02 " />
<path stroke="#000000" fill="none" d="M-17.52 -19.46 L-16.47 -9.51 L-25.61 -5.44 " />
<path stroke="#000000" fill="none" d="M-17.52 -19.46 L-7.74 -17.38 L-2.74 -26.04 L-7.74 -17.38 L-1.05 -9.95 L-10.83 -12.02 " />
<path stroke="#000000" fill="none" d="M-2.74 -26.04 L-12.52 -28.12 L-17.52 -19.46 " />
<path stroke="#000000" fill="none" d="M-10.83 -12.02 L-17.52 -19.46 L-7.74 -17.38 " />
<path stroke="#000000" fill="none" d="M-19.21 -35.55 L-24.21 -26.89 L-17.52 -19.46 " />
<path stroke="#000000" fill="none" d="M-13.56 -38.06 L-20.25 -45.49 L-19.21 -35.55 " />
<path stroke="#000000" fill="none" d="M-4.43 -42.13 L-3.38 -32.18 L6.40 -30.10 L-2.74 -26.04 L-7.74 -17.38 L-17.52 -19.46 " />
<path stroke="#000000" fill="none" d="M-2.74 -26.04 L-12.52 -28.12 L-3.38 -32.18 " />
<path stroke="#000000" fill="none" d="M-17.52 -19.46 L-12.52 -28.12 L-2.74 -26.04 " />
<path stroke="#000000" fill="none" d="M0.00 0.00 L-9.78 -2.08 L-14.78 6.58 L-23.92 10.65 L-14.14 12.73 L-13.09 22.67 L-22.87 20.59 L-23.92 10.65 L-22.87 20.59 L-13.09 22.67 L-22.87 20.59 L-16.18 28.03 L-21.18 36.69 L-16.18 28.03 L-22.87 20.59 L-13.09 22.67 L-22.87 20.59 L-23.92 10.65 L-33.05 14.72 L-32.01 24.66 L-37.01 33.32 L-27.87 29.25 L-21.18 36.69 L-30.32 40.75 L-37.01 33.32 L-46.79 31.24 L-51.79 39.90 L-46.79 31.24 L-55.92 35.31 L-62.62 27.88 " />
<path stroke="#000000" fill="none" d="M-14.78 6.58 L-5.00 8.66 L-0.00 0.00 " />
<path stroke="#000000" fill="none" d="M-14.14 12.73 L-5.00 8.66 L-14.78 6.58 " />
<path stroke="#000000" fill="none" d="M-23.92 10.65 L-14.14 12.73 L-13.09 22.67 " />
<path stroke="#000000" fill="none" d="M-23.92 10.65 L-18.92 1.99 L-25.61 -5.44 L-18.92 1.99 L-9.78 -2.08 L-14.78 6.58 " />
<path stroke="#000000" fill="none" d="M-25.61 -5.44 L-30.61 3.22 L-23.92 10.65 " />
<path stroke="#000000" fill="none" d="M-14.78 6.58 L-23.92 10.65 L-18.92 1.99 " />
<path stroke="#000000" fill="none" d="M-13.09 22.67 L-14.14 12.73 L-23.92 10.65 " />
<path stroke="#000000" fill="none" d="M-16.18 28.03 L-6.40 30.10 L-13.09 22.67 " />
<path stroke="#000000" fill="none" d="M-21.18 36.69 L-27.87 29.25 L-37.01 33.32 L-32.01 24.66 L-33.05 14.72 L-23.92 10.65 " />
<path stroke="#000000" fill="none" d="M-32.01 24.66 L-22.87 20.59 L-27.87 29.25 " />
<path stroke="#000000" fill="none" d="M-23.92 10.65 L-22.87 20.59 L-32.01 24.66 " />
<path stroke="#000000" fill="none" d="M-21.18 36.69 L-11.40 38.76 L-6.40 30.10 L-5.35 40.05 L-6.40 30.10 L2.74 26.04 L12.52 28.12 L17.52 19.46 L7.74 17.38 L2.74 26.04 L1.69 16.09 L-5.00 8.66 L-0.00 0.00 " />
<path stroke="#000000" fill="none" d="M-5.35 40.05 L-10.35 48.71 L-11.40 38.76 " />
<path stroke="#000000" fill="none" d="M2.74 26.04 L3.78 35.98 L-5.35 40.05 " />
<path stroke="#000000" fill="none" d="M2.74 26.04 L-3.95 18.61 L-13.09 22.67 L-22.87 20.59 L-16.18 28.03 L-21.18 36.69 " />
<path stroke="#000000" fill="none" d="M-13.09 22.67 L-6.40 30.10 L2.74 26.04 " />
<path stroke="#000000" fill="none" d="M-16.18 28.03 L-6.40 30.10 L-13.09 22.67 " />
<path stroke="#000000" fill="none" d="M17.52 19.46 L7.74 17.38 L2.74 26.04 " />
<path stroke="#000000" fill="none" d="M1.69 16.09 L6.69 7.43 L7.74 17.38 " />
<path stroke="#000000" fill="none" d="M1.69 16.09 L-5.00 8.66 L-3.95 18.61 L-13.09 22.67 L-3.95 18.61 L2.74 26.04 " />
<path stroke="#000000" fill="none" d="M-3.95 18.61 L2.74 26.04 L1.69 16.09 " />
<path stroke="#000000" fill="none" d="M2.74 26.04 L-6.40 30.10 L-13.09 22.67 " />
<path stroke="#000000" fill="none" d="M-0.00 0.00 L6.69 7.43 L1.69 16.09 " />
<path stroke="#000000" fill="none" d="M-13.09 22.67 L-6.40 30.10 L-16.18 28.03 " />
<path stroke="#000000" fill="none" d="M-23.92 10.65 L-14.14 12.73 L-13.09 22.67 " />
<path stroke="#000000" fill="none" d="M-23.92 10.65 L-33.05 14.72 L-32.01 24.66 L-37.01 33.32 L-27.87 29.25 L-21.18 36.69 " />
<path stroke="#000000" fill="none" d="M-32.01 24.66 L-22.87 20.59 L-23.92 10.65 " />
<path stroke="#000000" fill="none" d="M-27.87 29.25 L-22.87 20.59 L-32.01 24.66 " />
<path stroke="#000000" fill="none" d="M-32.01 24.66 L-22.87 20.59 L-23.92 10.65 " />
<path stroke="#000000" fill="none" d="M-27.87 29.25 L-22.87 20.59 L-32.01 24.66 " />
<path stroke="#000000" fill="none" d="M-37.01 33.32 L-27.87 29.25 L-21.18 36.69 " />
<path stroke="#000000" fill="none" d="M-37.01 33.32 L-38.05 23.38 L-47.83 21.30 L-38.05 23.38 L-33.05 14.72 L-32.01 24.66 " />
<path stroke="#000000" fill="none" d="M-47.83 21.30 L-46.79 31.24 L-37.01 33.32 " />
<path stroke="#000000" fill="none" d="M-32.01 24.66 L-37.01 33.32 L-38.05 23.38 " />
<path stroke="#000000" fill="none" d="M-37.01 33.32 L-46.79 31.24 L-51.79 39.90 L-42.01 41.98 L-37.01 33.32 L-35.96 43.27 L-29.27 50.70 L-34.27 59.36 L-29.27 50.70 L-35.96 43.27 L-29.27 50.70 L-30.32 40.75 L-21.18 36.69 " />
<path stroke="#000000" fill="none" d="M-51.79 39.90 L-42.01 41.98 L-37.01 33.32 " />
<path stroke="#000000" fill="none" d="M-35.96 43.27 L-40.96 51.93 L-42.01 41.98 " />
<path stroke="#000000" fill="none" d="M-35.96 43.27 L-29.27 50.70 L-30.32 40.75 L-21.18 36.69 L-30.32 40.75 L-37.01 33.32 " />
<path stroke="#000000" fill="none" d="M-30.32 40.75 L-37.01 33.32 L-35.96 43.27 " />
<path stroke="#000000" fill="none" d="M-37.01 33.32 L-27.87 29.25 L-21.18 36.69 " />
<path stroke="#000000" fill="none" d="M-34.27 59.36 L-40.96 51.93 L-35.96 43.27 " />
<path stroke="#000000" fill="none" d="M-35.96 43.27 L-40.96 51.93 L-34.27 59.36 " />
<path stroke="#000000" fill="none" d="M-30.32 40.75 L-37.01 33.32 L-35.96 43.27 " />
<path stroke="#000000" fill="none" d="M-21.18 36.69 L-20.14 46.63 L-10.35 48.71 L-19.49 52.78 L-24.49 61.44 L-34.27 59.36 " />
<path stroke="#000000" fill="none" d="M-19.49 52.78 L-29.27 50.70 L-20.14 46.63 " />
<path stroke="#000000" fill="none" d="M-34.27 59.36 L-29.27 50.70 L-19.49 52.78 " />
<path stroke="#000000" fill="none" d="M-51.79 39.90 L-42.01 41.98 L-37.01 33.32 " />
<path stroke="#000000" fill="none" d="M-55.92 35.31 L-60.92 43.97 L-51.79 39.90 " />
<path stroke="#000000" fill="none" d="M-62.62 27.88 L-53.48 23.81 L-54.53 13.87 L-47.83 21.30 L-38.05 23.38 L-37.01 33.32 " />
<path stroke="#000000" fill="none" d="M-47.83 21.30 L-46.79 31.24 L-53.48 23.81 " />
<path stroke="#000000" fill="none" d="M-37.01 33.32 L-46.79 31.24 L-47.83 21.30 " />
<path stroke="#000000" fill="none" d="M-62.62 27.88 L-53.48 23.81 L-54.53 13.87 L-47.83 21.30 L-54.53 13.87 L-49.53 5.21 L-40.39 1.14 L-41.43 -8.81 L-50.57 -4.74 L-49.53 5.21 L-56.22 -2.23 L-66.00 -4.31 L-67.04 -14.25 L-57.26 -12.17 L-52.26 -20.83 L-57.26 -12.17 L-48.13 -16.24 L-41.44 -8.81 L-31.65 -6.73 L-26.65 -15.39 L-25.61 -5.44 L-26.65 -15.39 L-17.52 -19.46 L-26.65 -15.39 L-25.61 -5.44 L-16.47 -9.51 L-17.52 -19.46 L-10.83 -12.02 L-1.05 -9.95 L-0.00 0.00 " />
<path stroke="#000000" fill="none" d="M-47.83 21.30 L-46.79 31.24 L-53.48 23.81 " />
<path stroke="#000000" fill="none" d="M-49.53 5.21 L-42.83 12.64 L-47.83 21.30 " />
<path stroke="#000000" fill="none" d="M-49.53 5.21 L-59.31 3.13 L-64.31 11.79 L-73.44 15.85 L-63.66 17.93 L-62.62 27.88 " />
<path stroke="#000000" fill="none" d="M-64.31 11.79 L-54.53 13.87 L-49.53 5.21 " />
<path stroke="#000000" fill="none" d="M-63.66 17.93 L-54.53 13.87 L-64.31 11.79 " />
<path stroke="#000000" fill="none" d="M-41.43 -8.81 L-50.57 -4.74 L-49.53 5.21 " />
<path stroke="#000000" fill="none" d="M-56.22 -2.23 L-57.26 -12.17 L-50.57 -4.74 " />
<path stroke="#000000" fill="none" d="M-56.22 -2.23 L-66.00 -4.31 L-59.31 3.13 L-64.31 11.79 L-59.31 3.13 L-49.53 5.21 " />
<path stroke="#000000" fill="none" d="M-59.31 3.13 L-49.53 5.21 L-56.22 -2.23 " />
<path stroke="#000000" fill="none" d="M-49.53 5.21 L-54.53 13.87 L-64.31 11.79 " />
<path stroke="#000000" fill="none" d="M-67.04 -14.25 L-57.26 -12.17 L-56.22 -2.23 " />
<path stroke="#000000" fill="none" d="M-52.26 -20.83 L-62.04 -22.91 L-67.04 -14.25 " />
<path stroke="#000000" fill="none" d="M-48.13 -16.24 L-43.13 -24.90 L-52.26 -20.83 " />
<path stroke="#000000" fill="none" d="M-41.44 -8.81 L-50.57 -4.74 L-49.53 5.21 L-56.22 -2.23 L-66.00 -4.31 L-67.04 -14.25 " />
<path stroke="#000000" fill="none" d="M-56.22 -2.23 L-57.26 -12.17 L-50.57 -4.74 " />
<path stroke="#000000" fill="none" d="M-67.04 -14.25 L-57.26 -12.17 L-56.22 -2.23 " />
<path stroke="#000000" fill="none" d="M-41.44 -8.81 L-40.39 1.14 L-30.61 3.22 L-39.74 7.28 L-30.61 3.22 L-23.92 10.65 L-30.61 3.22 L-39.74 7.28 L-49.53 5.21 L-42.83 12.64 L-47.83 21.30 L-54.53 13.87 L-49.53 5.21 " />
<path stroke="#000000" fill="none" d="M-39.74 7.28 L-49.53 5.21 L-40.39 1.14 " />
<path stroke="#000000" fill="none" d="M-23.92 10.65 L-33.05 14.72 L-39.74 7.28 " />
<path stroke="#000000" fill="none" d="M-23.92 10.65 L-18.92 1.99 L-25.61 -5.44 L-26.65 -15.39 L-31.65 -6.73 L-41.44 -8.81 " />
<path stroke="#000000" fill="none" d="M-25.61 -5.44 L-30.61 3.22 L-23.92 10.65 " />
<path stroke="#000000" fill="none" d="M-31.65 -6.73 L-30.61 3.22 L-25.61 -5.44 " />
<path stroke="#000000" fill="none" d="M-39.74 7.28 L-33.05 14.72 L-23.92 10.65 " />
<path stroke="#000000" fill="none" d="M-42.83 12.64 L-33.05 14.72 L-39.74 7.28 " />
<path stroke="#000000" fill="none" d="M-49.53 5.21 L-42.83 12.64 L-47.83 21.30 " />
<path stroke="#000000" fill="none" d="M-49.53 5.21 L-40.39 1.14 L-41.44 -8.81 L-40.39 1.14 L-30.61 3.22 L-39.74 7.28 " />
<path stroke="#000000" fill="none" d="M-41.44 -8.81 L-50.57 -4.74 L-49.53 5.21 " />
<path stroke="#000000" fill="none" d="M-39.74 7.28 L-49.53 5.21 L-40.39 1.14 " />
<path stroke="#000000" fill="none" d="M-25.61 -5.44 L-30.61 3.22 L-31.65 -6.73 " />
<path stroke="#000000" fill="none" d="M-17.52 -19.46 L-16.47 -9.51 L-25.61 -5.44 " />
<path stroke="#000000" fill="none" d="M-17.52 -19.46 L-24.21 -26.89 L-33.34 -22.82 L-43.13 -24.90 L-36.44 -17.47 L-41.44 -8.81 " />
<path stroke="#000000" fill="none" d="M-33.34 -22.82 L-26.65 -15.39 L-17.52 -19.46 " />
<path stroke="#000000" fill="none" d="M-36.44 -17.47 L-26.65 -15.39 L-33.34 -22.82 " />
<path stroke="#000000" fill="none" d="M-25.61 -5.44 L-16.47 -9.51 L-17.52 -19.46 " />
<path stroke="#000000" fill="none" d="M-10.83 -12.02 L-9.78 -2.08 L-16.47 -9.51 " />
<path stroke="#000000" fill="none" d="M-10.83 -12.02 L-1.05 -9.95 L-7.74 -17.38 L-2.74 -26.04 L-7.74 -17.38 L-17.52 -19.46 " />
<path stroke="#000000" fill="none" d="M-7.74 -17.38 L-17.52 -19.46 L-10.83 -12.02 " />
<path stroke="#000000" fill="none" d="M-17.52 -19.46 L-12.52 -28.12 L-2.74 -26.04 " />
<path stroke="#000000" fill="none" d="M-0.00 0.00 L-9.78 -2.08 L-10.83 -12.02 " />
<path stroke="#000000" fill="none" d="M-0.00 0.00 L-9.78 -2.08 L-14.78 6.58 L-23.92 10.65 L-14.14 12.73 L-13.09 22.67 L-22.87 20.59 L-23.92 10.65 L-30.61 3.22 L-39.74 7.28 L-30.61 3.22 L-40.39 1.14 L-41.44 -8.81 " />
<path stroke="#000000" fill="none" d="M-14.78 6.58 L-5.00 8.66 L-0.00 0.00 " />
<path stroke="#000000" fill="none" d="M-14.14 12.73 L-5.00 8.66 L-14.78 6.58 " />
<path stroke="#000000" fill="none" d="M-23.92 10.65 L-14.14 12.73 L-13.09 22.67 " />
<path stroke="#000000" fill="none" d="M-23.92 10.65 L-18.92 1.99 L-25.61 -5.44 L-18.92 1.99 L-9.78 -2.08 L-14.78 6.58 " />
<path stroke="#000000" fill="none" d="M-25.61 -5.44 L-30.61 3.22 L-23.92 10.65 " />
<path stroke="#000000" fill="none" d="M-14.78 6.58 L-23.92 10.65 L-18.92 1.99 " />
<path stroke="#000000" fill="none" d="M-39.74 7.28 L-33.05 14.72 L-23.92 10.65 " />
<path stroke="#000000" fill="none" d="M-40.39 1.14 L-49.53 5.21 L-39.74 7.28 " />
<path stroke="#000000" fill="none" d="M-41.44 -8.81 L-31.65 -6.73 L-26.65 -15.39 L-25.61 -5.44 L-18.92 1.99 L-23.92 10.65 " />
<path stroke="#000000" fill="none" d="M-25.61 -5.44 L-30.61 3.22 L-31.65 -6.73 " />
<path stroke="#000000" fill="none" d="M-23.92 10.65 L-30.61 3.22 L-25.61 -5.44 " />
<path stroke="#000000" fill="none" d="M0.00 0.00 L-5.00 8.66 L1.69 16.09 L2.74 26.04 L7.74 17.38 L17.52 19.46 L12.52 28.12 L2.74 26.04 L12.52 28.12 L17.52 19.46 L12.52 28.12 L21.65 24.05 L28.34 31.48 L21.65 24.05 L12.52 28.12 L17.52 19.46 L12.52 28.12 L2.74 26.04 L3.78 35.98 L13.56 38.06 L20.25 45.49 L19.21 35.55 L28.34 31.48 L29.39 41.43 L20.25 45.49 L15.25 54.15 L21.95 61.58 L15.25 54.15 L16.30 64.10 L7.16 68.17 " />
<path stroke="#000000" fill="none" d="M1.69 16.09 L6.69 7.43 L0.00 0.00 " />
<path stroke="#000000" fill="none" d="M7.74 17.38 L6.69 7.43 L1.69 16.09 " />
<path stroke="#000000" fill="none" d="M2.74 26.04 L7.74 17.38 L17.52 19.46 " />
<path stroke="#000000" fill="none" d="M2.74 26.04 L-3.95 18.61 L-13.09 22.67 L-3.95 18.61 L-5.00 8.66 L1.69 16.09 " />
<path stroke="#000000" fill="none" d="M-13.09 22.67 L-6.40 30.10 L2.74 26.04 " />
<path stroke="#000000" fill="none" d="M1.69 16.09 L2.74 26.04 L-3.95 18.61 " />
<path stroke="#000000" fill="none" d="M17.52 19.46 L7.74 17.38 L2.74 26.04 " />
<path stroke="#000000" fill="none" d="M21.65 24.05 L26.65 15.39 L17.52 19.46 " />
<path stroke="#000000" fill="none" d="M28.34 31.48 L19.21 35.55 L20.25 45.49 L13.56 38.06 L3.78 35.98 L2.74 26.04 " />
<path stroke="#000000" fill="none" d="M13.56 38.06 L12.52 28.12 L19.21 35.55 " />
<path stroke="#000000" fill="none" d="M2.74 26.04 L12.52 28.12 L13.56 38.06 " />
<path stroke="#000000" fill="none" d="M28.34 31.48 L33.34 22.82 L26.65 15.39 L36.43 17.47 L26.65 15.39 L25.61 5.44 L30.61 -3.22 L23.92 -10.65 L18.92 -1.99 L25.61 5.44 L15.83 3.36 L6.69 7.43 L0.00 0.00 " />
<path stroke="#000000" fill="none" d="M36.43 17.47 L43.13 24.90 L33.34 22.82 " />
<path stroke="#000000" fill="none" d="M25.61 5.44 L35.39 7.52 L36.43 17.47 " />
<path stroke="#000000" fill="none" d="M25.61 5.44 L16.47 9.51 L17.52 19.46 L12.52 28.12 L21.65 24.05 L28.34 31.48 " />
<path stroke="#000000" fill="none" d="M17.52 19.46 L26.65 15.39 L25.61 5.44 " />
<path stroke="#000000" fill="none" d="M21.65 24.05 L26.65 15.39 L17.52 19.46 " />
<path stroke="#000000" fill="none" d="M23.92 -10.65 L18.92 -1.99 L25.61 5.44 " />
<path stroke="#000000" fill="none" d="M15.83 3.36 L9.14 -4.07 L18.92 -1.99 " />
<path stroke="#000000" fill="none" d="M15.83 3.36 L6.69 7.43 L16.47 9.51 L17.52 19.46 L16.47 9.51 L25.61 5.44 " />
<path stroke="#000000" fill="none" d="M16.47 9.51 L25.61 5.44 L15.83 3.36 " />
<path stroke="#000000" fill="none" d="M25.61 5.44 L26.65 15.39 L17.52 19.46 " />
<path stroke="#000000" fill="none" d="M0.00 0.00 L9.14 -4.07 L15.83 3.36 " />
<path stroke="#000000" fill="none" d="M17.52 19.46 L26.65 15.39 L21.65 24.05 " />
<path stroke="#000000" fill="none" d="M2.74 26.04 L7.74 17.38 L17.52 19.46 " />
<path stroke="#000000" fill="none" d="M2.74 26.04 L3.78 35.98 L13.56 38.06 L20.25 45.49 L19.21 35.55 L28.34 31.48 " />
<path stroke="#000000" fill="none" d="M13.56 38.06 L12.52 28.12 L2.74 26.04 " />
<path stroke="#000000" fill="none" d="M19.21 35.55 L12.52 28.12 L13.56 38.06 " />
<path stroke="#000000" fill="none" d="M13.56 38.06 L12.52 28.12 L2.74 26.04 " />
<path stroke="#000000" fill="none" d="M19.21 35.55 L12.52 28.12 L13.56 38.06 " />
<path stroke="#000000" fill="none" d="M20.25 45.49 L19.21 35.55 L28.34 31.48 " />
<path stroke="#000000" fill="none" d="M20.25 45.49 L10.47 43.41 L5.47 52.07 L10.47 43.41 L3.78 35.98 L13.56 38.06 " />
<path stroke="#000000" fill="none" d="M5.47 52.07 L15.25 54.15 L20.25 45.49 " />
<path stroke="#000000" fill="none" d="M13.56 38.06 L20.25 45.49 L10.47 43.41 " />
<path stroke="#000000" fill="none" d="M20.25 45.49 L15.25 54.15 L21.95 61.58 L26.95 52.92 L20.25 45.49 L30.04 47.57 L39.17 43.50 L45.86 50.94 L39.17 43.50 L30.04 47.57 L39.17 43.50 L29.39 41.43 L28.34 31.48 " />
<path stroke="#000000" fill="none" d="M21.95 61.58 L26.95 52.92 L20.25 45.49 " />
<path stroke="#000000" fill="none" d="M30.04 47.57 L36.73 55.00 L26.95 52.92 " />
<path stroke="#000000" fill="none" d="M30.04 47.57 L39.17 43.50 L29.39 41.43 L28.34 31.48 L29.39 41.43 L20.25 45.49 " />
<path stroke="#000000" fill="none" d="M29.39 41.43 L20.25 45.49 L30.04 47.57 " />
<path stroke="#000000" fill="none" d="M20.25 45.49 L19.21 35.55 L28.34 31.48 " />
<path stroke="#000000" fill="none" d="M45.86 50.94 L36.73 55.00 L30.04 47.57 " />
<path stroke="#000000" fill="none" d="M30.04 47.57 L36.73 55.00 L45.86 50.94 " />
<path stroke="#000000" fill="none" d="M29.39 41.43 L20.25 45.49 L30.04 47.57 " />
<path stroke="#000000" fill="none" d="M28.34 31.48 L38.13 33.56 L43.13 24.90 L44.17 34.84 L50.86 42.28 L45.86 50.94 " />
<path stroke="#000000" fill="none" d="M44.17 34.84 L39.17 43.50 L38.13 33.56 " />
<path stroke="#000000" fill="none" d="M45.86 50.94 L39.17 43.50 L44.17 34.84 " />
<path stroke="#000000" fill="none" d="M21.95 61.58 L26.95 52.92 L20.25 45.49 " />
<path stroke="#000000" fill="none" d="M16.30 64.10 L22.99 71.53 L21.95 61.58 " />
<path stroke="#000000" fill="none" d="M7.16 68.17 L6.12 58.22 L-3.66 56.14 L5.47 52.07 L10.47 43.41 L20.25 45.49 " />
<path stroke="#000000" fill="none" d="M5.47 52.07 L15.25 54.15 L6.12 58.22 " />
<path stroke="#000000" fill="none" d="M20.25 45.49 L15.25 54.15 L5.47 52.07 " />
<path stroke="#000000" fill="none" d="M7.16 68.17 L6.12 58.22 L-3.66 56.14 L5.47 52.07 L-3.66 56.14 L-10.35 48.71 L-11.40 38.76 L-21.18 36.69 L-20.14 46.63 L-10.35 48.71 L-19.49 52.78 L-24.49 61.44 L-34.27 59.36 L-29.27 50.70 L-35.96 43.27 L-29.27 50.70 L-30.32 40.75 L-21.18 36.69 L-16.18 28.03 L-22.87 20.59 L-13.09 22.67 L-22.87 20.59 L-23.92 10.65 L-22.87 20.59 L-13.09 22.67 L-14.14 12.73 L-23.92 10.65 L-14.78 6.58 L-9.78 -2.08 L-0.00 0.00 " />
<path stroke="#000000" fill="none" d="M5.47 52.07 L15.25 54.15 L6.12 58.22 " />
<path stroke="#000000" fill="none" d="M-10.35 48.71 L-1.22 44.64 L5.47 52.07 " />
<path stroke="#000000" fill="none" d="M-10.35 48.71 L-15.35 57.37 L-8.66 64.80 L-7.62 74.75 L-2.62 66.09 L7.16 68.17 " />
<path stroke="#000000" fill="none" d="M-8.66 64.80 L-3.66 56.14 L-10.35 48.71 " />
<path stroke="#000000" fill="none" d="M-2.62 66.09 L-3.66 56.14 L-8.66 64.80 " />
<path stroke="#000000" fill="none" d="M-21.18 36.69 L-20.14 46.63 L-10.35 48.71 " />
<path stroke="#000000" fill="none" d="M-19.49 52.78 L-29.27 50.70 L-20.14 46.63 " />
<path stroke="#000000" fill="none" d="M-19.49 52.78 L-24.49 61.44 L-15.35 57.37 L-8.66 64.80 L-15.35 57.37 L-10.35 48.71 " />
<path stroke="#000000" fill="none" d="M-15.35 57.37 L-10.35 48.71 L-19.49 52.78 " />
<path stroke="#000000" fill="none" d="M-10.35 48.71 L-3.66 56.14 L-8.66 64.80 " />
<path stroke="#000000" fill="none" d="M-34.27 59.36 L-29.27 50.70 L-19.49 52.78 " />
<path stroke="#000000" fill="none" d="M-35.96 43.27 L-40.96 51.93 L-34.27 59.36 " />
<path stroke="#000000" fill="none" d="M-30.32 40.75 L-37.01 33.32 L-35.96 43.27 " />
<path stroke="#000000" fill="none" d="M-21.18 36.69 L-20.14 46.63 L-10.35 48.71 L-19.49 52.78 L-24.49 61.44 L-34.27 59.36 " />
<path stroke="#000000" fill="none" d="M-19.49 52.78 L-29.27 50.70 L-20.14 46.63 " />
<path stroke="#000000" fill="none" d="M-34.27 59.36 L-29.27 50.70 L-19.49 52.78 " />
<path stroke="#000000" fill="none" d="M-21.18 36.69 L-11.40 38.76 L-6.40 30.10 L-5.35 40.05 L-6.40 30.10 L2.74 26.04 L-6.40 30.10 L-5.35 40.05 L-10.35 48.71 L-1.22 44.64 L5.47 52.07 L-3.66 56.14 L-10.35 48.71 " />
<path stroke="#000000" fill="none" d="M-5.35 40.05 L-10.35 48.71 L-11.40 38.76 " />
<path stroke="#000000" fill="none" d="M2.74 26.04 L3.78 35.98 L-5.35 40.05 " />
<path stroke="#000000" fill="none" d="M2.74 26.04 L-3.95 18.61 L-13.09 22.67 L-22.87 20.59 L-16.18 28.03 L-21.18 36.69 " />
<path stroke="#000000" fill="none" d="M-13.09 22.67 L-6.40 30.10 L2.74 26.04 " />
<path stroke="#000000" fill="none" d="M-16.18 28.03 L-6.40 30.10 L-13.09 22.67 " />
<path stroke="#000000" fill="none" d="M-5.35 40.05 L3.78 35.98 L2.74 26.04 " />
<path stroke="#000000" fill="none" d="M-1.22 44.64 L3.78 35.98 L-5.35 40.05 " />
<path stroke="#000000" fill="none" d="M-10.35 48.71 L-1.22 44.64 L5.47 52.07 " />
<path stroke="#000000" fill="none" d="M-10.35 48.71 L-11.40 38.76 L-21.18 36.69 L-11.40 38.76 L-6.40 30.10 L-5.35 40.05 " />
<path stroke="#000000" fill="none" d="M-21.18 36.69 L-20.14 46.63 L-10.35 48.71 " />
<path stroke="#000000" fill="none" d="M-5.35 40.05 L-10.35 48.71 L-11.40 38.76 " />
<path stroke="#000000" fill="none" d="M-13.09 22.67 L-6.40 30.10 L-16.18 28.03 " />
<path stroke="#000000" fill="none" d="M-23.92 10.65 L-14.14 12.73 L-13.09 22.67 " />
<path stroke="#000000" fill="none" d="M-23.92 10.65 L-33.05 14.72 L-32.01 24.66 L-37.01 33.32 L-27.87 29.25 L-21.18 36.69 " />
<path stroke="#000000" fill="none" d="M-32.01 24.66 L-22.87 20.59 L-23.92 10.65 " />
<path stroke="#000000" fill="none" d="M-27.87 29.25 L-22.87 20.59 L-32.01 24.66 " />
<path stroke="#000000" fill="none" d="M-13.09 22.67 L-14.14 12.73 L-23.92 10.65 " />
<path stroke="#000000" fill="none" d="M-14.78 6.58 L-5.00 8.66 L-14.14 12.73 " />
<path stroke="#000000" fill="none" d="M-14.78 6.58 L-9.78 -2.08 L-18.92 1.99 L-25.61 -5.44 L-18.92 1.99 L-23.92 10.65 " />
<path stroke="#000000" fill="none" d="M-18.92 1.99 L-23.92 10.65 L-14.78 6.58 " />
<path stroke="#000000" fill="none" d="M-23.92 10.65 L-30.61 3.22 L-25.61 -5.44 " />
<path stroke="#000000" fill="none" d="M-0.00 0.00 L-5.00 8.66 L-14.78 6.58 " />
<path stroke="#000000" fill="none" d="M-0.00 0.00 L-5.00 8.66 L1.69 16.09 L2.74 26.04 L7.74 17.38 L17.52 19.46 L12.52 28.12 L2.74 26.04 L-6.40 30.10 L-5.35 40.05 L-6.40 30.10 L-11.40 38.76 L-21.18 36.69 " />
<path stroke="#000000" fill="none" d="M1.69 16.09 L6.69 7.43 L-0.00 0.00 " />
<path stroke="#000000" fill="none" d="M7.74 17.38 L6.69 7.43 L1.69 16.09 " />
<path stroke="#000000" fill="none" d="M2.74 26.04 L7.74 17.38 L17.52 19.46 " />
<path stroke="#000000" fill="none" d="M2.74 26.04 L-3.95 18.61 L-13.09 22.67 L-3.95 18.61 L-5.00 8.66 L1.69 16.09 " />
<path stroke="#000000" fill="none" d="M-13.09 22.67 L-6.40 30.10 L2.74 26.04 " />
<path stroke="#000000" fill="none" d="M1.69 16.09 L2.74 26.04 L-3.95 18.61 " />
<path stroke="#000000" fill="none" d="M-5.35 40.05 L3.78 35.98 L2.74 26.04 " />
<path stroke="#000000" fill="none" d="M-11.40 38.76 L-10.35 48.71 L-5.35 40.05 " />
<path stroke="#000000" fill="none" d="M-21.18 36.69 L-16.18 28.03 L-22.87 20.59 L-13.09 22.67 L-3.95 18.61 L2.74 26.04 " />
<path stroke="#000000" fill="none" d="M-13.09 22.67 L-6.40 30.10 L-16.18 28.03 " />
<path stroke="#000000" fill="none" d="M2.74 26.04 L-6.40 30.10 L-13.09 22.67 " />
<path stroke="#000000" fill="none" d="M0.00 0.00 L6.69 7.43 L15.83 3.36 L25.61 5.44 L18.92 -1.99 L23.92 -10.65 L30.61 -3.22 L25.61 5.44 L30.61 -3.22 L23.92 -10.65 L30.61 -3.22 L29.56 -13.16 L38.70 -17.23 L29.56 -13.16 L30.61 -3.22 L23.92 -10.65 L30.61 -3.22 L25.61 5.44 L35.39 7.52 L40.39 -1.14 L49.53 -5.21 L39.74 -7.28 L38.70 -17.23 L48.48 -15.15 L49.53 -5.21 L56.22 2.23 L65.35 -1.84 L56.22 2.23 L66.00 4.31 L67.04 14.25 " />
<path stroke="#000000" fill="none" d="M15.83 3.36 L9.14 -4.07 L-0.00 0.00 " />
<path stroke="#000000" fill="none" d="M18.92 -1.99 L9.14 -4.07 L15.83 3.36 " />
<path stroke="#000000" fill="none" d="M25.61 5.44 L18.92 -1.99 L23.92 -10.65 " />
<path stroke="#000000" fill="none" d="M25.61 5.44 L16.47 9.51 L17.52 19.46 L16.47 9.51 L6.69 7.43 L15.83 3.36 " />
<path stroke="#000000" fill="none" d="M17.52 19.46 L26.65 15.39 L25.61 5.44 " />
<path stroke="#000000" fill="none" d="M15.83 3.36 L25.61 5.44 L16.47 9.51 " />
<path stroke="#000000" fill="none" d="M23.92 -10.65 L18.92 -1.99 L25.61 5.44 " />
<path stroke="#000000" fill="none" d="M29.56 -13.16 L22.87 -20.59 L23.92 -10.65 " />
<path stroke="#000000" fill="none" d="M38.70 -17.23 L39.74 -7.28 L49.53 -5.21 L40.39 -1.14 L35.39 7.52 L25.61 5.44 " />
<path stroke="#000000" fill="none" d="M40.39 -1.14 L30.61 -3.22 L39.74 -7.28 " />
<path stroke="#000000" fill="none" d="M25.61 5.44 L30.61 -3.22 L40.39 -1.14 " />
<path stroke="#000000" fill="none" d="M38.70 -17.23 L32.01 -24.66 L22.87 -20.59 L27.87 -29.25 L22.87 -20.59 L13.09 -22.67 L6.40 -30.10 L-2.74 -26.04 L3.95 -18.61 L13.09 -22.67 L8.09 -14.01 L9.14 -4.07 L-0.00 -0.00 " />
<path stroke="#000000" fill="none" d="M27.87 -29.25 L37.01 -33.32 L32.01 -24.66 " />
<path stroke="#000000" fill="none" d="M13.09 -22.67 L18.09 -31.33 L27.87 -29.25 " />
<path stroke="#000000" fill="none" d="M13.09 -22.67 L14.14 -12.73 L23.92 -10.65 L30.61 -3.22 L29.56 -13.16 L38.70 -17.23 " />
<path stroke="#000000" fill="none" d="M23.92 -10.65 L22.87 -20.59 L13.09 -22.67 " />
<path stroke="#000000" fill="none" d="M29.56 -13.16 L22.87 -20.59 L23.92 -10.65 " />
<path stroke="#000000" fill="none" d="M-2.74 -26.04 L3.95 -18.61 L13.09 -22.67 " />
<path stroke="#000000" fill="none" d="M8.09 -14.01 L-1.05 -9.95 L3.95 -18.61 " />
<path stroke="#000000" fill="none" d="M8.09 -14.01 L9.14 -4.07 L14.14 -12.73 L23.92 -10.65 L14.14 -12.73 L13.09 -22.67 " />
<path stroke="#000000" fill="none" d="M14.14 -12.73 L13.09 -22.67 L8.09 -14.01 " />
<path stroke="#000000" fill="none" d="M13.09 -22.67 L22.87 -20.59 L23.92 -10.65 " />
<path stroke="#000000" fill="none" d="M-0.00 -0.00 L-1.05 -9.95 L8.09 -14.01 " />
<path stroke="#000000" fill="none" d="M23.92 -10.65 L22.87 -20.59 L29.56 -13.16 " />
<path stroke="#000000" fill="none" d="M25.61 5.44 L18.92 -1.99 L23.92 -10.65 " />
<path stroke="#000000" fill="none" d="M25.61 5.44 L35.39 7.52 L40.39 -1.14 L49.53 -5.21 L39.74 -7.28 L38.70 -17.23 " />
<path stroke="#000000" fill="none" d="M40.39 -1.14 L30.61 -3.22 L25.61 5.44 " />
<path stroke="#000000" fill="none" d="M39.74 -7.28 L30.61 -3.22 L40.39 -1.14 " />
<path stroke="#000000" fill="none" d="M40.39 -1.14 L30.61 -3.22 L25.61 5.44 " />
<path stroke="#000000" fill="none" d="M39.74 -7.28 L30.61 -3.22 L40.39 -1.14 " />
<path stroke="#000000" fill="none" d="M49.53 -5.21 L39.74 -7.28 L38.70 -17.23 " />
<path stroke="#000000" fill="none" d="M49.53 -5.21 L44.53 3.45 L51.22 10.89 L44.53 3.45 L35.39 7.52 L40.39 -1.14 " />
<path stroke="#000000" fill="none" d="M51.22 10.89 L56.22 2.23 L49.53 -5.21 " />
<path stroke="#000000" fill="none" d="M40.39 -1.14 L49.53 -5.21 L44.53 3.45 " />
<path stroke="#000000" fill="none" d="M49.53 -5.21 L56.22 2.23 L65.35 -1.84 L58.66 -9.27 L49.53 -5.21 L54.53 -13.87 L53.48 -23.81 L62.62 -27.88 L53.48 -23.81 L54.53 -13.87 L53.48 -23.81 L48.48 -15.15 L38.70 -17.23 " />
<path stroke="#000000" fill="none" d="M65.35 -1.84 L58.66 -9.27 L49.53 -5.21 " />
<path stroke="#000000" fill="none" d="M54.53 -13.87 L63.66 -17.93 L58.66 -9.27 " />
<path stroke="#000000" fill="none" d="M54.53 -13.87 L53.48 -23.81 L48.48 -15.15 L38.70 -17.23 L48.48 -15.15 L49.53 -5.21 " />
<path stroke="#000000" fill="none" d="M48.48 -15.15 L49.53 -5.21 L54.53 -13.87 " />
<path stroke="#000000" fill="none" d="M49.53 -5.21 L39.74 -7.28 L38.70 -17.23 " />
<path stroke="#000000" fill="none" d="M62.62 -27.88 L63.66 -17.93 L54.53 -13.87 " />
<path stroke="#000000" fill="none" d="M54.53 -13.87 L63.66 -17.93 L62.62 -27.88 " />
<path stroke="#000000" fill="none" d="M48.48 -15.15 L49.53 -5.21 L54.53 -13.87 " />
<path stroke="#000000" fill="none" d="M38.70 -17.23 L43.70 -25.89 L37.01 -33.32 L46.79 -31.24 L55.92 -35.31 L62.62 -27.88 " />
<path stroke="#000000" fill="none" d="M46.79 -31.24 L53.48 -23.81 L43.70 -25.89 " />
<path stroke="#000000" fill="none" d="M62.62 -27.88 L53.48 -23.81 L46.79 -31.24 " />
<path stroke="#000000" fill="none" d="M65.35 -1.84 L58.66 -9.27 L49.53 -5.21 " />
<path stroke="#000000" fill="none" d="M66.00 4.31 L75.13 0.24 L65.35 -1.84 " />
<path stroke="#000000" fill="none" d="M67.04 14.25 L57.26 12.17 L52.26 20.83 L51.22 10.89 L44.53 3.45 L49.53 -5.21 " />
<path stroke="#000000" fill="none" d="M51.22 10.89 L56.22 2.23 L57.26 12.17 " />
<path stroke="#000000" fill="none" d="M49.53 -5.21 L56.22 2.23 L51.22 10.89 " />
<path stroke="#000000" fill="none" d="M67.04 14.25 L57.26 12.17 L52.26 20.83 L51.22 10.89 L52.26 20.83 L43.13 24.90 L33.34 22.82 L28.34 31.48 L38.13 33.56 L43.13 24.90 L44.17 34.84 L50.86 42.28 L45.86 50.94 L39.17 43.50 L30.04 47.57 L39.17 43.50 L29.39 41.43 L28.34 31.48 L21.65 24.05 L12.52 28.12 L17.52 19.46 L12.52 28.12 L2.74 26.04 L12.52 28.12 L17.52 19.46 L7.74 17.38 L2.74 26.04 L1.69 16.09 L-5.00 8.66 L0.00 -0.00 " />
<path stroke="#000000" fill="none" d="M51.22 10.89 L56.22 2.23 L57.26 12.17 " />
<path stroke="#000000" fill="none" d="M43.13 24.90 L42.08 14.95 L51.22 10.89 " />
<path stroke="#000000" fill="none" d="M43.13 24.90 L49.82 32.33 L58.95 28.26 L68.73 30.34 L62.04 22.91 L67.04 14.25 " />
<path stroke="#000000" fill="none" d="M58.95 28.26 L52.26 20.83 L43.13 24.90 " />
<path stroke="#000000" fill="none" d="M62.04 22.91 L52.26 20.83 L58.95 28.26 " />
<path stroke="#000000" fill="none" d="M28.34 31.48 L38.13 33.56 L43.13 24.90 " />
<path stroke="#000000" fill="none" d="M44.17 34.84 L39.17 43.50 L38.13 33.56 " />
<path stroke="#000000" fill="none" d="M44.17 34.84 L50.86 42.28 L49.82 32.33 L58.95 28.26 L49.82 32.33 L43.13 24.90 " />
<path stroke="#000000" fill="none" d="M49.82 32.33 L43.13 24.90 L44.17 34.84 " />
<path stroke="#000000" fill="none" d="M43.13 24.90 L52.26 20.83 L58.95 28.26 " />
<path stroke="#000000" fill="none" d="M45.86 50.94 L39.17 43.50 L44.17 34.84 " />
<path stroke="#000000" fill="none" d="M30.04 47.57 L36.73 55.00 L45.86 50.94 " />
<path stroke="#000000" fill="none" d="M29.39 41.43 L20.25 45.49 L30.04 47.57 " />
<path stroke="#000000" fill="none" d="M28.34 31.48 L38.13 33.56 L43.13 24.90 L44.17 34.84 L50.86 42.28 L45.86 50.94 " />
<path stroke="#000000" fill="none" d="M44.17 34.84 L39.17 43.50 L38.13 33.56 " />
<path stroke="#000000" fill="none" d="M45.86 50.94 L39.17 43.50 L44.17 34.84 " />
<path stroke="#000000" fill="none" d="M28.34 31.48 L33.34 22.82 L26.65 15.39 L36.44 17.47 L26.65 15.39 L25.61 5.44 L26.65 15.39 L36.44 17.47 L43.13 24.90 L42.08 14.95 L51.22 10.89 L52.26 20.83 L43.13 24.90 " />
<path stroke="#000000" fill="none" d="M36.44 17.47 L43.13 24.90 L33.34 22.82 " />
<path stroke="#000000" fill="none" d="M25.61 5.44 L35.39 7.52 L36.44 17.47 " />
<path stroke="#000000" fill="none" d="M25.61 5.44 L16.47 9.51 L17.52 19.46 L12.52 28.12 L21.65 24.05 L28.34 31.48 " />
<path stroke="#000000" fill="none" d="M17.52 19.46 L26.65 15.39 L25.61 5.44 " />
<path stroke="#000000" fill="none" d="M21.65 24.05 L26.65 15.39 L17.52 19.46 " />
<path stroke="#000000" fill="none" d="M36.44 17.47 L35.39 7.52 L25.61 5.44 " />
<path stroke="#000000" fill="none" d="M42.08 14.95 L35.39 7.52 L36.44 17.47 " />
<path stroke="#000000" fill="none" d="M43.13 24.90 L42.08 14.95 L51.22 10.89 " />
<path stroke="#000000" fill="none" d="M43.13 24.90 L33.34 22.82 L28.34 31.48 L33.34 22.82 L26.65 15.39 L36.44 17.47 " />
<path stroke="#000000" fill="none" d="M28.34 31.48 L38.13 33.56 L43.13 24.90 " />
<path stroke="#000000" fill="none" d="M36.44 17.47 L43.13 24.90 L33.34 22.82 " />
<path stroke="#000000" fill="none" d="M17.52 19.46 L26.65 15.39 L21.65 24.05 " />
<path stroke="#000000" fill="none" d="M2.74 26.04 L7.74 17.38 L17.52 19.46 " />
<path stroke="#000000" fill="none" d="M2.74 26.04 L3.78 35.98 L13.56 38.06 L20.25 45.49 L19.21 35.55 L28.34 31.48 " />
<path stroke="#000000" fill="none" d="M13.56 38.06 L12.52 28.12 L2.74 26.04 " />
<path stroke="#000000" fill="none" d="M19.21 35.55 L12.52 28.12 L13.56 38.06 " />
<path stroke="#000000" fill="none" d="M17.52 19.46 L7.74 17.38 L2.74 26.04 " />
<path stroke="#000000" fill="none" d="M1.69 16.09 L6.69 7.43 L7.74 17.38 " />
<path stroke="#000000" fill="none" d="M1.69 16.09 L-5.00 8.66 L-3.95 18.61 L-13.09 22.67 L-3.95 18.61 L2.74 26.04 " />
<path stroke="#000000" fill="none" d="M-3.95 18.61 L2.74 26.04 L1.69 16.09 " />
<path stroke="#000000" fill="none" d="M2.74 26.04 L-6.40 30.10 L-13.09 22.67 " />
<path stroke="#000000" fill="none" d="M0.00 -0.00 L6.69 7.43 L1.69 16.09 " />
<path stroke="#000000" fill="none" d="M0.00 -0.00 L6.69 7.43 L15.83 3.36 L25.61 5.44 L18.92 -1.99 L23.92 -10.65 L30.61 -3.22 L25.61 5.44 L26.65 15.39 L36.44 17.47 L26.65 15.39 L33.34 22.82 L28.34 31.48 " />
<path stroke="#000000" fill="none" d="M15.83 3.36 L9.14 -4.07 L0.00 -0.00 " />
<path stroke="#000000" fill="none" d="M18.92 -1.99 L9.14 -4.07 L15.83 3.36 " />
<path stroke="#000000" fill="none" d="M25.61 5.44 L18.92 -1.99 L23.92 -10.65 " />
<path stroke="#000000" fill="none" d="M25.61 5.44 L16.47 9.51 L17.52 19.46 L16.47 9.51 L6.69 7.43 L15.83 3.36 " />
<path stroke="#000000" fill="none" d="M17.52 19.46 L26.65 15.39 L25.61 5.44 " />
<path stroke="#000000" fill="none" d="M15.83 3.36 L25.61 5.44 L16.47 9.51 " />
<path stroke="#000000" fill="none" d="M36.44 17.47 L35.39 7.52 L25.61 5.44 " />
<path stroke="#000000" fill="none" d="M33.34 22.82 L43.13 24.90 L36.44 17.47 " />
<path stroke="#000000" fill="none" d="M28.34 31.48 L21.65 24.05 L12.52 28.12 L17.52 19.46 L16.47 9.51 L25.61 5.44 " />
<path stroke="#000000" fill="none" d="M17.52 19.46 L26.65 15.39 L21.65 24.05 " />
<path stroke="#000000" fill="none" d="M25.61 5.44 L26.65 15.39 L17.52 19.46 " />
</g>
</svg>

