<svg viewBox="0 0 400.000000 380.889618" xmlns="http://www.w3.org/2000/svg" version="1.1">
<!-- SEED 14892857 -->
<rect width="400.000000" height="380.889618" fill="#DDAADD" fill-opacity="1.000000"/>
<g transform="scale(4.671790,4.651071) translate(19.328392,77.088181) ">
<path stroke="#000000" stroke-opacity="1.000000" stroke-width="0.200000" fill="none" fill-opacity="1" d="M0.00 0.00 L1.00 0.00 L1.31 -0.95 L0.50 -1.54 L1.31 -0.95 L1.62 0.00 L2.62 -0.00 L2.93 -0.95 L2.12 -1.54 L1.31 -0.95 L2.12 -1.54 L3.12 -1.54 L3.43 -2.49 L2.62 -3.08 L1.81 -2.49 L2.12 -1.54 L1.81 -2.49 L2.12 -3.44 L1.31 -4.03 L2.12 -3.44 L2.93 -4.03 L2.62 -4.98 L2.93 -4.03 L2.62 -3.08 L3.43 -2.49 L3.74 -1.54 L4.74 -1.54 L5.05 -2.49 L4.74 -1.54 L3.93 -0.95 L4.24 0.00 L5.24 0.00 L5.55 -0.95 L4.74 -1.54 L5.55 -0.95 L5.85 -0.00 L6.85 0.00 L7.16 -0.95 L6.35 -1.54 L5.55 -0.95 L6.35 -1.54 L7.35 -1.54 L7.66 -2.49 L6.85 -3.08 L6.05 -2.49 L6.35 -1.54 L6.05 -2.49 L6.35 -3.44 L5.55 -4.03 L4.74 -3.44 L5.05 -2.49 L6.05 -2.49 L5.05 -2.49 L4.24 -3.08 L3.43 -2.49 L4.24 -3.08 L3.93 -4.03 L2.93 -4.03 L3.93 -4.03 L4.74 -3.44 L5.55 -4.03 L6.55 -4.03 L6.85 -4.98 L6.05 -5.57 L6.85 -4.98 L7.16 -4.03 L8.16 -4.03 L8.47 -4.98 L7.66 -5.57 L6.85 -4.98 L7.66 -5.57 L8.66 -5.57 L8.97 -6.52 L8.16 -7.11 L7.35 -6.52 L7.66 -5.57 L7.35 -6.52 L7.66 -7.47 L6.85 -8.06 L6.05 -7.47 L6.35 -6.52 L7.35 -6.52 L6.35 -6.52 L5.55 -7.11 L4.74 -6.52 L5.05 -5.57 L6.05 -5.57 L6.35 -6.52 L6.05 -5.57 L5.24 -4.98 L5.55 -4.03 L5.24 -4.98 L4.24 -4.98 L3.93 -4.03 L4.24 -4.98 L5.05 -5.57 L4.74 -6.52 L5.05 -7.47 L4.24 -8.06 L3.43 -7.47 L4.24 -8.06 L5.24 -8.06 L5.55 -9.01 L4.74 -9.60 L3.93 -9.01 L4.24 -8.06 L3.93 -9.01 L4.24 -9.96 L3.43 -10.55 L4.24 -9.96 L5.05 -10.55 L4.74 -11.50 L5.05 -10.55 L4.74 -9.60 L5.55 -9.01 L6.35 -9.60 L6.05 -10.55 L5.05 -10.55 L6.05 -10.55 L6.85 -9.96 L7.66 -10.55 L7.35 -11.50 L6.35 -11.50 L6.05 -10.55 L6.35 -11.50 L7.16 -12.09 L6.85 -13.04 L7.16 -12.09 L8.16 -12.09 L8.47 -13.04 L8.16 -12.09 L7.35 -11.50 L7.66 -10.55 L7.35 -9.60 L8.16 -9.01 L8.97 -9.60 L8.16 -9.01 L7.16 -9.01 L6.85 -8.06 L7.66 -7.47 L8.47 -8.06 L8.16 -9.01 L8.47 -8.06 L8.16 -7.11 L8.97 -6.52 L9.28 -5.57 L10.28 -5.57 L10.59 -6.52 L10.28 -5.57 L9.47 -4.98 L9.78 -4.03 L10.78 -4.03 L11.09 -4.98 L10.28 -5.57 L11.09 -4.98 L11.40 -4.03 L12.40 -4.03 L12.71 -4.98 L11.90 -5.57 L11.09 -4.98 L11.90 -5.57 L12.90 -5.57 L13.21 -6.52 L12.90 -5.57 L13.71 -4.98 L14.52 -5.57 L13.71 -4.98 L12.71 -4.98 L12.40 -4.03 L11.59 -3.44 L11.90 -2.49 L12.90 -2.49 L11.90 -2.49 L11.09 -3.08 L10.28 -2.49 L10.59 -1.54 L11.59 -1.54 L11.90 -2.49 L11.59 -1.54 L10.78 -0.95 L11.09 0.00 L12.09 0.00 L12.40 -0.95 L11.59 -1.54 L12.40 -0.95 L12.71 0.00 L13.71 0.00 L14.02 -0.95 L13.21 -1.54 L12.40 -0.95 L13.21 -1.54 L14.21 -1.54 L14.52 -2.49 L13.71 -3.08 L12.90 -2.49 L13.21 -1.54 L12.90 -2.49 L13.21 -3.44 L12.40 -4.03 L13.21 -3.44 L14.02 -4.03 L13.71 -4.98 L14.02 -4.03 L13.71 -3.08 L14.52 -2.49 L14.83 -1.54 L15.83 -1.54 L16.14 -2.49 L15.83 -1.54 L15.02 -0.95 L15.33 -0.00 L16.33 -0.00 L16.64 -0.95 L15.83 -1.54 L16.64 -0.95 L16.94 -0.00 L17.94 -0.00 L18.25 -0.95 L17.44 -1.54 L16.64 -0.95 L17.44 -1.54 L18.44 -1.54 L18.75 -2.49 L17.94 -3.08 L17.14 -2.49 L17.44 -1.54 L17.14 -2.49 L17.44 -3.44 L16.64 -4.03 L15.83 -3.44 L16.14 -2.49 L17.14 -2.49 L16.14 -2.49 L15.33 -3.08 L14.52 -2.49 L15.33 -3.08 L15.02 -4.03 L14.02 -4.03 L15.02 -4.03 L15.83 -3.44 L16.64 -4.03 L17.64 -4.03 L17.94 -4.98 L17.14 -5.57 L17.94 -4.98 L18.25 -4.03 L19.25 -4.03 L19.56 -4.98 L18.75 -5.57 L17.94 -4.98 L18.75 -5.57 L19.75 -5.57 L20.06 -6.52 L19.25 -7.11 L18.44 -6.52 L18.75 -5.57 L18.44 -6.52 L18.75 -7.47 L17.94 -8.06 L17.14 -7.47 L17.44 -6.52 L18.44 -6.52 L17.44 -6.52 L16.64 -7.11 L15.83 -6.52 L16.14 -5.57 L17.14 -5.57 L17.44 -6.52 L17.14 -5.57 L16.33 -4.98 L16.64 -4.03 L16.33 -4.98 L15.33 -4.98 L15.02 -4.03 L15.33 -4.98 L16.14 -5.57 L15.83 -6.52 L16.14 -7.47 L15.33 -8.06 L14.52 -7.47 L15.33 -8.06 L16.33 -8.06 L16.64 -9.01 L15.83 -9.60 L15.02 -9.01 L15.33 -8.06 L15.02 -9.01 L15.33 -9.96 L14.52 -10.55 L13.71 -9.96 L14.02 -9.01 L15.02 -9.01 L14.02 -9.01 L13.21 -9.60 L12.40 -9.01 L12.71 -8.06 L13.71 -8.06 L14.02 -9.01 L13.71 -8.06 L12.90 -7.47 L13.21 -6.52 L14.21 -6.52 L14.52 -7.47 L13.71 -8.06 L14.52 -7.47 L14.83 -6.52 L15.83 -6.52 L14.83 -6.52 L14.52 -5.57 L15.33 -4.98 L14.52 -5.57 L14.21 -6.52 L13.21 -6.52 L12.40 -7.11 L11.59 -6.52 L11.90 -5.57 L11.59 -6.52 L11.90 -7.47 L11.09 -8.06 L10.28 -7.47 L10.59 -6.52 L11.59 -6.52 L10.59 -6.52 L9.78 -7.11 L8.97 -6.52 L9.78 -7.11 L9.47 -8.06 L8.47 -8.06 L9.47 -8.06 L10.28 -7.47 L11.09 -8.06 L10.78 -9.01 L9.78 -9.01 L9.47 -8.06 L9.78 -9.01 L10.59 -9.60 L10.28 -10.55 L9.28 -10.55 L8.97 -9.60 L9.78 -9.01 L8.97 -9.60 L8.66 -10.55 L7.66 -10.55 L8.66 -10.55 L8.97 -11.50 L8.16 -12.09 L8.97 -11.50 L9.28 -10.55 L10.28 -10.55 L11.09 -9.96 L11.90 -10.55 L11.59 -11.50 L11.90 -10.55 L11.59 -9.60 L12.40 -9.01 L13.21 -9.60 L12.90 -10.55 L11.90 -10.55 L12.90 -10.55 L13.71 -9.96 L14.52 -10.55 L15.52 -10.55 L15.83 -11.50 L15.02 -12.09 L15.83 -11.50 L16.14 -10.55 L17.14 -10.55 L17.44 -11.50 L16.64 -12.09 L15.83 -11.50 L16.64 -12.09 L17.64 -12.09 L17.94 -13.04 L17.14 -13.63 L16.33 -13.04 L16.64 -12.09 L16.33 -13.04 L16.64 -13.99 L15.83 -14.58 L16.64 -13.99 L17.44 -14.58 L17.14 -15.53 L17.44 -14.58 L17.14 -13.63 L17.94 -13.04 L18.25 -12.09 L19.25 -12.09 L19.56 -13.04 L19.25 -12.09 L18.44 -11.50 L18.75 -10.55 L19.75 -10.55 L20.06 -11.50 L19.25 -12.09 L20.06 -11.50 L20.37 -10.55 L21.37 -10.55 L21.68 -11.50 L20.87 -12.09 L20.06 -11.50 L20.87 -12.09 L21.87 -12.09 L22.18 -13.04 L21.37 -13.63 L20.56 -13.04 L20.87 -12.09 L20.56 -13.04 L20.87 -13.99 L20.06 -14.58 L19.25 -13.99 L19.56 -13.04 L20.56 -13.04 L19.56 -13.04 L18.75 -13.63 L17.94 -13.04 L18.75 -13.63 L18.44 -14.58 L17.44 -14.58 L18.44 -14.58 L19.25 -13.99 L20.06 -14.58 L21.06 -14.58 L21.37 -15.53 L20.56 -16.12 L21.37 -15.53 L21.68 -14.58 L22.68 -14.58 L22.99 -15.53 L22.18 -16.12 L21.37 -15.53 L22.18 -16.12 L23.18 -16.12 L23.49 -17.07 L22.68 -17.65 L21.87 -17.07 L22.18 -16.12 L21.87 -17.07 L22.18 -18.02 L21.37 -18.60 L20.56 -18.02 L20.87 -17.07 L21.87 -17.07 L20.87 -17.07 L20.06 -17.65 L19.25 -17.07 L19.56 -16.11 L20.56 -16.11 L20.87 -17.07 L20.56 -16.11 L19.75 -15.53 L20.06 -14.58 L19.75 -15.53 L18.75 -15.53 L18.44 -14.58 L18.75 -15.53 L19.56 -16.11 L19.25 -17.07 L19.56 -18.02 L18.75 -18.60 L17.94 -18.02 L18.75 -18.60 L19.75 -18.60 L20.06 -19.56 L19.25 -20.14 L18.44 -19.56 L18.75 -18.60 L18.44 -19.56 L18.75 -20.51 L17.94 -21.09 L17.13 -20.51 L17.44 -19.56 L18.44 -19.56 L17.44 -19.56 L16.63 -20.14 L15.83 -19.56 L16.13 -18.60 L17.13 -18.60 L17.44 -19.56 L17.13 -18.60 L16.33 -18.02 L16.63 -17.07 L17.63 -17.07 L17.94 -18.02 L17.13 -18.60 L17.94 -18.02 L18.25 -17.07 L19.25 -17.07 L18.25 -17.07 L17.94 -16.11 L18.75 -15.53 L17.94 -16.11 L17.63 -17.07 L16.63 -17.07 L15.83 -17.65 L15.02 -17.07 L15.33 -16.11 L15.02 -17.07 L15.33 -18.02 L14.52 -18.60 L13.71 -18.02 L14.02 -17.07 L15.02 -17.07 L14.02 -17.07 L13.21 -17.65 L12.40 -17.07 L12.71 -16.11 L13.71 -16.11 L14.02 -17.07 L13.71 -16.11 L12.90 -15.53 L13.21 -14.58 L14.21 -14.58 L14.52 -15.53 L13.71 -16.11 L14.52 -15.53 L14.83 -14.58 L15.83 -14.58 L16.13 -15.53 L15.33 -16.11 L14.52 -15.53 L15.33 -16.11 L16.33 -16.11 L16.63 -17.07 L16.33 -16.11 L17.13 -15.53 L17.94 -16.11 L17.13 -15.53 L16.13 -15.53 L15.83 -14.58 L15.02 -13.99 L15.33 -13.04 L16.33 -13.04 L15.33 -13.04 L14.52 -13.62 L13.71 -13.04 L14.02 -12.09 L15.02 -12.09 L15.33 -13.04 L15.02 -12.09 L14.21 -11.50 L14.52 -10.55 L14.21 -11.50 L13.21 -11.50 L12.90 -10.55 L13.21 -11.50 L14.02 -12.09 L13.71 -13.04 L12.71 -13.04 L12.40 -12.09 L13.21 -11.50 L12.40 -12.09 L12.09 -13.04 L11.09 -13.04 L10.78 -12.09 L11.59 -11.50 L12.40 -12.09 L11.59 -11.50 L10.59 -11.50 L10.28 -10.55 L10.59 -11.50 L9.78 -12.09 L8.97 -11.50 L9.78 -12.09 L10.78 -12.09 L11.09 -13.04 L11.90 -13.62 L11.59 -14.58 L10.59 -14.58 L11.59 -14.58 L12.40 -13.99 L13.21 -14.58 L12.90 -15.53 L11.90 -15.53 L11.59 -14.58 L11.90 -15.53 L12.71 -16.11 L12.40 -17.07 L12.71 -18.02 L11.90 -18.60 L11.09 -18.02 L11.90 -18.60 L12.90 -18.60 L13.21 -19.56 L12.40 -20.14 L11.59 -19.56 L11.90 -18.60 L11.59 -19.56 L11.90 -20.51 L11.09 -21.09 L10.28 -20.51 L10.59 -19.56 L11.59 -19.56 L10.59 -19.56 L9.78 -20.14 L8.97 -19.56 L9.78 -20.14 L9.47 -21.09 L8.47 -21.09 L9.47 -21.09 L10.28 -20.51 L11.09 -21.09 L12.09 -21.09 L12.40 -22.05 L11.59 -22.63 L12.40 -22.05 L12.71 -21.09 L13.71 -21.09 L14.02 -22.05 L13.21 -22.63 L12.40 -22.05 L13.21 -22.63 L14.21 -22.63 L14.52 -23.58 L13.71 -24.17 L12.90 -23.58 L13.21 -22.63 L12.90 -23.58 L13.21 -24.54 L12.40 -25.12 L11.59 -24.54 L11.90 -23.58 L12.90 -23.58 L11.90 -23.58 L11.09 -24.17 L10.28 -23.58 L10.59 -22.63 L11.59 -22.63 L11.90 -23.58 L11.59 -22.63 L10.78 -22.05 L11.09 -21.09 L10.78 -22.05 L9.78 -22.05 L9.47 -21.09 L9.78 -22.05 L10.59 -22.63 L10.28 -23.58 L10.59 -24.54 L9.78 -25.12 L8.97 -24.54 L9.78 -25.12 L10.78 -25.12 L11.09 -26.07 L10.28 -26.66 L9.47 -26.07 L9.78 -25.12 L9.47 -26.07 L9.78 -27.03 L8.97 -27.61 L9.78 -27.03 L10.59 -27.61 L10.28 -28.56 L10.59 -27.61 L10.28 -26.66 L11.09 -26.07 L11.90 -26.66 L11.59 -27.61 L10.59 -27.61 L11.59 -27.61 L12.40 -27.03 L13.21 -27.61 L12.90 -28.56 L11.90 -28.56 L11.59 -27.61 L11.90 -28.56 L12.71 -29.15 L12.40 -30.10 L12.71 -29.15 L13.71 -29.15 L14.02 -30.10 L13.71 -29.15 L12.90 -28.56 L13.21 -27.61 L12.90 -26.66 L13.71 -26.07 L14.52 -26.66 L13.71 -26.07 L12.71 -26.07 L12.40 -25.12 L13.21 -24.54 L14.02 -25.12 L13.71 -26.07 L14.02 -25.12 L13.71 -24.17 L14.52 -23.58 L15.33 -24.17 L15.02 -25.12 L14.02 -25.12 L15.02 -25.12 L15.83 -24.54 L16.63 -25.12 L16.33 -26.07 L15.33 -26.07 L15.02 -25.12 L15.33 -26.07 L16.13 -26.66 L15.83 -27.61 L14.83 -27.61 L14.52 -26.66 L15.33 -26.07 L14.52 -26.66 L14.21 -27.61 L13.21 -27.61 L14.21 -27.61 L14.52 -28.56 L13.71 -29.15 L14.52 -28.56 L14.83 -27.61 L15.83 -27.61 L16.63 -27.03 L17.44 -27.61 L17.13 -28.56 L17.44 -27.61 L17.14 -26.66 L17.94 -26.07 L18.75 -26.66 L18.44 -27.61 L17.44 -27.61 L18.44 -27.61 L19.25 -27.03 L20.06 -27.61 L19.75 -28.56 L18.75 -28.56 L18.44 -27.61 L18.75 -28.56 L19.56 -29.15 L19.25 -30.10 L18.25 -30.10 L17.94 -29.15 L18.75 -28.56 L17.94 -29.15 L17.63 -30.10 L16.63 -30.10 L16.33 -29.15 L17.13 -28.56 L17.94 -29.15 L17.13 -28.56 L16.13 -28.56 L15.83 -27.61 L16.13 -28.56 L15.33 -29.15 L14.52 -28.56 L15.33 -29.15 L16.33 -29.15 L16.63 -30.10 L17.44 -30.69 L17.13 -31.64 L16.13 -31.64 L17.13 -31.64 L17.94 -31.05 L18.75 -31.64 L18.44 -32.59 L17.44 -32.59 L17.13 -31.64 L17.44 -32.59 L18.25 -33.18 L17.94 -34.13 L18.25 -33.18 L19.25 -33.18 L19.56 -34.13 L19.25 -33.18 L18.44 -32.59 L18.75 -31.64 L19.75 -31.64 L20.06 -32.59 L19.25 -33.18 L20.06 -32.59 L20.37 -31.64 L21.37 -31.64 L21.68 -32.59 L20.87 -33.18 L20.06 -32.59 L20.87 -33.18 L21.87 -33.18 L22.18 -34.13 L21.87 -33.18 L22.68 -32.59 L23.49 -33.18 L22.68 -32.59 L21.68 -32.59 L21.37 -31.64 L20.56 -31.05 L20.87 -30.10 L21.87 -30.10 L20.87 -30.10 L20.06 -30.69 L19.25 -30.10 L19.56 -29.15 L20.56 -29.15 L20.87 -30.10 L20.56 -29.15 L19.75 -28.56 L20.06 -27.61 L19.75 -26.66 L20.56 -26.07 L21.37 -26.66 L20.56 -26.07 L19.56 -26.07 L19.25 -25.12 L20.06 -24.54 L20.87 -25.12 L20.56 -26.07 L20.87 -25.12 L20.56 -24.17 L21.37 -23.58 L22.18 -24.17 L21.87 -25.12 L20.87 -25.12 L21.87 -25.12 L22.68 -24.54 L23.49 -25.12 L22.68 -24.54 L22.99 -23.58 L23.99 -23.58 L22.99 -23.58 L22.18 -24.17 L21.37 -23.58 L20.37 -23.58 L20.06 -22.63 L20.87 -22.05 L20.06 -22.63 L19.75 -23.58 L18.75 -23.58 L18.44 -22.63 L19.25 -22.05 L20.06 -22.63 L19.25 -22.05 L18.25 -22.05 L17.94 -21.09 L18.75 -20.51 L19.56 -21.09 L19.25 -22.05 L19.56 -21.09 L19.25 -20.14 L20.06 -19.56 L20.87 -20.14 L20.56 -21.09 L19.56 -21.09 L20.56 -21.09 L21.37 -20.51 L22.18 -21.09 L21.87 -22.05 L20.87 -22.05 L20.56 -21.09 L20.87 -22.05 L21.68 -22.63 L21.37 -23.58 L21.68 -22.63 L22.68 -22.63 L22.99 -23.58 L22.68 -22.63 L21.87 -22.05 L22.18 -21.09 L21.87 -20.14 L22.68 -19.56 L23.49 -20.14 L22.68 -19.56 L21.68 -19.56 L21.37 -18.60 L22.18 -18.02 L22.99 -18.60 L22.68 -19.56 L22.99 -18.60 L22.68 -17.65 L23.49 -17.07 L23.80 -16.11 L24.80 -16.11 L25.11 -17.07 L24.80 -16.11 L23.99 -15.53 L24.30 -14.58 L25.30 -14.58 L25.61 -15.53 L24.80 -16.11 L25.61 -15.53 L25.92 -14.58 L26.92 -14.58 L27.23 -15.53 L26.42 -16.11 L25.61 -15.53 L26.42 -16.11 L27.42 -16.11 L27.73 -17.07 L27.42 -16.11 L28.23 -15.53 L29.03 -16.11 L28.23 -15.53 L27.23 -15.53 L26.92 -14.58 L26.11 -13.99 L26.42 -13.04 L27.42 -13.04 L26.42 -13.04 L25.61 -13.62 L24.80 -13.04 L25.11 -12.09 L26.11 -12.09 L26.42 -13.04 L26.11 -12.09 L25.30 -11.50 L25.61 -10.55 L26.61 -10.55 L26.92 -11.50 L26.11 -12.09 L26.92 -11.50 L27.23 -10.55 L28.23 -10.55 L28.53 -11.50 L27.73 -12.09 L26.92 -11.50 L27.73 -12.09 L28.73 -12.09 L29.03 -13.04 L28.23 -13.62 L27.42 -13.04 L27.73 -12.09 L27.42 -13.04 L27.73 -13.99 L26.92 -14.58 L27.73 -13.99 L28.53 -14.58 L28.23 -15.53 L28.53 -14.58 L28.23 -13.62 L29.03 -13.04 L29.34 -12.09 L30.34 -12.09 L30.65 -13.04 L30.34 -12.09 L29.53 -11.50 L29.84 -10.55 L30.84 -10.55 L31.15 -11.50 L30.34 -12.09 L31.15 -11.50 L31.46 -10.55 L32.46 -10.55 L32.77 -11.50 L31.96 -12.09 L31.15 -11.50 L31.96 -12.09 L32.96 -12.09 L33.27 -13.04 L32.46 -13.62 L31.65 -13.04 L31.96 -12.09 L31.65 -13.04 L31.96 -13.99 L31.15 -14.58 L30.34 -13.99 L30.65 -13.04 L31.65 -13.04 L30.65 -13.04 L29.84 -13.62 L29.04 -13.04 L29.84 -13.62 L29.53 -14.58 L28.53 -14.58 L29.53 -14.58 L30.34 -13.99 L31.15 -14.58 L32.15 -14.58 L32.46 -15.53 L31.65 -16.11 L32.46 -15.53 L32.77 -14.58 L33.77 -14.58 L34.08 -15.53 L33.27 -16.11 L32.46 -15.53 L33.27 -16.11 L34.27 -16.11 L34.58 -17.07 L34.27 -16.11 L35.08 -15.53 L35.89 -16.11 L35.08 -15.53 L34.08 -15.53 L33.77 -14.58 L34.58 -13.99 L35.39 -14.58 L35.08 -15.53 L35.39 -14.58 L35.08 -13.63 L35.89 -13.04 L36.70 -13.63 L36.39 -14.58 L35.39 -14.58 L36.39 -14.58 L37.20 -13.99 L38.01 -14.58 L37.20 -13.99 L37.51 -13.04 L38.51 -13.04 L37.51 -13.04 L36.70 -13.63 L35.89 -13.04 L34.89 -13.04 L34.58 -12.09 L35.39 -11.50 L34.58 -12.09 L34.27 -13.04 L33.27 -13.04 L32.96 -12.09 L33.77 -11.50 L34.58 -12.09 L33.77 -11.50 L32.77 -11.50 L32.46 -10.55 L31.65 -9.96 L31.96 -9.01 L32.96 -9.01 L31.96 -9.01 L31.15 -9.60 L30.34 -9.01 L30.65 -8.06 L31.65 -8.06 L31.96 -9.01 L31.65 -8.06 L30.84 -7.47 L31.15 -6.52 L32.15 -6.52 L32.46 -7.47 L31.65 -8.06 L32.46 -7.47 L32.77 -6.52 L33.77 -6.52 L32.77 -6.52 L32.46 -5.57 L33.27 -4.98 L32.46 -5.57 L32.15 -6.52 L31.15 -6.52 L30.34 -7.11 L29.53 -6.52 L29.84 -5.57 L29.53 -6.52 L29.84 -7.47 L29.03 -8.06 L28.23 -7.47 L28.53 -6.52 L29.53 -6.52 L28.53 -6.52 L27.73 -7.11 L26.92 -6.52 L27.23 -5.57 L28.23 -5.57 L28.53 -6.52 L28.23 -5.57 L27.42 -4.98 L27.73 -4.03 L28.73 -4.03 L29.03 -4.98 L28.23 -5.57 L29.03 -4.98 L29.34 -4.03 L30.34 -4.03 L30.65 -4.98 L29.84 -5.57 L29.03 -4.98 L29.84 -5.57 L30.84 -5.57 L31.15 -6.52 L30.84 -5.57 L31.65 -4.98 L32.46 -5.57 L31.65 -4.98 L30.65 -4.98 L30.34 -4.03 L29.54 -3.44 L29.84 -2.49 L30.84 -2.49 L29.84 -2.49 L29.04 -3.08 L28.23 -2.49 L28.54 -1.54 L29.54 -1.54 L29.84 -2.49 L29.54 -1.54 L28.73 -0.95 L29.04 0.00 L30.04 0.00 L30.34 -0.95 L29.54 -1.54 L30.34 -0.95 L30.65 0.00 L31.65 0.00 L31.96 -0.95 L31.15 -1.54 L30.34 -0.95 L31.15 -1.54 L32.15 -1.54 L32.46 -2.49 L31.65 -3.08 L30.84 -2.49 L31.15 -1.54 L30.84 -2.49 L31.15 -3.44 L30.34 -4.03 L31.15 -3.44 L31.96 -4.03 L31.65 -4.98 L31.96 -4.03 L31.65 -3.08 L32.46 -2.49 L32.77 -1.54 L33.77 -1.54 L34.08 -2.49 L33.77 -1.54 L32.96 -0.95 L33.27 0.00 L34.27 0.00 L34.58 -0.95 L33.77 -1.54 L34.58 -0.95 L34.89 0.00 L35.89 0.00 L36.20 -0.95 L35.39 -1.54 L34.58 -0.95 L35.39 -1.54 L36.39 -1.54 L36.70 -2.49 L35.89 -3.08 L35.08 -2.49 L35.39 -1.54 L35.08 -2.49 L35.39 -3.44 L34.58 -4.03 L33.77 -3.44 L34.08 -2.49 L35.08 -2.49 L34.08 -2.49 L33.27 -3.08 L32.46 -2.49 L33.27 -3.08 L32.96 -4.03 L31.96 -4.03 L32.96 -4.03 L33.77 -3.44 L34.58 -4.03 L35.58 -4.03 L35.89 -4.98 L35.08 -5.57 L35.89 -4.98 L36.20 -4.03 L37.20 -4.03 L37.51 -4.98 L36.70 -5.57 L35.89 -4.98 L36.70 -5.57 L37.70 -5.57 L38.01 -6.52 L37.20 -7.11 L36.39 -6.52 L36.70 -5.57 L36.39 -6.52 L36.70 -7.47 L35.89 -8.06 L35.08 -7.47 L35.39 -6.52 L36.39 -6.52 L35.39 -6.52 L34.58 -7.11 L33.77 -6.52 L34.08 -5.57 L35.08 -5.57 L35.39 -6.52 L35.08 -5.57 L34.27 -4.98 L34.58 -4.03 L34.27 -4.98 L33.27 -4.98 L32.96 -4.03 L33.27 -4.98 L34.08 -5.57 L33.77 -6.52 L34.08 -7.47 L33.27 -8.06 L32.46 -7.47 L33.27 -8.06 L34.27 -8.06 L34.58 -9.01 L33.77 -9.60 L32.96 -9.01 L33.27 -8.06 L32.96 -9.01 L33.27 -9.96 L32.46 -10.55 L33.27 -9.96 L34.08 -10.55 L33.77 -11.50 L34.08 -10.55 L33.77 -9.60 L34.58 -9.01 L35.39 -9.60 L35.08 -10.55 L34.08 -10.55 L35.08 -10.55 L35.89 -9.96 L36.70 -10.55 L36.39 -11.50 L35.39 -11.50 L35.08 -10.55 L35.39 -11.50 L36.20 -12.09 L35.89 -13.04 L36.20 -12.09 L37.20 -12.09 L37.51 -13.04 L37.20 -12.09 L36.39 -11.50 L36.70 -10.55 L36.39 -9.60 L37.20 -9.01 L38.01 -9.60 L37.20 -9.01 L36.20 -9.01 L35.89 -8.06 L36.70 -7.47 L37.51 -8.06 L37.20 -9.01 L37.51 -8.06 L37.20 -7.11 L38.01 -6.52 L38.32 -5.57 L39.32 -5.57 L39.63 -6.52 L39.32 -5.57 L38.51 -4.98 L38.82 -4.03 L39.82 -4.03 L40.13 -4.98 L39.32 -5.57 L40.13 -4.98 L40.43 -4.03 L41.43 -4.03 L41.74 -4.98 L40.93 -5.57 L40.12 -4.98 L40.93 -5.57 L41.93 -5.57 L42.24 -6.52 L41.93 -5.57 L42.74 -4.98 L43.55 -5.57 L42.74 -4.98 L41.74 -4.98 L41.43 -4.03 L40.63 -3.44 L40.93 -2.49 L41.93 -2.49 L40.93 -2.49 L40.13 -3.08 L39.32 -2.49 L39.63 -1.54 L40.63 -1.54 L40.93 -2.49 L40.63 -1.54 L39.82 -0.95 L40.13 0.00 L41.13 0.00 L41.43 -0.95 L40.63 -1.54 L41.43 -0.95 L41.74 0.00 L42.74 0.00 L43.05 -0.95 L42.24 -1.54 L41.43 -0.95 L42.24 -1.54 L43.24 -1.54 L43.55 -2.49 L42.74 -3.08 L41.93 -2.49 L42.24 -1.54 L41.93 -2.49 L42.24 -3.44 L41.43 -4.03 L42.24 -3.44 L43.05 -4.03 L42.74 -4.98 L43.05 -4.03 L42.74 -3.08 L43.55 -2.49 L43.86 -1.54 L44.86 -1.54 L45.17 -2.49 L44.86 -1.54 L44.05 -0.95 L44.36 0.00 L45.36 0.00 L45.67 -0.95 L44.86 -1.54 L45.67 -0.95 L45.98 0.00 L46.98 0.00 L47.29 -0.95 L46.48 -1.54 L45.67 -0.95 L46.48 -1.54 L47.48 -1.54 L47.79 -2.49 L46.98 -3.08 L46.17 -2.49 L46.48 -1.54 L46.17 -2.49 L46.48 -3.44 L45.67 -4.03 L44.86 -3.44 L45.17 -2.49 L46.17 -2.49 L45.17 -2.49 L44.36 -3.08 L43.55 -2.49 L44.36 -3.08 L44.05 -4.03 L43.05 -4.03 L44.05 -4.03 L44.86 -3.44 L45.67 -4.03 L46.67 -4.03 L46.98 -4.98 L46.17 -5.57 L46.98 -4.98 L47.29 -4.03 L48.29 -4.03 L48.60 -4.98 L47.79 -5.57 L46.98 -4.98 L47.79 -5.57 L48.79 -5.57 L49.10 -6.52 L48.29 -7.11 L47.48 -6.52 L47.79 -5.57 L47.48 -6.52 L47.79 -7.47 L46.98 -8.06 L46.17 -7.47 L46.48 -6.52 L47.48 -6.52 L46.48 -6.52 L45.67 -7.11 L44.86 -6.52 L45.17 -5.57 L46.17 -5.57 L46.48 -6.52 L46.17 -5.57 L45.36 -4.98 L45.67 -4.03 L45.36 -4.98 L44.36 -4.98 L44.05 -4.03 L44.36 -4.98 L45.17 -5.57 L44.86 -6.52 L45.17 -7.47 L44.36 -8.06 L43.55 -7.47 L44.36 -8.06 L45.36 -8.06 L45.67 -9.01 L44.86 -9.60 L44.05 -9.01 L44.36 -8.06 L44.05 -9.01 L44.36 -9.96 L43.55 -10.55 L42.74 -9.96 L43.05 -9.01 L44.05 -9.01 L43.05 -9.01 L42.24 -9.60 L41.43 -9.01 L41.74 -8.06 L42.74 -8.06 L43.05 -9.01 L42.74 -8.06 L41.93 -7.47 L42.24 -6.52 L43.24 -6.52 L43.55 -7.47 L42.74 -8.06 L43.55 -7.47 L43.86 -6.52 L44.86 -6.52 L43.86 -6.52 L43.55 -5.57 L44.36 -4.98 L43.55 -5.57 L43.24 -6.52 L42.24 -6.52 L41.43 -7.11 L40.63 -6.52 L40.93 -5.57 L40.62 -6.52 L40.93 -7.47 L40.12 -8.06 L39.32 -7.47 L39.62 -6.52 L40.62 -6.52 L39.62 -6.52 L38.82 -7.11 L38.01 -6.52 L38.82 -7.11 L38.51 -8.06 L37.51 -8.06 L38.51 -8.06 L39.32 -7.47 L40.12 -8.06 L39.82 -9.01 L38.82 -9.01 L38.51 -8.06 L38.82 -9.01 L39.62 -9.60 L39.32 -10.55 L38.32 -10.55 L38.01 -9.60 L38.82 -9.01 L38.01 -9.60 L37.70 -10.55 L36.70 -10.55 L37.70 -10.55 L38.01 -11.50 L37.20 -12.09 L38.01 -11.50 L38.32 -10.55 L39.32 -10.55 L40.12 -9.96 L40.93 -10.55 L40.62 -11.50 L40.93 -10.55 L40.62 -9.60 L41.43 -9.01 L42.24 -9.60 L41.93 -10.55 L40.93 -10.55 L41.93 -10.55 L42.74 -9.96 L43.55 -10.55 L44.55 -10.55 L44.86 -11.50 L44.05 -12.09 L44.86 -11.50 L45.17 -10.55 L46.17 -10.55 L46.48 -11.50 L45.67 -12.09 L44.86 -11.50 L45.67 -12.09 L46.67 -12.09 L46.98 -13.04 L46.17 -13.62 L45.36 -13.04 L45.67 -12.09 L45.36 -13.04 L45.67 -13.99 L44.86 -14.58 L45.67 -13.99 L46.48 -14.58 L46.17 -15.53 L46.48 -14.58 L46.17 -13.62 L46.98 -13.04 L47.29 -12.09 L48.29 -12.09 L48.60 -13.04 L48.29 -12.09 L47.48 -11.50 L47.79 -10.55 L48.79 -10.55 L49.10 -11.50 L48.29 -12.09 L49.10 -11.50 L49.41 -10.55 L50.41 -10.55 L50.72 -11.50 L49.91 -12.09 L49.10 -11.50 L49.91 -12.09 L50.91 -12.09 L51.22 -13.04 L50.41 -13.63 L49.60 -13.04 L49.91 -12.09 L49.60 -13.04 L49.91 -13.99 L49.10 -14.58 L48.29 -13.99 L48.60 -13.04 L49.60 -13.04 L48.60 -13.04 L47.79 -13.62 L46.98 -13.04 L47.79 -13.62 L47.48 -14.58 L46.48 -14.58 L47.48 -14.58 L48.29 -13.99 L49.10 -14.58 L50.10 -14.58 L50.41 -15.53 L49.60 -16.11 L50.41 -15.53 L50.72 -14.58 L51.72 -14.58 L52.02 -15.53 L51.22 -16.11 L50.41 -15.53 L51.22 -16.12 L52.22 -16.12 L52.52 -17.07 L51.72 -17.65 L50.91 -17.07 L51.22 -16.12 L50.91 -17.07 L51.22 -18.02 L50.41 -18.61 L49.60 -18.02 L49.91 -17.07 L50.91 -17.07 L49.91 -17.07 L49.10 -17.65 L48.29 -17.07 L48.60 -16.12 L49.60 -16.12 L49.91 -17.07 L49.60 -16.12 L48.79 -15.53 L49.10 -14.58 L48.79 -15.53 L47.79 -15.53 L47.48 -14.58 L47.79 -15.53 L48.60 -16.12 L48.29 -17.07 L48.60 -18.02 L47.79 -18.60 L46.98 -18.02 L47.79 -18.61 L48.79 -18.61 L49.10 -19.56 L48.29 -20.14 L47.48 -19.56 L47.79 -18.61 L47.48 -19.56 L47.79 -20.51 L46.98 -21.10 L46.17 -20.51 L46.48 -19.56 L47.48 -19.56 L46.48 -19.56 L45.67 -20.14 L44.86 -19.56 L45.17 -18.60 L46.17 -18.60 L46.48 -19.56 L46.17 -18.60 L45.36 -18.02 L45.67 -17.07 L46.67 -17.07 L46.98 -18.02 L46.17 -18.60 L46.98 -18.02 L47.29 -17.07 L48.29 -17.07 L47.29 -17.07 L46.98 -16.11 L47.79 -15.53 L46.98 -16.11 L46.67 -17.07 L45.67 -17.07 L44.86 -17.65 L44.05 -17.07 L44.36 -16.11 L44.05 -17.07 L44.36 -18.02 L43.55 -18.60 L42.74 -18.02 L43.05 -17.07 L44.05 -17.07 L43.05 -17.07 L42.24 -17.65 L41.43 -17.07 L41.74 -16.11 L42.74 -16.11 L43.05 -17.07 L42.74 -16.11 L41.93 -15.53 L42.24 -14.58 L43.24 -14.58 L43.55 -15.53 L42.74 -16.11 L43.55 -15.53 L43.86 -14.58 L44.86 -14.58 L45.17 -15.53 L44.36 -16.11 L43.55 -15.53 L44.36 -16.11 L45.36 -16.11 L45.67 -17.07 L45.36 -16.11 L46.17 -15.53 L46.98 -16.11 L46.17 -15.53 L45.17 -15.53 L44.86 -14.58 L44.05 -13.99 L44.36 -13.04 L45.36 -13.04 L44.36 -13.04 L43.55 -13.63 L42.74 -13.04 L43.05 -12.09 L44.05 -12.09 L44.36 -13.04 L44.05 -12.09 L43.24 -11.50 L43.55 -10.55 L43.24 -11.50 L42.24 -11.50 L41.93 -10.55 L42.24 -11.50 L43.05 -12.09 L42.74 -13.04 L41.74 -13.04 L41.43 -12.09 L42.24 -11.50 L41.43 -12.09 L41.13 -13.04 L40.13 -13.04 L39.82 -12.09 L40.63 -11.50 L41.43 -12.09 L40.63 -11.50 L39.63 -11.50 L39.32 -10.55 L39.63 -11.50 L38.82 -12.09 L38.01 -11.50 L38.82 -12.09 L39.82 -12.09 L40.12 -13.04 L40.93 -13.62 L40.62 -14.58 L39.62 -14.58 L40.62 -14.58 L41.43 -13.99 L42.24 -14.58 L41.93 -15.53 L40.93 -15.53 L40.62 -14.58 L40.93 -15.53 L41.74 -16.11 L41.43 -17.07 L41.74 -18.02 L40.93 -18.60 L40.12 -18.02 L40.93 -18.60 L41.93 -18.60 L42.24 -19.56 L41.43 -20.14 L40.62 -19.56 L40.93 -18.60 L40.62 -19.56 L40.93 -20.51 L40.12 -21.09 L39.32 -20.51 L39.62 -19.56 L40.62 -19.56 L39.62 -19.56 L38.82 -20.14 L38.01 -19.56 L38.82 -20.14 L38.51 -21.09 L37.51 -21.09 L38.51 -21.09 L39.32 -20.51 L40.12 -21.09 L41.12 -21.09 L41.43 -22.05 L40.62 -22.63 L41.43 -22.05 L41.74 -21.09 L42.74 -21.09 L43.05 -22.05 L42.24 -22.63 L41.43 -22.05 L42.24 -22.63 L43.24 -22.63 L43.55 -23.58 L42.74 -24.17 L41.93 -23.58 L42.24 -22.63 L41.93 -23.58 L42.24 -24.54 L41.43 -25.12 L40.62 -24.54 L40.93 -23.58 L41.93 -23.58 L40.93 -23.58 L40.12 -24.17 L39.31 -23.58 L39.62 -22.63 L40.62 -22.63 L40.93 -23.58 L40.62 -22.63 L39.81 -22.05 L40.12 -21.09 L39.81 -22.05 L38.81 -22.05 L38.51 -21.09 L38.81 -22.05 L39.62 -22.63 L39.31 -23.58 L39.62 -24.54 L38.81 -25.12 L38.01 -24.54 L38.81 -25.12 L39.81 -25.12 L40.12 -26.07 L39.31 -26.66 L38.51 -26.07 L38.81 -25.12 L38.51 -26.07 L38.81 -27.03 L38.01 -27.61 L37.20 -27.02 L37.51 -26.07 L38.51 -26.07 L37.51 -26.07 L36.70 -26.66 L35.89 -26.07 L36.20 -25.12 L37.20 -25.12 L37.51 -26.07 L37.20 -25.12 L36.39 -24.53 L36.70 -23.58 L37.70 -23.58 L38.01 -24.53 L37.20 -25.12 L38.01 -24.53 L38.31 -23.58 L39.31 -23.58 L38.31 -23.58 L38.01 -22.63 L38.82 -22.05 L38.01 -22.63 L37.70 -23.58 L36.70 -23.58 L35.89 -24.17 L35.08 -23.58 L35.39 -22.63 L35.08 -23.58 L35.39 -24.53 L34.58 -25.12 L33.77 -24.53 L34.08 -23.58 L35.08 -23.58 L34.08 -23.58 L33.27 -24.17 L32.46 -23.58 L32.77 -22.63 L33.77 -22.63 L34.08 -23.58 L33.77 -22.63 L32.96 -22.04 L33.27 -21.09 L34.27 -21.09 L34.58 -22.04 L33.77 -22.63 L34.58 -22.04 L34.89 -21.09 L35.89 -21.09 L36.20 -22.04 L35.39 -22.63 L34.58 -22.04 L35.39 -22.63 L36.39 -22.63 L36.70 -23.58 L36.39 -22.63 L37.20 -22.04 L38.01 -22.63 L37.20 -22.04 L36.20 -22.04 L35.89 -21.09 L35.08 -20.51 L35.39 -19.55 L36.39 -19.55 L35.39 -19.55 L34.58 -20.14 L33.77 -19.55 L34.08 -18.60 L35.08 -18.60 L35.39 -19.55 L35.08 -18.60 L34.27 -18.02 L34.58 -17.06 L35.58 -17.06 L35.89 -18.02 L35.08 -18.60 L35.89 -18.02 L36.20 -17.06 L37.20 -17.06 L37.51 -18.02 L36.70 -18.60 L35.89 -18.02 L36.70 -18.60 L37.70 -18.60 L38.01 -19.56 L37.20 -20.14 L36.39 -19.56 L36.70 -18.60 L36.39 -19.56 L36.70 -20.51 L35.89 -21.09 L36.70 -20.51 L37.51 -21.09 L37.20 -22.05 L37.51 -21.09 L37.20 -20.14 L38.01 -19.56 L38.32 -18.60 L39.32 -18.60 L39.62 -19.56 L39.32 -18.60 L38.51 -18.02 L38.82 -17.07 L39.82 -17.07 L40.12 -18.02 L39.32 -18.60 L40.12 -18.02 L40.43 -17.07 L41.43 -17.07 L40.43 -17.07 L40.12 -16.11 L40.93 -15.53 L40.12 -16.11 L39.82 -17.07 L38.82 -17.07 L38.51 -16.11 L39.32 -15.53 L40.12 -16.11 L39.32 -15.53 L38.32 -15.53 L38.01 -14.58 L38.82 -13.99 L39.62 -14.58 L39.32 -15.53 L39.62 -14.58 L39.32 -13.62 L40.12 -13.04 L39.32 -13.62 L38.51 -13.04 L38.82 -12.09 L38.51 -13.04 L38.82 -13.99 L38.01 -14.58 L37.70 -15.53 L36.70 -15.53 L36.39 -14.58 L36.70 -15.53 L37.51 -16.11 L37.20 -17.06 L36.20 -17.06 L35.89 -16.11 L36.70 -15.53 L35.89 -16.11 L35.58 -17.06 L34.58 -17.06 L33.77 -17.65 L32.96 -17.06 L33.27 -16.11 L32.96 -17.06 L33.27 -18.02 L32.46 -18.60 L31.65 -18.02 L31.96 -17.06 L32.96 -17.06 L31.96 -17.06 L31.15 -17.65 L30.34 -17.06 L30.65 -16.11 L31.65 -16.11 L31.96 -17.07 L31.65 -16.11 L30.84 -15.53 L31.15 -14.58 L30.84 -15.53 L29.84 -15.53 L29.53 -14.57 L29.84 -15.53 L30.65 -16.11 L30.34 -17.06 L30.65 -18.02 L29.84 -18.60 L29.03 -18.02 L29.84 -18.60 L30.84 -18.60 L31.15 -19.55 L30.34 -20.14 L29.53 -19.55 L29.84 -18.60 L29.53 -19.55 L29.84 -20.51 L29.03 -21.09 L28.23 -20.51 L28.53 -19.55 L29.53 -19.55 L28.53 -19.55 L27.73 -20.14 L26.92 -19.55 L27.23 -18.60 L28.23 -18.60 L28.53 -19.55 L28.23 -18.60 L27.42 -18.02 L27.73 -17.06 L28.73 -17.06 L29.03 -18.02 L28.23 -18.60 L29.03 -18.02 L29.34 -17.06 L30.34 -17.06 L29.34 -17.06 L29.03 -16.11 L29.84 -15.53 L29.03 -16.11 L28.73 -17.06 L27.73 -17.06 L26.92 -17.65 L26.11 -17.06 L26.42 -16.11 L26.11 -17.06 L26.42 -18.01 L25.61 -18.60 L24.80 -18.01 L25.11 -17.06 L26.11 -17.06 L25.11 -17.06 L24.30 -17.65 L23.49 -17.06 L24.30 -17.65 L23.99 -18.60 L22.99 -18.60 L23.99 -18.60 L24.80 -18.02 L25.61 -18.60 L25.30 -19.55 L24.30 -19.55 L23.99 -18.60 L24.30 -19.55 L25.11 -20.14 L24.80 -21.09 L23.80 -21.09 L23.49 -20.14 L24.30 -19.55 L23.49 -20.14 L23.18 -21.09 L22.18 -21.09 L23.18 -21.09 L23.49 -22.04 L22.68 -22.63 L23.49 -22.04 L23.80 -21.09 L24.80 -21.09 L25.61 -20.50 L26.42 -21.09 L26.11 -22.04 L26.42 -21.09 L26.11 -20.14 L26.92 -19.55 L27.73 -20.14 L27.42 -21.09 L26.42 -21.09 L27.42 -21.09 L28.23 -20.51 L29.03 -21.09 L28.73 -22.04 L27.73 -22.04 L27.42 -21.09 L27.73 -22.04 L28.53 -22.63 L28.23 -23.58 L27.23 -23.58 L26.92 -22.63 L27.73 -22.04 L26.92 -22.63 L26.61 -23.58 L25.61 -23.58 L25.30 -22.63 L26.11 -22.04 L26.92 -22.63 L26.11 -22.04 L25.11 -22.04 L24.80 -21.09 L25.11 -22.04 L24.30 -22.63 L23.49 -22.04 L24.30 -22.63 L25.30 -22.63 L25.61 -23.58 L26.42 -24.17 L26.11 -25.12 L25.11 -25.12 L26.11 -25.12 L26.92 -24.53 L27.73 -25.12 L27.42 -26.07 L26.42 -26.07 L26.11 -25.12 L26.42 -26.07 L27.22 -26.66 L26.92 -27.61 L25.92 -27.61 L25.61 -26.66 L26.42 -26.07 L25.61 -26.66 L25.30 -27.61 L24.30 -27.61 L23.99 -26.66 L24.80 -26.07 L25.61 -26.66 L24.80 -26.07 L23.80 -26.07 L23.49 -25.12 L24.30 -24.53 L25.11 -25.12 L24.80 -26.07 L25.11 -25.12 L24.80 -24.17 L25.61 -23.58 L24.80 -24.17 L23.99 -23.58 L24.30 -22.63 L23.99 -23.58 L24.30 -24.53 L23.49 -25.12 L23.18 -26.07 L22.18 -26.07 L21.87 -25.12 L22.18 -26.07 L22.99 -26.66 L22.68 -27.61 L21.68 -27.61 L21.37 -26.66 L22.18 -26.07 L21.37 -26.66 L21.06 -27.61 L20.06 -27.61 L21.06 -27.61 L21.37 -28.56 L20.56 -29.15 L21.37 -28.56 L21.68 -27.61 L22.68 -27.61 L22.99 -28.56 L22.18 -29.15 L21.37 -28.56 L22.18 -29.15 L23.18 -29.15 L23.49 -30.10 L22.68 -30.69 L21.87 -30.10 L22.18 -29.15 L21.87 -30.10 L22.18 -31.05 L21.37 -31.64 L22.18 -31.05 L22.99 -31.64 L22.68 -32.59 L22.99 -31.64 L22.68 -30.69 L23.49 -30.10 L23.80 -29.15 L24.80 -29.15 L25.11 -30.10 L24.80 -29.15 L23.99 -28.56 L24.30 -27.61 L25.30 -27.61 L25.61 -28.56 L24.80 -29.15 L25.61 -28.56 L25.91 -27.61 L26.91 -27.61 L27.72 -27.02 L28.53 -27.61 L28.22 -28.56 L28.53 -27.61 L28.22 -26.66 L29.03 -26.07 L29.84 -26.66 L29.53 -27.61 L28.53 -27.61 L29.53 -27.61 L30.34 -27.02 L31.15 -27.61 L30.84 -28.56 L29.84 -28.56 L29.53 -27.61 L29.84 -28.56 L30.65 -29.15 L30.34 -30.10 L30.65 -29.15 L31.65 -29.15 L31.96 -30.10 L31.65 -29.15 L30.84 -28.56 L31.15 -27.61 L30.84 -26.66 L31.65 -26.07 L32.46 -26.66 L31.65 -26.07 L30.65 -26.07 L30.34 -25.12 L31.15 -24.53 L31.96 -25.12 L31.65 -26.07 L31.96 -25.12 L31.65 -24.17 L32.46 -23.58 L33.27 -24.17 L32.96 -25.12 L31.96 -25.12 L32.96 -25.12 L33.77 -24.53 L34.58 -25.12 L34.27 -26.07 L33.27 -26.07 L32.96 -25.12 L33.27 -26.07 L34.08 -26.66 L33.77 -27.61 L32.77 -27.61 L32.46 -26.66 L33.27 -26.07 L32.46 -26.66 L32.15 -27.61 L31.15 -27.61 L32.15 -27.61 L32.46 -28.56 L31.65 -29.15 L32.46 -28.56 L32.77 -27.61 L33.77 -27.61 L34.58 -27.02 L35.39 -27.61 L35.08 -28.56 L35.39 -27.61 L35.08 -26.66 L35.89 -26.07 L36.70 -26.66 L36.39 -27.61 L35.39 -27.61 L36.39 -27.61 L37.20 -27.03 L38.01 -27.61 L39.01 -27.61 L39.31 -28.56 L38.51 -29.15 L39.31 -28.56 L39.62 -27.61 L40.62 -27.61 L40.93 -28.56 L40.12 -29.15 L39.31 -28.56 L40.12 -29.15 L41.12 -29.15 L41.43 -30.10 L40.62 -30.69 L39.81 -30.10 L40.12 -29.15 L39.81 -30.10 L40.12 -31.05 L39.31 -31.64 L40.12 -31.05 L40.93 -31.64 L40.62 -32.59 L40.93 -31.64 L40.62 -30.69 L41.43 -30.10 L41.74 -29.15 L42.74 -29.15 L43.05 -30.10 L42.74 -29.15 L41.93 -28.56 L42.24 -27.61 L43.24 -27.61 L43.55 -28.56 L42.74 -29.15 L43.55 -28.57 L43.86 -27.61 L44.86 -27.61 L45.17 -28.57 L44.36 -29.15 L43.55 -28.56 L44.36 -29.15 L45.36 -29.15 L45.67 -30.10 L44.86 -30.69 L44.05 -30.10 L44.36 -29.15 L44.05 -30.10 L44.36 -31.05 L43.55 -31.64 L42.74 -31.05 L43.05 -30.10 L44.05 -30.10 L43.05 -30.10 L42.24 -30.69 L41.43 -30.10 L42.24 -30.69 L41.93 -31.64 L40.93 -31.64 L41.93 -31.64 L42.74 -31.05 L43.55 -31.64 L44.55 -31.64 L44.86 -32.59 L44.05 -33.18 L44.86 -32.59 L45.17 -31.64 L46.17 -31.64 L46.48 -32.59 L45.67 -33.18 L44.86 -32.59 L45.67 -33.18 L46.67 -33.18 L46.98 -34.13 L46.17 -34.72 L45.36 -34.13 L45.67 -33.18 L45.36 -34.13 L45.67 -35.08 L44.86 -35.67 L44.05 -35.08 L44.36 -34.13 L45.36 -34.13 L44.36 -34.13 L43.55 -34.72 L42.74 -34.13 L43.05 -33.18 L44.05 -33.18 L44.36 -34.13 L44.05 -33.18 L43.24 -32.59 L43.55 -31.64 L43.24 -32.59 L42.24 -32.59 L41.93 -31.64 L42.24 -32.59 L43.05 -33.18 L42.74 -34.13 L43.05 -35.08 L42.24 -35.67 L41.43 -35.08 L42.24 -35.67 L43.24 -35.67 L43.55 -36.62 L42.74 -37.21 L41.93 -36.62 L42.24 -35.67 L41.93 -36.62 L42.24 -37.57 L41.43 -38.16 L42.24 -37.57 L43.05 -38.16 L42.74 -39.11 L43.05 -38.16 L42.74 -37.21 L43.55 -36.62 L44.36 -37.21 L44.05 -38.16 L43.05 -38.16 L44.05 -38.16 L44.86 -37.57 L45.67 -38.16 L45.36 -39.11 L44.36 -39.11 L44.05 -38.16 L44.36 -39.11 L45.17 -39.70 L44.86 -40.65 L45.17 -39.70 L46.17 -39.70 L46.48 -40.65 L46.17 -39.70 L45.36 -39.11 L45.67 -38.16 L45.36 -37.21 L46.17 -36.62 L46.98 -37.21 L46.17 -36.62 L45.17 -36.62 L44.86 -35.67 L45.67 -35.08 L46.48 -35.67 L46.17 -36.62 L46.48 -35.67 L46.17 -34.72 L46.98 -34.13 L47.29 -33.18 L48.29 -33.18 L48.59 -34.13 L48.29 -33.18 L47.48 -32.59 L47.79 -31.64 L48.79 -31.64 L49.09 -32.59 L48.29 -33.18 L49.09 -32.59 L49.40 -31.64 L50.40 -31.64 L50.71 -32.59 L49.90 -33.18 L49.09 -32.59 L49.90 -33.18 L50.90 -33.18 L51.21 -34.13 L50.90 -33.18 L51.71 -32.59 L52.52 -33.18 L51.71 -32.59 L50.71 -32.59 L50.40 -31.64 L49.59 -31.05 L49.90 -30.10 L50.90 -30.10 L49.90 -30.10 L49.09 -30.69 L48.29 -30.10 L48.59 -29.15 L49.59 -29.15 L49.90 -30.10 L49.59 -29.15 L48.79 -28.56 L49.09 -27.61 L50.09 -27.61 L50.40 -28.57 L49.59 -29.15 L50.40 -28.57 L50.71 -27.61 L51.71 -27.61 L52.02 -28.57 L51.21 -29.15 L50.40 -28.57 L51.21 -29.15 L52.21 -29.15 L52.52 -30.10 L51.71 -30.69 L50.90 -30.10 L51.21 -29.15 L50.90 -30.10 L51.21 -31.06 L50.40 -31.64 L51.21 -31.06 L52.02 -31.64 L51.71 -32.59 L52.02 -31.64 L51.71 -30.69 L52.52 -30.10 L52.83 -29.15 L53.83 -29.15 L54.14 -30.10 L53.83 -29.15 L53.02 -28.57 L53.33 -27.61 L54.33 -27.61 L54.64 -28.57 L53.83 -29.15 L54.64 -28.57 L54.95 -27.61 L55.95 -27.61 L56.26 -28.57 L55.45 -29.15 L54.64 -28.57 L55.45 -29.15 L56.45 -29.15 L56.76 -30.10 L55.95 -30.69 L55.14 -30.10 L55.45 -29.15 L55.14 -30.10 L55.45 -31.06 L54.64 -31.64 L53.83 -31.06 L54.14 -30.10 L55.14 -30.10 L54.14 -30.10 L53.33 -30.69 L52.52 -30.10 L53.33 -30.69 L53.02 -31.64 L52.02 -31.64 L53.02 -31.64 L53.83 -31.06 L54.64 -31.64 L55.64 -31.64 L55.95 -32.59 L55.14 -33.18 L55.95 -32.59 L56.26 -31.64 L57.26 -31.64 L57.56 -32.59 L56.76 -33.18 L55.95 -32.59 L56.76 -33.18 L57.76 -33.18 L58.06 -34.13 L57.26 -34.72 L56.45 -34.13 L56.76 -33.18 L56.45 -34.13 L56.76 -35.08 L55.95 -35.67 L55.14 -35.08 L55.45 -34.13 L56.45 -34.13 L55.45 -34.13 L54.64 -34.72 L53.83 -34.13 L54.14 -33.18 L55.14 -33.18 L55.45 -34.13 L55.14 -33.18 L54.33 -32.59 L54.64 -31.64 L54.33 -32.59 L53.33 -32.59 L53.02 -31.64 L53.33 -32.59 L54.14 -33.18 L53.83 -34.13 L54.14 -35.08 L53.33 -35.67 L52.52 -35.08 L53.33 -35.67 L54.33 -35.67 L54.64 -36.62 L53.83 -37.21 L53.02 -36.62 L53.33 -35.67 L53.02 -36.62 L53.33 -37.57 L52.52 -38.16 L51.71 -37.57 L52.02 -36.62 L53.02 -36.62 L52.02 -36.62 L51.21 -37.21 L50.40 -36.62 L50.71 -35.67 L51.71 -35.67 L52.02 -36.62 L51.71 -35.67 L50.90 -35.08 L51.21 -34.13 L52.21 -34.13 L52.52 -35.08 L51.71 -35.67 L52.52 -35.08 L52.83 -34.13 L53.83 -34.13 L52.83 -34.13 L52.52 -33.18 L53.33 -32.59 L52.52 -33.18 L52.21 -34.13 L51.21 -34.13 L50.40 -34.72 L49.59 -34.13 L49.90 -33.18 L49.59 -34.13 L49.90 -35.08 L49.09 -35.67 L48.28 -35.08 L48.59 -34.13 L49.59 -34.13 L48.59 -34.13 L47.78 -34.72 L46.97 -34.13 L47.78 -34.72 L47.47 -35.67 L46.47 -35.67 L47.47 -35.67 L48.28 -35.08 L49.09 -35.67 L48.78 -36.62 L47.78 -36.62 L47.47 -35.67 L47.78 -36.62 L48.59 -37.21 L48.28 -38.16 L47.28 -38.16 L46.97 -37.21 L47.78 -36.62 L46.97 -37.21 L46.66 -38.16 L45.66 -38.16 L46.66 -38.16 L46.97 -39.11 L46.16 -39.70 L46.97 -39.11 L47.28 -38.16 L48.28 -38.16 L49.09 -37.57 L49.90 -38.16 L49.59 -39.11 L49.90 -38.16 L49.59 -37.21 L50.40 -36.62 L51.21 -37.21 L50.90 -38.16 L49.90 -38.16 L50.90 -38.16 L51.71 -37.57 L52.52 -38.16 L53.52 -38.16 L53.83 -39.11 L53.02 -39.70 L53.83 -39.11 L54.14 -38.16 L55.14 -38.16 L55.45 -39.11 L54.64 -39.70 L53.83 -39.11 L54.64 -39.70 L55.64 -39.70 L55.95 -40.65 L55.14 -41.24 L54.33 -40.65 L54.64 -39.70 L54.33 -40.65 L54.64 -41.60 L53.83 -42.19 L54.64 -41.60 L55.45 -42.19 L55.14 -43.14 L55.45 -42.19 L55.14 -41.24 L55.95 -40.65 L56.26 -39.70 L57.26 -39.70 L57.56 -40.65 L57.26 -39.70 L56.45 -39.11 L56.76 -38.16 L57.76 -38.16 L58.06 -39.11 L57.26 -39.70 L58.06 -39.11 L58.37 -38.16 L59.37 -38.16 L59.68 -39.11 L58.87 -39.70 L58.06 -39.11 L58.87 -39.70 L59.87 -39.70 L60.18 -40.65 L59.37 -41.24 L58.56 -40.65 L58.87 -39.70 L58.56 -40.65 L58.87 -41.60 L58.06 -42.19 L57.25 -41.60 L57.56 -40.65 L58.56 -40.65 L57.56 -40.65 L56.75 -41.24 L55.95 -40.65 L56.75 -41.24 L56.45 -42.19 L55.45 -42.19 L56.45 -42.19 L57.26 -41.60 L58.06 -42.19 L59.06 -42.19 L59.37 -43.14 L58.56 -43.73 L59.37 -43.14 L59.68 -42.19 L60.68 -42.19 L60.99 -43.14 L60.18 -43.73 L59.37 -43.14 L60.18 -43.73 L61.18 -43.73 L61.49 -44.68 L60.68 -45.27 L59.87 -44.68 L60.18 -43.73 L59.87 -44.68 L60.18 -45.63 L59.37 -46.22 L58.56 -45.63 L58.87 -44.68 L59.87 -44.68 L58.87 -44.68 L58.06 -45.27 L57.25 -44.68 L57.56 -43.73 L58.56 -43.73 L58.87 -44.68 L58.56 -43.73 L57.75 -43.14 L58.06 -42.19 L57.75 -43.14 L56.75 -43.14 L56.45 -42.19 L56.76 -43.14 L57.56 -43.73 L57.25 -44.68 L57.56 -45.63 L56.75 -46.22 L55.95 -45.63 L56.75 -46.22 L57.75 -46.22 L58.06 -47.17 L57.25 -47.76 L56.45 -47.17 L56.75 -46.22 L56.45 -47.17 L56.75 -48.12 L55.95 -48.71 L55.14 -48.12 L55.45 -47.17 L56.45 -47.17 L55.45 -47.17 L54.64 -47.76 L53.83 -47.17 L54.14 -46.22 L55.14 -46.22 L55.45 -47.17 L55.14 -46.22 L54.33 -45.63 L54.64 -44.68 L55.64 -44.68 L55.95 -45.63 L55.14 -46.22 L55.95 -45.63 L56.25 -44.68 L57.25 -44.68 L56.25 -44.68 L55.95 -43.73 L56.75 -43.14 L55.95 -43.73 L55.64 -44.68 L54.64 -44.68 L53.83 -45.27 L53.02 -44.68 L53.33 -43.73 L53.02 -44.68 L53.33 -45.63 L52.52 -46.22 L51.71 -45.63 L52.02 -44.68 L53.02 -44.68 L52.02 -44.68 L51.21 -45.27 L50.40 -44.68 L50.71 -43.73 L51.71 -43.73 L52.02 -44.68 L51.71 -43.73 L50.90 -43.14 L51.21 -42.19 L52.21 -42.19 L52.52 -43.14 L51.71 -43.73 L52.52 -43.14 L52.83 -42.19 L53.83 -42.19 L54.14 -43.14 L53.33 -43.73 L52.52 -43.14 L53.33 -43.73 L54.33 -43.73 L54.64 -44.68 L54.33 -43.73 L55.14 -43.14 L55.95 -43.73 L55.14 -43.14 L54.14 -43.14 L53.83 -42.19 L53.02 -41.60 L53.33 -40.65 L54.33 -40.65 L53.33 -40.65 L52.52 -41.24 L51.71 -40.65 L52.02 -39.70 L53.02 -39.70 L53.33 -40.65 L53.02 -39.70 L52.21 -39.11 L52.52 -38.16 L52.21 -39.11 L51.21 -39.11 L50.90 -38.16 L51.21 -39.11 L52.02 -39.70 L51.71 -40.65 L50.71 -40.65 L50.40 -39.70 L51.21 -39.11 L50.40 -39.70 L50.09 -40.65 L49.09 -40.65 L48.78 -39.70 L49.59 -39.11 L50.40 -39.70 L49.59 -39.11 L48.59 -39.11 L48.28 -38.16 L48.59 -39.11 L47.78 -39.70 L46.97 -39.11 L47.78 -39.70 L48.78 -39.70 L49.09 -40.65 L49.90 -41.24 L49.59 -42.19 L48.59 -42.19 L49.59 -42.19 L50.40 -41.60 L51.21 -42.19 L50.90 -43.14 L49.90 -43.14 L49.59 -42.19 L49.90 -43.14 L50.71 -43.73 L50.40 -44.68 L50.71 -45.63 L49.90 -46.22 L49.09 -45.63 L49.90 -46.22 L50.90 -46.22 L51.21 -47.17 L50.40 -47.76 L49.59 -47.17 L49.90 -46.22 L49.59 -47.17 L49.90 -48.12 L49.09 -48.71 L48.28 -48.12 L48.59 -47.17 L49.59 -47.17 L48.59 -47.17 L47.78 -47.76 L46.97 -47.17 L47.78 -47.76 L47.47 -48.71 L46.47 -48.71 L47.47 -48.71 L48.28 -48.12 L49.09 -48.71 L50.09 -48.71 L50.40 -49.66 L49.59 -50.25 L50.40 -49.66 L50.71 -48.71 L51.71 -48.71 L52.02 -49.66 L51.21 -50.25 L50.40 -49.66 L51.21 -50.25 L52.21 -50.25 L52.52 -51.20 L51.71 -51.79 L50.90 -51.20 L51.21 -50.25 L50.90 -51.20 L51.21 -52.15 L50.40 -52.74 L49.59 -52.15 L49.90 -51.20 L50.90 -51.20 L49.90 -51.20 L49.09 -51.79 L48.28 -51.20 L48.59 -50.25 L49.59 -50.25 L49.90 -51.20 L49.59 -50.25 L48.78 -49.66 L49.09 -48.71 L48.78 -49.66 L47.78 -49.66 L47.47 -48.71 L47.78 -49.66 L48.59 -50.25 L48.28 -51.20 L48.59 -52.15 L47.78 -52.74 L46.97 -52.15 L47.78 -52.74 L48.78 -52.74 L49.09 -53.69 L48.28 -54.28 L47.47 -53.69 L47.78 -52.74 L47.47 -53.69 L47.78 -54.64 L46.97 -55.23 L46.16 -54.64 L46.47 -53.69 L47.47 -53.69 L46.47 -53.69 L45.66 -54.28 L44.85 -53.69 L45.16 -52.74 L46.16 -52.74 L46.47 -53.69 L46.16 -52.74 L45.35 -52.15 L45.66 -51.20 L46.66 -51.20 L46.97 -52.15 L46.16 -52.74 L46.97 -52.15 L47.28 -51.20 L48.28 -51.20 L47.28 -51.20 L46.97 -50.25 L47.78 -49.66 L46.97 -50.25 L46.66 -51.20 L45.66 -51.20 L44.85 -51.79 L44.05 -51.20 L44.35 -50.25 L44.05 -51.20 L44.35 -52.15 L43.54 -52.74 L42.74 -52.15 L43.05 -51.20 L44.05 -51.20 L43.05 -51.20 L42.24 -51.79 L41.43 -51.20 L41.74 -50.25 L42.74 -50.25 L43.05 -51.20 L42.74 -50.25 L41.93 -49.66 L42.24 -48.71 L43.24 -48.71 L43.55 -49.66 L42.74 -50.25 L43.55 -49.66 L43.85 -48.71 L44.85 -48.71 L45.16 -49.66 L44.35 -50.25 L43.55 -49.66 L44.35 -50.25 L45.35 -50.25 L45.66 -51.20 L45.35 -50.25 L46.16 -49.66 L46.97 -50.25 L46.16 -49.66 L45.16 -49.66 L44.85 -48.71 L44.05 -48.12 L44.35 -47.17 L45.35 -47.17 L44.35 -47.17 L43.55 -47.76 L42.74 -47.17 L43.05 -46.22 L44.05 -46.22 L44.35 -47.17 L44.05 -46.22 L43.24 -45.63 L43.55 -44.68 L44.55 -44.68 L44.85 -45.63 L44.05 -46.22 L44.85 -45.63 L45.16 -44.68 L46.16 -44.68 L46.47 -45.63 L45.66 -46.22 L44.85 -45.63 L45.66 -46.22 L46.66 -46.22 L46.97 -47.17 L46.16 -47.76 L45.35 -47.17 L45.66 -46.22 L45.35 -47.17 L45.66 -48.12 L44.85 -48.71 L45.66 -48.12 L46.47 -48.71 L46.16 -49.66 L46.47 -48.71 L46.16 -47.76 L46.97 -47.17 L47.28 -46.22 L48.28 -46.22 L48.59 -47.17 L48.28 -46.22 L47.47 -45.63 L47.78 -44.68 L48.78 -44.68 L49.09 -45.63 L48.28 -46.22 L49.09 -45.63 L49.40 -44.68 L50.40 -44.68 L49.40 -44.68 L49.09 -43.73 L49.90 -43.14 L49.09 -43.73 L48.78 -44.68 L47.78 -44.68 L47.47 -43.73 L48.28 -43.14 L49.09 -43.73 L48.28 -43.14 L47.28 -43.14 L46.97 -42.19 L47.78 -41.60 L48.59 -42.19 L48.28 -43.14 L48.59 -42.19 L48.28 -41.24 L49.09 -40.65 L48.28 -41.24 L47.47 -40.65 L47.78 -39.70 L47.47 -40.65 L47.78 -41.60 L46.97 -42.19 L46.66 -43.14 L45.66 -43.14 L45.35 -42.19 L45.66 -43.14 L46.47 -43.73 L46.16 -44.68 L45.16 -44.68 L44.85 -43.73 L45.66 -43.14 L44.85 -43.73 L44.55 -44.68 L43.55 -44.68 L42.74 -45.27 L41.93 -44.68 L42.24 -43.73 L41.93 -44.68 L42.24 -45.63 L41.43 -46.22 L40.62 -45.63 L40.93 -44.68 L41.93 -44.68 L40.93 -44.68 L40.12 -45.27 L39.31 -44.68 L39.62 -43.73 L40.62 -43.73 L40.93 -44.68 L40.62 -43.73 L39.81 -43.14 L40.12 -42.19 L39.81 -43.14 L38.81 -43.14 L38.50 -42.19 L38.81 -43.14 L39.62 -43.73 L39.31 -44.68 L39.62 -45.63 L38.81 -46.22 L38.00 -45.63 L38.81 -46.22 L39.81 -46.22 L40.12 -47.17 L39.31 -47.76 L38.50 -47.17 L38.81 -46.22 L38.50 -47.17 L38.81 -48.12 L38.00 -48.71 L37.19 -48.12 L37.50 -47.17 L38.50 -47.17 L37.50 -47.17 L36.69 -47.75 L35.88 -47.17 L36.19 -46.22 L37.19 -46.22 L37.50 -47.17 L37.19 -46.22 L36.38 -45.63 L36.69 -44.68 L37.69 -44.68 L38.00 -45.63 L37.19 -46.22 L38.00 -45.63 L38.31 -44.68 L39.31 -44.68 L38.31 -44.68 L38.00 -43.73 L38.81 -43.14 L38.00 -43.73 L37.69 -44.68 L36.69 -44.68 L35.88 -45.26 L35.07 -44.68 L35.38 -43.73 L35.07 -44.68 L35.38 -45.63 L34.57 -46.22 L33.76 -45.63 L34.07 -44.68 L35.07 -44.68 L34.07 -44.68 L33.26 -45.26 L32.46 -44.68 L32.76 -43.73 L33.76 -43.73 L34.07 -44.68 L33.76 -43.73 L32.96 -43.14 L33.26 -42.19 L34.26 -42.19 L34.57 -43.14 L33.76 -43.73 L34.57 -43.14 L34.88 -42.19 L35.88 -42.19 L36.19 -43.14 L35.38 -43.73 L34.57 -43.14 L35.38 -43.73 L36.38 -43.73 L36.69 -44.68 L36.38 -43.73 L37.19 -43.14 L38.00 -43.73 L37.19 -43.14 L36.19 -43.14 L35.88 -42.19 L35.07 -41.60 L35.38 -40.65 L36.38 -40.65 L35.38 -40.65 L34.57 -41.24 L33.77 -40.65 L34.07 -39.70 L35.07 -39.70 L35.38 -40.65 L35.07 -39.70 L34.27 -39.11 L34.57 -38.16 L35.57 -38.16 L35.88 -39.11 L35.07 -39.70 L35.88 -39.11 L36.19 -38.16 L37.19 -38.16 L37.50 -39.11 L36.69 -39.70 L35.88 -39.11 L36.69 -39.70 L37.69 -39.70 L38.00 -40.65 L37.19 -41.24 L36.38 -40.65 L36.69 -39.70 L36.38 -40.65 L36.69 -41.60 L35.88 -42.19 L36.69 -41.60 L37.50 -42.19 L37.19 -43.14 L37.50 -42.19 L37.19 -41.24 L38.00 -40.65 L38.31 -39.70 L39.31 -39.70 L39.62 -40.65 L39.31 -39.70 L38.50 -39.11 L38.81 -38.16 L39.81 -38.16 L40.12 -39.11 L39.31 -39.70 L40.12 -39.11 L40.43 -38.16 L41.43 -38.16 L41.74 -39.11 L40.93 -39.70 L40.12 -39.11 L40.93 -39.70 L41.93 -39.70 L42.24 -40.65 L41.43 -41.24 L40.62 -40.65 L40.93 -39.70 L40.62 -40.65 L40.93 -41.60 L40.12 -42.19 L39.31 -41.60 L39.62 -40.65 L40.62 -40.65 L39.62 -40.65 L38.81 -41.24 L38.00 -40.65 L38.81 -41.24 L38.50 -42.19 L37.50 -42.19 L38.50 -42.19 L39.31 -41.60 L40.12 -42.19 L41.12 -42.19 L41.43 -43.14 L40.62 -43.73 L41.43 -43.14 L41.74 -42.19 L42.74 -42.19 L43.05 -43.14 L42.24 -43.73 L41.43 -43.14 L42.24 -43.73 L43.24 -43.73 L43.55 -44.68 L43.24 -43.73 L44.05 -43.14 L44.85 -43.73 L44.04 -43.14 L43.04 -43.14 L42.74 -42.19 L43.55 -41.60 L44.35 -42.19 L44.05 -43.14 L44.35 -42.19 L44.05 -41.24 L44.85 -40.65 L45.66 -41.24 L45.35 -42.19 L44.35 -42.19 L45.35 -42.19 L46.16 -41.60 L46.97 -42.19 L46.16 -41.60 L46.47 -40.65 L47.47 -40.65 L46.47 -40.65 L45.66 -41.24 L44.85 -40.65 L43.85 -40.65 L43.54 -39.70 L44.35 -39.11 L43.54 -39.70 L43.24 -40.65 L42.24 -40.65 L41.93 -39.70 L42.74 -39.11 L43.54 -39.70 L42.74 -39.11 L41.74 -39.11 L41.43 -38.16 L40.62 -37.57 L40.93 -36.62 L41.93 -36.62 L40.93 -36.62 L40.12 -37.21 L39.31 -36.62 L39.62 -35.67 L40.62 -35.67 L40.93 -36.62 L40.62 -35.67 L39.81 -35.08 L40.12 -34.13 L41.12 -34.13 L41.43 -35.08 L40.62 -35.67 L41.43 -35.08 L41.74 -34.13 L42.74 -34.13 L41.74 -34.13 L41.43 -33.18 L42.24 -32.59 L41.43 -33.18 L41.12 -34.13 L40.12 -34.13 L39.31 -34.72 L38.50 -34.13 L38.81 -33.18 L38.50 -34.13 L38.81 -35.08 L38.00 -35.67 L37.19 -35.08 L37.50 -34.13 L38.50 -34.13 L37.50 -34.13 L36.69 -34.72 L35.88 -34.13 L36.19 -33.18 L37.19 -33.18 L37.50 -34.13 L37.19 -33.18 L36.38 -32.59 L36.69 -31.64 L37.69 -31.64 L38.00 -32.59 L37.19 -33.18 L38.00 -32.59 L38.31 -31.64 L39.31 -31.64 L39.62 -32.59 L38.81 -33.18 L38.00 -32.59 L38.81 -33.18 L39.81 -33.18 L40.12 -34.13 L39.81 -33.18 L40.62 -32.59 L41.43 -33.18 L40.62 -32.59 L39.62 -32.59 L39.31 -31.64 L38.50 -31.05 L38.81 -30.10 L39.81 -30.10 L38.81 -30.10 L38.00 -30.69 L37.19 -30.10 L37.50 -29.15 L38.50 -29.15 L38.81 -30.10 L38.50 -29.15 L37.69 -28.56 L38.00 -27.61 L37.69 -28.56 L36.69 -28.56 L36.38 -27.61 L36.69 -28.56 L37.50 -29.15 L37.19 -30.10 L36.19 -30.10 L35.88 -29.15 L36.69 -28.56 L35.88 -29.15 L35.57 -30.10 L34.57 -30.10 L34.27 -29.15 L35.07 -28.56 L35.88 -29.15 L35.07 -28.56 L34.07 -28.56 L33.77 -27.61 L34.07 -28.56 L33.27 -29.15 L32.46 -28.56 L33.26 -29.15 L34.26 -29.15 L34.57 -30.10 L35.38 -30.69 L35.07 -31.64 L34.07 -31.64 L35.07 -31.64 L35.88 -31.05 L36.69 -31.64 L36.38 -32.59 L35.38 -32.59 L35.07 -31.64 L35.38 -32.59 L36.19 -33.18 L35.88 -34.13 L34.88 -34.13 L34.57 -33.18 L35.38 -32.59 L34.57 -33.18 L34.26 -34.13 L33.26 -34.13 L32.96 -33.18 L33.76 -32.59 L34.57 -33.18 L33.76 -32.59 L32.76 -32.59 L32.46 -31.64 L33.26 -31.05 L34.07 -31.64 L33.76 -32.59 L34.07 -31.64 L33.76 -30.69 L34.57 -30.10 L33.76 -30.69 L32.96 -30.10 L33.26 -29.15 L32.96 -30.10 L33.26 -31.05 L32.46 -31.64 L32.15 -32.59 L31.15 -32.59 L30.84 -31.64 L31.15 -32.59 L31.96 -33.18 L31.65 -34.13 L30.65 -34.13 L30.34 -33.18 L31.15 -32.59 L30.34 -33.18 L30.03 -34.13 L29.03 -34.13 L28.72 -33.18 L29.53 -32.59 L30.34 -33.18 L29.53 -32.59 L28.53 -32.59 L28.22 -31.64 L29.03 -31.05 L29.84 -31.64 L29.53 -32.59 L29.84 -31.64 L29.53 -30.69 L30.34 -30.10 L31.15 -30.69 L30.84 -31.64 L29.84 -31.64 L30.84 -31.64 L31.65 -31.05 L32.46 -31.64 L31.65 -31.05 L31.96 -30.10 L32.96 -30.10 L31.96 -30.10 L31.15 -30.69 L30.34 -30.10 L29.34 -30.10 L29.03 -29.15 L29.84 -28.56 L29.03 -29.15 L28.72 -30.10 L27.72 -30.10 L27.41 -29.15 L28.22 -28.56 L29.03 -29.15 L28.22 -28.56 L27.22 -28.56 L26.91 -27.61 L27.22 -28.56 L26.41 -29.15 L25.60 -28.56 L26.41 -29.15 L27.41 -29.15 L27.72 -30.10 L26.91 -30.69 L26.10 -30.10 L26.41 -29.15 L26.10 -30.10 L26.41 -31.05 L25.60 -31.64 L24.79 -31.05 L25.10 -30.10 L26.10 -30.10 L25.10 -30.10 L24.29 -30.69 L23.48 -30.10 L24.29 -30.69 L23.98 -31.64 L22.98 -31.64 L23.98 -31.64 L24.79 -31.05 L25.60 -31.64 L26.60 -31.64 L26.91 -32.59 L26.10 -33.18 L26.91 -32.59 L27.22 -31.64 L28.22 -31.64 L28.53 -32.59 L27.72 -33.18 L26.91 -32.59 L27.72 -33.18 L28.72 -33.18 L29.03 -34.13 L29.84 -34.72 L29.53 -35.67 L28.53 -35.67 L29.53 -35.67 L30.34 -35.08 L31.15 -35.67 L30.84 -36.62 L29.84 -36.62 L29.53 -35.67 L29.84 -36.62 L30.65 -37.21 L30.34 -38.16 L29.34 -38.16 L29.03 -37.21 L29.84 -36.62 L29.03 -37.21 L28.72 -38.16 L27.72 -38.16 L28.72 -38.16 L29.03 -39.11 L28.22 -39.70 L29.03 -39.11 L29.34 -38.16 L30.34 -38.16 L31.15 -37.57 L31.95 -38.16 L31.65 -39.11 L31.95 -38.16 L31.65 -37.21 L32.45 -36.62 L33.26 -37.21 L32.95 -38.16 L31.95 -38.16 L32.95 -38.16 L33.76 -37.57 L34.57 -38.16 L34.26 -39.11 L33.26 -39.11 L32.95 -38.16 L33.26 -39.11 L34.07 -39.70 L33.76 -40.65 L32.76 -40.65 L32.45 -39.70 L33.26 -39.11 L32.45 -39.70 L32.15 -40.65 L31.15 -40.65 L30.84 -39.70 L31.65 -39.11 L32.45 -39.70 L31.65 -39.11 L30.65 -39.11 L30.34 -38.16 L30.64 -39.11 L29.84 -39.70 L29.03 -39.11 L29.84 -39.70 L30.84 -39.70 L31.14 -40.65 L31.95 -41.24 L31.64 -42.19 L30.64 -42.19 L31.64 -42.19 L32.45 -41.60 L33.26 -42.19 L32.95 -43.14 L31.95 -43.14 L31.64 -42.19 L31.95 -43.14 L32.76 -43.73 L32.45 -44.68 L32.76 -45.63 L31.95 -46.22 L31.14 -45.63 L31.95 -46.22 L32.95 -46.22 L33.26 -47.17 L32.45 -47.75 L31.64 -47.17 L31.95 -46.22 L31.64 -47.17 L31.95 -48.12 L31.14 -48.71 L30.34 -48.12 L30.64 -47.17 L31.64 -47.17 L30.64 -47.17 L29.84 -47.75 L29.03 -47.17 L29.84 -47.75 L29.53 -48.71 L28.53 -48.71 L29.53 -48.71 L30.34 -48.12 L31.14 -48.71 L32.14 -48.71 L32.45 -49.66 L31.64 -50.24 L32.45 -49.66 L32.76 -48.71 L33.76 -48.71 L34.07 -49.66 L33.26 -50.25 L32.45 -49.66 L33.26 -50.24 L34.26 -50.24 L34.57 -51.20 L33.76 -51.78 L32.95 -51.20 L33.26 -50.24 L32.95 -51.20 L33.26 -52.15 L32.45 -52.73 L31.64 -52.15 L31.95 -51.20 L32.95 -51.20 L31.95 -51.20 L31.14 -51.78 L30.33 -51.20 L30.64 -50.24 L31.64 -50.24 L31.95 -51.20 L31.64 -50.24 L30.83 -49.66 L31.14 -48.71 L30.83 -49.66 L29.83 -49.66 L29.53 -48.71 L29.83 -49.66 L30.64 -50.24 L30.33 -51.20 L30.64 -52.15 L29.83 -52.73 L29.03 -52.15 L29.83 -52.73 L30.83 -52.73 L31.14 -53.69 L30.33 -54.27 L29.53 -53.69 L29.83 -52.73 L29.53 -53.69 L29.83 -54.64 L29.03 -55.22 L28.22 -54.64 L28.53 -53.68 L29.53 -53.68 L28.53 -53.68 L27.72 -54.27 L26.91 -53.68 L27.22 -52.73 L28.22 -52.73 L28.53 -53.68 L28.22 -52.73 L27.41 -52.15 L27.72 -51.19 L28.72 -51.20 L29.03 -52.15 L28.22 -52.73 L29.03 -52.15 L29.33 -51.20 L30.33 -51.20 L29.33 -51.20 L29.03 -50.24 L29.83 -49.66 L29.03 -50.24 L28.72 -51.19 L27.72 -51.20 L26.91 -51.78 L26.10 -51.19 L26.41 -50.24 L26.10 -51.19 L26.41 -52.15 L25.60 -52.73 L24.79 -52.15 L25.10 -51.19 L26.10 -51.19 L25.10 -51.19 L24.29 -51.78 L23.48 -51.19 L24.29 -51.78 L23.98 -52.73 L22.98 -52.73 L23.98 -52.73 L24.79 -52.15 L25.60 -52.73 L25.29 -53.68 L24.29 -53.68 L23.98 -52.73 L24.29 -53.68 L25.10 -54.27 L24.79 -55.22 L23.79 -55.22 L23.48 -54.27 L24.29 -53.68 L23.48 -54.27 L23.17 -55.22 L22.17 -55.22 L23.17 -55.22 L23.48 -56.17 L22.67 -56.76 L23.48 -56.17 L23.79 -55.22 L24.79 -55.22 L25.60 -54.64 L26.41 -55.22 L26.10 -56.17 L26.41 -55.22 L26.10 -54.27 L26.91 -53.69 L27.72 -54.27 L27.41 -55.22 L26.41 -55.22 L27.41 -55.22 L28.22 -54.64 L29.02 -55.22 L30.02 -55.22 L30.33 -56.18 L29.52 -56.76 L30.33 -56.18 L30.64 -55.22 L31.64 -55.22 L31.95 -56.18 L31.14 -56.76 L30.33 -56.18 L31.14 -56.76 L32.14 -56.76 L32.45 -57.72 L31.64 -58.30 L30.83 -57.71 L31.14 -56.76 L30.83 -57.71 L31.14 -58.67 L30.33 -59.25 L31.14 -58.67 L31.95 -59.25 L31.64 -60.20 L31.95 -59.25 L31.64 -58.30 L32.45 -57.71 L32.76 -56.76 L33.76 -56.76 L34.07 -57.71 L33.76 -56.76 L32.95 -56.18 L33.26 -55.22 L34.26 -55.22 L34.57 -56.18 L33.76 -56.76 L34.57 -56.18 L34.88 -55.22 L35.88 -55.22 L36.19 -56.18 L35.38 -56.76 L34.57 -56.18 L35.38 -56.76 L36.38 -56.76 L36.69 -57.71 L35.88 -58.30 L35.07 -57.71 L35.38 -56.76 L35.07 -57.71 L35.38 -58.67 L34.57 -59.25 L33.76 -58.67 L34.07 -57.71 L35.07 -57.71 L34.07 -57.71 L33.26 -58.30 L32.45 -57.71 L33.26 -58.30 L32.95 -59.25 L31.95 -59.25 L32.95 -59.25 L33.76 -58.66 L34.57 -59.25 L35.57 -59.25 L35.88 -60.20 L35.07 -60.79 L35.88 -60.20 L36.19 -59.25 L37.19 -59.25 L37.50 -60.20 L36.69 -60.79 L35.88 -60.20 L36.69 -60.79 L37.69 -60.79 L38.00 -61.74 L37.19 -62.33 L36.38 -61.74 L36.69 -60.79 L36.38 -61.74 L36.69 -62.69 L35.88 -63.28 L35.07 -62.69 L35.38 -61.74 L36.38 -61.74 L35.38 -61.74 L34.57 -62.33 L33.76 -61.74 L34.07 -60.79 L35.07 -60.79 L35.38 -61.74 L35.07 -60.79 L34.26 -60.20 L34.57 -59.25 L34.26 -60.20 L33.26 -60.20 L32.95 -59.25 L33.26 -60.20 L34.07 -60.79 L33.76 -61.74 L34.07 -62.69 L33.26 -63.28 L32.45 -62.69 L33.26 -63.28 L34.26 -63.28 L34.57 -64.23 L33.76 -64.82 L32.95 -64.23 L33.26 -63.28 L32.95 -64.23 L33.26 -65.18 L32.45 -65.77 L31.64 -65.18 L31.95 -64.23 L32.95 -64.23 L31.95 -64.23 L31.14 -64.82 L30.33 -64.23 L30.64 -63.28 L31.64 -63.28 L31.95 -64.23 L31.64 -63.28 L30.83 -62.69 L31.14 -61.74 L32.14 -61.74 L32.45 -62.69 L31.64 -63.28 L32.45 -62.69 L32.76 -61.74 L33.76 -61.74 L32.76 -61.74 L32.45 -60.79 L33.26 -60.20 L32.45 -60.79 L32.14 -61.74 L31.14 -61.74 L30.33 -62.33 L29.52 -61.74 L29.83 -60.79 L29.52 -61.74 L29.83 -62.69 L29.02 -63.28 L28.21 -62.69 L28.52 -61.74 L29.52 -61.74 L28.52 -61.74 L27.71 -62.33 L26.91 -61.74 L27.21 -60.79 L28.21 -60.79 L28.52 -61.74 L28.21 -60.79 L27.41 -60.20 L27.72 -59.25 L28.72 -59.25 L29.02 -60.20 L28.21 -60.79 L29.02 -60.20 L29.33 -59.25 L30.33 -59.25 L30.64 -60.20 L29.83 -60.79 L29.02 -60.20 L29.83 -60.79 L30.83 -60.79 L31.14 -61.74 L30.83 -60.79 L31.64 -60.20 L32.45 -60.79 L31.64 -60.20 L30.64 -60.20 L30.33 -59.25 L29.52 -58.66 L29.83 -57.71 L30.83 -57.71 L29.83 -57.71 L29.02 -58.30 L28.22 -57.71 L28.52 -56.76 L29.52 -56.76 L29.83 -57.71 L29.52 -56.76 L28.72 -56.17 L29.02 -55.22 L28.72 -56.17 L27.72 -56.17 L27.41 -55.22 L27.72 -56.17 L28.52 -56.76 L28.22 -57.71 L27.22 -57.71 L26.91 -56.76 L27.72 -56.17 L26.91 -56.76 L26.60 -57.71 L25.60 -57.71 L25.29 -56.76 L26.10 -56.17 L26.91 -56.76 L26.10 -56.17 L25.10 -56.17 L24.79 -55.22 L25.10 -56.17 L24.29 -56.76 L23.48 -56.17 L24.29 -56.76 L25.29 -56.76 L25.60 -57.71 L26.41 -58.30 L26.10 -59.25 L25.10 -59.25 L26.10 -59.25 L26.91 -58.66 L27.72 -59.25 L27.41 -60.20 L26.41 -60.20 L26.10 -59.25 L26.41 -60.20 L27.22 -60.79 L26.91 -61.74 L27.22 -62.69 L26.41 -63.28 L25.60 -62.69 L26.41 -63.28 L27.41 -63.28 L27.72 -64.23 L26.91 -64.82 L26.10 -64.23 L26.41 -63.28 L26.10 -64.23 L26.41 -65.18 L25.60 -65.77 L24.79 -65.18 L25.10 -64.23 L26.10 -64.23 L25.10 -64.23 L24.29 -64.82 L23.48 -64.23 L24.29 -64.82 L23.98 -65.77 L22.98 -65.77 L23.98 -65.77 L24.79 -65.18 L25.60 -65.77 L26.60 -65.77 L26.91 -66.72 L26.10 -67.31 L26.91 -66.72 L27.21 -65.77 L28.21 -65.77 L28.52 -66.72 L27.71 -67.31 L26.91 -66.72 L27.71 -67.31 L28.71 -67.31 L29.02 -68.26 L28.21 -68.85 L27.40 -68.26 L27.71 -67.31 L27.41 -68.26 L27.71 -69.21 L26.91 -69.80 L26.10 -69.21 L26.41 -68.26 L27.41 -68.26 L26.41 -68.26 L25.60 -68.85 L24.79 -68.26 L25.10 -67.31 L26.10 -67.31 L26.41 -68.26 L26.10 -67.31 L25.29 -66.72 L25.60 -65.77 L25.29 -66.72 L24.29 -66.72 L23.98 -65.77 L24.29 -66.72 L25.10 -67.31 L24.79 -68.26 L25.10 -69.21 L24.29 -69.80 L23.48 -69.21 L24.29 -69.80 L25.29 -69.80 L25.59 -70.75 L24.79 -71.34 L23.98 -70.75 L24.29 -69.80 L23.98 -70.75 L24.29 -71.70 L23.48 -72.29 L22.67 -71.70 L22.98 -70.75 L23.98 -70.75 L22.98 -70.75 L22.17 -71.34 L21.36 -70.75 L21.67 -69.80 L22.67 -69.80 L22.98 -70.75 L22.67 -69.80 L21.86 -69.21 L22.17 -68.26 L23.17 -68.26 L23.48 -69.21 L22.67 -69.80 L23.48 -69.21 L23.79 -68.26 L24.79 -68.26 L23.79 -68.26 L23.48 -67.31 L24.29 -66.72 L23.48 -67.31 L23.17 -68.26 L22.17 -68.26 L21.36 -68.85 L20.55 -68.26 L20.86 -67.31 L20.55 -68.26 L20.86 -69.21 L20.05 -69.80 L19.24 -69.21 L19.55 -68.26 L20.55 -68.26 L19.55 -68.26 L18.74 -68.85 L17.93 -68.26 L18.24 -67.31 L19.24 -67.31 L19.55 -68.26 L19.24 -67.31 L18.43 -66.72 L18.74 -65.77 L19.74 -65.77 L20.05 -66.72 L19.24 -67.31 L20.05 -66.72 L20.36 -65.77 L21.36 -65.77 L21.67 -66.72 L20.86 -67.31 L20.05 -66.72 L20.86 -67.31 L21.86 -67.31 L22.17 -68.26 L21.86 -67.31 L22.67 -66.72 L23.48 -67.31 L22.67 -66.72 L21.67 -66.72 L21.36 -65.77 L20.55 -65.18 L20.86 -64.23 L21.86 -64.23 L20.86 -64.23 L20.05 -64.82 L19.24 -64.23 L19.55 -63.28 L20.55 -63.28 L20.86 -64.23 L20.55 -63.28 L19.74 -62.69 L20.05 -61.74 L21.05 -61.74 L21.36 -62.69 L20.55 -63.28 L21.36 -62.69 L21.67 -61.74 L22.67 -61.74 L22.98 -62.69 L22.17 -63.28 L21.36 -62.69 L22.17 -63.28 L23.17 -63.28 L23.48 -64.23 L22.67 -64.82 L21.86 -64.23 L22.17 -63.28 L21.86 -64.23 L22.17 -65.18 L21.36 -65.77 L22.17 -65.18 L22.98 -65.77 L22.67 -66.72 L22.98 -65.77 L22.67 -64.82 L23.48 -64.23 L23.79 -63.28 L24.79 -63.28 L25.09 -64.23 L24.79 -63.28 L23.98 -62.69 L24.29 -61.74 L25.29 -61.74 L25.60 -62.69 L24.79 -63.28 L25.60 -62.69 L25.90 -61.74 L26.90 -61.74 L25.90 -61.74 L25.60 -60.79 L26.40 -60.20 L25.60 -60.79 L25.29 -61.74 L24.29 -61.74 L23.98 -60.79 L24.79 -60.20 L25.60 -60.79 L24.79 -60.20 L23.79 -60.20 L23.48 -59.25 L24.29 -58.66 L25.10 -59.25 L24.79 -60.20 L25.10 -59.25 L24.79 -58.30 L25.60 -57.71 L24.79 -58.30 L23.98 -57.71 L24.29 -56.76 L23.98 -57.71 L24.29 -58.66 L23.48 -59.25 L23.17 -60.20 L22.17 -60.20 L21.86 -59.25 L22.17 -60.20 L22.98 -60.79 L22.67 -61.74 L21.67 -61.74 L21.36 -60.79 L22.17 -60.20 L21.36 -60.79 L21.05 -61.74 L20.05 -61.74 L19.24 -62.33 L18.43 -61.74 L18.74 -60.79 L18.43 -61.74 L18.74 -62.69 L17.93 -63.28 L17.12 -62.69 L17.43 -61.74 L18.43 -61.74 L17.43 -61.74 L16.62 -62.33 L15.81 -61.74 L16.12 -60.79 L17.12 -60.79 L17.43 -61.74 L17.12 -60.79 L16.31 -60.20 L16.62 -59.25 L16.31 -60.20 L15.31 -60.20 L15.01 -59.25 L15.31 -60.20 L16.12 -60.79 L15.81 -61.74 L16.12 -62.69 L15.31 -63.28 L14.51 -62.69 L15.31 -63.28 L16.31 -63.28 L16.62 -64.23 L15.81 -64.82 L15.01 -64.23 L15.31 -63.28 L15.01 -64.23 L15.31 -65.18 L14.51 -65.77 L13.70 -65.18 L14.01 -64.23 L15.01 -64.23 L14.01 -64.23 L13.20 -64.81 L12.39 -64.23 L12.70 -63.28 L13.70 -63.28 L14.01 -64.23 L13.70 -63.28 L12.89 -62.69 L13.20 -61.74 L14.20 -61.74 L14.51 -62.69 L13.70 -63.28 L14.51 -62.69 L14.81 -61.74 L15.81 -61.74 L14.81 -61.74 L14.51 -60.79 L15.32 -60.20 L14.51 -60.79 L14.20 -61.74 L13.20 -61.74 L12.39 -62.32 L11.58 -61.74 L11.89 -60.79 L11.58 -61.74 L11.89 -62.69 L11.08 -63.28 L10.27 -62.69 L10.58 -61.74 L11.58 -61.74 L10.58 -61.74 L9.77 -62.32 L8.96 -61.74 L9.27 -60.78 L10.27 -60.78 L10.58 -61.74 L10.27 -60.78 L9.46 -60.20 L9.77 -59.25 L10.77 -59.25 L11.08 -60.20 L10.27 -60.79 L11.08 -60.20 L11.39 -59.25 L12.39 -59.25 L12.70 -60.20 L11.89 -60.79 L11.08 -60.20 L11.89 -60.79 L12.89 -60.79 L13.20 -61.74 L12.89 -60.79 L13.70 -60.20 L14.51 -60.79 L13.70 -60.20 L12.70 -60.20 L12.39 -59.25 L11.58 -58.66 L11.89 -57.71 L12.89 -57.71 L11.89 -57.71 L11.08 -58.29 L10.27 -57.71 L10.58 -56.76 L11.58 -56.76 L11.89 -57.71 L11.58 -56.76 L10.77 -56.17 L11.08 -55.22 L12.08 -55.22 L12.39 -56.17 L11.58 -56.76 L12.39 -56.17 L12.70 -55.22 L13.70 -55.22 L14.01 -56.17 L13.20 -56.76 L12.39 -56.17 L13.20 -56.76 L14.20 -56.76 L14.50 -57.71 L13.70 -58.29 L12.89 -57.71 L13.20 -56.76 L12.89 -57.71 L13.20 -58.66 L12.39 -59.25 L13.20 -58.66 L14.01 -59.25 L13.70 -60.20 L14.01 -59.25 L13.70 -58.29 L14.51 -57.71 L14.81 -56.76 L15.81 -56.76 L16.12 -57.71 L15.81 -56.76 L15.01 -56.17 L15.31 -55.22 L16.31 -55.22 L16.62 -56.17 L15.81 -56.76 L16.62 -56.17 L16.93 -55.22 L17.93 -55.22 L18.24 -56.17 L17.43 -56.76 L16.62 -56.17 L17.43 -56.76 L18.43 -56.76 L18.74 -57.71 L17.93 -58.30 L17.12 -57.71 L17.43 -56.76 L17.12 -57.71 L17.43 -58.66 L16.62 -59.25 L15.81 -58.66 L16.12 -57.71 L17.12 -57.71 L16.12 -57.71 L15.31 -58.29 L14.50 -57.71 L15.31 -58.29 L15.00 -59.25 L14.00 -59.25 L15.00 -59.25 L15.81 -58.66 L16.62 -59.25 L17.62 -59.25 L17.93 -60.20 L17.12 -60.78 L17.93 -60.20 L18.24 -59.25 L19.24 -59.25 L19.55 -60.20 L18.74 -60.78 L17.93 -60.20 L18.74 -60.78 L19.74 -60.78 L20.05 -61.74 L19.74 -60.78 L20.55 -60.20 L21.36 -60.78 L20.55 -60.20 L19.55 -60.20 L19.24 -59.25 L20.05 -58.66 L20.86 -59.25 L20.55 -60.20 L20.86 -59.25 L20.55 -58.29 L21.36 -57.71 L22.17 -58.29 L21.86 -59.25 L20.86 -59.25 L21.86 -59.25 L22.67 -58.66 L23.48 -59.25 L22.67 -58.66 L22.98 -57.71 L23.98 -57.71 L22.98 -57.71 L22.17 -58.29 L21.36 -57.71 L20.36 -57.71 L20.05 -56.76 L20.86 -56.17 L20.05 -56.76 L19.74 -57.71 L18.74 -57.71 L18.43 -56.76 L19.24 -56.17 L20.05 -56.76 L19.24 -56.17 L18.24 -56.17 L17.93 -55.22 L17.12 -54.63 L17.43 -53.68 L18.43 -53.68 L17.43 -53.68 L16.62 -54.27 L15.81 -53.68 L16.12 -52.73 L17.12 -52.73 L17.43 -53.68 L17.12 -52.73 L16.31 -52.14 L16.62 -51.19 L17.62 -51.19 L17.93 -52.14 L17.12 -52.73 L17.93 -52.14 L18.24 -51.19 L19.24 -51.19 L18.24 -51.19 L17.93 -50.24 L18.74 -49.65 L17.93 -50.24 L17.62 -51.19 L16.62 -51.19 L15.81 -51.78 L15.01 -51.19 L15.32 -50.24 L15.01 -51.19 L15.31 -52.14 L14.51 -52.73 L13.70 -52.14 L14.01 -51.19 L15.01 -51.19 L14.01 -51.19 L13.20 -51.78 L12.39 -51.19 L12.70 -50.24 L13.70 -50.24 L14.01 -51.19 L13.70 -50.24 L12.89 -49.65 L13.20 -48.70 L14.20 -48.70 L14.51 -49.65 L13.70 -50.24 L14.51 -49.65 L14.82 -48.70 L15.82 -48.70 L16.12 -49.65 L15.32 -50.24 L14.51 -49.65 L15.32 -50.24 L16.32 -50.24 L16.62 -51.19 L16.32 -50.24 L17.12 -49.65 L17.93 -50.24 L17.12 -49.65 L16.12 -49.65 L15.82 -48.70 L15.01 -48.11 L15.32 -47.16 L16.32 -47.16 L15.32 -47.16 L14.51 -47.75 L13.70 -47.16 L14.01 -46.21 L15.01 -46.21 L15.32 -47.16 L15.01 -46.21 L14.20 -45.62 L14.51 -44.67 L15.51 -44.67 L15.82 -45.62 L15.01 -46.21 L15.82 -45.62 L16.12 -44.67 L17.12 -44.67 L17.43 -45.62 L16.62 -46.21 L15.82 -45.62 L16.62 -46.21 L17.62 -46.21 L17.93 -47.16 L17.12 -47.75 L16.32 -47.16 L16.62 -46.21 L16.32 -47.16 L16.62 -48.11 L15.82 -48.70 L16.62 -48.11 L17.43 -48.70 L17.12 -49.65 L17.43 -48.70 L17.12 -47.75 L17.93 -47.16 L18.24 -46.21 L19.24 -46.21 L19.55 -47.16 L19.24 -46.21 L18.43 -45.62 L18.74 -44.67 L19.74 -44.67 L20.05 -45.62 L19.24 -46.21 L20.05 -45.62 L20.36 -44.67 L21.36 -44.67 L21.67 -45.62 L20.86 -46.21 L20.05 -45.62 L20.86 -46.21 L21.86 -46.21 L22.17 -47.16 L21.36 -47.75 L20.55 -47.16 L20.86 -46.21 L20.55 -47.16 L20.86 -48.11 L20.05 -48.70 L19.24 -48.11 L19.55 -47.16 L20.55 -47.16 L19.55 -47.16 L18.74 -47.75 L17.93 -47.16 L18.74 -47.75 L18.43 -48.70 L17.43 -48.70 L18.43 -48.70 L19.24 -48.11 L20.05 -48.70 L21.05 -48.70 L21.36 -49.65 L20.55 -50.24 L21.36 -49.65 L21.67 -48.70 L22.67 -48.70 L22.98 -49.65 L22.17 -50.24 L21.36 -49.65 L22.17 -50.24 L23.17 -50.24 L23.48 -51.19 L22.67 -51.78 L21.86 -51.19 L22.17 -50.24 L21.86 -51.19 L22.17 -52.14 L21.36 -52.73 L20.55 -52.14 L20.86 -51.19 L21.86 -51.19 L20.86 -51.19 L20.05 -51.78 L19.24 -51.19 L19.55 -50.24 L20.55 -50.24 L20.86 -51.19 L20.55 -50.24 L19.74 -49.65 L20.05 -48.70 L19.74 -49.65 L18.74 -49.65 L18.43 -48.70 L18.74 -49.65 L19.55 -50.24 L19.24 -51.19 L19.55 -52.14 L18.74 -52.73 L17.93 -52.14 L18.74 -52.73 L19.74 -52.73 L20.05 -53.68 L19.24 -54.27 L18.43 -53.68 L18.74 -52.73 L18.43 -53.68 L18.74 -54.63 L17.93 -55.22 L18.74 -54.63 L19.55 -55.22 L19.24 -56.17 L19.55 -55.22 L19.24 -54.27 L20.05 -53.68 L20.86 -54.27 L20.55 -55.22 L19.55 -55.22 L20.55 -55.22 L21.36 -54.63 L22.17 -55.22 L21.86 -56.17 L20.86 -56.17 L20.55 -55.22 L20.86 -56.17 L21.67 -56.76 L21.36 -57.71 L21.67 -56.76 L22.67 -56.76 L22.98 -57.71 L22.67 -56.76 L21.86 -56.17 L22.17 -55.22 L21.86 -54.27 L22.67 -53.68 L23.48 -54.27 L22.67 -53.68 L21.67 -53.68 L21.36 -52.73 L22.17 -52.14 L22.98 -52.73 L22.67 -53.68 L22.98 -52.73 L22.67 -51.78 L23.48 -51.19 L23.79 -50.24 L24.79 -50.24 L25.10 -51.19 L24.79 -50.24 L23.98 -49.65 L24.29 -48.70 L25.29 -48.70 L25.60 -49.65 L24.79 -50.24 L25.60 -49.65 L25.91 -48.70 L26.91 -48.70 L27.21 -49.65 L26.41 -50.24 L25.60 -49.65 L26.41 -50.24 L27.41 -50.24 L27.71 -51.19 L27.40 -50.24 L28.21 -49.65 L29.02 -50.24 L28.21 -49.65 L27.21 -49.65 L26.90 -48.70 L26.10 -48.11 L26.40 -47.16 L27.40 -47.16 L26.40 -47.16 L25.60 -47.75 L24.79 -47.16 L25.10 -46.21 L26.10 -46.21 L26.40 -47.16 L26.10 -46.21 L25.29 -45.62 L25.60 -44.67 L26.60 -44.67 L26.90 -45.62 L26.10 -46.21 L26.90 -45.62 L27.21 -44.67 L28.21 -44.67 L28.52 -45.62 L27.71 -46.21 L26.90 -45.62 L27.71 -46.21 L28.71 -46.21 L29.02 -47.16 L28.21 -47.75 L27.40 -47.16 L27.71 -46.21 L27.40 -47.16 L27.71 -48.11 L26.90 -48.70 L27.71 -48.11 L28.52 -48.70 L28.21 -49.65 L28.52 -48.70 L28.21 -47.75 L29.02 -47.16 L29.33 -46.21 L30.33 -46.21 L30.64 -47.16 L30.33 -46.21 L29.52 -45.62 L29.83 -44.67 L30.83 -44.67 L31.14 -45.62 L30.33 -46.21 L31.14 -45.62 L31.45 -44.67 L32.45 -44.67 L31.45 -44.67 L31.14 -43.72 L31.95 -43.13 L31.14 -43.72 L30.83 -44.67 L29.83 -44.67 L29.52 -43.72 L30.33 -43.13 L31.14 -43.72 L30.33 -43.13 L29.33 -43.13 L29.02 -42.18 L29.83 -41.59 L30.64 -42.18 L30.33 -43.13 L30.64 -42.18 L30.33 -41.23 L31.14 -40.64 L30.33 -41.23 L29.52 -40.64 L29.83 -39.69 L29.52 -40.64 L29.83 -41.59 L29.02 -42.18 L28.72 -43.13 L27.72 -43.13 L27.41 -42.18 L27.72 -43.13 L28.52 -43.72 L28.22 -44.67 L27.22 -44.67 L26.91 -43.72 L27.72 -43.13 L26.91 -43.72 L26.60 -44.67 L25.60 -44.67 L25.29 -43.72 L26.10 -43.13 L26.91 -43.72 L26.10 -43.13 L25.10 -43.13 L24.79 -42.18 L25.60 -41.59 L26.41 -42.18 L26.10 -43.13 L26.41 -42.18 L26.10 -41.23 L26.91 -40.64 L27.72 -41.23 L27.41 -42.18 L26.41 -42.18 L27.41 -42.18 L28.22 -41.59 L29.02 -42.18 L28.22 -41.59 L28.53 -40.64 L29.53 -40.64 L28.53 -40.64 L27.72 -41.23 L26.91 -40.64 L25.91 -40.64 L25.60 -39.69 L26.41 -39.10 L25.60 -39.69 L25.29 -40.64 L24.29 -40.64 L23.98 -39.69 L24.79 -39.10 L25.60 -39.69 L24.79 -39.10 L23.79 -39.10 L23.48 -38.15 L24.29 -37.56 L25.10 -38.15 L24.79 -39.10 L25.10 -38.15 L24.79 -37.20 L25.60 -36.61 L26.41 -37.20 L26.10 -38.15 L25.10 -38.15 L26.10 -38.15 L26.91 -37.57 L27.72 -38.15 L27.41 -39.10 L26.41 -39.10 L26.10 -38.15 L26.41 -39.10 L27.22 -39.69 L26.91 -40.64 L27.22 -39.69 L28.22 -39.69 L28.53 -40.64 L28.22 -39.69 L27.41 -39.11 L27.72 -38.15 L27.41 -37.20 L28.22 -36.62 L29.03 -37.20 L28.22 -36.62 L27.22 -36.62 L26.91 -35.66 L27.72 -35.08 L28.53 -35.66 L28.22 -36.62 L28.53 -35.66 L28.22 -34.71 L29.03 -34.13 L28.22 -34.71 L27.41 -34.13 L27.72 -33.17 L27.41 -34.13 L27.72 -35.08 L26.91 -35.67 L26.10 -35.08 L26.41 -34.13 L27.41 -34.13 L26.41 -34.13 L25.60 -34.71 L24.79 -34.13 L25.10 -33.17 L26.10 -33.18 L26.41 -34.13 L26.10 -33.18 L25.29 -32.59 L25.60 -31.64 L25.29 -32.59 L24.29 -32.59 L23.98 -31.64 L24.29 -32.59 L25.10 -33.18 L24.79 -34.13 L25.10 -35.08 L24.29 -35.67 L23.48 -35.08 L24.29 -35.67 L25.29 -35.67 L25.60 -36.62 L24.79 -37.20 L23.98 -36.62 L24.29 -35.66 L23.98 -36.62 L24.29 -37.57 L23.48 -38.15 L23.17 -39.11 L22.17 -39.10 L21.86 -38.15 L22.17 -39.10 L22.98 -39.69 L22.67 -40.64 L21.67 -40.64 L21.36 -39.69 L22.17 -39.10 L21.36 -39.69 L21.05 -40.64 L20.05 -40.64 L19.74 -39.69 L20.55 -39.10 L21.36 -39.69 L20.55 -39.10 L19.55 -39.10 L19.25 -38.15 L19.55 -39.10 L18.75 -39.69 L17.94 -39.10 L18.75 -39.69 L19.75 -39.69 L20.05 -40.64 L20.86 -41.23 L20.55 -42.18 L19.55 -42.18 L20.55 -42.18 L21.36 -41.59 L22.17 -42.18 L21.86 -43.13 L20.86 -43.13 L20.56 -42.18 L20.86 -43.13 L21.67 -43.72 L21.36 -44.67 L20.36 -44.67 L20.05 -43.72 L20.86 -43.13 L20.05 -43.72 L19.75 -44.67 L18.75 -44.67 L18.44 -43.72 L19.25 -43.13 L20.05 -43.72 L19.25 -43.13 L18.25 -43.13 L17.94 -42.18 L18.75 -41.59 L19.55 -42.18 L19.25 -43.13 L19.55 -42.18 L19.25 -41.23 L20.05 -40.64 L19.25 -41.23 L18.44 -40.64 L18.75 -39.69 L18.44 -40.64 L18.75 -41.59 L17.94 -42.18 L17.63 -43.13 L16.63 -43.13 L16.32 -42.18 L16.63 -43.13 L17.44 -43.72 L17.13 -44.67 L16.13 -44.67 L15.82 -43.72 L16.63 -43.13 L15.82 -43.72 L15.51 -44.67 L14.51 -44.67 L13.70 -45.26 L12.89 -44.67 L13.20 -43.72 L12.89 -44.67 L13.20 -45.62 L12.39 -46.21 L11.58 -45.62 L11.89 -44.67 L12.89 -44.67 L11.89 -44.67 L11.08 -45.26 L10.27 -44.67 L10.58 -43.72 L11.58 -43.72 L11.89 -44.67 L11.58 -43.72 L10.77 -43.13 L11.08 -42.18 L10.77 -43.13 L9.77 -43.13 L9.46 -42.18 L9.77 -43.13 L10.58 -43.72 L10.27 -44.67 L10.58 -45.62 L9.77 -46.21 L8.96 -45.62 L9.77 -46.21 L10.77 -46.21 L11.08 -47.16 L10.27 -47.75 L9.46 -47.16 L9.77 -46.21 L9.46 -47.16 L9.77 -48.11 L8.96 -48.70 L8.15 -48.11 L8.46 -47.16 L9.46 -47.16 L8.46 -47.16 L7.65 -47.75 L6.84 -47.16 L7.15 -46.21 L8.15 -46.21 L8.46 -47.16 L8.15 -46.21 L7.34 -45.62 L7.65 -44.67 L8.65 -44.67 L8.96 -45.62 L8.15 -46.21 L8.96 -45.62 L9.27 -44.67 L10.27 -44.67 L9.27 -44.67 L8.96 -43.72 L9.77 -43.13 L8.96 -43.72 L8.65 -44.67 L7.65 -44.67 L6.85 -45.26 L6.04 -44.67 L6.35 -43.72 L6.04 -44.67 L6.35 -45.62 L5.54 -46.21 L4.73 -45.62 L5.04 -44.67 L6.04 -44.67 L5.04 -44.67 L4.23 -45.26 L3.42 -44.67 L3.73 -43.72 L4.73 -43.72 L5.04 -44.67 L4.73 -43.72 L3.92 -43.13 L4.23 -42.18 L5.23 -42.18 L5.54 -43.13 L4.73 -43.72 L5.54 -43.13 L5.85 -42.18 L6.85 -42.18 L7.15 -43.13 L6.35 -43.72 L5.54 -43.13 L6.35 -43.72 L7.35 -43.72 L7.65 -44.67 L7.35 -43.72 L8.15 -43.13 L8.96 -43.72 L8.15 -43.13 L7.15 -43.13 L6.85 -42.18 L6.04 -41.59 L6.35 -40.64 L7.35 -40.64 L6.35 -40.64 L5.54 -41.23 L4.73 -40.64 L5.04 -39.69 L6.04 -39.69 L6.34 -40.64 L6.04 -39.69 L5.23 -39.10 L5.54 -38.15 L5.23 -39.10 L4.23 -39.10 L3.92 -38.15 L4.23 -39.10 L5.04 -39.69 L4.73 -40.64 L3.73 -40.64 L3.42 -39.69 L4.23 -39.10 L3.42 -39.69 L3.11 -40.64 L2.11 -40.64 L1.80 -39.69 L2.61 -39.10 L3.42 -39.69 L2.61 -39.10 L1.61 -39.10 L1.30 -38.15 L1.61 -39.10 L0.80 -39.69 L-0.01 -39.10 L0.80 -39.69 L1.80 -39.69 L2.11 -40.64 L2.92 -41.23 L2.61 -42.18 L1.61 -42.18 L2.61 -42.18 L3.42 -41.59 L4.23 -42.18 L3.92 -43.13 L2.92 -43.13 L2.61 -42.18 L2.92 -43.13 L3.73 -43.72 L3.42 -44.67 L3.73 -45.62 L2.92 -46.21 L2.11 -45.62 L2.92 -46.21 L3.92 -46.21 L4.23 -47.16 L3.42 -47.75 L2.61 -47.16 L2.92 -46.21 L2.61 -47.16 L2.92 -48.11 L2.11 -48.70 L1.30 -48.11 L1.61 -47.16 L2.61 -47.16 L1.61 -47.16 L0.80 -47.75 L-0.01 -47.16 L0.80 -47.75 L0.49 -48.70 L-0.51 -48.70 L0.49 -48.70 L1.30 -48.11 L2.11 -48.70 L3.11 -48.70 L3.42 -49.65 L2.61 -50.24 L3.42 -49.65 L3.73 -48.70 L4.73 -48.70 L5.04 -49.65 L4.23 -50.24 L3.42 -49.65 L4.23 -50.24 L5.23 -50.24 L5.54 -51.19 L4.73 -51.78 L3.92 -51.19 L4.23 -50.24 L3.92 -51.19 L4.23 -52.14 L3.42 -52.73 L2.61 -52.14 L2.92 -51.19 L3.92 -51.19 L2.92 -51.19 L2.11 -51.78 L1.30 -51.19 L1.61 -50.24 L2.61 -50.24 L2.92 -51.19 L2.61 -50.24 L1.80 -49.65 L2.11 -48.70 L1.80 -49.65 L0.80 -49.65 L0.49 -48.70 L0.80 -49.65 L1.61 -50.24 L1.30 -51.19 L1.61 -52.14 L0.80 -52.73 L-0.01 -52.14 L0.80 -52.73 L1.80 -52.73 L2.11 -53.68 L1.30 -54.27 L0.49 -53.68 L0.80 -52.73 L0.49 -53.68 L0.80 -54.63 L-0.01 -55.22 L-0.82 -54.63 L-0.51 -53.68 L0.49 -53.68 L-0.51 -53.68 L-1.32 -54.27 L-2.13 -53.68 L-1.82 -52.73 L-0.82 -52.73 L-0.51 -53.68 L-0.82 -52.73 L-1.63 -52.14 L-1.32 -51.19 L-0.32 -51.19 L-0.01 -52.14 L-0.82 -52.73 L-0.01 -52.14 L0.30 -51.19 L1.30 -51.19 L0.30 -51.19 L-0.01 -50.24 L0.80 -49.65 L-0.01 -50.24 L-0.32 -51.19 L-1.32 -51.19 L-2.13 -51.78 L-2.94 -51.19 L-2.63 -50.24 L-2.94 -51.19 L-2.63 -52.14 L-3.44 -52.73 L-4.25 -52.14 L-3.94 -51.19 L-2.94 -51.19 L-3.94 -51.19 L-4.75 -51.78 L-5.55 -51.19 L-5.25 -50.24 L-4.25 -50.24 L-3.94 -51.19 L-4.25 -50.24 L-5.05 -49.65 L-4.74 -48.70 L-3.74 -48.70 L-3.44 -49.65 L-4.24 -50.24 L-3.44 -49.65 L-3.13 -48.70 L-2.13 -48.70 L-1.82 -49.65 L-2.63 -50.24 L-3.44 -49.65 L-2.63 -50.24 L-1.63 -50.24 L-1.32 -51.19 L-1.63 -50.24 L-0.82 -49.65 L-0.01 -50.24 L-0.82 -49.65 L-1.82 -49.65 L-2.13 -48.70 L-2.94 -48.11 L-2.63 -47.16 L-1.63 -47.16 L-2.63 -47.16 L-3.44 -47.75 L-4.24 -47.16 L-3.94 -46.21 L-2.94 -46.21 L-2.63 -47.16 L-2.94 -46.21 L-3.74 -45.62 L-3.44 -44.67 L-2.44 -44.67 L-2.13 -45.62 L-2.94 -46.21 L-2.13 -45.62 L-1.82 -44.67 L-0.82 -44.67 L-0.51 -45.62 L-1.32 -46.21 L-2.13 -45.62 L-1.32 -46.21 L-0.32 -46.21 L-0.01 -47.16 L-0.82 -47.75 L-1.63 -47.16 L-1.32 -46.21 L-1.63 -47.16 L-1.32 -48.11 L-2.13 -48.70 L-1.32 -48.11 L-0.51 -48.70 L-0.82 -49.65 L-0.51 -48.70 L-0.82 -47.75 L-0.01 -47.16 L0.30 -46.21 L1.30 -46.21 L1.61 -47.16 L1.30 -46.21 L0.49 -45.62 L0.80 -44.67 L1.80 -44.67 L2.11 -45.62 L1.30 -46.21 L2.11 -45.62 L2.42 -44.67 L3.42 -44.67 L2.42 -44.67 L2.11 -43.72 L2.92 -43.13 L2.11 -43.72 L1.80 -44.67 L0.80 -44.67 L0.49 -43.72 L1.30 -43.13 L2.11 -43.72 L1.30 -43.13 L0.30 -43.13 L-0.01 -42.18 L0.80 -41.59 L1.61 -42.18 L1.30 -43.13 L1.61 -42.18 L1.30 -41.23 L2.11 -40.64 L1.30 -41.23 L0.49 -40.64 L0.80 -39.69 L0.49 -40.64 L0.80 -41.59 L-0.01 -42.18 L-0.32 -43.13 L-1.32 -43.13 L-1.63 -42.18 L-1.32 -43.13 L-0.51 -43.72 L-0.82 -44.67 L-1.82 -44.67 L-2.13 -43.71 L-1.32 -43.13 L-2.13 -43.71 L-2.44 -44.67 L-3.44 -44.67 L-4.25 -45.25 L-5.05 -44.67 L-4.74 -43.71 L-5.05 -44.67 L-4.75 -45.62 L-5.55 -46.20 L-6.36 -45.62 L-6.05 -44.66 L-5.05 -44.67 L-6.05 -44.66 L-6.86 -45.25 L-7.67 -44.66 L-7.36 -43.71 L-6.36 -43.71 L-6.05 -44.66 L-6.36 -43.71 L-7.17 -43.13 L-6.86 -42.18 L-7.17 -43.13 L-8.17 -43.13 L-8.48 -42.18 L-8.17 -43.13 L-7.36 -43.71 L-7.67 -44.67 L-7.37 -45.62 L-8.17 -46.20 L-8.98 -45.62 L-8.17 -46.20 L-7.17 -46.20 L-6.87 -47.16 L-7.67 -47.74 L-8.48 -47.16 L-8.17 -46.20 L-8.48 -47.16 L-8.17 -48.11 L-8.98 -48.69 L-9.79 -48.11 L-9.48 -47.16 L-8.48 -47.16 L-9.48 -47.16 L-10.29 -47.74 L-11.10 -47.16 L-10.79 -46.20 L-9.79 -46.20 L-9.48 -47.16 L-9.79 -46.20 L-10.60 -45.62 L-10.29 -44.67 L-9.29 -44.67 L-8.98 -45.62 L-9.79 -46.20 L-8.98 -45.62 L-8.67 -44.67 L-7.67 -44.67 L-8.67 -44.67 L-8.98 -43.71 L-8.17 -43.13 L-8.98 -43.71 L-9.29 -44.67 L-10.29 -44.67 L-11.10 -45.25 L-11.91 -44.66 L-11.60 -43.71 L-11.91 -44.66 L-11.60 -45.62 L-12.41 -46.20 L-13.22 -45.62 L-12.91 -44.66 L-11.91 -44.66 L-12.91 -44.66 L-13.72 -45.25 L-14.53 -44.66 L-14.22 -43.71 L-13.22 -43.71 L-12.91 -44.66 L-13.22 -43.71 L-14.03 -43.12 L-13.72 -42.17 L-12.72 -42.17 L-12.41 -43.13 L-13.22 -43.71 L-12.41 -43.13 L-12.10 -42.17 L-11.10 -42.17 L-10.79 -43.13 L-11.60 -43.71 L-12.41 -43.13 L-11.60 -43.71 L-10.60 -43.71 L-10.29 -44.66 L-10.60 -43.71 L-9.79 -43.13 L-8.98 -43.71 L-9.79 -43.13 L-10.79 -43.13 L-11.10 -42.17 L-11.91 -41.59 L-11.60 -40.64 L-10.60 -40.64 L-11.60 -40.64 L-12.41 -41.22 L-13.22 -40.64 L-12.91 -39.68 L-11.91 -39.69 L-11.60 -40.64 L-11.91 -39.69 L-12.72 -39.10 L-12.41 -38.15 L-11.41 -38.15 L-11.10 -39.10 L-11.91 -39.68 L-11.10 -39.10 L-10.79 -38.15 L-9.79 -38.15 L-9.48 -39.10 L-10.29 -39.69 L-11.10 -39.10 L-10.29 -39.69 L-9.29 -39.69 L-8.98 -40.64 L-9.79 -41.22 L-10.60 -40.64 L-10.29 -39.69 L-10.60 -40.64 L-10.29 -41.59 L-11.10 -42.18 L-10.29 -41.59 L-9.48 -42.18 L-9.79 -43.13 L-9.48 -42.18 L-9.79 -41.22 L-8.98 -40.64 L-8.67 -39.69 L-7.67 -39.69 L-7.36 -40.64 L-7.67 -39.69 L-8.48 -39.10 L-8.17 -38.15 L-7.17 -38.15 L-6.86 -39.10 L-7.67 -39.69 L-6.86 -39.10 L-6.55 -38.15 L-5.55 -38.15 L-5.25 -39.10 L-6.05 -39.69 L-6.86 -39.10 L-6.05 -39.69 L-5.05 -39.69 L-4.75 -40.64 L-5.56 -41.23 L-6.36 -40.64 L-6.05 -39.69 L-6.36 -40.64 L-6.05 -41.59 L-6.86 -42.18 L-7.67 -41.59 L-7.36 -40.64 L-6.36 -40.64 L-7.36 -40.64 L-8.17 -41.23 L-8.98 -40.64 L-8.17 -41.23 L-8.48 -42.18 L-9.48 -42.18 L-8.48 -42.18 L-7.67 -41.59 L-6.87 -42.18 L-5.87 -42.18 L-5.56 -43.13 L-6.37 -43.72 L-5.56 -43.13 L-5.25 -42.18 L-4.25 -42.18 L-3.94 -43.13 L-4.75 -43.72 L-5.56 -43.13 L-4.75 -43.72 L-3.75 -43.72 L-3.44 -44.67 L-3.75 -43.72 L-2.94 -43.13 L-2.13 -43.72 L-2.94 -43.13 L-3.94 -43.13 L-4.25 -42.18 L-3.44 -41.59 L-2.63 -42.18 L-2.94 -43.13 L-2.63 -42.18 L-2.94 -41.23 L-2.13 -40.64 L-1.32 -41.23 L-1.63 -42.18 L-2.63 -42.18 L-1.63 -42.18 L-0.82 -41.59 L-0.01 -42.18 L-0.82 -41.59 L-0.51 -40.64 L0.49 -40.64 L-0.51 -40.64 L-1.32 -41.23 L-2.13 -40.64 L-3.13 -40.64 L-3.44 -39.69 L-2.63 -39.10 L-3.44 -39.69 L-3.75 -40.64 L-4.75 -40.64 L-5.06 -39.69 L-4.25 -39.10 L-3.44 -39.69 L-4.25 -39.10 L-5.25 -39.10 L-5.56 -38.15 L-6.36 -37.56 L-6.06 -36.61 L-5.06 -36.61 L-6.06 -36.61 L-6.86 -37.20 L-7.67 -36.61 L-7.36 -35.66 L-6.36 -35.66 L-6.06 -36.61 L-6.36 -35.66 L-7.17 -35.07 L-6.86 -34.12 L-5.86 -34.12 L-5.55 -35.07 L-6.36 -35.66 L-5.55 -35.07 L-5.25 -34.12 L-4.25 -34.12 L-5.25 -34.12 L-5.55 -33.17 L-4.75 -32.58 L-5.55 -33.17 L-5.86 -34.12 L-6.86 -34.12 L-7.67 -34.71 L-8.48 -34.12 L-8.17 -33.17 L-8.48 -34.12 L-8.17 -35.07 L-8.98 -35.66 L-9.79 -35.07 L-9.48 -34.12 L-8.48 -34.12 L-9.48 -34.12 L-10.29 -34.71 L-11.10 -34.12 L-10.79 -33.17 L-9.79 -33.17 L-9.48 -34.12 L-9.79 -33.17 L-10.60 -32.58 L-10.29 -31.63 L-9.29 -31.63 L-8.98 -32.58 L-9.79 -33.17 L-8.98 -32.58 L-8.67 -31.63 L-7.67 -31.63 L-7.36 -32.58 L-8.17 -33.17 L-8.98 -32.58 L-8.17 -33.17 L-7.17 -33.17 L-6.86 -34.12 L-7.17 -33.17 L-6.36 -32.58 L-5.55 -33.17 L-6.36 -32.58 L-7.36 -32.58 L-7.67 -31.63 L-8.48 -31.04 L-8.17 -30.09 L-7.17 -30.09 L-8.17 -30.09 L-8.98 -30.68 L-9.79 -30.09 L-9.48 -29.14 L-8.48 -29.14 L-8.17 -30.09 L-8.48 -29.14 L-9.29 -28.55 L-8.98 -27.60 L-7.98 -27.60 L-7.67 -28.55 L-8.48 -29.14 L-7.67 -28.55 L-7.36 -27.60 L-6.36 -27.60 L-6.05 -28.55 L-6.86 -29.14 L-7.67 -28.55 L-6.86 -29.14 L-5.86 -29.14 L-5.55 -30.09 L-6.36 -30.68 L-7.17 -30.09 L-6.86 -29.14 L-7.17 -30.09 L-6.86 -31.04 L-7.67 -31.63 L-6.86 -31.04 L-6.05 -31.63 L-6.36 -32.58 L-6.06 -31.63 L-6.36 -30.68 L-5.55 -30.09 L-5.25 -29.14 L-4.25 -29.14 L-3.94 -30.09 L-4.25 -29.14 L-5.05 -28.55 L-4.75 -27.60 L-3.75 -27.60 L-3.44 -28.55 L-4.25 -29.14 L-3.44 -28.55 L-3.13 -27.60 L-2.13 -27.60 L-1.82 -28.55 L-2.63 -29.14 L-3.44 -28.55 L-2.63 -29.14 L-1.63 -29.14 L-1.32 -30.09 L-2.13 -30.68 L-2.94 -30.09 L-2.63 -29.14 L-2.94 -30.09 L-2.63 -31.04 L-3.44 -31.63 L-4.25 -31.04 L-3.94 -30.09 L-2.94 -30.09 L-3.94 -30.09 L-4.75 -30.68 L-5.55 -30.09 L-4.75 -30.68 L-5.05 -31.63 L-6.05 -31.63 L-5.05 -31.63 L-4.25 -31.04 L-3.44 -31.63 L-2.44 -31.63 L-2.13 -32.58 L-2.94 -33.17 L-2.13 -32.58 L-1.82 -31.63 L-0.82 -31.63 L-0.51 -32.58 L-1.32 -33.17 L-2.13 -32.58 L-1.32 -33.17 L-0.32 -33.17 L-0.01 -34.12 L-0.82 -34.71 L-1.63 -34.12 L-1.32 -33.17 L-1.63 -34.12 L-1.32 -35.07 L-2.13 -35.66 L-2.94 -35.07 L-2.63 -34.12 L-1.63 -34.12 L-2.63 -34.12 L-3.44 -34.71 L-4.25 -34.12 L-3.94 -33.17 L-2.94 -33.17 L-2.63 -34.12 L-2.94 -33.17 L-3.74 -32.58 L-3.44 -31.63 L-3.74 -32.58 L-4.74 -32.58 L-5.05 -31.63 L-4.75 -32.58 L-3.94 -33.17 L-4.24 -34.12 L-3.94 -35.07 L-4.75 -35.66 L-5.55 -35.07 L-4.75 -35.66 L-3.75 -35.66 L-3.44 -36.61 L-4.25 -37.20 L-5.05 -36.61 L-4.75 -35.66 L-5.05 -36.61 L-4.75 -37.56 L-5.56 -38.15 L-4.75 -37.56 L-3.94 -38.15 L-4.25 -39.10 L-3.94 -38.15 L-4.25 -37.20 L-3.44 -36.61 L-2.63 -37.20 L-2.94 -38.15 L-3.94 -38.15 L-2.94 -38.15 L-2.13 -37.56 L-1.32 -38.15 L-1.63 -39.10 L-2.63 -39.10 L-2.94 -38.15 L-2.63 -39.10 L-1.82 -39.69 L-2.13 -40.64 L-1.82 -39.69 L-0.82 -39.69 L-0.51 -40.64 L-0.82 -39.69 L-1.63 -39.10 L-1.32 -38.15 L-1.63 -37.20 L-0.82 -36.61 L-0.01 -37.20 L-0.82 -36.61 L-1.82 -36.61 L-2.13 -35.66 L-1.32 -35.07 L-0.51 -35.66 L-0.82 -36.61 L-0.51 -35.66 L-0.82 -34.71 L-0.01 -34.12 L0.30 -33.17 L1.30 -33.17 L1.61 -34.12 L1.30 -33.17 L0.49 -32.58 L0.80 -31.63 L1.80 -31.63 L2.11 -32.58 L1.30 -33.17 L2.11 -32.58 L2.42 -31.63 L3.42 -31.63 L3.73 -32.58 L2.92 -33.17 L2.11 -32.58 L2.92 -33.17 L3.92 -33.17 L4.23 -34.12 L3.92 -33.17 L4.73 -32.58 L5.54 -33.17 L4.73 -32.58 L3.73 -32.58 L3.42 -31.63 L2.61 -31.04 L2.92 -30.09 L3.92 -30.09 L2.92 -30.09 L2.11 -30.68 L1.30 -30.09 L1.61 -29.14 L2.61 -29.14 L2.92 -30.09 L2.61 -29.14 L1.80 -28.55 L2.11 -27.60 L3.11 -27.60 L3.42 -28.55 L2.61 -29.14 L3.42 -28.55 L3.73 -27.60 L4.73 -27.60 L5.04 -28.55 L4.23 -29.14 L3.42 -28.55 L4.23 -29.14 L5.23 -29.14 L5.54 -30.09 L4.73 -30.68 L3.92 -30.09 L4.23 -29.14 L3.92 -30.09 L4.23 -31.04 L3.42 -31.63 L4.23 -31.04 L5.04 -31.63 L4.73 -32.58 L5.04 -31.63 L4.73 -30.68 L5.54 -30.09 L5.85 -29.14 L6.85 -29.14 L7.15 -30.09 L6.85 -29.14 L6.04 -28.55 L6.35 -27.60 L7.35 -27.60 L7.65 -28.55 L6.85 -29.14 L7.65 -28.55 L7.96 -27.60 L8.96 -27.60 L9.27 -28.55 L8.46 -29.14 L7.65 -28.55 L8.46 -29.14 L9.46 -29.14 L9.77 -30.09 L8.96 -30.68 L8.15 -30.09 L8.46 -29.14 L8.15 -30.09 L8.46 -31.04 L7.65 -31.63 L6.84 -31.04 L7.15 -30.09 L8.15 -30.09 L7.15 -30.09 L6.35 -30.68 L5.54 -30.09 L6.35 -30.68 L6.04 -31.63 L5.04 -31.63 L6.04 -31.63 L6.85 -31.04 L7.65 -31.63 L8.65 -31.63 L8.96 -32.58 L8.15 -33.17 L8.96 -32.58 L9.27 -31.63 L10.27 -31.63 L10.58 -32.58 L9.77 -33.17 L8.96 -32.58 L9.77 -33.17 L10.77 -33.17 L11.08 -34.12 L10.27 -34.71 L9.46 -34.12 L9.77 -33.17 L9.46 -34.12 L9.77 -35.07 L8.96 -35.66 L8.15 -35.07 L8.46 -34.12 L9.46 -34.12 L8.46 -34.12 L7.65 -34.71 L6.84 -34.12 L7.15 -33.17 L8.15 -33.17 L8.46 -34.12 L8.15 -33.17 L7.34 -32.58 L7.65 -31.63 L7.34 -32.58 L6.34 -32.58 L6.04 -31.63 L6.34 -32.58 L7.15 -33.17 L6.84 -34.12 L7.15 -35.07 L6.34 -35.66 L5.53 -35.07 L6.34 -35.66 L7.34 -35.66 L7.65 -36.61 L6.84 -37.20 L6.03 -36.61 L6.34 -35.66 L6.03 -36.61 L6.34 -37.56 L5.53 -38.15 L4.72 -37.56 L5.03 -36.61 L6.03 -36.61 L5.03 -36.61 L4.22 -37.20 L3.42 -36.61 L3.72 -35.66 L4.72 -35.66 L5.03 -36.61 L4.72 -35.66 L3.92 -35.07 L4.23 -34.12 L5.23 -34.12 L5.53 -35.07 L4.72 -35.66 L5.53 -35.07 L5.84 -34.12 L6.84 -34.12 L5.84 -34.12 L5.54 -33.17 L6.34 -32.58 L5.54 -33.17 L5.23 -34.12 L4.23 -34.12 L3.42 -34.71 L2.61 -34.12 L2.92 -33.17 L2.61 -34.12 L2.92 -35.07 L2.11 -35.66 L1.30 -35.07 L1.61 -34.12 L2.61 -34.12 L1.61 -34.12 L0.80 -34.71 L-0.01 -34.12 L0.80 -34.71 L0.49 -35.66 L-0.51 -35.66 L0.49 -35.66 L1.30 -35.07 L2.11 -35.66 L1.80 -36.61 L0.80 -36.61 L0.49 -35.66 L0.80 -36.61 L1.61 -37.20 L1.30 -38.15 L0.30 -38.15 L-0.01 -37.20 L0.80 -36.61 L-0.01 -37.20 L-0.32 -38.15 L-1.32 -38.15 L-0.32 -38.15 L-0.01 -39.10 L-0.82 -39.69 L-0.01 -39.10 L0.30 -38.15 L1.30 -38.15 L2.11 -37.56 L2.92 -38.15 L2.61 -39.10 L2.92 -38.15 L2.61 -37.20 L3.42 -36.61 L4.22 -37.20 L3.92 -38.15 L2.92 -38.15 L3.92 -38.15 L4.73 -37.56 L5.53 -38.15 L6.53 -38.15 L6.84 -39.10 L6.03 -39.69 L6.84 -39.10 L7.15 -38.15 L8.15 -38.15 L8.46 -39.10 L7.65 -39.69 L6.84 -39.10 L7.65 -39.69 L8.65 -39.69 L8.96 -40.64 L8.15 -41.23 L7.34 -40.64 L7.65 -39.69 L7.34 -40.64 L7.65 -41.59 L6.84 -42.18 L7.65 -41.59 L8.46 -42.18 L8.15 -43.13 L8.46 -42.18 L8.15 -41.23 L8.96 -40.64 L9.27 -39.69 L10.27 -39.69 L10.58 -40.64 L10.27 -39.69 L9.46 -39.11 L9.77 -38.15 L10.77 -38.15 L11.08 -39.11 L10.27 -39.69 L11.08 -39.11 L11.39 -38.15 L12.39 -38.15 L12.70 -39.11 L11.89 -39.69 L11.08 -39.11 L11.89 -39.69 L12.89 -39.69 L13.20 -40.65 L12.39 -41.23 L11.58 -40.64 L11.89 -39.69 L11.58 -40.64 L11.89 -41.60 L11.08 -42.18 L10.27 -41.60 L10.58 -40.64 L11.58 -40.65 L10.58 -40.65 L9.77 -41.23 L8.96 -40.65 L9.77 -41.23 L9.46 -42.18 L8.46 -42.18 L9.46 -42.18 L10.27 -41.60 L11.08 -42.18 L12.08 -42.19 L12.39 -43.14 L11.58 -43.72 L12.39 -43.14 L12.69 -42.19 L13.69 -42.19 L14.00 -43.14 L13.19 -43.72 L12.39 -43.14 L13.19 -43.72 L14.19 -43.72 L14.50 -44.68 L14.19 -43.72 L15.00 -43.14 L15.81 -43.72 L15.00 -43.14 L14.00 -43.14 L13.69 -42.19 L14.50 -41.60 L15.31 -42.19 L15.00 -43.14 L15.31 -42.19 L15.00 -41.24 L15.81 -40.65 L16.62 -41.24 L16.31 -42.19 L15.31 -42.19 L16.31 -42.19 L17.12 -41.60 L17.93 -42.19 L17.12 -41.60 L17.43 -40.65 L18.43 -40.65 L17.43 -40.65 L16.62 -41.24 L15.81 -40.65 L14.81 -40.65 L14.50 -39.70 L15.31 -39.11 L14.50 -39.70 L14.19 -40.65 L13.19 -40.65 L12.89 -39.70 L13.69 -39.11 L14.50 -39.70 L13.69 -39.11 L12.69 -39.11 L12.39 -38.16 L13.19 -37.57 L14.00 -38.16 L13.69 -39.11 L14.00 -38.16 L13.69 -37.21 L14.50 -36.62 L15.31 -37.21 L15.00 -38.16 L14.00 -38.16 L15.00 -38.16 L15.81 -37.57 L16.62 -38.16 L16.31 -39.11 L15.31 -39.11 L15.00 -38.16 L15.31 -39.11 L16.12 -39.70 L15.81 -40.65 L16.12 -39.70 L17.12 -39.70 L17.43 -40.65 L17.12 -39.70 L16.31 -39.11 L16.62 -38.16 L16.31 -37.21 L17.12 -36.62 L17.93 -37.21 L17.12 -36.62 L16.12 -36.62 L15.81 -35.67 L16.62 -35.08 L17.43 -35.67 L17.12 -36.62 L17.43 -35.67 L17.12 -34.72 L17.93 -34.13 L18.74 -34.72 L18.43 -35.67 L17.43 -35.67 L18.43 -35.67 L19.24 -35.08 L20.05 -35.67 L19.74 -36.62 L18.74 -36.62 L18.43 -35.67 L18.74 -36.62 L19.55 -37.21 L19.24 -38.16 L18.24 -38.16 L17.93 -37.21 L18.74 -36.62 L17.93 -37.21 L17.62 -38.16 L16.62 -38.16 L17.62 -38.16 L17.93 -39.11 L17.12 -39.70 L17.93 -39.11 L18.24 -38.16 L19.24 -38.16 L20.05 -37.57 L20.86 -38.16 L20.55 -39.11 L20.86 -38.16 L20.55 -37.21 L21.36 -36.62 L22.17 -37.21 L21.86 -38.16 L20.86 -38.16 L21.86 -38.16 L22.67 -37.57 L23.48 -38.16 L22.67 -37.57 L22.98 -36.62 L23.98 -36.62 L22.98 -36.62 L22.17 -37.21 L21.36 -36.62 L21.67 -35.67 L22.67 -35.67 L22.98 -36.62 L22.67 -35.67 L21.86 -35.08 L22.17 -34.13 L23.17 -34.13 L23.48 -35.08 L22.67 -35.67 L23.48 -35.08 L23.79 -34.13 L24.79 -34.13 L23.79 -34.13 L23.48 -33.18 L24.29 -32.59 L23.48 -33.18 L23.17 -34.13 L22.17 -34.13 L21.36 -34.72 L20.55 -34.13 L20.86 -33.18 L20.55 -34.13 L20.86 -35.08 L20.05 -35.67 L19.24 -35.08 L19.55 -34.13 L20.55 -34.13 L19.55 -34.13 L18.74 -34.72 L17.93 -34.13 L16.93 -34.13 L16.62 -33.18 L17.43 -32.59 L16.62 -33.18 L16.31 -34.13 L15.31 -34.13 L15.01 -33.18 L15.82 -32.59 L16.62 -33.18 L15.82 -32.59 L14.82 -32.59 L14.51 -31.64 L15.32 -31.05 L16.12 -31.64 L15.82 -32.59 L16.12 -31.64 L15.82 -30.69 L16.62 -30.10 L15.82 -30.69 L15.01 -30.10 L15.32 -29.15 L15.01 -30.10 L15.32 -31.05 L14.51 -31.64 L14.20 -32.59 L13.20 -32.59 L12.89 -31.64 L13.20 -32.59 L14.01 -33.18 L13.70 -34.13 L12.70 -34.13 L12.39 -33.18 L13.20 -32.59 L12.39 -33.18 L12.08 -34.13 L11.08 -34.13 L10.77 -33.18 L11.58 -32.59 L12.39 -33.18 L11.58 -32.59 L10.58 -32.59 L10.27 -31.64 L11.08 -31.05 L11.89 -31.64 L11.58 -32.59 L11.89 -31.64 L11.58 -30.69 L12.39 -30.10 L13.20 -30.69 L12.89 -31.64 L11.89 -31.64 L12.89 -31.64 L13.70 -31.05 L14.51 -31.64 L13.70 -31.05 L14.01 -30.10 L15.01 -30.10 L14.01 -30.10 L13.20 -30.69 L12.39 -30.10 L11.39 -30.10 L11.08 -29.15 L11.89 -28.56 L11.08 -29.15 L10.77 -30.10 L9.77 -30.10 L9.46 -29.15 L10.27 -28.56 L11.08 -29.15 L10.27 -28.56 L9.27 -28.56 L8.96 -27.61 L8.15 -27.02 L8.46 -26.07 L9.46 -26.07 L8.46 -26.07 L7.65 -26.66 L6.85 -26.07 L7.15 -25.12 L8.15 -25.12 L8.46 -26.07 L8.15 -25.12 L7.35 -24.53 L7.65 -23.58 L8.65 -23.58 L8.96 -24.53 L8.15 -25.12 L8.96 -24.53 L9.27 -23.58 L10.27 -23.58 L9.27 -23.58 L8.96 -22.63 L9.77 -22.04 L8.96 -22.63 L8.65 -23.58 L7.65 -23.58 L6.84 -24.17 L6.04 -23.58 L6.34 -22.63 L6.04 -23.58 L6.34 -24.53 L5.54 -25.12 L4.73 -24.53 L5.04 -23.58 L6.04 -23.58 L5.04 -23.58 L4.23 -24.17 L3.42 -23.58 L3.73 -22.63 L4.73 -22.63 L5.04 -23.58 L4.73 -22.63 L3.92 -22.04 L4.23 -21.09 L5.23 -21.09 L5.54 -22.04 L4.73 -22.63 L5.54 -22.04 L5.85 -21.09 L6.85 -21.09 L7.15 -22.04 L6.34 -22.63 L5.54 -22.04 L6.34 -22.63 L7.34 -22.63 L7.65 -23.58 L7.34 -22.63 L8.15 -22.04 L8.96 -22.63 L8.15 -22.04 L7.15 -22.04 L6.84 -21.09 L6.04 -20.50 L6.34 -19.55 L7.34 -19.55 L6.34 -19.55 L5.54 -20.14 L4.73 -19.55 L5.04 -18.60 L6.04 -18.60 L6.35 -19.55 L6.04 -18.60 L5.23 -18.01 L5.54 -17.06 L6.54 -17.06 L6.85 -18.01 L6.04 -18.60 L6.84 -18.01 L7.15 -17.06 L8.15 -17.06 L8.46 -18.01 L7.65 -18.60 L6.85 -18.01 L7.65 -18.60 L8.65 -18.60 L8.96 -19.55 L8.15 -20.14 L7.34 -19.55 L7.65 -18.60 L7.34 -19.55 L7.65 -20.50 L6.84 -21.09 L7.65 -20.50 L8.46 -21.09 L8.15 -22.04 L8.46 -21.09 L8.15 -20.14 L8.96 -19.55 L9.27 -18.60 L10.27 -18.60 L10.58 -19.55 L10.27 -18.60 L9.46 -18.01 L9.77 -17.06 L10.77 -17.06 L11.08 -18.01 L10.27 -18.60 L11.08 -18.01 L11.39 -17.06 L12.39 -17.06 L11.39 -17.06 L11.08 -16.11 L11.89 -15.52 L11.08 -16.11 L10.77 -17.06 L9.77 -17.06 L9.46 -16.11 L10.27 -15.52 L11.08 -16.11 L10.27 -15.52 L9.27 -15.52 L8.96 -14.57 L9.77 -13.98 L10.58 -14.57 L10.27 -15.52 L10.58 -14.57 L10.27 -13.62 L11.08 -13.03 L10.27 -13.62 L9.46 -13.03 L9.77 -12.08 L9.46 -13.03 L9.77 -13.98 L8.96 -14.57 L8.66 -15.52 L7.66 -15.52 L7.35 -14.57 L7.65 -15.52 L8.46 -16.11 L8.15 -17.06 L7.15 -17.06 L6.85 -16.11 L7.65 -15.52 L6.85 -16.11 L6.54 -17.06 L5.54 -17.06 L4.73 -17.65 L3.92 -17.06 L4.23 -16.11 L3.92 -17.06 L4.23 -18.01 L3.42 -18.60 L2.61 -18.01 L2.92 -17.06 L3.92 -17.06 L2.92 -17.06 L2.11 -17.65 L1.30 -17.06 L1.61 -16.11 L2.61 -16.11 L2.92 -17.06 L2.61 -16.11 L1.80 -15.52 L2.11 -14.57 L1.80 -15.52 L0.80 -15.52 L0.49 -14.57 L0.80 -15.52 L1.61 -16.11 L1.30 -17.06 L1.61 -18.01 L0.80 -18.60 L-0.01 -18.01 L0.80 -18.60 L1.80 -18.60 L2.11 -19.55 L1.30 -20.14 L0.49 -19.55 L0.80 -18.60 L0.49 -19.55 L0.80 -20.50 L-0.01 -21.09 L-0.82 -20.50 L-0.51 -19.55 L0.49 -19.55 L-0.51 -19.55 L-1.32 -20.14 L-2.13 -19.55 L-1.82 -18.60 L-0.82 -18.60 L-0.51 -19.55 L-0.82 -18.60 L-1.63 -18.01 L-1.32 -17.06 L-0.32 -17.06 L-0.01 -18.01 L-0.82 -18.60 L-0.01 -18.01 L0.30 -17.06 L1.30 -17.06 L0.30 -17.06 L-0.01 -16.11 L0.80 -15.52 L-0.01 -16.11 L-0.32 -17.06 L-1.32 -17.06 L-2.13 -17.65 L-2.94 -17.06 L-2.63 -16.11 L-2.94 -17.06 L-2.63 -18.01 L-3.44 -18.60 L-4.25 -18.01 L-3.94 -17.06 L-2.94 -17.06 L-3.94 -17.06 L-4.75 -17.65 L-5.55 -17.06 L-5.25 -16.11 L-4.25 -16.11 L-3.94 -17.06 L-4.25 -16.11 L-5.05 -15.52 L-4.75 -14.57 L-3.75 -14.57 L-3.44 -15.52 L-4.25 -16.11 L-3.44 -15.52 L-3.13 -14.57 L-2.13 -14.57 L-1.82 -15.52 L-2.63 -16.11 L-3.44 -15.52 L-2.63 -16.11 L-1.63 -16.11 L-1.32 -17.06 L-1.63 -16.11 L-0.82 -15.52 L-0.01 -16.11 L-0.82 -15.52 L-1.82 -15.52 L-2.13 -14.57 L-2.94 -13.98 L-2.63 -13.03 L-1.63 -13.03 L-2.63 -13.03 L-3.44 -13.62 L-4.24 -13.03 L-3.94 -12.08 L-2.94 -12.08 L-2.63 -13.03 L-2.94 -12.08 L-3.74 -11.49 L-3.44 -10.54 L-2.44 -10.54 L-2.13 -11.49 L-2.94 -12.08 L-2.13 -11.49 L-1.82 -10.54 L-0.82 -10.54 L-0.51 -11.49 L-1.32 -12.08 L-2.13 -11.49 L-1.32 -12.08 L-0.32 -12.08 L-0.01 -13.03 L-0.82 -13.62 L-1.63 -13.03 L-1.32 -12.08 L-1.63 -13.03 L-1.32 -13.98 L-2.13 -14.57 L-1.32 -13.98 L-0.51 -14.57 L-0.82 -15.52 L-0.51 -14.57 L-0.82 -13.62 L-0.01 -13.03 L0.30 -12.08 L1.30 -12.08 L1.61 -13.03 L1.30 -12.08 L0.49 -11.49 L0.80 -10.54 L1.80 -10.54 L2.11 -11.49 L1.30 -12.08 L2.11 -11.49 L2.42 -10.54 L3.42 -10.54 L3.73 -11.49 L2.92 -12.08 L2.11 -11.49 L2.92 -12.08 L3.92 -12.08 L4.23 -13.03 L3.42 -13.62 L2.61 -13.03 L2.92 -12.08 L2.61 -13.03 L2.92 -13.98 L2.11 -14.57 L1.30 -13.98 L1.61 -13.03 L2.61 -13.03 L1.61 -13.03 L0.80 -13.62 L-0.01 -13.03 L0.80 -13.62 L0.49 -14.57 L-0.51 -14.57 L0.49 -14.57 L1.30 -13.98 L2.11 -14.57 L3.11 -14.57 L3.42 -15.52 L2.61 -16.11 L3.42 -15.52 L3.73 -14.57 L4.73 -14.57 L5.03 -15.52 L4.23 -16.11 L3.42 -15.52 L4.23 -16.11 L5.23 -16.11 L5.53 -17.06 L5.23 -16.11 L6.03 -15.52 L6.84 -16.11 L6.03 -15.52 L5.03 -15.52 L4.73 -14.57 L5.54 -13.99 L6.34 -14.57 L6.03 -15.53 L6.34 -14.57 L6.04 -13.62 L6.85 -13.04 L7.65 -13.62 L7.34 -14.57 L6.34 -14.57 L7.34 -14.57 L8.15 -13.99 L8.96 -14.58 L8.15 -13.99 L8.46 -13.04 L9.46 -13.04 L8.46 -13.04 L7.65 -13.62 L6.84 -13.04 L5.84 -13.04 L5.54 -12.08 L6.34 -11.50 L5.54 -12.08 L5.23 -13.04 L4.23 -13.04 L3.92 -12.08 L4.73 -11.50 L5.54 -12.08 L4.73 -11.50 L3.73 -11.50 L3.42 -10.54 L2.61 -9.96 L2.92 -9.01 L3.92 -9.01 L2.92 -9.01 L2.11 -9.59 L1.30 -9.00 L1.61 -8.05 L2.61 -8.05 L2.92 -9.01 L2.61 -8.05 L1.80 -7.47 L2.11 -6.52 L3.11 -6.52 L3.42 -7.47 L2.61 -8.05 L3.42 -7.47 L3.73 -6.52 L4.73 -6.52 L3.73 -6.52 L3.42 -5.56 L4.23 -4.98 L3.42 -5.56 L3.11 -6.52 L2.11 -6.52 L1.30 -7.10 L0.49 -6.52 L0.80 -5.56 L0.49 -6.52 L0.80 -7.47 L-0.01 -8.05 L-0.82 -7.47 L-0.51 -6.51 L0.49 -6.52 L-0.51 -6.51 L-1.32 -7.10 L-2.13 -6.51 L-1.82 -5.56 L-0.82 -5.56 L-0.51 -6.52 L-0.82 -5.56 L-1.63 -4.98 L-1.32 -4.03 L-0.32 -4.03 L-0.01 -4.98 L-0.82 -5.56 L-0.01 -4.98 L0.30 -4.03 L1.30 -4.03 L1.61 -4.98 L0.80 -5.56 L-0.01 -4.98 L0.80 -5.56 L1.80 -5.56 L2.11 -6.52 L1.80 -5.56 L2.61 -4.98 L3.42 -5.57 L2.61 -4.98 L1.61 -4.98 L1.30 -4.03 L0.49 -3.44 L0.80 -2.49 L1.80 -2.49 L0.80 -2.49 L-0.01 -3.07 L-0.82 -2.49 L-0.51 -1.53 L0.49 -1.54 L0.80 -2.49 L0.49 -1.54 L-0.32 -0.95 L-0.01 0.00 "/>
</g>
</svg>

