<svg viewBox="0 0 1000.000000 952.311340" xmlns="http://www.w3.org/2000/svg" version="1.1">
<!-- SEED 1426771840 -->
<rect width="1000.000000" height="952.311340" fill="#DDAADD" fill-opacity="1.000000"/>
<g transform="scale(11.680266,11.628565) translate(19.317883,77.093483) ">
<path stroke="#000000" stroke-opacity="1.000000" stroke-width="0.200000" fill="none" fill-opacity="1" d="M0.00 0.00 L1.00 0.00 L1.31 -0.95 L0.50 -1.54 L1.31 -0.95 L1.62 -0.00 L2.62 -0.00 L2.93 -0.95 L2.12 -1.54 L1.31 -0.95 L2.12 -1.54 L3.12 -1.54 L3.43 -2.49 L2.62 -3.08 L1.81 -2.49 L2.12 -1.54 L1.81 -2.49 L2.12 -3.44 L1.31 -4.03 L2.12 -3.44 L2.93 -4.03 L2.62 -4.98 L2.93 -4.03 L2.62 -3.08 L3.43 -2.49 L3.74 -1.54 L4.74 -1.54 L5.05 -2.49 L4.74 -1.54 L3.93 -0.95 L4.24 -0.00 L5.24 -0.00 L5.55 -0.95 L4.74 -1.54 L5.55 -0.95 L5.85 -0.00 L6.85 -0.00 L7.16 -0.95 L6.35 -1.54 L5.55 -0.95 L6.35 -1.54 L7.35 -1.54 L7.66 -2.49 L6.85 -3.08 L6.05 -2.49 L6.35 -1.54 L6.05 -2.49 L6.35 -3.44 L5.55 -4.03 L4.74 -3.44 L5.05 -2.49 L6.05 -2.49 L5.05 -2.49 L4.24 -3.08 L3.43 -2.49 L4.24 -3.08 L3.93 -4.03 L2.93 -4.03 L3.93 -4.03 L4.74 -3.44 L5.55 -4.03 L6.55 -4.03 L6.85 -4.98 L6.05 -5.57 L6.85 -4.98 L7.16 -4.03 L8.16 -4.03 L8.47 -4.98 L7.66 -5.57 L6.85 -4.98 L7.66 -5.57 L8.66 -5.57 L8.97 -6.52 L8.16 -7.11 L7.35 -6.52 L7.66 -5.57 L7.35 -6.52 L7.66 -7.47 L6.85 -8.06 L6.05 -7.47 L6.35 -6.52 L7.35 -6.52 L6.35 -6.52 L5.55 -7.11 L4.74 -6.52 L5.05 -5.57 L6.05 -5.57 L6.35 -6.52 L6.05 -5.57 L5.24 -4.98 L5.55 -4.03 L5.24 -4.98 L4.24 -4.98 L3.93 -4.03 L4.24 -4.98 L5.05 -5.57 L4.74 -6.52 L5.05 -7.47 L4.24 -8.06 L3.43 -7.47 L4.24 -8.06 L5.24 -8.06 L5.55 -9.01 L4.74 -9.60 L3.93 -9.01 L4.24 -8.06 L3.93 -9.01 L4.24 -9.96 L3.43 -10.55 L4.24 -9.96 L5.05 -10.55 L4.74 -11.50 L5.05 -10.55 L4.74 -9.60 L5.55 -9.01 L6.35 -9.60 L6.05 -10.55 L5.05 -10.55 L6.05 -10.55 L6.85 -9.96 L7.66 -10.55 L7.35 -11.50 L6.35 -11.50 L6.05 -10.55 L6.35 -11.50 L7.16 -12.09 L6.85 -13.04 L7.16 -12.09 L8.16 -12.09 L8.47 -13.04 L8.16 -12.09 L7.35 -11.50 L7.66 -10.55 L7.35 -9.60 L8.16 -9.01 L8.97 -9.60 L8.16 -9.01 L7.16 -9.01 L6.85 -8.06 L7.66 -7.47 L8.47 -8.06 L8.16 -9.01 L8.47 -8.06 L8.16 -7.11 L8.97 -6.52 L9.28 -5.57 L10.28 -5.57 L10.59 -6.52 L10.28 -5.57 L9.47 -4.98 L9.78 -4.03 L10.78 -4.03 L11.09 -4.98 L10.28 -5.57 L11.09 -4.98 L11.40 -4.03 L12.40 -4.03 L12.71 -4.98 L11.90 -5.57 L11.09 -4.98 L11.90 -5.57 L12.90 -5.57 L13.21 -6.52 L12.90 -5.57 L13.71 -4.98 L14.52 -5.57 L13.71 -4.98 L12.71 -4.98 L12.40 -4.03 L11.59 -3.44 L11.90 -2.49 L12.90 -2.49 L11.90 -2.49 L11.09 -3.08 L10.28 -2.49 L10.59 -1.54 L11.59 -1.54 L11.90 -2.49 L11.59 -1.54 L10.78 -0.95 L11.09 -0.00 L12.09 -0.00 L12.40 -0.95 L11.59 -1.54 L12.40 -0.95 L12.71 -0.00 L13.71 -0.00 L14.02 -0.95 L13.21 -1.54 L12.40 -0.95 L13.21 -1.54 L14.21 -1.54 L14.52 -2.49 L13.71 -3.08 L12.90 -2.49 L13.21 -1.54 L12.90 -2.49 L13.21 -3.44 L12.40 -4.03 L13.21 -3.44 L14.02 -4.03 L13.71 -4.98 L14.02 -4.03 L13.71 -3.08 L14.52 -2.49 L14.83 -1.54 L15.83 -1.54 L16.14 -2.49 L15.83 -1.54 L15.02 -0.95 L15.33 -0.00 L16.33 -0.00 L16.64 -0.95 L15.83 -1.54 L16.64 -0.95 L16.94 -0.00 L17.94 -0.00 L18.25 -0.95 L17.44 -1.54 L16.64 -0.95 L17.44 -1.54 L18.44 -1.54 L18.75 -2.49 L17.94 -3.08 L17.14 -2.49 L17.44 -1.54 L17.14 -2.49 L17.44 -3.44 L16.64 -4.03 L15.83 -3.44 L16.14 -2.49 L17.14 -2.49 L16.14 -2.49 L15.33 -3.08 L14.52 -2.49 L15.33 -3.08 L15.02 -4.03 L14.02 -4.03 L15.02 -4.03 L15.83 -3.44 L16.64 -4.03 L17.64 -4.03 L17.94 -4.98 L17.14 -5.57 L17.94 -4.98 L18.25 -4.03 L19.25 -4.03 L19.56 -4.98 L18.75 -5.57 L17.94 -4.98 L18.75 -5.57 L19.75 -5.57 L20.06 -6.52 L19.25 -7.11 L18.44 -6.52 L18.75 -5.57 L18.44 -6.52 L18.75 -7.47 L17.94 -8.06 L17.14 -7.47 L17.44 -6.52 L18.44 -6.52 L17.44 -6.52 L16.64 -7.11 L15.83 -6.52 L16.14 -5.57 L17.14 -5.57 L17.44 -6.52 L17.14 -5.57 L16.33 -4.98 L16.64 -4.03 L16.33 -4.98 L15.33 -4.98 L15.02 -4.03 L15.33 -4.98 L16.14 -5.57 L15.83 -6.52 L16.14 -7.47 L15.33 -8.06 L14.52 -7.47 L15.33 -8.06 L16.33 -8.06 L16.64 -9.01 L15.83 -9.60 L15.02 -9.01 L15.33 -8.06 L15.02 -9.01 L15.33 -9.96 L14.52 -10.55 L13.71 -9.96 L14.02 -9.01 L15.02 -9.01 L14.02 -9.01 L13.21 -9.60 L12.40 -9.01 L12.71 -8.06 L13.71 -8.06 L14.02 -9.01 L13.71 -8.06 L12.90 -7.47 L13.21 -6.52 L14.21 -6.52 L14.52 -7.47 L13.71 -8.06 L14.52 -7.47 L14.83 -6.52 L15.83 -6.52 L14.83 -6.52 L14.52 -5.57 L15.33 -4.98 L14.52 -5.57 L14.21 -6.52 L13.21 -6.52 L12.40 -7.11 L11.59 -6.52 L11.90 -5.57 L11.59 -6.52 L11.90 -7.47 L11.09 -8.06 L10.28 -7.47 L10.59 -6.52 L11.59 -6.52 L10.59 -6.52 L9.78 -7.11 L8.97 -6.52 L9.78 -7.11 L9.47 -8.06 L8.47 -8.06 L9.47 -8.06 L10.28 -7.47 L11.09 -8.06 L10.78 -9.01 L9.78 -9.01 L9.47 -8.06 L9.78 -9.01 L10.59 -9.60 L10.28 -10.55 L9.28 -10.55 L8.97 -9.60 L9.78 -9.01 L8.97 -9.60 L8.66 -10.55 L7.66 -10.55 L8.66 -10.55 L8.97 -11.50 L8.16 -12.09 L8.97 -11.50 L9.28 -10.55 L10.28 -10.55 L11.09 -9.96 L11.90 -10.55 L11.59 -11.50 L11.90 -10.55 L11.59 -9.60 L12.40 -9.01 L13.21 -9.60 L12.90 -10.55 L11.90 -10.55 L12.90 -10.55 L13.71 -9.96 L14.52 -10.55 L15.52 -10.55 L15.83 -11.50 L15.02 -12.09 L15.83 -11.50 L16.14 -10.55 L17.14 -10.55 L17.44 -11.50 L16.64 -12.09 L15.83 -11.50 L16.64 -12.09 L17.64 -12.09 L17.94 -13.04 L17.14 -13.63 L16.33 -13.04 L16.64 -12.09 L16.33 -13.04 L16.64 -13.99 L15.83 -14.58 L16.64 -13.99 L17.44 -14.58 L17.14 -15.53 L17.44 -14.58 L17.14 -13.63 L17.94 -13.04 L18.25 -12.09 L19.25 -12.09 L19.56 -13.04 L19.25 -12.09 L18.44 -11.50 L18.75 -10.55 L19.75 -10.55 L20.06 -11.50 L19.25 -12.09 L20.06 -11.50 L20.37 -10.55 L21.37 -10.55 L21.68 -11.50 L20.87 -12.09 L20.06 -11.50 L20.87 -12.09 L21.87 -12.09 L22.18 -13.04 L21.37 -13.63 L20.56 -13.04 L20.87 -12.09 L20.56 -13.04 L20.87 -13.99 L20.06 -14.58 L19.25 -13.99 L19.56 -13.04 L20.56 -13.04 L19.56 -13.04 L18.75 -13.63 L17.94 -13.04 L18.75 -13.63 L18.44 -14.58 L17.44 -14.58 L18.44 -14.58 L19.25 -13.99 L20.06 -14.58 L21.06 -14.58 L21.37 -15.53 L20.56 -16.11 L21.37 -15.53 L21.68 -14.58 L22.68 -14.58 L22.99 -15.53 L22.18 -16.11 L21.37 -15.53 L22.18 -16.11 L23.18 -16.11 L23.49 -17.07 L22.68 -17.65 L21.87 -17.07 L22.18 -16.11 L21.87 -17.07 L22.18 -18.02 L21.37 -18.60 L20.56 -18.02 L20.87 -17.07 L21.87 -17.07 L20.87 -17.07 L20.06 -17.65 L19.25 -17.07 L19.56 -16.11 L20.56 -16.11 L20.87 -17.07 L20.56 -16.11 L19.75 -15.53 L20.06 -14.58 L19.75 -15.53 L18.75 -15.53 L18.44 -14.58 L18.75 -15.53 L19.56 -16.11 L19.25 -17.07 L19.56 -18.02 L18.75 -18.60 L17.94 -18.02 L18.75 -18.60 L19.75 -18.60 L20.06 -19.56 L19.25 -20.14 L18.44 -19.56 L18.75 -18.60 L18.44 -19.56 L18.75 -20.51 L17.94 -21.09 L17.14 -20.51 L17.44 -19.56 L18.44 -19.56 L17.44 -19.56 L16.64 -20.14 L15.83 -19.56 L16.14 -18.60 L17.14 -18.60 L17.44 -19.56 L17.14 -18.60 L16.33 -18.02 L16.64 -17.07 L17.64 -17.07 L17.94 -18.02 L17.14 -18.60 L17.94 -18.02 L18.25 -17.07 L19.25 -17.07 L18.25 -17.07 L17.94 -16.11 L18.75 -15.53 L17.94 -16.11 L17.64 -17.07 L16.64 -17.07 L15.83 -17.65 L15.02 -17.07 L15.33 -16.11 L15.02 -17.07 L15.33 -18.02 L14.52 -18.60 L13.71 -18.02 L14.02 -17.07 L15.02 -17.07 L14.02 -17.07 L13.21 -17.65 L12.40 -17.07 L12.71 -16.11 L13.71 -16.11 L14.02 -17.07 L13.71 -16.11 L12.90 -15.53 L13.21 -14.58 L14.21 -14.58 L14.52 -15.53 L13.71 -16.11 L14.52 -15.53 L14.83 -14.58 L15.83 -14.58 L16.14 -15.53 L15.33 -16.11 L14.52 -15.53 L15.33 -16.11 L16.33 -16.11 L16.64 -17.07 L16.33 -16.11 L17.14 -15.53 L17.94 -16.11 L17.14 -15.53 L16.14 -15.53 L15.83 -14.58 L15.02 -13.99 L15.33 -13.04 L16.33 -13.04 L15.33 -13.04 L14.52 -13.63 L13.71 -13.04 L14.02 -12.09 L15.02 -12.09 L15.33 -13.04 L15.02 -12.09 L14.21 -11.50 L14.52 -10.55 L14.21 -11.50 L13.21 -11.50 L12.90 -10.55 L13.21 -11.50 L14.02 -12.09 L13.71 -13.04 L12.71 -13.04 L12.40 -12.09 L13.21 -11.50 L12.40 -12.09 L12.09 -13.04 L11.09 -13.04 L10.78 -12.09 L11.59 -11.50 L12.40 -12.09 L11.59 -11.50 L10.59 -11.50 L10.28 -10.55 L10.59 -11.50 L9.78 -12.09 L8.97 -11.50 L9.78 -12.09 L10.78 -12.09 L11.09 -13.04 L11.90 -13.63 L11.59 -14.58 L10.59 -14.58 L11.59 -14.58 L12.40 -13.99 L13.21 -14.58 L12.90 -15.53 L11.90 -15.53 L11.59 -14.58 L11.90 -15.53 L12.71 -16.11 L12.40 -17.07 L12.71 -18.02 L11.90 -18.60 L11.09 -18.02 L11.90 -18.60 L12.90 -18.60 L13.21 -19.56 L12.40 -20.14 L11.59 -19.56 L11.90 -18.60 L11.59 -19.56 L11.90 -20.51 L11.09 -21.09 L10.28 -20.51 L10.59 -19.56 L11.59 -19.56 L10.59 -19.56 L9.78 -20.14 L8.97 -19.56 L9.78 -20.14 L9.47 -21.09 L8.47 -21.09 L9.47 -21.09 L10.28 -20.51 L11.09 -21.09 L12.09 -21.09 L12.40 -22.05 L11.59 -22.63 L12.40 -22.05 L12.71 -21.09 L13.71 -21.09 L14.02 -22.05 L13.21 -22.63 L12.40 -22.05 L13.21 -22.63 L14.21 -22.63 L14.52 -23.58 L13.71 -24.17 L12.90 -23.58 L13.21 -22.63 L12.90 -23.58 L13.21 -24.54 L12.40 -25.12 L11.59 -24.54 L11.90 -23.58 L12.90 -23.58 L11.90 -23.58 L11.09 -24.17 L10.28 -23.58 L10.59 -22.63 L11.59 -22.63 L11.90 -23.58 L11.59 -22.63 L10.78 -22.05 L11.09 -21.09 L10.78 -22.05 L9.78 -22.05 L9.47 -21.09 L9.78 -22.05 L10.59 -22.63 L10.28 -23.58 L10.59 -24.54 L9.78 -25.12 L8.97 -24.54 L9.78 -25.12 L10.78 -25.12 L11.09 -26.07 L10.28 -26.66 L9.47 -26.07 L9.78 -25.12 L9.47 -26.07 L9.78 -27.03 L8.97 -27.61 L9.78 -27.03 L10.59 -27.61 L10.28 -28.56 L10.59 -27.61 L10.28 -26.66 L11.09 -26.07 L11.90 -26.66 L11.59 -27.61 L10.59 -27.61 L11.59 -27.61 L12.40 -27.03 L13.21 -27.61 L12.90 -28.56 L11.90 -28.56 L11.59 -27.61 L11.90 -28.56 L12.71 -29.15 L12.40 -30.10 L12.71 -29.15 L13.71 -29.15 L14.02 -30.10 L13.71 -29.15 L12.90 -28.56 L13.21 -27.61 L12.90 -26.66 L13.71 -26.07 L14.52 -26.66 L13.71 -26.07 L12.71 -26.07 L12.40 -25.12 L13.21 -24.54 L14.02 -25.12 L13.71 -26.07 L14.02 -25.12 L13.71 -24.17 L14.52 -23.58 L15.33 -24.17 L15.02 -25.12 L14.02 -25.12 L15.02 -25.12 L15.83 -24.54 L16.64 -25.12 L16.33 -26.07 L15.33 -26.07 L15.02 -25.12 L15.33 -26.07 L16.14 -26.66 L15.83 -27.61 L14.83 -27.61 L14.52 -26.66 L15.33 -26.07 L14.52 -26.66 L14.21 -27.61 L13.21 -27.61 L14.21 -27.61 L14.52 -28.56 L13.71 -29.15 L14.52 -28.56 L14.83 -27.61 L15.83 -27.61 L16.64 -27.03 L17.44 -27.61 L17.14 -28.56 L17.44 -27.61 L17.14 -26.66 L17.94 -26.07 L18.75 -26.66 L18.44 -27.61 L17.44 -27.61 L18.44 -27.61 L19.25 -27.03 L20.06 -27.61 L19.75 -28.56 L18.75 -28.56 L18.44 -27.61 L18.75 -28.56 L19.56 -29.15 L19.25 -30.10 L18.25 -30.10 L17.94 -29.15 L18.75 -28.56 L17.94 -29.15 L17.64 -30.10 L16.64 -30.10 L16.33 -29.15 L17.14 -28.56 L17.94 -29.15 L17.14 -28.56 L16.14 -28.56 L15.83 -27.61 L16.14 -28.56 L15.33 -29.15 L14.52 -28.56 L15.33 -29.15 L16.33 -29.15 L16.64 -30.10 L17.44 -30.69 L17.14 -31.64 L16.14 -31.64 L17.14 -31.64 L17.94 -31.05 L18.75 -31.64 L18.44 -32.59 L17.44 -32.59 L17.14 -31.64 L17.44 -32.59 L18.25 -33.18 L17.94 -34.13 L18.25 -33.18 L19.25 -33.18 L19.56 -34.13 L19.25 -33.18 L18.44 -32.59 L18.75 -31.64 L19.75 -31.64 L20.06 -32.59 L19.25 -33.18 L20.06 -32.59 L20.37 -31.64 L21.37 -31.64 L21.68 -32.59 L20.87 -33.18 L20.06 -32.59 L20.87 -33.18 L21.87 -33.18 L22.18 -34.13 L21.87 -33.18 L22.68 -32.59 L23.49 -33.18 L22.68 -32.59 L21.68 -32.59 L21.37 -31.64 L20.56 -31.05 L20.87 -30.10 L21.87 -30.10 L20.87 -30.10 L20.06 -30.69 L19.25 -30.10 L19.56 -29.15 L20.56 -29.15 L20.87 -30.10 L20.56 -29.15 L19.75 -28.56 L20.06 -27.61 L19.75 -26.66 L20.56 -26.07 L21.37 -26.66 L20.56 -26.07 L19.56 -26.07 L19.25 -25.12 L20.06 -24.54 L20.87 -25.12 L20.56 -26.07 L20.87 -25.12 L20.56 -24.17 L21.37 -23.58 L22.18 -24.17 L21.87 -25.12 L20.87 -25.12 L21.87 -25.12 L22.68 -24.54 L23.49 -25.12 L22.68 -24.54 L22.99 -23.58 L23.99 -23.58 L22.99 -23.58 L22.18 -24.17 L21.37 -23.58 L20.37 -23.58 L20.06 -22.63 L20.87 -22.05 L20.06 -22.63 L19.75 -23.58 L18.75 -23.58 L18.44 -22.63 L19.25 -22.05 L20.06 -22.63 L19.25 -22.05 L18.25 -22.05 L17.94 -21.09 L18.75 -20.51 L19.56 -21.09 L19.25 -22.05 L19.56 -21.09 L19.25 -20.14 L20.06 -19.56 L20.87 -20.14 L20.56 -21.09 L19.56 -21.09 L20.56 -21.09 L21.37 -20.51 L22.18 -21.09 L21.87 -22.05 L20.87 -22.05 L20.56 -21.09 L20.87 -22.05 L21.68 -22.63 L21.37 -23.58 L21.68 -22.63 L22.68 -22.63 L22.99 -23.58 L22.68 -22.63 L21.87 -22.05 L22.18 -21.09 L21.87 -20.14 L22.68 -19.56 L23.49 -20.14 L22.68 -19.56 L21.68 -19.56 L21.37 -18.60 L22.18 -18.02 L22.99 -18.60 L22.68 -19.56 L22.99 -18.60 L22.68 -17.65 L23.49 -17.07 L23.80 -16.11 L24.80 -16.11 L25.11 -17.07 L24.80 -16.11 L23.99 -15.53 L24.30 -14.58 L25.30 -14.58 L25.61 -15.53 L24.80 -16.11 L25.61 -15.53 L25.92 -14.58 L26.92 -14.58 L27.23 -15.53 L26.42 -16.11 L25.61 -15.53 L26.42 -16.11 L27.42 -16.11 L27.73 -17.07 L27.42 -16.11 L28.23 -15.53 L29.03 -16.11 L28.23 -15.53 L27.23 -15.53 L26.92 -14.58 L26.11 -13.99 L26.42 -13.04 L27.42 -13.04 L26.42 -13.04 L25.61 -13.63 L24.80 -13.04 L25.11 -12.09 L26.11 -12.09 L26.42 -13.04 L26.11 -12.09 L25.30 -11.50 L25.61 -10.55 L26.61 -10.55 L26.92 -11.50 L26.11 -12.09 L26.92 -11.50 L27.23 -10.55 L28.23 -10.55 L28.53 -11.50 L27.73 -12.09 L26.92 -11.50 L27.73 -12.09 L28.73 -12.09 L29.03 -13.04 L28.23 -13.63 L27.42 -13.04 L27.73 -12.09 L27.42 -13.04 L27.73 -13.99 L26.92 -14.58 L27.73 -13.99 L28.53 -14.58 L28.23 -15.53 L28.53 -14.58 L28.23 -13.63 L29.03 -13.04 L29.34 -12.09 L30.34 -12.09 L30.65 -13.04 L30.34 -12.09 L29.53 -11.50 L29.84 -10.55 L30.84 -10.55 L31.15 -11.50 L30.34 -12.09 L31.15 -11.50 L31.46 -10.55 L32.46 -10.55 L32.77 -11.50 L31.96 -12.09 L31.15 -11.50 L31.96 -12.09 L32.96 -12.09 L33.27 -13.04 L32.46 -13.63 L31.65 -13.04 L31.96 -12.09 L31.65 -13.04 L31.96 -13.99 L31.15 -14.58 L30.34 -13.99 L30.65 -13.04 L31.65 -13.04 L30.65 -13.04 L29.84 -13.63 L29.03 -13.04 L29.84 -13.63 L29.53 -14.58 L28.53 -14.58 L29.53 -14.58 L30.34 -13.99 L31.15 -14.58 L32.15 -14.58 L32.46 -15.53 L31.65 -16.11 L32.46 -15.53 L32.77 -14.58 L33.77 -14.58 L34.08 -15.53 L33.27 -16.11 L32.46 -15.53 L33.27 -16.11 L34.27 -16.11 L34.58 -17.07 L34.27 -16.11 L35.08 -15.53 L35.89 -16.11 L35.08 -15.53 L34.08 -15.53 L33.77 -14.58 L34.58 -13.99 L35.39 -14.58 L35.08 -15.53 L35.39 -14.58 L35.08 -13.63 L35.89 -13.04 L36.70 -13.63 L36.39 -14.58 L35.39 -14.58 L36.39 -14.58 L37.20 -13.99 L38.01 -14.58 L37.20 -13.99 L37.51 -13.04 L38.51 -13.04 L37.51 -13.04 L36.70 -13.63 L35.89 -13.04 L34.89 -13.04 L34.58 -12.09 L35.39 -11.50 L34.58 -12.09 L34.27 -13.04 L33.27 -13.04 L32.96 -12.09 L33.77 -11.50 L34.58 -12.09 L33.77 -11.50 L32.77 -11.50 L32.46 -10.55 L31.65 -9.96 L31.96 -9.01 L32.96 -9.01 L31.96 -9.01 L31.15 -9.60 L30.34 -9.01 L30.65 -8.06 L31.65 -8.06 L31.96 -9.01 L31.65 -8.06 L30.84 -7.47 L31.15 -6.52 L32.15 -6.52 L32.46 -7.47 L31.65 -8.06 L32.46 -7.47 L32.77 -6.52 L33.77 -6.52 L32.77 -6.52 L32.46 -5.57 L33.27 -4.98 L32.46 -5.57 L32.15 -6.52 L31.15 -6.52 L30.34 -7.11 L29.53 -6.52 L29.84 -5.57 L29.53 -6.52 L29.84 -7.47 L29.03 -8.06 L28.23 -7.47 L28.53 -6.52 L29.53 -6.52 L28.53 -6.52 L27.73 -7.11 L26.92 -6.52 L27.23 -5.57 L28.23 -5.57 L28.53 -6.52 L28.23 -5.57 L27.42 -4.98 L27.73 -4.03 L28.73 -4.03 L29.03 -4.98 L28.23 -5.57 L29.03 -4.98 L29.34 -4.03 L30.34 -4.03 L30.65 -4.98 L29.84 -5.57 L29.03 -4.98 L29.84 -5.57 L30.84 -5.57 L31.15 -6.52 L30.84 -5.57 L31.65 -4.98 L32.46 -5.57 L31.65 -4.98 L30.65 -4.98 L30.34 -4.03 L29.53 -3.44 L29.84 -2.49 L30.84 -2.49 L29.84 -2.49 L29.03 -3.08 L28.23 -2.49 L28.53 -1.54 L29.53 -1.54 L29.84 -2.49 L29.53 -1.54 L28.73 -0.95 L29.03 0.00 L30.03 0.00 L30.34 -0.95 L29.53 -1.54 L30.34 -0.95 L30.65 0.00 L31.65 0.00 L31.96 -0.95 L31.15 -1.54 L30.34 -0.95 L31.15 -1.54 L32.15 -1.54 L32.46 -2.49 L31.65 -3.08 L30.84 -2.49 L31.15 -1.54 L30.84 -2.49 L31.15 -3.44 L30.34 -4.03 L31.15 -3.44 L31.96 -4.03 L31.65 -4.98 L31.96 -4.03 L31.65 -3.08 L32.46 -2.49 L32.77 -1.54 L33.77 -1.54 L34.08 -2.49 L33.77 -1.54 L32.96 -0.95 L33.27 0.00 L34.27 0.00 L34.58 -0.95 L33.77 -1.54 L34.58 -0.95 L34.89 0.00 L35.89 0.00 L36.20 -0.95 L35.39 -1.54 L34.58 -0.95 L35.39 -1.54 L36.39 -1.54 L36.70 -2.49 L35.89 -3.08 L35.08 -2.49 L35.39 -1.54 L35.08 -2.49 L35.39 -3.44 L34.58 -4.03 L33.77 -3.44 L34.08 -2.49 L35.08 -2.49 L34.08 -2.49 L33.27 -3.08 L32.46 -2.49 L33.27 -3.08 L32.96 -4.03 L31.96 -4.03 L32.96 -4.03 L33.77 -3.44 L34.58 -4.03 L35.58 -4.03 L35.89 -4.98 L35.08 -5.57 L35.89 -4.98 L36.20 -4.03 L37.20 -4.03 L37.51 -4.98 L36.70 -5.57 L35.89 -4.98 L36.70 -5.57 L37.70 -5.57 L38.01 -6.52 L37.20 -7.11 L36.39 -6.52 L36.70 -5.57 L36.39 -6.52 L36.70 -7.47 L35.89 -8.06 L35.08 -7.47 L35.39 -6.52 L36.39 -6.52 L35.39 -6.52 L34.58 -7.11 L33.77 -6.52 L34.08 -5.57 L35.08 -5.57 L35.39 -6.52 L35.08 -5.57 L34.27 -4.98 L34.58 -4.03 L34.27 -4.98 L33.27 -4.98 L32.96 -4.03 L33.27 -4.98 L34.08 -5.57 L33.77 -6.52 L34.08 -7.47 L33.27 -8.06 L32.46 -7.47 L33.27 -8.06 L34.27 -8.06 L34.58 -9.01 L33.77 -9.60 L32.96 -9.01 L33.27 -8.06 L32.96 -9.01 L33.27 -9.96 L32.46 -10.55 L33.27 -9.96 L34.08 -10.55 L33.77 -11.50 L34.08 -10.55 L33.77 -9.60 L34.58 -9.01 L35.39 -9.60 L35.08 -10.55 L34.08 -10.55 L35.08 -10.55 L35.89 -9.96 L36.70 -10.55 L36.39 -11.50 L35.39 -11.50 L35.08 -10.55 L35.39 -11.50 L36.20 -12.09 L35.89 -13.04 L36.20 -12.09 L37.20 -12.09 L37.51 -13.04 L37.20 -12.09 L36.39 -11.50 L36.70 -10.55 L36.39 -9.60 L37.20 -9.01 L38.01 -9.60 L37.20 -9.01 L36.20 -9.01 L35.89 -8.06 L36.70 -7.47 L37.51 -8.06 L37.20 -9.01 L37.51 -8.06 L37.20 -7.11 L38.01 -6.52 L38.32 -5.57 L39.32 -5.57 L39.62 -6.52 L39.32 -5.57 L38.51 -4.98 L38.82 -4.03 L39.82 -4.03 L40.12 -4.98 L39.32 -5.57 L40.12 -4.98 L40.43 -4.03 L41.43 -4.03 L41.74 -4.98 L40.93 -5.57 L40.12 -4.98 L40.93 -5.57 L41.93 -5.57 L42.24 -6.52 L41.93 -5.57 L42.74 -4.98 L43.55 -5.57 L42.74 -4.98 L41.74 -4.98 L41.43 -4.03 L40.62 -3.44 L40.93 -2.49 L41.93 -2.49 L40.93 -2.49 L40.12 -3.08 L39.32 -2.49 L39.62 -1.54 L40.62 -1.54 L40.93 -2.49 L40.62 -1.54 L39.82 -0.95 L40.12 0.00 L41.12 0.00 L41.43 -0.95 L40.62 -1.54 L41.43 -0.95 L41.74 0.00 L42.74 0.00 L43.05 -0.95 L42.24 -1.54 L41.43 -0.95 L42.24 -1.54 L43.24 -1.54 L43.55 -2.49 L42.74 -3.08 L41.93 -2.49 L42.24 -1.54 L41.93 -2.49 L42.24 -3.44 L41.43 -4.03 L42.24 -3.44 L43.05 -4.03 L42.74 -4.98 L43.05 -4.03 L42.74 -3.08 L43.55 -2.49 L43.86 -1.54 L44.86 -1.54 L45.17 -2.49 L44.86 -1.54 L44.05 -0.95 L44.36 0.00 L45.36 0.00 L45.67 -0.95 L44.86 -1.54 L45.67 -0.95 L45.98 0.00 L46.98 0.00 L47.29 -0.95 L46.48 -1.54 L45.67 -0.95 L46.48 -1.54 L47.48 -1.54 L47.79 -2.49 L46.98 -3.08 L46.17 -2.49 L46.48 -1.54 L46.17 -2.49 L46.48 -3.44 L45.67 -4.03 L44.86 -3.44 L45.17 -2.49 L46.17 -2.49 L45.17 -2.49 L44.36 -3.08 L43.55 -2.49 L44.36 -3.08 L44.05 -4.03 L43.05 -4.03 L44.05 -4.03 L44.86 -3.44 L45.67 -4.03 L46.67 -4.03 L46.98 -4.98 L46.17 -5.57 L46.98 -4.98 L47.29 -4.03 L48.29 -4.03 L48.60 -4.98 L47.79 -5.57 L46.98 -4.98 L47.79 -5.57 L48.79 -5.57 L49.10 -6.52 L48.29 -7.11 L47.48 -6.52 L47.79 -5.57 L47.48 -6.52 L47.79 -7.47 L46.98 -8.06 L46.17 -7.47 L46.48 -6.52 L47.48 -6.52 L46.48 -6.52 L45.67 -7.11 L44.86 -6.52 L45.17 -5.57 L46.17 -5.57 L46.48 -6.52 L46.17 -5.57 L45.36 -4.98 L45.67 -4.03 L45.36 -4.98 L44.36 -4.98 L44.05 -4.03 L44.36 -4.98 L45.17 -5.57 L44.86 -6.52 L45.17 -7.47 L44.36 -8.06 L43.55 -7.47 L44.36 -8.06 L45.36 -8.06 L45.67 -9.01 L44.86 -9.60 L44.05 -9.01 L44.36 -8.06 L44.05 -9.01 L44.36 -9.96 L43.55 -10.55 L42.74 -9.96 L43.05 -9.01 L44.05 -9.01 L43.05 -9.01 L42.24 -9.60 L41.43 -9.01 L41.74 -8.06 L42.74 -8.06 L43.05 -9.01 L42.74 -8.06 L41.93 -7.47 L42.24 -6.52 L43.24 -6.52 L43.55 -7.47 L42.74 -8.06 L43.55 -7.47 L43.86 -6.52 L44.86 -6.52 L43.86 -6.52 L43.55 -5.57 L44.36 -4.98 L43.55 -5.57 L43.24 -6.52 L42.24 -6.52 L41.43 -7.11 L40.62 -6.52 L40.93 -5.57 L40.62 -6.52 L40.93 -7.47 L40.12 -8.06 L39.32 -7.47 L39.62 -6.52 L40.62 -6.52 L39.62 -6.52 L38.82 -7.11 L38.01 -6.52 L38.82 -7.11 L38.51 -8.06 L37.51 -8.06 L38.51 -8.06 L39.32 -7.47 L40.12 -8.06 L39.82 -9.01 L38.82 -9.01 L38.51 -8.06 L38.82 -9.01 L39.62 -9.60 L39.32 -10.55 L38.32 -10.55 L38.01 -9.60 L38.82 -9.01 L38.01 -9.60 L37.70 -10.55 L36.70 -10.55 L37.70 -10.55 L38.01 -11.50 L37.20 -12.09 L38.01 -11.50 L38.32 -10.55 L39.32 -10.55 L40.12 -9.96 L40.93 -10.55 L40.62 -11.50 L40.93 -10.55 L40.62 -9.60 L41.43 -9.01 L42.24 -9.60 L41.93 -10.55 L40.93 -10.55 L41.93 -10.55 L42.74 -9.96 L43.55 -10.55 L44.55 -10.55 L44.86 -11.50 L44.05 -12.09 L44.86 -11.50 L45.17 -10.55 L46.17 -10.55 L46.48 -11.50 L45.67 -12.09 L44.86 -11.50 L45.67 -12.09 L46.67 -12.09 L46.98 -13.04 L46.17 -13.63 L45.36 -13.04 L45.67 -12.09 L45.36 -13.04 L45.67 -13.99 L44.86 -14.58 L45.67 -13.99 L46.48 -14.58 L46.17 -15.53 L46.48 -14.58 L46.17 -13.63 L46.98 -13.04 L47.29 -12.09 L48.29 -12.09 L48.60 -13.04 L48.29 -12.09 L47.48 -11.50 L47.79 -10.55 L48.79 -10.55 L49.10 -11.50 L48.29 -12.09 L49.10 -11.50 L49.41 -10.55 L50.41 -10.55 L50.71 -11.50 L49.91 -12.09 L49.10 -11.50 L49.91 -12.09 L50.91 -12.09 L51.21 -13.04 L50.41 -13.63 L49.60 -13.04 L49.91 -12.09 L49.60 -13.04 L49.91 -13.99 L49.10 -14.58 L48.29 -13.99 L48.60 -13.04 L49.60 -13.04 L48.60 -13.04 L47.79 -13.63 L46.98 -13.04 L47.79 -13.63 L47.48 -14.58 L46.48 -14.58 L47.48 -14.58 L48.29 -13.99 L49.10 -14.58 L50.10 -14.58 L50.41 -15.53 L49.60 -16.11 L50.41 -15.53 L50.71 -14.58 L51.71 -14.58 L52.02 -15.53 L51.21 -16.11 L50.41 -15.53 L51.21 -16.11 L52.21 -16.11 L52.52 -17.07 L51.71 -17.65 L50.91 -17.07 L51.21 -16.11 L50.91 -17.07 L51.21 -18.02 L50.41 -18.60 L49.60 -18.02 L49.91 -17.07 L50.91 -17.07 L49.91 -17.07 L49.10 -17.65 L48.29 -17.07 L48.60 -16.11 L49.60 -16.11 L49.91 -17.07 L49.60 -16.11 L48.79 -15.53 L49.10 -14.58 L48.79 -15.53 L47.79 -15.53 L47.48 -14.58 L47.79 -15.53 L48.60 -16.11 L48.29 -17.07 L48.60 -18.02 L47.79 -18.60 L46.98 -18.02 L47.79 -18.60 L48.79 -18.60 L49.10 -19.56 L48.29 -20.14 L47.48 -19.56 L47.79 -18.60 L47.48 -19.56 L47.79 -20.51 L46.98 -21.09 L46.17 -20.51 L46.48 -19.56 L47.48 -19.56 L46.48 -19.56 L45.67 -20.14 L44.86 -19.56 L45.17 -18.60 L46.17 -18.60 L46.48 -19.56 L46.17 -18.60 L45.36 -18.02 L45.67 -17.07 L46.67 -17.07 L46.98 -18.02 L46.17 -18.60 L46.98 -18.02 L47.29 -17.07 L48.29 -17.07 L47.29 -17.07 L46.98 -16.11 L47.79 -15.53 L46.98 -16.11 L46.67 -17.07 L45.67 -17.07 L44.86 -17.65 L44.05 -17.07 L44.36 -16.11 L44.05 -17.07 L44.36 -18.02 L43.55 -18.60 L42.74 -18.02 L43.05 -17.07 L44.05 -17.07 L43.05 -17.07 L42.24 -17.65 L41.43 -17.07 L41.74 -16.11 L42.74 -16.11 L43.05 -17.07 L42.74 -16.11 L41.93 -15.53 L42.24 -14.58 L43.24 -14.58 L43.55 -15.53 L42.74 -16.11 L43.55 -15.53 L43.86 -14.58 L44.86 -14.58 L45.17 -15.53 L44.36 -16.11 L43.55 -15.53 L44.36 -16.11 L45.36 -16.11 L45.67 -17.07 L45.36 -16.11 L46.17 -15.53 L46.98 -16.11 L46.17 -15.53 L45.17 -15.53 L44.86 -14.58 L44.05 -13.99 L44.36 -13.04 L45.36 -13.04 L44.36 -13.04 L43.55 -13.63 L42.74 -13.04 L43.05 -12.09 L44.05 -12.09 L44.36 -13.04 L44.05 -12.09 L43.24 -11.50 L43.55 -10.55 L43.24 -11.50 L42.24 -11.50 L41.93 -10.55 L42.24 -11.50 L43.05 -12.09 L42.74 -13.04 L41.74 -13.04 L41.43 -12.09 L42.24 -11.50 L41.43 -12.09 L41.12 -13.04 L40.12 -13.04 L39.82 -12.09 L40.62 -11.50 L41.43 -12.09 L40.62 -11.50 L39.62 -11.50 L39.32 -10.55 L39.62 -11.50 L38.82 -12.09 L38.01 -11.50 L38.82 -12.09 L39.82 -12.09 L40.12 -13.04 L40.93 -13.63 L40.62 -14.58 L39.62 -14.58 L40.62 -14.58 L41.43 -13.99 L42.24 -14.58 L41.93 -15.53 L40.93 -15.53 L40.62 -14.58 L40.93 -15.53 L41.74 -16.11 L41.43 -17.07 L41.74 -18.02 L40.93 -18.60 L40.12 -18.02 L40.93 -18.60 L41.93 -18.60 L42.24 -19.56 L41.43 -20.14 L40.62 -19.56 L40.93 -18.60 L40.62 -19.56 L40.93 -20.51 L40.12 -21.09 L39.32 -20.51 L39.62 -19.56 L40.62 -19.56 L39.62 -19.56 L38.82 -20.14 L38.01 -19.56 L38.82 -20.14 L38.51 -21.09 L37.51 -21.09 L38.51 -21.09 L39.32 -20.51 L40.12 -21.09 L41.12 -21.09 L41.43 -22.05 L40.62 -22.63 L41.43 -22.05 L41.74 -21.09 L42.74 -21.09 L43.05 -22.05 L42.24 -22.63 L41.43 -22.05 L42.24 -22.63 L43.24 -22.63 L43.55 -23.58 L42.74 -24.17 L41.93 -23.58 L42.24 -22.63 L41.93 -23.58 L42.24 -24.54 L41.43 -25.12 L40.62 -24.54 L40.93 -23.58 L41.93 -23.58 L40.93 -23.58 L40.12 -24.17 L39.32 -23.58 L39.62 -22.63 L40.62 -22.63 L40.93 -23.58 L40.62 -22.63 L39.82 -22.05 L40.12 -21.09 L39.82 -22.05 L38.82 -22.05 L38.51 -21.09 L38.82 -22.05 L39.62 -22.63 L39.32 -23.58 L39.62 -24.54 L38.82 -25.12 L38.01 -24.54 L38.82 -25.12 L39.82 -25.12 L40.12 -26.07 L39.32 -26.66 L38.51 -26.07 L38.82 -25.12 L38.51 -26.07 L38.82 -27.03 L38.01 -27.61 L37.20 -27.03 L37.51 -26.07 L38.51 -26.07 L37.51 -26.07 L36.70 -26.66 L35.89 -26.07 L36.20 -25.12 L37.20 -25.12 L37.51 -26.07 L37.20 -25.12 L36.39 -24.54 L36.70 -23.58 L37.70 -23.58 L38.01 -24.54 L37.20 -25.12 L38.01 -24.54 L38.32 -23.58 L39.32 -23.58 L38.32 -23.58 L38.01 -22.63 L38.82 -22.05 L38.01 -22.63 L37.70 -23.58 L36.70 -23.58 L35.89 -24.17 L35.08 -23.58 L35.39 -22.63 L35.08 -23.58 L35.39 -24.54 L34.58 -25.12 L33.77 -24.54 L34.08 -23.58 L35.08 -23.58 L34.08 -23.58 L33.27 -24.17 L32.46 -23.58 L32.77 -22.63 L33.77 -22.63 L34.08 -23.58 L33.77 -22.63 L32.96 -22.05 L33.27 -21.09 L34.27 -21.09 L34.58 -22.05 L33.77 -22.63 L34.58 -22.05 L34.89 -21.09 L35.89 -21.09 L36.20 -22.05 L35.39 -22.63 L34.58 -22.05 L35.39 -22.63 L36.39 -22.63 L36.70 -23.58 L36.39 -22.63 L37.20 -22.05 L38.01 -22.63 L37.20 -22.05 L36.20 -22.05 L35.89 -21.09 L35.08 -20.51 L35.39 -19.56 L36.39 -19.56 L35.39 -19.56 L34.58 -20.14 L33.77 -19.56 L34.08 -18.60 L35.08 -18.60 L35.39 -19.56 L35.08 -18.60 L34.27 -18.02 L34.58 -17.07 L35.58 -17.07 L35.89 -18.02 L35.08 -18.60 L35.89 -18.02 L36.20 -17.07 L37.20 -17.07 L37.51 -18.02 L36.70 -18.60 L35.89 -18.02 L36.70 -18.60 L37.70 -18.60 L38.01 -19.56 L37.20 -20.14 L36.39 -19.56 L36.70 -18.60 L36.39 -19.56 L36.70 -20.51 L35.89 -21.09 L36.70 -20.51 L37.51 -21.09 L37.20 -22.05 L37.51 -21.09 L37.20 -20.14 L38.01 -19.56 L38.32 -18.60 L39.32 -18.60 L39.62 -19.56 L39.32 -18.60 L38.51 -18.02 L38.82 -17.07 L39.82 -17.07 L40.12 -18.02 L39.32 -18.60 L40.12 -18.02 L40.43 -17.07 L41.43 -17.07 L40.43 -17.07 L40.12 -16.11 L40.93 -15.53 L40.12 -16.11 L39.82 -17.07 L38.82 -17.07 L38.51 -16.11 L39.32 -15.53 L40.12 -16.11 L39.32 -15.53 L38.32 -15.53 L38.01 -14.58 L38.82 -13.99 L39.62 -14.58 L39.32 -15.53 L39.62 -14.58 L39.32 -13.63 L40.12 -13.04 L39.32 -13.63 L38.51 -13.04 L38.82 -12.09 L38.51 -13.04 L38.82 -13.99 L38.01 -14.58 L37.70 -15.53 L36.70 -15.53 L36.39 -14.58 L36.70 -15.53 L37.51 -16.11 L37.20 -17.07 L36.20 -17.07 L35.89 -16.11 L36.70 -15.53 L35.89 -16.11 L35.58 -17.07 L34.58 -17.07 L33.77 -17.65 L32.96 -17.07 L33.27 -16.11 L32.96 -17.07 L33.27 -18.02 L32.46 -18.60 L31.65 -18.02 L31.96 -17.07 L32.96 -17.07 L31.96 -17.07 L31.15 -17.65 L30.34 -17.07 L30.65 -16.11 L31.65 -16.11 L31.96 -17.07 L31.65 -16.11 L30.84 -15.53 L31.15 -14.58 L30.84 -15.53 L29.84 -15.53 L29.53 -14.58 L29.84 -15.53 L30.65 -16.11 L30.34 -17.07 L30.65 -18.02 L29.84 -18.60 L29.03 -18.02 L29.84 -18.60 L30.84 -18.60 L31.15 -19.56 L30.34 -20.14 L29.53 -19.56 L29.84 -18.60 L29.53 -19.56 L29.84 -20.51 L29.03 -21.09 L28.23 -20.51 L28.53 -19.56 L29.53 -19.56 L28.53 -19.56 L27.73 -20.14 L26.92 -19.56 L27.23 -18.60 L28.23 -18.60 L28.53 -19.56 L28.23 -18.60 L27.42 -18.02 L27.73 -17.07 L28.73 -17.07 L29.03 -18.02 L28.23 -18.60 L29.03 -18.02 L29.34 -17.07 L30.34 -17.07 L29.34 -17.07 L29.03 -16.11 L29.84 -15.53 L29.03 -16.11 L28.73 -17.07 L27.73 -17.07 L26.92 -17.65 L26.11 -17.07 L26.42 -16.11 L26.11 -17.07 L26.42 -18.02 L25.61 -18.60 L24.80 -18.02 L25.11 -17.07 L26.11 -17.07 L25.11 -17.07 L24.30 -17.65 L23.49 -17.07 L24.30 -17.65 L23.99 -18.60 L22.99 -18.60 L23.99 -18.60 L24.80 -18.02 L25.61 -18.60 L25.30 -19.56 L24.30 -19.56 L23.99 -18.60 L24.30 -19.56 L25.11 -20.14 L24.80 -21.09 L23.80 -21.09 L23.49 -20.14 L24.30 -19.56 L23.49 -20.14 L23.18 -21.09 L22.18 -21.09 L23.18 -21.09 L23.49 -22.05 L22.68 -22.63 L23.49 -22.05 L23.80 -21.09 L24.80 -21.09 L25.61 -20.51 L26.42 -21.09 L26.11 -22.05 L26.42 -21.09 L26.11 -20.14 L26.92 -19.56 L27.73 -20.14 L27.42 -21.09 L26.42 -21.09 L27.42 -21.09 L28.23 -20.51 L29.03 -21.09 L28.73 -22.05 L27.73 -22.05 L27.42 -21.09 L27.73 -22.05 L28.53 -22.63 L28.23 -23.58 L27.23 -23.58 L26.92 -22.63 L27.73 -22.05 L26.92 -22.63 L26.61 -23.58 L25.61 -23.58 L25.30 -22.63 L26.11 -22.05 L26.92 -22.63 L26.11 -22.05 L25.11 -22.05 L24.80 -21.09 L25.11 -22.05 L24.30 -22.63 L23.49 -22.05 L24.30 -22.63 L25.30 -22.63 L25.61 -23.58 L26.42 -24.17 L26.11 -25.12 L25.11 -25.12 L26.11 -25.12 L26.92 -24.54 L27.73 -25.12 L27.42 -26.07 L26.42 -26.07 L26.11 -25.12 L26.42 -26.07 L27.23 -26.66 L26.92 -27.61 L25.92 -27.61 L25.61 -26.66 L26.42 -26.07 L25.61 -26.66 L25.30 -27.61 L24.30 -27.61 L23.99 -26.66 L24.80 -26.07 L25.61 -26.66 L24.80 -26.07 L23.80 -26.07 L23.49 -25.12 L24.30 -24.54 L25.11 -25.12 L24.80 -26.07 L25.11 -25.12 L24.80 -24.17 L25.61 -23.58 L24.80 -24.17 L23.99 -23.58 L24.30 -22.63 L23.99 -23.58 L24.30 -24.54 L23.49 -25.12 L23.18 -26.07 L22.18 -26.07 L21.87 -25.12 L22.18 -26.07 L22.99 -26.66 L22.68 -27.61 L21.68 -27.61 L21.37 -26.66 L22.18 -26.07 L21.37 -26.66 L21.06 -27.61 L20.06 -27.61 L21.06 -27.61 L21.37 -28.56 L20.56 -29.15 L21.37 -28.56 L21.68 -27.61 L22.68 -27.61 L22.99 -28.56 L22.18 -29.15 L21.37 -28.56 L22.18 -29.15 L23.18 -29.15 L23.49 -30.10 L22.68 -30.69 L21.87 -30.10 L22.18 -29.15 L21.87 -30.10 L22.18 -31.05 L21.37 -31.64 L22.18 -31.05 L22.99 -31.64 L22.68 -32.59 L22.99 -31.64 L22.68 -30.69 L23.49 -30.10 L23.80 -29.15 L24.80 -29.15 L25.11 -30.10 L24.80 -29.15 L23.99 -28.56 L24.30 -27.61 L25.30 -27.61 L25.61 -28.56 L24.80 -29.15 L25.61 -28.56 L25.92 -27.61 L26.92 -27.61 L27.73 -27.03 L28.53 -27.61 L28.23 -28.56 L28.53 -27.61 L28.23 -26.66 L29.03 -26.07 L29.84 -26.66 L29.53 -27.61 L28.53 -27.61 L29.53 -27.61 L30.34 -27.03 L31.15 -27.61 L30.84 -28.56 L29.84 -28.56 L29.53 -27.61 L29.84 -28.56 L30.65 -29.15 L30.34 -30.10 L30.65 -29.15 L31.65 -29.15 L31.96 -30.10 L31.65 -29.15 L30.84 -28.56 L31.15 -27.61 L30.84 -26.66 L31.65 -26.07 L32.46 -26.66 L31.65 -26.07 L30.65 -26.07 L30.34 -25.12 L31.15 -24.54 L31.96 -25.12 L31.65 -26.07 L31.96 -25.12 L31.65 -24.17 L32.46 -23.58 L33.27 -24.17 L32.96 -25.12 L31.96 -25.12 L32.96 -25.12 L33.77 -24.54 L34.58 -25.12 L34.27 -26.07 L33.27 -26.07 L32.96 -25.12 L33.27 -26.07 L34.08 -26.66 L33.77 -27.61 L32.77 -27.61 L32.46 -26.66 L33.27 -26.07 L32.46 -26.66 L32.15 -27.61 L31.15 -27.61 L32.15 -27.61 L32.46 -28.56 L31.65 -29.15 L32.46 -28.56 L32.77 -27.61 L33.77 -27.61 L34.58 -27.03 L35.39 -27.61 L35.08 -28.56 L35.39 -27.61 L35.08 -26.66 L35.89 -26.07 L36.70 -26.66 L36.39 -27.61 L35.39 -27.61 L36.39 -27.61 L37.20 -27.03 L38.01 -27.61 L39.01 -27.61 L39.32 -28.56 L38.51 -29.15 L39.32 -28.56 L39.62 -27.61 L40.62 -27.61 L40.93 -28.56 L40.12 -29.15 L39.32 -28.56 L40.12 -29.15 L41.12 -29.15 L41.43 -30.10 L40.62 -30.69 L39.82 -30.10 L40.12 -29.15 L39.82 -30.10 L40.12 -31.05 L39.32 -31.64 L40.12 -31.05 L40.93 -31.64 L40.62 -32.59 L40.93 -31.64 L40.62 -30.69 L41.43 -30.10 L41.74 -29.15 L42.74 -29.15 L43.05 -30.10 L42.74 -29.15 L41.93 -28.56 L42.24 -27.61 L43.24 -27.61 L43.55 -28.56 L42.74 -29.15 L43.55 -28.56 L43.86 -27.61 L44.86 -27.61 L45.17 -28.56 L44.36 -29.15 L43.55 -28.56 L44.36 -29.15 L45.36 -29.15 L45.67 -30.10 L44.86 -30.69 L44.05 -30.10 L44.36 -29.15 L44.05 -30.10 L44.36 -31.05 L43.55 -31.64 L42.74 -31.05 L43.05 -30.10 L44.05 -30.10 L43.05 -30.10 L42.24 -30.69 L41.43 -30.10 L42.24 -30.69 L41.93 -31.64 L40.93 -31.64 L41.93 -31.64 L42.74 -31.05 L43.55 -31.64 L44.55 -31.64 L44.86 -32.59 L44.05 -33.18 L44.86 -32.59 L45.17 -31.64 L46.17 -31.64 L46.48 -32.59 L45.67 -33.18 L44.86 -32.59 L45.67 -33.18 L46.67 -33.18 L46.98 -34.13 L46.17 -34.72 L45.36 -34.13 L45.67 -33.18 L45.36 -34.13 L45.67 -35.08 L44.86 -35.67 L44.05 -35.08 L44.36 -34.13 L45.36 -34.13 L44.36 -34.13 L43.55 -34.72 L42.74 -34.13 L43.05 -33.18 L44.05 -33.18 L44.36 -34.13 L44.05 -33.18 L43.24 -32.59 L43.55 -31.64 L43.24 -32.59 L42.24 -32.59 L41.93 -31.64 L42.24 -32.59 L43.05 -33.18 L42.74 -34.13 L43.05 -35.08 L42.24 -35.67 L41.43 -35.08 L42.24 -35.67 L43.24 -35.67 L43.55 -36.62 L42.74 -37.21 L41.93 -36.62 L42.24 -35.67 L41.93 -36.62 L42.24 -37.57 L41.43 -38.16 L42.24 -37.57 L43.05 -38.16 L42.74 -39.11 L43.05 -38.16 L42.74 -37.21 L43.55 -36.62 L44.36 -37.21 L44.05 -38.16 L43.05 -38.16 L44.05 -38.16 L44.86 -37.57 L45.67 -38.16 L45.36 -39.11 L44.36 -39.11 L44.05 -38.16 L44.36 -39.11 L45.17 -39.70 L44.86 -40.65 L45.17 -39.70 L46.17 -39.70 L46.48 -40.65 L46.17 -39.70 L45.36 -39.11 L45.67 -38.16 L45.36 -37.21 L46.17 -36.62 L46.98 -37.21 L46.17 -36.62 L45.17 -36.62 L44.86 -35.67 L45.67 -35.08 L46.48 -35.67 L46.17 -36.62 L46.48 -35.67 L46.17 -34.72 L46.98 -34.13 L47.29 -33.18 L48.29 -33.18 L48.60 -34.13 L48.29 -33.18 L47.48 -32.59 L47.79 -31.64 L48.79 -31.64 L49.10 -32.59 L48.29 -33.18 L49.10 -32.59 L49.41 -31.64 L50.41 -31.64 L50.71 -32.59 L49.91 -33.18 L49.10 -32.59 L49.91 -33.18 L50.91 -33.18 L51.21 -34.13 L50.91 -33.18 L51.71 -32.59 L52.52 -33.18 L51.71 -32.59 L50.71 -32.59 L50.41 -31.64 L49.60 -31.05 L49.91 -30.10 L50.91 -30.10 L49.91 -30.10 L49.10 -30.69 L48.29 -30.10 L48.60 -29.15 L49.60 -29.15 L49.91 -30.10 L49.60 -29.15 L48.79 -28.56 L49.10 -27.61 L50.10 -27.61 L50.41 -28.56 L49.60 -29.15 L50.41 -28.56 L50.71 -27.61 L51.71 -27.61 L52.02 -28.56 L51.21 -29.15 L50.41 -28.56 L51.21 -29.15 L52.21 -29.15 L52.52 -30.10 L51.71 -30.69 L50.91 -30.10 L51.21 -29.15 L50.91 -30.10 L51.21 -31.05 L50.41 -31.64 L51.21 -31.05 L52.02 -31.64 L51.71 -32.59 L52.02 -31.64 L51.71 -30.69 L52.52 -30.10 L52.83 -29.15 L53.83 -29.15 L54.14 -30.10 L53.83 -29.15 L53.02 -28.56 L53.33 -27.61 L54.33 -27.61 L54.64 -28.56 L53.83 -29.15 L54.64 -28.56 L54.95 -27.61 L55.95 -27.61 L56.26 -28.56 L55.45 -29.15 L54.64 -28.56 L55.45 -29.15 L56.45 -29.15 L56.76 -30.10 L55.95 -30.69 L55.14 -30.10 L55.45 -29.15 L55.14 -30.10 L55.45 -31.05 L54.64 -31.64 L53.83 -31.05 L54.14 -30.10 L55.14 -30.10 L54.14 -30.10 L53.33 -30.69 L52.52 -30.10 L53.33 -30.69 L53.02 -31.64 L52.02 -31.64 L53.02 -31.64 L53.83 -31.05 L54.64 -31.64 L55.64 -31.64 L55.95 -32.59 L55.14 -33.18 L55.95 -32.59 L56.26 -31.64 L57.26 -31.64 L57.57 -32.59 L56.76 -33.18 L55.95 -32.59 L56.76 -33.18 L57.76 -33.18 L58.07 -34.13 L57.26 -34.72 L56.45 -34.13 L56.76 -33.18 L56.45 -34.13 L56.76 -35.08 L55.95 -35.67 L55.14 -35.08 L55.45 -34.13 L56.45 -34.13 L55.45 -34.13 L54.64 -34.72 L53.83 -34.13 L54.14 -33.18 L55.14 -33.18 L55.45 -34.13 L55.14 -33.18 L54.33 -32.59 L54.64 -31.64 L54.33 -32.59 L53.33 -32.59 L53.02 -31.64 L53.33 -32.59 L54.14 -33.18 L53.83 -34.13 L54.14 -35.08 L53.33 -35.67 L52.52 -35.08 L53.33 -35.67 L54.33 -35.67 L54.64 -36.62 L53.83 -37.21 L53.02 -36.62 L53.33 -35.67 L53.02 -36.62 L53.33 -37.57 L52.52 -38.16 L51.71 -37.57 L52.02 -36.62 L53.02 -36.62 L52.02 -36.62 L51.21 -37.21 L50.41 -36.62 L50.71 -35.67 L51.71 -35.67 L52.02 -36.62 L51.71 -35.67 L50.91 -35.08 L51.21 -34.13 L52.21 -34.13 L52.52 -35.08 L51.71 -35.67 L52.52 -35.08 L52.83 -34.13 L53.83 -34.13 L52.83 -34.13 L52.52 -33.18 L53.33 -32.59 L52.52 -33.18 L52.21 -34.13 L51.21 -34.13 L50.41 -34.72 L49.60 -34.13 L49.91 -33.18 L49.60 -34.13 L49.91 -35.08 L49.10 -35.67 L48.29 -35.08 L48.60 -34.13 L49.60 -34.13 L48.60 -34.13 L47.79 -34.72 L46.98 -34.13 L47.79 -34.72 L47.48 -35.67 L46.48 -35.67 L47.48 -35.67 L48.29 -35.08 L49.10 -35.67 L48.79 -36.62 L47.79 -36.62 L47.48 -35.67 L47.79 -36.62 L48.60 -37.21 L48.29 -38.16 L47.29 -38.16 L46.98 -37.21 L47.79 -36.62 L46.98 -37.21 L46.67 -38.16 L45.67 -38.16 L46.67 -38.16 L46.98 -39.11 L46.17 -39.70 L46.98 -39.11 L47.29 -38.16 L48.29 -38.16 L49.10 -37.57 L49.91 -38.16 L49.60 -39.11 L49.91 -38.16 L49.60 -37.21 L50.41 -36.62 L51.21 -37.21 L50.91 -38.16 L49.91 -38.16 L50.91 -38.16 L51.71 -37.57 L52.52 -38.16 L53.52 -38.16 L53.83 -39.11 L53.02 -39.70 L53.83 -39.11 L54.14 -38.16 L55.14 -38.16 L55.45 -39.11 L54.64 -39.70 L53.83 -39.11 L54.64 -39.70 L55.64 -39.70 L55.95 -40.65 L55.14 -41.24 L54.33 -40.65 L54.64 -39.70 L54.33 -40.65 L54.64 -41.60 L53.83 -42.19 L54.64 -41.60 L55.45 -42.19 L55.14 -43.14 L55.45 -42.19 L55.14 -41.24 L55.95 -40.65 L56.26 -39.70 L57.26 -39.70 L57.57 -40.65 L57.26 -39.70 L56.45 -39.11 L56.76 -38.16 L57.76 -38.16 L58.07 -39.11 L57.26 -39.70 L58.07 -39.11 L58.38 -38.16 L59.38 -38.16 L59.69 -39.11 L58.88 -39.70 L58.07 -39.11 L58.88 -39.70 L59.88 -39.70 L60.19 -40.65 L59.38 -41.24 L58.57 -40.65 L58.88 -39.70 L58.57 -40.65 L58.88 -41.60 L58.07 -42.19 L57.26 -41.60 L57.57 -40.65 L58.57 -40.65 L57.57 -40.65 L56.76 -41.24 L55.95 -40.65 L56.76 -41.24 L56.45 -42.19 L55.45 -42.19 L56.45 -42.19 L57.26 -41.60 L58.07 -42.19 L59.07 -42.19 L59.38 -43.14 L58.57 -43.73 L59.38 -43.14 L59.69 -42.19 L60.69 -42.19 L61.00 -43.14 L60.19 -43.73 L59.38 -43.14 L60.19 -43.73 L61.19 -43.73 L61.50 -44.68 L60.69 -45.27 L59.88 -44.68 L60.19 -43.73 L59.88 -44.68 L60.19 -45.63 L59.38 -46.22 L58.57 -45.63 L58.88 -44.68 L59.88 -44.68 L58.88 -44.68 L58.07 -45.27 L57.26 -44.68 L57.57 -43.73 L58.57 -43.73 L58.88 -44.68 L58.57 -43.73 L57.76 -43.14 L58.07 -42.19 L57.76 -43.14 L56.76 -43.14 L56.45 -42.19 L56.76 -43.14 L57.57 -43.73 L57.26 -44.68 L57.57 -45.63 L56.76 -46.22 L55.95 -45.63 L56.76 -46.22 L57.76 -46.22 L58.07 -47.17 L57.26 -47.76 L56.45 -47.17 L56.76 -46.22 L56.45 -47.17 L56.76 -48.12 L55.95 -48.71 L55.14 -48.12 L55.45 -47.17 L56.45 -47.17 L55.45 -47.17 L54.64 -47.76 L53.83 -47.17 L54.14 -46.22 L55.14 -46.22 L55.45 -47.17 L55.14 -46.22 L54.33 -45.63 L54.64 -44.68 L55.64 -44.68 L55.95 -45.63 L55.14 -46.22 L55.95 -45.63 L56.26 -44.68 L57.26 -44.68 L56.26 -44.68 L55.95 -43.73 L56.76 -43.14 L55.95 -43.73 L55.64 -44.68 L54.64 -44.68 L53.83 -45.27 L53.02 -44.68 L53.33 -43.73 L53.02 -44.68 L53.33 -45.63 L52.52 -46.22 L51.71 -45.63 L52.02 -44.68 L53.02 -44.68 L52.02 -44.68 L51.21 -45.27 L50.41 -44.68 L50.71 -43.73 L51.71 -43.73 L52.02 -44.68 L51.71 -43.73 L50.91 -43.14 L51.21 -42.19 L52.21 -42.19 L52.52 -43.14 L51.71 -43.73 L52.52 -43.14 L52.83 -42.19 L53.83 -42.19 L54.14 -43.14 L53.33 -43.73 L52.52 -43.14 L53.33 -43.73 L54.33 -43.73 L54.64 -44.68 L54.33 -43.73 L55.14 -43.14 L55.95 -43.73 L55.14 -43.14 L54.14 -43.14 L53.83 -42.19 L53.02 -41.60 L53.33 -40.65 L54.33 -40.65 L53.33 -40.65 L52.52 -41.24 L51.71 -40.65 L52.02 -39.70 L53.02 -39.70 L53.33 -40.65 L53.02 -39.70 L52.21 -39.11 L52.52 -38.16 L52.21 -39.11 L51.21 -39.11 L50.91 -38.16 L51.21 -39.11 L52.02 -39.70 L51.71 -40.65 L50.71 -40.65 L50.41 -39.70 L51.21 -39.11 L50.41 -39.70 L50.10 -40.65 L49.10 -40.65 L48.79 -39.70 L49.60 -39.11 L50.41 -39.70 L49.60 -39.11 L48.60 -39.11 L48.29 -38.16 L48.60 -39.11 L47.79 -39.70 L46.98 -39.11 L47.79 -39.70 L48.79 -39.70 L49.10 -40.65 L49.91 -41.24 L49.60 -42.19 L48.60 -42.19 L49.60 -42.19 L50.41 -41.60 L51.21 -42.19 L50.91 -43.14 L49.91 -43.14 L49.60 -42.19 L49.91 -43.14 L50.71 -43.73 L50.41 -44.68 L50.71 -45.63 L49.91 -46.22 L49.10 -45.63 L49.91 -46.22 L50.91 -46.22 L51.21 -47.17 L50.41 -47.76 L49.60 -47.17 L49.91 -46.22 L49.60 -47.17 L49.91 -48.12 L49.10 -48.71 L48.29 -48.12 L48.60 -47.17 L49.60 -47.17 L48.60 -47.17 L47.79 -47.76 L46.98 -47.17 L47.79 -47.76 L47.48 -48.71 L46.48 -48.71 L47.48 -48.71 L48.29 -48.12 L49.10 -48.71 L50.10 -48.71 L50.41 -49.66 L49.60 -50.25 L50.41 -49.66 L50.71 -48.71 L51.71 -48.71 L52.02 -49.66 L51.21 -50.25 L50.41 -49.66 L51.21 -50.25 L52.21 -50.25 L52.52 -51.20 L51.71 -51.79 L50.91 -51.20 L51.21 -50.25 L50.91 -51.20 L51.21 -52.15 L50.41 -52.74 L49.60 -52.15 L49.91 -51.20 L50.91 -51.20 L49.91 -51.20 L49.10 -51.79 L48.29 -51.20 L48.60 -50.25 L49.60 -50.25 L49.91 -51.20 L49.60 -50.25 L48.79 -49.66 L49.10 -48.71 L48.79 -49.66 L47.79 -49.66 L47.48 -48.71 L47.79 -49.66 L48.60 -50.25 L48.29 -51.20 L48.60 -52.15 L47.79 -52.74 L46.98 -52.15 L47.79 -52.74 L48.79 -52.74 L49.10 -53.69 L48.29 -54.28 L47.48 -53.69 L47.79 -52.74 L47.48 -53.69 L47.79 -54.64 L46.98 -55.23 L46.17 -54.64 L46.48 -53.69 L47.48 -53.69 L46.48 -53.69 L45.67 -54.28 L44.86 -53.69 L45.17 -52.74 L46.17 -52.74 L46.48 -53.69 L46.17 -52.74 L45.36 -52.15 L45.67 -51.20 L46.67 -51.20 L46.98 -52.15 L46.17 -52.74 L46.98 -52.15 L47.29 -51.20 L48.29 -51.20 L47.29 -51.20 L46.98 -50.25 L47.79 -49.66 L46.98 -50.25 L46.67 -51.20 L45.67 -51.20 L44.86 -51.79 L44.05 -51.20 L44.36 -50.25 L44.05 -51.20 L44.36 -52.15 L43.55 -52.74 L42.74 -52.15 L43.05 -51.20 L44.05 -51.20 L43.05 -51.20 L42.24 -51.79 L41.43 -51.20 L41.74 -50.25 L42.74 -50.25 L43.05 -51.20 L42.74 -50.25 L41.93 -49.66 L42.24 -48.71 L43.24 -48.71 L43.55 -49.66 L42.74 -50.25 L43.55 -49.66 L43.86 -48.71 L44.86 -48.71 L45.17 -49.66 L44.36 -50.25 L43.55 -49.66 L44.36 -50.25 L45.36 -50.25 L45.67 -51.20 L45.36 -50.25 L46.17 -49.66 L46.98 -50.25 L46.17 -49.66 L45.17 -49.66 L44.86 -48.71 L44.05 -48.12 L44.36 -47.17 L45.36 -47.17 L44.36 -47.17 L43.55 -47.76 L42.74 -47.17 L43.05 -46.22 L44.05 -46.22 L44.36 -47.17 L44.05 -46.22 L43.24 -45.63 L43.55 -44.68 L44.55 -44.68 L44.86 -45.63 L44.05 -46.22 L44.86 -45.63 L45.17 -44.68 L46.17 -44.68 L46.48 -45.63 L45.67 -46.22 L44.86 -45.63 L45.67 -46.22 L46.67 -46.22 L46.98 -47.17 L46.17 -47.76 L45.36 -47.17 L45.67 -46.22 L45.36 -47.17 L45.67 -48.12 L44.86 -48.71 L45.67 -48.12 L46.48 -48.71 L46.17 -49.66 L46.48 -48.71 L46.17 -47.76 L46.98 -47.17 L47.29 -46.22 L48.29 -46.22 L48.60 -47.17 L48.29 -46.22 L47.48 -45.63 L47.79 -44.68 L48.79 -44.68 L49.10 -45.63 L48.29 -46.22 L49.10 -45.63 L49.41 -44.68 L50.41 -44.68 L49.41 -44.68 L49.10 -43.73 L49.91 -43.14 L49.10 -43.73 L48.79 -44.68 L47.79 -44.68 L47.48 -43.73 L48.29 -43.14 L49.10 -43.73 L48.29 -43.14 L47.29 -43.14 L46.98 -42.19 L47.79 -41.60 L48.60 -42.19 L48.29 -43.14 L48.60 -42.19 L48.29 -41.24 L49.10 -40.65 L48.29 -41.24 L47.48 -40.65 L47.79 -39.70 L47.48 -40.65 L47.79 -41.60 L46.98 -42.19 L46.67 -43.14 L45.67 -43.14 L45.36 -42.19 L45.67 -43.14 L46.48 -43.73 L46.17 -44.68 L45.17 -44.68 L44.86 -43.73 L45.67 -43.14 L44.86 -43.73 L44.55 -44.68 L43.55 -44.68 L42.74 -45.27 L41.93 -44.68 L42.24 -43.73 L41.93 -44.68 L42.24 -45.63 L41.43 -46.22 L40.62 -45.63 L40.93 -44.68 L41.93 -44.68 L40.93 -44.68 L40.12 -45.27 L39.32 -44.68 L39.62 -43.73 L40.62 -43.73 L40.93 -44.68 L40.62 -43.73 L39.82 -43.14 L40.12 -42.19 L39.82 -43.14 L38.82 -43.14 L38.51 -42.19 L38.82 -43.14 L39.62 -43.73 L39.32 -44.68 L39.62 -45.63 L38.82 -46.22 L38.01 -45.63 L38.82 -46.22 L39.82 -46.22 L40.12 -47.17 L39.32 -47.76 L38.51 -47.17 L38.82 -46.22 L38.51 -47.17 L38.82 -48.12 L38.01 -48.71 L37.20 -48.12 L37.51 -47.17 L38.51 -47.17 L37.51 -47.17 L36.70 -47.76 L35.89 -47.17 L36.20 -46.22 L37.20 -46.22 L37.51 -47.17 L37.20 -46.22 L36.39 -45.63 L36.70 -44.68 L37.70 -44.68 L38.01 -45.63 L37.20 -46.22 L38.01 -45.63 L38.32 -44.68 L39.32 -44.68 L38.32 -44.68 L38.01 -43.73 L38.82 -43.14 L38.01 -43.73 L37.70 -44.68 L36.70 -44.68 L35.89 -45.27 L35.08 -44.68 L35.39 -43.73 L35.08 -44.68 L35.39 -45.63 L34.58 -46.22 L33.77 -45.63 L34.08 -44.68 L35.08 -44.68 L34.08 -44.68 L33.27 -45.27 L32.46 -44.68 L32.77 -43.73 L33.77 -43.73 L34.08 -44.68 L33.77 -43.73 L32.96 -43.14 L33.27 -42.19 L34.27 -42.19 L34.58 -43.14 L33.77 -43.73 L34.58 -43.14 L34.89 -42.19 L35.89 -42.19 L36.20 -43.14 L35.39 -43.73 L34.58 -43.14 L35.39 -43.73 L36.39 -43.73 L36.70 -44.68 L36.39 -43.73 L37.20 -43.14 L38.01 -43.73 L37.20 -43.14 L36.20 -43.14 L35.89 -42.19 L35.08 -41.60 L35.39 -40.65 L36.39 -40.65 L35.39 -40.65 L34.58 -41.24 L33.77 -40.65 L34.08 -39.70 L35.08 -39.70 L35.39 -40.65 L35.08 -39.70 L34.27 -39.11 L34.58 -38.16 L35.58 -38.16 L35.89 -39.11 L35.08 -39.70 L35.89 -39.11 L36.20 -38.16 L37.20 -38.16 L37.51 -39.11 L36.70 -39.70 L35.89 -39.11 L36.70 -39.70 L37.70 -39.70 L38.01 -40.65 L37.20 -41.24 L36.39 -40.65 L36.70 -39.70 L36.39 -40.65 L36.70 -41.60 L35.89 -42.19 L36.70 -41.60 L37.51 -42.19 L37.20 -43.14 L37.51 -42.19 L37.20 -41.24 L38.01 -40.65 L38.32 -39.70 L39.32 -39.70 L39.62 -40.65 L39.32 -39.70 L38.51 -39.11 L38.82 -38.16 L39.82 -38.16 L40.12 -39.11 L39.32 -39.70 L40.12 -39.11 L40.43 -38.16 L41.43 -38.16 L41.74 -39.11 L40.93 -39.70 L40.12 -39.11 L40.93 -39.70 L41.93 -39.70 L42.24 -40.65 L41.43 -41.24 L40.62 -40.65 L40.93 -39.70 L40.62 -40.65 L40.93 -41.60 L40.12 -42.19 L39.32 -41.60 L39.62 -40.65 L40.62 -40.65 L39.62 -40.65 L38.82 -41.24 L38.01 -40.65 L38.82 -41.24 L38.51 -42.19 L37.51 -42.19 L38.51 -42.19 L39.32 -41.60 L40.12 -42.19 L41.12 -42.19 L41.43 -43.14 L40.62 -43.73 L41.43 -43.14 L41.74 -42.19 L42.74 -42.19 L43.05 -43.14 L42.24 -43.73 L41.43 -43.14 L42.24 -43.73 L43.24 -43.73 L43.55 -44.68 L43.24 -43.73 L44.05 -43.14 L44.86 -43.73 L44.05 -43.14 L43.05 -43.14 L42.74 -42.19 L43.55 -41.60 L44.36 -42.19 L44.05 -43.14 L44.36 -42.19 L44.05 -41.24 L44.86 -40.65 L45.67 -41.24 L45.36 -42.19 L44.36 -42.19 L45.36 -42.19 L46.17 -41.60 L46.98 -42.19 L46.17 -41.60 L46.48 -40.65 L47.48 -40.65 L46.48 -40.65 L45.67 -41.24 L44.86 -40.65 L43.86 -40.65 L43.55 -39.70 L44.36 -39.11 L43.55 -39.70 L43.24 -40.65 L42.24 -40.65 L41.93 -39.70 L42.74 -39.11 L43.55 -39.70 L42.74 -39.11 L41.74 -39.11 L41.43 -38.16 L40.62 -37.57 L40.93 -36.62 L41.93 -36.62 L40.93 -36.62 L40.12 -37.21 L39.32 -36.62 L39.62 -35.67 L40.62 -35.67 L40.93 -36.62 L40.62 -35.67 L39.82 -35.08 L40.12 -34.13 L41.12 -34.13 L41.43 -35.08 L40.62 -35.67 L41.43 -35.08 L41.74 -34.13 L42.74 -34.13 L41.74 -34.13 L41.43 -33.18 L42.24 -32.59 L41.43 -33.18 L41.12 -34.13 L40.12 -34.13 L39.32 -34.72 L38.51 -34.13 L38.82 -33.18 L38.51 -34.13 L38.82 -35.08 L38.01 -35.67 L37.20 -35.08 L37.51 -34.13 L38.51 -34.13 L37.51 -34.13 L36.70 -34.72 L35.89 -34.13 L36.20 -33.18 L37.20 -33.18 L37.51 -34.13 L37.20 -33.18 L36.39 -32.59 L36.70 -31.64 L37.70 -31.64 L38.01 -32.59 L37.20 -33.18 L38.01 -32.59 L38.32 -31.64 L39.32 -31.64 L39.62 -32.59 L38.82 -33.18 L38.01 -32.59 L38.82 -33.18 L39.82 -33.18 L40.12 -34.13 L39.82 -33.18 L40.62 -32.59 L41.43 -33.18 L40.62 -32.59 L39.62 -32.59 L39.32 -31.64 L38.51 -31.05 L38.82 -30.10 L39.82 -30.10 L38.82 -30.10 L38.01 -30.69 L37.20 -30.10 L37.51 -29.15 L38.51 -29.15 L38.82 -30.10 L38.51 -29.15 L37.70 -28.56 L38.01 -27.61 L37.70 -28.56 L36.70 -28.56 L36.39 -27.61 L36.70 -28.56 L37.51 -29.15 L37.20 -30.10 L36.20 -30.10 L35.89 -29.15 L36.70 -28.56 L35.89 -29.15 L35.58 -30.10 L34.58 -30.10 L34.27 -29.15 L35.08 -28.56 L35.89 -29.15 L35.08 -28.56 L34.08 -28.56 L33.77 -27.61 L34.08 -28.56 L33.27 -29.15 L32.46 -28.56 L33.27 -29.15 L34.27 -29.15 L34.58 -30.10 L35.39 -30.69 L35.08 -31.64 L34.08 -31.64 L35.08 -31.64 L35.89 -31.05 L36.70 -31.64 L36.39 -32.59 L35.39 -32.59 L35.08 -31.64 L35.39 -32.59 L36.20 -33.18 L35.89 -34.13 L34.89 -34.13 L34.58 -33.18 L35.39 -32.59 L34.58 -33.18 L34.27 -34.13 L33.27 -34.13 L32.96 -33.18 L33.77 -32.59 L34.58 -33.18 L33.77 -32.59 L32.77 -32.59 L32.46 -31.64 L33.27 -31.05 L34.08 -31.64 L33.77 -32.59 L34.08 -31.64 L33.77 -30.69 L34.58 -30.10 L33.77 -30.69 L32.96 -30.10 L33.27 -29.15 L32.96 -30.10 L33.27 -31.05 L32.46 -31.64 L32.15 -32.59 L31.15 -32.59 L30.84 -31.64 L31.15 -32.59 L31.96 -33.18 L31.65 -34.13 L30.65 -34.13 L30.34 -33.18 L31.15 -32.59 L30.34 -33.18 L30.03 -34.13 L29.03 -34.13 L28.73 -33.18 L29.53 -32.59 L30.34 -33.18 L29.53 -32.59 L28.53 -32.59 L28.23 -31.64 L29.03 -31.05 L29.84 -31.64 L29.53 -32.59 L29.84 -31.64 L29.53 -30.69 L30.34 -30.10 L31.15 -30.69 L30.84 -31.64 L29.84 -31.64 L30.84 -31.64 L31.65 -31.05 L32.46 -31.64 L31.65 -31.05 L31.96 -30.10 L32.96 -30.10 L31.96 -30.10 L31.15 -30.69 L30.34 -30.10 L29.34 -30.10 L29.03 -29.15 L29.84 -28.56 L29.03 -29.15 L28.73 -30.10 L27.73 -30.10 L27.42 -29.15 L28.23 -28.56 L29.03 -29.15 L28.23 -28.56 L27.23 -28.56 L26.92 -27.61 L27.23 -28.56 L26.42 -29.15 L25.61 -28.56 L26.42 -29.15 L27.42 -29.15 L27.73 -30.10 L26.92 -30.69 L26.11 -30.10 L26.42 -29.15 L26.11 -30.10 L26.42 -31.05 L25.61 -31.64 L24.80 -31.05 L25.11 -30.10 L26.11 -30.10 L25.11 -30.10 L24.30 -30.69 L23.49 -30.10 L24.30 -30.69 L23.99 -31.64 L22.99 -31.64 L23.99 -31.64 L24.80 -31.05 L25.61 -31.64 L26.61 -31.64 L26.92 -32.59 L26.11 -33.18 L26.92 -32.59 L27.23 -31.64 L28.23 -31.64 L28.53 -32.59 L27.73 -33.18 L26.92 -32.59 L27.73 -33.18 L28.73 -33.18 L29.03 -34.13 L29.84 -34.72 L29.53 -35.67 L28.53 -35.67 L29.53 -35.67 L30.34 -35.08 L31.15 -35.67 L30.84 -36.62 L29.84 -36.62 L29.53 -35.67 L29.84 -36.62 L30.65 -37.21 L30.34 -38.16 L29.34 -38.16 L29.03 -37.21 L29.84 -36.62 L29.03 -37.21 L28.73 -38.16 L27.73 -38.16 L28.73 -38.16 L29.03 -39.11 L28.23 -39.70 L29.03 -39.11 L29.34 -38.16 L30.34 -38.16 L31.15 -37.57 L31.96 -38.16 L31.65 -39.11 L31.96 -38.16 L31.65 -37.21 L32.46 -36.62 L33.27 -37.21 L32.96 -38.16 L31.96 -38.16 L32.96 -38.16 L33.77 -37.57 L34.58 -38.16 L34.27 -39.11 L33.27 -39.11 L32.96 -38.16 L33.27 -39.11 L34.08 -39.70 L33.77 -40.65 L32.77 -40.65 L32.46 -39.70 L33.27 -39.11 L32.46 -39.70 L32.15 -40.65 L31.15 -40.65 L30.84 -39.70 L31.65 -39.11 L32.46 -39.70 L31.65 -39.11 L30.65 -39.11 L30.34 -38.16 L30.65 -39.11 L29.84 -39.70 L29.03 -39.11 L29.84 -39.70 L30.84 -39.70 L31.15 -40.65 L31.96 -41.24 L31.65 -42.19 L30.65 -42.19 L31.65 -42.19 L32.46 -41.60 L33.27 -42.19 L32.96 -43.14 L31.96 -43.14 L31.65 -42.19 L31.96 -43.14 L32.77 -43.73 L32.46 -44.68 L32.77 -45.63 L31.96 -46.22 L31.15 -45.63 L31.96 -46.22 L32.96 -46.22 L33.27 -47.17 L32.46 -47.76 L31.65 -47.17 L31.96 -46.22 L31.65 -47.17 L31.96 -48.12 L31.15 -48.71 L30.34 -48.12 L30.65 -47.17 L31.65 -47.17 L30.65 -47.17 L29.84 -47.76 L29.03 -47.17 L29.84 -47.76 L29.53 -48.71 L28.53 -48.71 L29.53 -48.71 L30.34 -48.12 L31.15 -48.71 L32.15 -48.71 L32.46 -49.66 L31.65 -50.25 L32.46 -49.66 L32.77 -48.71 L33.77 -48.71 L34.08 -49.66 L33.27 -50.25 L32.46 -49.66 L33.27 -50.25 L34.27 -50.25 L34.58 -51.20 L33.77 -51.79 L32.96 -51.20 L33.27 -50.25 L32.96 -51.20 L33.27 -52.15 L32.46 -52.74 L31.65 -52.15 L31.96 -51.20 L32.96 -51.20 L31.96 -51.20 L31.15 -51.79 L30.34 -51.20 L30.65 -50.25 L31.65 -50.25 L31.96 -51.20 L31.65 -50.25 L30.84 -49.66 L31.15 -48.71 L30.84 -49.66 L29.84 -49.66 L29.53 -48.71 L29.84 -49.66 L30.65 -50.25 L30.34 -51.20 L30.65 -52.15 L29.84 -52.74 L29.03 -52.15 L29.84 -52.74 L30.84 -52.74 L31.15 -53.69 L30.34 -54.28 L29.53 -53.69 L29.84 -52.74 L29.53 -53.69 L29.84 -54.64 L29.03 -55.23 L28.23 -54.64 L28.53 -53.69 L29.53 -53.69 L28.53 -53.69 L27.73 -54.28 L26.92 -53.69 L27.23 -52.74 L28.23 -52.74 L28.53 -53.69 L28.23 -52.74 L27.42 -52.15 L27.73 -51.20 L28.73 -51.20 L29.03 -52.15 L28.23 -52.74 L29.03 -52.15 L29.34 -51.20 L30.34 -51.20 L29.34 -51.20 L29.03 -50.25 L29.84 -49.66 L29.03 -50.25 L28.73 -51.20 L27.73 -51.20 L26.92 -51.79 L26.11 -51.20 L26.42 -50.25 L26.11 -51.20 L26.42 -52.15 L25.61 -52.74 L24.80 -52.15 L25.11 -51.20 L26.11 -51.20 L25.11 -51.20 L24.30 -51.79 L23.49 -51.20 L24.30 -51.79 L23.99 -52.74 L22.99 -52.74 L23.99 -52.74 L24.80 -52.15 L25.61 -52.74 L25.30 -53.69 L24.30 -53.69 L23.99 -52.74 L24.30 -53.69 L25.11 -54.28 L24.80 -55.23 L23.80 -55.23 L23.49 -54.28 L24.30 -53.69 L23.49 -54.28 L23.18 -55.23 L22.18 -55.23 L23.18 -55.23 L23.49 -56.18 L22.68 -56.77 L23.49 -56.18 L23.80 -55.23 L24.80 -55.23 L25.61 -54.64 L26.42 -55.23 L26.11 -56.18 L26.42 -55.23 L26.11 -54.28 L26.92 -53.69 L27.73 -54.28 L27.42 -55.23 L26.42 -55.23 L27.42 -55.23 L28.23 -54.64 L29.03 -55.23 L30.03 -55.23 L30.34 -56.18 L29.53 -56.77 L30.34 -56.18 L30.65 -55.23 L31.65 -55.23 L31.96 -56.18 L31.15 -56.77 L30.34 -56.18 L31.15 -56.77 L32.15 -56.77 L32.46 -57.72 L31.65 -58.30 L30.84 -57.72 L31.15 -56.77 L30.84 -57.72 L31.15 -58.67 L30.34 -59.26 L31.15 -58.67 L31.96 -59.26 L31.65 -60.21 L31.96 -59.26 L31.65 -58.30 L32.46 -57.72 L32.77 -56.77 L33.77 -56.77 L34.08 -57.72 L33.77 -56.77 L32.96 -56.18 L33.27 -55.23 L34.27 -55.23 L34.58 -56.18 L33.77 -56.77 L34.58 -56.18 L34.89 -55.23 L35.89 -55.23 L36.20 -56.18 L35.39 -56.77 L34.58 -56.18 L35.39 -56.77 L36.39 -56.77 L36.70 -57.72 L35.89 -58.30 L35.08 -57.72 L35.39 -56.77 L35.08 -57.72 L35.39 -58.67 L34.58 -59.26 L33.77 -58.67 L34.08 -57.72 L35.08 -57.72 L34.08 -57.72 L33.27 -58.30 L32.46 -57.72 L33.27 -58.30 L32.96 -59.26 L31.96 -59.26 L32.96 -59.26 L33.77 -58.67 L34.58 -59.26 L35.58 -59.26 L35.89 -60.21 L35.08 -60.79 L35.89 -60.21 L36.20 -59.26 L37.20 -59.26 L37.51 -60.21 L36.70 -60.79 L35.89 -60.21 L36.70 -60.79 L37.70 -60.79 L38.01 -61.75 L37.20 -62.33 L36.39 -61.75 L36.70 -60.79 L36.39 -61.75 L36.70 -62.70 L35.89 -63.28 L35.08 -62.70 L35.39 -61.75 L36.39 -61.75 L35.39 -61.75 L34.58 -62.33 L33.77 -61.75 L34.08 -60.79 L35.08 -60.79 L35.39 -61.75 L35.08 -60.79 L34.27 -60.21 L34.58 -59.26 L34.27 -60.21 L33.27 -60.21 L32.96 -59.26 L33.27 -60.21 L34.08 -60.79 L33.77 -61.75 L34.08 -62.70 L33.27 -63.28 L32.46 -62.70 L33.27 -63.28 L34.27 -63.28 L34.58 -64.24 L33.77 -64.82 L32.96 -64.24 L33.27 -63.28 L32.96 -64.24 L33.27 -65.19 L32.46 -65.77 L31.65 -65.19 L31.96 -64.24 L32.96 -64.24 L31.96 -64.24 L31.15 -64.82 L30.34 -64.24 L30.65 -63.28 L31.65 -63.28 L31.96 -64.24 L31.65 -63.28 L30.84 -62.70 L31.15 -61.75 L32.15 -61.75 L32.46 -62.70 L31.65 -63.28 L32.46 -62.70 L32.77 -61.75 L33.77 -61.75 L32.77 -61.75 L32.46 -60.79 L33.27 -60.21 L32.46 -60.79 L32.15 -61.75 L31.15 -61.75 L30.34 -62.33 L29.53 -61.75 L29.84 -60.79 L29.53 -61.75 L29.84 -62.70 L29.03 -63.28 L28.23 -62.70 L28.53 -61.75 L29.53 -61.75 L28.53 -61.75 L27.73 -62.33 L26.92 -61.75 L27.23 -60.79 L28.23 -60.79 L28.53 -61.75 L28.23 -60.79 L27.42 -60.21 L27.73 -59.26 L28.73 -59.26 L29.03 -60.21 L28.23 -60.79 L29.03 -60.21 L29.34 -59.26 L30.34 -59.26 L30.65 -60.21 L29.84 -60.79 L29.03 -60.21 L29.84 -60.79 L30.84 -60.79 L31.15 -61.75 L30.84 -60.79 L31.65 -60.21 L32.46 -60.79 L31.65 -60.21 L30.65 -60.21 L30.34 -59.26 L29.53 -58.67 L29.84 -57.72 L30.84 -57.72 L29.84 -57.72 L29.03 -58.30 L28.23 -57.72 L28.53 -56.77 L29.53 -56.77 L29.84 -57.72 L29.53 -56.77 L28.73 -56.18 L29.03 -55.23 L28.73 -56.18 L27.73 -56.18 L27.42 -55.23 L27.73 -56.18 L28.53 -56.77 L28.23 -57.72 L27.23 -57.72 L26.92 -56.77 L27.73 -56.18 L26.92 -56.77 L26.61 -57.72 L25.61 -57.72 L25.30 -56.77 L26.11 -56.18 L26.92 -56.77 L26.11 -56.18 L25.11 -56.18 L24.80 -55.23 L25.11 -56.18 L24.30 -56.77 L23.49 -56.18 L24.30 -56.77 L25.30 -56.77 L25.61 -57.72 L26.42 -58.30 L26.11 -59.26 L25.11 -59.26 L26.11 -59.26 L26.92 -58.67 L27.73 -59.26 L27.42 -60.21 L26.42 -60.21 L26.11 -59.26 L26.42 -60.21 L27.23 -60.79 L26.92 -61.75 L27.23 -62.70 L26.42 -63.28 L25.61 -62.70 L26.42 -63.28 L27.42 -63.28 L27.73 -64.24 L26.92 -64.82 L26.11 -64.24 L26.42 -63.28 L26.11 -64.24 L26.42 -65.19 L25.61 -65.77 L24.80 -65.19 L25.11 -64.24 L26.11 -64.24 L25.11 -64.24 L24.30 -64.82 L23.49 -64.24 L24.30 -64.82 L23.99 -65.77 L22.99 -65.77 L23.99 -65.77 L24.80 -65.19 L25.61 -65.77 L26.61 -65.77 L26.92 -66.73 L26.11 -67.31 L26.92 -66.73 L27.23 -65.77 L28.23 -65.77 L28.53 -66.73 L27.73 -67.31 L26.92 -66.73 L27.73 -67.31 L28.73 -67.31 L29.03 -68.26 L28.23 -68.85 L27.42 -68.26 L27.73 -67.31 L27.42 -68.26 L27.73 -69.22 L26.92 -69.80 L26.11 -69.22 L26.42 -68.26 L27.42 -68.26 L26.42 -68.26 L25.61 -68.85 L24.80 -68.26 L25.11 -67.31 L26.11 -67.31 L26.42 -68.26 L26.11 -67.31 L25.30 -66.73 L25.61 -65.77 L25.30 -66.73 L24.30 -66.73 L23.99 -65.77 L24.30 -66.73 L25.11 -67.31 L24.80 -68.26 L25.11 -69.22 L24.30 -69.80 L23.49 -69.22 L24.30 -69.80 L25.30 -69.80 L25.61 -70.75 L24.80 -71.34 L23.99 -70.75 L24.30 -69.80 L23.99 -70.75 L24.30 -71.71 L23.49 -72.29 L22.68 -71.71 L22.99 -70.75 L23.99 -70.75 L22.99 -70.75 L22.18 -71.34 L21.37 -70.75 L21.68 -69.80 L22.68 -69.80 L22.99 -70.75 L22.68 -69.80 L21.87 -69.22 L22.18 -68.26 L23.18 -68.26 L23.49 -69.22 L22.68 -69.80 L23.49 -69.22 L23.80 -68.26 L24.80 -68.26 L23.80 -68.26 L23.49 -67.31 L24.30 -66.73 L23.49 -67.31 L23.18 -68.26 L22.18 -68.26 L21.37 -68.85 L20.56 -68.26 L20.87 -67.31 L20.56 -68.26 L20.87 -69.22 L20.06 -69.80 L19.25 -69.22 L19.56 -68.26 L20.56 -68.26 L19.56 -68.26 L18.75 -68.85 L17.94 -68.26 L18.25 -67.31 L19.25 -67.31 L19.56 -68.26 L19.25 -67.31 L18.44 -66.73 L18.75 -65.77 L19.75 -65.77 L20.06 -66.73 L19.25 -67.31 L20.06 -66.73 L20.37 -65.77 L21.37 -65.77 L21.68 -66.73 L20.87 -67.31 L20.06 -66.73 L20.87 -67.31 L21.87 -67.31 L22.18 -68.26 L21.87 -67.31 L22.68 -66.73 L23.49 -67.31 L22.68 -66.73 L21.68 -66.73 L21.37 -65.77 L20.56 -65.19 L20.87 -64.24 L21.87 -64.24 L20.87 -64.24 L20.06 -64.82 L19.25 -64.24 L19.56 -63.28 L20.56 -63.28 L20.87 -64.24 L20.56 -63.28 L19.75 -62.70 L20.06 -61.75 L21.06 -61.75 L21.37 -62.70 L20.56 -63.28 L21.37 -62.70 L21.68 -61.75 L22.68 -61.75 L22.99 -62.70 L22.18 -63.28 L21.37 -62.70 L22.18 -63.28 L23.18 -63.28 L23.49 -64.24 L22.68 -64.82 L21.87 -64.24 L22.18 -63.28 L21.87 -64.24 L22.18 -65.19 L21.37 -65.77 L22.18 -65.19 L22.99 -65.77 L22.68 -66.73 L22.99 -65.77 L22.68 -64.82 L23.49 -64.24 L23.80 -63.28 L24.80 -63.28 L25.11 -64.24 L24.80 -63.28 L23.99 -62.70 L24.30 -61.75 L25.30 -61.75 L25.61 -62.70 L24.80 -63.28 L25.61 -62.70 L25.92 -61.75 L26.92 -61.75 L25.92 -61.75 L25.61 -60.79 L26.42 -60.21 L25.61 -60.79 L25.30 -61.75 L24.30 -61.75 L23.99 -60.79 L24.80 -60.21 L25.61 -60.79 L24.80 -60.21 L23.80 -60.21 L23.49 -59.26 L24.30 -58.67 L25.11 -59.26 L24.80 -60.21 L25.11 -59.26 L24.80 -58.30 L25.61 -57.72 L24.80 -58.30 L23.99 -57.72 L24.30 -56.77 L23.99 -57.72 L24.30 -58.67 L23.49 -59.26 L23.18 -60.21 L22.18 -60.21 L21.87 -59.26 L22.18 -60.21 L22.99 -60.79 L22.68 -61.75 L21.68 -61.75 L21.37 -60.79 L22.18 -60.21 L21.37 -60.79 L21.06 -61.75 L20.06 -61.75 L19.25 -62.33 L18.44 -61.75 L18.75 -60.79 L18.44 -61.75 L18.75 -62.70 L17.94 -63.28 L17.14 -62.70 L17.44 -61.75 L18.44 -61.75 L17.44 -61.75 L16.64 -62.33 L15.83 -61.75 L16.14 -60.79 L17.14 -60.79 L17.44 -61.75 L17.14 -60.79 L16.33 -60.21 L16.64 -59.26 L16.33 -60.21 L15.33 -60.21 L15.02 -59.26 L15.33 -60.21 L16.14 -60.79 L15.83 -61.75 L16.14 -62.70 L15.33 -63.28 L14.52 -62.70 L15.33 -63.28 L16.33 -63.28 L16.64 -64.24 L15.83 -64.82 L15.02 -64.24 L15.33 -63.28 L15.02 -64.24 L15.33 -65.19 L14.52 -65.77 L13.71 -65.19 L14.02 -64.24 L15.02 -64.24 L14.02 -64.24 L13.21 -64.82 L12.40 -64.24 L12.71 -63.28 L13.71 -63.28 L14.02 -64.24 L13.71 -63.28 L12.90 -62.70 L13.21 -61.75 L14.21 -61.75 L14.52 -62.70 L13.71 -63.28 L14.52 -62.70 L14.83 -61.75 L15.83 -61.75 L14.83 -61.75 L14.52 -60.79 L15.33 -60.21 L14.52 -60.79 L14.21 -61.75 L13.21 -61.75 L12.40 -62.33 L11.59 -61.75 L11.90 -60.79 L11.59 -61.75 L11.90 -62.70 L11.09 -63.28 L10.28 -62.70 L10.59 -61.75 L11.59 -61.75 L10.59 -61.75 L9.78 -62.33 L8.97 -61.75 L9.28 -60.79 L10.28 -60.79 L10.59 -61.75 L10.28 -60.79 L9.47 -60.21 L9.78 -59.26 L10.78 -59.26 L11.09 -60.21 L10.28 -60.79 L11.09 -60.21 L11.40 -59.26 L12.40 -59.26 L12.71 -60.21 L11.90 -60.79 L11.09 -60.21 L11.90 -60.79 L12.90 -60.79 L13.21 -61.75 L12.90 -60.79 L13.71 -60.21 L14.52 -60.79 L13.71 -60.21 L12.71 -60.21 L12.40 -59.26 L11.59 -58.67 L11.90 -57.72 L12.90 -57.72 L11.90 -57.72 L11.09 -58.30 L10.28 -57.72 L10.59 -56.77 L11.59 -56.77 L11.90 -57.72 L11.59 -56.77 L10.78 -56.18 L11.09 -55.23 L12.09 -55.23 L12.40 -56.18 L11.59 -56.77 L12.40 -56.18 L12.71 -55.23 L13.71 -55.23 L14.02 -56.18 L13.21 -56.77 L12.40 -56.18 L13.21 -56.77 L14.21 -56.77 L14.52 -57.72 L13.71 -58.30 L12.90 -57.72 L13.21 -56.77 L12.90 -57.72 L13.21 -58.67 L12.40 -59.26 L13.21 -58.67 L14.02 -59.26 L13.71 -60.21 L14.02 -59.26 L13.71 -58.30 L14.52 -57.72 L14.83 -56.77 L15.83 -56.77 L16.14 -57.72 L15.83 -56.77 L15.02 -56.18 L15.33 -55.23 L16.33 -55.23 L16.64 -56.18 L15.83 -56.77 L16.64 -56.18 L16.94 -55.23 L17.94 -55.23 L18.25 -56.18 L17.44 -56.77 L16.64 -56.18 L17.44 -56.77 L18.44 -56.77 L18.75 -57.72 L17.94 -58.30 L17.14 -57.72 L17.44 -56.77 L17.14 -57.72 L17.44 -58.67 L16.64 -59.26 L15.83 -58.67 L16.14 -57.72 L17.14 -57.72 L16.14 -57.72 L15.33 -58.30 L14.52 -57.72 L15.33 -58.30 L15.02 -59.26 L14.02 -59.26 L15.02 -59.26 L15.83 -58.67 L16.64 -59.26 L17.64 -59.26 L17.94 -60.21 L17.14 -60.79 L17.94 -60.21 L18.25 -59.26 L19.25 -59.26 L19.56 -60.21 L18.75 -60.79 L17.94 -60.21 L18.75 -60.79 L19.75 -60.79 L20.06 -61.75 L19.75 -60.79 L20.56 -60.21 L21.37 -60.79 L20.56 -60.21 L19.56 -60.21 L19.25 -59.26 L20.06 -58.67 L20.87 -59.26 L20.56 -60.21 L20.87 -59.26 L20.56 -58.30 L21.37 -57.72 L22.18 -58.30 L21.87 -59.26 L20.87 -59.26 L21.87 -59.26 L22.68 -58.67 L23.49 -59.26 L22.68 -58.67 L22.99 -57.72 L23.99 -57.72 L22.99 -57.72 L22.18 -58.30 L21.37 -57.72 L20.37 -57.72 L20.06 -56.77 L20.87 -56.18 L20.06 -56.77 L19.75 -57.72 L18.75 -57.72 L18.44 -56.77 L19.25 -56.18 L20.06 -56.77 L19.25 -56.18 L18.25 -56.18 L17.94 -55.23 L17.14 -54.64 L17.44 -53.69 L18.44 -53.69 L17.44 -53.69 L16.64 -54.28 L15.83 -53.69 L16.14 -52.74 L17.14 -52.74 L17.44 -53.69 L17.14 -52.74 L16.33 -52.15 L16.64 -51.20 L17.64 -51.20 L17.94 -52.15 L17.14 -52.74 L17.94 -52.15 L18.25 -51.20 L19.25 -51.20 L18.25 -51.20 L17.94 -50.25 L18.75 -49.66 L17.94 -50.25 L17.64 -51.20 L16.64 -51.20 L15.83 -51.79 L15.02 -51.20 L15.33 -50.25 L15.02 -51.20 L15.33 -52.15 L14.52 -52.74 L13.71 -52.15 L14.02 -51.20 L15.02 -51.20 L14.02 -51.20 L13.21 -51.79 L12.40 -51.20 L12.71 -50.25 L13.71 -50.25 L14.02 -51.20 L13.71 -50.25 L12.90 -49.66 L13.21 -48.71 L14.21 -48.71 L14.52 -49.66 L13.71 -50.25 L14.52 -49.66 L14.83 -48.71 L15.83 -48.71 L16.14 -49.66 L15.33 -50.25 L14.52 -49.66 L15.33 -50.25 L16.33 -50.25 L16.64 -51.20 L16.33 -50.25 L17.14 -49.66 L17.94 -50.25 L17.14 -49.66 L16.14 -49.66 L15.83 -48.71 L15.02 -48.12 L15.33 -47.17 L16.33 -47.17 L15.33 -47.17 L14.52 -47.76 L13.71 -47.17 L14.02 -46.22 L15.02 -46.22 L15.33 -47.17 L15.02 -46.22 L14.21 -45.63 L14.52 -44.68 L15.52 -44.68 L15.83 -45.63 L15.02 -46.22 L15.83 -45.63 L16.14 -44.68 L17.14 -44.68 L17.44 -45.63 L16.64 -46.22 L15.83 -45.63 L16.64 -46.22 L17.64 -46.22 L17.94 -47.17 L17.14 -47.76 L16.33 -47.17 L16.64 -46.22 L16.33 -47.17 L16.64 -48.12 L15.83 -48.71 L16.64 -48.12 L17.44 -48.71 L17.14 -49.66 L17.44 -48.71 L17.14 -47.76 L17.94 -47.17 L18.25 -46.22 L19.25 -46.22 L19.56 -47.17 L19.25 -46.22 L18.44 -45.63 L18.75 -44.68 L19.75 -44.68 L20.06 -45.63 L19.25 -46.22 L20.06 -45.63 L20.37 -44.68 L21.37 -44.68 L21.68 -45.63 L20.87 -46.22 L20.06 -45.63 L20.87 -46.22 L21.87 -46.22 L22.18 -47.17 L21.37 -47.76 L20.56 -47.17 L20.87 -46.22 L20.56 -47.17 L20.87 -48.12 L20.06 -48.71 L19.25 -48.12 L19.56 -47.17 L20.56 -47.17 L19.56 -47.17 L18.75 -47.76 L17.94 -47.17 L18.75 -47.76 L18.44 -48.71 L17.44 -48.71 L18.44 -48.71 L19.25 -48.12 L20.06 -48.71 L21.06 -48.71 L21.37 -49.66 L20.56 -50.25 L21.37 -49.66 L21.68 -48.71 L22.68 -48.71 L22.99 -49.66 L22.18 -50.25 L21.37 -49.66 L22.18 -50.25 L23.18 -50.25 L23.49 -51.20 L22.68 -51.79 L21.87 -51.20 L22.18 -50.25 L21.87 -51.20 L22.18 -52.15 L21.37 -52.74 L20.56 -52.15 L20.87 -51.20 L21.87 -51.20 L20.87 -51.20 L20.06 -51.79 L19.25 -51.20 L19.56 -50.25 L20.56 -50.25 L20.87 -51.20 L20.56 -50.25 L19.75 -49.66 L20.06 -48.71 L19.75 -49.66 L18.75 -49.66 L18.44 -48.71 L18.75 -49.66 L19.56 -50.25 L19.25 -51.20 L19.56 -52.15 L18.75 -52.74 L17.94 -52.15 L18.75 -52.74 L19.75 -52.74 L20.06 -53.69 L19.25 -54.28 L18.44 -53.69 L18.75 -52.74 L18.44 -53.69 L18.75 -54.64 L17.94 -55.23 L18.75 -54.64 L19.56 -55.23 L19.25 -56.18 L19.56 -55.23 L19.25 -54.28 L20.06 -53.69 L20.87 -54.28 L20.56 -55.23 L19.56 -55.23 L20.56 -55.23 L21.37 -54.64 L22.18 -55.23 L21.87 -56.18 L20.87 -56.18 L20.56 -55.23 L20.87 -56.18 L21.68 -56.77 L21.37 -57.72 L21.68 -56.77 L22.68 -56.77 L22.99 -57.72 L22.68 -56.77 L21.87 -56.18 L22.18 -55.23 L21.87 -54.28 L22.68 -53.69 L23.49 -54.28 L22.68 -53.69 L21.68 -53.69 L21.37 -52.74 L22.18 -52.15 L22.99 -52.74 L22.68 -53.69 L22.99 -52.74 L22.68 -51.79 L23.49 -51.20 L23.80 -50.25 L24.80 -50.25 L25.11 -51.20 L24.80 -50.25 L23.99 -49.66 L24.30 -48.71 L25.30 -48.71 L25.61 -49.66 L24.80 -50.25 L25.61 -49.66 L25.92 -48.71 L26.92 -48.71 L27.23 -49.66 L26.42 -50.25 L25.61 -49.66 L26.42 -50.25 L27.42 -50.25 L27.73 -51.20 L27.42 -50.25 L28.23 -49.66 L29.03 -50.25 L28.23 -49.66 L27.23 -49.66 L26.92 -48.71 L26.11 -48.12 L26.42 -47.17 L27.42 -47.17 L26.42 -47.17 L25.61 -47.76 L24.80 -47.17 L25.11 -46.22 L26.11 -46.22 L26.42 -47.17 L26.11 -46.22 L25.30 -45.63 L25.61 -44.68 L26.61 -44.68 L26.92 -45.63 L26.11 -46.22 L26.92 -45.63 L27.23 -44.68 L28.23 -44.68 L28.53 -45.63 L27.73 -46.22 L26.92 -45.63 L27.73 -46.22 L28.73 -46.22 L29.03 -47.17 L28.23 -47.76 L27.42 -47.17 L27.73 -46.22 L27.42 -47.17 L27.73 -48.12 L26.92 -48.71 L27.73 -48.12 L28.53 -48.71 L28.23 -49.66 L28.53 -48.71 L28.23 -47.76 L29.03 -47.17 L29.34 -46.22 L30.34 -46.22 L30.65 -47.17 L30.34 -46.22 L29.53 -45.63 L29.84 -44.68 L30.84 -44.68 L31.15 -45.63 L30.34 -46.22 L31.15 -45.63 L31.46 -44.68 L32.46 -44.68 L31.46 -44.68 L31.15 -43.73 L31.96 -43.14 L31.15 -43.73 L30.84 -44.68 L29.84 -44.68 L29.53 -43.73 L30.34 -43.14 L31.15 -43.73 L30.34 -43.14 L29.34 -43.14 L29.03 -42.19 L29.84 -41.60 L30.65 -42.19 L30.34 -43.14 L30.65 -42.19 L30.34 -41.24 L31.15 -40.65 L30.34 -41.24 L29.53 -40.65 L29.84 -39.70 L29.53 -40.65 L29.84 -41.60 L29.03 -42.19 L28.73 -43.14 L27.73 -43.14 L27.42 -42.19 L27.73 -43.14 L28.53 -43.73 L28.23 -44.68 L27.23 -44.68 L26.92 -43.73 L27.73 -43.14 L26.92 -43.73 L26.61 -44.68 L25.61 -44.68 L25.30 -43.73 L26.11 -43.14 L26.92 -43.73 L26.11 -43.14 L25.11 -43.14 L24.80 -42.19 L25.61 -41.60 L26.42 -42.19 L26.11 -43.14 L26.42 -42.19 L26.11 -41.24 L26.92 -40.65 L27.73 -41.24 L27.42 -42.19 L26.42 -42.19 L27.42 -42.19 L28.23 -41.60 L29.03 -42.19 L28.23 -41.60 L28.53 -40.65 L29.53 -40.65 L28.53 -40.65 L27.73 -41.24 L26.92 -40.65 L25.92 -40.65 L25.61 -39.70 L26.42 -39.11 L25.61 -39.70 L25.30 -40.65 L24.30 -40.65 L23.99 -39.70 L24.80 -39.11 L25.61 -39.70 L24.80 -39.11 L23.80 -39.11 L23.49 -38.16 L24.30 -37.57 L25.11 -38.16 L24.80 -39.11 L25.11 -38.16 L24.80 -37.21 L25.61 -36.62 L26.42 -37.21 L26.11 -38.16 L25.11 -38.16 L26.11 -38.16 L26.92 -37.57 L27.73 -38.16 L27.42 -39.11 L26.42 -39.11 L26.11 -38.16 L26.42 -39.11 L27.23 -39.70 L26.92 -40.65 L27.23 -39.70 L28.23 -39.70 L28.53 -40.65 L28.23 -39.70 L27.42 -39.11 L27.73 -38.16 L27.42 -37.21 L28.23 -36.62 L29.03 -37.21 L28.23 -36.62 L27.23 -36.62 L26.92 -35.67 L27.73 -35.08 L28.53 -35.67 L28.23 -36.62 L28.53 -35.67 L28.23 -34.72 L29.03 -34.13 L28.23 -34.72 L27.42 -34.13 L27.73 -33.18 L27.42 -34.13 L27.73 -35.08 L26.92 -35.67 L26.11 -35.08 L26.42 -34.13 L27.42 -34.13 L26.42 -34.13 L25.61 -34.72 L24.80 -34.13 L25.11 -33.18 L26.11 -33.18 L26.42 -34.13 L26.11 -33.18 L25.30 -32.59 L25.61 -31.64 L25.30 -32.59 L24.30 -32.59 L23.99 -31.64 L24.30 -32.59 L25.11 -33.18 L24.80 -34.13 L25.11 -35.08 L24.30 -35.67 L23.49 -35.08 L24.30 -35.67 L25.30 -35.67 L25.61 -36.62 L24.80 -37.21 L23.99 -36.62 L24.30 -35.67 L23.99 -36.62 L24.30 -37.57 L23.49 -38.16 L23.18 -39.11 L22.18 -39.11 L21.87 -38.16 L22.18 -39.11 L22.99 -39.70 L22.68 -40.65 L21.68 -40.65 L21.37 -39.70 L22.18 -39.11 L21.37 -39.70 L21.06 -40.65 L20.06 -40.65 L19.75 -39.70 L20.56 -39.11 L21.37 -39.70 L20.56 -39.11 L19.56 -39.11 L19.25 -38.16 L19.56 -39.11 L18.75 -39.70 L17.94 -39.11 L18.75 -39.70 L19.75 -39.70 L20.06 -40.65 L20.87 -41.24 L20.56 -42.19 L19.56 -42.19 L20.56 -42.19 L21.37 -41.60 L22.18 -42.19 L21.87 -43.14 L20.87 -43.14 L20.56 -42.19 L20.87 -43.14 L21.68 -43.73 L21.37 -44.68 L20.37 -44.68 L20.06 -43.73 L20.87 -43.14 L20.06 -43.73 L19.75 -44.68 L18.75 -44.68 L18.44 -43.73 L19.25 -43.14 L20.06 -43.73 L19.25 -43.14 L18.25 -43.14 L17.94 -42.19 L18.75 -41.60 L19.56 -42.19 L19.25 -43.14 L19.56 -42.19 L19.25 -41.24 L20.06 -40.65 L19.25 -41.24 L18.44 -40.65 L18.75 -39.70 L18.44 -40.65 L18.75 -41.60 L17.94 -42.19 L17.64 -43.14 L16.64 -43.14 L16.33 -42.19 L16.64 -43.14 L17.44 -43.73 L17.14 -44.68 L16.14 -44.68 L15.83 -43.73 L16.64 -43.14 L15.83 -43.73 L15.52 -44.68 L14.52 -44.68 L13.71 -45.27 L12.90 -44.68 L13.21 -43.73 L12.90 -44.68 L13.21 -45.63 L12.40 -46.22 L11.59 -45.63 L11.90 -44.68 L12.90 -44.68 L11.90 -44.68 L11.09 -45.27 L10.28 -44.68 L10.59 -43.73 L11.59 -43.73 L11.90 -44.68 L11.59 -43.73 L10.78 -43.14 L11.09 -42.19 L10.78 -43.14 L9.78 -43.14 L9.47 -42.19 L9.78 -43.14 L10.59 -43.73 L10.28 -44.68 L10.59 -45.63 L9.78 -46.22 L8.97 -45.63 L9.78 -46.22 L10.78 -46.22 L11.09 -47.17 L10.28 -47.76 L9.47 -47.17 L9.78 -46.22 L9.47 -47.17 L9.78 -48.12 L8.97 -48.71 L8.16 -48.12 L8.47 -47.17 L9.47 -47.17 L8.47 -47.17 L7.66 -47.76 L6.85 -47.17 L7.16 -46.22 L8.16 -46.22 L8.47 -47.17 L8.16 -46.22 L7.35 -45.63 L7.66 -44.68 L8.66 -44.68 L8.97 -45.63 L8.16 -46.22 L8.97 -45.63 L9.28 -44.68 L10.28 -44.68 L9.28 -44.68 L8.97 -43.73 L9.78 -43.14 L8.97 -43.73 L8.66 -44.68 L7.66 -44.68 L6.85 -45.27 L6.05 -44.68 L6.35 -43.73 L6.05 -44.68 L6.35 -45.63 L5.55 -46.22 L4.74 -45.63 L5.05 -44.68 L6.05 -44.68 L5.05 -44.68 L4.24 -45.27 L3.43 -44.68 L3.74 -43.73 L4.74 -43.73 L5.05 -44.68 L4.74 -43.73 L3.93 -43.14 L4.24 -42.19 L5.24 -42.19 L5.55 -43.14 L4.74 -43.73 L5.55 -43.14 L5.85 -42.19 L6.85 -42.19 L7.16 -43.14 L6.35 -43.73 L5.55 -43.14 L6.35 -43.73 L7.35 -43.73 L7.66 -44.68 L7.35 -43.73 L8.16 -43.14 L8.97 -43.73 L8.16 -43.14 L7.16 -43.14 L6.85 -42.19 L6.05 -41.60 L6.35 -40.65 L7.35 -40.65 L6.35 -40.65 L5.55 -41.24 L4.74 -40.65 L5.05 -39.70 L6.05 -39.70 L6.35 -40.65 L6.05 -39.70 L5.24 -39.11 L5.55 -38.16 L5.24 -39.11 L4.24 -39.11 L3.93 -38.16 L4.24 -39.11 L5.05 -39.70 L4.74 -40.65 L3.74 -40.65 L3.43 -39.70 L4.24 -39.11 L3.43 -39.70 L3.12 -40.65 L2.12 -40.65 L1.81 -39.70 L2.62 -39.11 L3.43 -39.70 L2.62 -39.11 L1.62 -39.11 L1.31 -38.16 L1.62 -39.11 L0.81 -39.70 L-0.00 -39.11 L0.81 -39.70 L1.81 -39.70 L2.12 -40.65 L2.93 -41.24 L2.62 -42.19 L1.62 -42.19 L2.62 -42.19 L3.43 -41.60 L4.24 -42.19 L3.93 -43.14 L2.93 -43.14 L2.62 -42.19 L2.93 -43.14 L3.74 -43.73 L3.43 -44.68 L3.74 -45.63 L2.93 -46.22 L2.12 -45.63 L2.93 -46.22 L3.93 -46.22 L4.24 -47.17 L3.43 -47.76 L2.62 -47.17 L2.93 -46.22 L2.62 -47.17 L2.93 -48.12 L2.12 -48.71 L1.31 -48.12 L1.62 -47.17 L2.62 -47.17 L1.62 -47.17 L0.81 -47.76 L-0.00 -47.17 L0.81 -47.76 L0.50 -48.71 L-0.50 -48.71 L0.50 -48.71 L1.31 -48.12 L2.12 -48.71 L3.12 -48.71 L3.43 -49.66 L2.62 -50.25 L3.43 -49.66 L3.74 -48.71 L4.74 -48.71 L5.05 -49.66 L4.24 -50.25 L3.43 -49.66 L4.24 -50.25 L5.24 -50.25 L5.55 -51.20 L4.74 -51.79 L3.93 -51.20 L4.24 -50.25 L3.93 -51.20 L4.24 -52.15 L3.43 -52.74 L2.62 -52.15 L2.93 -51.20 L3.93 -51.20 L2.93 -51.20 L2.12 -51.79 L1.31 -51.20 L1.62 -50.25 L2.62 -50.25 L2.93 -51.20 L2.62 -50.25 L1.81 -49.66 L2.12 -48.71 L1.81 -49.66 L0.81 -49.66 L0.50 -48.71 L0.81 -49.66 L1.62 -50.25 L1.31 -51.20 L1.62 -52.15 L0.81 -52.74 L-0.00 -52.15 L0.81 -52.74 L1.81 -52.74 L2.12 -53.69 L1.31 -54.28 L0.50 -53.69 L0.81 -52.74 L0.50 -53.69 L0.81 -54.64 L-0.00 -55.23 L-0.81 -54.64 L-0.50 -53.69 L0.50 -53.69 L-0.50 -53.69 L-1.31 -54.28 L-2.12 -53.69 L-1.81 -52.74 L-0.81 -52.74 L-0.50 -53.69 L-0.81 -52.74 L-1.62 -52.15 L-1.31 -51.20 L-0.31 -51.20 L-0.00 -52.15 L-0.81 -52.74 L-0.00 -52.15 L0.31 -51.20 L1.31 -51.20 L0.31 -51.20 L-0.00 -50.25 L0.81 -49.66 L-0.00 -50.25 L-0.31 -51.20 L-1.31 -51.20 L-2.12 -51.79 L-2.93 -51.20 L-2.62 -50.25 L-2.93 -51.20 L-2.62 -52.15 L-3.43 -52.74 L-4.24 -52.15 L-3.93 -51.20 L-2.93 -51.20 L-3.93 -51.20 L-4.74 -51.79 L-5.55 -51.20 L-5.24 -50.25 L-4.24 -50.25 L-3.93 -51.20 L-4.24 -50.25 L-5.05 -49.66 L-4.74 -48.71 L-3.74 -48.71 L-3.43 -49.66 L-4.24 -50.25 L-3.43 -49.66 L-3.12 -48.71 L-2.12 -48.71 L-1.81 -49.66 L-2.62 -50.25 L-3.43 -49.66 L-2.62 -50.25 L-1.62 -50.25 L-1.31 -51.20 L-1.62 -50.25 L-0.81 -49.66 L-0.00 -50.25 L-0.81 -49.66 L-1.81 -49.66 L-2.12 -48.71 L-2.93 -48.12 L-2.62 -47.17 L-1.62 -47.17 L-2.62 -47.17 L-3.43 -47.76 L-4.24 -47.17 L-3.93 -46.22 L-2.93 -46.22 L-2.62 -47.17 L-2.93 -46.22 L-3.74 -45.63 L-3.43 -44.68 L-2.43 -44.68 L-2.12 -45.63 L-2.93 -46.22 L-2.12 -45.63 L-1.81 -44.68 L-0.81 -44.68 L-0.50 -45.63 L-1.31 -46.22 L-2.12 -45.63 L-1.31 -46.22 L-0.31 -46.22 L-0.00 -47.17 L-0.81 -47.76 L-1.62 -47.17 L-1.31 -46.22 L-1.62 -47.17 L-1.31 -48.12 L-2.12 -48.71 L-1.31 -48.12 L-0.50 -48.71 L-0.81 -49.66 L-0.50 -48.71 L-0.81 -47.76 L-0.00 -47.17 L0.31 -46.22 L1.31 -46.22 L1.62 -47.17 L1.31 -46.22 L0.50 -45.63 L0.81 -44.68 L1.81 -44.68 L2.12 -45.63 L1.31 -46.22 L2.12 -45.63 L2.43 -44.68 L3.43 -44.68 L2.43 -44.68 L2.12 -43.73 L2.93 -43.14 L2.12 -43.73 L1.81 -44.68 L0.81 -44.68 L0.50 -43.73 L1.31 -43.14 L2.12 -43.73 L1.31 -43.14 L0.31 -43.14 L-0.00 -42.19 L0.81 -41.60 L1.62 -42.19 L1.31 -43.14 L1.62 -42.19 L1.31 -41.24 L2.12 -40.65 L1.31 -41.24 L0.50 -40.65 L0.81 -39.70 L0.50 -40.65 L0.81 -41.60 L-0.00 -42.19 L-0.31 -43.14 L-1.31 -43.14 L-1.62 -42.19 L-1.31 -43.14 L-0.50 -43.73 L-0.81 -44.68 L-1.81 -44.68 L-2.12 -43.73 L-1.31 -43.14 L-2.12 -43.73 L-2.43 -44.68 L-3.43 -44.68 L-4.24 -45.27 L-5.05 -44.68 L-4.74 -43.73 L-5.05 -44.68 L-4.74 -45.63 L-5.55 -46.22 L-6.35 -45.63 L-6.05 -44.68 L-5.05 -44.68 L-6.05 -44.68 L-6.85 -45.27 L-7.66 -44.68 L-7.35 -43.73 L-6.35 -43.73 L-6.05 -44.68 L-6.35 -43.73 L-7.16 -43.14 L-6.85 -42.19 L-7.16 -43.14 L-8.16 -43.14 L-8.47 -42.19 L-8.16 -43.14 L-7.35 -43.73 L-7.66 -44.68 L-7.35 -45.63 L-8.16 -46.22 L-8.97 -45.63 L-8.16 -46.22 L-7.16 -46.22 L-6.85 -47.17 L-7.66 -47.76 L-8.47 -47.17 L-8.16 -46.22 L-8.47 -47.17 L-8.16 -48.12 L-8.97 -48.71 L-9.78 -48.12 L-9.47 -47.17 L-8.47 -47.17 L-9.47 -47.17 L-10.28 -47.76 L-11.09 -47.17 L-10.78 -46.22 L-9.78 -46.22 L-9.47 -47.17 L-9.78 -46.22 L-10.59 -45.63 L-10.28 -44.68 L-9.28 -44.68 L-8.97 -45.63 L-9.78 -46.22 L-8.97 -45.63 L-8.66 -44.68 L-7.66 -44.68 L-8.66 -44.68 L-8.97 -43.73 L-8.16 -43.14 L-8.97 -43.73 L-9.28 -44.68 L-10.28 -44.68 L-11.09 -45.27 L-11.90 -44.68 L-11.59 -43.73 L-11.90 -44.68 L-11.59 -45.63 L-12.40 -46.22 L-13.21 -45.63 L-12.90 -44.68 L-11.90 -44.68 L-12.90 -44.68 L-13.71 -45.27 L-14.52 -44.68 L-14.21 -43.73 L-13.21 -43.73 L-12.90 -44.68 L-13.21 -43.73 L-14.02 -43.14 L-13.71 -42.19 L-12.71 -42.19 L-12.40 -43.14 L-13.21 -43.73 L-12.40 -43.14 L-12.09 -42.19 L-11.09 -42.19 L-10.78 -43.14 L-11.59 -43.73 L-12.40 -43.14 L-11.59 -43.73 L-10.59 -43.73 L-10.28 -44.68 L-10.59 -43.73 L-9.78 -43.14 L-8.97 -43.73 L-9.78 -43.14 L-10.78 -43.14 L-11.09 -42.19 L-11.90 -41.60 L-11.59 -40.65 L-10.59 -40.65 L-11.59 -40.65 L-12.40 -41.24 L-13.21 -40.65 L-12.90 -39.70 L-11.90 -39.70 L-11.59 -40.65 L-11.90 -39.70 L-12.71 -39.11 L-12.40 -38.16 L-11.40 -38.16 L-11.09 -39.11 L-11.90 -39.70 L-11.09 -39.11 L-10.78 -38.16 L-9.78 -38.16 L-9.47 -39.11 L-10.28 -39.70 L-11.09 -39.11 L-10.28 -39.70 L-9.28 -39.70 L-8.97 -40.65 L-9.78 -41.24 L-10.59 -40.65 L-10.28 -39.70 L-10.59 -40.65 L-10.28 -41.60 L-11.09 -42.19 L-10.28 -41.60 L-9.47 -42.19 L-9.78 -43.14 L-9.47 -42.19 L-9.78 -41.24 L-8.97 -40.65 L-8.66 -39.70 L-7.66 -39.70 L-7.35 -40.65 L-7.66 -39.70 L-8.47 -39.11 L-8.16 -38.16 L-7.16 -38.16 L-6.85 -39.11 L-7.66 -39.70 L-6.85 -39.11 L-6.55 -38.16 L-5.55 -38.16 L-5.24 -39.11 L-6.05 -39.70 L-6.85 -39.11 L-6.05 -39.70 L-5.05 -39.70 L-4.74 -40.65 L-5.55 -41.24 L-6.35 -40.65 L-6.05 -39.70 L-6.35 -40.65 L-6.05 -41.60 L-6.85 -42.19 L-7.66 -41.60 L-7.35 -40.65 L-6.35 -40.65 L-7.35 -40.65 L-8.16 -41.24 L-8.97 -40.65 L-8.16 -41.24 L-8.47 -42.19 L-9.47 -42.19 L-8.47 -42.19 L-7.66 -41.60 L-6.85 -42.19 L-5.85 -42.19 L-5.55 -43.14 L-6.35 -43.73 L-5.55 -43.14 L-5.24 -42.19 L-4.24 -42.19 L-3.93 -43.14 L-4.74 -43.73 L-5.55 -43.14 L-4.74 -43.73 L-3.74 -43.73 L-3.43 -44.68 L-3.74 -43.73 L-2.93 -43.14 L-2.12 -43.73 L-2.93 -43.14 L-3.93 -43.14 L-4.24 -42.19 L-3.43 -41.60 L-2.62 -42.19 L-2.93 -43.14 L-2.62 -42.19 L-2.93 -41.24 L-2.12 -40.65 L-1.31 -41.24 L-1.62 -42.19 L-2.62 -42.19 L-1.62 -42.19 L-0.81 -41.60 L-0.00 -42.19 L-0.81 -41.60 L-0.50 -40.65 L0.50 -40.65 L-0.50 -40.65 L-1.31 -41.24 L-2.12 -40.65 L-3.12 -40.65 L-3.43 -39.70 L-2.62 -39.11 L-3.43 -39.70 L-3.74 -40.65 L-4.74 -40.65 L-5.05 -39.70 L-4.24 -39.11 L-3.43 -39.70 L-4.24 -39.11 L-5.24 -39.11 L-5.55 -38.16 L-6.35 -37.57 L-6.05 -36.62 L-5.05 -36.62 L-6.05 -36.62 L-6.85 -37.21 L-7.66 -36.62 L-7.35 -35.67 L-6.35 -35.67 L-6.05 -36.62 L-6.35 -35.67 L-7.16 -35.08 L-6.85 -34.13 L-5.85 -34.13 L-5.55 -35.08 L-6.35 -35.67 L-5.55 -35.08 L-5.24 -34.13 L-4.24 -34.13 L-5.24 -34.13 L-5.55 -33.18 L-4.74 -32.59 L-5.55 -33.18 L-5.85 -34.13 L-6.85 -34.13 L-7.66 -34.72 L-8.47 -34.13 L-8.16 -33.18 L-8.47 -34.13 L-8.16 -35.08 L-8.97 -35.67 L-9.78 -35.08 L-9.47 -34.13 L-8.47 -34.13 L-9.47 -34.13 L-10.28 -34.72 L-11.09 -34.13 L-10.78 -33.18 L-9.78 -33.18 L-9.47 -34.13 L-9.78 -33.18 L-10.59 -32.59 L-10.28 -31.64 L-9.28 -31.64 L-8.97 -32.59 L-9.78 -33.18 L-8.97 -32.59 L-8.66 -31.64 L-7.66 -31.64 L-7.35 -32.59 L-8.16 -33.18 L-8.97 -32.59 L-8.16 -33.18 L-7.16 -33.18 L-6.85 -34.13 L-7.16 -33.18 L-6.35 -32.59 L-5.55 -33.18 L-6.35 -32.59 L-7.35 -32.59 L-7.66 -31.64 L-8.47 -31.05 L-8.16 -30.10 L-7.16 -30.10 L-8.16 -30.10 L-8.97 -30.69 L-9.78 -30.10 L-9.47 -29.15 L-8.47 -29.15 L-8.16 -30.10 L-8.47 -29.15 L-9.28 -28.56 L-8.97 -27.61 L-7.97 -27.61 L-7.66 -28.56 L-8.47 -29.15 L-7.66 -28.56 L-7.35 -27.61 L-6.35 -27.61 L-6.05 -28.56 L-6.85 -29.15 L-7.66 -28.56 L-6.85 -29.15 L-5.85 -29.15 L-5.55 -30.10 L-6.35 -30.69 L-7.16 -30.10 L-6.85 -29.15 L-7.16 -30.10 L-6.85 -31.05 L-7.66 -31.64 L-6.85 -31.05 L-6.05 -31.64 L-6.35 -32.59 L-6.05 -31.64 L-6.35 -30.69 L-5.55 -30.10 L-5.24 -29.15 L-4.24 -29.15 L-3.93 -30.10 L-4.24 -29.15 L-5.05 -28.56 L-4.74 -27.61 L-3.74 -27.61 L-3.43 -28.56 L-4.24 -29.15 L-3.43 -28.56 L-3.12 -27.61 L-2.12 -27.61 L-1.81 -28.56 L-2.62 -29.15 L-3.43 -28.56 L-2.62 -29.15 L-1.62 -29.15 L-1.31 -30.10 L-2.12 -30.69 L-2.93 -30.10 L-2.62 -29.15 L-2.93 -30.10 L-2.62 -31.05 L-3.43 -31.64 L-4.24 -31.05 L-3.93 -30.10 L-2.93 -30.10 L-3.93 -30.10 L-4.74 -30.69 L-5.55 -30.10 L-4.74 -30.69 L-5.05 -31.64 L-6.05 -31.64 L-5.05 -31.64 L-4.24 -31.05 L-3.43 -31.64 L-2.43 -31.64 L-2.12 -32.59 L-2.93 -33.18 L-2.12 -32.59 L-1.81 -31.64 L-0.81 -31.64 L-0.50 -32.59 L-1.31 -33.18 L-2.12 -32.59 L-1.31 -33.18 L-0.31 -33.18 L-0.00 -34.13 L-0.81 -34.72 L-1.62 -34.13 L-1.31 -33.18 L-1.62 -34.13 L-1.31 -35.08 L-2.12 -35.67 L-2.93 -35.08 L-2.62 -34.13 L-1.62 -34.13 L-2.62 -34.13 L-3.43 -34.72 L-4.24 -34.13 L-3.93 -33.18 L-2.93 -33.18 L-2.62 -34.13 L-2.93 -33.18 L-3.74 -32.59 L-3.43 -31.64 L-3.74 -32.59 L-4.74 -32.59 L-5.05 -31.64 L-4.74 -32.59 L-3.93 -33.18 L-4.24 -34.13 L-3.93 -35.08 L-4.74 -35.67 L-5.55 -35.08 L-4.74 -35.67 L-3.74 -35.67 L-3.43 -36.62 L-4.24 -37.21 L-5.05 -36.62 L-4.74 -35.67 L-5.05 -36.62 L-4.74 -37.57 L-5.55 -38.16 L-4.74 -37.57 L-3.93 -38.16 L-4.24 -39.11 L-3.93 -38.16 L-4.24 -37.21 L-3.43 -36.62 L-2.62 -37.21 L-2.93 -38.16 L-3.93 -38.16 L-2.93 -38.16 L-2.12 -37.57 L-1.31 -38.16 L-1.62 -39.11 L-2.62 -39.11 L-2.93 -38.16 L-2.62 -39.11 L-1.81 -39.70 L-2.12 -40.65 L-1.81 -39.70 L-0.81 -39.70 L-0.50 -40.65 L-0.81 -39.70 L-1.62 -39.11 L-1.31 -38.16 L-1.62 -37.21 L-0.81 -36.62 L-0.00 -37.21 L-0.81 -36.62 L-1.81 -36.62 L-2.12 -35.67 L-1.31 -35.08 L-0.50 -35.67 L-0.81 -36.62 L-0.50 -35.67 L-0.81 -34.72 L-0.00 -34.13 L0.31 -33.18 L1.31 -33.18 L1.62 -34.13 L1.31 -33.18 L0.50 -32.59 L0.81 -31.64 L1.81 -31.64 L2.12 -32.59 L1.31 -33.18 L2.12 -32.59 L2.43 -31.64 L3.43 -31.64 L3.74 -32.59 L2.93 -33.18 L2.12 -32.59 L2.93 -33.18 L3.93 -33.18 L4.24 -34.13 L3.93 -33.18 L4.74 -32.59 L5.55 -33.18 L4.74 -32.59 L3.74 -32.59 L3.43 -31.64 L2.62 -31.05 L2.93 -30.10 L3.93 -30.10 L2.93 -30.10 L2.12 -30.69 L1.31 -30.10 L1.62 -29.15 L2.62 -29.15 L2.93 -30.10 L2.62 -29.15 L1.81 -28.56 L2.12 -27.61 L3.12 -27.61 L3.43 -28.56 L2.62 -29.15 L3.43 -28.56 L3.74 -27.61 L4.74 -27.61 L5.05 -28.56 L4.24 -29.15 L3.43 -28.56 L4.24 -29.15 L5.24 -29.15 L5.55 -30.10 L4.74 -30.69 L3.93 -30.10 L4.24 -29.15 L3.93 -30.10 L4.24 -31.05 L3.43 -31.64 L4.24 -31.05 L5.05 -31.64 L4.74 -32.59 L5.05 -31.64 L4.74 -30.69 L5.55 -30.10 L5.85 -29.15 L6.85 -29.15 L7.16 -30.10 L6.85 -29.15 L6.05 -28.56 L6.35 -27.61 L7.35 -27.61 L7.66 -28.56 L6.85 -29.15 L7.66 -28.56 L7.97 -27.61 L8.97 -27.61 L9.28 -28.56 L8.47 -29.15 L7.66 -28.56 L8.47 -29.15 L9.47 -29.15 L9.78 -30.10 L8.97 -30.69 L8.16 -30.10 L8.47 -29.15 L8.16 -30.10 L8.47 -31.05 L7.66 -31.64 L6.85 -31.05 L7.16 -30.10 L8.16 -30.10 L7.16 -30.10 L6.35 -30.69 L5.55 -30.10 L6.35 -30.69 L6.05 -31.64 L5.05 -31.64 L6.05 -31.64 L6.85 -31.05 L7.66 -31.64 L8.66 -31.64 L8.97 -32.59 L8.16 -33.18 L8.97 -32.59 L9.28 -31.64 L10.28 -31.64 L10.59 -32.59 L9.78 -33.18 L8.97 -32.59 L9.78 -33.18 L10.78 -33.18 L11.09 -34.13 L10.28 -34.72 L9.47 -34.13 L9.78 -33.18 L9.47 -34.13 L9.78 -35.08 L8.97 -35.67 L8.16 -35.08 L8.47 -34.13 L9.47 -34.13 L8.47 -34.13 L7.66 -34.72 L6.85 -34.13 L7.16 -33.18 L8.16 -33.18 L8.47 -34.13 L8.16 -33.18 L7.35 -32.59 L7.66 -31.64 L7.35 -32.59 L6.35 -32.59 L6.05 -31.64 L6.35 -32.59 L7.16 -33.18 L6.85 -34.13 L7.16 -35.08 L6.35 -35.67 L5.55 -35.08 L6.35 -35.67 L7.35 -35.67 L7.66 -36.62 L6.85 -37.21 L6.05 -36.62 L6.35 -35.67 L6.05 -36.62 L6.35 -37.57 L5.55 -38.16 L4.74 -37.57 L5.05 -36.62 L6.05 -36.62 L5.05 -36.62 L4.24 -37.21 L3.43 -36.62 L3.74 -35.67 L4.74 -35.67 L5.05 -36.62 L4.74 -35.67 L3.93 -35.08 L4.24 -34.13 L5.24 -34.13 L5.55 -35.08 L4.74 -35.67 L5.55 -35.08 L5.85 -34.13 L6.85 -34.13 L5.85 -34.13 L5.55 -33.18 L6.35 -32.59 L5.55 -33.18 L5.24 -34.13 L4.24 -34.13 L3.43 -34.72 L2.62 -34.13 L2.93 -33.18 L2.62 -34.13 L2.93 -35.08 L2.12 -35.67 L1.31 -35.08 L1.62 -34.13 L2.62 -34.13 L1.62 -34.13 L0.81 -34.72 L-0.00 -34.13 L0.81 -34.72 L0.50 -35.67 L-0.50 -35.67 L0.50 -35.67 L1.31 -35.08 L2.12 -35.67 L1.81 -36.62 L0.81 -36.62 L0.50 -35.67 L0.81 -36.62 L1.62 -37.21 L1.31 -38.16 L0.31 -38.16 L-0.00 -37.21 L0.81 -36.62 L-0.00 -37.21 L-0.31 -38.16 L-1.31 -38.16 L-0.31 -38.16 L-0.00 -39.11 L-0.81 -39.70 L-0.00 -39.11 L0.31 -38.16 L1.31 -38.16 L2.12 -37.57 L2.93 -38.16 L2.62 -39.11 L2.93 -38.16 L2.62 -37.21 L3.43 -36.62 L4.24 -37.21 L3.93 -38.16 L2.93 -38.16 L3.93 -38.16 L4.74 -37.57 L5.55 -38.16 L6.55 -38.16 L6.85 -39.11 L6.05 -39.70 L6.85 -39.11 L7.16 -38.16 L8.16 -38.16 L8.47 -39.11 L7.66 -39.70 L6.85 -39.11 L7.66 -39.70 L8.66 -39.70 L8.97 -40.65 L8.16 -41.24 L7.35 -40.65 L7.66 -39.70 L7.35 -40.65 L7.66 -41.60 L6.85 -42.19 L7.66 -41.60 L8.47 -42.19 L8.16 -43.14 L8.47 -42.19 L8.16 -41.24 L8.97 -40.65 L9.28 -39.70 L10.28 -39.70 L10.59 -40.65 L10.28 -39.70 L9.47 -39.11 L9.78 -38.16 L10.78 -38.16 L11.09 -39.11 L10.28 -39.70 L11.09 -39.11 L11.40 -38.16 L12.40 -38.16 L12.71 -39.11 L11.90 -39.70 L11.09 -39.11 L11.90 -39.70 L12.90 -39.70 L13.21 -40.65 L12.40 -41.24 L11.59 -40.65 L11.90 -39.70 L11.59 -40.65 L11.90 -41.60 L11.09 -42.19 L10.28 -41.60 L10.59 -40.65 L11.59 -40.65 L10.59 -40.65 L9.78 -41.24 L8.97 -40.65 L9.78 -41.24 L9.47 -42.19 L8.47 -42.19 L9.47 -42.19 L10.28 -41.60 L11.09 -42.19 L12.09 -42.19 L12.40 -43.14 L11.59 -43.73 L12.40 -43.14 L12.71 -42.19 L13.71 -42.19 L14.02 -43.14 L13.21 -43.73 L12.40 -43.14 L13.21 -43.73 L14.21 -43.73 L14.52 -44.68 L14.21 -43.73 L15.02 -43.14 L15.83 -43.73 L15.02 -43.14 L14.02 -43.14 L13.71 -42.19 L14.52 -41.60 L15.33 -42.19 L15.02 -43.14 L15.33 -42.19 L15.02 -41.24 L15.83 -40.65 L16.64 -41.24 L16.33 -42.19 L15.33 -42.19 L16.33 -42.19 L17.14 -41.60 L17.94 -42.19 L17.14 -41.60 L17.44 -40.65 L18.44 -40.65 L17.44 -40.65 L16.64 -41.24 L15.83 -40.65 L14.83 -40.65 L14.52 -39.70 L15.33 -39.11 L14.52 -39.70 L14.21 -40.65 L13.21 -40.65 L12.90 -39.70 L13.71 -39.11 L14.52 -39.70 L13.71 -39.11 L12.71 -39.11 L12.40 -38.16 L13.21 -37.57 L14.02 -38.16 L13.71 -39.11 L14.02 -38.16 L13.71 -37.21 L14.52 -36.62 L15.33 -37.21 L15.02 -38.16 L14.02 -38.16 L15.02 -38.16 L15.83 -37.57 L16.64 -38.16 L16.33 -39.11 L15.33 -39.11 L15.02 -38.16 L15.33 -39.11 L16.14 -39.70 L15.83 -40.65 L16.14 -39.70 L17.14 -39.70 L17.44 -40.65 L17.14 -39.70 L16.33 -39.11 L16.64 -38.16 L16.33 -37.21 L17.14 -36.62 L17.94 -37.21 L17.14 -36.62 L16.14 -36.62 L15.83 -35.67 L16.64 -35.08 L17.44 -35.67 L17.14 -36.62 L17.44 -35.67 L17.14 -34.72 L17.94 -34.13 L18.75 -34.72 L18.44 -35.67 L17.44 -35.67 L18.44 -35.67 L19.25 -35.08 L20.06 -35.67 L19.75 -36.62 L18.75 -36.62 L18.44 -35.67 L18.75 -36.62 L19.56 -37.21 L19.25 -38.16 L18.25 -38.16 L17.94 -37.21 L18.75 -36.62 L17.94 -37.21 L17.64 -38.16 L16.64 -38.16 L17.64 -38.16 L17.94 -39.11 L17.14 -39.70 L17.94 -39.11 L18.25 -38.16 L19.25 -38.16 L20.06 -37.57 L20.87 -38.16 L20.56 -39.11 L20.87 -38.16 L20.56 -37.21 L21.37 -36.62 L22.18 -37.21 L21.87 -38.16 L20.87 -38.16 L21.87 -38.16 L22.68 -37.57 L23.49 -38.16 L22.68 -37.57 L22.99 -36.62 L23.99 -36.62 L22.99 -36.62 L22.18 -37.21 L21.37 -36.62 L21.68 -35.67 L22.68 -35.67 L22.99 -36.62 L22.68 -35.67 L21.87 -35.08 L22.18 -34.13 L23.18 -34.13 L23.49 -35.08 L22.68 -35.67 L23.49 -35.08 L23.80 -34.13 L24.80 -34.13 L23.80 -34.13 L23.49 -33.18 L24.30 -32.59 L23.49 -33.18 L23.18 -34.13 L22.18 -34.13 L21.37 -34.72 L20.56 -34.13 L20.87 -33.18 L20.56 -34.13 L20.87 -35.08 L20.06 -35.67 L19.25 -35.08 L19.56 -34.13 L20.56 -34.13 L19.56 -34.13 L18.75 -34.72 L17.94 -34.13 L16.94 -34.13 L16.64 -33.18 L17.44 -32.59 L16.64 -33.18 L16.33 -34.13 L15.33 -34.13 L15.02 -33.18 L15.83 -32.59 L16.64 -33.18 L15.83 -32.59 L14.83 -32.59 L14.52 -31.64 L15.33 -31.05 L16.14 -31.64 L15.83 -32.59 L16.14 -31.64 L15.83 -30.69 L16.64 -30.10 L15.83 -30.69 L15.02 -30.10 L15.33 -29.15 L15.02 -30.10 L15.33 -31.05 L14.52 -31.64 L14.21 -32.59 L13.21 -32.59 L12.90 -31.64 L13.21 -32.59 L14.02 -33.18 L13.71 -34.13 L12.71 -34.13 L12.40 -33.18 L13.21 -32.59 L12.40 -33.18 L12.09 -34.13 L11.09 -34.13 L10.78 -33.18 L11.59 -32.59 L12.40 -33.18 L11.59 -32.59 L10.59 -32.59 L10.28 -31.64 L11.09 -31.05 L11.90 -31.64 L11.59 -32.59 L11.90 -31.64 L11.59 -30.69 L12.40 -30.10 L13.21 -30.69 L12.90 -31.64 L11.90 -31.64 L12.90 -31.64 L13.71 -31.05 L14.52 -31.64 L13.71 -31.05 L14.02 -30.10 L15.02 -30.10 L14.02 -30.10 L13.21 -30.69 L12.40 -30.10 L11.40 -30.10 L11.09 -29.15 L11.90 -28.56 L11.09 -29.15 L10.78 -30.10 L9.78 -30.10 L9.47 -29.15 L10.28 -28.56 L11.09 -29.15 L10.28 -28.56 L9.28 -28.56 L8.97 -27.61 L8.16 -27.03 L8.47 -26.07 L9.47 -26.07 L8.47 -26.07 L7.66 -26.66 L6.85 -26.07 L7.16 -25.12 L8.16 -25.12 L8.47 -26.07 L8.16 -25.12 L7.35 -24.54 L7.66 -23.58 L8.66 -23.58 L8.97 -24.54 L8.16 -25.12 L8.97 -24.54 L9.28 -23.58 L10.28 -23.58 L9.28 -23.58 L8.97 -22.63 L9.78 -22.05 L8.97 -22.63 L8.66 -23.58 L7.66 -23.58 L6.85 -24.17 L6.05 -23.58 L6.35 -22.63 L6.05 -23.58 L6.35 -24.54 L5.55 -25.12 L4.74 -24.54 L5.05 -23.58 L6.05 -23.58 L5.05 -23.58 L4.24 -24.17 L3.43 -23.58 L3.74 -22.63 L4.74 -22.63 L5.05 -23.58 L4.74 -22.63 L3.93 -22.05 L4.24 -21.09 L5.24 -21.09 L5.55 -22.05 L4.74 -22.63 L5.55 -22.05 L5.85 -21.09 L6.85 -21.09 L7.16 -22.05 L6.35 -22.63 L5.55 -22.05 L6.35 -22.63 L7.35 -22.63 L7.66 -23.58 L7.35 -22.63 L8.16 -22.05 L8.97 -22.63 L8.16 -22.05 L7.16 -22.05 L6.85 -21.09 L6.05 -20.51 L6.35 -19.56 L7.35 -19.56 L6.35 -19.56 L5.55 -20.14 L4.74 -19.56 L5.05 -18.60 L6.05 -18.60 L6.35 -19.56 L6.05 -18.60 L5.24 -18.02 L5.55 -17.07 L6.55 -17.07 L6.85 -18.02 L6.05 -18.60 L6.85 -18.02 L7.16 -17.07 L8.16 -17.07 L8.47 -18.02 L7.66 -18.60 L6.85 -18.02 L7.66 -18.60 L8.66 -18.60 L8.97 -19.56 L8.16 -20.14 L7.35 -19.56 L7.66 -18.60 L7.35 -19.56 L7.66 -20.51 L6.85 -21.09 L7.66 -20.51 L8.47 -21.09 L8.16 -22.05 L8.47 -21.09 L8.16 -20.14 L8.97 -19.56 L9.28 -18.60 L10.28 -18.60 L10.59 -19.56 L10.28 -18.60 L9.47 -18.02 L9.78 -17.07 L10.78 -17.07 L11.09 -18.02 L10.28 -18.60 L11.09 -18.02 L11.40 -17.07 L12.40 -17.07 L11.40 -17.07 L11.09 -16.11 L11.90 -15.53 L11.09 -16.11 L10.78 -17.07 L9.78 -17.07 L9.47 -16.11 L10.28 -15.53 L11.09 -16.11 L10.28 -15.53 L9.28 -15.53 L8.97 -14.58 L9.78 -13.99 L10.59 -14.58 L10.28 -15.53 L10.59 -14.58 L10.28 -13.63 L11.09 -13.04 L10.28 -13.63 L9.47 -13.04 L9.78 -12.09 L9.47 -13.04 L9.78 -13.99 L8.97 -14.58 L8.66 -15.53 L7.66 -15.53 L7.35 -14.58 L7.66 -15.53 L8.47 -16.11 L8.16 -17.07 L7.16 -17.07 L6.85 -16.11 L7.66 -15.53 L6.85 -16.11 L6.55 -17.07 L5.55 -17.07 L4.74 -17.65 L3.93 -17.07 L4.24 -16.11 L3.93 -17.07 L4.24 -18.02 L3.43 -18.60 L2.62 -18.02 L2.93 -17.07 L3.93 -17.07 L2.93 -17.07 L2.12 -17.65 L1.31 -17.07 L1.62 -16.11 L2.62 -16.11 L2.93 -17.07 L2.62 -16.11 L1.81 -15.53 L2.12 -14.58 L1.81 -15.53 L0.81 -15.53 L0.50 -14.58 L0.81 -15.53 L1.62 -16.11 L1.31 -17.07 L1.62 -18.02 L0.81 -18.60 L-0.00 -18.02 L0.81 -18.60 L1.81 -18.60 L2.12 -19.56 L1.31 -20.14 L0.50 -19.56 L0.81 -18.60 L0.50 -19.56 L0.81 -20.51 L-0.00 -21.09 L-0.81 -20.51 L-0.50 -19.56 L0.50 -19.56 L-0.50 -19.56 L-1.31 -20.14 L-2.12 -19.56 L-1.81 -18.60 L-0.81 -18.60 L-0.50 -19.56 L-0.81 -18.60 L-1.62 -18.02 L-1.31 -17.07 L-0.31 -17.07 L-0.00 -18.02 L-0.81 -18.60 L-0.00 -18.02 L0.31 -17.07 L1.31 -17.07 L0.31 -17.07 L-0.00 -16.11 L0.81 -15.53 L-0.00 -16.11 L-0.31 -17.07 L-1.31 -17.07 L-2.12 -17.65 L-2.93 -17.07 L-2.62 -16.11 L-2.93 -17.07 L-2.62 -18.02 L-3.43 -18.60 L-4.24 -18.02 L-3.93 -17.07 L-2.93 -17.07 L-3.93 -17.07 L-4.74 -17.65 L-5.55 -17.07 L-5.24 -16.11 L-4.24 -16.11 L-3.93 -17.07 L-4.24 -16.11 L-5.05 -15.53 L-4.74 -14.58 L-3.74 -14.58 L-3.43 -15.53 L-4.24 -16.11 L-3.43 -15.53 L-3.12 -14.58 L-2.12 -14.58 L-1.81 -15.53 L-2.62 -16.11 L-3.43 -15.53 L-2.62 -16.11 L-1.62 -16.11 L-1.31 -17.07 L-1.62 -16.11 L-0.81 -15.53 L-0.00 -16.11 L-0.81 -15.53 L-1.81 -15.53 L-2.12 -14.58 L-2.93 -13.99 L-2.62 -13.04 L-1.62 -13.04 L-2.62 -13.04 L-3.43 -13.63 L-4.24 -13.04 L-3.93 -12.09 L-2.93 -12.09 L-2.62 -13.04 L-2.93 -12.09 L-3.74 -11.50 L-3.43 -10.55 L-2.43 -10.55 L-2.12 -11.50 L-2.93 -12.09 L-2.12 -11.50 L-1.81 -10.55 L-0.81 -10.55 L-0.50 -11.50 L-1.31 -12.09 L-2.12 -11.50 L-1.31 -12.09 L-0.31 -12.09 L-0.00 -13.04 L-0.81 -13.63 L-1.62 -13.04 L-1.31 -12.09 L-1.62 -13.04 L-1.31 -13.99 L-2.12 -14.58 L-1.31 -13.99 L-0.50 -14.58 L-0.81 -15.53 L-0.50 -14.58 L-0.81 -13.63 L-0.00 -13.04 L0.31 -12.09 L1.31 -12.09 L1.62 -13.04 L1.31 -12.09 L0.50 -11.50 L0.81 -10.55 L1.81 -10.55 L2.12 -11.50 L1.31 -12.09 L2.12 -11.50 L2.43 -10.55 L3.43 -10.55 L3.74 -11.50 L2.93 -12.09 L2.12 -11.50 L2.93 -12.09 L3.93 -12.09 L4.24 -13.04 L3.43 -13.63 L2.62 -13.04 L2.93 -12.09 L2.62 -13.04 L2.93 -13.99 L2.12 -14.58 L1.31 -13.99 L1.62 -13.04 L2.62 -13.04 L1.62 -13.04 L0.81 -13.63 L-0.00 -13.04 L0.81 -13.63 L0.50 -14.58 L-0.50 -14.58 L0.50 -14.58 L1.31 -13.99 L2.12 -14.58 L3.12 -14.58 L3.43 -15.53 L2.62 -16.11 L3.43 -15.53 L3.74 -14.58 L4.74 -14.58 L5.05 -15.53 L4.24 -16.11 L3.43 -15.53 L4.24 -16.11 L5.24 -16.11 L5.55 -17.07 L5.24 -16.11 L6.05 -15.53 L6.85 -16.11 L6.05 -15.53 L5.05 -15.53 L4.74 -14.58 L5.55 -13.99 L6.35 -14.58 L6.05 -15.53 L6.35 -14.58 L6.05 -13.63 L6.85 -13.04 L7.66 -13.63 L7.35 -14.58 L6.35 -14.58 L7.35 -14.58 L8.16 -13.99 L8.97 -14.58 L8.16 -13.99 L8.47 -13.04 L9.47 -13.04 L8.47 -13.04 L7.66 -13.63 L6.85 -13.04 L5.85 -13.04 L5.55 -12.09 L6.35 -11.50 L5.55 -12.09 L5.24 -13.04 L4.24 -13.04 L3.93 -12.09 L4.74 -11.50 L5.55 -12.09 L4.74 -11.50 L3.74 -11.50 L3.43 -10.55 L2.62 -9.96 L2.93 -9.01 L3.93 -9.01 L2.93 -9.01 L2.12 -9.60 L1.31 -9.01 L1.62 -8.06 L2.62 -8.06 L2.93 -9.01 L2.62 -8.06 L1.81 -7.47 L2.12 -6.52 L3.12 -6.52 L3.43 -7.47 L2.62 -8.06 L3.43 -7.47 L3.74 -6.52 L4.74 -6.52 L3.74 -6.52 L3.43 -5.57 L4.24 -4.98 L3.43 -5.57 L3.12 -6.52 L2.12 -6.52 L1.31 -7.11 L0.50 -6.52 L0.81 -5.57 L0.50 -6.52 L0.81 -7.47 L-0.00 -8.06 L-0.81 -7.47 L-0.50 -6.52 L0.50 -6.52 L-0.50 -6.52 L-1.31 -7.11 L-2.12 -6.52 L-1.81 -5.57 L-0.81 -5.57 L-0.50 -6.52 L-0.81 -5.57 L-1.62 -4.98 L-1.31 -4.03 L-0.31 -4.03 L-0.00 -4.98 L-0.81 -5.57 L-0.00 -4.98 L0.31 -4.03 L1.31 -4.03 L1.62 -4.98 L0.81 -5.57 L-0.00 -4.98 L0.81 -5.57 L1.81 -5.57 L2.12 -6.52 L1.81 -5.57 L2.62 -4.98 L3.43 -5.57 L2.62 -4.98 L1.62 -4.98 L1.31 -4.03 L0.50 -3.44 L0.81 -2.49 L1.81 -2.49 L0.81 -2.49 L-0.00 -3.08 L-0.81 -2.49 L-0.50 -1.54 L0.50 -1.54 L0.81 -2.49 L0.50 -1.54 L-0.31 -0.95 L-0.00 0.00 "/>
</g>
</svg>

