<svg viewBox="0 0 400.000000 200.816330" xmlns="http://www.w3.org/2000/svg" version="1.1">
<!-- SEED 14892857 -->
<rect width="400.000000" height="200.816330" fill="#DDAADD" fill-opacity="1.000000"/>
<g transform="scale(1.485332,1.363315) translate(13.150001,13.150001) ">
<path stroke="#000000" stroke-opacity="1.000000" stroke-width="0.300000" fill="none" fill-opacity="1" d="M0.00 0.00 L1.00 0.00 L1.00 1.00 L2.00 1.00 L2.00 0.00 L3.00 0.00 L3.00 1.00 L2.00 1.00 L2.00 2.00 L3.00 2.00 L3.00 3.00 L4.00 3.00 L4.00 4.00 L5.00 4.00 L5.00 3.00 L6.00 3.00 L6.00 2.00 L7.00 2.00 L7.00 1.00 L6.00 1.00 L6.00 0.00 L7.00 0.00 L7.00 1.00 L8.00 1.00 L8.00 0.00 L9.00 0.00 L9.00 1.00 L8.00 1.00 L8.00 2.00 L9.00 2.00 L9.00 3.00 L8.00 3.00 L8.00 2.00 L7.00 2.00 L7.00 3.00 L6.00 3.00 L6.00 4.00 L5.00 4.00 L5.00 5.00 L6.00 5.00 L6.00 6.00 L7.00 6.00 L7.00 7.00 L8.00 7.00 L8.00 6.00 L9.00 6.00 L9.00 7.00 L8.00 7.00 L8.00 8.00 L9.00 8.00 L9.00 9.00 L10.00 9.00 L10.00 10.00 L11.00 10.00 L11.00 9.00 L12.00 9.00 L12.00 10.00 L11.00 10.00 L11.00 11.00 L12.00 11.00 L12.00 12.00 L13.00 12.00 L13.00 13.00 L14.00 13.00 L14.00 12.00 L15.00 12.00 L15.00 11.00 L16.00 11.00 L16.00 10.00 L15.00 10.00 L15.00 9.00 L16.00 9.00 L16.00 10.00 L17.00 10.00 L17.00 9.00 L18.00 9.00 L18.00 8.00 L19.00 8.00 L19.00 7.00 L18.00 7.00 L18.00 6.00 L19.00 6.00 L19.00 7.00 L20.00 7.00 L20.00 6.00 L21.00 6.00 L21.00 5.00 L22.00 5.00 L22.00 4.00 L21.00 4.00 L21.00 3.00 L20.00 3.00 L20.00 2.00 L19.00 2.00 L19.00 3.00 L18.00 3.00 L18.00 2.00 L19.00 2.00 L19.00 1.00 L18.00 1.00 L18.00 0.00 L19.00 0.00 L19.00 1.00 L20.00 1.00 L20.00 0.00 L21.00 0.00 L21.00 1.00 L20.00 1.00 L20.00 2.00 L21.00 2.00 L21.00 3.00 L22.00 3.00 L22.00 4.00 L23.00 4.00 L23.00 3.00 L24.00 3.00 L24.00 2.00 L25.00 2.00 L25.00 1.00 L24.00 1.00 L24.00 0.00 L25.00 0.00 L25.00 1.00 L26.00 1.00 L26.00 0.00 L27.00 0.00 L27.00 1.00 L26.00 1.00 L26.00 2.00 L27.00 2.00 L27.00 3.00 L26.00 3.00 L26.00 2.00 L25.00 2.00 L25.00 3.00 L24.00 3.00 L24.00 4.00 L23.00 4.00 L23.00 5.00 L24.00 5.00 L24.00 6.00 L25.00 6.00 L25.00 7.00 L26.00 7.00 L26.00 6.00 L27.00 6.00 L27.00 7.00 L26.00 7.00 L26.00 8.00 L27.00 8.00 L27.00 9.00 L26.00 9.00 L26.00 8.00 L25.00 8.00 L25.00 9.00 L24.00 9.00 L24.00 8.00 L25.00 8.00 L25.00 7.00 L24.00 7.00 L24.00 6.00 L23.00 6.00 L23.00 5.00 L22.00 5.00 L22.00 6.00 L21.00 6.00 L21.00 7.00 L20.00 7.00 L20.00 8.00 L21.00 8.00 L21.00 9.00 L20.00 9.00 L20.00 8.00 L19.00 8.00 L19.00 9.00 L18.00 9.00 L18.00 10.00 L17.00 10.00 L17.00 11.00 L18.00 11.00 L18.00 12.00 L17.00 12.00 L17.00 11.00 L16.00 11.00 L16.00 12.00 L15.00 12.00 L15.00 13.00 L14.00 13.00 L14.00 14.00 L15.00 14.00 L15.00 15.00 L16.00 15.00 L16.00 16.00 L17.00 16.00 L17.00 15.00 L18.00 15.00 L18.00 16.00 L17.00 16.00 L17.00 17.00 L18.00 17.00 L18.00 18.00 L19.00 18.00 L19.00 19.00 L20.00 19.00 L20.00 18.00 L21.00 18.00 L21.00 19.00 L20.00 19.00 L20.00 20.00 L21.00 20.00 L21.00 21.00 L22.00 21.00 L22.00 22.00 L23.00 22.00 L23.00 21.00 L24.00 21.00 L24.00 20.00 L25.00 20.00 L25.00 19.00 L24.00 19.00 L24.00 18.00 L25.00 18.00 L25.00 19.00 L26.00 19.00 L26.00 18.00 L27.00 18.00 L27.00 19.00 L26.00 19.00 L26.00 20.00 L27.00 20.00 L27.00 21.00 L26.00 21.00 L26.00 20.00 L25.00 20.00 L25.00 21.00 L24.00 21.00 L24.00 22.00 L23.00 22.00 L23.00 23.00 L24.00 23.00 L24.00 24.00 L25.00 24.00 L25.00 25.00 L26.00 25.00 L26.00 24.00 L27.00 24.00 L27.00 25.00 L26.00 25.00 L26.00 26.00 L27.00 26.00 L27.00 27.00 L28.00 27.00 L28.00 28.00 L29.00 28.00 L29.00 27.00 L30.00 27.00 L30.00 28.00 L29.00 28.00 L29.00 29.00 L30.00 29.00 L30.00 30.00 L31.00 30.00 L31.00 31.00 L32.00 31.00 L32.00 30.00 L33.00 30.00 L33.00 29.00 L34.00 29.00 L34.00 28.00 L33.00 28.00 L33.00 27.00 L34.00 27.00 L34.00 28.00 L35.00 28.00 L35.00 27.00 L36.00 27.00 L36.00 28.00 L35.00 28.00 L35.00 29.00 L36.00 29.00 L36.00 30.00 L35.00 30.00 L35.00 29.00 L34.00 29.00 L34.00 30.00 L33.00 30.00 L33.00 31.00 L32.00 31.00 L32.00 32.00 L33.00 32.00 L33.00 33.00 L34.00 33.00 L34.00 34.00 L35.00 34.00 L35.00 33.00 L36.00 33.00 L36.00 34.00 L35.00 34.00 L35.00 35.00 L36.00 35.00 L36.00 36.00 L37.00 36.00 L37.00 37.00 L38.00 37.00 L38.00 36.00 L39.00 36.00 L39.00 37.00 L38.00 37.00 L38.00 38.00 L39.00 38.00 L39.00 39.00 L40.00 39.00 L40.00 40.00 L41.00 40.00 L41.00 39.00 L42.00 39.00 L42.00 38.00 L43.00 38.00 L43.00 37.00 L42.00 37.00 L42.00 36.00 L43.00 36.00 L43.00 37.00 L44.00 37.00 L44.00 36.00 L45.00 36.00 L45.00 35.00 L46.00 35.00 L46.00 34.00 L45.00 34.00 L45.00 33.00 L46.00 33.00 L46.00 34.00 L47.00 34.00 L47.00 33.00 L48.00 33.00 L48.00 32.00 L49.00 32.00 L49.00 31.00 L48.00 31.00 L48.00 30.00 L47.00 30.00 L47.00 29.00 L46.00 29.00 L46.00 30.00 L45.00 30.00 L45.00 29.00 L46.00 29.00 L46.00 28.00 L45.00 28.00 L45.00 27.00 L46.00 27.00 L46.00 28.00 L47.00 28.00 L47.00 27.00 L48.00 27.00 L48.00 28.00 L47.00 28.00 L47.00 29.00 L48.00 29.00 L48.00 30.00 L49.00 30.00 L49.00 31.00 L50.00 31.00 L50.00 30.00 L51.00 30.00 L51.00 29.00 L52.00 29.00 L52.00 28.00 L51.00 28.00 L51.00 27.00 L52.00 27.00 L52.00 28.00 L53.00 28.00 L53.00 27.00 L54.00 27.00 L54.00 26.00 L55.00 26.00 L55.00 25.00 L54.00 25.00 L54.00 24.00 L55.00 24.00 L55.00 25.00 L56.00 25.00 L56.00 24.00 L57.00 24.00 L57.00 23.00 L58.00 23.00 L58.00 22.00 L57.00 22.00 L57.00 21.00 L56.00 21.00 L56.00 20.00 L55.00 20.00 L55.00 21.00 L54.00 21.00 L54.00 20.00 L55.00 20.00 L55.00 19.00 L54.00 19.00 L54.00 18.00 L55.00 18.00 L55.00 19.00 L56.00 19.00 L56.00 18.00 L57.00 18.00 L57.00 19.00 L56.00 19.00 L56.00 20.00 L57.00 20.00 L57.00 21.00 L58.00 21.00 L58.00 22.00 L59.00 22.00 L59.00 21.00 L60.00 21.00 L60.00 20.00 L61.00 20.00 L61.00 19.00 L60.00 19.00 L60.00 18.00 L61.00 18.00 L61.00 19.00 L62.00 19.00 L62.00 18.00 L63.00 18.00 L63.00 17.00 L64.00 17.00 L64.00 16.00 L63.00 16.00 L63.00 15.00 L64.00 15.00 L64.00 16.00 L65.00 16.00 L65.00 15.00 L66.00 15.00 L66.00 14.00 L67.00 14.00 L67.00 13.00 L66.00 13.00 L66.00 12.00 L65.00 12.00 L65.00 11.00 L64.00 11.00 L64.00 12.00 L63.00 12.00 L63.00 11.00 L64.00 11.00 L64.00 10.00 L63.00 10.00 L63.00 9.00 L62.00 9.00 L62.00 8.00 L61.00 8.00 L61.00 9.00 L60.00 9.00 L60.00 8.00 L61.00 8.00 L61.00 7.00 L60.00 7.00 L60.00 6.00 L59.00 6.00 L59.00 5.00 L58.00 5.00 L58.00 6.00 L57.00 6.00 L57.00 7.00 L56.00 7.00 L56.00 8.00 L57.00 8.00 L57.00 9.00 L56.00 9.00 L56.00 8.00 L55.00 8.00 L55.00 9.00 L54.00 9.00 L54.00 8.00 L55.00 8.00 L55.00 7.00 L54.00 7.00 L54.00 6.00 L55.00 6.00 L55.00 7.00 L56.00 7.00 L56.00 6.00 L57.00 6.00 L57.00 5.00 L58.00 5.00 L58.00 4.00 L57.00 4.00 L57.00 3.00 L56.00 3.00 L56.00 2.00 L55.00 2.00 L55.00 3.00 L54.00 3.00 L54.00 2.00 L55.00 2.00 L55.00 1.00 L54.00 1.00 L54.00 0.00 L55.00 0.00 L55.00 1.00 L56.00 1.00 L56.00 0.00 L57.00 0.00 L57.00 1.00 L56.00 1.00 L56.00 2.00 L57.00 2.00 L57.00 3.00 L58.00 3.00 L58.00 4.00 L59.00 4.00 L59.00 3.00 L60.00 3.00 L60.00 2.00 L61.00 2.00 L61.00 1.00 L60.00 1.00 L60.00 0.00 L61.00 0.00 L61.00 1.00 L62.00 1.00 L62.00 0.00 L63.00 0.00 L63.00 1.00 L62.00 1.00 L62.00 2.00 L63.00 2.00 L63.00 3.00 L62.00 3.00 L62.00 2.00 L61.00 2.00 L61.00 3.00 L60.00 3.00 L60.00 4.00 L59.00 4.00 L59.00 5.00 L60.00 5.00 L60.00 6.00 L61.00 6.00 L61.00 7.00 L62.00 7.00 L62.00 6.00 L63.00 6.00 L63.00 7.00 L62.00 7.00 L62.00 8.00 L63.00 8.00 L63.00 9.00 L64.00 9.00 L64.00 10.00 L65.00 10.00 L65.00 9.00 L66.00 9.00 L66.00 10.00 L65.00 10.00 L65.00 11.00 L66.00 11.00 L66.00 12.00 L67.00 12.00 L67.00 13.00 L68.00 13.00 L68.00 12.00 L69.00 12.00 L69.00 11.00 L70.00 11.00 L70.00 10.00 L69.00 10.00 L69.00 9.00 L70.00 9.00 L70.00 10.00 L71.00 10.00 L71.00 9.00 L72.00 9.00 L72.00 8.00 L73.00 8.00 L73.00 7.00 L72.00 7.00 L72.00 6.00 L73.00 6.00 L73.00 7.00 L74.00 7.00 L74.00 6.00 L75.00 6.00 L75.00 5.00 L76.00 5.00 L76.00 4.00 L75.00 4.00 L75.00 3.00 L74.00 3.00 L74.00 2.00 L73.00 2.00 L73.00 3.00 L72.00 3.00 L72.00 2.00 L73.00 2.00 L73.00 1.00 L72.00 1.00 L72.00 0.00 L73.00 0.00 L73.00 1.00 L74.00 1.00 L74.00 0.00 L75.00 0.00 L75.00 1.00 L74.00 1.00 L74.00 2.00 L75.00 2.00 L75.00 3.00 L76.00 3.00 L76.00 4.00 L77.00 4.00 L77.00 3.00 L78.00 3.00 L78.00 2.00 L79.00 2.00 L79.00 1.00 L78.00 1.00 L78.00 0.00 L79.00 0.00 L79.00 1.00 L80.00 1.00 L80.00 0.00 L81.00 0.00 L81.00 1.00 L80.00 1.00 L80.00 2.00 L81.00 2.00 L81.00 3.00 L80.00 3.00 L80.00 2.00 L79.00 2.00 L79.00 3.00 L78.00 3.00 L78.00 4.00 L77.00 4.00 L77.00 5.00 L78.00 5.00 L78.00 6.00 L79.00 6.00 L79.00 7.00 L80.00 7.00 L80.00 6.00 L81.00 6.00 L81.00 7.00 L80.00 7.00 L80.00 8.00 L81.00 8.00 L81.00 9.00 L80.00 9.00 L80.00 8.00 L79.00 8.00 L79.00 9.00 L78.00 9.00 L78.00 8.00 L79.00 8.00 L79.00 7.00 L78.00 7.00 L78.00 6.00 L77.00 6.00 L77.00 5.00 L76.00 5.00 L76.00 6.00 L75.00 6.00 L75.00 7.00 L74.00 7.00 L74.00 8.00 L75.00 8.00 L75.00 9.00 L74.00 9.00 L74.00 8.00 L73.00 8.00 L73.00 9.00 L72.00 9.00 L72.00 10.00 L71.00 10.00 L71.00 11.00 L72.00 11.00 L72.00 12.00 L71.00 12.00 L71.00 11.00 L70.00 11.00 L70.00 12.00 L69.00 12.00 L69.00 13.00 L68.00 13.00 L68.00 14.00 L69.00 14.00 L69.00 15.00 L70.00 15.00 L70.00 16.00 L71.00 16.00 L71.00 15.00 L72.00 15.00 L72.00 16.00 L71.00 16.00 L71.00 17.00 L72.00 17.00 L72.00 18.00 L73.00 18.00 L73.00 19.00 L74.00 19.00 L74.00 18.00 L75.00 18.00 L75.00 19.00 L74.00 19.00 L74.00 20.00 L75.00 20.00 L75.00 21.00 L76.00 21.00 L76.00 22.00 L77.00 22.00 L77.00 21.00 L78.00 21.00 L78.00 20.00 L79.00 20.00 L79.00 19.00 L78.00 19.00 L78.00 18.00 L79.00 18.00 L79.00 19.00 L80.00 19.00 L80.00 18.00 L81.00 18.00 L81.00 19.00 L80.00 19.00 L80.00 20.00 L81.00 20.00 L81.00 21.00 L80.00 21.00 L80.00 20.00 L79.00 20.00 L79.00 21.00 L78.00 21.00 L78.00 22.00 L77.00 22.00 L77.00 23.00 L78.00 23.00 L78.00 24.00 L79.00 24.00 L79.00 25.00 L80.00 25.00 L80.00 24.00 L81.00 24.00 L81.00 25.00 L80.00 25.00 L80.00 26.00 L81.00 26.00 L81.00 27.00 L80.00 27.00 L80.00 26.00 L79.00 26.00 L79.00 27.00 L78.00 27.00 L78.00 26.00 L79.00 26.00 L79.00 25.00 L78.00 25.00 L78.00 24.00 L77.00 24.00 L77.00 23.00 L76.00 23.00 L76.00 24.00 L75.00 24.00 L75.00 25.00 L74.00 25.00 L74.00 26.00 L75.00 26.00 L75.00 27.00 L74.00 27.00 L74.00 26.00 L73.00 26.00 L73.00 27.00 L72.00 27.00 L72.00 26.00 L73.00 26.00 L73.00 25.00 L72.00 25.00 L72.00 24.00 L73.00 24.00 L73.00 25.00 L74.00 25.00 L74.00 24.00 L75.00 24.00 L75.00 23.00 L76.00 23.00 L76.00 22.00 L75.00 22.00 L75.00 21.00 L74.00 21.00 L74.00 20.00 L73.00 20.00 L73.00 21.00 L72.00 21.00 L72.00 20.00 L73.00 20.00 L73.00 19.00 L72.00 19.00 L72.00 18.00 L71.00 18.00 L71.00 17.00 L70.00 17.00 L70.00 18.00 L69.00 18.00 L69.00 17.00 L70.00 17.00 L70.00 16.00 L69.00 16.00 L69.00 15.00 L68.00 15.00 L68.00 14.00 L67.00 14.00 L67.00 15.00 L66.00 15.00 L66.00 16.00 L65.00 16.00 L65.00 17.00 L66.00 17.00 L66.00 18.00 L65.00 18.00 L65.00 17.00 L64.00 17.00 L64.00 18.00 L63.00 18.00 L63.00 19.00 L62.00 19.00 L62.00 20.00 L63.00 20.00 L63.00 21.00 L62.00 21.00 L62.00 20.00 L61.00 20.00 L61.00 21.00 L60.00 21.00 L60.00 22.00 L59.00 22.00 L59.00 23.00 L60.00 23.00 L60.00 24.00 L61.00 24.00 L61.00 25.00 L62.00 25.00 L62.00 24.00 L63.00 24.00 L63.00 25.00 L62.00 25.00 L62.00 26.00 L63.00 26.00 L63.00 27.00 L62.00 27.00 L62.00 26.00 L61.00 26.00 L61.00 27.00 L60.00 27.00 L60.00 26.00 L61.00 26.00 L61.00 25.00 L60.00 25.00 L60.00 24.00 L59.00 24.00 L59.00 23.00 L58.00 23.00 L58.00 24.00 L57.00 24.00 L57.00 25.00 L56.00 25.00 L56.00 26.00 L57.00 26.00 L57.00 27.00 L56.00 27.00 L56.00 26.00 L55.00 26.00 L55.00 27.00 L54.00 27.00 L54.00 28.00 L53.00 28.00 L53.00 29.00 L54.00 29.00 L54.00 30.00 L53.00 30.00 L53.00 29.00 L52.00 29.00 L52.00 30.00 L51.00 30.00 L51.00 31.00 L50.00 31.00 L50.00 32.00 L51.00 32.00 L51.00 33.00 L52.00 33.00 L52.00 34.00 L53.00 34.00 L53.00 33.00 L54.00 33.00 L54.00 34.00 L53.00 34.00 L53.00 35.00 L54.00 35.00 L54.00 36.00 L53.00 36.00 L53.00 35.00 L52.00 35.00 L52.00 36.00 L51.00 36.00 L51.00 35.00 L52.00 35.00 L52.00 34.00 L51.00 34.00 L51.00 33.00 L50.00 33.00 L50.00 32.00 L49.00 32.00 L49.00 33.00 L48.00 33.00 L48.00 34.00 L47.00 34.00 L47.00 35.00 L48.00 35.00 L48.00 36.00 L47.00 36.00 L47.00 35.00 L46.00 35.00 L46.00 36.00 L45.00 36.00 L45.00 37.00 L44.00 37.00 L44.00 38.00 L45.00 38.00 L45.00 39.00 L44.00 39.00 L44.00 38.00 L43.00 38.00 L43.00 39.00 L42.00 39.00 L42.00 40.00 L41.00 40.00 L41.00 41.00 L42.00 41.00 L42.00 42.00 L43.00 42.00 L43.00 43.00 L44.00 43.00 L44.00 42.00 L45.00 42.00 L45.00 43.00 L44.00 43.00 L44.00 44.00 L45.00 44.00 L45.00 45.00 L46.00 45.00 L46.00 46.00 L47.00 46.00 L47.00 45.00 L48.00 45.00 L48.00 46.00 L47.00 46.00 L47.00 47.00 L48.00 47.00 L48.00 48.00 L49.00 48.00 L49.00 49.00 L50.00 49.00 L50.00 48.00 L51.00 48.00 L51.00 47.00 L52.00 47.00 L52.00 46.00 L51.00 46.00 L51.00 45.00 L52.00 45.00 L52.00 46.00 L53.00 46.00 L53.00 45.00 L54.00 45.00 L54.00 46.00 L53.00 46.00 L53.00 47.00 L54.00 47.00 L54.00 48.00 L53.00 48.00 L53.00 47.00 L52.00 47.00 L52.00 48.00 L51.00 48.00 L51.00 49.00 L50.00 49.00 L50.00 50.00 L51.00 50.00 L51.00 51.00 L52.00 51.00 L52.00 52.00 L53.00 52.00 L53.00 51.00 L54.00 51.00 L54.00 52.00 L53.00 52.00 L53.00 53.00 L54.00 53.00 L54.00 54.00 L55.00 54.00 L55.00 55.00 L56.00 55.00 L56.00 54.00 L57.00 54.00 L57.00 55.00 L56.00 55.00 L56.00 56.00 L57.00 56.00 L57.00 57.00 L58.00 57.00 L58.00 58.00 L59.00 58.00 L59.00 57.00 L60.00 57.00 L60.00 56.00 L61.00 56.00 L61.00 55.00 L60.00 55.00 L60.00 54.00 L61.00 54.00 L61.00 55.00 L62.00 55.00 L62.00 54.00 L63.00 54.00 L63.00 55.00 L62.00 55.00 L62.00 56.00 L63.00 56.00 L63.00 57.00 L62.00 57.00 L62.00 56.00 L61.00 56.00 L61.00 57.00 L60.00 57.00 L60.00 58.00 L59.00 58.00 L59.00 59.00 L60.00 59.00 L60.00 60.00 L61.00 60.00 L61.00 61.00 L62.00 61.00 L62.00 60.00 L63.00 60.00 L63.00 61.00 L62.00 61.00 L62.00 62.00 L63.00 62.00 L63.00 63.00 L64.00 63.00 L64.00 64.00 L65.00 64.00 L65.00 63.00 L66.00 63.00 L66.00 64.00 L65.00 64.00 L65.00 65.00 L66.00 65.00 L66.00 66.00 L67.00 66.00 L67.00 67.00 L68.00 67.00 L68.00 66.00 L69.00 66.00 L69.00 65.00 L70.00 65.00 L70.00 64.00 L69.00 64.00 L69.00 63.00 L70.00 63.00 L70.00 64.00 L71.00 64.00 L71.00 63.00 L72.00 63.00 L72.00 62.00 L73.00 62.00 L73.00 61.00 L72.00 61.00 L72.00 60.00 L73.00 60.00 L73.00 61.00 L74.00 61.00 L74.00 60.00 L75.00 60.00 L75.00 59.00 L76.00 59.00 L76.00 58.00 L75.00 58.00 L75.00 57.00 L74.00 57.00 L74.00 56.00 L73.00 56.00 L73.00 57.00 L72.00 57.00 L72.00 56.00 L73.00 56.00 L73.00 55.00 L72.00 55.00 L72.00 54.00 L73.00 54.00 L73.00 55.00 L74.00 55.00 L74.00 54.00 L75.00 54.00 L75.00 55.00 L74.00 55.00 L74.00 56.00 L75.00 56.00 L75.00 57.00 L76.00 57.00 L76.00 58.00 L77.00 58.00 L77.00 57.00 L78.00 57.00 L78.00 56.00 L79.00 56.00 L79.00 55.00 L78.00 55.00 L78.00 54.00 L79.00 54.00 L79.00 55.00 L80.00 55.00 L80.00 54.00 L81.00 54.00 L81.00 55.00 L80.00 55.00 L80.00 56.00 L81.00 56.00 L81.00 57.00 L80.00 57.00 L80.00 56.00 L79.00 56.00 L79.00 57.00 L78.00 57.00 L78.00 58.00 L77.00 58.00 L77.00 59.00 L78.00 59.00 L78.00 60.00 L79.00 60.00 L79.00 61.00 L80.00 61.00 L80.00 60.00 L81.00 60.00 L81.00 61.00 L80.00 61.00 L80.00 62.00 L81.00 62.00 L81.00 63.00 L80.00 63.00 L80.00 62.00 L79.00 62.00 L79.00 63.00 L78.00 63.00 L78.00 62.00 L79.00 62.00 L79.00 61.00 L78.00 61.00 L78.00 60.00 L77.00 60.00 L77.00 59.00 L76.00 59.00 L76.00 60.00 L75.00 60.00 L75.00 61.00 L74.00 61.00 L74.00 62.00 L75.00 62.00 L75.00 63.00 L74.00 63.00 L74.00 62.00 L73.00 62.00 L73.00 63.00 L72.00 63.00 L72.00 64.00 L71.00 64.00 L71.00 65.00 L72.00 65.00 L72.00 66.00 L71.00 66.00 L71.00 65.00 L70.00 65.00 L70.00 66.00 L69.00 66.00 L69.00 67.00 L68.00 67.00 L68.00 68.00 L69.00 68.00 L69.00 69.00 L70.00 69.00 L70.00 70.00 L71.00 70.00 L71.00 69.00 L72.00 69.00 L72.00 70.00 L71.00 70.00 L71.00 71.00 L72.00 71.00 L72.00 72.00 L73.00 72.00 L73.00 73.00 L74.00 73.00 L74.00 72.00 L75.00 72.00 L75.00 73.00 L74.00 73.00 L74.00 74.00 L75.00 74.00 L75.00 75.00 L76.00 75.00 L76.00 76.00 L77.00 76.00 L77.00 75.00 L78.00 75.00 L78.00 74.00 L79.00 74.00 L79.00 73.00 L78.00 73.00 L78.00 72.00 L79.00 72.00 L79.00 73.00 L80.00 73.00 L80.00 72.00 L81.00 72.00 L81.00 73.00 L80.00 73.00 L80.00 74.00 L81.00 74.00 L81.00 75.00 L80.00 75.00 L80.00 74.00 L79.00 74.00 L79.00 75.00 L78.00 75.00 L78.00 76.00 L77.00 76.00 L77.00 77.00 L78.00 77.00 L78.00 78.00 L79.00 78.00 L79.00 79.00 L80.00 79.00 L80.00 78.00 L81.00 78.00 L81.00 79.00 L80.00 79.00 L80.00 80.00 L81.00 80.00 L81.00 81.00 L82.00 81.00 L82.00 82.00 L83.00 82.00 L83.00 81.00 L84.00 81.00 L84.00 82.00 L83.00 82.00 L83.00 83.00 L84.00 83.00 L84.00 84.00 L85.00 84.00 L85.00 85.00 L86.00 85.00 L86.00 84.00 L87.00 84.00 L87.00 83.00 L88.00 83.00 L88.00 82.00 L87.00 82.00 L87.00 81.00 L88.00 81.00 L88.00 82.00 L89.00 82.00 L89.00 81.00 L90.00 81.00 L90.00 82.00 L89.00 82.00 L89.00 83.00 L90.00 83.00 L90.00 84.00 L89.00 84.00 L89.00 83.00 L88.00 83.00 L88.00 84.00 L87.00 84.00 L87.00 85.00 L86.00 85.00 L86.00 86.00 L87.00 86.00 L87.00 87.00 L88.00 87.00 L88.00 88.00 L89.00 88.00 L89.00 87.00 L90.00 87.00 L90.00 88.00 L89.00 88.00 L89.00 89.00 L90.00 89.00 L90.00 90.00 L91.00 90.00 L91.00 91.00 L92.00 91.00 L92.00 90.00 L93.00 90.00 L93.00 91.00 L92.00 91.00 L92.00 92.00 L93.00 92.00 L93.00 93.00 L94.00 93.00 L94.00 94.00 L95.00 94.00 L95.00 93.00 L96.00 93.00 L96.00 92.00 L97.00 92.00 L97.00 91.00 L96.00 91.00 L96.00 90.00 L97.00 90.00 L97.00 91.00 L98.00 91.00 L98.00 90.00 L99.00 90.00 L99.00 89.00 L100.00 89.00 L100.00 88.00 L99.00 88.00 L99.00 87.00 L100.00 87.00 L100.00 88.00 L101.00 88.00 L101.00 87.00 L102.00 87.00 L102.00 86.00 L103.00 86.00 L103.00 85.00 L102.00 85.00 L102.00 84.00 L101.00 84.00 L101.00 83.00 L100.00 83.00 L100.00 84.00 L99.00 84.00 L99.00 83.00 L100.00 83.00 L100.00 82.00 L99.00 82.00 L99.00 81.00 L100.00 81.00 L100.00 82.00 L101.00 82.00 L101.00 81.00 L102.00 81.00 L102.00 82.00 L101.00 82.00 L101.00 83.00 L102.00 83.00 L102.00 84.00 L103.00 84.00 L103.00 85.00 L104.00 85.00 L104.00 84.00 L105.00 84.00 L105.00 83.00 L106.00 83.00 L106.00 82.00 L105.00 82.00 L105.00 81.00 L106.00 81.00 L106.00 82.00 L107.00 82.00 L107.00 81.00 L108.00 81.00 L108.00 82.00 L107.00 82.00 L107.00 83.00 L108.00 83.00 L108.00 84.00 L107.00 84.00 L107.00 83.00 L106.00 83.00 L106.00 84.00 L105.00 84.00 L105.00 85.00 L104.00 85.00 L104.00 86.00 L105.00 86.00 L105.00 87.00 L106.00 87.00 L106.00 88.00 L107.00 88.00 L107.00 87.00 L108.00 87.00 L108.00 88.00 L107.00 88.00 L107.00 89.00 L108.00 89.00 L108.00 90.00 L107.00 90.00 L107.00 89.00 L106.00 89.00 L106.00 90.00 L105.00 90.00 L105.00 89.00 L106.00 89.00 L106.00 88.00 L105.00 88.00 L105.00 87.00 L104.00 87.00 L104.00 86.00 L103.00 86.00 L103.00 87.00 L102.00 87.00 L102.00 88.00 L101.00 88.00 L101.00 89.00 L102.00 89.00 L102.00 90.00 L101.00 90.00 L101.00 89.00 L100.00 89.00 L100.00 90.00 L99.00 90.00 L99.00 91.00 L98.00 91.00 L98.00 92.00 L99.00 92.00 L99.00 93.00 L98.00 93.00 L98.00 92.00 L97.00 92.00 L97.00 93.00 L96.00 93.00 L96.00 94.00 L95.00 94.00 L95.00 95.00 L96.00 95.00 L96.00 96.00 L97.00 96.00 L97.00 97.00 L98.00 97.00 L98.00 96.00 L99.00 96.00 L99.00 97.00 L98.00 97.00 L98.00 98.00 L99.00 98.00 L99.00 99.00 L100.00 99.00 L100.00 100.00 L101.00 100.00 L101.00 99.00 L102.00 99.00 L102.00 100.00 L101.00 100.00 L101.00 101.00 L102.00 101.00 L102.00 102.00 L103.00 102.00 L103.00 103.00 L104.00 103.00 L104.00 102.00 L105.00 102.00 L105.00 101.00 L106.00 101.00 L106.00 100.00 L105.00 100.00 L105.00 99.00 L106.00 99.00 L106.00 100.00 L107.00 100.00 L107.00 99.00 L108.00 99.00 L108.00 100.00 L107.00 100.00 L107.00 101.00 L108.00 101.00 L108.00 102.00 L107.00 102.00 L107.00 101.00 L106.00 101.00 L106.00 102.00 L105.00 102.00 L105.00 103.00 L104.00 103.00 L104.00 104.00 L105.00 104.00 L105.00 105.00 L106.00 105.00 L106.00 106.00 L107.00 106.00 L107.00 105.00 L108.00 105.00 L108.00 106.00 L107.00 106.00 L107.00 107.00 L108.00 107.00 L108.00 108.00 L109.00 108.00 L109.00 109.00 L110.00 109.00 L110.00 108.00 L111.00 108.00 L111.00 109.00 L110.00 109.00 L110.00 110.00 L111.00 110.00 L111.00 111.00 L112.00 111.00 L112.00 112.00 L113.00 112.00 L113.00 111.00 L114.00 111.00 L114.00 110.00 L115.00 110.00 L115.00 109.00 L114.00 109.00 L114.00 108.00 L115.00 108.00 L115.00 109.00 L116.00 109.00 L116.00 108.00 L117.00 108.00 L117.00 109.00 L116.00 109.00 L116.00 110.00 L117.00 110.00 L117.00 111.00 L116.00 111.00 L116.00 110.00 L115.00 110.00 L115.00 111.00 L114.00 111.00 L114.00 112.00 L113.00 112.00 L113.00 113.00 L114.00 113.00 L114.00 114.00 L115.00 114.00 L115.00 115.00 L116.00 115.00 L116.00 114.00 L117.00 114.00 L117.00 115.00 L116.00 115.00 L116.00 116.00 L117.00 116.00 L117.00 117.00 L118.00 117.00 L118.00 118.00 L119.00 118.00 L119.00 117.00 L120.00 117.00 L120.00 118.00 L119.00 118.00 L119.00 119.00 L120.00 119.00 L120.00 120.00 L121.00 120.00 L121.00 121.00 L122.00 121.00 L122.00 120.00 L123.00 120.00 L123.00 119.00 L124.00 119.00 L124.00 118.00 L123.00 118.00 L123.00 117.00 L124.00 117.00 L124.00 118.00 L125.00 118.00 L125.00 117.00 L126.00 117.00 L126.00 116.00 L127.00 116.00 L127.00 115.00 L126.00 115.00 L126.00 114.00 L127.00 114.00 L127.00 115.00 L128.00 115.00 L128.00 114.00 L129.00 114.00 L129.00 113.00 L130.00 113.00 L130.00 112.00 L129.00 112.00 L129.00 111.00 L128.00 111.00 L128.00 110.00 L127.00 110.00 L127.00 111.00 L126.00 111.00 L126.00 110.00 L127.00 110.00 L127.00 109.00 L126.00 109.00 L126.00 108.00 L127.00 108.00 L127.00 109.00 L128.00 109.00 L128.00 108.00 L129.00 108.00 L129.00 109.00 L128.00 109.00 L128.00 110.00 L129.00 110.00 L129.00 111.00 L130.00 111.00 L130.00 112.00 L131.00 112.00 L131.00 111.00 L132.00 111.00 L132.00 110.00 L133.00 110.00 L133.00 109.00 L132.00 109.00 L132.00 108.00 L133.00 108.00 L133.00 109.00 L134.00 109.00 L134.00 108.00 L135.00 108.00 L135.00 107.00 L136.00 107.00 L136.00 106.00 L135.00 106.00 L135.00 105.00 L136.00 105.00 L136.00 106.00 L137.00 106.00 L137.00 105.00 L138.00 105.00 L138.00 104.00 L139.00 104.00 L139.00 103.00 L138.00 103.00 L138.00 102.00 L137.00 102.00 L137.00 101.00 L136.00 101.00 L136.00 102.00 L135.00 102.00 L135.00 101.00 L136.00 101.00 L136.00 100.00 L135.00 100.00 L135.00 99.00 L136.00 99.00 L136.00 100.00 L137.00 100.00 L137.00 99.00 L138.00 99.00 L138.00 100.00 L137.00 100.00 L137.00 101.00 L138.00 101.00 L138.00 102.00 L139.00 102.00 L139.00 103.00 L140.00 103.00 L140.00 102.00 L141.00 102.00 L141.00 101.00 L142.00 101.00 L142.00 100.00 L141.00 100.00 L141.00 99.00 L142.00 99.00 L142.00 100.00 L143.00 100.00 L143.00 99.00 L144.00 99.00 L144.00 98.00 L145.00 98.00 L145.00 97.00 L144.00 97.00 L144.00 96.00 L145.00 96.00 L145.00 97.00 L146.00 97.00 L146.00 96.00 L147.00 96.00 L147.00 95.00 L148.00 95.00 L148.00 94.00 L147.00 94.00 L147.00 93.00 L146.00 93.00 L146.00 92.00 L145.00 92.00 L145.00 93.00 L144.00 93.00 L144.00 92.00 L145.00 92.00 L145.00 91.00 L144.00 91.00 L144.00 90.00 L143.00 90.00 L143.00 89.00 L142.00 89.00 L142.00 90.00 L141.00 90.00 L141.00 89.00 L142.00 89.00 L142.00 88.00 L141.00 88.00 L141.00 87.00 L140.00 87.00 L140.00 86.00 L139.00 86.00 L139.00 87.00 L138.00 87.00 L138.00 88.00 L137.00 88.00 L137.00 89.00 L138.00 89.00 L138.00 90.00 L137.00 90.00 L137.00 89.00 L136.00 89.00 L136.00 90.00 L135.00 90.00 L135.00 89.00 L136.00 89.00 L136.00 88.00 L135.00 88.00 L135.00 87.00 L136.00 87.00 L136.00 88.00 L137.00 88.00 L137.00 87.00 L138.00 87.00 L138.00 86.00 L139.00 86.00 L139.00 85.00 L138.00 85.00 L138.00 84.00 L137.00 84.00 L137.00 83.00 L136.00 83.00 L136.00 84.00 L135.00 84.00 L135.00 83.00 L136.00 83.00 L136.00 82.00 L135.00 82.00 L135.00 81.00 L136.00 81.00 L136.00 82.00 L137.00 82.00 L137.00 81.00 L138.00 81.00 L138.00 82.00 L137.00 82.00 L137.00 83.00 L138.00 83.00 L138.00 84.00 L139.00 84.00 L139.00 85.00 L140.00 85.00 L140.00 84.00 L141.00 84.00 L141.00 83.00 L142.00 83.00 L142.00 82.00 L141.00 82.00 L141.00 81.00 L142.00 81.00 L142.00 82.00 L143.00 82.00 L143.00 81.00 L144.00 81.00 L144.00 82.00 L143.00 82.00 L143.00 83.00 L144.00 83.00 L144.00 84.00 L143.00 84.00 L143.00 83.00 L142.00 83.00 L142.00 84.00 L141.00 84.00 L141.00 85.00 L140.00 85.00 L140.00 86.00 L141.00 86.00 L141.00 87.00 L142.00 87.00 L142.00 88.00 L143.00 88.00 L143.00 87.00 L144.00 87.00 L144.00 88.00 L143.00 88.00 L143.00 89.00 L144.00 89.00 L144.00 90.00 L145.00 90.00 L145.00 91.00 L146.00 91.00 L146.00 90.00 L147.00 90.00 L147.00 91.00 L146.00 91.00 L146.00 92.00 L147.00 92.00 L147.00 93.00 L148.00 93.00 L148.00 94.00 L149.00 94.00 L149.00 93.00 L150.00 93.00 L150.00 92.00 L151.00 92.00 L151.00 91.00 L150.00 91.00 L150.00 90.00 L151.00 90.00 L151.00 91.00 L152.00 91.00 L152.00 90.00 L153.00 90.00 L153.00 89.00 L154.00 89.00 L154.00 88.00 L153.00 88.00 L153.00 87.00 L154.00 87.00 L154.00 88.00 L155.00 88.00 L155.00 87.00 L156.00 87.00 L156.00 86.00 L157.00 86.00 L157.00 85.00 L156.00 85.00 L156.00 84.00 L155.00 84.00 L155.00 83.00 L154.00 83.00 L154.00 84.00 L153.00 84.00 L153.00 83.00 L154.00 83.00 L154.00 82.00 L153.00 82.00 L153.00 81.00 L154.00 81.00 L154.00 82.00 L155.00 82.00 L155.00 81.00 L156.00 81.00 L156.00 82.00 L155.00 82.00 L155.00 83.00 L156.00 83.00 L156.00 84.00 L157.00 84.00 L157.00 85.00 L158.00 85.00 L158.00 84.00 L159.00 84.00 L159.00 83.00 L160.00 83.00 L160.00 82.00 L159.00 82.00 L159.00 81.00 L160.00 81.00 L160.00 82.00 L161.00 82.00 L161.00 81.00 L162.00 81.00 L162.00 80.00 L163.00 80.00 L163.00 79.00 L162.00 79.00 L162.00 78.00 L163.00 78.00 L163.00 79.00 L164.00 79.00 L164.00 78.00 L165.00 78.00 L165.00 77.00 L166.00 77.00 L166.00 76.00 L165.00 76.00 L165.00 75.00 L164.00 75.00 L164.00 74.00 L163.00 74.00 L163.00 75.00 L162.00 75.00 L162.00 74.00 L163.00 74.00 L163.00 73.00 L162.00 73.00 L162.00 72.00 L163.00 72.00 L163.00 73.00 L164.00 73.00 L164.00 72.00 L165.00 72.00 L165.00 73.00 L164.00 73.00 L164.00 74.00 L165.00 74.00 L165.00 75.00 L166.00 75.00 L166.00 76.00 L167.00 76.00 L167.00 75.00 L168.00 75.00 L168.00 74.00 L169.00 74.00 L169.00 73.00 L168.00 73.00 L168.00 72.00 L169.00 72.00 L169.00 73.00 L170.00 73.00 L170.00 72.00 L171.00 72.00 L171.00 71.00 L172.00 71.00 L172.00 70.00 L171.00 70.00 L171.00 69.00 L172.00 69.00 L172.00 70.00 L173.00 70.00 L173.00 69.00 L174.00 69.00 L174.00 68.00 L175.00 68.00 L175.00 67.00 L174.00 67.00 L174.00 66.00 L173.00 66.00 L173.00 65.00 L172.00 65.00 L172.00 66.00 L171.00 66.00 L171.00 65.00 L172.00 65.00 L172.00 64.00 L171.00 64.00 L171.00 63.00 L170.00 63.00 L170.00 62.00 L169.00 62.00 L169.00 63.00 L168.00 63.00 L168.00 62.00 L169.00 62.00 L169.00 61.00 L168.00 61.00 L168.00 60.00 L167.00 60.00 L167.00 59.00 L166.00 59.00 L166.00 60.00 L165.00 60.00 L165.00 61.00 L164.00 61.00 L164.00 62.00 L165.00 62.00 L165.00 63.00 L164.00 63.00 L164.00 62.00 L163.00 62.00 L163.00 63.00 L162.00 63.00 L162.00 62.00 L163.00 62.00 L163.00 61.00 L162.00 61.00 L162.00 60.00 L163.00 60.00 L163.00 61.00 L164.00 61.00 L164.00 60.00 L165.00 60.00 L165.00 59.00 L166.00 59.00 L166.00 58.00 L165.00 58.00 L165.00 57.00 L164.00 57.00 L164.00 56.00 L163.00 56.00 L163.00 57.00 L162.00 57.00 L162.00 56.00 L163.00 56.00 L163.00 55.00 L162.00 55.00 L162.00 54.00 L163.00 54.00 L163.00 55.00 L164.00 55.00 L164.00 54.00 L165.00 54.00 L165.00 55.00 L164.00 55.00 L164.00 56.00 L165.00 56.00 L165.00 57.00 L166.00 57.00 L166.00 58.00 L167.00 58.00 L167.00 57.00 L168.00 57.00 L168.00 56.00 L169.00 56.00 L169.00 55.00 L168.00 55.00 L168.00 54.00 L169.00 54.00 L169.00 55.00 L170.00 55.00 L170.00 54.00 L171.00 54.00 L171.00 55.00 L170.00 55.00 L170.00 56.00 L171.00 56.00 L171.00 57.00 L170.00 57.00 L170.00 56.00 L169.00 56.00 L169.00 57.00 L168.00 57.00 L168.00 58.00 L167.00 58.00 L167.00 59.00 L168.00 59.00 L168.00 60.00 L169.00 60.00 L169.00 61.00 L170.00 61.00 L170.00 60.00 L171.00 60.00 L171.00 61.00 L170.00 61.00 L170.00 62.00 L171.00 62.00 L171.00 63.00 L172.00 63.00 L172.00 64.00 L173.00 64.00 L173.00 63.00 L174.00 63.00 L174.00 64.00 L173.00 64.00 L173.00 65.00 L174.00 65.00 L174.00 66.00 L175.00 66.00 L175.00 67.00 L176.00 67.00 L176.00 66.00 L177.00 66.00 L177.00 65.00 L178.00 65.00 L178.00 64.00 L177.00 64.00 L177.00 63.00 L178.00 63.00 L178.00 64.00 L179.00 64.00 L179.00 63.00 L180.00 63.00 L180.00 62.00 L181.00 62.00 L181.00 61.00 L180.00 61.00 L180.00 60.00 L181.00 60.00 L181.00 61.00 L182.00 61.00 L182.00 60.00 L183.00 60.00 L183.00 59.00 L184.00 59.00 L184.00 58.00 L183.00 58.00 L183.00 57.00 L182.00 57.00 L182.00 56.00 L181.00 56.00 L181.00 57.00 L180.00 57.00 L180.00 56.00 L181.00 56.00 L181.00 55.00 L180.00 55.00 L180.00 54.00 L181.00 54.00 L181.00 55.00 L182.00 55.00 L182.00 54.00 L183.00 54.00 L183.00 55.00 L182.00 55.00 L182.00 56.00 L183.00 56.00 L183.00 57.00 L184.00 57.00 L184.00 58.00 L185.00 58.00 L185.00 57.00 L186.00 57.00 L186.00 56.00 L187.00 56.00 L187.00 55.00 L186.00 55.00 L186.00 54.00 L187.00 54.00 L187.00 55.00 L188.00 55.00 L188.00 54.00 L189.00 54.00 L189.00 53.00 L190.00 53.00 L190.00 52.00 L189.00 52.00 L189.00 51.00 L190.00 51.00 L190.00 52.00 L191.00 52.00 L191.00 51.00 L192.00 51.00 L192.00 50.00 L193.00 50.00 L193.00 49.00 L192.00 49.00 L192.00 48.00 L191.00 48.00 L191.00 47.00 L190.00 47.00 L190.00 48.00 L189.00 48.00 L189.00 47.00 L190.00 47.00 L190.00 46.00 L189.00 46.00 L189.00 45.00 L190.00 45.00 L190.00 46.00 L191.00 46.00 L191.00 45.00 L192.00 45.00 L192.00 46.00 L191.00 46.00 L191.00 47.00 L192.00 47.00 L192.00 48.00 L193.00 48.00 L193.00 49.00 L194.00 49.00 L194.00 48.00 L195.00 48.00 L195.00 47.00 L196.00 47.00 L196.00 46.00 L195.00 46.00 L195.00 45.00 L196.00 45.00 L196.00 46.00 L197.00 46.00 L197.00 45.00 L198.00 45.00 L198.00 44.00 L199.00 44.00 L199.00 43.00 L198.00 43.00 L198.00 42.00 L199.00 42.00 L199.00 43.00 L200.00 43.00 L200.00 42.00 L201.00 42.00 L201.00 41.00 L202.00 41.00 L202.00 40.00 L201.00 40.00 L201.00 39.00 L200.00 39.00 L200.00 38.00 L199.00 38.00 L199.00 39.00 L198.00 39.00 L198.00 38.00 L199.00 38.00 L199.00 37.00 L198.00 37.00 L198.00 36.00 L197.00 36.00 L197.00 35.00 L196.00 35.00 L196.00 36.00 L195.00 36.00 L195.00 35.00 L196.00 35.00 L196.00 34.00 L195.00 34.00 L195.00 33.00 L194.00 33.00 L194.00 32.00 L193.00 32.00 L193.00 33.00 L192.00 33.00 L192.00 34.00 L191.00 34.00 L191.00 35.00 L192.00 35.00 L192.00 36.00 L191.00 36.00 L191.00 35.00 L190.00 35.00 L190.00 36.00 L189.00 36.00 L189.00 35.00 L190.00 35.00 L190.00 34.00 L189.00 34.00 L189.00 33.00 L190.00 33.00 L190.00 34.00 L191.00 34.00 L191.00 33.00 L192.00 33.00 L192.00 32.00 L193.00 32.00 L193.00 31.00 L192.00 31.00 L192.00 30.00 L191.00 30.00 L191.00 29.00 L190.00 29.00 L190.00 30.00 L189.00 30.00 L189.00 29.00 L190.00 29.00 L190.00 28.00 L189.00 28.00 L189.00 27.00 L188.00 27.00 L188.00 26.00 L187.00 26.00 L187.00 27.00 L186.00 27.00 L186.00 26.00 L187.00 26.00 L187.00 25.00 L186.00 25.00 L186.00 24.00 L185.00 24.00 L185.00 23.00 L184.00 23.00 L184.00 24.00 L183.00 24.00 L183.00 25.00 L182.00 25.00 L182.00 26.00 L183.00 26.00 L183.00 27.00 L182.00 27.00 L182.00 26.00 L181.00 26.00 L181.00 27.00 L180.00 27.00 L180.00 26.00 L181.00 26.00 L181.00 25.00 L180.00 25.00 L180.00 24.00 L181.00 24.00 L181.00 25.00 L182.00 25.00 L182.00 24.00 L183.00 24.00 L183.00 23.00 L184.00 23.00 L184.00 22.00 L183.00 22.00 L183.00 21.00 L182.00 21.00 L182.00 20.00 L181.00 20.00 L181.00 21.00 L180.00 21.00 L180.00 20.00 L181.00 20.00 L181.00 19.00 L180.00 19.00 L180.00 18.00 L179.00 18.00 L179.00 17.00 L178.00 17.00 L178.00 18.00 L177.00 18.00 L177.00 17.00 L178.00 17.00 L178.00 16.00 L177.00 16.00 L177.00 15.00 L176.00 15.00 L176.00 14.00 L175.00 14.00 L175.00 15.00 L174.00 15.00 L174.00 16.00 L173.00 16.00 L173.00 17.00 L174.00 17.00 L174.00 18.00 L173.00 18.00 L173.00 17.00 L172.00 17.00 L172.00 18.00 L171.00 18.00 L171.00 19.00 L170.00 19.00 L170.00 20.00 L171.00 20.00 L171.00 21.00 L170.00 21.00 L170.00 20.00 L169.00 20.00 L169.00 21.00 L168.00 21.00 L168.00 22.00 L167.00 22.00 L167.00 23.00 L168.00 23.00 L168.00 24.00 L169.00 24.00 L169.00 25.00 L170.00 25.00 L170.00 24.00 L171.00 24.00 L171.00 25.00 L170.00 25.00 L170.00 26.00 L171.00 26.00 L171.00 27.00 L170.00 27.00 L170.00 26.00 L169.00 26.00 L169.00 27.00 L168.00 27.00 L168.00 26.00 L169.00 26.00 L169.00 25.00 L168.00 25.00 L168.00 24.00 L167.00 24.00 L167.00 23.00 L166.00 23.00 L166.00 24.00 L165.00 24.00 L165.00 25.00 L164.00 25.00 L164.00 26.00 L165.00 26.00 L165.00 27.00 L164.00 27.00 L164.00 26.00 L163.00 26.00 L163.00 27.00 L162.00 27.00 L162.00 26.00 L163.00 26.00 L163.00 25.00 L162.00 25.00 L162.00 24.00 L163.00 24.00 L163.00 25.00 L164.00 25.00 L164.00 24.00 L165.00 24.00 L165.00 23.00 L166.00 23.00 L166.00 22.00 L165.00 22.00 L165.00 21.00 L164.00 21.00 L164.00 20.00 L163.00 20.00 L163.00 21.00 L162.00 21.00 L162.00 20.00 L163.00 20.00 L163.00 19.00 L162.00 19.00 L162.00 18.00 L163.00 18.00 L163.00 19.00 L164.00 19.00 L164.00 18.00 L165.00 18.00 L165.00 19.00 L164.00 19.00 L164.00 20.00 L165.00 20.00 L165.00 21.00 L166.00 21.00 L166.00 22.00 L167.00 22.00 L167.00 21.00 L168.00 21.00 L168.00 20.00 L169.00 20.00 L169.00 19.00 L168.00 19.00 L168.00 18.00 L169.00 18.00 L169.00 19.00 L170.00 19.00 L170.00 18.00 L171.00 18.00 L171.00 17.00 L172.00 17.00 L172.00 16.00 L171.00 16.00 L171.00 15.00 L172.00 15.00 L172.00 16.00 L173.00 16.00 L173.00 15.00 L174.00 15.00 L174.00 14.00 L175.00 14.00 L175.00 13.00 L174.00 13.00 L174.00 12.00 L173.00 12.00 L173.00 11.00 L172.00 11.00 L172.00 12.00 L171.00 12.00 L171.00 11.00 L172.00 11.00 L172.00 10.00 L171.00 10.00 L171.00 9.00 L170.00 9.00 L170.00 8.00 L169.00 8.00 L169.00 9.00 L168.00 9.00 L168.00 8.00 L169.00 8.00 L169.00 7.00 L168.00 7.00 L168.00 6.00 L167.00 6.00 L167.00 5.00 L166.00 5.00 L166.00 6.00 L165.00 6.00 L165.00 7.00 L164.00 7.00 L164.00 8.00 L165.00 8.00 L165.00 9.00 L164.00 9.00 L164.00 8.00 L163.00 8.00 L163.00 9.00 L162.00 9.00 L162.00 8.00 L163.00 8.00 L163.00 7.00 L162.00 7.00 L162.00 6.00 L163.00 6.00 L163.00 7.00 L164.00 7.00 L164.00 6.00 L165.00 6.00 L165.00 5.00 L166.00 5.00 L166.00 4.00 L165.00 4.00 L165.00 3.00 L164.00 3.00 L164.00 2.00 L163.00 2.00 L163.00 3.00 L162.00 3.00 L162.00 2.00 L163.00 2.00 L163.00 1.00 L162.00 1.00 L162.00 0.00 L163.00 0.00 L163.00 1.00 L164.00 1.00 L164.00 0.00 L165.00 0.00 L165.00 1.00 L164.00 1.00 L164.00 2.00 L165.00 2.00 L165.00 3.00 L166.00 3.00 L166.00 4.00 L167.00 4.00 L167.00 3.00 L168.00 3.00 L168.00 2.00 L169.00 2.00 L169.00 1.00 L168.00 1.00 L168.00 0.00 L169.00 0.00 L169.00 1.00 L170.00 1.00 L170.00 0.00 L171.00 0.00 L171.00 1.00 L170.00 1.00 L170.00 2.00 L171.00 2.00 L171.00 3.00 L170.00 3.00 L170.00 2.00 L169.00 2.00 L169.00 3.00 L168.00 3.00 L168.00 4.00 L167.00 4.00 L167.00 5.00 L168.00 5.00 L168.00 6.00 L169.00 6.00 L169.00 7.00 L170.00 7.00 L170.00 6.00 L171.00 6.00 L171.00 7.00 L170.00 7.00 L170.00 8.00 L171.00 8.00 L171.00 9.00 L172.00 9.00 L172.00 10.00 L173.00 10.00 L173.00 9.00 L174.00 9.00 L174.00 10.00 L173.00 10.00 L173.00 11.00 L174.00 11.00 L174.00 12.00 L175.00 12.00 L175.00 13.00 L176.00 13.00 L176.00 12.00 L177.00 12.00 L177.00 11.00 L178.00 11.00 L178.00 10.00 L177.00 10.00 L177.00 9.00 L178.00 9.00 L178.00 10.00 L179.00 10.00 L179.00 9.00 L180.00 9.00 L180.00 8.00 L181.00 8.00 L181.00 7.00 L180.00 7.00 L180.00 6.00 L181.00 6.00 L181.00 7.00 L182.00 7.00 L182.00 6.00 L183.00 6.00 L183.00 5.00 L184.00 5.00 L184.00 4.00 L183.00 4.00 L183.00 3.00 L182.00 3.00 L182.00 2.00 L181.00 2.00 L181.00 3.00 L180.00 3.00 L180.00 2.00 L181.00 2.00 L181.00 1.00 L180.00 1.00 L180.00 0.00 L181.00 0.00 L181.00 1.00 L182.00 1.00 L182.00 0.00 L183.00 0.00 L183.00 1.00 L182.00 1.00 L182.00 2.00 L183.00 2.00 L183.00 3.00 L184.00 3.00 L184.00 4.00 L185.00 4.00 L185.00 3.00 L186.00 3.00 L186.00 2.00 L187.00 2.00 L187.00 1.00 L186.00 1.00 L186.00 0.00 L187.00 0.00 L187.00 1.00 L188.00 1.00 L188.00 0.00 L189.00 0.00 L189.00 1.00 L188.00 1.00 L188.00 2.00 L189.00 2.00 L189.00 3.00 L188.00 3.00 L188.00 2.00 L187.00 2.00 L187.00 3.00 L186.00 3.00 L186.00 4.00 L185.00 4.00 L185.00 5.00 L186.00 5.00 L186.00 6.00 L187.00 6.00 L187.00 7.00 L188.00 7.00 L188.00 6.00 L189.00 6.00 L189.00 7.00 L188.00 7.00 L188.00 8.00 L189.00 8.00 L189.00 9.00 L188.00 9.00 L188.00 8.00 L187.00 8.00 L187.00 9.00 L186.00 9.00 L186.00 8.00 L187.00 8.00 L187.00 7.00 L186.00 7.00 L186.00 6.00 L185.00 6.00 L185.00 5.00 L184.00 5.00 L184.00 6.00 L183.00 6.00 L183.00 7.00 L182.00 7.00 L182.00 8.00 L183.00 8.00 L183.00 9.00 L182.00 9.00 L182.00 8.00 L181.00 8.00 L181.00 9.00 L180.00 9.00 L180.00 10.00 L179.00 10.00 L179.00 11.00 L180.00 11.00 L180.00 12.00 L179.00 12.00 L179.00 11.00 L178.00 11.00 L178.00 12.00 L177.00 12.00 L177.00 13.00 L176.00 13.00 L176.00 14.00 L177.00 14.00 L177.00 15.00 L178.00 15.00 L178.00 16.00 L179.00 16.00 L179.00 15.00 L180.00 15.00 L180.00 16.00 L179.00 16.00 L179.00 17.00 L180.00 17.00 L180.00 18.00 L181.00 18.00 L181.00 19.00 L182.00 19.00 L182.00 18.00 L183.00 18.00 L183.00 19.00 L182.00 19.00 L182.00 20.00 L183.00 20.00 L183.00 21.00 L184.00 21.00 L184.00 22.00 L185.00 22.00 L185.00 21.00 L186.00 21.00 L186.00 20.00 L187.00 20.00 L187.00 19.00 L186.00 19.00 L186.00 18.00 L187.00 18.00 L187.00 19.00 L188.00 19.00 L188.00 18.00 L189.00 18.00 L189.00 19.00 L188.00 19.00 L188.00 20.00 L189.00 20.00 L189.00 21.00 L188.00 21.00 L188.00 20.00 L187.00 20.00 L187.00 21.00 L186.00 21.00 L186.00 22.00 L185.00 22.00 L185.00 23.00 L186.00 23.00 L186.00 24.00 L187.00 24.00 L187.00 25.00 L188.00 25.00 L188.00 24.00 L189.00 24.00 L189.00 25.00 L188.00 25.00 L188.00 26.00 L189.00 26.00 L189.00 27.00 L190.00 27.00 L190.00 28.00 L191.00 28.00 L191.00 27.00 L192.00 27.00 L192.00 28.00 L191.00 28.00 L191.00 29.00 L192.00 29.00 L192.00 30.00 L193.00 30.00 L193.00 31.00 L194.00 31.00 L194.00 30.00 L195.00 30.00 L195.00 29.00 L196.00 29.00 L196.00 28.00 L195.00 28.00 L195.00 27.00 L196.00 27.00 L196.00 28.00 L197.00 28.00 L197.00 27.00 L198.00 27.00 L198.00 28.00 L197.00 28.00 L197.00 29.00 L198.00 29.00 L198.00 30.00 L197.00 30.00 L197.00 29.00 L196.00 29.00 L196.00 30.00 L195.00 30.00 L195.00 31.00 L194.00 31.00 L194.00 32.00 L195.00 32.00 L195.00 33.00 L196.00 33.00 L196.00 34.00 L197.00 34.00 L197.00 33.00 L198.00 33.00 L198.00 34.00 L197.00 34.00 L197.00 35.00 L198.00 35.00 L198.00 36.00 L199.00 36.00 L199.00 37.00 L200.00 37.00 L200.00 36.00 L201.00 36.00 L201.00 37.00 L200.00 37.00 L200.00 38.00 L201.00 38.00 L201.00 39.00 L202.00 39.00 L202.00 40.00 L203.00 40.00 L203.00 39.00 L204.00 39.00 L204.00 38.00 L205.00 38.00 L205.00 37.00 L204.00 37.00 L204.00 36.00 L205.00 36.00 L205.00 37.00 L206.00 37.00 L206.00 36.00 L207.00 36.00 L207.00 35.00 L208.00 35.00 L208.00 34.00 L207.00 34.00 L207.00 33.00 L208.00 33.00 L208.00 34.00 L209.00 34.00 L209.00 33.00 L210.00 33.00 L210.00 32.00 L211.00 32.00 L211.00 31.00 L210.00 31.00 L210.00 30.00 L209.00 30.00 L209.00 29.00 L208.00 29.00 L208.00 30.00 L207.00 30.00 L207.00 29.00 L208.00 29.00 L208.00 28.00 L207.00 28.00 L207.00 27.00 L208.00 27.00 L208.00 28.00 L209.00 28.00 L209.00 27.00 L210.00 27.00 L210.00 28.00 L209.00 28.00 L209.00 29.00 L210.00 29.00 L210.00 30.00 L211.00 30.00 L211.00 31.00 L212.00 31.00 L212.00 30.00 L213.00 30.00 L213.00 29.00 L214.00 29.00 L214.00 28.00 L213.00 28.00 L213.00 27.00 L214.00 27.00 L214.00 28.00 L215.00 28.00 L215.00 27.00 L216.00 27.00 L216.00 26.00 L217.00 26.00 L217.00 25.00 L216.00 25.00 L216.00 24.00 L217.00 24.00 L217.00 25.00 L218.00 25.00 L218.00 24.00 L219.00 24.00 L219.00 23.00 L220.00 23.00 L220.00 22.00 L219.00 22.00 L219.00 21.00 L218.00 21.00 L218.00 20.00 L217.00 20.00 L217.00 21.00 L216.00 21.00 L216.00 20.00 L217.00 20.00 L217.00 19.00 L216.00 19.00 L216.00 18.00 L217.00 18.00 L217.00 19.00 L218.00 19.00 L218.00 18.00 L219.00 18.00 L219.00 19.00 L218.00 19.00 L218.00 20.00 L219.00 20.00 L219.00 21.00 L220.00 21.00 L220.00 22.00 L221.00 22.00 L221.00 21.00 L222.00 21.00 L222.00 20.00 L223.00 20.00 L223.00 19.00 L222.00 19.00 L222.00 18.00 L223.00 18.00 L223.00 19.00 L224.00 19.00 L224.00 18.00 L225.00 18.00 L225.00 17.00 L226.00 17.00 L226.00 16.00 L225.00 16.00 L225.00 15.00 L226.00 15.00 L226.00 16.00 L227.00 16.00 L227.00 15.00 L228.00 15.00 L228.00 14.00 L229.00 14.00 L229.00 13.00 L228.00 13.00 L228.00 12.00 L227.00 12.00 L227.00 11.00 L226.00 11.00 L226.00 12.00 L225.00 12.00 L225.00 11.00 L226.00 11.00 L226.00 10.00 L225.00 10.00 L225.00 9.00 L224.00 9.00 L224.00 8.00 L223.00 8.00 L223.00 9.00 L222.00 9.00 L222.00 8.00 L223.00 8.00 L223.00 7.00 L222.00 7.00 L222.00 6.00 L221.00 6.00 L221.00 5.00 L220.00 5.00 L220.00 6.00 L219.00 6.00 L219.00 7.00 L218.00 7.00 L218.00 8.00 L219.00 8.00 L219.00 9.00 L218.00 9.00 L218.00 8.00 L217.00 8.00 L217.00 9.00 L216.00 9.00 L216.00 8.00 L217.00 8.00 L217.00 7.00 L216.00 7.00 L216.00 6.00 L217.00 6.00 L217.00 7.00 L218.00 7.00 L218.00 6.00 L219.00 6.00 L219.00 5.00 L220.00 5.00 L220.00 4.00 L219.00 4.00 L219.00 3.00 L218.00 3.00 L218.00 2.00 L217.00 2.00 L217.00 3.00 L216.00 3.00 L216.00 2.00 L217.00 2.00 L217.00 1.00 L216.00 1.00 L216.00 0.00 L217.00 0.00 L217.00 1.00 L218.00 1.00 L218.00 0.00 L219.00 0.00 L219.00 1.00 L218.00 1.00 L218.00 2.00 L219.00 2.00 L219.00 3.00 L220.00 3.00 L220.00 4.00 L221.00 4.00 L221.00 3.00 L222.00 3.00 L222.00 2.00 L223.00 2.00 L223.00 1.00 L222.00 1.00 L222.00 0.00 L223.00 0.00 L223.00 1.00 L224.00 1.00 L224.00 0.00 L225.00 0.00 L225.00 1.00 L224.00 1.00 L224.00 2.00 L225.00 2.00 L225.00 3.00 L224.00 3.00 L224.00 2.00 L223.00 2.00 L223.00 3.00 L222.00 3.00 L222.00 4.00 L221.00 4.00 L221.00 5.00 L222.00 5.00 L222.00 6.00 L223.00 6.00 L223.00 7.00 L224.00 7.00 L224.00 6.00 L225.00 6.00 L225.00 7.00 L224.00 7.00 L224.00 8.00 L225.00 8.00 L225.00 9.00 L226.00 9.00 L226.00 10.00 L227.00 10.00 L227.00 9.00 L228.00 9.00 L228.00 10.00 L227.00 10.00 L227.00 11.00 L228.00 11.00 L228.00 12.00 L229.00 12.00 L229.00 13.00 L230.00 13.00 L230.00 12.00 L231.00 12.00 L231.00 11.00 L232.00 11.00 L232.00 10.00 L231.00 10.00 L231.00 9.00 L232.00 9.00 L232.00 10.00 L233.00 10.00 L233.00 9.00 L234.00 9.00 L234.00 8.00 L235.00 8.00 L235.00 7.00 L234.00 7.00 L234.00 6.00 L235.00 6.00 L235.00 7.00 L236.00 7.00 L236.00 6.00 L237.00 6.00 L237.00 5.00 L238.00 5.00 L238.00 4.00 L237.00 4.00 L237.00 3.00 L236.00 3.00 L236.00 2.00 L235.00 2.00 L235.00 3.00 L234.00 3.00 L234.00 2.00 L235.00 2.00 L235.00 1.00 L234.00 1.00 L234.00 0.00 L235.00 0.00 L235.00 1.00 L236.00 1.00 L236.00 0.00 L237.00 0.00 L237.00 1.00 L236.00 1.00 L236.00 2.00 L237.00 2.00 L237.00 3.00 L238.00 3.00 L238.00 4.00 L239.00 4.00 L239.00 3.00 L240.00 3.00 L240.00 2.00 L241.00 2.00 L241.00 1.00 L240.00 1.00 L240.00 0.00 L241.00 0.00 L241.00 1.00 L242.00 1.00 L242.00 0.00 L243.00 0.00 "/>
</g>
</svg>

