<svg width="300.000000" height="259.807556" xmlns="http://www.w3.org/2000/svg" version="1.1">
<rect width="100%" height="100%" fill="white" />
<g transform="scale(0.426136,0.420226) translate(32.000000,586.256104) ">
<path stroke="#000000" fill="none" d="M0.00 0.00 L10.00 0.00 L5.00 -8.66 L15.00 -8.66 L10.00 -0.00 L20.00 -0.00 L15.00 -8.66 L10.00 -17.32 L20.00 -17.32 L15.00 -25.98 L25.00 -25.98 L20.00 -17.32 L30.00 -17.32 L25.00 -8.66 L20.00 -0.00 L30.00 -0.00 L25.00 -8.66 L35.00 -8.66 L30.00 -0.00 L40.00 -0.00 L35.00 -8.66 L30.00 -17.32 L25.00 -25.98 L20.00 -34.64 L30.00 -34.64 L25.00 -43.30 L35.00 -43.30 L30.00 -34.64 L40.00 -34.64 L35.00 -43.30 L30.00 -51.96 L40.00 -51.96 L35.00 -60.62 L45.00 -60.62 L40.00 -51.96 L50.00 -51.96 L45.00 -43.30 L40.00 -34.64 L50.00 -34.64 L45.00 -43.30 L55.00 -43.30 L50.00 -34.64 L60.00 -34.64 L55.00 -25.98 L50.00 -17.32 L45.00 -8.66 L40.00 -0.00 L50.00 -0.00 L45.00 -8.66 L55.00 -8.66 L50.00 -0.00 L60.00 -0.00 L55.00 -8.66 L50.00 -17.32 L60.00 -17.32 L55.00 -25.98 L65.00 -25.98 L60.00 -17.32 L70.00 -17.32 L65.00 -8.66 L60.00 -0.00 L70.00 -0.00 L65.00 -8.66 L75.00 -8.66 L70.00 -0.00 L80.00 -0.00 L75.00 -8.66 L70.00 -17.32 L65.00 -25.98 L60.00 -34.64 L55.00 -43.30 L50.00 -51.96 L45.00 -60.62 L40.00 -69.28 L50.00 -69.28 L45.00 -77.94 L55.00 -77.94 L50.00 -69.28 L60.00 -69.28 L55.00 -77.94 L50.00 -86.60 L60.00 -86.60 L55.00 -95.26 L65.00 -95.26 L60.00 -86.60 L70.00 -86.60 L65.00 -77.94 L60.00 -69.28 L70.00 -69.28 L65.00 -77.94 L75.00 -77.94 L70.00 -69.28 L80.00 -69.28 L75.00 -77.94 L70.00 -86.60 L65.00 -95.26 L60.00 -103.92 L70.00 -103.92 L65.00 -112.58 L75.00 -112.58 L70.00 -103.92 L80.00 -103.92 L75.00 -112.58 L70.00 -121.24 L80.00 -121.24 L75.00 -129.90 L85.00 -129.90 L80.00 -121.24 L90.00 -121.24 L85.00 -112.58 L80.00 -103.92 L90.00 -103.92 L85.00 -112.58 L95.00 -112.58 L90.00 -103.92 L100.00 -103.92 L95.00 -95.26 L90.00 -86.60 L85.00 -77.94 L80.00 -69.28 L90.00 -69.28 L85.00 -77.94 L95.00 -77.94 L90.00 -69.28 L100.00 -69.28 L95.00 -77.94 L90.00 -86.60 L100.00 -86.60 L95.00 -95.26 L105.00 -95.26 L100.00 -86.60 L110.00 -86.60 L105.00 -77.94 L100.00 -69.28 L110.00 -69.28 L105.00 -77.94 L115.00 -77.94 L110.00 -69.28 L120.00 -69.28 L115.00 -60.62 L110.00 -51.96 L105.00 -43.30 L100.00 -34.64 L95.00 -25.98 L90.00 -17.32 L85.00 -8.66 L80.00 0.00 L90.00 0.00 L85.00 -8.66 L95.00 -8.66 L90.00 0.00 L100.00 0.00 L95.00 -8.66 L90.00 -17.32 L100.00 -17.32 L95.00 -25.98 L105.00 -25.98 L100.00 -17.32 L110.00 -17.32 L105.00 -8.66 L100.00 0.00 L110.00 0.00 L105.00 -8.66 L115.00 -8.66 L110.00 0.00 L120.00 0.00 L115.00 -8.66 L110.00 -17.32 L105.00 -25.98 L100.00 -34.64 L110.00 -34.64 L105.00 -43.30 L115.00 -43.30 L110.00 -34.64 L120.00 -34.64 L115.00 -43.30 L110.00 -51.96 L120.00 -51.96 L115.00 -60.62 L125.00 -60.62 L120.00 -51.96 L130.00 -51.96 L125.00 -43.30 L120.00 -34.64 L130.00 -34.64 L125.00 -43.30 L135.00 -43.30 L130.00 -34.64 L140.00 -34.64 L135.00 -25.98 L130.00 -17.32 L125.00 -8.66 L120.00 0.00 L130.00 0.00 L125.00 -8.66 L135.00 -8.66 L130.00 0.00 L140.00 0.00 L135.00 -8.66 L130.00 -17.32 L140.00 -17.32 L135.00 -25.98 L145.00 -25.98 L140.00 -17.32 L150.00 -17.32 L145.00 -8.66 L140.00 0.00 L150.00 0.00 L145.00 -8.66 L155.00 -8.66 L150.00 0.00 L160.00 0.00 L155.00 -8.66 L150.00 -17.32 L145.00 -25.98 L140.00 -34.64 L135.00 -43.30 L130.00 -51.96 L125.00 -60.62 L120.00 -69.28 L115.00 -77.94 L110.00 -86.60 L105.00 -95.26 L100.00 -103.92 L95.00 -112.58 L90.00 -121.24 L85.00 -129.90 L80.00 -138.56 L90.00 -138.56 L85.00 -147.22 L95.00 -147.22 L90.00 -138.56 L100.00 -138.56 L95.00 -147.22 L90.00 -155.88 L100.00 -155.88 L95.00 -164.54 L105.00 -164.54 L100.00 -155.88 L110.00 -155.88 L105.00 -147.22 L100.00 -138.56 L110.00 -138.56 L105.00 -147.22 L115.00 -147.22 L110.00 -138.56 L120.00 -138.56 L115.00 -147.22 L110.00 -155.88 L105.00 -164.54 L100.00 -173.21 L110.00 -173.21 L105.00 -181.87 L115.00 -181.87 L110.00 -173.21 L120.00 -173.21 L115.00 -181.87 L110.00 -190.53 L120.00 -190.53 L115.00 -199.19 L125.00 -199.19 L120.00 -190.53 L130.00 -190.53 L125.00 -181.87 L120.00 -173.21 L130.00 -173.21 L125.00 -181.87 L135.00 -181.87 L130.00 -173.21 L140.00 -173.21 L135.00 -164.54 L130.00 -155.88 L125.00 -147.22 L120.00 -138.56 L130.00 -138.56 L125.00 -147.22 L135.00 -147.22 L130.00 -138.56 L140.00 -138.56 L135.00 -147.22 L130.00 -155.88 L140.00 -155.88 L135.00 -164.54 L145.00 -164.54 L140.00 -155.88 L150.00 -155.88 L145.00 -147.22 L140.00 -138.56 L150.00 -138.56 L145.00 -147.22 L155.00 -147.22 L150.00 -138.56 L160.00 -138.56 L155.00 -147.22 L150.00 -155.88 L145.00 -164.54 L140.00 -173.21 L135.00 -181.87 L130.00 -190.53 L125.00 -199.19 L120.00 -207.85 L130.00 -207.85 L125.00 -216.51 L135.00 -216.51 L130.00 -207.85 L140.00 -207.85 L135.00 -216.51 L130.00 -225.17 L140.00 -225.17 L135.00 -233.83 L145.00 -233.83 L140.00 -225.17 L150.00 -225.17 L145.00 -216.51 L140.00 -207.85 L150.00 -207.85 L145.00 -216.51 L155.00 -216.51 L150.00 -207.85 L160.00 -207.85 L155.00 -216.51 L150.00 -225.17 L145.00 -233.83 L140.00 -242.49 L150.00 -242.49 L145.00 -251.15 L155.00 -251.15 L150.00 -242.49 L160.00 -242.49 L155.00 -251.15 L150.00 -259.81 L160.00 -259.81 L155.00 -268.47 L165.00 -268.47 L160.00 -259.81 L170.00 -259.81 L165.00 -251.15 L160.00 -242.49 L170.00 -242.49 L165.00 -251.15 L175.00 -251.15 L170.00 -242.49 L180.00 -242.49 L175.00 -233.83 L170.00 -225.17 L165.00 -216.51 L160.00 -207.85 L170.00 -207.85 L165.00 -216.51 L175.00 -216.51 L170.00 -207.85 L180.00 -207.85 L175.00 -216.51 L170.00 -225.17 L180.00 -225.17 L175.00 -233.83 L185.00 -233.83 L180.00 -225.17 L190.00 -225.17 L185.00 -216.51 L180.00 -207.85 L190.00 -207.85 L185.00 -216.51 L195.00 -216.51 L190.00 -207.85 L200.00 -207.85 L195.00 -199.19 L190.00 -190.53 L185.00 -181.87 L180.00 -173.21 L175.00 -164.54 L170.00 -155.88 L165.00 -147.22 L160.00 -138.56 L170.00 -138.56 L165.00 -147.22 L175.00 -147.22 L170.00 -138.56 L180.00 -138.56 L175.00 -147.22 L170.00 -155.88 L180.00 -155.88 L175.00 -164.54 L185.00 -164.54 L180.00 -155.88 L190.00 -155.88 L185.00 -147.22 L180.00 -138.56 L190.00 -138.56 L185.00 -147.22 L195.00 -147.22 L190.00 -138.56 L200.00 -138.56 L195.00 -147.22 L190.00 -155.88 L185.00 -164.54 L180.00 -173.21 L190.00 -173.21 L185.00 -181.87 L195.00 -181.87 L190.00 -173.21 L200.00 -173.21 L195.00 -181.87 L190.00 -190.53 L200.00 -190.53 L195.00 -199.19 L205.00 -199.19 L200.00 -190.53 L210.00 -190.53 L205.00 -181.87 L200.00 -173.21 L210.00 -173.21 L205.00 -181.87 L215.00 -181.87 L210.00 -173.21 L220.00 -173.21 L215.00 -164.54 L210.00 -155.88 L205.00 -147.22 L200.00 -138.56 L210.00 -138.56 L205.00 -147.22 L215.00 -147.22 L210.00 -138.56 L220.00 -138.56 L215.00 -147.22 L210.00 -155.88 L220.00 -155.88 L215.00 -164.54 L225.00 -164.54 L220.00 -155.88 L230.00 -155.88 L225.00 -147.22 L220.00 -138.56 L230.00 -138.56 L225.00 -147.22 L235.00 -147.22 L230.00 -138.56 L240.00 -138.56 L235.00 -129.90 L230.00 -121.24 L225.00 -112.58 L220.00 -103.92 L215.00 -95.26 L210.00 -86.60 L205.00 -77.94 L200.00 -69.28 L195.00 -60.62 L190.00 -51.96 L185.00 -43.30 L180.00 -34.64 L175.00 -25.98 L170.00 -17.32 L165.00 -8.66 L160.00 -0.00 L170.00 -0.00 L165.00 -8.66 L175.00 -8.66 L170.00 -0.00 L180.00 -0.00 L175.00 -8.66 L170.00 -17.32 L180.00 -17.32 L175.00 -25.98 L185.00 -25.98 L180.00 -17.32 L190.00 -17.32 L185.00 -8.66 L180.00 -0.00 L190.00 -0.00 L185.00 -8.66 L195.00 -8.66 L190.00 -0.00 L200.00 -0.00 L195.00 -8.66 L190.00 -17.32 L185.00 -25.98 L180.00 -34.64 L190.00 -34.64 L185.00 -43.30 L195.00 -43.30 L190.00 -34.64 L200.00 -34.64 L195.00 -43.30 L190.00 -51.96 L200.00 -51.96 L195.00 -60.62 L205.00 -60.62 L200.00 -51.96 L210.00 -51.96 L205.00 -43.30 L200.00 -34.64 L210.00 -34.64 L205.00 -43.30 L215.00 -43.30 L210.00 -34.64 L220.00 -34.64 L215.00 -25.98 L210.00 -17.32 L205.00 -8.66 L200.00 -0.00 L210.00 -0.00 L205.00 -8.66 L215.00 -8.66 L210.00 -0.00 L220.00 -0.00 L215.00 -8.66 L210.00 -17.32 L220.00 -17.32 L215.00 -25.98 L225.00 -25.98 L220.00 -17.32 L230.00 -17.32 L225.00 -8.66 L220.00 -0.00 L230.00 -0.00 L225.00 -8.66 L235.00 -8.66 L230.00 -0.00 L240.00 -0.00 L235.00 -8.66 L230.00 -17.32 L225.00 -25.98 L220.00 -34.64 L215.00 -43.30 L210.00 -51.96 L205.00 -60.62 L200.00 -69.28 L210.00 -69.28 L205.00 -77.94 L215.00 -77.94 L210.00 -69.28 L220.00 -69.28 L215.00 -77.94 L210.00 -86.60 L220.00 -86.60 L215.00 -95.26 L225.00 -95.26 L220.00 -86.60 L230.00 -86.60 L225.00 -77.94 L220.00 -69.28 L230.00 -69.28 L225.00 -77.94 L235.00 -77.94 L230.00 -69.28 L240.00 -69.28 L235.00 -77.94 L230.00 -86.60 L225.00 -95.26 L220.00 -103.92 L230.00 -103.92 L225.00 -112.58 L235.00 -112.58 L230.00 -103.92 L240.00 -103.92 L235.00 -112.58 L230.00 -121.24 L240.00 -121.24 L235.00 -129.90 L245.00 -129.90 L240.00 -121.24 L250.00 -121.24 L245.00 -112.58 L240.00 -103.92 L250.00 -103.92 L245.00 -112.58 L255.00 -112.58 L250.00 -103.92 L260.00 -103.92 L255.00 -95.26 L250.00 -86.60 L245.00 -77.94 L240.00 -69.28 L250.00 -69.28 L245.00 -77.94 L255.00 -77.94 L250.00 -69.28 L260.00 -69.28 L255.00 -77.94 L250.00 -86.60 L260.00 -86.60 L255.00 -95.26 L265.00 -95.26 L260.00 -86.60 L270.00 -86.60 L265.00 -77.94 L260.00 -69.28 L270.00 -69.28 L265.00 -77.94 L275.00 -77.94 L270.00 -69.28 L280.00 -69.28 L275.00 -60.62 L270.00 -51.96 L265.00 -43.30 L260.00 -34.64 L255.00 -25.98 L250.00 -17.32 L245.00 -8.66 L240.00 -0.00 L250.00 -0.00 L245.00 -8.66 L255.00 -8.66 L250.00 -0.00 L260.00 -0.00 L255.00 -8.66 L250.00 -17.32 L260.00 -17.32 L255.00 -25.98 L265.00 -25.98 L260.00 -17.32 L270.00 -17.32 L265.00 -8.66 L260.00 -0.00 L270.00 -0.00 L265.00 -8.66 L275.00 -8.66 L270.00 -0.00 L280.00 -0.00 L275.00 -8.66 L270.00 -17.32 L265.00 -25.98 L260.00 -34.64 L270.00 -34.64 L265.00 -43.30 L275.00 -43.30 L270.00 -34.64 L280.00 -34.64 L275.00 -43.30 L270.00 -51.96 L280.00 -51.96 L275.00 -60.62 L285.00 -60.62 L280.00 -51.96 L290.00 -51.96 L285.00 -43.30 L280.00 -34.64 L290.00 -34.64 L285.00 -43.30 L295.00 -43.30 L290.00 -34.64 L300.00 -34.64 L295.00 -25.98 L290.00 -17.32 L285.00 -8.66 L280.00 -0.00 L290.00 -0.00 L285.00 -8.66 L295.00 -8.66 L290.00 -0.00 L300.00 -0.00 L295.00 -8.66 L290.00 -17.32 L300.00 -17.32 L295.00 -25.98 L305.00 -25.98 L300.00 -17.32 L310.00 -17.32 L305.00 -8.66 L300.00 -0.00 L310.00 -0.00 L305.00 -8.66 L315.00 -8.66 L310.00 -0.00 L320.00 -0.00 L315.00 -8.66 L310.00 -17.32 L305.00 -25.98 L300.00 -34.64 L295.00 -43.30 L290.00 -51.96 L285.00 -60.62 L280.00 -69.28 L275.00 -77.94 L270.00 -86.60 L265.00 -95.26 L260.00 -103.92 L255.00 -112.58 L250.00 -121.24 L245.00 -129.90 L240.00 -138.56 L235.00 -147.22 L230.00 -155.88 L225.00 -164.54 L220.00 -173.21 L215.00 -181.87 L210.00 -190.53 L205.00 -199.19 L200.00 -207.85 L195.00 -216.51 L190.00 -225.17 L185.00 -233.83 L180.00 -242.49 L175.00 -251.15 L170.00 -259.81 L165.00 -268.47 L160.00 -277.13 L170.00 -277.13 L165.00 -285.79 L175.00 -285.79 L170.00 -277.13 L180.00 -277.13 L175.00 -285.79 L170.00 -294.45 L180.00 -294.45 L175.00 -303.11 L185.00 -303.11 L180.00 -294.45 L190.00 -294.45 L185.00 -285.79 L180.00 -277.13 L190.00 -277.13 L185.00 -285.79 L195.00 -285.79 L190.00 -277.13 L200.00 -277.13 L195.00 -285.79 L190.00 -294.45 L185.00 -303.11 L180.00 -311.77 L190.00 -311.77 L185.00 -320.43 L195.00 -320.43 L190.00 -311.77 L200.00 -311.77 L195.00 -320.43 L190.00 -329.09 L200.00 -329.09 L195.00 -337.75 L205.00 -337.75 L200.00 -329.09 L210.00 -329.09 L205.00 -320.43 L200.00 -311.77 L210.00 -311.77 L205.00 -320.43 L215.00 -320.43 L210.00 -311.77 L220.00 -311.77 L215.00 -303.11 L210.00 -294.45 L205.00 -285.79 L200.00 -277.13 L210.00 -277.13 L205.00 -285.79 L215.00 -285.79 L210.00 -277.13 L220.00 -277.13 L215.00 -285.79 L210.00 -294.45 L220.00 -294.45 L215.00 -303.11 L225.00 -303.11 L220.00 -294.45 L230.00 -294.45 L225.00 -285.79 L220.00 -277.13 L230.00 -277.13 L225.00 -285.79 L235.00 -285.79 L230.00 -277.13 L240.00 -277.13 L235.00 -285.79 L230.00 -294.45 L225.00 -303.11 L220.00 -311.77 L215.00 -320.43 L210.00 -329.09 L205.00 -337.75 L200.00 -346.41 L210.00 -346.41 L205.00 -355.07 L215.00 -355.07 L210.00 -346.41 L220.00 -346.41 L215.00 -355.07 L210.00 -363.73 L220.00 -363.73 L215.00 -372.39 L225.00 -372.39 L220.00 -363.73 L230.00 -363.73 L225.00 -355.07 L220.00 -346.41 L230.00 -346.41 L225.00 -355.07 L235.00 -355.07 L230.00 -346.41 L240.00 -346.41 L235.00 -355.07 L230.00 -363.73 L225.00 -372.39 L220.00 -381.05 L230.00 -381.05 L225.00 -389.71 L235.00 -389.71 L230.00 -381.05 L240.00 -381.05 L235.00 -389.71 L230.00 -398.37 L240.00 -398.37 L235.00 -407.03 L245.00 -407.03 L240.00 -398.37 L250.00 -398.37 L245.00 -389.71 L240.00 -381.05 L250.00 -381.05 L245.00 -389.71 L255.00 -389.71 L250.00 -381.05 L260.00 -381.05 L255.00 -372.39 L250.00 -363.73 L245.00 -355.07 L240.00 -346.41 L250.00 -346.41 L245.00 -355.07 L255.00 -355.07 L250.00 -346.41 L260.00 -346.41 L255.00 -355.07 L250.00 -363.73 L260.00 -363.73 L255.00 -372.39 L265.00 -372.39 L260.00 -363.73 L270.00 -363.73 L265.00 -355.07 L260.00 -346.41 L270.00 -346.41 L265.00 -355.07 L275.00 -355.07 L270.00 -346.41 L280.00 -346.41 L275.00 -337.75 L270.00 -329.09 L265.00 -320.43 L260.00 -311.77 L255.00 -303.11 L250.00 -294.45 L245.00 -285.79 L240.00 -277.13 L250.00 -277.13 L245.00 -285.79 L255.00 -285.79 L250.00 -277.13 L260.00 -277.13 L255.00 -285.79 L250.00 -294.45 L260.00 -294.45 L255.00 -303.11 L265.00 -303.11 L260.00 -294.45 L270.00 -294.45 L265.00 -285.79 L260.00 -277.13 L270.00 -277.13 L265.00 -285.79 L275.00 -285.79 L270.00 -277.13 L280.00 -277.13 L275.00 -285.79 L270.00 -294.45 L265.00 -303.11 L260.00 -311.77 L270.00 -311.77 L265.00 -320.43 L275.00 -320.43 L270.00 -311.77 L280.00 -311.77 L275.00 -320.43 L270.00 -329.09 L280.00 -329.09 L275.00 -337.75 L285.00 -337.75 L280.00 -329.09 L290.00 -329.09 L285.00 -320.43 L280.00 -311.77 L290.00 -311.77 L285.00 -320.43 L295.00 -320.43 L290.00 -311.77 L300.00 -311.77 L295.00 -303.11 L290.00 -294.45 L285.00 -285.79 L280.00 -277.13 L290.00 -277.13 L285.00 -285.79 L295.00 -285.79 L290.00 -277.13 L300.00 -277.13 L295.00 -285.79 L290.00 -294.45 L300.00 -294.45 L295.00 -303.11 L305.00 -303.11 L300.00 -294.45 L310.00 -294.45 L305.00 -285.79 L300.00 -277.13 L310.00 -277.13 L305.00 -285.79 L315.00 -285.79 L310.00 -277.13 L320.00 -277.13 L315.00 -285.79 L310.00 -294.45 L305.00 -303.11 L300.00 -311.77 L295.00 -320.43 L290.00 -329.09 L285.00 -337.75 L280.00 -346.41 L275.00 -355.07 L270.00 -363.73 L265.00 -372.39 L260.00 -381.05 L255.00 -389.71 L250.00 -398.37 L245.00 -407.03 L240.00 -415.69 L250.00 -415.69 L245.00 -424.35 L255.00 -424.35 L250.00 -415.69 L260.00 -415.69 L255.00 -424.35 L250.00 -433.01 L260.00 -433.01 L255.00 -441.67 L265.00 -441.67 L260.00 -433.01 L270.00 -433.01 L265.00 -424.35 L260.00 -415.69 L270.00 -415.69 L265.00 -424.35 L275.00 -424.35 L270.00 -415.69 L280.00 -415.69 L275.00 -424.35 L270.00 -433.01 L265.00 -441.67 L260.00 -450.33 L270.00 -450.33 L265.00 -458.99 L275.00 -458.99 L270.00 -450.33 L280.00 -450.33 L275.00 -458.99 L270.00 -467.65 L280.00 -467.65 L275.00 -476.31 L285.00 -476.31 L280.00 -467.65 L290.00 -467.65 L285.00 -458.99 L280.00 -450.33 L290.00 -450.33 L285.00 -458.99 L295.00 -458.99 L290.00 -450.33 L300.00 -450.33 L295.00 -441.67 L290.00 -433.01 L285.00 -424.35 L280.00 -415.69 L290.00 -415.69 L285.00 -424.35 L295.00 -424.35 L290.00 -415.69 L300.00 -415.69 L295.00 -424.35 L290.00 -433.01 L300.00 -433.01 L295.00 -441.67 L305.00 -441.67 L300.00 -433.01 L310.00 -433.01 L305.00 -424.35 L300.00 -415.69 L310.00 -415.69 L305.00 -424.35 L315.00 -424.35 L310.00 -415.69 L320.00 -415.69 L315.00 -424.35 L310.00 -433.01 L305.00 -441.67 L300.00 -450.33 L295.00 -458.99 L290.00 -467.65 L285.00 -476.31 L280.00 -484.97 L290.00 -484.97 L285.00 -493.63 L295.00 -493.63 L290.00 -484.97 L300.00 -484.97 L295.00 -493.63 L290.00 -502.29 L300.00 -502.29 L295.00 -510.95 L305.00 -510.95 L300.00 -502.29 L310.00 -502.29 L305.00 -493.63 L300.00 -484.97 L310.00 -484.97 L305.00 -493.63 L315.00 -493.63 L310.00 -484.97 L320.00 -484.97 L315.00 -493.63 L310.00 -502.29 L305.00 -510.95 L300.00 -519.61 L310.00 -519.61 L305.00 -528.28 L315.00 -528.28 L310.00 -519.61 L320.00 -519.61 L315.00 -528.28 L310.00 -536.94 L320.00 -536.94 L315.00 -545.60 L325.00 -545.60 L320.00 -536.94 L330.00 -536.94 L325.00 -528.28 L320.00 -519.61 L330.00 -519.61 L325.00 -528.28 L335.00 -528.28 L330.00 -519.61 L340.00 -519.61 L335.00 -510.95 L330.00 -502.29 L325.00 -493.63 L320.00 -484.97 L330.00 -484.97 L325.00 -493.63 L335.00 -493.63 L330.00 -484.97 L340.00 -484.97 L335.00 -493.63 L330.00 -502.29 L340.00 -502.29 L335.00 -510.95 L345.00 -510.95 L340.00 -502.29 L350.00 -502.29 L345.00 -493.63 L340.00 -484.97 L350.00 -484.97 L345.00 -493.63 L355.00 -493.63 L350.00 -484.97 L360.00 -484.97 L355.00 -476.31 L350.00 -467.65 L345.00 -458.99 L340.00 -450.33 L335.00 -441.67 L330.00 -433.01 L325.00 -424.35 L320.00 -415.69 L330.00 -415.69 L325.00 -424.35 L335.00 -424.35 L330.00 -415.69 L340.00 -415.69 L335.00 -424.35 L330.00 -433.01 L340.00 -433.01 L335.00 -441.67 L345.00 -441.67 L340.00 -433.01 L350.00 -433.01 L345.00 -424.35 L340.00 -415.69 L350.00 -415.69 L345.00 -424.35 L355.00 -424.35 L350.00 -415.69 L360.00 -415.69 L355.00 -424.35 L350.00 -433.01 L345.00 -441.67 L340.00 -450.33 L350.00 -450.33 L345.00 -458.99 L355.00 -458.99 L350.00 -450.33 L360.00 -450.33 L355.00 -458.99 L350.00 -467.65 L360.00 -467.65 L355.00 -476.31 L365.00 -476.31 L360.00 -467.65 L370.00 -467.65 L365.00 -458.99 L360.00 -450.33 L370.00 -450.33 L365.00 -458.99 L375.00 -458.99 L370.00 -450.33 L380.00 -450.33 L375.00 -441.67 L370.00 -433.01 L365.00 -424.35 L360.00 -415.69 L370.00 -415.69 L365.00 -424.35 L375.00 -424.35 L370.00 -415.69 L380.00 -415.69 L375.00 -424.35 L370.00 -433.01 L380.00 -433.01 L375.00 -441.67 L385.00 -441.67 L380.00 -433.01 L390.00 -433.01 L385.00 -424.35 L380.00 -415.69 L390.00 -415.69 L385.00 -424.35 L395.00 -424.35 L390.00 -415.69 L400.00 -415.69 L395.00 -407.03 L390.00 -398.37 L385.00 -389.71 L380.00 -381.05 L375.00 -372.39 L370.00 -363.73 L365.00 -355.07 L360.00 -346.41 L355.00 -337.75 L350.00 -329.09 L345.00 -320.43 L340.00 -311.77 L335.00 -303.11 L330.00 -294.45 L325.00 -285.79 L320.00 -277.13 L330.00 -277.13 L325.00 -285.79 L335.00 -285.79 L330.00 -277.13 L340.00 -277.13 L335.00 -285.79 L330.00 -294.45 L340.00 -294.45 L335.00 -303.11 L345.00 -303.11 L340.00 -294.45 L350.00 -294.45 L345.00 -285.79 L340.00 -277.13 L350.00 -277.13 L345.00 -285.79 L355.00 -285.79 L350.00 -277.13 L360.00 -277.13 L355.00 -285.79 L350.00 -294.45 L345.00 -303.11 L340.00 -311.77 L350.00 -311.77 L345.00 -320.43 L355.00 -320.43 L350.00 -311.77 L360.00 -311.77 L355.00 -320.43 L350.00 -329.09 L360.00 -329.09 L355.00 -337.75 L365.00 -337.75 L360.00 -329.09 L370.00 -329.09 L365.00 -320.43 L360.00 -311.77 L370.00 -311.77 L365.00 -320.43 L375.00 -320.43 L370.00 -311.77 L380.00 -311.77 L375.00 -303.11 L370.00 -294.45 L365.00 -285.79 L360.00 -277.13 L370.00 -277.13 L365.00 -285.79 L375.00 -285.79 L370.00 -277.13 L380.00 -277.13 L375.00 -285.79 L370.00 -294.45 L380.00 -294.45 L375.00 -303.11 L385.00 -303.11 L380.00 -294.45 L390.00 -294.45 L385.00 -285.79 L380.00 -277.13 L390.00 -277.13 L385.00 -285.79 L395.00 -285.79 L390.00 -277.13 L400.00 -277.13 L395.00 -285.79 L390.00 -294.45 L385.00 -303.11 L380.00 -311.77 L375.00 -320.43 L370.00 -329.09 L365.00 -337.75 L360.00 -346.41 L370.00 -346.41 L365.00 -355.07 L375.00 -355.07 L370.00 -346.41 L380.00 -346.41 L375.00 -355.07 L370.00 -363.73 L380.00 -363.73 L375.00 -372.39 L385.00 -372.39 L380.00 -363.73 L390.00 -363.73 L385.00 -355.07 L380.00 -346.41 L390.00 -346.41 L385.00 -355.07 L395.00 -355.07 L390.00 -346.41 L400.00 -346.41 L395.00 -355.07 L390.00 -363.73 L385.00 -372.39 L380.00 -381.05 L390.00 -381.05 L385.00 -389.71 L395.00 -389.71 L390.00 -381.05 L400.00 -381.05 L395.00 -389.71 L390.00 -398.37 L400.00 -398.37 L395.00 -407.03 L405.00 -407.03 L400.00 -398.37 L410.00 -398.37 L405.00 -389.71 L400.00 -381.05 L410.00 -381.05 L405.00 -389.71 L415.00 -389.71 L410.00 -381.05 L420.00 -381.05 L415.00 -372.39 L410.00 -363.73 L405.00 -355.07 L400.00 -346.41 L410.00 -346.41 L405.00 -355.07 L415.00 -355.07 L410.00 -346.41 L420.00 -346.41 L415.00 -355.07 L410.00 -363.73 L420.00 -363.73 L415.00 -372.39 L425.00 -372.39 L420.00 -363.73 L430.00 -363.73 L425.00 -355.07 L420.00 -346.41 L430.00 -346.41 L425.00 -355.07 L435.00 -355.07 L430.00 -346.41 L440.00 -346.41 L435.00 -337.75 L430.00 -329.09 L425.00 -320.43 L420.00 -311.77 L415.00 -303.11 L410.00 -294.45 L405.00 -285.79 L400.00 -277.13 L410.00 -277.13 L405.00 -285.79 L415.00 -285.79 L410.00 -277.13 L420.00 -277.13 L415.00 -285.79 L410.00 -294.45 L420.00 -294.45 L415.00 -303.11 L425.00 -303.11 L420.00 -294.45 L430.00 -294.45 L425.00 -285.79 L420.00 -277.13 L430.00 -277.13 L425.00 -285.79 L435.00 -285.79 L430.00 -277.13 L440.00 -277.13 L435.00 -285.79 L430.00 -294.45 L425.00 -303.11 L420.00 -311.77 L430.00 -311.77 L425.00 -320.43 L435.00 -320.43 L430.00 -311.77 L440.00 -311.77 L435.00 -320.43 L430.00 -329.09 L440.00 -329.09 L435.00 -337.75 L445.00 -337.75 L440.00 -329.09 L450.00 -329.09 L445.00 -320.43 L440.00 -311.77 L450.00 -311.77 L445.00 -320.43 L455.00 -320.43 L450.00 -311.77 L460.00 -311.77 L455.00 -303.11 L450.00 -294.45 L445.00 -285.79 L440.00 -277.13 L450.00 -277.13 L445.00 -285.79 L455.00 -285.79 L450.00 -277.13 L460.00 -277.13 L455.00 -285.79 L450.00 -294.45 L460.00 -294.45 L455.00 -303.11 L465.00 -303.11 L460.00 -294.45 L470.00 -294.45 L465.00 -285.79 L460.00 -277.13 L470.00 -277.13 L465.00 -285.79 L475.00 -285.79 L470.00 -277.13 L480.00 -277.13 L475.00 -268.47 L470.00 -259.81 L465.00 -251.15 L460.00 -242.49 L455.00 -233.83 L450.00 -225.17 L445.00 -216.51 L440.00 -207.85 L435.00 -199.19 L430.00 -190.53 L425.00 -181.87 L420.00 -173.21 L415.00 -164.54 L410.00 -155.88 L405.00 -147.22 L400.00 -138.56 L395.00 -129.90 L390.00 -121.24 L385.00 -112.58 L380.00 -103.92 L375.00 -95.26 L370.00 -86.60 L365.00 -77.94 L360.00 -69.28 L355.00 -60.62 L350.00 -51.96 L345.00 -43.30 L340.00 -34.64 L335.00 -25.98 L330.00 -17.32 L325.00 -8.66 L320.00 -0.00 L330.00 -0.00 L325.00 -8.66 L335.00 -8.66 L330.00 -0.00 L340.00 -0.00 L335.00 -8.66 L330.00 -17.32 L340.00 -17.32 L335.00 -25.98 L345.00 -25.98 L340.00 -17.32 L350.00 -17.32 L345.00 -8.66 L340.00 -0.00 L350.00 -0.00 L345.00 -8.66 L355.00 -8.66 L350.00 -0.00 L360.00 -0.00 L355.00 -8.66 L350.00 -17.32 L345.00 -25.98 L340.00 -34.64 L350.00 -34.64 L345.00 -43.30 L355.00 -43.30 L350.00 -34.64 L360.00 -34.64 L355.00 -43.30 L350.00 -51.96 L360.00 -51.96 L355.00 -60.62 L365.00 -60.62 L360.00 -51.96 L370.00 -51.96 L365.00 -43.30 L360.00 -34.64 L370.00 -34.64 L365.00 -43.30 L375.00 -43.30 L370.00 -34.64 L380.00 -34.64 L375.00 -25.98 L370.00 -17.32 L365.00 -8.66 L360.00 -0.00 L370.00 -0.00 L365.00 -8.66 L375.00 -8.66 L370.00 -0.00 L380.00 -0.00 L375.00 -8.66 L370.00 -17.32 L380.00 -17.32 L375.00 -25.98 L385.00 -25.98 L380.00 -17.32 L390.00 -17.32 L385.00 -8.66 L380.00 -0.00 L390.00 -0.00 L385.00 -8.66 L395.00 -8.66 L390.00 -0.00 L400.00 -0.00 L395.00 -8.66 L390.00 -17.32 L385.00 -25.98 L380.00 -34.64 L375.00 -43.30 L370.00 -51.96 L365.00 -60.62 L360.00 -69.28 L370.00 -69.28 L365.00 -77.94 L375.00 -77.94 L370.00 -69.28 L380.00 -69.28 L375.00 -77.94 L370.00 -86.60 L380.00 -86.60 L375.00 -95.26 L385.00 -95.26 L380.00 -86.60 L390.00 -86.60 L385.00 -77.94 L380.00 -69.28 L390.00 -69.28 L385.00 -77.94 L395.00 -77.94 L390.00 -69.28 L400.00 -69.28 L395.00 -77.94 L390.00 -86.60 L385.00 -95.26 L380.00 -103.92 L390.00 -103.92 L385.00 -112.58 L395.00 -112.58 L390.00 -103.92 L400.00 -103.92 L395.00 -112.58 L390.00 -121.24 L400.00 -121.24 L395.00 -129.90 L405.00 -129.90 L400.00 -121.24 L410.00 -121.24 L405.00 -112.58 L400.00 -103.92 L410.00 -103.92 L405.00 -112.58 L415.00 -112.58 L410.00 -103.92 L420.00 -103.92 L415.00 -95.26 L410.00 -86.60 L405.00 -77.94 L400.00 -69.28 L410.00 -69.28 L405.00 -77.94 L415.00 -77.94 L410.00 -69.28 L420.00 -69.28 L415.00 -77.94 L410.00 -86.60 L420.00 -86.60 L415.00 -95.26 L425.00 -95.26 L420.00 -86.60 L430.00 -86.60 L425.00 -77.94 L420.00 -69.28 L430.00 -69.28 L425.00 -77.94 L435.00 -77.94 L430.00 -69.28 L440.00 -69.28 L435.00 -60.62 L430.00 -51.96 L425.00 -43.30 L420.00 -34.64 L415.00 -25.98 L410.00 -17.32 L405.00 -8.66 L400.00 -0.00 L410.00 -0.00 L405.00 -8.66 L415.00 -8.66 L410.00 -0.00 L420.00 -0.00 L415.00 -8.66 L410.00 -17.32 L420.00 -17.32 L415.00 -25.98 L425.00 -25.98 L420.00 -17.32 L430.00 -17.32 L425.00 -8.66 L420.00 -0.00 L430.00 -0.00 L425.00 -8.66 L435.00 -8.66 L430.00 -0.00 L440.00 -0.00 L435.00 -8.66 L430.00 -17.32 L425.00 -25.98 L420.00 -34.64 L430.00 -34.64 L425.00 -43.30 L435.00 -43.30 L430.00 -34.64 L440.00 -34.64 L435.00 -43.30 L430.00 -51.96 L440.00 -51.96 L435.00 -60.62 L445.00 -60.62 L440.00 -51.96 L450.00 -51.96 L445.00 -43.30 L440.00 -34.64 L450.00 -34.64 L445.00 -43.30 L455.00 -43.30 L450.00 -34.64 L460.00 -34.64 L455.00 -25.98 L450.00 -17.32 L445.00 -8.66 L440.00 -0.00 L450.00 -0.00 L445.00 -8.66 L455.00 -8.66 L450.00 -0.00 L460.00 -0.00 L455.00 -8.66 L450.00 -17.32 L460.00 -17.32 L455.00 -25.98 L465.00 -25.98 L460.00 -17.32 L470.00 -17.32 L465.00 -8.66 L460.00 -0.00 L470.00 -0.00 L465.00 -8.66 L475.00 -8.66 L470.00 -0.00 L480.00 -0.00 L475.00 -8.66 L470.00 -17.32 L465.00 -25.98 L460.00 -34.64 L455.00 -43.30 L450.00 -51.96 L445.00 -60.62 L440.00 -69.28 L435.00 -77.94 L430.00 -86.60 L425.00 -95.26 L420.00 -103.92 L415.00 -112.58 L410.00 -121.24 L405.00 -129.90 L400.00 -138.56 L410.00 -138.56 L405.00 -147.22 L415.00 -147.22 L410.00 -138.56 L420.00 -138.56 L415.00 -147.22 L410.00 -155.88 L420.00 -155.88 L415.00 -164.54 L425.00 -164.54 L420.00 -155.88 L430.00 -155.88 L425.00 -147.22 L420.00 -138.56 L430.00 -138.56 L425.00 -147.22 L435.00 -147.22 L430.00 -138.56 L440.00 -138.56 L435.00 -147.22 L430.00 -155.88 L425.00 -164.54 L420.00 -173.21 L430.00 -173.21 L425.00 -181.87 L435.00 -181.87 L430.00 -173.21 L440.00 -173.21 L435.00 -181.87 L430.00 -190.53 L440.00 -190.53 L435.00 -199.19 L445.00 -199.19 L440.00 -190.53 L450.00 -190.53 L445.00 -181.87 L440.00 -173.21 L450.00 -173.21 L445.00 -181.87 L455.00 -181.87 L450.00 -173.21 L460.00 -173.21 L455.00 -164.54 L450.00 -155.88 L445.00 -147.22 L440.00 -138.56 L450.00 -138.56 L445.00 -147.22 L455.00 -147.22 L450.00 -138.56 L460.00 -138.56 L455.00 -147.22 L450.00 -155.88 L460.00 -155.88 L455.00 -164.54 L465.00 -164.54 L460.00 -155.88 L470.00 -155.88 L465.00 -147.22 L460.00 -138.56 L470.00 -138.56 L465.00 -147.22 L475.00 -147.22 L470.00 -138.56 L480.00 -138.56 L475.00 -147.22 L470.00 -155.88 L465.00 -164.54 L460.00 -173.21 L455.00 -181.87 L450.00 -190.53 L445.00 -199.19 L440.00 -207.85 L450.00 -207.85 L445.00 -216.51 L455.00 -216.51 L450.00 -207.85 L460.00 -207.85 L455.00 -216.51 L450.00 -225.17 L460.00 -225.17 L455.00 -233.83 L465.00 -233.83 L460.00 -225.17 L470.00 -225.17 L465.00 -216.51 L460.00 -207.85 L470.00 -207.85 L465.00 -216.51 L475.00 -216.51 L470.00 -207.85 L480.00 -207.85 L475.00 -216.51 L470.00 -225.17 L465.00 -233.83 L460.00 -242.49 L470.00 -242.49 L465.00 -251.15 L475.00 -251.15 L470.00 -242.49 L480.00 -242.49 L475.00 -251.15 L470.00 -259.81 L480.00 -259.81 L475.00 -268.47 L485.00 -268.47 L480.00 -259.81 L490.00 -259.81 L485.00 -251.15 L480.00 -242.49 L490.00 -242.49 L485.00 -251.15 L495.00 -251.15 L490.00 -242.49 L500.00 -242.49 L495.00 -233.83 L490.00 -225.17 L485.00 -216.51 L480.00 -207.85 L490.00 -207.85 L485.00 -216.51 L495.00 -216.51 L490.00 -207.85 L500.00 -207.85 L495.00 -216.51 L490.00 -225.17 L500.00 -225.17 L495.00 -233.83 L505.00 -233.83 L500.00 -225.17 L510.00 -225.17 L505.00 -216.51 L500.00 -207.85 L510.00 -207.85 L505.00 -216.51 L515.00 -216.51 L510.00 -207.85 L520.00 -207.85 L515.00 -199.19 L510.00 -190.53 L505.00 -181.87 L500.00 -173.21 L495.00 -164.54 L490.00 -155.88 L485.00 -147.22 L480.00 -138.56 L490.00 -138.56 L485.00 -147.22 L495.00 -147.22 L490.00 -138.56 L500.00 -138.56 L495.00 -147.22 L490.00 -155.88 L500.00 -155.88 L495.00 -164.54 L505.00 -164.54 L500.00 -155.88 L510.00 -155.88 L505.00 -147.22 L500.00 -138.56 L510.00 -138.56 L505.00 -147.22 L515.00 -147.22 L510.00 -138.56 L520.00 -138.56 L515.00 -147.22 L510.00 -155.88 L505.00 -164.54 L500.00 -173.21 L510.00 -173.21 L505.00 -181.87 L515.00 -181.87 L510.00 -173.21 L520.00 -173.21 L515.00 -181.87 L510.00 -190.53 L520.00 -190.53 L515.00 -199.19 L525.00 -199.19 L520.00 -190.53 L530.00 -190.53 L525.00 -181.87 L520.00 -173.21 L530.00 -173.21 L525.00 -181.87 L535.00 -181.87 L530.00 -173.21 L540.00 -173.21 L535.00 -164.54 L530.00 -155.88 L525.00 -147.22 L520.00 -138.56 L530.00 -138.56 L525.00 -147.22 L535.00 -147.22 L530.00 -138.56 L540.00 -138.56 L535.00 -147.22 L530.00 -155.88 L540.00 -155.88 L535.00 -164.54 L545.00 -164.54 L540.00 -155.88 L550.00 -155.88 L545.00 -147.22 L540.00 -138.56 L550.00 -138.56 L545.00 -147.22 L555.00 -147.22 L550.00 -138.56 L560.00 -138.56 L555.00 -129.90 L550.00 -121.24 L545.00 -112.58 L540.00 -103.92 L535.00 -95.26 L530.00 -86.60 L525.00 -77.94 L520.00 -69.28 L515.00 -60.62 L510.00 -51.96 L505.00 -43.30 L500.00 -34.64 L495.00 -25.98 L490.00 -17.32 L485.00 -8.66 L480.00 -0.00 L490.00 -0.00 L485.00 -8.66 L495.00 -8.66 L490.00 -0.00 L500.00 -0.00 L495.00 -8.66 L490.00 -17.32 L500.00 -17.32 L495.00 -25.98 L505.00 -25.98 L500.00 -17.32 L510.00 -17.32 L505.00 -8.66 L500.00 -0.00 L510.00 -0.00 L505.00 -8.66 L515.00 -8.66 L510.00 -0.00 L520.00 -0.00 L515.00 -8.66 L510.00 -17.32 L505.00 -25.98 L500.00 -34.64 L510.00 -34.64 L505.00 -43.30 L515.00 -43.30 L510.00 -34.64 L520.00 -34.64 L515.00 -43.30 L510.00 -51.96 L520.00 -51.96 L515.00 -60.62 L525.00 -60.62 L520.00 -51.96 L530.00 -51.96 L525.00 -43.30 L520.00 -34.64 L530.00 -34.64 L525.00 -43.30 L535.00 -43.30 L530.00 -34.64 L540.00 -34.64 L535.00 -25.98 L530.00 -17.32 L525.00 -8.66 L520.00 -0.00 L530.00 -0.00 L525.00 -8.66 L535.00 -8.66 L530.00 -0.00 L540.00 -0.00 L535.00 -8.66 L530.00 -17.32 L540.00 -17.32 L535.00 -25.98 L545.00 -25.98 L540.00 -17.32 L550.00 -17.32 L545.00 -8.66 L540.00 -0.00 L550.00 -0.00 L545.00 -8.66 L555.00 -8.66 L550.00 -0.00 L560.00 -0.00 L555.00 -8.66 L550.00 -17.32 L545.00 -25.98 L540.00 -34.64 L535.00 -43.30 L530.00 -51.96 L525.00 -60.62 L520.00 -69.28 L530.00 -69.28 L525.00 -77.94 L535.00 -77.94 L530.00 -69.28 L540.00 -69.28 L535.00 -77.94 L530.00 -86.60 L540.00 -86.60 L535.00 -95.26 L545.00 -95.26 L540.00 -86.60 L550.00 -86.60 L545.00 -77.94 L540.00 -69.28 L550.00 -69.28 L545.00 -77.94 L555.00 -77.94 L550.00 -69.28 L560.00 -69.28 L555.00 -77.94 L550.00 -86.60 L545.00 -95.26 L540.00 -103.92 L550.00 -103.92 L545.00 -112.58 L555.00 -112.58 L550.00 -103.92 L560.00 -103.92 L555.00 -112.58 L550.00 -121.24 L560.00 -121.24 L555.00 -129.90 L565.00 -129.90 L560.00 -121.24 L570.00 -121.24 L565.00 -112.58 L560.00 -103.92 L570.00 -103.92 L565.00 -112.58 L575.00 -112.58 L570.00 -103.92 L580.00 -103.92 L575.00 -95.26 L570.00 -86.60 L565.00 -77.94 L560.00 -69.28 L570.00 -69.28 L565.00 -77.94 L575.00 -77.94 L570.00 -69.28 L580.00 -69.28 L575.00 -77.94 L570.00 -86.60 L580.00 -86.60 L575.00 -95.26 L585.00 -95.26 L580.00 -86.60 L590.00 -86.60 L585.00 -77.94 L580.00 -69.28 L590.00 -69.28 L585.00 -77.94 L595.00 -77.94 L590.00 -69.28 L600.00 -69.28 L595.00 -60.62 L590.00 -51.96 L585.00 -43.30 L580.00 -34.64 L575.00 -25.98 L570.00 -17.32 L565.00 -8.66 L560.00 -0.00 L570.00 -0.00 L565.00 -8.66 L575.00 -8.66 L570.00 -0.00 L580.00 -0.00 L575.00 -8.66 L570.00 -17.32 L580.00 -17.32 L575.00 -25.98 L585.00 -25.98 L580.00 -17.32 L590.00 -17.32 L585.00 -8.66 L580.00 -0.00 L590.00 -0.00 L585.00 -8.66 L595.00 -8.66 L590.00 -0.00 L600.00 -0.00 L595.00 -8.66 L590.00 -17.32 L585.00 -25.98 L580.00 -34.64 L590.00 -34.64 L585.00 -43.30 L595.00 -43.30 L590.00 -34.64 L600.00 -34.64 L595.00 -43.30 L590.00 -51.96 L600.00 -51.96 L595.00 -60.62 L605.00 -60.62 L600.00 -51.96 L610.00 -51.96 L605.00 -43.30 L600.00 -34.64 L610.00 -34.64 L605.00 -43.30 L615.00 -43.30 L610.00 -34.64 L620.00 -34.64 L615.00 -25.98 L610.00 -17.32 L605.00 -8.66 L600.00 -0.00 L610.00 -0.00 L605.00 -8.66 L615.00 -8.66 L610.00 -0.00 L620.00 -0.00 L615.00 -8.66 L610.00 -17.32 L620.00 -17.32 L615.00 -25.98 L625.00 -25.98 L620.00 -17.32 L630.00 -17.32 L625.00 -8.66 L620.00 -0.00 L630.00 -0.00 L625.00 -8.66 L635.00 -8.66 L630.00 -0.00 L640.00 -0.00 L635.00 -8.66 L630.00 -17.32 L625.00 -25.98 L620.00 -34.64 L615.00 -43.30 L610.00 -51.96 L605.00 -60.62 L600.00 -69.28 L595.00 -77.94 L590.00 -86.60 L585.00 -95.26 L580.00 -103.92 L575.00 -112.58 L570.00 -121.24 L565.00 -129.90 L560.00 -138.56 L555.00 -147.22 L550.00 -155.88 L545.00 -164.54 L540.00 -173.21 L535.00 -181.87 L530.00 -190.53 L525.00 -199.19 L520.00 -207.85 L515.00 -216.51 L510.00 -225.17 L505.00 -233.83 L500.00 -242.49 L495.00 -251.15 L490.00 -259.81 L485.00 -268.47 L480.00 -277.13 L475.00 -285.79 L470.00 -294.45 L465.00 -303.11 L460.00 -311.77 L455.00 -320.43 L450.00 -329.09 L445.00 -337.75 L440.00 -346.41 L435.00 -355.07 L430.00 -363.73 L425.00 -372.39 L420.00 -381.05 L415.00 -389.71 L410.00 -398.37 L405.00 -407.03 L400.00 -415.69 L395.00 -424.35 L390.00 -433.01 L385.00 -441.67 L380.00 -450.33 L375.00 -458.99 L370.00 -467.65 L365.00 -476.31 L360.00 -484.97 L355.00 -493.63 L350.00 -502.29 L345.00 -510.95 L340.00 -519.61 L335.00 -528.28 L330.00 -536.94 L325.00 -545.60 L320.00 -554.26 L315.00 -545.60 L310.00 -536.94 L305.00 -528.28 L300.00 -519.61 L295.00 -510.95 L290.00 -502.29 L285.00 -493.63 L280.00 -484.97 L275.00 -476.31 L270.00 -467.65 L265.00 -458.99 L260.00 -450.33 L255.00 -441.67 L250.00 -433.01 L245.00 -424.35 L240.00 -415.69 L235.00 -407.03 L230.00 -398.37 L225.00 -389.71 L220.00 -381.05 L215.00 -372.39 L210.00 -363.73 L205.00 -355.07 L200.00 -346.41 L195.00 -337.75 L190.00 -329.09 L185.00 -320.43 L180.00 -311.77 L175.00 -303.11 L170.00 -294.45 L165.00 -285.79 L160.00 -277.13 L155.00 -268.47 L150.00 -259.81 L145.00 -251.15 L140.00 -242.49 L135.00 -233.83 L130.00 -225.17 L125.00 -216.51 L120.00 -207.85 L115.00 -199.19 L110.00 -190.53 L105.00 -181.87 L100.00 -173.21 L95.00 -164.54 L90.00 -155.88 L85.00 -147.22 L80.00 -138.56 L75.00 -129.90 L70.00 -121.24 L65.00 -112.58 L60.00 -103.92 L55.00 -95.26 L50.00 -86.60 L45.00 -77.94 L40.00 -69.28 L35.00 -60.62 L30.00 -51.96 L25.00 -43.30 L20.00 -34.64 L15.00 -25.98 L10.00 -17.32 L5.00 -8.66 L-0.00 -0.00 " />
</g>
</svg>

