<svg viewBox="0 0 400.000000 345.483551" xmlns="http://www.w3.org/2000/svg" version="1.1">
<!-- SEED 1946309326 -->
<rect width="400.000000" height="345.483551" fill="#FFBB44" fill-opacity="1.000000"/>
<g transform="scale(1.410437,1.390629) translate(13.800000,234.636871) ">
<path stroke="#000000" stroke-opacity="1.000000" stroke-width="0.500000" fill="none" fill-opacity="1" d="M0.00 0.00 L1.00 0.00 L1.50 -0.87 L1.00 -1.73 L1.50 -2.60 L2.50 -2.60 L3.00 -1.73 L2.50 -0.87 L3.00 -0.00 L4.00 -0.00 L4.50 -0.87 L5.50 -0.87 L6.00 -0.00 L7.00 -0.00 L7.50 -0.87 L7.00 -1.73 L6.00 -1.73 L5.50 -2.60 L6.00 -3.46 L5.50 -4.33 L4.50 -4.33 L4.00 -3.46 L3.00 -3.46 L2.50 -4.33 L3.00 -5.20 L4.00 -5.20 L4.50 -6.06 L4.00 -6.93 L4.50 -7.79 L5.50 -7.79 L6.00 -6.93 L7.00 -6.93 L7.50 -7.79 L7.00 -8.66 L6.00 -8.66 L5.50 -9.53 L6.00 -10.39 L7.00 -10.39 L7.50 -11.26 L7.00 -12.12 L7.50 -12.99 L8.50 -12.99 L9.00 -12.12 L8.50 -11.26 L9.00 -10.39 L10.00 -10.39 L10.50 -9.53 L10.00 -8.66 L9.00 -8.66 L8.50 -7.79 L9.00 -6.93 L10.00 -6.93 L10.50 -7.79 L11.50 -7.79 L12.00 -6.93 L11.50 -6.06 L12.00 -5.20 L13.00 -5.20 L13.50 -4.33 L13.00 -3.46 L12.00 -3.46 L11.50 -4.33 L10.50 -4.33 L10.00 -3.46 L10.50 -2.60 L10.00 -1.73 L9.00 -1.73 L8.50 -0.87 L9.00 0.00 L10.00 0.00 L10.50 -0.87 L11.50 -0.87 L12.00 0.00 L13.00 0.00 L13.50 -0.87 L13.00 -1.73 L13.50 -2.60 L14.50 -2.60 L15.00 -1.73 L14.50 -0.87 L15.00 0.00 L16.00 0.00 L16.50 -0.87 L17.50 -0.87 L18.00 0.00 L19.00 0.00 L19.50 -0.87 L19.00 -1.73 L18.00 -1.73 L17.50 -2.60 L18.00 -3.46 L19.00 -3.46 L19.50 -4.33 L19.00 -5.20 L19.50 -6.06 L20.50 -6.06 L21.00 -5.20 L20.50 -4.33 L21.00 -3.46 L22.00 -3.46 L22.50 -2.60 L22.00 -1.73 L21.00 -1.73 L20.50 -0.87 L21.00 0.00 L22.00 0.00 L22.50 -0.87 L23.50 -0.87 L24.00 0.00 L25.00 0.00 L25.50 -0.87 L25.00 -1.73 L25.50 -2.60 L26.50 -2.60 L27.00 -1.73 L26.50 -0.87 L27.00 0.00 L28.00 0.00 L28.50 -0.87 L29.50 -0.87 L30.00 0.00 L31.00 0.00 L31.50 -0.87 L31.00 -1.73 L30.00 -1.73 L29.50 -2.60 L30.00 -3.46 L29.50 -4.33 L28.50 -4.33 L28.00 -3.46 L27.00 -3.46 L26.50 -4.33 L27.00 -5.20 L28.00 -5.20 L28.50 -6.06 L28.00 -6.93 L27.00 -6.93 L26.50 -7.79 L27.00 -8.66 L26.50 -9.53 L25.50 -9.53 L25.00 -8.66 L25.50 -7.79 L25.00 -6.93 L24.00 -6.93 L23.50 -7.79 L22.50 -7.79 L22.00 -6.93 L21.00 -6.93 L20.50 -7.79 L21.00 -8.66 L22.00 -8.66 L22.50 -9.53 L22.00 -10.39 L22.50 -11.26 L23.50 -11.26 L24.00 -10.39 L25.00 -10.39 L25.50 -11.26 L25.00 -12.12 L24.00 -12.12 L23.50 -12.99 L24.00 -13.86 L23.50 -14.72 L22.50 -14.72 L22.00 -13.86 L21.00 -13.86 L20.50 -14.72 L21.00 -15.59 L22.00 -15.59 L22.50 -16.45 L22.00 -17.32 L21.00 -17.32 L20.50 -18.19 L21.00 -19.05 L20.50 -19.92 L19.50 -19.92 L19.00 -19.05 L19.50 -18.19 L19.00 -17.32 L18.00 -17.32 L17.50 -16.45 L18.00 -15.59 L19.00 -15.59 L19.50 -14.72 L19.00 -13.86 L18.00 -13.86 L17.50 -14.72 L16.50 -14.72 L16.00 -13.86 L15.00 -13.86 L14.50 -14.72 L15.00 -15.59 L14.50 -16.45 L13.50 -16.45 L13.00 -15.59 L13.50 -14.72 L13.00 -13.86 L12.00 -13.86 L11.50 -14.72 L10.50 -14.72 L10.00 -13.86 L9.00 -13.86 L8.50 -14.72 L9.00 -15.59 L10.00 -15.59 L10.50 -16.45 L10.00 -17.32 L10.50 -18.19 L11.50 -18.19 L12.00 -17.32 L13.00 -17.32 L13.50 -18.19 L13.00 -19.05 L12.00 -19.05 L11.50 -19.92 L12.00 -20.78 L13.00 -20.78 L13.50 -21.65 L13.00 -22.52 L13.50 -23.38 L14.50 -23.38 L15.00 -22.52 L14.50 -21.65 L15.00 -20.78 L16.00 -20.78 L16.50 -21.65 L17.50 -21.65 L18.00 -20.78 L19.00 -20.78 L19.50 -21.65 L19.00 -22.52 L18.00 -22.52 L17.50 -23.38 L18.00 -24.25 L17.50 -25.11 L16.50 -25.11 L16.00 -24.25 L15.00 -24.25 L14.50 -25.11 L15.00 -25.98 L16.00 -25.98 L16.50 -26.85 L16.00 -27.71 L16.50 -28.58 L17.50 -28.58 L18.00 -27.71 L19.00 -27.71 L19.50 -28.58 L19.00 -29.44 L18.00 -29.44 L17.50 -30.31 L18.00 -31.18 L19.00 -31.18 L19.50 -32.04 L19.00 -32.91 L19.50 -33.77 L20.50 -33.77 L21.00 -32.91 L20.50 -32.04 L21.00 -31.18 L22.00 -31.18 L22.50 -30.31 L22.00 -29.44 L21.00 -29.44 L20.50 -28.58 L21.00 -27.71 L22.00 -27.71 L22.50 -28.58 L23.50 -28.58 L24.00 -27.71 L25.00 -27.71 L25.50 -28.58 L25.00 -29.44 L25.50 -30.31 L26.50 -30.31 L27.00 -29.44 L26.50 -28.58 L27.00 -27.71 L28.00 -27.71 L28.50 -28.58 L29.50 -28.58 L30.00 -27.71 L31.00 -27.71 L31.50 -28.58 L31.00 -29.44 L30.00 -29.44 L29.50 -30.31 L30.00 -31.18 L29.50 -32.04 L28.50 -32.04 L28.00 -31.18 L27.00 -31.18 L26.50 -32.04 L27.00 -32.91 L28.00 -32.91 L28.50 -33.77 L28.00 -34.64 L27.00 -34.64 L26.50 -35.51 L27.00 -36.37 L26.50 -37.24 L25.50 -37.24 L25.00 -36.37 L25.50 -35.51 L25.00 -34.64 L24.00 -34.64 L23.50 -35.51 L22.50 -35.51 L22.00 -34.64 L21.00 -34.64 L20.50 -35.51 L21.00 -36.37 L22.00 -36.37 L22.50 -37.24 L22.00 -38.11 L22.50 -38.97 L23.50 -38.97 L24.00 -38.11 L25.00 -38.11 L25.50 -38.97 L25.00 -39.84 L24.00 -39.84 L23.50 -40.70 L24.00 -41.57 L25.00 -41.57 L25.50 -42.44 L25.00 -43.30 L25.50 -44.17 L26.50 -44.17 L27.00 -43.30 L26.50 -42.44 L27.00 -41.57 L28.00 -41.57 L28.50 -42.44 L29.50 -42.44 L30.00 -41.57 L31.00 -41.57 L31.50 -42.44 L31.00 -43.30 L30.00 -43.30 L29.50 -44.17 L30.00 -45.03 L29.50 -45.90 L28.50 -45.90 L28.00 -45.03 L27.00 -45.03 L26.50 -45.90 L27.00 -46.77 L28.00 -46.77 L28.50 -47.63 L28.00 -48.50 L28.50 -49.36 L29.50 -49.36 L30.00 -48.50 L31.00 -48.50 L31.50 -49.36 L31.00 -50.23 L30.00 -50.23 L29.50 -51.10 L30.00 -51.96 L31.00 -51.96 L31.50 -52.83 L31.00 -53.69 L31.50 -54.56 L32.50 -54.56 L33.00 -53.69 L32.50 -52.83 L33.00 -51.96 L34.00 -51.96 L34.50 -51.10 L34.00 -50.23 L33.00 -50.23 L32.50 -49.36 L33.00 -48.50 L34.00 -48.50 L34.50 -49.36 L35.50 -49.36 L36.00 -48.50 L35.50 -47.63 L36.00 -46.77 L37.00 -46.77 L37.50 -45.90 L37.00 -45.03 L36.00 -45.03 L35.50 -45.90 L34.50 -45.90 L34.00 -45.03 L34.50 -44.17 L34.00 -43.30 L33.00 -43.30 L32.50 -42.44 L33.00 -41.57 L34.00 -41.57 L34.50 -42.44 L35.50 -42.44 L36.00 -41.57 L37.00 -41.57 L37.50 -42.44 L37.00 -43.30 L37.50 -44.17 L38.50 -44.17 L39.00 -43.30 L38.50 -42.44 L39.00 -41.57 L40.00 -41.57 L40.50 -40.70 L40.00 -39.84 L39.00 -39.84 L38.50 -38.97 L39.00 -38.11 L40.00 -38.11 L40.50 -38.97 L41.50 -38.97 L42.00 -38.11 L41.50 -37.24 L42.00 -36.37 L43.00 -36.37 L43.50 -35.51 L43.00 -34.64 L42.00 -34.64 L41.50 -35.51 L40.50 -35.51 L40.00 -34.64 L39.00 -34.64 L38.50 -35.51 L39.00 -36.37 L38.50 -37.24 L37.50 -37.24 L37.00 -36.37 L37.50 -35.51 L37.00 -34.64 L36.00 -34.64 L35.50 -33.77 L36.00 -32.91 L37.00 -32.91 L37.50 -32.04 L37.00 -31.18 L36.00 -31.18 L35.50 -32.04 L34.50 -32.04 L34.00 -31.18 L34.50 -30.31 L34.00 -29.44 L33.00 -29.44 L32.50 -28.58 L33.00 -27.71 L34.00 -27.71 L34.50 -28.58 L35.50 -28.58 L36.00 -27.71 L37.00 -27.71 L37.50 -28.58 L37.00 -29.44 L37.50 -30.31 L38.50 -30.31 L39.00 -29.44 L38.50 -28.58 L39.00 -27.71 L40.00 -27.71 L40.50 -28.58 L41.50 -28.58 L42.00 -27.71 L43.00 -27.71 L43.50 -28.58 L43.00 -29.44 L42.00 -29.44 L41.50 -30.31 L42.00 -31.18 L43.00 -31.18 L43.50 -32.04 L43.00 -32.91 L43.50 -33.77 L44.50 -33.77 L45.00 -32.91 L44.50 -32.04 L45.00 -31.18 L46.00 -31.18 L46.50 -30.31 L46.00 -29.44 L45.00 -29.44 L44.50 -28.58 L45.00 -27.71 L46.00 -27.71 L46.50 -28.58 L47.50 -28.58 L48.00 -27.71 L47.50 -26.85 L48.00 -25.98 L49.00 -25.98 L49.50 -25.11 L49.00 -24.25 L48.00 -24.25 L47.50 -25.11 L46.50 -25.11 L46.00 -24.25 L46.50 -23.38 L46.00 -22.52 L45.00 -22.52 L44.50 -21.65 L45.00 -20.78 L46.00 -20.78 L46.50 -21.65 L47.50 -21.65 L48.00 -20.78 L49.00 -20.78 L49.50 -21.65 L49.00 -22.52 L49.50 -23.38 L50.50 -23.38 L51.00 -22.52 L50.50 -21.65 L51.00 -20.78 L52.00 -20.78 L52.50 -19.92 L52.00 -19.05 L51.00 -19.05 L50.50 -18.19 L51.00 -17.32 L52.00 -17.32 L52.50 -18.19 L53.50 -18.19 L54.00 -17.32 L53.50 -16.45 L54.00 -15.59 L55.00 -15.59 L55.50 -14.72 L55.00 -13.86 L54.00 -13.86 L53.50 -14.72 L52.50 -14.72 L52.00 -13.86 L51.00 -13.86 L50.50 -14.72 L51.00 -15.59 L50.50 -16.45 L49.50 -16.45 L49.00 -15.59 L49.50 -14.72 L49.00 -13.86 L48.00 -13.86 L47.50 -14.72 L46.50 -14.72 L46.00 -13.86 L45.00 -13.86 L44.50 -14.72 L45.00 -15.59 L46.00 -15.59 L46.50 -16.45 L46.00 -17.32 L45.00 -17.32 L44.50 -18.19 L45.00 -19.05 L44.50 -19.92 L43.50 -19.92 L43.00 -19.05 L43.50 -18.19 L43.00 -17.32 L42.00 -17.32 L41.50 -16.45 L42.00 -15.59 L43.00 -15.59 L43.50 -14.72 L43.00 -13.86 L42.00 -13.86 L41.50 -14.72 L40.50 -14.72 L40.00 -13.86 L40.50 -12.99 L40.00 -12.12 L39.00 -12.12 L38.50 -11.26 L39.00 -10.39 L40.00 -10.39 L40.50 -11.26 L41.50 -11.26 L42.00 -10.39 L41.50 -9.53 L42.00 -8.66 L43.00 -8.66 L43.50 -7.79 L43.00 -6.93 L42.00 -6.93 L41.50 -7.79 L40.50 -7.79 L40.00 -6.93 L39.00 -6.93 L38.50 -7.79 L39.00 -8.66 L38.50 -9.53 L37.50 -9.53 L37.00 -8.66 L37.50 -7.79 L37.00 -6.93 L36.00 -6.93 L35.50 -6.06 L36.00 -5.20 L37.00 -5.20 L37.50 -4.33 L37.00 -3.46 L36.00 -3.46 L35.50 -4.33 L34.50 -4.33 L34.00 -3.46 L34.50 -2.60 L34.00 -1.73 L33.00 -1.73 L32.50 -0.87 L33.00 0.00 L34.00 0.00 L34.50 -0.87 L35.50 -0.87 L36.00 0.00 L37.00 0.00 L37.50 -0.87 L37.00 -1.73 L37.50 -2.60 L38.50 -2.60 L39.00 -1.73 L38.50 -0.87 L39.00 0.00 L40.00 0.00 L40.50 -0.87 L41.50 -0.87 L42.00 0.00 L43.00 0.00 L43.50 -0.87 L43.00 -1.73 L42.00 -1.73 L41.50 -2.60 L42.00 -3.46 L43.00 -3.46 L43.50 -4.33 L43.00 -5.20 L43.50 -6.06 L44.50 -6.06 L45.00 -5.20 L44.50 -4.33 L45.00 -3.46 L46.00 -3.46 L46.50 -2.60 L46.00 -1.73 L45.00 -1.73 L44.50 -0.87 L45.00 0.00 L46.00 0.00 L46.50 -0.87 L47.50 -0.87 L48.00 0.00 L49.00 0.00 L49.50 -0.87 L49.00 -1.73 L49.50 -2.60 L50.50 -2.60 L51.00 -1.73 L50.50 -0.87 L51.00 0.00 L52.00 0.00 L52.50 -0.87 L53.50 -0.87 L54.00 0.00 L55.00 0.00 L55.50 -0.87 L55.00 -1.73 L54.00 -1.73 L53.50 -2.60 L54.00 -3.46 L53.50 -4.33 L52.50 -4.33 L52.00 -3.46 L51.00 -3.46 L50.50 -4.33 L51.00 -5.20 L52.00 -5.20 L52.50 -6.06 L52.00 -6.93 L52.50 -7.79 L53.50 -7.79 L54.00 -6.93 L55.00 -6.93 L55.50 -7.79 L55.00 -8.66 L54.00 -8.66 L53.50 -9.53 L54.00 -10.39 L55.00 -10.39 L55.50 -11.26 L55.00 -12.12 L55.50 -12.99 L56.50 -12.99 L57.00 -12.12 L56.50 -11.26 L57.00 -10.39 L58.00 -10.39 L58.50 -9.53 L58.00 -8.66 L57.00 -8.66 L56.50 -7.79 L57.00 -6.93 L58.00 -6.93 L58.50 -7.79 L59.50 -7.79 L60.00 -6.93 L59.50 -6.06 L60.00 -5.20 L61.00 -5.20 L61.50 -4.33 L61.00 -3.46 L60.00 -3.46 L59.50 -4.33 L58.50 -4.33 L58.00 -3.46 L58.50 -2.60 L58.00 -1.73 L57.00 -1.73 L56.50 -0.87 L57.00 0.00 L58.00 0.00 L58.50 -0.87 L59.50 -0.87 L60.00 0.00 L61.00 0.00 L61.50 -0.87 L61.00 -1.73 L61.50 -2.60 L62.50 -2.60 L63.00 -1.73 L62.50 -0.87 L63.00 0.00 L64.00 0.00 L64.50 -0.87 L65.50 -0.87 L66.00 0.00 L67.00 0.00 L67.50 -0.87 L67.00 -1.73 L66.00 -1.73 L65.50 -2.60 L66.00 -3.46 L67.00 -3.46 L67.50 -4.33 L67.00 -5.20 L67.50 -6.06 L68.50 -6.06 L69.00 -5.20 L68.50 -4.33 L69.00 -3.46 L70.00 -3.46 L70.50 -2.60 L70.00 -1.73 L69.00 -1.73 L68.50 -0.87 L69.00 0.00 L70.00 0.00 L70.50 -0.87 L71.50 -0.87 L72.00 0.00 L73.00 0.00 L73.50 -0.87 L73.00 -1.73 L73.50 -2.60 L74.50 -2.60 L75.00 -1.73 L74.50 -0.87 L75.00 0.00 L76.00 0.00 L76.50 -0.87 L77.50 -0.87 L78.00 0.00 L79.00 0.00 L79.50 -0.87 L79.00 -1.73 L78.00 -1.73 L77.50 -2.60 L78.00 -3.46 L77.50 -4.33 L76.50 -4.33 L76.00 -3.46 L75.00 -3.46 L74.50 -4.33 L75.00 -5.20 L76.00 -5.20 L76.50 -6.06 L76.00 -6.93 L75.00 -6.93 L74.50 -7.79 L75.00 -8.66 L74.50 -9.53 L73.50 -9.53 L73.00 -8.66 L73.50 -7.79 L73.00 -6.93 L72.00 -6.93 L71.50 -7.79 L70.50 -7.79 L70.00 -6.93 L69.00 -6.93 L68.50 -7.79 L69.00 -8.66 L70.00 -8.66 L70.50 -9.53 L70.00 -10.39 L70.50 -11.26 L71.50 -11.26 L72.00 -10.39 L73.00 -10.39 L73.50 -11.26 L73.00 -12.12 L72.00 -12.12 L71.50 -12.99 L72.00 -13.86 L73.00 -13.86 L73.50 -14.72 L73.00 -15.59 L73.50 -16.45 L74.50 -16.45 L75.00 -15.59 L74.50 -14.72 L75.00 -13.86 L76.00 -13.86 L76.50 -14.72 L77.50 -14.72 L78.00 -13.86 L79.00 -13.86 L79.50 -14.72 L79.00 -15.59 L78.00 -15.59 L77.50 -16.45 L78.00 -17.32 L77.50 -18.19 L76.50 -18.19 L76.00 -17.32 L75.00 -17.32 L74.50 -18.19 L75.00 -19.05 L76.00 -19.05 L76.50 -19.92 L76.00 -20.78 L76.50 -21.65 L77.50 -21.65 L78.00 -20.78 L79.00 -20.78 L79.50 -21.65 L79.00 -22.52 L78.00 -22.52 L77.50 -23.38 L78.00 -24.25 L79.00 -24.25 L79.50 -25.11 L79.00 -25.98 L79.50 -26.85 L80.50 -26.85 L81.00 -25.98 L80.50 -25.11 L81.00 -24.25 L82.00 -24.25 L82.50 -23.38 L82.00 -22.52 L81.00 -22.52 L80.50 -21.65 L81.00 -20.78 L82.00 -20.78 L82.50 -21.65 L83.50 -21.65 L84.00 -20.78 L83.50 -19.92 L84.00 -19.05 L85.00 -19.05 L85.50 -18.19 L85.00 -17.32 L84.00 -17.32 L83.50 -18.19 L82.50 -18.19 L82.00 -17.32 L82.50 -16.45 L82.00 -15.59 L81.00 -15.59 L80.50 -14.72 L81.00 -13.86 L82.00 -13.86 L82.50 -14.72 L83.50 -14.72 L84.00 -13.86 L85.00 -13.86 L85.50 -14.72 L85.00 -15.59 L85.50 -16.45 L86.50 -16.45 L87.00 -15.59 L86.50 -14.72 L87.00 -13.86 L88.00 -13.86 L88.50 -12.99 L88.00 -12.12 L87.00 -12.12 L86.50 -11.26 L87.00 -10.39 L88.00 -10.39 L88.50 -11.26 L89.50 -11.26 L90.00 -10.39 L89.50 -9.53 L90.00 -8.66 L91.00 -8.66 L91.50 -7.79 L91.00 -6.93 L90.00 -6.93 L89.50 -7.79 L88.50 -7.79 L88.00 -6.93 L87.00 -6.93 L86.50 -7.79 L87.00 -8.66 L86.50 -9.53 L85.50 -9.53 L85.00 -8.66 L85.50 -7.79 L85.00 -6.93 L84.00 -6.93 L83.50 -6.06 L84.00 -5.20 L85.00 -5.20 L85.50 -4.33 L85.00 -3.46 L84.00 -3.46 L83.50 -4.33 L82.50 -4.33 L82.00 -3.46 L82.50 -2.60 L82.00 -1.73 L81.00 -1.73 L80.50 -0.87 L81.00 0.00 L82.00 0.00 L82.50 -0.87 L83.50 -0.87 L84.00 0.00 L85.00 0.00 L85.50 -0.87 L85.00 -1.73 L85.50 -2.60 L86.50 -2.60 L87.00 -1.73 L86.50 -0.87 L87.00 0.00 L88.00 0.00 L88.50 -0.87 L89.50 -0.87 L90.00 0.00 L91.00 0.00 L91.50 -0.87 L91.00 -1.73 L90.00 -1.73 L89.50 -2.60 L90.00 -3.46 L91.00 -3.46 L91.50 -4.33 L91.00 -5.20 L91.50 -6.06 L92.50 -6.06 L93.00 -5.20 L92.50 -4.33 L93.00 -3.46 L94.00 -3.46 L94.50 -2.60 L94.00 -1.73 L93.00 -1.73 L92.50 -0.87 L93.00 0.00 L94.00 0.00 L94.50 -0.87 L95.50 -0.87 L96.00 0.00 L97.00 0.00 L97.50 -0.87 L97.00 -1.73 L97.50 -2.60 L98.50 -2.60 L99.00 -1.73 L98.50 -0.87 L99.00 0.00 L100.00 0.00 L100.50 -0.87 L101.50 -0.87 L102.00 0.00 L103.00 0.00 L103.50 -0.87 L103.00 -1.73 L102.00 -1.73 L101.50 -2.60 L102.00 -3.46 L101.50 -4.33 L100.50 -4.33 L100.00 -3.46 L99.00 -3.46 L98.50 -4.33 L99.00 -5.20 L100.00 -5.20 L100.50 -6.06 L100.00 -6.93 L100.50 -7.79 L101.50 -7.79 L102.00 -6.93 L103.00 -6.93 L103.50 -7.79 L103.00 -8.66 L102.00 -8.66 L101.50 -9.53 L102.00 -10.39 L103.00 -10.39 L103.50 -11.26 L103.00 -12.12 L103.50 -12.99 L104.50 -12.99 L105.00 -12.12 L104.50 -11.26 L105.00 -10.39 L106.00 -10.39 L106.50 -9.53 L106.00 -8.66 L105.00 -8.66 L104.50 -7.79 L105.00 -6.93 L106.00 -6.93 L106.50 -7.79 L107.50 -7.79 L108.00 -6.93 L107.50 -6.06 L108.00 -5.20 L109.00 -5.20 L109.50 -4.33 L109.00 -3.46 L108.00 -3.46 L107.50 -4.33 L106.50 -4.33 L106.00 -3.46 L106.50 -2.60 L106.00 -1.73 L105.00 -1.73 L104.50 -0.87 L105.00 0.00 L106.00 0.00 L106.50 -0.87 L107.50 -0.87 L108.00 0.00 L109.00 0.00 L109.50 -0.87 L109.00 -1.73 L109.50 -2.60 L110.50 -2.60 L111.00 -1.73 L110.50 -0.87 L111.00 0.00 L112.00 0.00 L112.50 -0.87 L113.50 -0.87 L114.00 0.00 L115.00 0.00 L115.50 -0.87 L115.00 -1.73 L114.00 -1.73 L113.50 -2.60 L114.00 -3.46 L115.00 -3.46 L115.50 -4.33 L115.00 -5.20 L115.50 -6.06 L116.50 -6.06 L117.00 -5.20 L116.50 -4.33 L117.00 -3.46 L118.00 -3.46 L118.50 -2.60 L118.00 -1.73 L117.00 -1.73 L116.50 -0.87 L117.00 0.00 L118.00 0.00 L118.50 -0.87 L119.50 -0.87 L120.00 0.00 L121.00 0.00 L121.50 -0.87 L121.00 -1.73 L121.50 -2.60 L122.50 -2.60 L123.00 -1.73 L122.50 -0.87 L123.00 0.00 L124.00 0.00 L124.50 -0.87 L125.50 -0.87 L126.00 0.00 L127.00 0.00 L127.50 -0.87 L127.00 -1.73 L126.00 -1.73 L125.50 -2.60 L126.00 -3.46 L125.50 -4.33 L124.50 -4.33 L124.00 -3.46 L123.00 -3.46 L122.50 -4.33 L123.00 -5.20 L124.00 -5.20 L124.50 -6.06 L124.00 -6.93 L123.00 -6.93 L122.50 -7.79 L123.00 -8.66 L122.50 -9.53 L121.50 -9.53 L121.00 -8.66 L121.50 -7.79 L121.00 -6.93 L120.00 -6.93 L119.50 -7.79 L118.50 -7.79 L118.00 -6.93 L117.00 -6.93 L116.50 -7.79 L117.00 -8.66 L118.00 -8.66 L118.50 -9.53 L118.00 -10.39 L118.50 -11.26 L119.50 -11.26 L120.00 -10.39 L121.00 -10.39 L121.50 -11.26 L121.00 -12.12 L120.00 -12.12 L119.50 -12.99 L120.00 -13.86 L119.50 -14.72 L118.50 -14.72 L118.00 -13.86 L117.00 -13.86 L116.50 -14.72 L117.00 -15.59 L118.00 -15.59 L118.50 -16.45 L118.00 -17.32 L117.00 -17.32 L116.50 -18.19 L117.00 -19.05 L116.50 -19.92 L115.50 -19.92 L115.00 -19.05 L115.50 -18.19 L115.00 -17.32 L114.00 -17.32 L113.50 -16.45 L114.00 -15.59 L115.00 -15.59 L115.50 -14.72 L115.00 -13.86 L114.00 -13.86 L113.50 -14.72 L112.50 -14.72 L112.00 -13.86 L111.00 -13.86 L110.50 -14.72 L111.00 -15.59 L110.50 -16.45 L109.50 -16.45 L109.00 -15.59 L109.50 -14.72 L109.00 -13.86 L108.00 -13.86 L107.50 -14.72 L106.50 -14.72 L106.00 -13.86 L105.00 -13.86 L104.50 -14.72 L105.00 -15.59 L106.00 -15.59 L106.50 -16.45 L106.00 -17.32 L106.50 -18.19 L107.50 -18.19 L108.00 -17.32 L109.00 -17.32 L109.50 -18.19 L109.00 -19.05 L108.00 -19.05 L107.50 -19.92 L108.00 -20.78 L109.00 -20.78 L109.50 -21.65 L109.00 -22.52 L109.50 -23.38 L110.50 -23.38 L111.00 -22.52 L110.50 -21.65 L111.00 -20.78 L112.00 -20.78 L112.50 -21.65 L113.50 -21.65 L114.00 -20.78 L115.00 -20.78 L115.50 -21.65 L115.00 -22.52 L114.00 -22.52 L113.50 -23.38 L114.00 -24.25 L113.50 -25.11 L112.50 -25.11 L112.00 -24.25 L111.00 -24.25 L110.50 -25.11 L111.00 -25.98 L112.00 -25.98 L112.50 -26.85 L112.00 -27.71 L111.00 -27.71 L110.50 -28.58 L111.00 -29.44 L110.50 -30.31 L109.50 -30.31 L109.00 -29.44 L109.50 -28.58 L109.00 -27.71 L108.00 -27.71 L107.50 -28.58 L106.50 -28.58 L106.00 -27.71 L105.00 -27.71 L104.50 -28.58 L105.00 -29.44 L106.00 -29.44 L106.50 -30.31 L106.00 -31.18 L106.50 -32.04 L107.50 -32.04 L108.00 -31.18 L109.00 -31.18 L109.50 -32.04 L109.00 -32.91 L108.00 -32.91 L107.50 -33.77 L108.00 -34.64 L107.50 -35.51 L106.50 -35.51 L106.00 -34.64 L105.00 -34.64 L104.50 -35.51 L105.00 -36.37 L106.00 -36.37 L106.50 -37.24 L106.00 -38.11 L105.00 -38.11 L104.50 -38.97 L105.00 -39.84 L104.50 -40.70 L103.50 -40.70 L103.00 -39.84 L103.50 -38.97 L103.00 -38.11 L102.00 -38.11 L101.50 -37.24 L102.00 -36.37 L103.00 -36.37 L103.50 -35.51 L103.00 -34.64 L102.00 -34.64 L101.50 -35.51 L100.50 -35.51 L100.00 -34.64 L100.50 -33.77 L100.00 -32.91 L99.00 -32.91 L98.50 -32.04 L99.00 -31.18 L100.00 -31.18 L100.50 -32.04 L101.50 -32.04 L102.00 -31.18 L101.50 -30.31 L102.00 -29.44 L103.00 -29.44 L103.50 -28.58 L103.00 -27.71 L102.00 -27.71 L101.50 -28.58 L100.50 -28.58 L100.00 -27.71 L99.00 -27.71 L98.50 -28.58 L99.00 -29.44 L98.50 -30.31 L97.50 -30.31 L97.00 -29.44 L97.50 -28.58 L97.00 -27.71 L96.00 -27.71 L95.50 -28.58 L94.50 -28.58 L94.00 -27.71 L93.00 -27.71 L92.50 -28.58 L93.00 -29.44 L94.00 -29.44 L94.50 -30.31 L94.00 -31.18 L93.00 -31.18 L92.50 -32.04 L93.00 -32.91 L92.50 -33.77 L91.50 -33.77 L91.00 -32.91 L91.50 -32.04 L91.00 -31.18 L90.00 -31.18 L89.50 -30.31 L90.00 -29.44 L91.00 -29.44 L91.50 -28.58 L91.00 -27.71 L90.00 -27.71 L89.50 -28.58 L88.50 -28.58 L88.00 -27.71 L87.00 -27.71 L86.50 -28.58 L87.00 -29.44 L86.50 -30.31 L85.50 -30.31 L85.00 -29.44 L85.50 -28.58 L85.00 -27.71 L84.00 -27.71 L83.50 -28.58 L82.50 -28.58 L82.00 -27.71 L81.00 -27.71 L80.50 -28.58 L81.00 -29.44 L82.00 -29.44 L82.50 -30.31 L82.00 -31.18 L82.50 -32.04 L83.50 -32.04 L84.00 -31.18 L85.00 -31.18 L85.50 -32.04 L85.00 -32.91 L84.00 -32.91 L83.50 -33.77 L84.00 -34.64 L85.00 -34.64 L85.50 -35.51 L85.00 -36.37 L85.50 -37.24 L86.50 -37.24 L87.00 -36.37 L86.50 -35.51 L87.00 -34.64 L88.00 -34.64 L88.50 -35.51 L89.50 -35.51 L90.00 -34.64 L91.00 -34.64 L91.50 -35.51 L91.00 -36.37 L90.00 -36.37 L89.50 -37.24 L90.00 -38.11 L89.50 -38.97 L88.50 -38.97 L88.00 -38.11 L87.00 -38.11 L86.50 -38.97 L87.00 -39.84 L88.00 -39.84 L88.50 -40.70 L88.00 -41.57 L88.50 -42.44 L89.50 -42.44 L90.00 -41.57 L91.00 -41.57 L91.50 -42.44 L91.00 -43.30 L90.00 -43.30 L89.50 -44.17 L90.00 -45.03 L91.00 -45.03 L91.50 -45.90 L91.00 -46.77 L91.50 -47.63 L92.50 -47.63 L93.00 -46.77 L92.50 -45.90 L93.00 -45.03 L94.00 -45.03 L94.50 -44.17 L94.00 -43.30 L93.00 -43.30 L92.50 -42.44 L93.00 -41.57 L94.00 -41.57 L94.50 -42.44 L95.50 -42.44 L96.00 -41.57 L97.00 -41.57 L97.50 -42.44 L97.00 -43.30 L97.50 -44.17 L98.50 -44.17 L99.00 -43.30 L98.50 -42.44 L99.00 -41.57 L100.00 -41.57 L100.50 -42.44 L101.50 -42.44 L102.00 -41.57 L103.00 -41.57 L103.50 -42.44 L103.00 -43.30 L102.00 -43.30 L101.50 -44.17 L102.00 -45.03 L101.50 -45.90 L100.50 -45.90 L100.00 -45.03 L99.00 -45.03 L98.50 -45.90 L99.00 -46.77 L100.00 -46.77 L100.50 -47.63 L100.00 -48.50 L99.00 -48.50 L98.50 -49.36 L99.00 -50.23 L98.50 -51.10 L97.50 -51.10 L97.00 -50.23 L97.50 -49.36 L97.00 -48.50 L96.00 -48.50 L95.50 -49.36 L94.50 -49.36 L94.00 -48.50 L93.00 -48.50 L92.50 -49.36 L93.00 -50.23 L94.00 -50.23 L94.50 -51.10 L94.00 -51.96 L94.50 -52.83 L95.50 -52.83 L96.00 -51.96 L97.00 -51.96 L97.50 -52.83 L97.00 -53.69 L96.00 -53.69 L95.50 -54.56 L96.00 -55.43 L95.50 -56.29 L94.50 -56.29 L94.00 -55.43 L93.00 -55.43 L92.50 -56.29 L93.00 -57.16 L94.00 -57.16 L94.50 -58.02 L94.00 -58.89 L93.00 -58.89 L92.50 -59.76 L93.00 -60.62 L92.50 -61.49 L91.50 -61.49 L91.00 -60.62 L91.50 -59.76 L91.00 -58.89 L90.00 -58.89 L89.50 -58.02 L90.00 -57.16 L91.00 -57.16 L91.50 -56.29 L91.00 -55.43 L90.00 -55.43 L89.50 -56.29 L88.50 -56.29 L88.00 -55.43 L87.00 -55.43 L86.50 -56.29 L87.00 -57.16 L86.50 -58.02 L85.50 -58.02 L85.00 -57.16 L85.50 -56.29 L85.00 -55.43 L84.00 -55.43 L83.50 -56.29 L82.50 -56.29 L82.00 -55.43 L81.00 -55.43 L80.50 -56.29 L81.00 -57.16 L82.00 -57.16 L82.50 -58.02 L82.00 -58.89 L82.50 -59.76 L83.50 -59.76 L84.00 -58.89 L85.00 -58.89 L85.50 -59.76 L85.00 -60.62 L84.00 -60.62 L83.50 -61.49 L84.00 -62.35 L85.00 -62.35 L85.50 -63.22 L85.00 -64.09 L85.50 -64.95 L86.50 -64.95 L87.00 -64.09 L86.50 -63.22 L87.00 -62.35 L88.00 -62.35 L88.50 -63.22 L89.50 -63.22 L90.00 -62.35 L91.00 -62.35 L91.50 -63.22 L91.00 -64.09 L90.00 -64.09 L89.50 -64.95 L90.00 -65.82 L89.50 -66.68 L88.50 -66.68 L88.00 -65.82 L87.00 -65.82 L86.50 -66.68 L87.00 -67.55 L88.00 -67.55 L88.50 -68.42 L88.00 -69.28 L87.00 -69.28 L86.50 -70.15 L87.00 -71.01 L86.50 -71.88 L85.50 -71.88 L85.00 -71.01 L85.50 -70.15 L85.00 -69.28 L84.00 -69.28 L83.50 -70.15 L82.50 -70.15 L82.00 -69.28 L81.00 -69.28 L80.50 -70.15 L81.00 -71.01 L82.00 -71.01 L82.50 -71.88 L82.00 -72.75 L82.50 -73.61 L83.50 -73.61 L84.00 -72.75 L85.00 -72.75 L85.50 -73.61 L85.00 -74.48 L84.00 -74.48 L83.50 -75.34 L84.00 -76.21 L83.50 -77.08 L82.50 -77.08 L82.00 -76.21 L81.00 -76.21 L80.50 -77.08 L81.00 -77.94 L82.00 -77.94 L82.50 -78.81 L82.00 -79.67 L81.00 -79.67 L80.50 -80.54 L81.00 -81.41 L80.50 -82.27 L79.50 -82.27 L79.00 -81.41 L79.50 -80.54 L79.00 -79.67 L78.00 -79.67 L77.50 -78.81 L78.00 -77.94 L79.00 -77.94 L79.50 -77.08 L79.00 -76.21 L78.00 -76.21 L77.50 -77.08 L76.50 -77.08 L76.00 -76.21 L76.50 -75.34 L76.00 -74.48 L75.00 -74.48 L74.50 -73.61 L75.00 -72.75 L76.00 -72.75 L76.50 -73.61 L77.50 -73.61 L78.00 -72.75 L77.50 -71.88 L78.00 -71.01 L79.00 -71.01 L79.50 -70.15 L79.00 -69.28 L78.00 -69.28 L77.50 -70.15 L76.50 -70.15 L76.00 -69.28 L75.00 -69.28 L74.50 -70.15 L75.00 -71.01 L74.50 -71.88 L73.50 -71.88 L73.00 -71.01 L73.50 -70.15 L73.00 -69.28 L72.00 -69.28 L71.50 -68.42 L72.00 -67.55 L73.00 -67.55 L73.50 -66.68 L73.00 -65.82 L72.00 -65.82 L71.50 -66.68 L70.50 -66.68 L70.00 -65.82 L70.50 -64.95 L70.00 -64.09 L69.00 -64.09 L68.50 -63.22 L69.00 -62.35 L70.00 -62.35 L70.50 -63.22 L71.50 -63.22 L72.00 -62.35 L73.00 -62.35 L73.50 -63.22 L73.00 -64.09 L73.50 -64.95 L74.50 -64.95 L75.00 -64.09 L74.50 -63.22 L75.00 -62.35 L76.00 -62.35 L76.50 -61.49 L76.00 -60.62 L75.00 -60.62 L74.50 -59.76 L75.00 -58.89 L76.00 -58.89 L76.50 -59.76 L77.50 -59.76 L78.00 -58.89 L77.50 -58.02 L78.00 -57.16 L79.00 -57.16 L79.50 -56.29 L79.00 -55.43 L78.00 -55.43 L77.50 -56.29 L76.50 -56.29 L76.00 -55.43 L75.00 -55.43 L74.50 -56.29 L75.00 -57.16 L74.50 -58.02 L73.50 -58.02 L73.00 -57.16 L73.50 -56.29 L73.00 -55.43 L72.00 -55.43 L71.50 -56.29 L70.50 -56.29 L70.00 -55.43 L69.00 -55.43 L68.50 -56.29 L69.00 -57.16 L70.00 -57.16 L70.50 -58.02 L70.00 -58.89 L69.00 -58.89 L68.50 -59.76 L69.00 -60.62 L68.50 -61.49 L67.50 -61.49 L67.00 -60.62 L67.50 -59.76 L67.00 -58.89 L66.00 -58.89 L65.50 -58.02 L66.00 -57.16 L67.00 -57.16 L67.50 -56.29 L67.00 -55.43 L66.00 -55.43 L65.50 -56.29 L64.50 -56.29 L64.00 -55.43 L63.00 -55.43 L62.50 -56.29 L63.00 -57.16 L62.50 -58.02 L61.50 -58.02 L61.00 -57.16 L61.50 -56.29 L61.00 -55.43 L60.00 -55.43 L59.50 -56.29 L58.50 -56.29 L58.00 -55.43 L57.00 -55.43 L56.50 -56.29 L57.00 -57.16 L58.00 -57.16 L58.50 -58.02 L58.00 -58.89 L58.50 -59.76 L59.50 -59.76 L60.00 -58.89 L61.00 -58.89 L61.50 -59.76 L61.00 -60.62 L60.00 -60.62 L59.50 -61.49 L60.00 -62.35 L59.50 -63.22 L58.50 -63.22 L58.00 -62.35 L57.00 -62.35 L56.50 -63.22 L57.00 -64.09 L58.00 -64.09 L58.50 -64.95 L58.00 -65.82 L57.00 -65.82 L56.50 -66.68 L57.00 -67.55 L56.50 -68.42 L55.50 -68.42 L55.00 -67.55 L55.50 -66.68 L55.00 -65.82 L54.00 -65.82 L53.50 -64.95 L54.00 -64.09 L55.00 -64.09 L55.50 -63.22 L55.00 -62.35 L54.00 -62.35 L53.50 -63.22 L52.50 -63.22 L52.00 -62.35 L52.50 -61.49 L52.00 -60.62 L51.00 -60.62 L50.50 -59.76 L51.00 -58.89 L52.00 -58.89 L52.50 -59.76 L53.50 -59.76 L54.00 -58.89 L53.50 -58.02 L54.00 -57.16 L55.00 -57.16 L55.50 -56.29 L55.00 -55.43 L54.00 -55.43 L53.50 -56.29 L52.50 -56.29 L52.00 -55.43 L51.00 -55.43 L50.50 -56.29 L51.00 -57.16 L50.50 -58.02 L49.50 -58.02 L49.00 -57.16 L49.50 -56.29 L49.00 -55.43 L48.00 -55.43 L47.50 -56.29 L46.50 -56.29 L46.00 -55.43 L45.00 -55.43 L44.50 -56.29 L45.00 -57.16 L46.00 -57.16 L46.50 -58.02 L46.00 -58.89 L45.00 -58.89 L44.50 -59.76 L45.00 -60.62 L44.50 -61.49 L43.50 -61.49 L43.00 -60.62 L43.50 -59.76 L43.00 -58.89 L42.00 -58.89 L41.50 -58.02 L42.00 -57.16 L43.00 -57.16 L43.50 -56.29 L43.00 -55.43 L42.00 -55.43 L41.50 -56.29 L40.50 -56.29 L40.00 -55.43 L39.00 -55.43 L38.50 -56.29 L39.00 -57.16 L38.50 -58.02 L37.50 -58.02 L37.00 -57.16 L37.50 -56.29 L37.00 -55.43 L36.00 -55.43 L35.50 -56.29 L34.50 -56.29 L34.00 -55.43 L33.00 -55.43 L32.50 -56.29 L33.00 -57.16 L34.00 -57.16 L34.50 -58.02 L34.00 -58.89 L34.50 -59.76 L35.50 -59.76 L36.00 -58.89 L37.00 -58.89 L37.50 -59.76 L37.00 -60.62 L36.00 -60.62 L35.50 -61.49 L36.00 -62.35 L37.00 -62.35 L37.50 -63.22 L37.00 -64.09 L37.50 -64.95 L38.50 -64.95 L39.00 -64.09 L38.50 -63.22 L39.00 -62.35 L40.00 -62.35 L40.50 -63.22 L41.50 -63.22 L42.00 -62.35 L43.00 -62.35 L43.50 -63.22 L43.00 -64.09 L42.00 -64.09 L41.50 -64.95 L42.00 -65.82 L41.50 -66.68 L40.50 -66.68 L40.00 -65.82 L39.00 -65.82 L38.50 -66.68 L39.00 -67.55 L40.00 -67.55 L40.50 -68.42 L40.00 -69.28 L40.50 -70.15 L41.50 -70.15 L42.00 -69.28 L43.00 -69.28 L43.50 -70.15 L43.00 -71.01 L42.00 -71.01 L41.50 -71.88 L42.00 -72.75 L43.00 -72.75 L43.50 -73.61 L43.00 -74.48 L43.50 -75.34 L44.50 -75.34 L45.00 -74.48 L44.50 -73.61 L45.00 -72.75 L46.00 -72.75 L46.50 -71.88 L46.00 -71.01 L45.00 -71.01 L44.50 -70.15 L45.00 -69.28 L46.00 -69.28 L46.50 -70.15 L47.50 -70.15 L48.00 -69.28 L49.00 -69.28 L49.50 -70.15 L49.00 -71.01 L49.50 -71.88 L50.50 -71.88 L51.00 -71.01 L50.50 -70.15 L51.00 -69.28 L52.00 -69.28 L52.50 -70.15 L53.50 -70.15 L54.00 -69.28 L55.00 -69.28 L55.50 -70.15 L55.00 -71.01 L54.00 -71.01 L53.50 -71.88 L54.00 -72.75 L53.50 -73.61 L52.50 -73.61 L52.00 -72.75 L51.00 -72.75 L50.50 -73.61 L51.00 -74.48 L52.00 -74.48 L52.50 -75.34 L52.00 -76.21 L51.00 -76.21 L50.50 -77.08 L51.00 -77.94 L50.50 -78.81 L49.50 -78.81 L49.00 -77.94 L49.50 -77.08 L49.00 -76.21 L48.00 -76.21 L47.50 -77.08 L46.50 -77.08 L46.00 -76.21 L45.00 -76.21 L44.50 -77.08 L45.00 -77.94 L46.00 -77.94 L46.50 -78.81 L46.00 -79.67 L46.50 -80.54 L47.50 -80.54 L48.00 -79.67 L49.00 -79.67 L49.50 -80.54 L49.00 -81.41 L48.00 -81.41 L47.50 -82.27 L48.00 -83.14 L49.00 -83.14 L49.50 -84.00 L49.00 -84.87 L49.50 -85.74 L50.50 -85.74 L51.00 -84.87 L50.50 -84.00 L51.00 -83.14 L52.00 -83.14 L52.50 -84.00 L53.50 -84.00 L54.00 -83.14 L55.00 -83.14 L55.50 -84.00 L55.00 -84.87 L54.00 -84.87 L53.50 -85.74 L54.00 -86.60 L53.50 -87.47 L52.50 -87.47 L52.00 -86.60 L51.00 -86.60 L50.50 -87.47 L51.00 -88.33 L52.00 -88.33 L52.50 -89.20 L52.00 -90.07 L52.50 -90.93 L53.50 -90.93 L54.00 -90.07 L55.00 -90.07 L55.50 -90.93 L55.00 -91.80 L54.00 -91.80 L53.50 -92.66 L54.00 -93.53 L55.00 -93.53 L55.50 -94.40 L55.00 -95.26 L55.50 -96.13 L56.50 -96.13 L57.00 -95.26 L56.50 -94.40 L57.00 -93.53 L58.00 -93.53 L58.50 -92.66 L58.00 -91.80 L57.00 -91.80 L56.50 -90.93 L57.00 -90.07 L58.00 -90.07 L58.50 -90.93 L59.50 -90.93 L60.00 -90.07 L59.50 -89.20 L60.00 -88.33 L61.00 -88.33 L61.50 -87.47 L61.00 -86.60 L60.00 -86.60 L59.50 -87.47 L58.50 -87.47 L58.00 -86.60 L58.50 -85.74 L58.00 -84.87 L57.00 -84.87 L56.50 -84.00 L57.00 -83.14 L58.00 -83.14 L58.50 -84.00 L59.50 -84.00 L60.00 -83.14 L61.00 -83.14 L61.50 -84.00 L61.00 -84.87 L61.50 -85.74 L62.50 -85.74 L63.00 -84.87 L62.50 -84.00 L63.00 -83.14 L64.00 -83.14 L64.50 -84.00 L65.50 -84.00 L66.00 -83.14 L67.00 -83.14 L67.50 -84.00 L67.00 -84.87 L66.00 -84.87 L65.50 -85.74 L66.00 -86.60 L67.00 -86.60 L67.50 -87.47 L67.00 -88.33 L67.50 -89.20 L68.50 -89.20 L69.00 -88.33 L68.50 -87.47 L69.00 -86.60 L70.00 -86.60 L70.50 -85.74 L70.00 -84.87 L69.00 -84.87 L68.50 -84.00 L69.00 -83.14 L70.00 -83.14 L70.50 -84.00 L71.50 -84.00 L72.00 -83.14 L73.00 -83.14 L73.50 -84.00 L73.00 -84.87 L73.50 -85.74 L74.50 -85.74 L75.00 -84.87 L74.50 -84.00 L75.00 -83.14 L76.00 -83.14 L76.50 -84.00 L77.50 -84.00 L78.00 -83.14 L79.00 -83.14 L79.50 -84.00 L79.00 -84.87 L78.00 -84.87 L77.50 -85.74 L78.00 -86.60 L77.50 -87.47 L76.50 -87.47 L76.00 -86.60 L75.00 -86.60 L74.50 -87.47 L75.00 -88.33 L76.00 -88.33 L76.50 -89.20 L76.00 -90.07 L75.00 -90.07 L74.50 -90.93 L75.00 -91.80 L74.50 -92.66 L73.50 -92.66 L73.00 -91.80 L73.50 -90.93 L73.00 -90.07 L72.00 -90.07 L71.50 -90.93 L70.50 -90.93 L70.00 -90.07 L69.00 -90.07 L68.50 -90.93 L69.00 -91.80 L70.00 -91.80 L70.50 -92.66 L70.00 -93.53 L70.50 -94.40 L71.50 -94.40 L72.00 -93.53 L73.00 -93.53 L73.50 -94.40 L73.00 -95.26 L72.00 -95.26 L71.50 -96.13 L72.00 -96.99 L71.50 -97.86 L70.50 -97.86 L70.00 -96.99 L69.00 -96.99 L68.50 -97.86 L69.00 -98.73 L70.00 -98.73 L70.50 -99.59 L70.00 -100.46 L69.00 -100.46 L68.50 -101.33 L69.00 -102.19 L68.50 -103.06 L67.50 -103.06 L67.00 -102.19 L67.50 -101.33 L67.00 -100.46 L66.00 -100.46 L65.50 -99.59 L66.00 -98.73 L67.00 -98.73 L67.50 -97.86 L67.00 -96.99 L66.00 -96.99 L65.50 -97.86 L64.50 -97.86 L64.00 -96.99 L63.00 -96.99 L62.50 -97.86 L63.00 -98.73 L62.50 -99.59 L61.50 -99.59 L61.00 -98.73 L61.50 -97.86 L61.00 -96.99 L60.00 -96.99 L59.50 -97.86 L58.50 -97.86 L58.00 -96.99 L57.00 -96.99 L56.50 -97.86 L57.00 -98.73 L58.00 -98.73 L58.50 -99.59 L58.00 -100.46 L58.50 -101.33 L59.50 -101.33 L60.00 -100.46 L61.00 -100.46 L61.50 -101.33 L61.00 -102.19 L60.00 -102.19 L59.50 -103.06 L60.00 -103.92 L61.00 -103.92 L61.50 -104.79 L61.00 -105.66 L61.50 -106.52 L62.50 -106.52 L63.00 -105.66 L62.50 -104.79 L63.00 -103.92 L64.00 -103.92 L64.50 -104.79 L65.50 -104.79 L66.00 -103.92 L67.00 -103.92 L67.50 -104.79 L67.00 -105.66 L66.00 -105.66 L65.50 -106.52 L66.00 -107.39 L65.50 -108.25 L64.50 -108.25 L64.00 -107.39 L63.00 -107.39 L62.50 -108.25 L63.00 -109.12 L64.00 -109.12 L64.50 -109.99 L64.00 -110.85 L64.50 -111.72 L65.50 -111.72 L66.00 -110.85 L67.00 -110.85 L67.50 -111.72 L67.00 -112.58 L66.00 -112.58 L65.50 -113.45 L66.00 -114.32 L67.00 -114.32 L67.50 -115.18 L67.00 -116.05 L67.50 -116.91 L68.50 -116.91 L69.00 -116.05 L68.50 -115.18 L69.00 -114.32 L70.00 -114.32 L70.50 -113.45 L70.00 -112.58 L69.00 -112.58 L68.50 -111.72 L69.00 -110.85 L70.00 -110.85 L70.50 -111.72 L71.50 -111.72 L72.00 -110.85 L73.00 -110.85 L73.50 -111.72 L73.00 -112.58 L73.50 -113.45 L74.50 -113.45 L75.00 -112.58 L74.50 -111.72 L75.00 -110.85 L76.00 -110.85 L76.50 -111.72 L77.50 -111.72 L78.00 -110.85 L79.00 -110.85 L79.50 -111.72 L79.00 -112.58 L78.00 -112.58 L77.50 -113.45 L78.00 -114.32 L77.50 -115.18 L76.50 -115.18 L76.00 -114.32 L75.00 -114.32 L74.50 -115.18 L75.00 -116.05 L76.00 -116.05 L76.50 -116.91 L76.00 -117.78 L75.00 -117.78 L74.50 -118.65 L75.00 -119.51 L74.50 -120.38 L73.50 -120.38 L73.00 -119.51 L73.50 -118.65 L73.00 -117.78 L72.00 -117.78 L71.50 -118.65 L70.50 -118.65 L70.00 -117.78 L69.00 -117.78 L68.50 -118.65 L69.00 -119.51 L70.00 -119.51 L70.50 -120.38 L70.00 -121.24 L70.50 -122.11 L71.50 -122.11 L72.00 -121.24 L73.00 -121.24 L73.50 -122.11 L73.00 -122.98 L72.00 -122.98 L71.50 -123.84 L72.00 -124.71 L73.00 -124.71 L73.50 -125.57 L73.00 -126.44 L73.50 -127.31 L74.50 -127.31 L75.00 -126.44 L74.50 -125.57 L75.00 -124.71 L76.00 -124.71 L76.50 -125.57 L77.50 -125.57 L78.00 -124.71 L79.00 -124.71 L79.50 -125.57 L79.00 -126.44 L78.00 -126.44 L77.50 -127.31 L78.00 -128.17 L77.50 -129.04 L76.50 -129.04 L76.00 -128.17 L75.00 -128.17 L74.50 -129.04 L75.00 -129.90 L76.00 -129.90 L76.50 -130.77 L76.00 -131.64 L76.50 -132.50 L77.50 -132.50 L78.00 -131.64 L79.00 -131.64 L79.50 -132.50 L79.00 -133.37 L78.00 -133.37 L77.50 -134.23 L78.00 -135.10 L79.00 -135.10 L79.50 -135.97 L79.00 -136.83 L79.50 -137.70 L80.50 -137.70 L81.00 -136.83 L80.50 -135.97 L81.00 -135.10 L82.00 -135.10 L82.50 -134.23 L82.00 -133.37 L81.00 -133.37 L80.50 -132.50 L81.00 -131.64 L82.00 -131.64 L82.50 -132.50 L83.50 -132.50 L84.00 -131.64 L83.50 -130.77 L84.00 -129.90 L85.00 -129.90 L85.50 -129.04 L85.00 -128.17 L84.00 -128.17 L83.50 -129.04 L82.50 -129.04 L82.00 -128.17 L82.50 -127.31 L82.00 -126.44 L81.00 -126.44 L80.50 -125.57 L81.00 -124.71 L82.00 -124.71 L82.50 -125.57 L83.50 -125.57 L84.00 -124.71 L85.00 -124.71 L85.50 -125.57 L85.00 -126.44 L85.50 -127.31 L86.50 -127.31 L87.00 -126.44 L86.50 -125.57 L87.00 -124.71 L88.00 -124.71 L88.50 -123.84 L88.00 -122.98 L87.00 -122.98 L86.50 -122.11 L87.00 -121.24 L88.00 -121.24 L88.50 -122.11 L89.50 -122.11 L90.00 -121.24 L89.50 -120.38 L90.00 -119.51 L91.00 -119.51 L91.50 -118.65 L91.00 -117.78 L90.00 -117.78 L89.50 -118.65 L88.50 -118.65 L88.00 -117.78 L87.00 -117.78 L86.50 -118.65 L87.00 -119.51 L86.50 -120.38 L85.50 -120.38 L85.00 -119.51 L85.50 -118.65 L85.00 -117.78 L84.00 -117.78 L83.50 -116.91 L84.00 -116.05 L85.00 -116.05 L85.50 -115.18 L85.00 -114.32 L84.00 -114.32 L83.50 -115.18 L82.50 -115.18 L82.00 -114.32 L82.50 -113.45 L82.00 -112.58 L81.00 -112.58 L80.50 -111.72 L81.00 -110.85 L82.00 -110.85 L82.50 -111.72 L83.50 -111.72 L84.00 -110.85 L85.00 -110.85 L85.50 -111.72 L85.00 -112.58 L85.50 -113.45 L86.50 -113.45 L87.00 -112.58 L86.50 -111.72 L87.00 -110.85 L88.00 -110.85 L88.50 -111.72 L89.50 -111.72 L90.00 -110.85 L91.00 -110.85 L91.50 -111.72 L91.00 -112.58 L90.00 -112.58 L89.50 -113.45 L90.00 -114.32 L91.00 -114.32 L91.50 -115.18 L91.00 -116.05 L91.50 -116.91 L92.50 -116.91 L93.00 -116.05 L92.50 -115.18 L93.00 -114.32 L94.00 -114.32 L94.50 -113.45 L94.00 -112.58 L93.00 -112.58 L92.50 -111.72 L93.00 -110.85 L94.00 -110.85 L94.50 -111.72 L95.50 -111.72 L96.00 -110.85 L97.00 -110.85 L97.50 -111.72 L97.00 -112.58 L97.50 -113.45 L98.50 -113.45 L99.00 -112.58 L98.50 -111.72 L99.00 -110.85 L100.00 -110.85 L100.50 -111.72 L101.50 -111.72 L102.00 -110.85 L103.00 -110.85 L103.50 -111.72 L103.00 -112.58 L102.00 -112.58 L101.50 -113.45 L102.00 -114.32 L101.50 -115.18 L100.50 -115.18 L100.00 -114.32 L99.00 -114.32 L98.50 -115.18 L99.00 -116.05 L100.00 -116.05 L100.50 -116.91 L100.00 -117.78 L100.50 -118.65 L101.50 -118.65 L102.00 -117.78 L103.00 -117.78 L103.50 -118.65 L103.00 -119.51 L102.00 -119.51 L101.50 -120.38 L102.00 -121.24 L103.00 -121.24 L103.50 -122.11 L103.00 -122.98 L103.50 -123.84 L104.50 -123.84 L105.00 -122.98 L104.50 -122.11 L105.00 -121.24 L106.00 -121.24 L106.50 -120.38 L106.00 -119.51 L105.00 -119.51 L104.50 -118.65 L105.00 -117.78 L106.00 -117.78 L106.50 -118.65 L107.50 -118.65 L108.00 -117.78 L107.50 -116.91 L108.00 -116.05 L109.00 -116.05 L109.50 -115.18 L109.00 -114.32 L108.00 -114.32 L107.50 -115.18 L106.50 -115.18 L106.00 -114.32 L106.50 -113.45 L106.00 -112.58 L105.00 -112.58 L104.50 -111.72 L105.00 -110.85 L106.00 -110.85 L106.50 -111.72 L107.50 -111.72 L108.00 -110.85 L109.00 -110.85 L109.50 -111.72 L109.00 -112.58 L109.50 -113.45 L110.50 -113.45 L111.00 -112.58 L110.50 -111.72 L111.00 -110.85 L112.00 -110.85 L112.50 -111.72 L113.50 -111.72 L114.00 -110.85 L115.00 -110.85 L115.50 -111.72 L115.00 -112.58 L114.00 -112.58 L113.50 -113.45 L114.00 -114.32 L115.00 -114.32 L115.50 -115.18 L115.00 -116.05 L115.50 -116.91 L116.50 -116.91 L117.00 -116.05 L116.50 -115.18 L117.00 -114.32 L118.00 -114.32 L118.50 -113.45 L118.00 -112.58 L117.00 -112.58 L116.50 -111.72 L117.00 -110.85 L118.00 -110.85 L118.50 -111.72 L119.50 -111.72 L120.00 -110.85 L121.00 -110.85 L121.50 -111.72 L121.00 -112.58 L121.50 -113.45 L122.50 -113.45 L123.00 -112.58 L122.50 -111.72 L123.00 -110.85 L124.00 -110.85 L124.50 -111.72 L125.50 -111.72 L126.00 -110.85 L127.00 -110.85 L127.50 -111.72 L127.00 -112.58 L126.00 -112.58 L125.50 -113.45 L126.00 -114.32 L125.50 -115.18 L124.50 -115.18 L124.00 -114.32 L123.00 -114.32 L122.50 -115.18 L123.00 -116.05 L124.00 -116.05 L124.50 -116.91 L124.00 -117.78 L123.00 -117.78 L122.50 -118.65 L123.00 -119.51 L122.50 -120.38 L121.50 -120.38 L121.00 -119.51 L121.50 -118.65 L121.00 -117.78 L120.00 -117.78 L119.50 -118.65 L118.50 -118.65 L118.00 -117.78 L117.00 -117.78 L116.50 -118.65 L117.00 -119.51 L118.00 -119.51 L118.50 -120.38 L118.00 -121.24 L118.50 -122.11 L119.50 -122.11 L120.00 -121.24 L121.00 -121.24 L121.50 -122.11 L121.00 -122.98 L120.00 -122.98 L119.50 -123.84 L120.00 -124.71 L119.50 -125.57 L118.50 -125.57 L118.00 -124.71 L117.00 -124.71 L116.50 -125.57 L117.00 -126.44 L118.00 -126.44 L118.50 -127.31 L118.00 -128.17 L117.00 -128.17 L116.50 -129.04 L117.00 -129.90 L116.50 -130.77 L115.50 -130.77 L115.00 -129.90 L115.50 -129.04 L115.00 -128.17 L114.00 -128.17 L113.50 -127.31 L114.00 -126.44 L115.00 -126.44 L115.50 -125.57 L115.00 -124.71 L114.00 -124.71 L113.50 -125.57 L112.50 -125.57 L112.00 -124.71 L111.00 -124.71 L110.50 -125.57 L111.00 -126.44 L110.50 -127.31 L109.50 -127.31 L109.00 -126.44 L109.50 -125.57 L109.00 -124.71 L108.00 -124.71 L107.50 -125.57 L106.50 -125.57 L106.00 -124.71 L105.00 -124.71 L104.50 -125.57 L105.00 -126.44 L106.00 -126.44 L106.50 -127.31 L106.00 -128.17 L106.50 -129.04 L107.50 -129.04 L108.00 -128.17 L109.00 -128.17 L109.50 -129.04 L109.00 -129.90 L108.00 -129.90 L107.50 -130.77 L108.00 -131.64 L109.00 -131.64 L109.50 -132.50 L109.00 -133.37 L109.50 -134.23 L110.50 -134.23 L111.00 -133.37 L110.50 -132.50 L111.00 -131.64 L112.00 -131.64 L112.50 -132.50 L113.50 -132.50 L114.00 -131.64 L115.00 -131.64 L115.50 -132.50 L115.00 -133.37 L114.00 -133.37 L113.50 -134.23 L114.00 -135.10 L113.50 -135.97 L112.50 -135.97 L112.00 -135.10 L111.00 -135.10 L110.50 -135.97 L111.00 -136.83 L112.00 -136.83 L112.50 -137.70 L112.00 -138.56 L111.00 -138.56 L110.50 -139.43 L111.00 -140.30 L110.50 -141.16 L109.50 -141.16 L109.00 -140.30 L109.50 -139.43 L109.00 -138.56 L108.00 -138.56 L107.50 -139.43 L106.50 -139.43 L106.00 -138.56 L105.00 -138.56 L104.50 -139.43 L105.00 -140.30 L106.00 -140.30 L106.50 -141.16 L106.00 -142.03 L106.50 -142.89 L107.50 -142.89 L108.00 -142.03 L109.00 -142.03 L109.50 -142.89 L109.00 -143.76 L108.00 -143.76 L107.50 -144.63 L108.00 -145.49 L107.50 -146.36 L106.50 -146.36 L106.00 -145.49 L105.00 -145.49 L104.50 -146.36 L105.00 -147.22 L106.00 -147.22 L106.50 -148.09 L106.00 -148.96 L105.00 -148.96 L104.50 -149.82 L105.00 -150.69 L104.50 -151.55 L103.50 -151.55 L103.00 -150.69 L103.50 -149.82 L103.00 -148.96 L102.00 -148.96 L101.50 -148.09 L102.00 -147.22 L103.00 -147.22 L103.50 -146.36 L103.00 -145.49 L102.00 -145.49 L101.50 -146.36 L100.50 -146.36 L100.00 -145.49 L100.50 -144.63 L100.00 -143.76 L99.00 -143.76 L98.50 -142.89 L99.00 -142.03 L100.00 -142.03 L100.50 -142.89 L101.50 -142.89 L102.00 -142.03 L101.50 -141.16 L102.00 -140.30 L103.00 -140.30 L103.50 -139.43 L103.00 -138.56 L102.00 -138.56 L101.50 -139.43 L100.50 -139.43 L100.00 -138.56 L99.00 -138.56 L98.50 -139.43 L99.00 -140.30 L98.50 -141.16 L97.50 -141.16 L97.00 -140.30 L97.50 -139.43 L97.00 -138.56 L96.00 -138.56 L95.50 -139.43 L94.50 -139.43 L94.00 -138.56 L93.00 -138.56 L92.50 -139.43 L93.00 -140.30 L94.00 -140.30 L94.50 -141.16 L94.00 -142.03 L93.00 -142.03 L92.50 -142.89 L93.00 -143.76 L92.50 -144.63 L91.50 -144.63 L91.00 -143.76 L91.50 -142.89 L91.00 -142.03 L90.00 -142.03 L89.50 -141.16 L90.00 -140.30 L91.00 -140.30 L91.50 -139.43 L91.00 -138.56 L90.00 -138.56 L89.50 -139.43 L88.50 -139.43 L88.00 -138.56 L87.00 -138.56 L86.50 -139.43 L87.00 -140.30 L86.50 -141.16 L85.50 -141.16 L85.00 -140.30 L85.50 -139.43 L85.00 -138.56 L84.00 -138.56 L83.50 -139.43 L82.50 -139.43 L82.00 -138.56 L81.00 -138.56 L80.50 -139.43 L81.00 -140.30 L82.00 -140.30 L82.50 -141.16 L82.00 -142.03 L82.50 -142.89 L83.50 -142.89 L84.00 -142.03 L85.00 -142.03 L85.50 -142.89 L85.00 -143.76 L84.00 -143.76 L83.50 -144.63 L84.00 -145.49 L85.00 -145.49 L85.50 -146.36 L85.00 -147.22 L85.50 -148.09 L86.50 -148.09 L87.00 -147.22 L86.50 -146.36 L87.00 -145.49 L88.00 -145.49 L88.50 -146.36 L89.50 -146.36 L90.00 -145.49 L91.00 -145.49 L91.50 -146.36 L91.00 -147.22 L90.00 -147.22 L89.50 -148.09 L90.00 -148.96 L89.50 -149.82 L88.50 -149.82 L88.00 -148.96 L87.00 -148.96 L86.50 -149.82 L87.00 -150.69 L88.00 -150.69 L88.50 -151.55 L88.00 -152.42 L88.50 -153.29 L89.50 -153.29 L90.00 -152.42 L91.00 -152.42 L91.50 -153.29 L91.00 -154.15 L90.00 -154.15 L89.50 -155.02 L90.00 -155.88 L91.00 -155.88 L91.50 -156.75 L91.00 -157.62 L91.50 -158.48 L92.50 -158.48 L93.00 -157.62 L92.50 -156.75 L93.00 -155.88 L94.00 -155.88 L94.50 -155.02 L94.00 -154.15 L93.00 -154.15 L92.50 -153.29 L93.00 -152.42 L94.00 -152.42 L94.50 -153.29 L95.50 -153.29 L96.00 -152.42 L97.00 -152.42 L97.50 -153.29 L97.00 -154.15 L97.50 -155.02 L98.50 -155.02 L99.00 -154.15 L98.50 -153.29 L99.00 -152.42 L100.00 -152.42 L100.50 -153.29 L101.50 -153.29 L102.00 -152.42 L103.00 -152.42 L103.50 -153.29 L103.00 -154.15 L102.00 -154.15 L101.50 -155.02 L102.00 -155.88 L101.50 -156.75 L100.50 -156.75 L100.00 -155.88 L99.00 -155.88 L98.50 -156.75 L99.00 -157.62 L100.00 -157.62 L100.50 -158.48 L100.00 -159.35 L99.00 -159.35 L98.50 -160.21 L99.00 -161.08 L98.50 -161.95 L97.50 -161.95 L97.00 -161.08 L97.50 -160.21 L97.00 -159.35 L96.00 -159.35 L95.50 -160.21 L94.50 -160.21 L94.00 -159.35 L93.00 -159.35 L92.50 -160.21 L93.00 -161.08 L94.00 -161.08 L94.50 -161.95 L94.00 -162.81 L94.50 -163.68 L95.50 -163.68 L96.00 -162.81 L97.00 -162.81 L97.50 -163.68 L97.00 -164.55 L96.00 -164.55 L95.50 -165.41 L96.00 -166.28 L97.00 -166.28 L97.50 -167.14 L97.00 -168.01 L97.50 -168.88 L98.50 -168.88 L99.00 -168.01 L98.50 -167.14 L99.00 -166.28 L100.00 -166.28 L100.50 -167.14 L101.50 -167.14 L102.00 -166.28 L103.00 -166.28 L103.50 -167.14 L103.00 -168.01 L102.00 -168.01 L101.50 -168.88 L102.00 -169.74 L101.50 -170.61 L100.50 -170.61 L100.00 -169.74 L99.00 -169.74 L98.50 -170.61 L99.00 -171.47 L100.00 -171.47 L100.50 -172.34 L100.00 -173.21 L100.50 -174.07 L101.50 -174.07 L102.00 -173.21 L103.00 -173.21 L103.50 -174.07 L103.00 -174.94 L102.00 -174.94 L101.50 -175.80 L102.00 -176.67 L103.00 -176.67 L103.50 -177.54 L103.00 -178.40 L103.50 -179.27 L104.50 -179.27 L105.00 -178.40 L104.50 -177.54 L105.00 -176.67 L106.00 -176.67 L106.50 -175.80 L106.00 -174.94 L105.00 -174.94 L104.50 -174.07 L105.00 -173.21 L106.00 -173.21 L106.50 -174.07 L107.50 -174.07 L108.00 -173.21 L107.50 -172.34 L108.00 -171.47 L109.00 -171.47 L109.50 -170.61 L109.00 -169.74 L108.00 -169.74 L107.50 -170.61 L106.50 -170.61 L106.00 -169.74 L106.50 -168.88 L106.00 -168.01 L105.00 -168.01 L104.50 -167.14 L105.00 -166.28 L106.00 -166.28 L106.50 -167.14 L107.50 -167.14 L108.00 -166.28 L109.00 -166.28 L109.50 -167.14 L109.00 -168.01 L109.50 -168.88 L110.50 -168.88 L111.00 -168.01 L110.50 -167.14 L111.00 -166.28 L112.00 -166.28 L112.50 -167.14 L113.50 -167.14 L114.00 -166.28 L115.00 -166.28 L115.50 -167.14 L115.00 -168.01 L114.00 -168.01 L113.50 -168.88 L114.00 -169.74 L115.00 -169.74 L115.50 -170.61 L115.00 -171.47 L115.50 -172.34 L116.50 -172.34 L117.00 -171.47 L116.50 -170.61 L117.00 -169.74 L118.00 -169.74 L118.50 -168.88 L118.00 -168.01 L117.00 -168.01 L116.50 -167.14 L117.00 -166.28 L118.00 -166.28 L118.50 -167.14 L119.50 -167.14 L120.00 -166.28 L121.00 -166.28 L121.50 -167.14 L121.00 -168.01 L121.50 -168.88 L122.50 -168.88 L123.00 -168.01 L122.50 -167.14 L123.00 -166.28 L124.00 -166.28 L124.50 -167.14 L125.50 -167.14 L126.00 -166.28 L127.00 -166.28 L127.50 -167.14 L127.00 -168.01 L126.00 -168.01 L125.50 -168.88 L126.00 -169.74 L125.50 -170.61 L124.50 -170.61 L124.00 -169.74 L123.00 -169.74 L122.50 -170.61 L123.00 -171.47 L124.00 -171.47 L124.50 -172.34 L124.00 -173.21 L123.00 -173.21 L122.50 -174.07 L123.00 -174.94 L122.50 -175.80 L121.50 -175.80 L121.00 -174.94 L121.50 -174.07 L121.00 -173.21 L120.00 -173.21 L119.50 -174.07 L118.50 -174.07 L118.00 -173.21 L117.00 -173.21 L116.50 -174.07 L117.00 -174.94 L118.00 -174.94 L118.50 -175.80 L118.00 -176.67 L118.50 -177.54 L119.50 -177.54 L120.00 -176.67 L121.00 -176.67 L121.50 -177.54 L121.00 -178.40 L120.00 -178.40 L119.50 -179.27 L120.00 -180.13 L119.50 -181.00 L118.50 -181.00 L118.00 -180.13 L117.00 -180.13 L116.50 -181.00 L117.00 -181.87 L118.00 -181.87 L118.50 -182.73 L118.00 -183.60 L117.00 -183.60 L116.50 -184.46 L117.00 -185.33 L116.50 -186.20 L115.50 -186.20 L115.00 -185.33 L115.50 -184.46 L115.00 -183.60 L114.00 -183.60 L113.50 -182.73 L114.00 -181.87 L115.00 -181.87 L115.50 -181.00 L115.00 -180.13 L114.00 -180.13 L113.50 -181.00 L112.50 -181.00 L112.00 -180.13 L111.00 -180.13 L110.50 -181.00 L111.00 -181.87 L110.50 -182.73 L109.50 -182.73 L109.00 -181.87 L109.50 -181.00 L109.00 -180.13 L108.00 -180.13 L107.50 -181.00 L106.50 -181.00 L106.00 -180.13 L105.00 -180.13 L104.50 -181.00 L105.00 -181.87 L106.00 -181.87 L106.50 -182.73 L106.00 -183.60 L106.50 -184.46 L107.50 -184.46 L108.00 -183.60 L109.00 -183.60 L109.50 -184.46 L109.00 -185.33 L108.00 -185.33 L107.50 -186.20 L108.00 -187.06 L109.00 -187.06 L109.50 -187.93 L109.00 -188.79 L109.50 -189.66 L110.50 -189.66 L111.00 -188.79 L110.50 -187.93 L111.00 -187.06 L112.00 -187.06 L112.50 -187.93 L113.50 -187.93 L114.00 -187.06 L115.00 -187.06 L115.50 -187.93 L115.00 -188.79 L114.00 -188.79 L113.50 -189.66 L114.00 -190.53 L113.50 -191.39 L112.50 -191.39 L112.00 -190.53 L111.00 -190.53 L110.50 -191.39 L111.00 -192.26 L112.00 -192.26 L112.50 -193.12 L112.00 -193.99 L112.50 -194.86 L113.50 -194.86 L114.00 -193.99 L115.00 -193.99 L115.50 -194.86 L115.00 -195.72 L114.00 -195.72 L113.50 -196.59 L114.00 -197.45 L115.00 -197.45 L115.50 -198.32 L115.00 -199.19 L115.50 -200.05 L116.50 -200.05 L117.00 -199.19 L116.50 -198.32 L117.00 -197.45 L118.00 -197.45 L118.50 -196.59 L118.00 -195.72 L117.00 -195.72 L116.50 -194.86 L117.00 -193.99 L118.00 -193.99 L118.50 -194.86 L119.50 -194.86 L120.00 -193.99 L121.00 -193.99 L121.50 -194.86 L121.00 -195.72 L121.50 -196.59 L122.50 -196.59 L123.00 -195.72 L122.50 -194.86 L123.00 -193.99 L124.00 -193.99 L124.50 -194.86 L125.50 -194.86 L126.00 -193.99 L127.00 -193.99 L127.50 -194.86 L127.00 -195.72 L126.00 -195.72 L125.50 -196.59 L126.00 -197.45 L125.50 -198.32 L124.50 -198.32 L124.00 -197.45 L123.00 -197.45 L122.50 -198.32 L123.00 -199.19 L124.00 -199.19 L124.50 -200.05 L124.00 -200.92 L123.00 -200.92 L122.50 -201.78 L123.00 -202.65 L122.50 -203.52 L121.50 -203.52 L121.00 -202.65 L121.50 -201.78 L121.00 -200.92 L120.00 -200.92 L119.50 -201.78 L118.50 -201.78 L118.00 -200.92 L117.00 -200.92 L116.50 -201.78 L117.00 -202.65 L118.00 -202.65 L118.50 -203.52 L118.00 -204.38 L118.50 -205.25 L119.50 -205.25 L120.00 -204.38 L121.00 -204.38 L121.50 -205.25 L121.00 -206.11 L120.00 -206.11 L119.50 -206.98 L120.00 -207.85 L121.00 -207.85 L121.50 -208.71 L121.00 -209.58 L121.50 -210.44 L122.50 -210.44 L123.00 -209.58 L122.50 -208.71 L123.00 -207.85 L124.00 -207.85 L124.50 -208.71 L125.50 -208.71 L126.00 -207.85 L127.00 -207.85 L127.50 -208.71 L127.00 -209.58 L126.00 -209.58 L125.50 -210.44 L126.00 -211.31 L125.50 -212.18 L124.50 -212.18 L124.00 -211.31 L123.00 -211.31 L122.50 -212.18 L123.00 -213.04 L124.00 -213.04 L124.50 -213.91 L124.00 -214.77 L124.50 -215.64 L125.50 -215.64 L126.00 -214.77 L127.00 -214.77 L127.50 -215.64 L127.00 -216.51 L126.00 -216.51 L125.50 -217.37 L126.00 -218.24 L127.00 -218.24 L127.50 -219.10 L127.00 -219.97 L127.50 -220.84 L128.50 -220.84 L129.00 -219.97 L128.50 -219.10 L129.00 -218.24 L130.00 -218.24 L130.50 -217.37 L130.00 -216.51 L129.00 -216.51 L128.50 -215.64 L129.00 -214.77 L130.00 -214.77 L130.50 -215.64 L131.50 -215.64 L132.00 -214.77 L131.50 -213.91 L132.00 -213.04 L133.00 -213.04 L133.50 -212.18 L133.00 -211.31 L132.00 -211.31 L131.50 -212.18 L130.50 -212.18 L130.00 -211.31 L130.50 -210.44 L130.00 -209.58 L129.00 -209.58 L128.50 -208.71 L129.00 -207.85 L130.00 -207.85 L130.50 -208.71 L131.50 -208.71 L132.00 -207.85 L133.00 -207.85 L133.50 -208.71 L133.00 -209.58 L133.50 -210.44 L134.50 -210.44 L135.00 -209.58 L134.50 -208.71 L135.00 -207.85 L136.00 -207.85 L136.50 -206.98 L136.00 -206.11 L135.00 -206.11 L134.50 -205.25 L135.00 -204.38 L136.00 -204.38 L136.50 -205.25 L137.50 -205.25 L138.00 -204.38 L137.50 -203.52 L138.00 -202.65 L139.00 -202.65 L139.50 -201.78 L139.00 -200.92 L138.00 -200.92 L137.50 -201.78 L136.50 -201.78 L136.00 -200.92 L135.00 -200.92 L134.50 -201.78 L135.00 -202.65 L134.50 -203.52 L133.50 -203.52 L133.00 -202.65 L133.50 -201.78 L133.00 -200.92 L132.00 -200.92 L131.50 -200.05 L132.00 -199.19 L133.00 -199.19 L133.50 -198.32 L133.00 -197.45 L132.00 -197.45 L131.50 -198.32 L130.50 -198.32 L130.00 -197.45 L130.50 -196.59 L130.00 -195.72 L129.00 -195.72 L128.50 -194.86 L129.00 -193.99 L130.00 -193.99 L130.50 -194.86 L131.50 -194.86 L132.00 -193.99 L133.00 -193.99 L133.50 -194.86 L133.00 -195.72 L133.50 -196.59 L134.50 -196.59 L135.00 -195.72 L134.50 -194.86 L135.00 -193.99 L136.00 -193.99 L136.50 -194.86 L137.50 -194.86 L138.00 -193.99 L139.00 -193.99 L139.50 -194.86 L139.00 -195.72 L138.00 -195.72 L137.50 -196.59 L138.00 -197.45 L139.00 -197.45 L139.50 -198.32 L139.00 -199.19 L139.50 -200.05 L140.50 -200.05 L141.00 -199.19 L140.50 -198.32 L141.00 -197.45 L142.00 -197.45 L142.50 -196.59 L142.00 -195.72 L141.00 -195.72 L140.50 -194.86 L141.00 -193.99 L142.00 -193.99 L142.50 -194.86 L143.50 -194.86 L144.00 -193.99 L143.50 -193.12 L144.00 -192.26 L145.00 -192.26 L145.50 -191.39 L145.00 -190.53 L144.00 -190.53 L143.50 -191.39 L142.50 -191.39 L142.00 -190.53 L142.50 -189.66 L142.00 -188.79 L141.00 -188.79 L140.50 -187.93 L141.00 -187.06 L142.00 -187.06 L142.50 -187.93 L143.50 -187.93 L144.00 -187.06 L145.00 -187.06 L145.50 -187.93 L145.00 -188.79 L145.50 -189.66 L146.50 -189.66 L147.00 -188.79 L146.50 -187.93 L147.00 -187.06 L148.00 -187.06 L148.50 -186.20 L148.00 -185.33 L147.00 -185.33 L146.50 -184.46 L147.00 -183.60 L148.00 -183.60 L148.50 -184.46 L149.50 -184.46 L150.00 -183.60 L149.50 -182.73 L150.00 -181.87 L151.00 -181.87 L151.50 -181.00 L151.00 -180.13 L150.00 -180.13 L149.50 -181.00 L148.50 -181.00 L148.00 -180.13 L147.00 -180.13 L146.50 -181.00 L147.00 -181.87 L146.50 -182.73 L145.50 -182.73 L145.00 -181.87 L145.50 -181.00 L145.00 -180.13 L144.00 -180.13 L143.50 -181.00 L142.50 -181.00 L142.00 -180.13 L141.00 -180.13 L140.50 -181.00 L141.00 -181.87 L142.00 -181.87 L142.50 -182.73 L142.00 -183.60 L141.00 -183.60 L140.50 -184.46 L141.00 -185.33 L140.50 -186.20 L139.50 -186.20 L139.00 -185.33 L139.50 -184.46 L139.00 -183.60 L138.00 -183.60 L137.50 -182.73 L138.00 -181.87 L139.00 -181.87 L139.50 -181.00 L139.00 -180.13 L138.00 -180.13 L137.50 -181.00 L136.50 -181.00 L136.00 -180.13 L136.50 -179.27 L136.00 -178.40 L135.00 -178.40 L134.50 -177.54 L135.00 -176.67 L136.00 -176.67 L136.50 -177.54 L137.50 -177.54 L138.00 -176.67 L137.50 -175.80 L138.00 -174.94 L139.00 -174.94 L139.50 -174.07 L139.00 -173.21 L138.00 -173.21 L137.50 -174.07 L136.50 -174.07 L136.00 -173.21 L135.00 -173.21 L134.50 -174.07 L135.00 -174.94 L134.50 -175.80 L133.50 -175.80 L133.00 -174.94 L133.50 -174.07 L133.00 -173.21 L132.00 -173.21 L131.50 -172.34 L132.00 -171.47 L133.00 -171.47 L133.50 -170.61 L133.00 -169.74 L132.00 -169.74 L131.50 -170.61 L130.50 -170.61 L130.00 -169.74 L130.50 -168.88 L130.00 -168.01 L129.00 -168.01 L128.50 -167.14 L129.00 -166.28 L130.00 -166.28 L130.50 -167.14 L131.50 -167.14 L132.00 -166.28 L133.00 -166.28 L133.50 -167.14 L133.00 -168.01 L133.50 -168.88 L134.50 -168.88 L135.00 -168.01 L134.50 -167.14 L135.00 -166.28 L136.00 -166.28 L136.50 -167.14 L137.50 -167.14 L138.00 -166.28 L139.00 -166.28 L139.50 -167.14 L139.00 -168.01 L138.00 -168.01 L137.50 -168.88 L138.00 -169.74 L139.00 -169.74 L139.50 -170.61 L139.00 -171.47 L139.50 -172.34 L140.50 -172.34 L141.00 -171.47 L140.50 -170.61 L141.00 -169.74 L142.00 -169.74 L142.50 -168.88 L142.00 -168.01 L141.00 -168.01 L140.50 -167.14 L141.00 -166.28 L142.00 -166.28 L142.50 -167.14 L143.50 -167.14 L144.00 -166.28 L145.00 -166.28 L145.50 -167.14 L145.00 -168.01 L145.50 -168.88 L146.50 -168.88 L147.00 -168.01 L146.50 -167.14 L147.00 -166.28 L148.00 -166.28 L148.50 -167.14 L149.50 -167.14 L150.00 -166.28 L151.00 -166.28 L151.50 -167.14 L151.00 -168.01 L150.00 -168.01 L149.50 -168.88 L150.00 -169.74 L149.50 -170.61 L148.50 -170.61 L148.00 -169.74 L147.00 -169.74 L146.50 -170.61 L147.00 -171.47 L148.00 -171.47 L148.50 -172.34 L148.00 -173.21 L148.50 -174.07 L149.50 -174.07 L150.00 -173.21 L151.00 -173.21 L151.50 -174.07 L151.00 -174.94 L150.00 -174.94 L149.50 -175.80 L150.00 -176.67 L151.00 -176.67 L151.50 -177.54 L151.00 -178.40 L151.50 -179.27 L152.50 -179.27 L153.00 -178.40 L152.50 -177.54 L153.00 -176.67 L154.00 -176.67 L154.50 -175.80 L154.00 -174.94 L153.00 -174.94 L152.50 -174.07 L153.00 -173.21 L154.00 -173.21 L154.50 -174.07 L155.50 -174.07 L156.00 -173.21 L155.50 -172.34 L156.00 -171.47 L157.00 -171.47 L157.50 -170.61 L157.00 -169.74 L156.00 -169.74 L155.50 -170.61 L154.50 -170.61 L154.00 -169.74 L154.50 -168.88 L154.00 -168.01 L153.00 -168.01 L152.50 -167.14 L153.00 -166.28 L154.00 -166.28 L154.50 -167.14 L155.50 -167.14 L156.00 -166.28 L157.00 -166.28 L157.50 -167.14 L157.00 -168.01 L157.50 -168.88 L158.50 -168.88 L159.00 -168.01 L158.50 -167.14 L159.00 -166.28 L160.00 -166.28 L160.50 -165.41 L160.00 -164.55 L159.00 -164.55 L158.50 -163.68 L159.00 -162.81 L160.00 -162.81 L160.50 -163.68 L161.50 -163.68 L162.00 -162.81 L161.50 -161.95 L162.00 -161.08 L163.00 -161.08 L163.50 -160.21 L163.00 -159.35 L162.00 -159.35 L161.50 -160.21 L160.50 -160.21 L160.00 -159.35 L159.00 -159.35 L158.50 -160.21 L159.00 -161.08 L158.50 -161.95 L157.50 -161.95 L157.00 -161.08 L157.50 -160.21 L157.00 -159.35 L156.00 -159.35 L155.50 -158.48 L156.00 -157.62 L157.00 -157.62 L157.50 -156.75 L157.00 -155.88 L156.00 -155.88 L155.50 -156.75 L154.50 -156.75 L154.00 -155.88 L154.50 -155.02 L154.00 -154.15 L153.00 -154.15 L152.50 -153.29 L153.00 -152.42 L154.00 -152.42 L154.50 -153.29 L155.50 -153.29 L156.00 -152.42 L157.00 -152.42 L157.50 -153.29 L157.00 -154.15 L157.50 -155.02 L158.50 -155.02 L159.00 -154.15 L158.50 -153.29 L159.00 -152.42 L160.00 -152.42 L160.50 -153.29 L161.50 -153.29 L162.00 -152.42 L163.00 -152.42 L163.50 -153.29 L163.00 -154.15 L162.00 -154.15 L161.50 -155.02 L162.00 -155.88 L163.00 -155.88 L163.50 -156.75 L163.00 -157.62 L163.50 -158.48 L164.50 -158.48 L165.00 -157.62 L164.50 -156.75 L165.00 -155.88 L166.00 -155.88 L166.50 -155.02 L166.00 -154.15 L165.00 -154.15 L164.50 -153.29 L165.00 -152.42 L166.00 -152.42 L166.50 -153.29 L167.50 -153.29 L168.00 -152.42 L167.50 -151.55 L168.00 -150.69 L169.00 -150.69 L169.50 -149.82 L169.00 -148.96 L168.00 -148.96 L167.50 -149.82 L166.50 -149.82 L166.00 -148.96 L166.50 -148.09 L166.00 -147.22 L165.00 -147.22 L164.50 -146.36 L165.00 -145.49 L166.00 -145.49 L166.50 -146.36 L167.50 -146.36 L168.00 -145.49 L169.00 -145.49 L169.50 -146.36 L169.00 -147.22 L169.50 -148.09 L170.50 -148.09 L171.00 -147.22 L170.50 -146.36 L171.00 -145.49 L172.00 -145.49 L172.50 -144.63 L172.00 -143.76 L171.00 -143.76 L170.50 -142.89 L171.00 -142.03 L172.00 -142.03 L172.50 -142.89 L173.50 -142.89 L174.00 -142.03 L173.50 -141.16 L174.00 -140.30 L175.00 -140.30 L175.50 -139.43 L175.00 -138.56 L174.00 -138.56 L173.50 -139.43 L172.50 -139.43 L172.00 -138.56 L171.00 -138.56 L170.50 -139.43 L171.00 -140.30 L170.50 -141.16 L169.50 -141.16 L169.00 -140.30 L169.50 -139.43 L169.00 -138.56 L168.00 -138.56 L167.50 -139.43 L166.50 -139.43 L166.00 -138.56 L165.00 -138.56 L164.50 -139.43 L165.00 -140.30 L166.00 -140.30 L166.50 -141.16 L166.00 -142.03 L165.00 -142.03 L164.50 -142.89 L165.00 -143.76 L164.50 -144.63 L163.50 -144.63 L163.00 -143.76 L163.50 -142.89 L163.00 -142.03 L162.00 -142.03 L161.50 -141.16 L162.00 -140.30 L163.00 -140.30 L163.50 -139.43 L163.00 -138.56 L162.00 -138.56 L161.50 -139.43 L160.50 -139.43 L160.00 -138.56 L159.00 -138.56 L158.50 -139.43 L159.00 -140.30 L158.50 -141.16 L157.50 -141.16 L157.00 -140.30 L157.50 -139.43 L157.00 -138.56 L156.00 -138.56 L155.50 -139.43 L154.50 -139.43 L154.00 -138.56 L153.00 -138.56 L152.50 -139.43 L153.00 -140.30 L154.00 -140.30 L154.50 -141.16 L154.00 -142.03 L154.50 -142.89 L155.50 -142.89 L156.00 -142.03 L157.00 -142.03 L157.50 -142.89 L157.00 -143.76 L156.00 -143.76 L155.50 -144.63 L156.00 -145.49 L155.50 -146.36 L154.50 -146.36 L154.00 -145.49 L153.00 -145.49 L152.50 -146.36 L153.00 -147.22 L154.00 -147.22 L154.50 -148.09 L154.00 -148.96 L153.00 -148.96 L152.50 -149.82 L153.00 -150.69 L152.50 -151.55 L151.50 -151.55 L151.00 -150.69 L151.50 -149.82 L151.00 -148.96 L150.00 -148.96 L149.50 -148.09 L150.00 -147.22 L151.00 -147.22 L151.50 -146.36 L151.00 -145.49 L150.00 -145.49 L149.50 -146.36 L148.50 -146.36 L148.00 -145.49 L148.50 -144.63 L148.00 -143.76 L147.00 -143.76 L146.50 -142.89 L147.00 -142.03 L148.00 -142.03 L148.50 -142.89 L149.50 -142.89 L150.00 -142.03 L149.50 -141.16 L150.00 -140.30 L151.00 -140.30 L151.50 -139.43 L151.00 -138.56 L150.00 -138.56 L149.50 -139.43 L148.50 -139.43 L148.00 -138.56 L147.00 -138.56 L146.50 -139.43 L147.00 -140.30 L146.50 -141.16 L145.50 -141.16 L145.00 -140.30 L145.50 -139.43 L145.00 -138.56 L144.00 -138.56 L143.50 -137.70 L144.00 -136.83 L145.00 -136.83 L145.50 -135.97 L145.00 -135.10 L144.00 -135.10 L143.50 -135.97 L142.50 -135.97 L142.00 -135.10 L142.50 -134.23 L142.00 -133.37 L141.00 -133.37 L140.50 -132.50 L141.00 -131.64 L142.00 -131.64 L142.50 -132.50 L143.50 -132.50 L144.00 -131.64 L145.00 -131.64 L145.50 -132.50 L145.00 -133.37 L145.50 -134.23 L146.50 -134.23 L147.00 -133.37 L146.50 -132.50 L147.00 -131.64 L148.00 -131.64 L148.50 -130.77 L148.00 -129.90 L147.00 -129.90 L146.50 -129.04 L147.00 -128.17 L148.00 -128.17 L148.50 -129.04 L149.50 -129.04 L150.00 -128.17 L149.50 -127.31 L150.00 -126.44 L151.00 -126.44 L151.50 -125.57 L151.00 -124.71 L150.00 -124.71 L149.50 -125.57 L148.50 -125.57 L148.00 -124.71 L147.00 -124.71 L146.50 -125.57 L147.00 -126.44 L146.50 -127.31 L145.50 -127.31 L145.00 -126.44 L145.50 -125.57 L145.00 -124.71 L144.00 -124.71 L143.50 -125.57 L142.50 -125.57 L142.00 -124.71 L141.00 -124.71 L140.50 -125.57 L141.00 -126.44 L142.00 -126.44 L142.50 -127.31 L142.00 -128.17 L141.00 -128.17 L140.50 -129.04 L141.00 -129.90 L140.50 -130.77 L139.50 -130.77 L139.00 -129.90 L139.50 -129.04 L139.00 -128.17 L138.00 -128.17 L137.50 -127.31 L138.00 -126.44 L139.00 -126.44 L139.50 -125.57 L139.00 -124.71 L138.00 -124.71 L137.50 -125.57 L136.50 -125.57 L136.00 -124.71 L136.50 -123.84 L136.00 -122.98 L135.00 -122.98 L134.50 -122.11 L135.00 -121.24 L136.00 -121.24 L136.50 -122.11 L137.50 -122.11 L138.00 -121.24 L137.50 -120.38 L138.00 -119.51 L139.00 -119.51 L139.50 -118.65 L139.00 -117.78 L138.00 -117.78 L137.50 -118.65 L136.50 -118.65 L136.00 -117.78 L135.00 -117.78 L134.50 -118.65 L135.00 -119.51 L134.50 -120.38 L133.50 -120.38 L133.00 -119.51 L133.50 -118.65 L133.00 -117.78 L132.00 -117.78 L131.50 -116.91 L132.00 -116.05 L133.00 -116.05 L133.50 -115.18 L133.00 -114.32 L132.00 -114.32 L131.50 -115.18 L130.50 -115.18 L130.00 -114.32 L130.50 -113.45 L130.00 -112.58 L129.00 -112.58 L128.50 -111.72 L129.00 -110.85 L130.00 -110.85 L130.50 -111.72 L131.50 -111.72 L132.00 -110.85 L133.00 -110.85 L133.50 -111.72 L133.00 -112.58 L133.50 -113.45 L134.50 -113.45 L135.00 -112.58 L134.50 -111.72 L135.00 -110.85 L136.00 -110.85 L136.50 -111.72 L137.50 -111.72 L138.00 -110.85 L139.00 -110.85 L139.50 -111.72 L139.00 -112.58 L138.00 -112.58 L137.50 -113.45 L138.00 -114.32 L139.00 -114.32 L139.50 -115.18 L139.00 -116.05 L139.50 -116.91 L140.50 -116.91 L141.00 -116.05 L140.50 -115.18 L141.00 -114.32 L142.00 -114.32 L142.50 -113.45 L142.00 -112.58 L141.00 -112.58 L140.50 -111.72 L141.00 -110.85 L142.00 -110.85 L142.50 -111.72 L143.50 -111.72 L144.00 -110.85 L145.00 -110.85 L145.50 -111.72 L145.00 -112.58 L145.50 -113.45 L146.50 -113.45 L147.00 -112.58 L146.50 -111.72 L147.00 -110.85 L148.00 -110.85 L148.50 -111.72 L149.50 -111.72 L150.00 -110.85 L151.00 -110.85 L151.50 -111.72 L151.00 -112.58 L150.00 -112.58 L149.50 -113.45 L150.00 -114.32 L149.50 -115.18 L148.50 -115.18 L148.00 -114.32 L147.00 -114.32 L146.50 -115.18 L147.00 -116.05 L148.00 -116.05 L148.50 -116.91 L148.00 -117.78 L148.50 -118.65 L149.50 -118.65 L150.00 -117.78 L151.00 -117.78 L151.50 -118.65 L151.00 -119.51 L150.00 -119.51 L149.50 -120.38 L150.00 -121.24 L151.00 -121.24 L151.50 -122.11 L151.00 -122.98 L151.50 -123.84 L152.50 -123.84 L153.00 -122.98 L152.50 -122.11 L153.00 -121.24 L154.00 -121.24 L154.50 -120.38 L154.00 -119.51 L153.00 -119.51 L152.50 -118.65 L153.00 -117.78 L154.00 -117.78 L154.50 -118.65 L155.50 -118.65 L156.00 -117.78 L155.50 -116.91 L156.00 -116.05 L157.00 -116.05 L157.50 -115.18 L157.00 -114.32 L156.00 -114.32 L155.50 -115.18 L154.50 -115.18 L154.00 -114.32 L154.50 -113.45 L154.00 -112.58 L153.00 -112.58 L152.50 -111.72 L153.00 -110.85 L154.00 -110.85 L154.50 -111.72 L155.50 -111.72 L156.00 -110.85 L157.00 -110.85 L157.50 -111.72 L157.00 -112.58 L157.50 -113.45 L158.50 -113.45 L159.00 -112.58 L158.50 -111.72 L159.00 -110.85 L160.00 -110.85 L160.50 -111.72 L161.50 -111.72 L162.00 -110.85 L163.00 -110.85 L163.50 -111.72 L163.00 -112.58 L162.00 -112.58 L161.50 -113.45 L162.00 -114.32 L163.00 -114.32 L163.50 -115.18 L163.00 -116.05 L163.50 -116.91 L164.50 -116.91 L165.00 -116.05 L164.50 -115.18 L165.00 -114.32 L166.00 -114.32 L166.50 -113.45 L166.00 -112.58 L165.00 -112.58 L164.50 -111.72 L165.00 -110.85 L166.00 -110.85 L166.50 -111.72 L167.50 -111.72 L168.00 -110.85 L169.00 -110.85 L169.50 -111.72 L169.00 -112.58 L169.50 -113.45 L170.50 -113.45 L171.00 -112.58 L170.50 -111.72 L171.00 -110.85 L172.00 -110.85 L172.50 -111.72 L173.50 -111.72 L174.00 -110.85 L175.00 -110.85 L175.50 -111.72 L175.00 -112.58 L174.00 -112.58 L173.50 -113.45 L174.00 -114.32 L173.50 -115.18 L172.50 -115.18 L172.00 -114.32 L171.00 -114.32 L170.50 -115.18 L171.00 -116.05 L172.00 -116.05 L172.50 -116.91 L172.00 -117.78 L171.00 -117.78 L170.50 -118.65 L171.00 -119.51 L170.50 -120.38 L169.50 -120.38 L169.00 -119.51 L169.50 -118.65 L169.00 -117.78 L168.00 -117.78 L167.50 -118.65 L166.50 -118.65 L166.00 -117.78 L165.00 -117.78 L164.50 -118.65 L165.00 -119.51 L166.00 -119.51 L166.50 -120.38 L166.00 -121.24 L166.50 -122.11 L167.50 -122.11 L168.00 -121.24 L169.00 -121.24 L169.50 -122.11 L169.00 -122.98 L168.00 -122.98 L167.50 -123.84 L168.00 -124.71 L169.00 -124.71 L169.50 -125.57 L169.00 -126.44 L169.50 -127.31 L170.50 -127.31 L171.00 -126.44 L170.50 -125.57 L171.00 -124.71 L172.00 -124.71 L172.50 -125.57 L173.50 -125.57 L174.00 -124.71 L175.00 -124.71 L175.50 -125.57 L175.00 -126.44 L174.00 -126.44 L173.50 -127.31 L174.00 -128.17 L173.50 -129.04 L172.50 -129.04 L172.00 -128.17 L171.00 -128.17 L170.50 -129.04 L171.00 -129.90 L172.00 -129.90 L172.50 -130.77 L172.00 -131.64 L172.50 -132.50 L173.50 -132.50 L174.00 -131.64 L175.00 -131.64 L175.50 -132.50 L175.00 -133.37 L174.00 -133.37 L173.50 -134.23 L174.00 -135.10 L175.00 -135.10 L175.50 -135.97 L175.00 -136.83 L175.50 -137.70 L176.50 -137.70 L177.00 -136.83 L176.50 -135.97 L177.00 -135.10 L178.00 -135.10 L178.50 -134.23 L178.00 -133.37 L177.00 -133.37 L176.50 -132.50 L177.00 -131.64 L178.00 -131.64 L178.50 -132.50 L179.50 -132.50 L180.00 -131.64 L179.50 -130.77 L180.00 -129.90 L181.00 -129.90 L181.50 -129.04 L181.00 -128.17 L180.00 -128.17 L179.50 -129.04 L178.50 -129.04 L178.00 -128.17 L178.50 -127.31 L178.00 -126.44 L177.00 -126.44 L176.50 -125.57 L177.00 -124.71 L178.00 -124.71 L178.50 -125.57 L179.50 -125.57 L180.00 -124.71 L181.00 -124.71 L181.50 -125.57 L181.00 -126.44 L181.50 -127.31 L182.50 -127.31 L183.00 -126.44 L182.50 -125.57 L183.00 -124.71 L184.00 -124.71 L184.50 -123.84 L184.00 -122.98 L183.00 -122.98 L182.50 -122.11 L183.00 -121.24 L184.00 -121.24 L184.50 -122.11 L185.50 -122.11 L186.00 -121.24 L185.50 -120.38 L186.00 -119.51 L187.00 -119.51 L187.50 -118.65 L187.00 -117.78 L186.00 -117.78 L185.50 -118.65 L184.50 -118.65 L184.00 -117.78 L183.00 -117.78 L182.50 -118.65 L183.00 -119.51 L182.50 -120.38 L181.50 -120.38 L181.00 -119.51 L181.50 -118.65 L181.00 -117.78 L180.00 -117.78 L179.50 -116.91 L180.00 -116.05 L181.00 -116.05 L181.50 -115.18 L181.00 -114.32 L180.00 -114.32 L179.50 -115.18 L178.50 -115.18 L178.00 -114.32 L178.50 -113.45 L178.00 -112.58 L177.00 -112.58 L176.50 -111.72 L177.00 -110.85 L178.00 -110.85 L178.50 -111.72 L179.50 -111.72 L180.00 -110.85 L181.00 -110.85 L181.50 -111.72 L181.00 -112.58 L181.50 -113.45 L182.50 -113.45 L183.00 -112.58 L182.50 -111.72 L183.00 -110.85 L184.00 -110.85 L184.50 -111.72 L185.50 -111.72 L186.00 -110.85 L187.00 -110.85 L187.50 -111.72 L187.00 -112.58 L186.00 -112.58 L185.50 -113.45 L186.00 -114.32 L187.00 -114.32 L187.50 -115.18 L187.00 -116.05 L187.50 -116.91 L188.50 -116.91 L189.00 -116.05 L188.50 -115.18 L189.00 -114.32 L190.00 -114.32 L190.50 -113.45 L190.00 -112.58 L189.00 -112.58 L188.50 -111.72 L189.00 -110.85 L190.00 -110.85 L190.50 -111.72 L191.50 -111.72 L192.00 -110.85 L191.50 -109.99 L192.00 -109.12 L193.00 -109.12 L193.50 -108.25 L193.00 -107.39 L192.00 -107.39 L191.50 -108.25 L190.50 -108.25 L190.00 -107.39 L190.50 -106.52 L190.00 -105.66 L189.00 -105.66 L188.50 -104.79 L189.00 -103.92 L190.00 -103.92 L190.50 -104.79 L191.50 -104.79 L192.00 -103.92 L193.00 -103.92 L193.50 -104.79 L193.00 -105.66 L193.50 -106.52 L194.50 -106.52 L195.00 -105.66 L194.50 -104.79 L195.00 -103.92 L196.00 -103.92 L196.50 -103.06 L196.00 -102.19 L195.00 -102.19 L194.50 -101.33 L195.00 -100.46 L196.00 -100.46 L196.50 -101.33 L197.50 -101.33 L198.00 -100.46 L197.50 -99.59 L198.00 -98.73 L199.00 -98.73 L199.50 -97.86 L199.00 -96.99 L198.00 -96.99 L197.50 -97.86 L196.50 -97.86 L196.00 -96.99 L195.00 -96.99 L194.50 -97.86 L195.00 -98.73 L194.50 -99.59 L193.50 -99.59 L193.00 -98.73 L193.50 -97.86 L193.00 -96.99 L192.00 -96.99 L191.50 -97.86 L190.50 -97.86 L190.00 -96.99 L189.00 -96.99 L188.50 -97.86 L189.00 -98.73 L190.00 -98.73 L190.50 -99.59 L190.00 -100.46 L189.00 -100.46 L188.50 -101.33 L189.00 -102.19 L188.50 -103.06 L187.50 -103.06 L187.00 -102.19 L187.50 -101.33 L187.00 -100.46 L186.00 -100.46 L185.50 -99.59 L186.00 -98.73 L187.00 -98.73 L187.50 -97.86 L187.00 -96.99 L186.00 -96.99 L185.50 -97.86 L184.50 -97.86 L184.00 -96.99 L184.50 -96.13 L184.00 -95.26 L183.00 -95.26 L182.50 -94.40 L183.00 -93.53 L184.00 -93.53 L184.50 -94.40 L185.50 -94.40 L186.00 -93.53 L185.50 -92.66 L186.00 -91.80 L187.00 -91.80 L187.50 -90.93 L187.00 -90.07 L186.00 -90.07 L185.50 -90.93 L184.50 -90.93 L184.00 -90.07 L183.00 -90.07 L182.50 -90.93 L183.00 -91.80 L182.50 -92.66 L181.50 -92.66 L181.00 -91.80 L181.50 -90.93 L181.00 -90.07 L180.00 -90.07 L179.50 -89.20 L180.00 -88.33 L181.00 -88.33 L181.50 -87.47 L181.00 -86.60 L180.00 -86.60 L179.50 -87.47 L178.50 -87.47 L178.00 -86.60 L178.50 -85.74 L178.00 -84.87 L177.00 -84.87 L176.50 -84.00 L177.00 -83.14 L178.00 -83.14 L178.50 -84.00 L179.50 -84.00 L180.00 -83.14 L181.00 -83.14 L181.50 -84.00 L181.00 -84.87 L181.50 -85.74 L182.50 -85.74 L183.00 -84.87 L182.50 -84.00 L183.00 -83.14 L184.00 -83.14 L184.50 -84.00 L185.50 -84.00 L186.00 -83.14 L187.00 -83.14 L187.50 -84.00 L187.00 -84.87 L186.00 -84.87 L185.50 -85.74 L186.00 -86.60 L187.00 -86.60 L187.50 -87.47 L187.00 -88.33 L187.50 -89.20 L188.50 -89.20 L189.00 -88.33 L188.50 -87.47 L189.00 -86.60 L190.00 -86.60 L190.50 -85.74 L190.00 -84.87 L189.00 -84.87 L188.50 -84.00 L189.00 -83.14 L190.00 -83.14 L190.50 -84.00 L191.50 -84.00 L192.00 -83.14 L193.00 -83.14 L193.50 -84.00 L193.00 -84.87 L193.50 -85.74 L194.50 -85.74 L195.00 -84.87 L194.50 -84.00 L195.00 -83.14 L196.00 -83.14 L196.50 -84.00 L197.50 -84.00 L198.00 -83.14 L199.00 -83.14 L199.50 -84.00 L199.00 -84.87 L198.00 -84.87 L197.50 -85.74 L198.00 -86.60 L197.50 -87.47 L196.50 -87.47 L196.00 -86.60 L195.00 -86.60 L194.50 -87.47 L195.00 -88.33 L196.00 -88.33 L196.50 -89.20 L196.00 -90.07 L196.50 -90.93 L197.50 -90.93 L198.00 -90.07 L199.00 -90.07 L199.50 -90.93 L199.00 -91.80 L198.00 -91.80 L197.50 -92.66 L198.00 -93.53 L199.00 -93.53 L199.50 -94.40 L199.00 -95.26 L199.50 -96.13 L200.50 -96.13 L201.00 -95.26 L200.50 -94.40 L201.00 -93.53 L202.00 -93.53 L202.50 -92.66 L202.00 -91.80 L201.00 -91.80 L200.50 -90.93 L201.00 -90.07 L202.00 -90.07 L202.50 -90.93 L203.50 -90.93 L204.00 -90.07 L203.50 -89.20 L204.00 -88.33 L205.00 -88.33 L205.50 -87.47 L205.00 -86.60 L204.00 -86.60 L203.50 -87.47 L202.50 -87.47 L202.00 -86.60 L202.50 -85.74 L202.00 -84.87 L201.00 -84.87 L200.50 -84.00 L201.00 -83.14 L202.00 -83.14 L202.50 -84.00 L203.50 -84.00 L204.00 -83.14 L205.00 -83.14 L205.50 -84.00 L205.00 -84.87 L205.50 -85.74 L206.50 -85.74 L207.00 -84.87 L206.50 -84.00 L207.00 -83.14 L208.00 -83.14 L208.50 -82.27 L208.00 -81.41 L207.00 -81.41 L206.50 -80.54 L207.00 -79.67 L208.00 -79.67 L208.50 -80.54 L209.50 -80.54 L210.00 -79.67 L209.50 -78.81 L210.00 -77.94 L211.00 -77.94 L211.50 -77.08 L211.00 -76.21 L210.00 -76.21 L209.50 -77.08 L208.50 -77.08 L208.00 -76.21 L207.00 -76.21 L206.50 -77.08 L207.00 -77.94 L206.50 -78.81 L205.50 -78.81 L205.00 -77.94 L205.50 -77.08 L205.00 -76.21 L204.00 -76.21 L203.50 -75.34 L204.00 -74.48 L205.00 -74.48 L205.50 -73.61 L205.00 -72.75 L204.00 -72.75 L203.50 -73.61 L202.50 -73.61 L202.00 -72.75 L202.50 -71.88 L202.00 -71.01 L201.00 -71.01 L200.50 -70.15 L201.00 -69.28 L202.00 -69.28 L202.50 -70.15 L203.50 -70.15 L204.00 -69.28 L205.00 -69.28 L205.50 -70.15 L205.00 -71.01 L205.50 -71.88 L206.50 -71.88 L207.00 -71.01 L206.50 -70.15 L207.00 -69.28 L208.00 -69.28 L208.50 -70.15 L209.50 -70.15 L210.00 -69.28 L211.00 -69.28 L211.50 -70.15 L211.00 -71.01 L210.00 -71.01 L209.50 -71.88 L210.00 -72.75 L211.00 -72.75 L211.50 -73.61 L211.00 -74.48 L211.50 -75.34 L212.50 -75.34 L213.00 -74.48 L212.50 -73.61 L213.00 -72.75 L214.00 -72.75 L214.50 -71.88 L214.00 -71.01 L213.00 -71.01 L212.50 -70.15 L213.00 -69.28 L214.00 -69.28 L214.50 -70.15 L215.50 -70.15 L216.00 -69.28 L215.50 -68.42 L216.00 -67.55 L217.00 -67.55 L217.50 -66.68 L217.00 -65.82 L216.00 -65.82 L215.50 -66.68 L214.50 -66.68 L214.00 -65.82 L214.50 -64.95 L214.00 -64.09 L213.00 -64.09 L212.50 -63.22 L213.00 -62.35 L214.00 -62.35 L214.50 -63.22 L215.50 -63.22 L216.00 -62.35 L217.00 -62.35 L217.50 -63.22 L217.00 -64.09 L217.50 -64.95 L218.50 -64.95 L219.00 -64.09 L218.50 -63.22 L219.00 -62.35 L220.00 -62.35 L220.50 -61.49 L220.00 -60.62 L219.00 -60.62 L218.50 -59.76 L219.00 -58.89 L220.00 -58.89 L220.50 -59.76 L221.50 -59.76 L222.00 -58.89 L221.50 -58.02 L222.00 -57.16 L223.00 -57.16 L223.50 -56.29 L223.00 -55.43 L222.00 -55.43 L221.50 -56.29 L220.50 -56.29 L220.00 -55.43 L219.00 -55.43 L218.50 -56.29 L219.00 -57.16 L218.50 -58.02 L217.50 -58.02 L217.00 -57.16 L217.50 -56.29 L217.00 -55.43 L216.00 -55.43 L215.50 -56.29 L214.50 -56.29 L214.00 -55.43 L213.00 -55.43 L212.50 -56.29 L213.00 -57.16 L214.00 -57.16 L214.50 -58.02 L214.00 -58.89 L213.00 -58.89 L212.50 -59.76 L213.00 -60.62 L212.50 -61.49 L211.50 -61.49 L211.00 -60.62 L211.50 -59.76 L211.00 -58.89 L210.00 -58.89 L209.50 -58.02 L210.00 -57.16 L211.00 -57.16 L211.50 -56.29 L211.00 -55.43 L210.00 -55.43 L209.50 -56.29 L208.50 -56.29 L208.00 -55.43 L207.00 -55.43 L206.50 -56.29 L207.00 -57.16 L206.50 -58.02 L205.50 -58.02 L205.00 -57.16 L205.50 -56.29 L205.00 -55.43 L204.00 -55.43 L203.50 -56.29 L202.50 -56.29 L202.00 -55.43 L201.00 -55.43 L200.50 -56.29 L201.00 -57.16 L202.00 -57.16 L202.50 -58.02 L202.00 -58.89 L202.50 -59.76 L203.50 -59.76 L204.00 -58.89 L205.00 -58.89 L205.50 -59.76 L205.00 -60.62 L204.00 -60.62 L203.50 -61.49 L204.00 -62.35 L203.50 -63.22 L202.50 -63.22 L202.00 -62.35 L201.00 -62.35 L200.50 -63.22 L201.00 -64.09 L202.00 -64.09 L202.50 -64.95 L202.00 -65.82 L201.00 -65.82 L200.50 -66.68 L201.00 -67.55 L200.50 -68.42 L199.50 -68.42 L199.00 -67.55 L199.50 -66.68 L199.00 -65.82 L198.00 -65.82 L197.50 -64.95 L198.00 -64.09 L199.00 -64.09 L199.50 -63.22 L199.00 -62.35 L198.00 -62.35 L197.50 -63.22 L196.50 -63.22 L196.00 -62.35 L196.50 -61.49 L196.00 -60.62 L195.00 -60.62 L194.50 -59.76 L195.00 -58.89 L196.00 -58.89 L196.50 -59.76 L197.50 -59.76 L198.00 -58.89 L197.50 -58.02 L198.00 -57.16 L199.00 -57.16 L199.50 -56.29 L199.00 -55.43 L198.00 -55.43 L197.50 -56.29 L196.50 -56.29 L196.00 -55.43 L195.00 -55.43 L194.50 -56.29 L195.00 -57.16 L194.50 -58.02 L193.50 -58.02 L193.00 -57.16 L193.50 -56.29 L193.00 -55.43 L192.00 -55.43 L191.50 -56.29 L190.50 -56.29 L190.00 -55.43 L189.00 -55.43 L188.50 -56.29 L189.00 -57.16 L190.00 -57.16 L190.50 -58.02 L190.00 -58.89 L189.00 -58.89 L188.50 -59.76 L189.00 -60.62 L188.50 -61.49 L187.50 -61.49 L187.00 -60.62 L187.50 -59.76 L187.00 -58.89 L186.00 -58.89 L185.50 -58.02 L186.00 -57.16 L187.00 -57.16 L187.50 -56.29 L187.00 -55.43 L186.00 -55.43 L185.50 -56.29 L184.50 -56.29 L184.00 -55.43 L183.00 -55.43 L182.50 -56.29 L183.00 -57.16 L182.50 -58.02 L181.50 -58.02 L181.00 -57.16 L181.50 -56.29 L181.00 -55.43 L180.00 -55.43 L179.50 -56.29 L178.50 -56.29 L178.00 -55.43 L177.00 -55.43 L176.50 -56.29 L177.00 -57.16 L178.00 -57.16 L178.50 -58.02 L178.00 -58.89 L178.50 -59.76 L179.50 -59.76 L180.00 -58.89 L181.00 -58.89 L181.50 -59.76 L181.00 -60.62 L180.00 -60.62 L179.50 -61.49 L180.00 -62.35 L181.00 -62.35 L181.50 -63.22 L181.00 -64.09 L181.50 -64.95 L182.50 -64.95 L183.00 -64.09 L182.50 -63.22 L183.00 -62.35 L184.00 -62.35 L184.50 -63.22 L185.50 -63.22 L186.00 -62.35 L187.00 -62.35 L187.50 -63.22 L187.00 -64.09 L186.00 -64.09 L185.50 -64.95 L186.00 -65.82 L185.50 -66.68 L184.50 -66.68 L184.00 -65.82 L183.00 -65.82 L182.50 -66.68 L183.00 -67.55 L184.00 -67.55 L184.50 -68.42 L184.00 -69.28 L183.00 -69.28 L182.50 -70.15 L183.00 -71.01 L182.50 -71.88 L181.50 -71.88 L181.00 -71.01 L181.50 -70.15 L181.00 -69.28 L180.00 -69.28 L179.50 -70.15 L178.50 -70.15 L178.00 -69.28 L177.00 -69.28 L176.50 -70.15 L177.00 -71.01 L178.00 -71.01 L178.50 -71.88 L178.00 -72.75 L178.50 -73.61 L179.50 -73.61 L180.00 -72.75 L181.00 -72.75 L181.50 -73.61 L181.00 -74.48 L180.00 -74.48 L179.50 -75.34 L180.00 -76.21 L179.50 -77.08 L178.50 -77.08 L178.00 -76.21 L177.00 -76.21 L176.50 -77.08 L177.00 -77.94 L178.00 -77.94 L178.50 -78.81 L178.00 -79.67 L177.00 -79.67 L176.50 -80.54 L177.00 -81.41 L176.50 -82.27 L175.50 -82.27 L175.00 -81.41 L175.50 -80.54 L175.00 -79.67 L174.00 -79.67 L173.50 -78.81 L174.00 -77.94 L175.00 -77.94 L175.50 -77.08 L175.00 -76.21 L174.00 -76.21 L173.50 -77.08 L172.50 -77.08 L172.00 -76.21 L172.50 -75.34 L172.00 -74.48 L171.00 -74.48 L170.50 -73.61 L171.00 -72.75 L172.00 -72.75 L172.50 -73.61 L173.50 -73.61 L174.00 -72.75 L173.50 -71.88 L174.00 -71.01 L175.00 -71.01 L175.50 -70.15 L175.00 -69.28 L174.00 -69.28 L173.50 -70.15 L172.50 -70.15 L172.00 -69.28 L171.00 -69.28 L170.50 -70.15 L171.00 -71.01 L170.50 -71.88 L169.50 -71.88 L169.00 -71.01 L169.50 -70.15 L169.00 -69.28 L168.00 -69.28 L167.50 -68.42 L168.00 -67.55 L169.00 -67.55 L169.50 -66.68 L169.00 -65.82 L168.00 -65.82 L167.50 -66.68 L166.50 -66.68 L166.00 -65.82 L166.50 -64.95 L166.00 -64.09 L165.00 -64.09 L164.50 -63.22 L165.00 -62.35 L166.00 -62.35 L166.50 -63.22 L167.50 -63.22 L168.00 -62.35 L169.00 -62.35 L169.50 -63.22 L169.00 -64.09 L169.50 -64.95 L170.50 -64.95 L171.00 -64.09 L170.50 -63.22 L171.00 -62.35 L172.00 -62.35 L172.50 -61.49 L172.00 -60.62 L171.00 -60.62 L170.50 -59.76 L171.00 -58.89 L172.00 -58.89 L172.50 -59.76 L173.50 -59.76 L174.00 -58.89 L173.50 -58.02 L174.00 -57.16 L175.00 -57.16 L175.50 -56.29 L175.00 -55.43 L174.00 -55.43 L173.50 -56.29 L172.50 -56.29 L172.00 -55.43 L171.00 -55.43 L170.50 -56.29 L171.00 -57.16 L170.50 -58.02 L169.50 -58.02 L169.00 -57.16 L169.50 -56.29 L169.00 -55.43 L168.00 -55.43 L167.50 -56.29 L166.50 -56.29 L166.00 -55.43 L165.00 -55.43 L164.50 -56.29 L165.00 -57.16 L166.00 -57.16 L166.50 -58.02 L166.00 -58.89 L165.00 -58.89 L164.50 -59.76 L165.00 -60.62 L164.50 -61.49 L163.50 -61.49 L163.00 -60.62 L163.50 -59.76 L163.00 -58.89 L162.00 -58.89 L161.50 -58.02 L162.00 -57.16 L163.00 -57.16 L163.50 -56.29 L163.00 -55.43 L162.00 -55.43 L161.50 -56.29 L160.50 -56.29 L160.00 -55.43 L160.50 -54.56 L160.00 -53.69 L159.00 -53.69 L158.50 -52.83 L159.00 -51.96 L160.00 -51.96 L160.50 -52.83 L161.50 -52.83 L162.00 -51.96 L161.50 -51.10 L162.00 -50.23 L163.00 -50.23 L163.50 -49.36 L163.00 -48.50 L162.00 -48.50 L161.50 -49.36 L160.50 -49.36 L160.00 -48.50 L159.00 -48.50 L158.50 -49.36 L159.00 -50.23 L158.50 -51.10 L157.50 -51.10 L157.00 -50.23 L157.50 -49.36 L157.00 -48.50 L156.00 -48.50 L155.50 -47.63 L156.00 -46.77 L157.00 -46.77 L157.50 -45.90 L157.00 -45.03 L156.00 -45.03 L155.50 -45.90 L154.50 -45.90 L154.00 -45.03 L154.50 -44.17 L154.00 -43.30 L153.00 -43.30 L152.50 -42.44 L153.00 -41.57 L154.00 -41.57 L154.50 -42.44 L155.50 -42.44 L156.00 -41.57 L157.00 -41.57 L157.50 -42.44 L157.00 -43.30 L157.50 -44.17 L158.50 -44.17 L159.00 -43.30 L158.50 -42.44 L159.00 -41.57 L160.00 -41.57 L160.50 -42.44 L161.50 -42.44 L162.00 -41.57 L163.00 -41.57 L163.50 -42.44 L163.00 -43.30 L162.00 -43.30 L161.50 -44.17 L162.00 -45.03 L163.00 -45.03 L163.50 -45.90 L163.00 -46.77 L163.50 -47.63 L164.50 -47.63 L165.00 -46.77 L164.50 -45.90 L165.00 -45.03 L166.00 -45.03 L166.50 -44.17 L166.00 -43.30 L165.00 -43.30 L164.50 -42.44 L165.00 -41.57 L166.00 -41.57 L166.50 -42.44 L167.50 -42.44 L168.00 -41.57 L167.50 -40.70 L168.00 -39.84 L169.00 -39.84 L169.50 -38.97 L169.00 -38.11 L168.00 -38.11 L167.50 -38.97 L166.50 -38.97 L166.00 -38.11 L166.50 -37.24 L166.00 -36.37 L165.00 -36.37 L164.50 -35.51 L165.00 -34.64 L166.00 -34.64 L166.50 -35.51 L167.50 -35.51 L168.00 -34.64 L169.00 -34.64 L169.50 -35.51 L169.00 -36.37 L169.50 -37.24 L170.50 -37.24 L171.00 -36.37 L170.50 -35.51 L171.00 -34.64 L172.00 -34.64 L172.50 -33.77 L172.00 -32.91 L171.00 -32.91 L170.50 -32.04 L171.00 -31.18 L172.00 -31.18 L172.50 -32.04 L173.50 -32.04 L174.00 -31.18 L173.50 -30.31 L174.00 -29.44 L175.00 -29.44 L175.50 -28.58 L175.00 -27.71 L174.00 -27.71 L173.50 -28.58 L172.50 -28.58 L172.00 -27.71 L171.00 -27.71 L170.50 -28.58 L171.00 -29.44 L170.50 -30.31 L169.50 -30.31 L169.00 -29.44 L169.50 -28.58 L169.00 -27.71 L168.00 -27.71 L167.50 -28.58 L166.50 -28.58 L166.00 -27.71 L165.00 -27.71 L164.50 -28.58 L165.00 -29.44 L166.00 -29.44 L166.50 -30.31 L166.00 -31.18 L165.00 -31.18 L164.50 -32.04 L165.00 -32.91 L164.50 -33.77 L163.50 -33.77 L163.00 -32.91 L163.50 -32.04 L163.00 -31.18 L162.00 -31.18 L161.50 -30.31 L162.00 -29.44 L163.00 -29.44 L163.50 -28.58 L163.00 -27.71 L162.00 -27.71 L161.50 -28.58 L160.50 -28.58 L160.00 -27.71 L159.00 -27.71 L158.50 -28.58 L159.00 -29.44 L158.50 -30.31 L157.50 -30.31 L157.00 -29.44 L157.50 -28.58 L157.00 -27.71 L156.00 -27.71 L155.50 -28.58 L154.50 -28.58 L154.00 -27.71 L153.00 -27.71 L152.50 -28.58 L153.00 -29.44 L154.00 -29.44 L154.50 -30.31 L154.00 -31.18 L154.50 -32.04 L155.50 -32.04 L156.00 -31.18 L157.00 -31.18 L157.50 -32.04 L157.00 -32.91 L156.00 -32.91 L155.50 -33.77 L156.00 -34.64 L155.50 -35.51 L154.50 -35.51 L154.00 -34.64 L153.00 -34.64 L152.50 -35.51 L153.00 -36.37 L154.00 -36.37 L154.50 -37.24 L154.00 -38.11 L153.00 -38.11 L152.50 -38.97 L153.00 -39.84 L152.50 -40.70 L151.50 -40.70 L151.00 -39.84 L151.50 -38.97 L151.00 -38.11 L150.00 -38.11 L149.50 -37.24 L150.00 -36.37 L151.00 -36.37 L151.50 -35.51 L151.00 -34.64 L150.00 -34.64 L149.50 -35.51 L148.50 -35.51 L148.00 -34.64 L148.50 -33.77 L148.00 -32.91 L147.00 -32.91 L146.50 -32.04 L147.00 -31.18 L148.00 -31.18 L148.50 -32.04 L149.50 -32.04 L150.00 -31.18 L149.50 -30.31 L150.00 -29.44 L151.00 -29.44 L151.50 -28.58 L151.00 -27.71 L150.00 -27.71 L149.50 -28.58 L148.50 -28.58 L148.00 -27.71 L147.00 -27.71 L146.50 -28.58 L147.00 -29.44 L146.50 -30.31 L145.50 -30.31 L145.00 -29.44 L145.50 -28.58 L145.00 -27.71 L144.00 -27.71 L143.50 -26.85 L144.00 -25.98 L145.00 -25.98 L145.50 -25.11 L145.00 -24.25 L144.00 -24.25 L143.50 -25.11 L142.50 -25.11 L142.00 -24.25 L142.50 -23.38 L142.00 -22.52 L141.00 -22.52 L140.50 -21.65 L141.00 -20.78 L142.00 -20.78 L142.50 -21.65 L143.50 -21.65 L144.00 -20.78 L145.00 -20.78 L145.50 -21.65 L145.00 -22.52 L145.50 -23.38 L146.50 -23.38 L147.00 -22.52 L146.50 -21.65 L147.00 -20.78 L148.00 -20.78 L148.50 -19.92 L148.00 -19.05 L147.00 -19.05 L146.50 -18.19 L147.00 -17.32 L148.00 -17.32 L148.50 -18.19 L149.50 -18.19 L150.00 -17.32 L149.50 -16.45 L150.00 -15.59 L151.00 -15.59 L151.50 -14.72 L151.00 -13.86 L150.00 -13.86 L149.50 -14.72 L148.50 -14.72 L148.00 -13.86 L147.00 -13.86 L146.50 -14.72 L147.00 -15.59 L146.50 -16.45 L145.50 -16.45 L145.00 -15.59 L145.50 -14.72 L145.00 -13.86 L144.00 -13.86 L143.50 -14.72 L142.50 -14.72 L142.00 -13.86 L141.00 -13.86 L140.50 -14.72 L141.00 -15.59 L142.00 -15.59 L142.50 -16.45 L142.00 -17.32 L141.00 -17.32 L140.50 -18.19 L141.00 -19.05 L140.50 -19.92 L139.50 -19.92 L139.00 -19.05 L139.50 -18.19 L139.00 -17.32 L138.00 -17.32 L137.50 -16.45 L138.00 -15.59 L139.00 -15.59 L139.50 -14.72 L139.00 -13.86 L138.00 -13.86 L137.50 -14.72 L136.50 -14.72 L136.00 -13.86 L136.50 -12.99 L136.00 -12.12 L135.00 -12.12 L134.50 -11.26 L135.00 -10.39 L136.00 -10.39 L136.50 -11.26 L137.50 -11.26 L138.00 -10.39 L137.50 -9.53 L138.00 -8.66 L139.00 -8.66 L139.50 -7.79 L139.00 -6.93 L138.00 -6.93 L137.50 -7.79 L136.50 -7.79 L136.00 -6.93 L135.00 -6.93 L134.50 -7.79 L135.00 -8.66 L134.50 -9.53 L133.50 -9.53 L133.00 -8.66 L133.50 -7.79 L133.00 -6.93 L132.00 -6.93 L131.50 -6.06 L132.00 -5.20 L133.00 -5.20 L133.50 -4.33 L133.00 -3.46 L132.00 -3.46 L131.50 -4.33 L130.50 -4.33 L130.00 -3.46 L130.50 -2.60 L130.00 -1.73 L129.00 -1.73 L128.50 -0.87 L129.00 0.00 L130.00 0.00 L130.50 -0.87 L131.50 -0.87 L132.00 0.00 L133.00 0.00 L133.50 -0.87 L133.00 -1.73 L133.50 -2.60 L134.50 -2.60 L135.00 -1.73 L134.50 -0.87 L135.00 0.00 L136.00 0.00 L136.50 -0.87 L137.50 -0.87 L138.00 0.00 L139.00 0.00 L139.50 -0.87 L139.00 -1.73 L138.00 -1.73 L137.50 -2.60 L138.00 -3.46 L139.00 -3.46 L139.50 -4.33 L139.00 -5.20 L139.50 -6.06 L140.50 -6.06 L141.00 -5.20 L140.50 -4.33 L141.00 -3.46 L142.00 -3.46 L142.50 -2.60 L142.00 -1.73 L141.00 -1.73 L140.50 -0.87 L141.00 0.00 L142.00 0.00 L142.50 -0.87 L143.50 -0.87 L144.00 0.00 L145.00 0.00 L145.50 -0.87 L145.00 -1.73 L145.50 -2.60 L146.50 -2.60 L147.00 -1.73 L146.50 -0.87 L147.00 0.00 L148.00 0.00 L148.50 -0.87 L149.50 -0.87 L150.00 0.00 L151.00 0.00 L151.50 -0.87 L151.00 -1.73 L150.00 -1.73 L149.50 -2.60 L150.00 -3.46 L149.50 -4.33 L148.50 -4.33 L148.00 -3.46 L147.00 -3.46 L146.50 -4.33 L147.00 -5.20 L148.00 -5.20 L148.50 -6.06 L148.00 -6.93 L148.50 -7.79 L149.50 -7.79 L150.00 -6.93 L151.00 -6.93 L151.50 -7.79 L151.00 -8.66 L150.00 -8.66 L149.50 -9.53 L150.00 -10.39 L151.00 -10.39 L151.50 -11.26 L151.00 -12.12 L151.50 -12.99 L152.50 -12.99 L153.00 -12.12 L152.50 -11.26 L153.00 -10.39 L154.00 -10.39 L154.50 -9.53 L154.00 -8.66 L153.00 -8.66 L152.50 -7.79 L153.00 -6.93 L154.00 -6.93 L154.50 -7.79 L155.50 -7.79 L156.00 -6.93 L155.50 -6.06 L156.00 -5.20 L157.00 -5.20 L157.50 -4.33 L157.00 -3.46 L156.00 -3.46 L155.50 -4.33 L154.50 -4.33 L154.00 -3.46 L154.50 -2.60 L154.00 -1.73 L153.00 -1.73 L152.50 -0.87 L153.00 0.00 L154.00 0.00 L154.50 -0.87 L155.50 -0.87 L156.00 0.00 L157.00 0.00 L157.50 -0.87 L157.00 -1.73 L157.50 -2.60 L158.50 -2.60 L159.00 -1.73 L158.50 -0.87 L159.00 0.00 L160.00 0.00 L160.50 -0.87 L161.50 -0.87 L162.00 0.00 L163.00 0.00 L163.50 -0.87 L163.00 -1.73 L162.00 -1.73 L161.50 -2.60 L162.00 -3.46 L163.00 -3.46 L163.50 -4.33 L163.00 -5.20 L163.50 -6.06 L164.50 -6.06 L165.00 -5.20 L164.50 -4.33 L165.00 -3.46 L166.00 -3.46 L166.50 -2.60 L166.00 -1.73 L165.00 -1.73 L164.50 -0.87 L165.00 0.00 L166.00 0.00 L166.50 -0.87 L167.50 -0.87 L168.00 0.00 L169.00 0.00 L169.50 -0.87 L169.00 -1.73 L169.50 -2.60 L170.50 -2.60 L171.00 -1.73 L170.50 -0.87 L171.00 0.00 L172.00 0.00 L172.50 -0.87 L173.50 -0.87 L174.00 0.00 L175.00 0.00 L175.50 -0.87 L175.00 -1.73 L174.00 -1.73 L173.50 -2.60 L174.00 -3.46 L173.50 -4.33 L172.50 -4.33 L172.00 -3.46 L171.00 -3.46 L170.50 -4.33 L171.00 -5.20 L172.00 -5.20 L172.50 -6.06 L172.00 -6.93 L171.00 -6.93 L170.50 -7.79 L171.00 -8.66 L170.50 -9.53 L169.50 -9.53 L169.00 -8.66 L169.50 -7.79 L169.00 -6.93 L168.00 -6.93 L167.50 -7.79 L166.50 -7.79 L166.00 -6.93 L165.00 -6.93 L164.50 -7.79 L165.00 -8.66 L166.00 -8.66 L166.50 -9.53 L166.00 -10.39 L166.50 -11.26 L167.50 -11.26 L168.00 -10.39 L169.00 -10.39 L169.50 -11.26 L169.00 -12.12 L168.00 -12.12 L167.50 -12.99 L168.00 -13.86 L169.00 -13.86 L169.50 -14.72 L169.00 -15.59 L169.50 -16.45 L170.50 -16.45 L171.00 -15.59 L170.50 -14.72 L171.00 -13.86 L172.00 -13.86 L172.50 -14.72 L173.50 -14.72 L174.00 -13.86 L175.00 -13.86 L175.50 -14.72 L175.00 -15.59 L174.00 -15.59 L173.50 -16.45 L174.00 -17.32 L173.50 -18.19 L172.50 -18.19 L172.00 -17.32 L171.00 -17.32 L170.50 -18.19 L171.00 -19.05 L172.00 -19.05 L172.50 -19.92 L172.00 -20.78 L172.50 -21.65 L173.50 -21.65 L174.00 -20.78 L175.00 -20.78 L175.50 -21.65 L175.00 -22.52 L174.00 -22.52 L173.50 -23.38 L174.00 -24.25 L175.00 -24.25 L175.50 -25.11 L175.00 -25.98 L175.50 -26.85 L176.50 -26.85 L177.00 -25.98 L176.50 -25.11 L177.00 -24.25 L178.00 -24.25 L178.50 -23.38 L178.00 -22.52 L177.00 -22.52 L176.50 -21.65 L177.00 -20.78 L178.00 -20.78 L178.50 -21.65 L179.50 -21.65 L180.00 -20.78 L179.50 -19.92 L180.00 -19.05 L181.00 -19.05 L181.50 -18.19 L181.00 -17.32 L180.00 -17.32 L179.50 -18.19 L178.50 -18.19 L178.00 -17.32 L178.50 -16.45 L178.00 -15.59 L177.00 -15.59 L176.50 -14.72 L177.00 -13.86 L178.00 -13.86 L178.50 -14.72 L179.50 -14.72 L180.00 -13.86 L181.00 -13.86 L181.50 -14.72 L181.00 -15.59 L181.50 -16.45 L182.50 -16.45 L183.00 -15.59 L182.50 -14.72 L183.00 -13.86 L184.00 -13.86 L184.50 -12.99 L184.00 -12.12 L183.00 -12.12 L182.50 -11.26 L183.00 -10.39 L184.00 -10.39 L184.50 -11.26 L185.50 -11.26 L186.00 -10.39 L185.50 -9.53 L186.00 -8.66 L187.00 -8.66 L187.50 -7.79 L187.00 -6.93 L186.00 -6.93 L185.50 -7.79 L184.50 -7.79 L184.00 -6.93 L183.00 -6.93 L182.50 -7.79 L183.00 -8.66 L182.50 -9.53 L181.50 -9.53 L181.00 -8.66 L181.50 -7.79 L181.00 -6.93 L180.00 -6.93 L179.50 -6.06 L180.00 -5.20 L181.00 -5.20 L181.50 -4.33 L181.00 -3.46 L180.00 -3.46 L179.50 -4.33 L178.50 -4.33 L178.00 -3.46 L178.50 -2.60 L178.00 -1.73 L177.00 -1.73 L176.50 -0.87 L177.00 0.00 L178.00 0.00 L178.50 -0.87 L179.50 -0.87 L180.00 0.00 L181.00 0.00 L181.50 -0.87 L181.00 -1.73 L181.50 -2.60 L182.50 -2.60 L183.00 -1.73 L182.50 -0.87 L183.00 0.00 L184.00 0.00 L184.50 -0.87 L185.50 -0.87 L186.00 0.00 L187.00 0.00 L187.50 -0.87 L187.00 -1.73 L186.00 -1.73 L185.50 -2.60 L186.00 -3.46 L187.00 -3.46 L187.50 -4.33 L187.00 -5.20 L187.50 -6.06 L188.50 -6.06 L189.00 -5.20 L188.50 -4.33 L189.00 -3.46 L190.00 -3.46 L190.50 -2.60 L190.00 -1.73 L189.00 -1.73 L188.50 -0.87 L189.00 0.00 L190.00 0.00 L190.50 -0.87 L191.50 -0.87 L192.00 0.00 L193.00 0.00 L193.50 -0.87 L193.00 -1.73 L193.50 -2.60 L194.50 -2.60 L195.00 -1.73 L194.50 -0.87 L195.00 0.00 L196.00 0.00 L196.50 -0.87 L197.50 -0.87 L198.00 0.00 L199.00 0.00 L199.50 -0.87 L199.00 -1.73 L198.00 -1.73 L197.50 -2.60 L198.00 -3.46 L197.50 -4.33 L196.50 -4.33 L196.00 -3.46 L195.00 -3.46 L194.50 -4.33 L195.00 -5.20 L196.00 -5.20 L196.50 -6.06 L196.00 -6.93 L196.50 -7.79 L197.50 -7.79 L198.00 -6.93 L199.00 -6.93 L199.50 -7.79 L199.00 -8.66 L198.00 -8.66 L197.50 -9.53 L198.00 -10.39 L199.00 -10.39 L199.50 -11.26 L199.00 -12.12 L199.50 -12.99 L200.50 -12.99 L201.00 -12.12 L200.50 -11.26 L201.00 -10.39 L202.00 -10.39 L202.50 -9.53 L202.00 -8.66 L201.00 -8.66 L200.50 -7.79 L201.00 -6.93 L202.00 -6.93 L202.50 -7.79 L203.50 -7.79 L204.00 -6.93 L203.50 -6.06 L204.00 -5.20 L205.00 -5.20 L205.50 -4.33 L205.00 -3.46 L204.00 -3.46 L203.50 -4.33 L202.50 -4.33 L202.00 -3.46 L202.50 -2.60 L202.00 -1.73 L201.00 -1.73 L200.50 -0.87 L201.00 0.00 L202.00 0.00 L202.50 -0.87 L203.50 -0.87 L204.00 0.00 L205.00 0.00 L205.50 -0.87 L205.00 -1.73 L205.50 -2.60 L206.50 -2.60 L207.00 -1.73 L206.50 -0.87 L207.00 0.00 L208.00 0.00 L208.50 -0.87 L209.50 -0.87 L210.00 0.00 L211.00 0.00 L211.50 -0.87 L211.00 -1.73 L210.00 -1.73 L209.50 -2.60 L210.00 -3.46 L211.00 -3.46 L211.50 -4.33 L211.00 -5.20 L211.50 -6.06 L212.50 -6.06 L213.00 -5.20 L212.50 -4.33 L213.00 -3.46 L214.00 -3.46 L214.50 -2.60 L214.00 -1.73 L213.00 -1.73 L212.50 -0.87 L213.00 0.00 L214.00 0.00 L214.50 -0.87 L215.50 -0.87 L216.00 0.00 L217.00 0.00 L217.50 -0.87 L217.00 -1.73 L217.50 -2.60 L218.50 -2.60 L219.00 -1.73 L218.50 -0.87 L219.00 0.00 L220.00 0.00 L220.50 -0.87 L221.50 -0.87 L222.00 0.00 L223.00 0.00 L223.50 -0.87 L223.00 -1.73 L222.00 -1.73 L221.50 -2.60 L222.00 -3.46 L221.50 -4.33 L220.50 -4.33 L220.00 -3.46 L219.00 -3.46 L218.50 -4.33 L219.00 -5.20 L220.00 -5.20 L220.50 -6.06 L220.00 -6.93 L219.00 -6.93 L218.50 -7.79 L219.00 -8.66 L218.50 -9.53 L217.50 -9.53 L217.00 -8.66 L217.50 -7.79 L217.00 -6.93 L216.00 -6.93 L215.50 -7.79 L214.50 -7.79 L214.00 -6.93 L213.00 -6.93 L212.50 -7.79 L213.00 -8.66 L214.00 -8.66 L214.50 -9.53 L214.00 -10.39 L214.50 -11.26 L215.50 -11.26 L216.00 -10.39 L217.00 -10.39 L217.50 -11.26 L217.00 -12.12 L216.00 -12.12 L215.50 -12.99 L216.00 -13.86 L215.50 -14.72 L214.50 -14.72 L214.00 -13.86 L213.00 -13.86 L212.50 -14.72 L213.00 -15.59 L214.00 -15.59 L214.50 -16.45 L214.00 -17.32 L213.00 -17.32 L212.50 -18.19 L213.00 -19.05 L212.50 -19.92 L211.50 -19.92 L211.00 -19.05 L211.50 -18.19 L211.00 -17.32 L210.00 -17.32 L209.50 -16.45 L210.00 -15.59 L211.00 -15.59 L211.50 -14.72 L211.00 -13.86 L210.00 -13.86 L209.50 -14.72 L208.50 -14.72 L208.00 -13.86 L207.00 -13.86 L206.50 -14.72 L207.00 -15.59 L206.50 -16.45 L205.50 -16.45 L205.00 -15.59 L205.50 -14.72 L205.00 -13.86 L204.00 -13.86 L203.50 -14.72 L202.50 -14.72 L202.00 -13.86 L201.00 -13.86 L200.50 -14.72 L201.00 -15.59 L202.00 -15.59 L202.50 -16.45 L202.00 -17.32 L202.50 -18.19 L203.50 -18.19 L204.00 -17.32 L205.00 -17.32 L205.50 -18.19 L205.00 -19.05 L204.00 -19.05 L203.50 -19.92 L204.00 -20.78 L205.00 -20.78 L205.50 -21.65 L205.00 -22.52 L205.50 -23.38 L206.50 -23.38 L207.00 -22.52 L206.50 -21.65 L207.00 -20.78 L208.00 -20.78 L208.50 -21.65 L209.50 -21.65 L210.00 -20.78 L211.00 -20.78 L211.50 -21.65 L211.00 -22.52 L210.00 -22.52 L209.50 -23.38 L210.00 -24.25 L209.50 -25.11 L208.50 -25.11 L208.00 -24.25 L207.00 -24.25 L206.50 -25.11 L207.00 -25.98 L208.00 -25.98 L208.50 -26.85 L208.00 -27.71 L208.50 -28.58 L209.50 -28.58 L210.00 -27.71 L211.00 -27.71 L211.50 -28.58 L211.00 -29.44 L210.00 -29.44 L209.50 -30.31 L210.00 -31.18 L211.00 -31.18 L211.50 -32.04 L211.00 -32.91 L211.50 -33.77 L212.50 -33.77 L213.00 -32.91 L212.50 -32.04 L213.00 -31.18 L214.00 -31.18 L214.50 -30.31 L214.00 -29.44 L213.00 -29.44 L212.50 -28.58 L213.00 -27.71 L214.00 -27.71 L214.50 -28.58 L215.50 -28.58 L216.00 -27.71 L217.00 -27.71 L217.50 -28.58 L217.00 -29.44 L217.50 -30.31 L218.50 -30.31 L219.00 -29.44 L218.50 -28.58 L219.00 -27.71 L220.00 -27.71 L220.50 -28.58 L221.50 -28.58 L222.00 -27.71 L223.00 -27.71 L223.50 -28.58 L223.00 -29.44 L222.00 -29.44 L221.50 -30.31 L222.00 -31.18 L221.50 -32.04 L220.50 -32.04 L220.00 -31.18 L219.00 -31.18 L218.50 -32.04 L219.00 -32.91 L220.00 -32.91 L220.50 -33.77 L220.00 -34.64 L219.00 -34.64 L218.50 -35.51 L219.00 -36.37 L218.50 -37.24 L217.50 -37.24 L217.00 -36.37 L217.50 -35.51 L217.00 -34.64 L216.00 -34.64 L215.50 -35.51 L214.50 -35.51 L214.00 -34.64 L213.00 -34.64 L212.50 -35.51 L213.00 -36.37 L214.00 -36.37 L214.50 -37.24 L214.00 -38.11 L214.50 -38.97 L215.50 -38.97 L216.00 -38.11 L217.00 -38.11 L217.50 -38.97 L217.00 -39.84 L216.00 -39.84 L215.50 -40.70 L216.00 -41.57 L217.00 -41.57 L217.50 -42.44 L217.00 -43.30 L217.50 -44.17 L218.50 -44.17 L219.00 -43.30 L218.50 -42.44 L219.00 -41.57 L220.00 -41.57 L220.50 -42.44 L221.50 -42.44 L222.00 -41.57 L223.00 -41.57 L223.50 -42.44 L223.00 -43.30 L222.00 -43.30 L221.50 -44.17 L222.00 -45.03 L221.50 -45.90 L220.50 -45.90 L220.00 -45.03 L219.00 -45.03 L218.50 -45.90 L219.00 -46.77 L220.00 -46.77 L220.50 -47.63 L220.00 -48.50 L220.50 -49.36 L221.50 -49.36 L222.00 -48.50 L223.00 -48.50 L223.50 -49.36 L223.00 -50.23 L222.00 -50.23 L221.50 -51.10 L222.00 -51.96 L223.00 -51.96 L223.50 -52.83 L223.00 -53.69 L223.50 -54.56 L224.50 -54.56 L225.00 -53.69 L224.50 -52.83 L225.00 -51.96 L226.00 -51.96 L226.50 -51.10 L226.00 -50.23 L225.00 -50.23 L224.50 -49.36 L225.00 -48.50 L226.00 -48.50 L226.50 -49.36 L227.50 -49.36 L228.00 -48.50 L227.50 -47.63 L228.00 -46.77 L229.00 -46.77 L229.50 -45.90 L229.00 -45.03 L228.00 -45.03 L227.50 -45.90 L226.50 -45.90 L226.00 -45.03 L226.50 -44.17 L226.00 -43.30 L225.00 -43.30 L224.50 -42.44 L225.00 -41.57 L226.00 -41.57 L226.50 -42.44 L227.50 -42.44 L228.00 -41.57 L229.00 -41.57 L229.50 -42.44 L229.00 -43.30 L229.50 -44.17 L230.50 -44.17 L231.00 -43.30 L230.50 -42.44 L231.00 -41.57 L232.00 -41.57 L232.50 -40.70 L232.00 -39.84 L231.00 -39.84 L230.50 -38.97 L231.00 -38.11 L232.00 -38.11 L232.50 -38.97 L233.50 -38.97 L234.00 -38.11 L233.50 -37.24 L234.00 -36.37 L235.00 -36.37 L235.50 -35.51 L235.00 -34.64 L234.00 -34.64 L233.50 -35.51 L232.50 -35.51 L232.00 -34.64 L231.00 -34.64 L230.50 -35.51 L231.00 -36.37 L230.50 -37.24 L229.50 -37.24 L229.00 -36.37 L229.50 -35.51 L229.00 -34.64 L228.00 -34.64 L227.50 -33.77 L228.00 -32.91 L229.00 -32.91 L229.50 -32.04 L229.00 -31.18 L228.00 -31.18 L227.50 -32.04 L226.50 -32.04 L226.00 -31.18 L226.50 -30.31 L226.00 -29.44 L225.00 -29.44 L224.50 -28.58 L225.00 -27.71 L226.00 -27.71 L226.50 -28.58 L227.50 -28.58 L228.00 -27.71 L229.00 -27.71 L229.50 -28.58 L229.00 -29.44 L229.50 -30.31 L230.50 -30.31 L231.00 -29.44 L230.50 -28.58 L231.00 -27.71 L232.00 -27.71 L232.50 -28.58 L233.50 -28.58 L234.00 -27.71 L235.00 -27.71 L235.50 -28.58 L235.00 -29.44 L234.00 -29.44 L233.50 -30.31 L234.00 -31.18 L235.00 -31.18 L235.50 -32.04 L235.00 -32.91 L235.50 -33.77 L236.50 -33.77 L237.00 -32.91 L236.50 -32.04 L237.00 -31.18 L238.00 -31.18 L238.50 -30.31 L238.00 -29.44 L237.00 -29.44 L236.50 -28.58 L237.00 -27.71 L238.00 -27.71 L238.50 -28.58 L239.50 -28.58 L240.00 -27.71 L239.50 -26.85 L240.00 -25.98 L241.00 -25.98 L241.50 -25.11 L241.00 -24.25 L240.00 -24.25 L239.50 -25.11 L238.50 -25.11 L238.00 -24.25 L238.50 -23.38 L238.00 -22.52 L237.00 -22.52 L236.50 -21.65 L237.00 -20.78 L238.00 -20.78 L238.50 -21.65 L239.50 -21.65 L240.00 -20.78 L241.00 -20.78 L241.50 -21.65 L241.00 -22.52 L241.50 -23.38 L242.50 -23.38 L243.00 -22.52 L242.50 -21.65 L243.00 -20.78 L244.00 -20.78 L244.50 -19.92 L244.00 -19.05 L243.00 -19.05 L242.50 -18.19 L243.00 -17.32 L244.00 -17.32 L244.50 -18.19 L245.50 -18.19 L246.00 -17.32 L245.50 -16.45 L246.00 -15.59 L247.00 -15.59 L247.50 -14.72 L247.00 -13.86 L246.00 -13.86 L245.50 -14.72 L244.50 -14.72 L244.00 -13.86 L243.00 -13.86 L242.50 -14.72 L243.00 -15.59 L242.50 -16.45 L241.50 -16.45 L241.00 -15.59 L241.50 -14.72 L241.00 -13.86 L240.00 -13.86 L239.50 -14.72 L238.50 -14.72 L238.00 -13.86 L237.00 -13.86 L236.50 -14.72 L237.00 -15.59 L238.00 -15.59 L238.50 -16.45 L238.00 -17.32 L237.00 -17.32 L236.50 -18.19 L237.00 -19.05 L236.50 -19.92 L235.50 -19.92 L235.00 -19.05 L235.50 -18.19 L235.00 -17.32 L234.00 -17.32 L233.50 -16.45 L234.00 -15.59 L235.00 -15.59 L235.50 -14.72 L235.00 -13.86 L234.00 -13.86 L233.50 -14.72 L232.50 -14.72 L232.00 -13.86 L232.50 -12.99 L232.00 -12.12 L231.00 -12.12 L230.50 -11.26 L231.00 -10.39 L232.00 -10.39 L232.50 -11.26 L233.50 -11.26 L234.00 -10.39 L233.50 -9.53 L234.00 -8.66 L235.00 -8.66 L235.50 -7.79 L235.00 -6.93 L234.00 -6.93 L233.50 -7.79 L232.50 -7.79 L232.00 -6.93 L231.00 -6.93 L230.50 -7.79 L231.00 -8.66 L230.50 -9.53 L229.50 -9.53 L229.00 -8.66 L229.50 -7.79 L229.00 -6.93 L228.00 -6.93 L227.50 -6.06 L228.00 -5.20 L229.00 -5.20 L229.50 -4.33 L229.00 -3.46 L228.00 -3.46 L227.50 -4.33 L226.50 -4.33 L226.00 -3.46 L226.50 -2.60 L226.00 -1.73 L225.00 -1.73 L224.50 -0.87 L225.00 0.00 L226.00 0.00 L226.50 -0.87 L227.50 -0.87 L228.00 0.00 L229.00 0.00 L229.50 -0.87 L229.00 -1.73 L229.50 -2.60 L230.50 -2.60 L231.00 -1.73 L230.50 -0.87 L231.00 0.00 L232.00 0.00 L232.50 -0.87 L233.50 -0.87 L234.00 0.00 L235.00 0.00 L235.50 -0.87 L235.00 -1.73 L234.00 -1.73 L233.50 -2.60 L234.00 -3.46 L235.00 -3.46 L235.50 -4.33 L235.00 -5.20 L235.50 -6.06 L236.50 -6.06 L237.00 -5.20 L236.50 -4.33 L237.00 -3.46 L238.00 -3.46 L238.50 -2.60 L238.00 -1.73 L237.00 -1.73 L236.50 -0.87 L237.00 0.00 L238.00 0.00 L238.50 -0.87 L239.50 -0.87 L240.00 0.00 L241.00 0.00 L241.50 -0.87 L241.00 -1.73 L241.50 -2.60 L242.50 -2.60 L243.00 -1.73 L242.50 -0.87 L243.00 0.00 L244.00 0.00 L244.50 -0.87 L245.50 -0.87 L246.00 0.00 L247.00 0.00 L247.50 -0.87 L247.00 -1.73 L246.00 -1.73 L245.50 -2.60 L246.00 -3.46 L245.50 -4.33 L244.50 -4.33 L244.00 -3.46 L243.00 -3.46 L242.50 -4.33 L243.00 -5.20 L244.00 -5.20 L244.50 -6.06 L244.00 -6.93 L244.50 -7.79 L245.50 -7.79 L246.00 -6.93 L247.00 -6.93 L247.50 -7.79 L247.00 -8.66 L246.00 -8.66 L245.50 -9.53 L246.00 -10.39 L247.00 -10.39 L247.50 -11.26 L247.00 -12.12 L247.50 -12.99 L248.50 -12.99 L249.00 -12.12 L248.50 -11.26 L249.00 -10.39 L250.00 -10.39 L250.50 -9.53 L250.00 -8.66 L249.00 -8.66 L248.50 -7.79 L249.00 -6.93 L250.00 -6.93 L250.50 -7.79 L251.50 -7.79 L252.00 -6.93 L251.50 -6.06 L252.00 -5.20 L253.00 -5.20 L253.50 -4.33 L253.00 -3.46 L252.00 -3.46 L251.50 -4.33 L250.50 -4.33 L250.00 -3.46 L250.50 -2.60 L250.00 -1.73 L249.00 -1.73 L248.50 -0.87 L249.00 0.00 L250.00 0.00 L250.50 -0.87 L251.50 -0.87 L252.00 0.00 L253.00 0.00 L253.50 -0.87 L253.00 -1.73 L253.50 -2.60 L254.50 -2.60 L255.00 -1.73 L254.50 -0.87 L255.00 0.00 L256.00 0.00 "/>
</g>
</svg>

