<svg viewBox="0 0 1000.000000 1000.000000" xmlns="http://www.w3.org/2000/svg" version="1.1">
<!-- SEED 2913163142 -->
<rect width="1000.000000" height="1000.000000" fill="#FFBB44" fill-opacity="1.000000"/>
<g transform="scale(14.471781,14.471781) translate(34.049999,65.050003) ">
<path stroke="#000000" stroke-opacity="1.000000" stroke-width="0.300000" fill="none" fill-opacity="1" d="M0.00 0.00 L1.00 0.00 L1.00 -1.00 L2.00 -1.00 L2.00 -2.00 L3.00 -2.00 L3.00 -3.00 L2.00 -3.00 L2.00 -4.00 L1.00 -4.00 L1.00 -5.00 L2.00 -5.00 L2.00 -6.00 L3.00 -6.00 L3.00 -5.00 L4.00 -5.00 L4.00 -4.00 L5.00 -4.00 L5.00 -5.00 L6.00 -5.00 L6.00 -6.00 L7.00 -6.00 L7.00 -7.00 L6.00 -7.00 L6.00 -8.00 L5.00 -8.00 L5.00 -9.00 L4.00 -9.00 L4.00 -8.00 L3.00 -8.00 L3.00 -7.00 L2.00 -7.00 L2.00 -8.00 L1.00 -8.00 L1.00 -9.00 L2.00 -9.00 L2.00 -10.00 L3.00 -10.00 L3.00 -11.00 L2.00 -11.00 L2.00 -12.00 L1.00 -12.00 L1.00 -13.00 L2.00 -13.00 L2.00 -14.00 L3.00 -14.00 L3.00 -13.00 L4.00 -13.00 L4.00 -12.00 L5.00 -12.00 L5.00 -13.00 L6.00 -13.00 L6.00 -14.00 L7.00 -14.00 L7.00 -13.00 L8.00 -13.00 L8.00 -12.00 L7.00 -12.00 L7.00 -11.00 L6.00 -11.00 L6.00 -10.00 L7.00 -10.00 L7.00 -9.00 L8.00 -9.00 L8.00 -8.00 L9.00 -8.00 L9.00 -9.00 L10.00 -9.00 L10.00 -10.00 L11.00 -10.00 L11.00 -11.00 L10.00 -11.00 L10.00 -12.00 L9.00 -12.00 L9.00 -13.00 L10.00 -13.00 L10.00 -14.00 L11.00 -14.00 L11.00 -13.00 L12.00 -13.00 L12.00 -12.00 L13.00 -12.00 L13.00 -13.00 L14.00 -13.00 L14.00 -14.00 L15.00 -14.00 L15.00 -15.00 L14.00 -15.00 L14.00 -16.00 L13.00 -16.00 L13.00 -17.00 L12.00 -17.00 L12.00 -16.00 L11.00 -16.00 L11.00 -15.00 L10.00 -15.00 L10.00 -16.00 L9.00 -16.00 L9.00 -17.00 L10.00 -17.00 L10.00 -18.00 L11.00 -18.00 L11.00 -19.00 L10.00 -19.00 L10.00 -20.00 L9.00 -20.00 L9.00 -21.00 L8.00 -21.00 L8.00 -20.00 L7.00 -20.00 L7.00 -19.00 L6.00 -19.00 L6.00 -18.00 L7.00 -18.00 L7.00 -17.00 L8.00 -17.00 L8.00 -16.00 L7.00 -16.00 L7.00 -15.00 L6.00 -15.00 L6.00 -16.00 L5.00 -16.00 L5.00 -17.00 L4.00 -17.00 L4.00 -16.00 L3.00 -16.00 L3.00 -15.00 L2.00 -15.00 L2.00 -16.00 L1.00 -16.00 L1.00 -17.00 L2.00 -17.00 L2.00 -18.00 L3.00 -18.00 L3.00 -19.00 L2.00 -19.00 L2.00 -20.00 L1.00 -20.00 L1.00 -21.00 L2.00 -21.00 L2.00 -22.00 L3.00 -22.00 L3.00 -21.00 L4.00 -21.00 L4.00 -20.00 L5.00 -20.00 L5.00 -21.00 L6.00 -21.00 L6.00 -22.00 L7.00 -22.00 L7.00 -23.00 L6.00 -23.00 L6.00 -24.00 L5.00 -24.00 L5.00 -25.00 L4.00 -25.00 L4.00 -24.00 L3.00 -24.00 L3.00 -23.00 L2.00 -23.00 L2.00 -24.00 L1.00 -24.00 L1.00 -25.00 L2.00 -25.00 L2.00 -26.00 L3.00 -26.00 L3.00 -27.00 L2.00 -27.00 L2.00 -28.00 L1.00 -28.00 L1.00 -29.00 L2.00 -29.00 L2.00 -30.00 L3.00 -30.00 L3.00 -29.00 L4.00 -29.00 L4.00 -28.00 L5.00 -28.00 L5.00 -29.00 L6.00 -29.00 L6.00 -30.00 L7.00 -30.00 L7.00 -29.00 L8.00 -29.00 L8.00 -28.00 L7.00 -28.00 L7.00 -27.00 L6.00 -27.00 L6.00 -26.00 L7.00 -26.00 L7.00 -25.00 L8.00 -25.00 L8.00 -24.00 L9.00 -24.00 L9.00 -25.00 L10.00 -25.00 L10.00 -26.00 L11.00 -26.00 L11.00 -27.00 L10.00 -27.00 L10.00 -28.00 L9.00 -28.00 L9.00 -29.00 L10.00 -29.00 L10.00 -30.00 L11.00 -30.00 L11.00 -29.00 L12.00 -29.00 L12.00 -28.00 L13.00 -28.00 L13.00 -29.00 L14.00 -29.00 L14.00 -30.00 L15.00 -30.00 L15.00 -29.00 L16.00 -29.00 L16.00 -28.00 L15.00 -28.00 L15.00 -27.00 L14.00 -27.00 L14.00 -26.00 L15.00 -26.00 L15.00 -25.00 L16.00 -25.00 L16.00 -24.00 L15.00 -24.00 L15.00 -23.00 L14.00 -23.00 L14.00 -24.00 L13.00 -24.00 L13.00 -25.00 L12.00 -25.00 L12.00 -24.00 L11.00 -24.00 L11.00 -23.00 L10.00 -23.00 L10.00 -22.00 L11.00 -22.00 L11.00 -21.00 L12.00 -21.00 L12.00 -20.00 L13.00 -20.00 L13.00 -21.00 L14.00 -21.00 L14.00 -22.00 L15.00 -22.00 L15.00 -21.00 L16.00 -21.00 L16.00 -20.00 L15.00 -20.00 L15.00 -19.00 L14.00 -19.00 L14.00 -18.00 L15.00 -18.00 L15.00 -17.00 L16.00 -17.00 L16.00 -16.00 L17.00 -16.00 L17.00 -17.00 L18.00 -17.00 L18.00 -18.00 L19.00 -18.00 L19.00 -19.00 L18.00 -19.00 L18.00 -20.00 L17.00 -20.00 L17.00 -21.00 L18.00 -21.00 L18.00 -22.00 L19.00 -22.00 L19.00 -21.00 L20.00 -21.00 L20.00 -20.00 L21.00 -20.00 L21.00 -21.00 L22.00 -21.00 L22.00 -22.00 L23.00 -22.00 L23.00 -23.00 L22.00 -23.00 L22.00 -24.00 L21.00 -24.00 L21.00 -25.00 L20.00 -25.00 L20.00 -24.00 L19.00 -24.00 L19.00 -23.00 L18.00 -23.00 L18.00 -24.00 L17.00 -24.00 L17.00 -25.00 L18.00 -25.00 L18.00 -26.00 L19.00 -26.00 L19.00 -27.00 L18.00 -27.00 L18.00 -28.00 L17.00 -28.00 L17.00 -29.00 L18.00 -29.00 L18.00 -30.00 L19.00 -30.00 L19.00 -29.00 L20.00 -29.00 L20.00 -28.00 L21.00 -28.00 L21.00 -29.00 L22.00 -29.00 L22.00 -30.00 L23.00 -30.00 L23.00 -29.00 L24.00 -29.00 L24.00 -28.00 L23.00 -28.00 L23.00 -27.00 L22.00 -27.00 L22.00 -26.00 L23.00 -26.00 L23.00 -25.00 L24.00 -25.00 L24.00 -24.00 L25.00 -24.00 L25.00 -25.00 L26.00 -25.00 L26.00 -26.00 L27.00 -26.00 L27.00 -27.00 L26.00 -27.00 L26.00 -28.00 L25.00 -28.00 L25.00 -29.00 L26.00 -29.00 L26.00 -30.00 L27.00 -30.00 L27.00 -29.00 L28.00 -29.00 L28.00 -28.00 L29.00 -28.00 L29.00 -29.00 L30.00 -29.00 L30.00 -30.00 L31.00 -30.00 L31.00 -31.00 L30.00 -31.00 L30.00 -32.00 L29.00 -32.00 L29.00 -33.00 L28.00 -33.00 L28.00 -32.00 L27.00 -32.00 L27.00 -31.00 L26.00 -31.00 L26.00 -32.00 L25.00 -32.00 L25.00 -33.00 L26.00 -33.00 L26.00 -34.00 L27.00 -34.00 L27.00 -35.00 L26.00 -35.00 L26.00 -36.00 L25.00 -36.00 L25.00 -37.00 L24.00 -37.00 L24.00 -36.00 L23.00 -36.00 L23.00 -35.00 L22.00 -35.00 L22.00 -34.00 L23.00 -34.00 L23.00 -33.00 L24.00 -33.00 L24.00 -32.00 L23.00 -32.00 L23.00 -31.00 L22.00 -31.00 L22.00 -32.00 L21.00 -32.00 L21.00 -33.00 L20.00 -33.00 L20.00 -32.00 L19.00 -32.00 L19.00 -31.00 L18.00 -31.00 L18.00 -32.00 L17.00 -32.00 L17.00 -33.00 L18.00 -33.00 L18.00 -34.00 L19.00 -34.00 L19.00 -35.00 L18.00 -35.00 L18.00 -36.00 L17.00 -36.00 L17.00 -37.00 L18.00 -37.00 L18.00 -38.00 L19.00 -38.00 L19.00 -37.00 L20.00 -37.00 L20.00 -36.00 L21.00 -36.00 L21.00 -37.00 L22.00 -37.00 L22.00 -38.00 L23.00 -38.00 L23.00 -39.00 L22.00 -39.00 L22.00 -40.00 L21.00 -40.00 L21.00 -41.00 L20.00 -41.00 L20.00 -40.00 L19.00 -40.00 L19.00 -39.00 L18.00 -39.00 L18.00 -40.00 L17.00 -40.00 L17.00 -41.00 L18.00 -41.00 L18.00 -42.00 L19.00 -42.00 L19.00 -43.00 L18.00 -43.00 L18.00 -44.00 L17.00 -44.00 L17.00 -45.00 L16.00 -45.00 L16.00 -44.00 L15.00 -44.00 L15.00 -43.00 L14.00 -43.00 L14.00 -42.00 L15.00 -42.00 L15.00 -41.00 L16.00 -41.00 L16.00 -40.00 L15.00 -40.00 L15.00 -39.00 L14.00 -39.00 L14.00 -40.00 L13.00 -40.00 L13.00 -41.00 L12.00 -41.00 L12.00 -40.00 L11.00 -40.00 L11.00 -39.00 L10.00 -39.00 L10.00 -38.00 L11.00 -38.00 L11.00 -37.00 L12.00 -37.00 L12.00 -36.00 L13.00 -36.00 L13.00 -37.00 L14.00 -37.00 L14.00 -38.00 L15.00 -38.00 L15.00 -37.00 L16.00 -37.00 L16.00 -36.00 L15.00 -36.00 L15.00 -35.00 L14.00 -35.00 L14.00 -34.00 L15.00 -34.00 L15.00 -33.00 L16.00 -33.00 L16.00 -32.00 L15.00 -32.00 L15.00 -31.00 L14.00 -31.00 L14.00 -32.00 L13.00 -32.00 L13.00 -33.00 L12.00 -33.00 L12.00 -32.00 L11.00 -32.00 L11.00 -31.00 L10.00 -31.00 L10.00 -32.00 L9.00 -32.00 L9.00 -33.00 L10.00 -33.00 L10.00 -34.00 L11.00 -34.00 L11.00 -35.00 L10.00 -35.00 L10.00 -36.00 L9.00 -36.00 L9.00 -37.00 L8.00 -37.00 L8.00 -36.00 L7.00 -36.00 L7.00 -35.00 L6.00 -35.00 L6.00 -34.00 L7.00 -34.00 L7.00 -33.00 L8.00 -33.00 L8.00 -32.00 L7.00 -32.00 L7.00 -31.00 L6.00 -31.00 L6.00 -32.00 L5.00 -32.00 L5.00 -33.00 L4.00 -33.00 L4.00 -32.00 L3.00 -32.00 L3.00 -31.00 L2.00 -31.00 L2.00 -32.00 L1.00 -32.00 L1.00 -33.00 L2.00 -33.00 L2.00 -34.00 L3.00 -34.00 L3.00 -35.00 L2.00 -35.00 L2.00 -36.00 L1.00 -36.00 L1.00 -37.00 L2.00 -37.00 L2.00 -38.00 L3.00 -38.00 L3.00 -37.00 L4.00 -37.00 L4.00 -36.00 L5.00 -36.00 L5.00 -37.00 L6.00 -37.00 L6.00 -38.00 L7.00 -38.00 L7.00 -39.00 L6.00 -39.00 L6.00 -40.00 L5.00 -40.00 L5.00 -41.00 L4.00 -41.00 L4.00 -40.00 L3.00 -40.00 L3.00 -39.00 L2.00 -39.00 L2.00 -40.00 L1.00 -40.00 L1.00 -41.00 L2.00 -41.00 L2.00 -42.00 L3.00 -42.00 L3.00 -43.00 L2.00 -43.00 L2.00 -44.00 L1.00 -44.00 L1.00 -45.00 L2.00 -45.00 L2.00 -46.00 L3.00 -46.00 L3.00 -45.00 L4.00 -45.00 L4.00 -44.00 L5.00 -44.00 L5.00 -45.00 L6.00 -45.00 L6.00 -46.00 L7.00 -46.00 L7.00 -45.00 L8.00 -45.00 L8.00 -44.00 L7.00 -44.00 L7.00 -43.00 L6.00 -43.00 L6.00 -42.00 L7.00 -42.00 L7.00 -41.00 L8.00 -41.00 L8.00 -40.00 L9.00 -40.00 L9.00 -41.00 L10.00 -41.00 L10.00 -42.00 L11.00 -42.00 L11.00 -43.00 L10.00 -43.00 L10.00 -44.00 L9.00 -44.00 L9.00 -45.00 L10.00 -45.00 L10.00 -46.00 L11.00 -46.00 L11.00 -45.00 L12.00 -45.00 L12.00 -44.00 L13.00 -44.00 L13.00 -45.00 L14.00 -45.00 L14.00 -46.00 L15.00 -46.00 L15.00 -47.00 L14.00 -47.00 L14.00 -48.00 L13.00 -48.00 L13.00 -49.00 L12.00 -49.00 L12.00 -48.00 L11.00 -48.00 L11.00 -47.00 L10.00 -47.00 L10.00 -48.00 L9.00 -48.00 L9.00 -49.00 L10.00 -49.00 L10.00 -50.00 L11.00 -50.00 L11.00 -51.00 L10.00 -51.00 L10.00 -52.00 L9.00 -52.00 L9.00 -53.00 L8.00 -53.00 L8.00 -52.00 L7.00 -52.00 L7.00 -51.00 L6.00 -51.00 L6.00 -50.00 L7.00 -50.00 L7.00 -49.00 L8.00 -49.00 L8.00 -48.00 L7.00 -48.00 L7.00 -47.00 L6.00 -47.00 L6.00 -48.00 L5.00 -48.00 L5.00 -49.00 L4.00 -49.00 L4.00 -48.00 L3.00 -48.00 L3.00 -47.00 L2.00 -47.00 L2.00 -48.00 L1.00 -48.00 L1.00 -49.00 L2.00 -49.00 L2.00 -50.00 L3.00 -50.00 L3.00 -51.00 L2.00 -51.00 L2.00 -52.00 L1.00 -52.00 L1.00 -53.00 L2.00 -53.00 L2.00 -54.00 L3.00 -54.00 L3.00 -53.00 L4.00 -53.00 L4.00 -52.00 L5.00 -52.00 L5.00 -53.00 L6.00 -53.00 L6.00 -54.00 L7.00 -54.00 L7.00 -55.00 L6.00 -55.00 L6.00 -56.00 L5.00 -56.00 L5.00 -57.00 L4.00 -57.00 L4.00 -56.00 L3.00 -56.00 L3.00 -55.00 L2.00 -55.00 L2.00 -56.00 L1.00 -56.00 L1.00 -57.00 L2.00 -57.00 L2.00 -58.00 L3.00 -58.00 L3.00 -59.00 L2.00 -59.00 L2.00 -60.00 L1.00 -60.00 L1.00 -61.00 L0.00 -61.00 L-0.00 -60.00 L-1.00 -60.00 L-1.00 -59.00 L-2.00 -59.00 L-2.00 -58.00 L-1.00 -58.00 L-1.00 -57.00 L0.00 -57.00 L-0.00 -56.00 L-1.00 -56.00 L-1.00 -55.00 L-2.00 -55.00 L-2.00 -56.00 L-3.00 -56.00 L-3.00 -57.00 L-4.00 -57.00 L-4.00 -56.00 L-5.00 -56.00 L-5.00 -55.00 L-6.00 -55.00 L-6.00 -54.00 L-5.00 -54.00 L-5.00 -53.00 L-4.00 -53.00 L-4.00 -52.00 L-3.00 -52.00 L-3.00 -53.00 L-2.00 -53.00 L-2.00 -54.00 L-1.00 -54.00 L-1.00 -53.00 L0.00 -53.00 L-0.00 -52.00 L-1.00 -52.00 L-1.00 -51.00 L-2.00 -51.00 L-2.00 -50.00 L-1.00 -50.00 L-1.00 -49.00 L0.00 -49.00 L-0.00 -48.00 L-1.00 -48.00 L-1.00 -47.00 L-2.00 -47.00 L-2.00 -48.00 L-3.00 -48.00 L-3.00 -49.00 L-4.00 -49.00 L-4.00 -48.00 L-5.00 -48.00 L-5.00 -47.00 L-6.00 -47.00 L-6.00 -48.00 L-7.00 -48.00 L-7.00 -49.00 L-6.00 -49.00 L-6.00 -50.00 L-5.00 -50.00 L-5.00 -51.00 L-6.00 -51.00 L-6.00 -52.00 L-7.00 -52.00 L-7.00 -53.00 L-8.00 -53.00 L-8.00 -52.00 L-9.00 -52.00 L-9.00 -51.00 L-10.00 -51.00 L-10.00 -50.00 L-9.00 -50.00 L-9.00 -49.00 L-8.00 -49.00 L-8.00 -48.00 L-9.00 -48.00 L-9.00 -47.00 L-10.00 -47.00 L-10.00 -48.00 L-11.00 -48.00 L-11.00 -49.00 L-12.00 -49.00 L-12.00 -48.00 L-13.00 -48.00 L-13.00 -47.00 L-14.00 -47.00 L-14.00 -46.00 L-13.00 -46.00 L-13.00 -45.00 L-12.00 -45.00 L-12.00 -44.00 L-11.00 -44.00 L-11.00 -45.00 L-10.00 -45.00 L-10.00 -46.00 L-9.00 -46.00 L-9.00 -45.00 L-8.00 -45.00 L-8.00 -44.00 L-9.00 -44.00 L-9.00 -43.00 L-10.00 -43.00 L-10.00 -42.00 L-9.00 -42.00 L-9.00 -41.00 L-8.00 -41.00 L-8.00 -40.00 L-7.00 -40.00 L-7.00 -41.00 L-6.00 -41.00 L-6.00 -42.00 L-5.00 -42.00 L-5.00 -43.00 L-6.00 -43.00 L-6.00 -44.00 L-7.00 -44.00 L-7.00 -45.00 L-6.00 -45.00 L-6.00 -46.00 L-5.00 -46.00 L-5.00 -45.00 L-4.00 -45.00 L-4.00 -44.00 L-3.00 -44.00 L-3.00 -45.00 L-2.00 -45.00 L-2.00 -46.00 L-1.00 -46.00 L-1.00 -45.00 L0.00 -45.00 L-0.00 -44.00 L-1.00 -44.00 L-1.00 -43.00 L-2.00 -43.00 L-2.00 -42.00 L-1.00 -42.00 L-1.00 -41.00 L0.00 -41.00 L-0.00 -40.00 L-1.00 -40.00 L-1.00 -39.00 L-2.00 -39.00 L-2.00 -40.00 L-3.00 -40.00 L-3.00 -41.00 L-4.00 -41.00 L-4.00 -40.00 L-5.00 -40.00 L-5.00 -39.00 L-6.00 -39.00 L-6.00 -38.00 L-5.00 -38.00 L-5.00 -37.00 L-4.00 -37.00 L-4.00 -36.00 L-3.00 -36.00 L-3.00 -37.00 L-2.00 -37.00 L-2.00 -38.00 L-1.00 -38.00 L-1.00 -37.00 L0.00 -37.00 L-0.00 -36.00 L-1.00 -36.00 L-1.00 -35.00 L-2.00 -35.00 L-2.00 -34.00 L-1.00 -34.00 L-1.00 -33.00 L0.00 -33.00 L-0.00 -32.00 L-1.00 -32.00 L-1.00 -31.00 L-2.00 -31.00 L-2.00 -32.00 L-3.00 -32.00 L-3.00 -33.00 L-4.00 -33.00 L-4.00 -32.00 L-5.00 -32.00 L-5.00 -31.00 L-6.00 -31.00 L-6.00 -32.00 L-7.00 -32.00 L-7.00 -33.00 L-6.00 -33.00 L-6.00 -34.00 L-5.00 -34.00 L-5.00 -35.00 L-6.00 -35.00 L-6.00 -36.00 L-7.00 -36.00 L-7.00 -37.00 L-8.00 -37.00 L-8.00 -36.00 L-9.00 -36.00 L-9.00 -35.00 L-10.00 -35.00 L-10.00 -34.00 L-9.00 -34.00 L-9.00 -33.00 L-8.00 -33.00 L-8.00 -32.00 L-9.00 -32.00 L-9.00 -31.00 L-10.00 -31.00 L-10.00 -32.00 L-11.00 -32.00 L-11.00 -33.00 L-12.00 -33.00 L-12.00 -32.00 L-13.00 -32.00 L-13.00 -31.00 L-14.00 -31.00 L-14.00 -32.00 L-15.00 -32.00 L-15.00 -33.00 L-14.00 -33.00 L-14.00 -34.00 L-13.00 -34.00 L-13.00 -35.00 L-14.00 -35.00 L-14.00 -36.00 L-15.00 -36.00 L-15.00 -37.00 L-14.00 -37.00 L-14.00 -38.00 L-13.00 -38.00 L-13.00 -37.00 L-12.00 -37.00 L-12.00 -36.00 L-11.00 -36.00 L-11.00 -37.00 L-10.00 -37.00 L-10.00 -38.00 L-9.00 -38.00 L-9.00 -39.00 L-10.00 -39.00 L-10.00 -40.00 L-11.00 -40.00 L-11.00 -41.00 L-12.00 -41.00 L-12.00 -40.00 L-13.00 -40.00 L-13.00 -39.00 L-14.00 -39.00 L-14.00 -40.00 L-15.00 -40.00 L-15.00 -41.00 L-14.00 -41.00 L-14.00 -42.00 L-13.00 -42.00 L-13.00 -43.00 L-14.00 -43.00 L-14.00 -44.00 L-15.00 -44.00 L-15.00 -45.00 L-16.00 -45.00 L-16.00 -44.00 L-17.00 -44.00 L-17.00 -43.00 L-18.00 -43.00 L-18.00 -42.00 L-17.00 -42.00 L-17.00 -41.00 L-16.00 -41.00 L-16.00 -40.00 L-17.00 -40.00 L-17.00 -39.00 L-18.00 -39.00 L-18.00 -40.00 L-19.00 -40.00 L-19.00 -41.00 L-20.00 -41.00 L-20.00 -40.00 L-21.00 -40.00 L-21.00 -39.00 L-22.00 -39.00 L-22.00 -38.00 L-21.00 -38.00 L-21.00 -37.00 L-20.00 -37.00 L-20.00 -36.00 L-19.00 -36.00 L-19.00 -37.00 L-18.00 -37.00 L-18.00 -38.00 L-17.00 -38.00 L-17.00 -37.00 L-16.00 -37.00 L-16.00 -36.00 L-17.00 -36.00 L-17.00 -35.00 L-18.00 -35.00 L-18.00 -34.00 L-17.00 -34.00 L-17.00 -33.00 L-16.00 -33.00 L-16.00 -32.00 L-17.00 -32.00 L-17.00 -31.00 L-18.00 -31.00 L-18.00 -32.00 L-19.00 -32.00 L-19.00 -33.00 L-20.00 -33.00 L-20.00 -32.00 L-21.00 -32.00 L-21.00 -31.00 L-22.00 -31.00 L-22.00 -32.00 L-23.00 -32.00 L-23.00 -33.00 L-22.00 -33.00 L-22.00 -34.00 L-21.00 -34.00 L-21.00 -35.00 L-22.00 -35.00 L-22.00 -36.00 L-23.00 -36.00 L-23.00 -37.00 L-24.00 -37.00 L-24.00 -36.00 L-25.00 -36.00 L-25.00 -35.00 L-26.00 -35.00 L-26.00 -34.00 L-25.00 -34.00 L-25.00 -33.00 L-24.00 -33.00 L-24.00 -32.00 L-25.00 -32.00 L-25.00 -31.00 L-26.00 -31.00 L-26.00 -32.00 L-27.00 -32.00 L-27.00 -33.00 L-28.00 -33.00 L-28.00 -32.00 L-29.00 -32.00 L-29.00 -31.00 L-30.00 -31.00 L-30.00 -30.00 L-29.00 -30.00 L-29.00 -29.00 L-28.00 -29.00 L-28.00 -28.00 L-27.00 -28.00 L-27.00 -29.00 L-26.00 -29.00 L-26.00 -30.00 L-25.00 -30.00 L-25.00 -29.00 L-24.00 -29.00 L-24.00 -28.00 L-25.00 -28.00 L-25.00 -27.00 L-26.00 -27.00 L-26.00 -26.00 L-25.00 -26.00 L-25.00 -25.00 L-24.00 -25.00 L-24.00 -24.00 L-23.00 -24.00 L-23.00 -25.00 L-22.00 -25.00 L-22.00 -26.00 L-21.00 -26.00 L-21.00 -27.00 L-22.00 -27.00 L-22.00 -28.00 L-23.00 -28.00 L-23.00 -29.00 L-22.00 -29.00 L-22.00 -30.00 L-21.00 -30.00 L-21.00 -29.00 L-20.00 -29.00 L-20.00 -28.00 L-19.00 -28.00 L-19.00 -29.00 L-18.00 -29.00 L-18.00 -30.00 L-17.00 -30.00 L-17.00 -29.00 L-16.00 -29.00 L-16.00 -28.00 L-17.00 -28.00 L-17.00 -27.00 L-18.00 -27.00 L-18.00 -26.00 L-17.00 -26.00 L-17.00 -25.00 L-16.00 -25.00 L-16.00 -24.00 L-17.00 -24.00 L-17.00 -23.00 L-18.00 -23.00 L-18.00 -24.00 L-19.00 -24.00 L-19.00 -25.00 L-20.00 -25.00 L-20.00 -24.00 L-21.00 -24.00 L-21.00 -23.00 L-22.00 -23.00 L-22.00 -22.00 L-21.00 -22.00 L-21.00 -21.00 L-20.00 -21.00 L-20.00 -20.00 L-19.00 -20.00 L-19.00 -21.00 L-18.00 -21.00 L-18.00 -22.00 L-17.00 -22.00 L-17.00 -21.00 L-16.00 -21.00 L-16.00 -20.00 L-17.00 -20.00 L-17.00 -19.00 L-18.00 -19.00 L-18.00 -18.00 L-17.00 -18.00 L-17.00 -17.00 L-16.00 -17.00 L-16.00 -16.00 L-15.00 -16.00 L-15.00 -17.00 L-14.00 -17.00 L-14.00 -18.00 L-13.00 -18.00 L-13.00 -19.00 L-14.00 -19.00 L-14.00 -20.00 L-15.00 -20.00 L-15.00 -21.00 L-14.00 -21.00 L-14.00 -22.00 L-13.00 -22.00 L-13.00 -21.00 L-12.00 -21.00 L-12.00 -20.00 L-11.00 -20.00 L-11.00 -21.00 L-10.00 -21.00 L-10.00 -22.00 L-9.00 -22.00 L-9.00 -23.00 L-10.00 -23.00 L-10.00 -24.00 L-11.00 -24.00 L-11.00 -25.00 L-12.00 -25.00 L-12.00 -24.00 L-13.00 -24.00 L-13.00 -23.00 L-14.00 -23.00 L-14.00 -24.00 L-15.00 -24.00 L-15.00 -25.00 L-14.00 -25.00 L-14.00 -26.00 L-13.00 -26.00 L-13.00 -27.00 L-14.00 -27.00 L-14.00 -28.00 L-15.00 -28.00 L-15.00 -29.00 L-14.00 -29.00 L-14.00 -30.00 L-13.00 -30.00 L-13.00 -29.00 L-12.00 -29.00 L-12.00 -28.00 L-11.00 -28.00 L-11.00 -29.00 L-10.00 -29.00 L-10.00 -30.00 L-9.00 -30.00 L-9.00 -29.00 L-8.00 -29.00 L-8.00 -28.00 L-9.00 -28.00 L-9.00 -27.00 L-10.00 -27.00 L-10.00 -26.00 L-9.00 -26.00 L-9.00 -25.00 L-8.00 -25.00 L-8.00 -24.00 L-7.00 -24.00 L-7.00 -25.00 L-6.00 -25.00 L-6.00 -26.00 L-5.00 -26.00 L-5.00 -27.00 L-6.00 -27.00 L-6.00 -28.00 L-7.00 -28.00 L-7.00 -29.00 L-6.00 -29.00 L-6.00 -30.00 L-5.00 -30.00 L-5.00 -29.00 L-4.00 -29.00 L-4.00 -28.00 L-3.00 -28.00 L-3.00 -29.00 L-2.00 -29.00 L-2.00 -30.00 L-1.00 -30.00 L-1.00 -29.00 L0.00 -29.00 L-0.00 -28.00 L-1.00 -28.00 L-1.00 -27.00 L-2.00 -27.00 L-2.00 -26.00 L-1.00 -26.00 L-1.00 -25.00 L0.00 -25.00 L-0.00 -24.00 L-1.00 -24.00 L-1.00 -23.00 L-2.00 -23.00 L-2.00 -24.00 L-3.00 -24.00 L-3.00 -25.00 L-4.00 -25.00 L-4.00 -24.00 L-5.00 -24.00 L-5.00 -23.00 L-6.00 -23.00 L-6.00 -22.00 L-5.00 -22.00 L-5.00 -21.00 L-4.00 -21.00 L-4.00 -20.00 L-3.00 -20.00 L-3.00 -21.00 L-2.00 -21.00 L-2.00 -22.00 L-1.00 -22.00 L-1.00 -21.00 L0.00 -21.00 L-0.00 -20.00 L-1.00 -20.00 L-1.00 -19.00 L-2.00 -19.00 L-2.00 -18.00 L-1.00 -18.00 L-1.00 -17.00 L0.00 -17.00 L-0.00 -16.00 L-1.00 -16.00 L-1.00 -15.00 L-2.00 -15.00 L-2.00 -16.00 L-3.00 -16.00 L-3.00 -17.00 L-4.00 -17.00 L-4.00 -16.00 L-5.00 -16.00 L-5.00 -15.00 L-6.00 -15.00 L-6.00 -16.00 L-7.00 -16.00 L-7.00 -17.00 L-6.00 -17.00 L-6.00 -18.00 L-5.00 -18.00 L-5.00 -19.00 L-6.00 -19.00 L-6.00 -20.00 L-7.00 -20.00 L-7.00 -21.00 L-8.00 -21.00 L-8.00 -20.00 L-9.00 -20.00 L-9.00 -19.00 L-10.00 -19.00 L-10.00 -18.00 L-9.00 -18.00 L-9.00 -17.00 L-8.00 -17.00 L-8.00 -16.00 L-9.00 -16.00 L-9.00 -15.00 L-10.00 -15.00 L-10.00 -16.00 L-11.00 -16.00 L-11.00 -17.00 L-12.00 -17.00 L-12.00 -16.00 L-13.00 -16.00 L-13.00 -15.00 L-14.00 -15.00 L-14.00 -14.00 L-13.00 -14.00 L-13.00 -13.00 L-12.00 -13.00 L-12.00 -12.00 L-11.00 -12.00 L-11.00 -13.00 L-10.00 -13.00 L-10.00 -14.00 L-9.00 -14.00 L-9.00 -13.00 L-8.00 -13.00 L-8.00 -12.00 L-9.00 -12.00 L-9.00 -11.00 L-10.00 -11.00 L-10.00 -10.00 L-9.00 -10.00 L-9.00 -9.00 L-8.00 -9.00 L-8.00 -8.00 L-7.00 -8.00 L-7.00 -9.00 L-6.00 -9.00 L-6.00 -10.00 L-5.00 -10.00 L-5.00 -11.00 L-6.00 -11.00 L-6.00 -12.00 L-7.00 -12.00 L-7.00 -13.00 L-6.00 -13.00 L-6.00 -14.00 L-5.00 -14.00 L-5.00 -13.00 L-4.00 -13.00 L-4.00 -12.00 L-3.00 -12.00 L-3.00 -13.00 L-2.00 -13.00 L-2.00 -14.00 L-1.00 -14.00 L-1.00 -13.00 L0.00 -13.00 L-0.00 -12.00 L-1.00 -12.00 L-1.00 -11.00 L-2.00 -11.00 L-2.00 -10.00 L-1.00 -10.00 L-1.00 -9.00 L0.00 -9.00 L-0.00 -8.00 L-1.00 -8.00 L-1.00 -7.00 L-2.00 -7.00 L-2.00 -8.00 L-3.00 -8.00 L-3.00 -9.00 L-4.00 -9.00 L-4.00 -8.00 L-5.00 -8.00 L-5.00 -7.00 L-6.00 -7.00 L-6.00 -6.00 L-5.00 -6.00 L-5.00 -5.00 L-4.00 -5.00 L-4.00 -4.00 L-3.00 -4.00 L-3.00 -5.00 L-2.00 -5.00 L-2.00 -6.00 L-1.00 -6.00 L-1.00 -5.00 L0.00 -5.00 L-0.00 -4.00 L-1.00 -4.00 L-1.00 -3.00 L-2.00 -3.00 L-2.00 -2.00 L-1.00 -2.00 L-1.00 -1.00 L0.00 -1.00 L-0.00 0.00 "/>
</g>
</svg>

