<svg viewBox="0 0 400.000000 1163.656982" xmlns="http://www.w3.org/2000/svg" version="1.1">
<!-- SEED 50927578 -->
<rect width="400.000000" height="1163.656982" fill="#DDFFAA" fill-opacity="1.000000"/>
<g transform="scale(10.919789,12.773403) translate(16.460693,86.050003) ">
<path stroke="#000000" stroke-opacity="1.000000" stroke-width="0.200000" fill="none" fill-opacity="1" d="M0.00 0.00 L-0.00 -1.00 L-0.00 -2.00 L-0.00 -3.00 L-0.00 -4.00 L-0.00 -5.00 L-0.00 -6.00 L-0.00 -7.00 L-0.00 -8.00 L-0.00 -9.00 L-0.00 -10.00 L-0.00 -11.00 L-0.00 -12.00 L-0.00 -13.00 L-0.00 -14.00 L-0.00 -15.00 L-0.00 -16.00 L-0.00 -17.00 L-0.00 -18.00 L-0.00 -19.00 L-0.00 -20.00 L-0.00 -21.00 L-0.00 -22.00 L-0.00 -23.00 L-0.00 -24.00 L-0.00 -25.00 L-0.00 -26.00 L-0.00 -27.00 L-0.00 -28.00 L-0.00 -29.00 L-0.00 -30.00 L-0.00 -31.00 L-0.00 -32.00 L-0.00 -33.00 L-0.00 -34.00 L-0.00 -35.00 L-0.00 -36.00 L-0.00 -37.00 L-0.00 -38.00 L-0.00 -39.00 L-0.00 -40.00 L-0.00 -41.00 L-0.00 -42.00 L-0.00 -43.00 L-0.00 -44.00 L-0.00 -45.00 L-0.00 -46.00 L-0.00 -47.00 L-0.00 -48.00 L-0.00 -49.00 L-0.00 -50.00 L-0.00 -51.00 L-0.00 -52.00 L-0.00 -53.00 L-0.00 -54.00 L-0.00 -55.00 L-0.00 -56.00 L-0.00 -57.00 L-0.00 -58.00 L-0.00 -59.00 L-0.00 -60.00 L-0.00 -61.00 L-0.00 -62.00 L-0.00 -63.00 L-0.00 -64.00 L-0.00 -65.00 L-0.00 -66.00 L-0.00 -67.00 L-0.00 -68.00 L-0.00 -69.00 L-0.00 -70.00 L-0.00 -71.00 L-0.00 -72.00 L-0.00 -73.00 L-0.00 -74.00 L-0.00 -75.00 L-0.00 -76.00 L-0.00 -77.00 L-0.00 -78.00 L-0.00 -79.00 L-0.00 -80.00 L-0.00 -81.00 "/>
<path stroke="#000000" stroke-opacity="1.000000" stroke-width="0.200000" fill="none" fill-opacity="1" d="M-0.00 -1.00 L-0.42 -1.91 "/>
<path stroke="#000000" stroke-opacity="1.000000" stroke-width="0.200000" fill="none" fill-opacity="1" d="M-0.00 -2.00 L0.42 -2.91 "/>
<path stroke="#000000" stroke-opacity="1.000000" stroke-width="0.200000" fill="none" fill-opacity="1" d="M-0.00 -3.00 L-0.42 -3.91 L-0.85 -4.81 L-1.27 -5.72 "/>
<path stroke="#000000" stroke-opacity="1.000000" stroke-width="0.200000" fill="none" fill-opacity="1" d="M-0.42 -3.91 L-1.19 -4.55 "/>
<path stroke="#000000" stroke-opacity="1.000000" stroke-width="0.200000" fill="none" fill-opacity="1" d="M-0.85 -4.81 L-0.85 -5.81 "/>
<path stroke="#000000" stroke-opacity="1.000000" stroke-width="0.200000" fill="none" fill-opacity="1" d="M-0.00 -4.00 L-0.42 -4.91 "/>
<path stroke="#000000" stroke-opacity="1.000000" stroke-width="0.200000" fill="none" fill-opacity="1" d="M-0.00 -5.00 L0.42 -5.91 "/>
<path stroke="#000000" stroke-opacity="1.000000" stroke-width="0.200000" fill="none" fill-opacity="1" d="M-0.00 -6.00 L0.42 -6.91 L0.85 -7.81 L1.27 -8.72 "/>
<path stroke="#000000" stroke-opacity="1.000000" stroke-width="0.200000" fill="none" fill-opacity="1" d="M0.42 -6.91 L0.42 -7.91 "/>
<path stroke="#000000" stroke-opacity="1.000000" stroke-width="0.200000" fill="none" fill-opacity="1" d="M0.85 -7.81 L1.61 -8.46 "/>
<path stroke="#000000" stroke-opacity="1.000000" stroke-width="0.200000" fill="none" fill-opacity="1" d="M-0.00 -7.00 L-0.42 -7.91 "/>
<path stroke="#000000" stroke-opacity="1.000000" stroke-width="0.200000" fill="none" fill-opacity="1" d="M-0.00 -8.00 L0.42 -8.91 "/>
<path stroke="#000000" stroke-opacity="1.000000" stroke-width="0.200000" fill="none" fill-opacity="1" d="M-0.00 -9.00 L-0.42 -9.91 L-0.85 -10.81 L-1.27 -11.72 L-1.69 -12.63 L-2.11 -13.53 L-2.54 -14.44 L-2.96 -15.34 L-3.38 -16.25 L-3.80 -17.16 "/>
<path stroke="#000000" stroke-opacity="1.000000" stroke-width="0.200000" fill="none" fill-opacity="1" d="M-0.42 -9.91 L-1.19 -10.55 "/>
<path stroke="#000000" stroke-opacity="1.000000" stroke-width="0.200000" fill="none" fill-opacity="1" d="M-0.85 -10.81 L-0.85 -11.81 "/>
<path stroke="#000000" stroke-opacity="1.000000" stroke-width="0.200000" fill="none" fill-opacity="1" d="M-1.27 -11.72 L-2.03 -12.36 L-2.80 -13.00 L-3.57 -13.65 "/>
<path stroke="#000000" stroke-opacity="1.000000" stroke-width="0.200000" fill="none" fill-opacity="1" d="M-2.03 -12.36 L-3.00 -12.62 "/>
<path stroke="#000000" stroke-opacity="1.000000" stroke-width="0.200000" fill="none" fill-opacity="1" d="M-2.80 -13.00 L-3.22 -13.91 "/>
<path stroke="#000000" stroke-opacity="1.000000" stroke-width="0.200000" fill="none" fill-opacity="1" d="M-1.69 -12.63 L-2.46 -13.27 "/>
<path stroke="#000000" stroke-opacity="1.000000" stroke-width="0.200000" fill="none" fill-opacity="1" d="M-2.11 -13.53 L-2.11 -14.53 "/>
<path stroke="#000000" stroke-opacity="1.000000" stroke-width="0.200000" fill="none" fill-opacity="1" d="M-2.54 -14.44 L-2.54 -15.44 L-2.54 -16.44 L-2.54 -17.44 "/>
<path stroke="#000000" stroke-opacity="1.000000" stroke-width="0.200000" fill="none" fill-opacity="1" d="M-2.54 -15.44 L-2.96 -16.34 "/>
<path stroke="#000000" stroke-opacity="1.000000" stroke-width="0.200000" fill="none" fill-opacity="1" d="M-2.54 -16.44 L-2.11 -17.34 "/>
<path stroke="#000000" stroke-opacity="1.000000" stroke-width="0.200000" fill="none" fill-opacity="1" d="M-2.96 -15.34 L-3.72 -15.99 "/>
<path stroke="#000000" stroke-opacity="1.000000" stroke-width="0.200000" fill="none" fill-opacity="1" d="M-3.38 -16.25 L-3.38 -17.25 "/>
<path stroke="#000000" stroke-opacity="1.000000" stroke-width="0.200000" fill="none" fill-opacity="1" d="M-0.00 -10.00 L-0.42 -10.91 "/>
<path stroke="#000000" stroke-opacity="1.000000" stroke-width="0.200000" fill="none" fill-opacity="1" d="M-0.00 -11.00 L0.42 -11.91 "/>
<path stroke="#000000" stroke-opacity="1.000000" stroke-width="0.200000" fill="none" fill-opacity="1" d="M-0.00 -12.00 L-0.42 -12.91 L-0.85 -13.81 L-1.27 -14.72 "/>
<path stroke="#000000" stroke-opacity="1.000000" stroke-width="0.200000" fill="none" fill-opacity="1" d="M-0.42 -12.91 L-1.19 -13.55 "/>
<path stroke="#000000" stroke-opacity="1.000000" stroke-width="0.200000" fill="none" fill-opacity="1" d="M-0.85 -13.81 L-0.85 -14.81 "/>
<path stroke="#000000" stroke-opacity="1.000000" stroke-width="0.200000" fill="none" fill-opacity="1" d="M-0.00 -13.00 L-0.42 -13.91 "/>
<path stroke="#000000" stroke-opacity="1.000000" stroke-width="0.200000" fill="none" fill-opacity="1" d="M-0.00 -14.00 L0.42 -14.91 "/>
<path stroke="#000000" stroke-opacity="1.000000" stroke-width="0.200000" fill="none" fill-opacity="1" d="M-0.00 -15.00 L0.42 -15.91 L0.85 -16.81 L1.27 -17.72 "/>
<path stroke="#000000" stroke-opacity="1.000000" stroke-width="0.200000" fill="none" fill-opacity="1" d="M0.42 -15.91 L0.42 -16.91 "/>
<path stroke="#000000" stroke-opacity="1.000000" stroke-width="0.200000" fill="none" fill-opacity="1" d="M0.85 -16.81 L1.61 -17.46 "/>
<path stroke="#000000" stroke-opacity="1.000000" stroke-width="0.200000" fill="none" fill-opacity="1" d="M-0.00 -16.00 L-0.42 -16.91 "/>
<path stroke="#000000" stroke-opacity="1.000000" stroke-width="0.200000" fill="none" fill-opacity="1" d="M-0.00 -17.00 L0.42 -17.91 "/>
<path stroke="#000000" stroke-opacity="1.000000" stroke-width="0.200000" fill="none" fill-opacity="1" d="M-0.00 -18.00 L0.42 -18.91 L0.85 -19.81 L1.27 -20.72 L1.69 -21.63 L2.11 -22.53 L2.54 -23.44 L2.96 -24.34 L3.38 -25.25 L3.80 -26.16 "/>
<path stroke="#000000" stroke-opacity="1.000000" stroke-width="0.200000" fill="none" fill-opacity="1" d="M0.42 -18.91 L0.42 -19.91 "/>
<path stroke="#000000" stroke-opacity="1.000000" stroke-width="0.200000" fill="none" fill-opacity="1" d="M0.85 -19.81 L1.61 -20.46 "/>
<path stroke="#000000" stroke-opacity="1.000000" stroke-width="0.200000" fill="none" fill-opacity="1" d="M1.27 -20.72 L1.27 -21.72 L1.27 -22.72 L1.27 -23.72 "/>
<path stroke="#000000" stroke-opacity="1.000000" stroke-width="0.200000" fill="none" fill-opacity="1" d="M1.27 -21.72 L0.85 -22.63 "/>
<path stroke="#000000" stroke-opacity="1.000000" stroke-width="0.200000" fill="none" fill-opacity="1" d="M1.27 -22.72 L1.69 -23.63 "/>
<path stroke="#000000" stroke-opacity="1.000000" stroke-width="0.200000" fill="none" fill-opacity="1" d="M1.69 -21.63 L1.69 -22.63 "/>
<path stroke="#000000" stroke-opacity="1.000000" stroke-width="0.200000" fill="none" fill-opacity="1" d="M2.11 -22.53 L2.88 -23.17 "/>
<path stroke="#000000" stroke-opacity="1.000000" stroke-width="0.200000" fill="none" fill-opacity="1" d="M2.54 -23.44 L3.30 -24.08 L4.07 -24.72 L4.83 -25.37 "/>
<path stroke="#000000" stroke-opacity="1.000000" stroke-width="0.200000" fill="none" fill-opacity="1" d="M3.30 -24.08 L3.72 -24.99 "/>
<path stroke="#000000" stroke-opacity="1.000000" stroke-width="0.200000" fill="none" fill-opacity="1" d="M4.07 -24.72 L5.03 -24.98 "/>
<path stroke="#000000" stroke-opacity="1.000000" stroke-width="0.200000" fill="none" fill-opacity="1" d="M2.96 -24.34 L2.96 -25.34 "/>
<path stroke="#000000" stroke-opacity="1.000000" stroke-width="0.200000" fill="none" fill-opacity="1" d="M3.38 -25.25 L4.15 -25.89 "/>
<path stroke="#000000" stroke-opacity="1.000000" stroke-width="0.200000" fill="none" fill-opacity="1" d="M-0.00 -19.00 L-0.42 -19.91 "/>
<path stroke="#000000" stroke-opacity="1.000000" stroke-width="0.200000" fill="none" fill-opacity="1" d="M-0.00 -20.00 L0.42 -20.91 "/>
<path stroke="#000000" stroke-opacity="1.000000" stroke-width="0.200000" fill="none" fill-opacity="1" d="M-0.00 -21.00 L-0.42 -21.91 L-0.85 -22.81 L-1.27 -23.72 "/>
<path stroke="#000000" stroke-opacity="1.000000" stroke-width="0.200000" fill="none" fill-opacity="1" d="M-0.42 -21.91 L-1.19 -22.55 "/>
<path stroke="#000000" stroke-opacity="1.000000" stroke-width="0.200000" fill="none" fill-opacity="1" d="M-0.85 -22.81 L-0.85 -23.81 "/>
<path stroke="#000000" stroke-opacity="1.000000" stroke-width="0.200000" fill="none" fill-opacity="1" d="M-0.00 -22.00 L-0.42 -22.91 "/>
<path stroke="#000000" stroke-opacity="1.000000" stroke-width="0.200000" fill="none" fill-opacity="1" d="M-0.00 -23.00 L0.42 -23.91 "/>
<path stroke="#000000" stroke-opacity="1.000000" stroke-width="0.200000" fill="none" fill-opacity="1" d="M-0.00 -24.00 L0.42 -24.91 L0.85 -25.81 L1.27 -26.72 "/>
<path stroke="#000000" stroke-opacity="1.000000" stroke-width="0.200000" fill="none" fill-opacity="1" d="M0.42 -24.91 L0.42 -25.91 "/>
<path stroke="#000000" stroke-opacity="1.000000" stroke-width="0.200000" fill="none" fill-opacity="1" d="M0.85 -25.81 L1.61 -26.46 "/>
<path stroke="#000000" stroke-opacity="1.000000" stroke-width="0.200000" fill="none" fill-opacity="1" d="M-0.00 -25.00 L-0.42 -25.91 "/>
<path stroke="#000000" stroke-opacity="1.000000" stroke-width="0.200000" fill="none" fill-opacity="1" d="M-0.00 -26.00 L0.42 -26.91 "/>
<path stroke="#000000" stroke-opacity="1.000000" stroke-width="0.200000" fill="none" fill-opacity="1" d="M-0.00 -27.00 L-0.42 -27.91 L-0.85 -28.81 L-1.27 -29.72 L-1.69 -30.63 L-2.11 -31.53 L-2.54 -32.44 L-2.96 -33.34 L-3.38 -34.25 L-3.80 -35.16 L-4.23 -36.06 L-4.65 -36.97 L-5.07 -37.88 L-5.49 -38.78 L-5.92 -39.69 L-6.34 -40.59 L-6.76 -41.50 L-7.18 -42.41 L-7.61 -43.31 L-8.03 -44.22 L-8.45 -45.13 L-8.87 -46.03 L-9.30 -46.94 L-9.72 -47.85 L-10.14 -48.75 L-10.57 -49.66 L-10.99 -50.56 L-11.41 -51.47 "/>
<path stroke="#000000" stroke-opacity="1.000000" stroke-width="0.200000" fill="none" fill-opacity="1" d="M-0.42 -27.91 L-1.19 -28.55 "/>
<path stroke="#000000" stroke-opacity="1.000000" stroke-width="0.200000" fill="none" fill-opacity="1" d="M-0.85 -28.81 L-0.85 -29.81 "/>
<path stroke="#000000" stroke-opacity="1.000000" stroke-width="0.200000" fill="none" fill-opacity="1" d="M-1.27 -29.72 L-2.03 -30.36 L-2.80 -31.00 L-3.57 -31.65 "/>
<path stroke="#000000" stroke-opacity="1.000000" stroke-width="0.200000" fill="none" fill-opacity="1" d="M-2.03 -30.36 L-3.00 -30.62 "/>
<path stroke="#000000" stroke-opacity="1.000000" stroke-width="0.200000" fill="none" fill-opacity="1" d="M-2.80 -31.00 L-3.22 -31.91 "/>
<path stroke="#000000" stroke-opacity="1.000000" stroke-width="0.200000" fill="none" fill-opacity="1" d="M-1.69 -30.63 L-2.46 -31.27 "/>
<path stroke="#000000" stroke-opacity="1.000000" stroke-width="0.200000" fill="none" fill-opacity="1" d="M-2.11 -31.53 L-2.11 -32.53 "/>
<path stroke="#000000" stroke-opacity="1.000000" stroke-width="0.200000" fill="none" fill-opacity="1" d="M-2.54 -32.44 L-2.54 -33.44 L-2.54 -34.44 L-2.54 -35.44 "/>
<path stroke="#000000" stroke-opacity="1.000000" stroke-width="0.200000" fill="none" fill-opacity="1" d="M-2.54 -33.44 L-2.96 -34.34 "/>
<path stroke="#000000" stroke-opacity="1.000000" stroke-width="0.200000" fill="none" fill-opacity="1" d="M-2.54 -34.44 L-2.11 -35.34 "/>
<path stroke="#000000" stroke-opacity="1.000000" stroke-width="0.200000" fill="none" fill-opacity="1" d="M-2.96 -33.34 L-3.72 -33.99 "/>
<path stroke="#000000" stroke-opacity="1.000000" stroke-width="0.200000" fill="none" fill-opacity="1" d="M-3.38 -34.25 L-3.38 -35.25 "/>
<path stroke="#000000" stroke-opacity="1.000000" stroke-width="0.200000" fill="none" fill-opacity="1" d="M-3.80 -35.16 L-4.57 -35.80 L-5.34 -36.44 L-6.10 -37.09 L-6.87 -37.73 L-7.63 -38.37 L-8.40 -39.01 L-9.17 -39.66 L-9.93 -40.30 L-10.70 -40.94 "/>
<path stroke="#000000" stroke-opacity="1.000000" stroke-width="0.200000" fill="none" fill-opacity="1" d="M-4.57 -35.80 L-5.54 -36.06 "/>
<path stroke="#000000" stroke-opacity="1.000000" stroke-width="0.200000" fill="none" fill-opacity="1" d="M-5.34 -36.44 L-5.76 -37.35 "/>
<path stroke="#000000" stroke-opacity="1.000000" stroke-width="0.200000" fill="none" fill-opacity="1" d="M-6.10 -37.09 L-7.07 -37.34 L-8.03 -37.60 L-9.00 -37.86 "/>
<path stroke="#000000" stroke-opacity="1.000000" stroke-width="0.200000" fill="none" fill-opacity="1" d="M-7.07 -37.34 L-8.05 -37.17 "/>
<path stroke="#000000" stroke-opacity="1.000000" stroke-width="0.200000" fill="none" fill-opacity="1" d="M-8.03 -37.60 L-8.80 -38.25 "/>
<path stroke="#000000" stroke-opacity="1.000000" stroke-width="0.200000" fill="none" fill-opacity="1" d="M-6.87 -37.73 L-7.83 -37.99 "/>
<path stroke="#000000" stroke-opacity="1.000000" stroke-width="0.200000" fill="none" fill-opacity="1" d="M-7.63 -38.37 L-8.06 -39.28 "/>
<path stroke="#000000" stroke-opacity="1.000000" stroke-width="0.200000" fill="none" fill-opacity="1" d="M-8.40 -39.01 L-8.82 -39.92 L-9.25 -40.83 L-9.67 -41.73 "/>
<path stroke="#000000" stroke-opacity="1.000000" stroke-width="0.200000" fill="none" fill-opacity="1" d="M-8.82 -39.92 L-9.59 -40.56 "/>
<path stroke="#000000" stroke-opacity="1.000000" stroke-width="0.200000" fill="none" fill-opacity="1" d="M-9.25 -40.83 L-9.25 -41.83 "/>
<path stroke="#000000" stroke-opacity="1.000000" stroke-width="0.200000" fill="none" fill-opacity="1" d="M-9.17 -39.66 L-10.13 -39.92 "/>
<path stroke="#000000" stroke-opacity="1.000000" stroke-width="0.200000" fill="none" fill-opacity="1" d="M-9.93 -40.30 L-10.35 -41.21 "/>
<path stroke="#000000" stroke-opacity="1.000000" stroke-width="0.200000" fill="none" fill-opacity="1" d="M-4.23 -36.06 L-4.99 -36.71 "/>
<path stroke="#000000" stroke-opacity="1.000000" stroke-width="0.200000" fill="none" fill-opacity="1" d="M-4.65 -36.97 L-4.65 -37.97 "/>
<path stroke="#000000" stroke-opacity="1.000000" stroke-width="0.200000" fill="none" fill-opacity="1" d="M-5.07 -37.88 L-5.84 -38.52 L-6.60 -39.16 L-7.37 -39.80 "/>
<path stroke="#000000" stroke-opacity="1.000000" stroke-width="0.200000" fill="none" fill-opacity="1" d="M-5.84 -38.52 L-6.80 -38.78 "/>
<path stroke="#000000" stroke-opacity="1.000000" stroke-width="0.200000" fill="none" fill-opacity="1" d="M-6.60 -39.16 L-7.03 -40.07 "/>
<path stroke="#000000" stroke-opacity="1.000000" stroke-width="0.200000" fill="none" fill-opacity="1" d="M-5.49 -38.78 L-6.26 -39.42 "/>
<path stroke="#000000" stroke-opacity="1.000000" stroke-width="0.200000" fill="none" fill-opacity="1" d="M-5.92 -39.69 L-5.92 -40.69 "/>
<path stroke="#000000" stroke-opacity="1.000000" stroke-width="0.200000" fill="none" fill-opacity="1" d="M-6.34 -40.59 L-6.34 -41.59 L-6.34 -42.59 L-6.34 -43.59 "/>
<path stroke="#000000" stroke-opacity="1.000000" stroke-width="0.200000" fill="none" fill-opacity="1" d="M-6.34 -41.59 L-6.76 -42.50 "/>
<path stroke="#000000" stroke-opacity="1.000000" stroke-width="0.200000" fill="none" fill-opacity="1" d="M-6.34 -42.59 L-5.92 -43.50 "/>
<path stroke="#000000" stroke-opacity="1.000000" stroke-width="0.200000" fill="none" fill-opacity="1" d="M-6.76 -41.50 L-7.53 -42.14 "/>
<path stroke="#000000" stroke-opacity="1.000000" stroke-width="0.200000" fill="none" fill-opacity="1" d="M-7.18 -42.41 L-7.18 -43.41 "/>
<path stroke="#000000" stroke-opacity="1.000000" stroke-width="0.200000" fill="none" fill-opacity="1" d="M-7.61 -43.31 L-7.61 -44.31 L-7.61 -45.31 L-7.61 -46.31 L-7.61 -47.31 L-7.61 -48.31 L-7.61 -49.31 L-7.61 -50.31 L-7.61 -51.31 L-7.61 -52.31 "/>
<path stroke="#000000" stroke-opacity="1.000000" stroke-width="0.200000" fill="none" fill-opacity="1" d="M-7.61 -44.31 L-8.03 -45.22 "/>
<path stroke="#000000" stroke-opacity="1.000000" stroke-width="0.200000" fill="none" fill-opacity="1" d="M-7.61 -45.31 L-7.18 -46.22 "/>
<path stroke="#000000" stroke-opacity="1.000000" stroke-width="0.200000" fill="none" fill-opacity="1" d="M-7.61 -46.31 L-8.03 -47.22 L-8.45 -48.13 L-8.87 -49.03 "/>
<path stroke="#000000" stroke-opacity="1.000000" stroke-width="0.200000" fill="none" fill-opacity="1" d="M-8.03 -47.22 L-8.80 -47.86 "/>
<path stroke="#000000" stroke-opacity="1.000000" stroke-width="0.200000" fill="none" fill-opacity="1" d="M-8.45 -48.13 L-8.45 -49.13 "/>
<path stroke="#000000" stroke-opacity="1.000000" stroke-width="0.200000" fill="none" fill-opacity="1" d="M-7.61 -47.31 L-8.03 -48.22 "/>
<path stroke="#000000" stroke-opacity="1.000000" stroke-width="0.200000" fill="none" fill-opacity="1" d="M-7.61 -48.31 L-7.18 -49.22 "/>
<path stroke="#000000" stroke-opacity="1.000000" stroke-width="0.200000" fill="none" fill-opacity="1" d="M-7.61 -49.31 L-7.18 -50.22 L-6.76 -51.13 L-6.34 -52.03 "/>
<path stroke="#000000" stroke-opacity="1.000000" stroke-width="0.200000" fill="none" fill-opacity="1" d="M-7.18 -50.22 L-7.18 -51.22 "/>
<path stroke="#000000" stroke-opacity="1.000000" stroke-width="0.200000" fill="none" fill-opacity="1" d="M-6.76 -51.13 L-6.00 -51.77 "/>
<path stroke="#000000" stroke-opacity="1.000000" stroke-width="0.200000" fill="none" fill-opacity="1" d="M-7.61 -50.31 L-8.03 -51.22 "/>
<path stroke="#000000" stroke-opacity="1.000000" stroke-width="0.200000" fill="none" fill-opacity="1" d="M-7.61 -51.31 L-7.18 -52.22 "/>
<path stroke="#000000" stroke-opacity="1.000000" stroke-width="0.200000" fill="none" fill-opacity="1" d="M-8.03 -44.22 L-8.80 -44.86 "/>
<path stroke="#000000" stroke-opacity="1.000000" stroke-width="0.200000" fill="none" fill-opacity="1" d="M-8.45 -45.13 L-8.45 -46.13 "/>
<path stroke="#000000" stroke-opacity="1.000000" stroke-width="0.200000" fill="none" fill-opacity="1" d="M-8.87 -46.03 L-9.64 -46.68 L-10.41 -47.32 L-11.17 -47.96 "/>
<path stroke="#000000" stroke-opacity="1.000000" stroke-width="0.200000" fill="none" fill-opacity="1" d="M-9.64 -46.68 L-10.61 -46.93 "/>
<path stroke="#000000" stroke-opacity="1.000000" stroke-width="0.200000" fill="none" fill-opacity="1" d="M-10.41 -47.32 L-10.83 -48.22 "/>
<path stroke="#000000" stroke-opacity="1.000000" stroke-width="0.200000" fill="none" fill-opacity="1" d="M-9.30 -46.94 L-10.06 -47.58 "/>
<path stroke="#000000" stroke-opacity="1.000000" stroke-width="0.200000" fill="none" fill-opacity="1" d="M-9.72 -47.85 L-9.72 -48.85 "/>
<path stroke="#000000" stroke-opacity="1.000000" stroke-width="0.200000" fill="none" fill-opacity="1" d="M-10.14 -48.75 L-10.14 -49.75 L-10.14 -50.75 L-10.14 -51.75 "/>
<path stroke="#000000" stroke-opacity="1.000000" stroke-width="0.200000" fill="none" fill-opacity="1" d="M-10.14 -49.75 L-10.57 -50.66 "/>
<path stroke="#000000" stroke-opacity="1.000000" stroke-width="0.200000" fill="none" fill-opacity="1" d="M-10.14 -50.75 L-9.72 -51.66 "/>
<path stroke="#000000" stroke-opacity="1.000000" stroke-width="0.200000" fill="none" fill-opacity="1" d="M-10.57 -49.66 L-11.33 -50.30 "/>
<path stroke="#000000" stroke-opacity="1.000000" stroke-width="0.200000" fill="none" fill-opacity="1" d="M-10.99 -50.56 L-10.99 -51.56 "/>
<path stroke="#000000" stroke-opacity="1.000000" stroke-width="0.200000" fill="none" fill-opacity="1" d="M-0.00 -28.00 L-0.42 -28.91 "/>
<path stroke="#000000" stroke-opacity="1.000000" stroke-width="0.200000" fill="none" fill-opacity="1" d="M-0.00 -29.00 L0.42 -29.91 "/>
<path stroke="#000000" stroke-opacity="1.000000" stroke-width="0.200000" fill="none" fill-opacity="1" d="M-0.00 -30.00 L-0.42 -30.91 L-0.85 -31.81 L-1.27 -32.72 "/>
<path stroke="#000000" stroke-opacity="1.000000" stroke-width="0.200000" fill="none" fill-opacity="1" d="M-0.42 -30.91 L-1.19 -31.55 "/>
<path stroke="#000000" stroke-opacity="1.000000" stroke-width="0.200000" fill="none" fill-opacity="1" d="M-0.85 -31.81 L-0.85 -32.81 "/>
<path stroke="#000000" stroke-opacity="1.000000" stroke-width="0.200000" fill="none" fill-opacity="1" d="M-0.00 -31.00 L-0.42 -31.91 "/>
<path stroke="#000000" stroke-opacity="1.000000" stroke-width="0.200000" fill="none" fill-opacity="1" d="M-0.00 -32.00 L0.42 -32.91 "/>
<path stroke="#000000" stroke-opacity="1.000000" stroke-width="0.200000" fill="none" fill-opacity="1" d="M-0.00 -33.00 L0.42 -33.91 L0.85 -34.81 L1.27 -35.72 "/>
<path stroke="#000000" stroke-opacity="1.000000" stroke-width="0.200000" fill="none" fill-opacity="1" d="M0.42 -33.91 L0.42 -34.91 "/>
<path stroke="#000000" stroke-opacity="1.000000" stroke-width="0.200000" fill="none" fill-opacity="1" d="M0.85 -34.81 L1.61 -35.46 "/>
<path stroke="#000000" stroke-opacity="1.000000" stroke-width="0.200000" fill="none" fill-opacity="1" d="M-0.00 -34.00 L-0.42 -34.91 "/>
<path stroke="#000000" stroke-opacity="1.000000" stroke-width="0.200000" fill="none" fill-opacity="1" d="M-0.00 -35.00 L0.42 -35.91 "/>
<path stroke="#000000" stroke-opacity="1.000000" stroke-width="0.200000" fill="none" fill-opacity="1" d="M-0.00 -36.00 L-0.42 -36.91 L-0.85 -37.81 L-1.27 -38.72 L-1.69 -39.63 L-2.11 -40.53 L-2.54 -41.44 L-2.96 -42.34 L-3.38 -43.25 L-3.80 -44.16 "/>
<path stroke="#000000" stroke-opacity="1.000000" stroke-width="0.200000" fill="none" fill-opacity="1" d="M-0.42 -36.91 L-1.19 -37.55 "/>
<path stroke="#000000" stroke-opacity="1.000000" stroke-width="0.200000" fill="none" fill-opacity="1" d="M-0.85 -37.81 L-0.85 -38.81 "/>
<path stroke="#000000" stroke-opacity="1.000000" stroke-width="0.200000" fill="none" fill-opacity="1" d="M-1.27 -38.72 L-2.03 -39.36 L-2.80 -40.00 L-3.57 -40.65 "/>
<path stroke="#000000" stroke-opacity="1.000000" stroke-width="0.200000" fill="none" fill-opacity="1" d="M-2.03 -39.36 L-3.00 -39.62 "/>
<path stroke="#000000" stroke-opacity="1.000000" stroke-width="0.200000" fill="none" fill-opacity="1" d="M-2.80 -40.00 L-3.22 -40.91 "/>
<path stroke="#000000" stroke-opacity="1.000000" stroke-width="0.200000" fill="none" fill-opacity="1" d="M-1.69 -39.63 L-2.46 -40.27 "/>
<path stroke="#000000" stroke-opacity="1.000000" stroke-width="0.200000" fill="none" fill-opacity="1" d="M-2.11 -40.53 L-2.11 -41.53 "/>
<path stroke="#000000" stroke-opacity="1.000000" stroke-width="0.200000" fill="none" fill-opacity="1" d="M-2.54 -41.44 L-2.54 -42.44 L-2.54 -43.44 L-2.54 -44.44 "/>
<path stroke="#000000" stroke-opacity="1.000000" stroke-width="0.200000" fill="none" fill-opacity="1" d="M-2.54 -42.44 L-2.96 -43.34 "/>
<path stroke="#000000" stroke-opacity="1.000000" stroke-width="0.200000" fill="none" fill-opacity="1" d="M-2.54 -43.44 L-2.11 -44.34 "/>
<path stroke="#000000" stroke-opacity="1.000000" stroke-width="0.200000" fill="none" fill-opacity="1" d="M-2.96 -42.34 L-3.72 -42.99 "/>
<path stroke="#000000" stroke-opacity="1.000000" stroke-width="0.200000" fill="none" fill-opacity="1" d="M-3.38 -43.25 L-3.38 -44.25 "/>
<path stroke="#000000" stroke-opacity="1.000000" stroke-width="0.200000" fill="none" fill-opacity="1" d="M-0.00 -37.00 L-0.42 -37.91 "/>
<path stroke="#000000" stroke-opacity="1.000000" stroke-width="0.200000" fill="none" fill-opacity="1" d="M-0.00 -38.00 L0.42 -38.91 "/>
<path stroke="#000000" stroke-opacity="1.000000" stroke-width="0.200000" fill="none" fill-opacity="1" d="M-0.00 -39.00 L-0.42 -39.91 L-0.85 -40.81 L-1.27 -41.72 "/>
<path stroke="#000000" stroke-opacity="1.000000" stroke-width="0.200000" fill="none" fill-opacity="1" d="M-0.42 -39.91 L-1.19 -40.55 "/>
<path stroke="#000000" stroke-opacity="1.000000" stroke-width="0.200000" fill="none" fill-opacity="1" d="M-0.85 -40.81 L-0.85 -41.81 "/>
<path stroke="#000000" stroke-opacity="1.000000" stroke-width="0.200000" fill="none" fill-opacity="1" d="M-0.00 -40.00 L-0.42 -40.91 "/>
<path stroke="#000000" stroke-opacity="1.000000" stroke-width="0.200000" fill="none" fill-opacity="1" d="M-0.00 -41.00 L0.42 -41.91 "/>
<path stroke="#000000" stroke-opacity="1.000000" stroke-width="0.200000" fill="none" fill-opacity="1" d="M-0.00 -42.00 L0.42 -42.91 L0.85 -43.81 L1.27 -44.72 "/>
<path stroke="#000000" stroke-opacity="1.000000" stroke-width="0.200000" fill="none" fill-opacity="1" d="M0.42 -42.91 L0.42 -43.91 "/>
<path stroke="#000000" stroke-opacity="1.000000" stroke-width="0.200000" fill="none" fill-opacity="1" d="M0.85 -43.81 L1.61 -44.46 "/>
<path stroke="#000000" stroke-opacity="1.000000" stroke-width="0.200000" fill="none" fill-opacity="1" d="M-0.00 -43.00 L-0.42 -43.91 "/>
<path stroke="#000000" stroke-opacity="1.000000" stroke-width="0.200000" fill="none" fill-opacity="1" d="M-0.00 -44.00 L0.42 -44.91 "/>
<path stroke="#000000" stroke-opacity="1.000000" stroke-width="0.200000" fill="none" fill-opacity="1" d="M-0.00 -45.00 L0.42 -45.91 L0.85 -46.81 L1.27 -47.72 L1.69 -48.63 L2.11 -49.53 L2.54 -50.44 L2.96 -51.34 L3.38 -52.25 L3.80 -53.16 "/>
<path stroke="#000000" stroke-opacity="1.000000" stroke-width="0.200000" fill="none" fill-opacity="1" d="M0.42 -45.91 L0.42 -46.91 "/>
<path stroke="#000000" stroke-opacity="1.000000" stroke-width="0.200000" fill="none" fill-opacity="1" d="M0.85 -46.81 L1.61 -47.46 "/>
<path stroke="#000000" stroke-opacity="1.000000" stroke-width="0.200000" fill="none" fill-opacity="1" d="M1.27 -47.72 L1.27 -48.72 L1.27 -49.72 L1.27 -50.72 "/>
<path stroke="#000000" stroke-opacity="1.000000" stroke-width="0.200000" fill="none" fill-opacity="1" d="M1.27 -48.72 L0.85 -49.63 "/>
<path stroke="#000000" stroke-opacity="1.000000" stroke-width="0.200000" fill="none" fill-opacity="1" d="M1.27 -49.72 L1.69 -50.63 "/>
<path stroke="#000000" stroke-opacity="1.000000" stroke-width="0.200000" fill="none" fill-opacity="1" d="M1.69 -48.63 L1.69 -49.63 "/>
<path stroke="#000000" stroke-opacity="1.000000" stroke-width="0.200000" fill="none" fill-opacity="1" d="M2.11 -49.53 L2.88 -50.17 "/>
<path stroke="#000000" stroke-opacity="1.000000" stroke-width="0.200000" fill="none" fill-opacity="1" d="M2.54 -50.44 L3.30 -51.08 L4.07 -51.72 L4.83 -52.37 "/>
<path stroke="#000000" stroke-opacity="1.000000" stroke-width="0.200000" fill="none" fill-opacity="1" d="M3.30 -51.08 L3.72 -51.99 "/>
<path stroke="#000000" stroke-opacity="1.000000" stroke-width="0.200000" fill="none" fill-opacity="1" d="M4.07 -51.72 L5.03 -51.98 "/>
<path stroke="#000000" stroke-opacity="1.000000" stroke-width="0.200000" fill="none" fill-opacity="1" d="M2.96 -51.34 L2.96 -52.34 "/>
<path stroke="#000000" stroke-opacity="1.000000" stroke-width="0.200000" fill="none" fill-opacity="1" d="M3.38 -52.25 L4.15 -52.89 "/>
<path stroke="#000000" stroke-opacity="1.000000" stroke-width="0.200000" fill="none" fill-opacity="1" d="M-0.00 -46.00 L-0.42 -46.91 "/>
<path stroke="#000000" stroke-opacity="1.000000" stroke-width="0.200000" fill="none" fill-opacity="1" d="M-0.00 -47.00 L0.42 -47.91 "/>
<path stroke="#000000" stroke-opacity="1.000000" stroke-width="0.200000" fill="none" fill-opacity="1" d="M-0.00 -48.00 L-0.42 -48.91 L-0.85 -49.81 L-1.27 -50.72 "/>
<path stroke="#000000" stroke-opacity="1.000000" stroke-width="0.200000" fill="none" fill-opacity="1" d="M-0.42 -48.91 L-1.19 -49.55 "/>
<path stroke="#000000" stroke-opacity="1.000000" stroke-width="0.200000" fill="none" fill-opacity="1" d="M-0.85 -49.81 L-0.85 -50.81 "/>
<path stroke="#000000" stroke-opacity="1.000000" stroke-width="0.200000" fill="none" fill-opacity="1" d="M-0.00 -49.00 L-0.42 -49.91 "/>
<path stroke="#000000" stroke-opacity="1.000000" stroke-width="0.200000" fill="none" fill-opacity="1" d="M-0.00 -50.00 L0.42 -50.91 "/>
<path stroke="#000000" stroke-opacity="1.000000" stroke-width="0.200000" fill="none" fill-opacity="1" d="M-0.00 -51.00 L0.42 -51.91 L0.85 -52.81 L1.27 -53.72 "/>
<path stroke="#000000" stroke-opacity="1.000000" stroke-width="0.200000" fill="none" fill-opacity="1" d="M0.42 -51.91 L0.42 -52.91 "/>
<path stroke="#000000" stroke-opacity="1.000000" stroke-width="0.200000" fill="none" fill-opacity="1" d="M0.85 -52.81 L1.61 -53.46 "/>
<path stroke="#000000" stroke-opacity="1.000000" stroke-width="0.200000" fill="none" fill-opacity="1" d="M-0.00 -52.00 L-0.42 -52.91 "/>
<path stroke="#000000" stroke-opacity="1.000000" stroke-width="0.200000" fill="none" fill-opacity="1" d="M-0.00 -53.00 L0.42 -53.91 "/>
<path stroke="#000000" stroke-opacity="1.000000" stroke-width="0.200000" fill="none" fill-opacity="1" d="M-0.00 -54.00 L0.42 -54.91 L0.85 -55.81 L1.27 -56.72 L1.69 -57.63 L2.11 -58.53 L2.54 -59.44 L2.96 -60.34 L3.38 -61.25 L3.80 -62.16 L4.23 -63.06 L4.65 -63.97 L5.07 -64.88 L5.49 -65.78 L5.92 -66.69 L6.34 -67.59 L6.76 -68.50 L7.18 -69.41 L7.61 -70.31 L8.03 -71.22 L8.45 -72.13 L8.87 -73.03 L9.30 -73.94 L9.72 -74.85 L10.14 -75.75 L10.57 -76.66 L10.99 -77.56 L11.41 -78.47 "/>
<path stroke="#000000" stroke-opacity="1.000000" stroke-width="0.200000" fill="none" fill-opacity="1" d="M0.42 -54.91 L0.42 -55.91 "/>
<path stroke="#000000" stroke-opacity="1.000000" stroke-width="0.200000" fill="none" fill-opacity="1" d="M0.85 -55.81 L1.61 -56.46 "/>
<path stroke="#000000" stroke-opacity="1.000000" stroke-width="0.200000" fill="none" fill-opacity="1" d="M1.27 -56.72 L1.27 -57.72 L1.27 -58.72 L1.27 -59.72 "/>
<path stroke="#000000" stroke-opacity="1.000000" stroke-width="0.200000" fill="none" fill-opacity="1" d="M1.27 -57.72 L0.85 -58.63 "/>
<path stroke="#000000" stroke-opacity="1.000000" stroke-width="0.200000" fill="none" fill-opacity="1" d="M1.27 -58.72 L1.69 -59.63 "/>
<path stroke="#000000" stroke-opacity="1.000000" stroke-width="0.200000" fill="none" fill-opacity="1" d="M1.69 -57.63 L1.69 -58.63 "/>
<path stroke="#000000" stroke-opacity="1.000000" stroke-width="0.200000" fill="none" fill-opacity="1" d="M2.11 -58.53 L2.88 -59.17 "/>
<path stroke="#000000" stroke-opacity="1.000000" stroke-width="0.200000" fill="none" fill-opacity="1" d="M2.54 -59.44 L3.30 -60.08 L4.07 -60.72 L4.83 -61.37 "/>
<path stroke="#000000" stroke-opacity="1.000000" stroke-width="0.200000" fill="none" fill-opacity="1" d="M3.30 -60.08 L3.72 -60.99 "/>
<path stroke="#000000" stroke-opacity="1.000000" stroke-width="0.200000" fill="none" fill-opacity="1" d="M4.07 -60.72 L5.03 -60.98 "/>
<path stroke="#000000" stroke-opacity="1.000000" stroke-width="0.200000" fill="none" fill-opacity="1" d="M2.96 -60.34 L2.96 -61.34 "/>
<path stroke="#000000" stroke-opacity="1.000000" stroke-width="0.200000" fill="none" fill-opacity="1" d="M3.38 -61.25 L4.15 -61.89 "/>
<path stroke="#000000" stroke-opacity="1.000000" stroke-width="0.200000" fill="none" fill-opacity="1" d="M3.80 -62.16 L3.80 -63.16 L3.80 -64.16 L3.80 -65.16 L3.80 -66.16 L3.80 -67.16 L3.80 -68.16 L3.80 -69.16 L3.80 -70.16 L3.80 -71.16 "/>
<path stroke="#000000" stroke-opacity="1.000000" stroke-width="0.200000" fill="none" fill-opacity="1" d="M3.80 -63.16 L3.38 -64.06 "/>
<path stroke="#000000" stroke-opacity="1.000000" stroke-width="0.200000" fill="none" fill-opacity="1" d="M3.80 -64.16 L4.23 -65.06 "/>
<path stroke="#000000" stroke-opacity="1.000000" stroke-width="0.200000" fill="none" fill-opacity="1" d="M3.80 -65.16 L3.38 -66.06 L2.96 -66.97 L2.54 -67.88 "/>
<path stroke="#000000" stroke-opacity="1.000000" stroke-width="0.200000" fill="none" fill-opacity="1" d="M3.38 -66.06 L2.61 -66.71 "/>
<path stroke="#000000" stroke-opacity="1.000000" stroke-width="0.200000" fill="none" fill-opacity="1" d="M2.96 -66.97 L2.96 -67.97 "/>
<path stroke="#000000" stroke-opacity="1.000000" stroke-width="0.200000" fill="none" fill-opacity="1" d="M3.80 -66.16 L3.38 -67.06 "/>
<path stroke="#000000" stroke-opacity="1.000000" stroke-width="0.200000" fill="none" fill-opacity="1" d="M3.80 -67.16 L4.23 -68.06 "/>
<path stroke="#000000" stroke-opacity="1.000000" stroke-width="0.200000" fill="none" fill-opacity="1" d="M3.80 -68.16 L4.23 -69.06 L4.65 -69.97 L5.07 -70.88 "/>
<path stroke="#000000" stroke-opacity="1.000000" stroke-width="0.200000" fill="none" fill-opacity="1" d="M4.23 -69.06 L4.23 -70.06 "/>
<path stroke="#000000" stroke-opacity="1.000000" stroke-width="0.200000" fill="none" fill-opacity="1" d="M4.65 -69.97 L5.41 -70.61 "/>
<path stroke="#000000" stroke-opacity="1.000000" stroke-width="0.200000" fill="none" fill-opacity="1" d="M3.80 -69.16 L3.38 -70.06 "/>
<path stroke="#000000" stroke-opacity="1.000000" stroke-width="0.200000" fill="none" fill-opacity="1" d="M3.80 -70.16 L4.23 -71.06 "/>
<path stroke="#000000" stroke-opacity="1.000000" stroke-width="0.200000" fill="none" fill-opacity="1" d="M4.23 -63.06 L4.23 -64.06 "/>
<path stroke="#000000" stroke-opacity="1.000000" stroke-width="0.200000" fill="none" fill-opacity="1" d="M4.65 -63.97 L5.41 -64.61 "/>
<path stroke="#000000" stroke-opacity="1.000000" stroke-width="0.200000" fill="none" fill-opacity="1" d="M5.07 -64.88 L5.07 -65.88 L5.07 -66.88 L5.07 -67.88 "/>
<path stroke="#000000" stroke-opacity="1.000000" stroke-width="0.200000" fill="none" fill-opacity="1" d="M5.07 -65.88 L4.65 -66.78 "/>
<path stroke="#000000" stroke-opacity="1.000000" stroke-width="0.200000" fill="none" fill-opacity="1" d="M5.07 -66.88 L5.49 -67.78 "/>
<path stroke="#000000" stroke-opacity="1.000000" stroke-width="0.200000" fill="none" fill-opacity="1" d="M5.49 -65.78 L5.49 -66.78 "/>
<path stroke="#000000" stroke-opacity="1.000000" stroke-width="0.200000" fill="none" fill-opacity="1" d="M5.92 -66.69 L6.68 -67.33 "/>
<path stroke="#000000" stroke-opacity="1.000000" stroke-width="0.200000" fill="none" fill-opacity="1" d="M6.34 -67.59 L7.11 -68.24 L7.87 -68.88 L8.64 -69.52 "/>
<path stroke="#000000" stroke-opacity="1.000000" stroke-width="0.200000" fill="none" fill-opacity="1" d="M7.11 -68.24 L7.53 -69.14 "/>
<path stroke="#000000" stroke-opacity="1.000000" stroke-width="0.200000" fill="none" fill-opacity="1" d="M7.87 -68.88 L8.84 -69.14 "/>
<path stroke="#000000" stroke-opacity="1.000000" stroke-width="0.200000" fill="none" fill-opacity="1" d="M6.76 -68.50 L6.76 -69.50 "/>
<path stroke="#000000" stroke-opacity="1.000000" stroke-width="0.200000" fill="none" fill-opacity="1" d="M7.18 -69.41 L7.95 -70.05 "/>
<path stroke="#000000" stroke-opacity="1.000000" stroke-width="0.200000" fill="none" fill-opacity="1" d="M7.61 -70.31 L8.37 -70.96 L9.14 -71.60 L9.91 -72.24 L10.67 -72.88 L11.44 -73.53 L12.20 -74.17 L12.97 -74.81 L13.74 -75.46 L14.50 -76.10 "/>
<path stroke="#000000" stroke-opacity="1.000000" stroke-width="0.200000" fill="none" fill-opacity="1" d="M8.37 -70.96 L8.80 -71.86 "/>
<path stroke="#000000" stroke-opacity="1.000000" stroke-width="0.200000" fill="none" fill-opacity="1" d="M9.14 -71.60 L10.11 -71.86 "/>
<path stroke="#000000" stroke-opacity="1.000000" stroke-width="0.200000" fill="none" fill-opacity="1" d="M9.91 -72.24 L10.33 -73.15 L10.75 -74.05 L11.17 -74.96 "/>
<path stroke="#000000" stroke-opacity="1.000000" stroke-width="0.200000" fill="none" fill-opacity="1" d="M10.33 -73.15 L10.33 -74.15 "/>
<path stroke="#000000" stroke-opacity="1.000000" stroke-width="0.200000" fill="none" fill-opacity="1" d="M10.75 -74.05 L11.52 -74.70 "/>
<path stroke="#000000" stroke-opacity="1.000000" stroke-width="0.200000" fill="none" fill-opacity="1" d="M10.67 -72.88 L11.09 -73.79 "/>
<path stroke="#000000" stroke-opacity="1.000000" stroke-width="0.200000" fill="none" fill-opacity="1" d="M11.44 -73.53 L12.40 -73.79 "/>
<path stroke="#000000" stroke-opacity="1.000000" stroke-width="0.200000" fill="none" fill-opacity="1" d="M12.20 -74.17 L13.17 -74.43 L14.14 -74.69 L15.10 -74.95 "/>
<path stroke="#000000" stroke-opacity="1.000000" stroke-width="0.200000" fill="none" fill-opacity="1" d="M13.17 -74.43 L13.94 -75.07 "/>
<path stroke="#000000" stroke-opacity="1.000000" stroke-width="0.200000" fill="none" fill-opacity="1" d="M14.14 -74.69 L15.12 -74.51 "/>
<path stroke="#000000" stroke-opacity="1.000000" stroke-width="0.200000" fill="none" fill-opacity="1" d="M12.97 -74.81 L13.39 -75.72 "/>
<path stroke="#000000" stroke-opacity="1.000000" stroke-width="0.200000" fill="none" fill-opacity="1" d="M13.74 -75.46 L14.70 -75.71 "/>
<path stroke="#000000" stroke-opacity="1.000000" stroke-width="0.200000" fill="none" fill-opacity="1" d="M8.03 -71.22 L8.03 -72.22 "/>
<path stroke="#000000" stroke-opacity="1.000000" stroke-width="0.200000" fill="none" fill-opacity="1" d="M8.45 -72.13 L9.22 -72.77 "/>
<path stroke="#000000" stroke-opacity="1.000000" stroke-width="0.200000" fill="none" fill-opacity="1" d="M8.87 -73.03 L8.87 -74.03 L8.87 -75.03 L8.87 -76.03 "/>
<path stroke="#000000" stroke-opacity="1.000000" stroke-width="0.200000" fill="none" fill-opacity="1" d="M8.87 -74.03 L8.45 -74.94 "/>
<path stroke="#000000" stroke-opacity="1.000000" stroke-width="0.200000" fill="none" fill-opacity="1" d="M8.87 -75.03 L9.30 -75.94 "/>
<path stroke="#000000" stroke-opacity="1.000000" stroke-width="0.200000" fill="none" fill-opacity="1" d="M9.30 -73.94 L9.30 -74.94 "/>
<path stroke="#000000" stroke-opacity="1.000000" stroke-width="0.200000" fill="none" fill-opacity="1" d="M9.72 -74.85 L10.49 -75.49 "/>
<path stroke="#000000" stroke-opacity="1.000000" stroke-width="0.200000" fill="none" fill-opacity="1" d="M10.14 -75.75 L10.91 -76.39 L11.67 -77.04 L12.44 -77.68 "/>
<path stroke="#000000" stroke-opacity="1.000000" stroke-width="0.200000" fill="none" fill-opacity="1" d="M10.91 -76.39 L11.33 -77.30 "/>
<path stroke="#000000" stroke-opacity="1.000000" stroke-width="0.200000" fill="none" fill-opacity="1" d="M11.67 -77.04 L12.64 -77.30 "/>
<path stroke="#000000" stroke-opacity="1.000000" stroke-width="0.200000" fill="none" fill-opacity="1" d="M10.57 -76.66 L10.57 -77.66 "/>
<path stroke="#000000" stroke-opacity="1.000000" stroke-width="0.200000" fill="none" fill-opacity="1" d="M10.99 -77.56 L11.75 -78.21 "/>
<path stroke="#000000" stroke-opacity="1.000000" stroke-width="0.200000" fill="none" fill-opacity="1" d="M-0.00 -55.00 L-0.42 -55.91 "/>
<path stroke="#000000" stroke-opacity="1.000000" stroke-width="0.200000" fill="none" fill-opacity="1" d="M-0.00 -56.00 L0.42 -56.91 "/>
<path stroke="#000000" stroke-opacity="1.000000" stroke-width="0.200000" fill="none" fill-opacity="1" d="M-0.00 -57.00 L-0.42 -57.91 L-0.85 -58.81 L-1.27 -59.72 "/>
<path stroke="#000000" stroke-opacity="1.000000" stroke-width="0.200000" fill="none" fill-opacity="1" d="M-0.42 -57.91 L-1.19 -58.55 "/>
<path stroke="#000000" stroke-opacity="1.000000" stroke-width="0.200000" fill="none" fill-opacity="1" d="M-0.85 -58.81 L-0.85 -59.81 "/>
<path stroke="#000000" stroke-opacity="1.000000" stroke-width="0.200000" fill="none" fill-opacity="1" d="M-0.00 -58.00 L-0.42 -58.91 "/>
<path stroke="#000000" stroke-opacity="1.000000" stroke-width="0.200000" fill="none" fill-opacity="1" d="M-0.00 -59.00 L0.42 -59.91 "/>
<path stroke="#000000" stroke-opacity="1.000000" stroke-width="0.200000" fill="none" fill-opacity="1" d="M-0.00 -60.00 L0.42 -60.91 L0.85 -61.81 L1.27 -62.72 "/>
<path stroke="#000000" stroke-opacity="1.000000" stroke-width="0.200000" fill="none" fill-opacity="1" d="M0.42 -60.91 L0.42 -61.91 "/>
<path stroke="#000000" stroke-opacity="1.000000" stroke-width="0.200000" fill="none" fill-opacity="1" d="M0.85 -61.81 L1.61 -62.46 "/>
<path stroke="#000000" stroke-opacity="1.000000" stroke-width="0.200000" fill="none" fill-opacity="1" d="M-0.00 -61.00 L-0.42 -61.91 "/>
<path stroke="#000000" stroke-opacity="1.000000" stroke-width="0.200000" fill="none" fill-opacity="1" d="M-0.00 -62.00 L0.42 -62.91 "/>
<path stroke="#000000" stroke-opacity="1.000000" stroke-width="0.200000" fill="none" fill-opacity="1" d="M-0.00 -63.00 L-0.42 -63.91 L-0.85 -64.81 L-1.27 -65.72 L-1.69 -66.63 L-2.11 -67.53 L-2.54 -68.44 L-2.96 -69.34 L-3.38 -70.25 L-3.80 -71.16 "/>
<path stroke="#000000" stroke-opacity="1.000000" stroke-width="0.200000" fill="none" fill-opacity="1" d="M-0.42 -63.91 L-1.19 -64.55 "/>
<path stroke="#000000" stroke-opacity="1.000000" stroke-width="0.200000" fill="none" fill-opacity="1" d="M-0.85 -64.81 L-0.85 -65.81 "/>
<path stroke="#000000" stroke-opacity="1.000000" stroke-width="0.200000" fill="none" fill-opacity="1" d="M-1.27 -65.72 L-2.03 -66.36 L-2.80 -67.00 L-3.57 -67.65 "/>
<path stroke="#000000" stroke-opacity="1.000000" stroke-width="0.200000" fill="none" fill-opacity="1" d="M-2.03 -66.36 L-3.00 -66.62 "/>
<path stroke="#000000" stroke-opacity="1.000000" stroke-width="0.200000" fill="none" fill-opacity="1" d="M-2.80 -67.00 L-3.22 -67.91 "/>
<path stroke="#000000" stroke-opacity="1.000000" stroke-width="0.200000" fill="none" fill-opacity="1" d="M-1.69 -66.63 L-2.46 -67.27 "/>
<path stroke="#000000" stroke-opacity="1.000000" stroke-width="0.200000" fill="none" fill-opacity="1" d="M-2.11 -67.53 L-2.11 -68.53 "/>
<path stroke="#000000" stroke-opacity="1.000000" stroke-width="0.200000" fill="none" fill-opacity="1" d="M-2.54 -68.44 L-2.54 -69.44 L-2.54 -70.44 L-2.54 -71.44 "/>
<path stroke="#000000" stroke-opacity="1.000000" stroke-width="0.200000" fill="none" fill-opacity="1" d="M-2.54 -69.44 L-2.96 -70.34 "/>
<path stroke="#000000" stroke-opacity="1.000000" stroke-width="0.200000" fill="none" fill-opacity="1" d="M-2.54 -70.44 L-2.11 -71.34 "/>
<path stroke="#000000" stroke-opacity="1.000000" stroke-width="0.200000" fill="none" fill-opacity="1" d="M-2.96 -69.34 L-3.72 -69.99 "/>
<path stroke="#000000" stroke-opacity="1.000000" stroke-width="0.200000" fill="none" fill-opacity="1" d="M-3.38 -70.25 L-3.38 -71.25 "/>
<path stroke="#000000" stroke-opacity="1.000000" stroke-width="0.200000" fill="none" fill-opacity="1" d="M-0.00 -64.00 L-0.42 -64.91 "/>
<path stroke="#000000" stroke-opacity="1.000000" stroke-width="0.200000" fill="none" fill-opacity="1" d="M-0.00 -65.00 L0.42 -65.91 "/>
<path stroke="#000000" stroke-opacity="1.000000" stroke-width="0.200000" fill="none" fill-opacity="1" d="M-0.00 -66.00 L-0.42 -66.91 L-0.85 -67.81 L-1.27 -68.72 "/>
<path stroke="#000000" stroke-opacity="1.000000" stroke-width="0.200000" fill="none" fill-opacity="1" d="M-0.42 -66.91 L-1.19 -67.55 "/>
<path stroke="#000000" stroke-opacity="1.000000" stroke-width="0.200000" fill="none" fill-opacity="1" d="M-0.85 -67.81 L-0.85 -68.81 "/>
<path stroke="#000000" stroke-opacity="1.000000" stroke-width="0.200000" fill="none" fill-opacity="1" d="M-0.00 -67.00 L-0.42 -67.91 "/>
<path stroke="#000000" stroke-opacity="1.000000" stroke-width="0.200000" fill="none" fill-opacity="1" d="M-0.00 -68.00 L0.42 -68.91 "/>
<path stroke="#000000" stroke-opacity="1.000000" stroke-width="0.200000" fill="none" fill-opacity="1" d="M-0.00 -69.00 L0.42 -69.91 L0.85 -70.81 L1.27 -71.72 "/>
<path stroke="#000000" stroke-opacity="1.000000" stroke-width="0.200000" fill="none" fill-opacity="1" d="M0.42 -69.91 L0.42 -70.91 "/>
<path stroke="#000000" stroke-opacity="1.000000" stroke-width="0.200000" fill="none" fill-opacity="1" d="M0.85 -70.81 L1.61 -71.46 "/>
<path stroke="#000000" stroke-opacity="1.000000" stroke-width="0.200000" fill="none" fill-opacity="1" d="M-0.00 -70.00 L-0.42 -70.91 "/>
<path stroke="#000000" stroke-opacity="1.000000" stroke-width="0.200000" fill="none" fill-opacity="1" d="M-0.00 -71.00 L0.42 -71.91 "/>
<path stroke="#000000" stroke-opacity="1.000000" stroke-width="0.200000" fill="none" fill-opacity="1" d="M-0.00 -72.00 L0.42 -72.91 L0.85 -73.81 L1.27 -74.72 L1.69 -75.63 L2.11 -76.53 L2.54 -77.44 L2.96 -78.34 L3.38 -79.25 L3.80 -80.16 "/>
<path stroke="#000000" stroke-opacity="1.000000" stroke-width="0.200000" fill="none" fill-opacity="1" d="M0.42 -72.91 L0.42 -73.91 "/>
<path stroke="#000000" stroke-opacity="1.000000" stroke-width="0.200000" fill="none" fill-opacity="1" d="M0.85 -73.81 L1.61 -74.46 "/>
<path stroke="#000000" stroke-opacity="1.000000" stroke-width="0.200000" fill="none" fill-opacity="1" d="M1.27 -74.72 L1.27 -75.72 L1.27 -76.72 L1.27 -77.72 "/>
<path stroke="#000000" stroke-opacity="1.000000" stroke-width="0.200000" fill="none" fill-opacity="1" d="M1.27 -75.72 L0.85 -76.63 "/>
<path stroke="#000000" stroke-opacity="1.000000" stroke-width="0.200000" fill="none" fill-opacity="1" d="M1.27 -76.72 L1.69 -77.63 "/>
<path stroke="#000000" stroke-opacity="1.000000" stroke-width="0.200000" fill="none" fill-opacity="1" d="M1.69 -75.63 L1.69 -76.63 "/>
<path stroke="#000000" stroke-opacity="1.000000" stroke-width="0.200000" fill="none" fill-opacity="1" d="M2.11 -76.53 L2.88 -77.17 "/>
<path stroke="#000000" stroke-opacity="1.000000" stroke-width="0.200000" fill="none" fill-opacity="1" d="M2.54 -77.44 L3.30 -78.08 L4.07 -78.72 L4.83 -79.37 "/>
<path stroke="#000000" stroke-opacity="1.000000" stroke-width="0.200000" fill="none" fill-opacity="1" d="M3.30 -78.08 L3.72 -78.99 "/>
<path stroke="#000000" stroke-opacity="1.000000" stroke-width="0.200000" fill="none" fill-opacity="1" d="M4.07 -78.72 L5.03 -78.98 "/>
<path stroke="#000000" stroke-opacity="1.000000" stroke-width="0.200000" fill="none" fill-opacity="1" d="M2.96 -78.34 L2.96 -79.34 "/>
<path stroke="#000000" stroke-opacity="1.000000" stroke-width="0.200000" fill="none" fill-opacity="1" d="M3.38 -79.25 L4.15 -79.89 "/>
<path stroke="#000000" stroke-opacity="1.000000" stroke-width="0.200000" fill="none" fill-opacity="1" d="M-0.00 -73.00 L-0.42 -73.91 "/>
<path stroke="#000000" stroke-opacity="1.000000" stroke-width="0.200000" fill="none" fill-opacity="1" d="M-0.00 -74.00 L0.42 -74.91 "/>
<path stroke="#000000" stroke-opacity="1.000000" stroke-width="0.200000" fill="none" fill-opacity="1" d="M-0.00 -75.00 L-0.42 -75.91 L-0.85 -76.81 L-1.27 -77.72 "/>
<path stroke="#000000" stroke-opacity="1.000000" stroke-width="0.200000" fill="none" fill-opacity="1" d="M-0.42 -75.91 L-1.19 -76.55 "/>
<path stroke="#000000" stroke-opacity="1.000000" stroke-width="0.200000" fill="none" fill-opacity="1" d="M-0.85 -76.81 L-0.85 -77.81 "/>
<path stroke="#000000" stroke-opacity="1.000000" stroke-width="0.200000" fill="none" fill-opacity="1" d="M-0.00 -76.00 L-0.42 -76.91 "/>
<path stroke="#000000" stroke-opacity="1.000000" stroke-width="0.200000" fill="none" fill-opacity="1" d="M-0.00 -77.00 L0.42 -77.91 "/>
<path stroke="#000000" stroke-opacity="1.000000" stroke-width="0.200000" fill="none" fill-opacity="1" d="M-0.00 -78.00 L0.42 -78.91 L0.85 -79.81 L1.27 -80.72 "/>
<path stroke="#000000" stroke-opacity="1.000000" stroke-width="0.200000" fill="none" fill-opacity="1" d="M0.42 -78.91 L0.42 -79.91 "/>
<path stroke="#000000" stroke-opacity="1.000000" stroke-width="0.200000" fill="none" fill-opacity="1" d="M0.85 -79.81 L1.61 -80.46 "/>
<path stroke="#000000" stroke-opacity="1.000000" stroke-width="0.200000" fill="none" fill-opacity="1" d="M-0.00 -79.00 L-0.42 -79.91 "/>
<path stroke="#000000" stroke-opacity="1.000000" stroke-width="0.200000" fill="none" fill-opacity="1" d="M-0.00 -80.00 L0.42 -80.91 "/>
</g>
</svg>

