<svg viewBox="0 0 400.000000 400.002197" xmlns="http://www.w3.org/2000/svg" version="1.1">
<!-- SEED 88577367 -->
<rect width="400.000000" height="400.002197" fill="#DDAADD" fill-opacity="1.000000"/>
<g transform="scale(15.936223,15.936231) translate(20.050043,10.050036) ">
<path stroke="#000000" stroke-opacity="1.000000" stroke-width="0.200000" fill="none" fill-opacity="1" d="M0.00 0.00 L1.00 0.00 L2.00 0.00 L2.00 -1.00 L3.00 -1.00 L3.00 -2.00 L2.00 -2.00 L1.00 -2.00 L0.00 -2.00 L-1.00 -2.00 L-1.00 -1.00 L-2.00 -1.00 L-2.00 0.00 L-1.00 0.00 L0.00 0.00 L0.00 -1.00 L0.00 -2.00 L-1.00 -2.00 L-1.00 -3.00 L-2.00 -3.00 L-2.00 -2.00 L-2.00 -1.00 L-3.00 -1.00 L-4.00 -1.00 L-4.00 0.00 L-5.00 0.00 L-5.00 1.00 L-4.00 1.00 L-3.00 1.00 L-3.00 -0.00 L-3.00 -1.00 L-4.00 -1.00 L-4.00 -2.00 L-5.00 -2.00 L-5.00 -1.00 L-5.00 -0.00 L-4.00 -0.00 L-3.00 -0.00 L-3.00 -1.00 L-2.00 -1.00 L-2.00 -2.00 L-3.00 -2.00 L-4.00 -2.00 L-5.00 -2.00 L-6.00 -2.00 L-6.00 -1.00 L-7.00 -1.00 L-7.00 -0.00 L-6.00 -0.00 L-5.00 -0.00 L-4.00 -0.00 L-3.00 -0.00 L-3.00 -1.00 L-2.00 -1.00 L-2.00 -2.00 L-3.00 -2.00 L-4.00 -2.00 L-5.00 -2.00 L-6.00 -2.00 L-6.00 -1.00 L-7.00 -1.00 L-7.00 0.00 L-6.00 0.00 L-5.00 0.00 L-5.00 -1.00 L-5.00 -2.00 L-6.00 -2.00 L-6.00 -3.00 L-7.00 -3.00 L-7.00 -2.00 L-7.00 -1.00 L-8.00 -1.00 L-9.00 -1.00 L-9.00 -0.00 L-10.00 -0.00 L-10.00 1.00 L-9.00 1.00 L-8.00 1.00 L-8.00 -0.00 L-8.00 -1.00 L-9.00 -1.00 L-9.00 -2.00 L-10.00 -2.00 L-10.00 -1.00 L-10.00 0.00 L-9.00 0.00 L-8.00 0.00 L-8.00 -1.00 L-7.00 -1.00 L-7.00 -2.00 L-8.00 -2.00 L-9.00 -2.00 L-10.00 -2.00 L-11.00 -2.00 L-11.00 -1.00 L-12.00 -1.00 L-12.00 0.00 L-11.00 0.00 L-10.00 0.00 L-10.00 -1.00 L-10.00 -2.00 L-11.00 -2.00 L-11.00 -3.00 L-12.00 -3.00 L-12.00 -2.00 L-12.00 -1.00 L-12.00 0.00 L-12.00 1.00 L-11.00 1.00 L-11.00 2.00 L-10.00 2.00 L-10.00 1.00 L-10.00 0.00 L-11.00 0.00 L-12.00 0.00 L-12.00 1.00 L-13.00 1.00 L-13.00 2.00 L-12.00 2.00 L-11.00 2.00 L-11.00 3.00 L-11.00 4.00 L-10.00 4.00 L-10.00 5.00 L-9.00 5.00 L-9.00 4.00 L-9.00 3.00 L-10.00 3.00 L-11.00 3.00 L-11.00 4.00 L-12.00 4.00 L-12.00 5.00 L-11.00 5.00 L-10.00 5.00 L-10.00 4.00 L-10.00 3.00 L-11.00 3.00 L-11.00 2.00 L-12.00 2.00 L-12.00 3.00 L-12.00 4.00 L-12.00 5.00 L-12.00 6.00 L-11.00 6.00 L-11.00 7.00 L-10.00 7.00 L-10.00 6.00 L-10.00 5.00 L-9.00 5.00 L-8.00 5.00 L-8.00 4.00 L-7.00 4.00 L-7.00 3.00 L-8.00 3.00 L-9.00 3.00 L-10.00 3.00 L-11.00 3.00 L-11.00 4.00 L-12.00 4.00 L-12.00 5.00 L-11.00 5.00 L-10.00 5.00 L-10.00 4.00 L-10.00 3.00 L-11.00 3.00 L-11.00 2.00 L-12.00 2.00 L-12.00 3.00 L-12.00 4.00 L-13.00 4.00 L-14.00 4.00 L-14.00 5.00 L-15.00 5.00 L-15.00 6.00 L-14.00 6.00 L-13.00 6.00 L-13.00 5.00 L-13.00 4.00 L-14.00 4.00 L-14.00 3.00 L-15.00 3.00 L-15.00 4.00 L-15.00 5.00 L-14.00 5.00 L-13.00 5.00 L-13.00 4.00 L-12.00 4.00 L-12.00 3.00 L-13.00 3.00 L-14.00 3.00 L-15.00 3.00 L-16.00 3.00 L-16.00 4.00 L-17.00 4.00 L-17.00 5.00 L-16.00 5.00 L-15.00 5.00 L-15.00 4.00 L-15.00 3.00 L-16.00 3.00 L-16.00 2.00 L-17.00 2.00 L-17.00 3.00 L-17.00 4.00 L-17.00 5.00 L-17.00 6.00 L-16.00 6.00 L-16.00 7.00 L-15.00 7.00 L-15.00 6.00 L-15.00 5.00 L-16.00 5.00 L-17.00 5.00 L-17.00 6.00 L-18.00 6.00 L-18.00 7.00 L-17.00 7.00 L-16.00 7.00 L-16.00 8.00 L-16.00 9.00 L-15.00 9.00 L-15.00 10.00 L-14.00 10.00 L-14.00 9.00 L-14.00 8.00 L-15.00 8.00 L-16.00 8.00 L-16.00 9.00 L-17.00 9.00 L-17.00 10.00 L-16.00 10.00 L-15.00 10.00 L-15.00 9.00 L-15.00 8.00 L-16.00 8.00 L-16.00 7.00 L-17.00 7.00 L-17.00 8.00 L-17.00 9.00 L-17.00 10.00 L-17.00 11.00 L-16.00 11.00 L-16.00 12.00 L-15.00 12.00 L-15.00 11.00 L-15.00 10.00 L-16.00 10.00 L-17.00 10.00 L-17.00 11.00 L-18.00 11.00 L-18.00 12.00 L-17.00 12.00 L-16.00 12.00 L-15.00 12.00 L-14.00 12.00 L-14.00 11.00 L-13.00 11.00 L-13.00 10.00 L-14.00 10.00 L-15.00 10.00 L-15.00 11.00 L-15.00 12.00 L-14.00 12.00 L-14.00 13.00 L-13.00 13.00 L-13.00 12.00 L-13.00 11.00 L-12.00 11.00 L-11.00 11.00 L-11.00 10.00 L-10.00 10.00 L-10.00 9.00 L-11.00 9.00 L-12.00 9.00 L-12.00 10.00 L-12.00 11.00 L-11.00 11.00 L-11.00 12.00 L-10.00 12.00 L-10.00 11.00 L-10.00 10.00 L-11.00 10.00 L-12.00 10.00 L-12.00 11.00 L-13.00 11.00 L-13.00 12.00 L-12.00 12.00 L-11.00 12.00 L-10.00 12.00 L-9.00 12.00 L-9.00 11.00 L-8.00 11.00 L-8.00 10.00 L-9.00 10.00 L-10.00 10.00 L-11.00 10.00 L-12.00 10.00 L-12.00 11.00 L-13.00 11.00 L-13.00 12.00 L-12.00 12.00 L-11.00 12.00 L-10.00 12.00 L-9.00 12.00 L-9.00 11.00 L-8.00 11.00 L-8.00 10.00 L-9.00 10.00 L-10.00 10.00 L-10.00 11.00 L-10.00 12.00 L-9.00 12.00 L-9.00 13.00 L-8.00 13.00 L-8.00 12.00 L-8.00 11.00 L-7.00 11.00 L-6.00 11.00 L-6.00 10.00 L-5.00 10.00 L-5.00 9.00 L-6.00 9.00 L-7.00 9.00 L-7.00 10.00 L-7.00 11.00 L-6.00 11.00 L-6.00 12.00 L-5.00 12.00 L-5.00 11.00 L-5.00 10.00 L-6.00 10.00 L-7.00 10.00 L-7.00 11.00 L-8.00 11.00 L-8.00 12.00 L-7.00 12.00 L-6.00 12.00 L-5.00 12.00 L-4.00 12.00 L-4.00 11.00 L-3.00 11.00 L-3.00 10.00 L-4.00 10.00 L-5.00 10.00 L-5.00 11.00 L-5.00 12.00 L-4.00 12.00 L-4.00 13.00 L-3.00 13.00 L-3.00 12.00 L-3.00 11.00 L-3.00 10.00 L-3.00 9.00 L-4.00 9.00 L-4.00 8.00 L-5.00 8.00 L-5.00 9.00 L-5.00 10.00 L-4.00 10.00 L-3.00 10.00 L-3.00 9.00 L-2.00 9.00 L-2.00 8.00 L-3.00 8.00 L-4.00 8.00 L-4.00 7.00 L-4.00 6.00 L-5.00 6.00 L-5.00 5.00 L-6.00 5.00 L-6.00 6.00 L-6.00 7.00 L-5.00 7.00 L-4.00 7.00 L-4.00 6.00 L-3.00 6.00 L-3.00 5.00 L-4.00 5.00 L-5.00 5.00 L-5.00 6.00 L-5.00 7.00 L-4.00 7.00 L-4.00 8.00 L-3.00 8.00 L-3.00 7.00 L-3.00 6.00 L-3.00 5.00 L-3.00 4.00 L-4.00 4.00 L-4.00 3.00 L-5.00 3.00 L-5.00 4.00 L-5.00 5.00 L-5.00 6.00 L-5.00 7.00 L-4.00 7.00 L-4.00 8.00 L-3.00 8.00 L-3.00 7.00 L-3.00 6.00 L-3.00 5.00 L-3.00 4.00 L-4.00 4.00 L-4.00 3.00 L-5.00 3.00 L-5.00 4.00 L-5.00 5.00 L-4.00 5.00 L-3.00 5.00 L-3.00 4.00 L-2.00 4.00 L-2.00 3.00 L-3.00 3.00 L-4.00 3.00 L-4.00 2.00 L-4.00 1.00 L-5.00 1.00 L-5.00 0.00 L-6.00 0.00 L-6.00 1.00 L-6.00 2.00 L-5.00 2.00 L-4.00 2.00 L-4.00 1.00 L-3.00 1.00 L-3.00 0.00 L-4.00 0.00 L-5.00 0.00 L-5.00 1.00 L-5.00 2.00 L-4.00 2.00 L-4.00 3.00 L-3.00 3.00 L-3.00 2.00 L-3.00 1.00 L-3.00 0.00 L-3.00 -1.00 L-4.00 -1.00 L-4.00 -2.00 L-5.00 -2.00 L-5.00 -1.00 L-5.00 0.00 L-4.00 0.00 L-3.00 0.00 L-3.00 -1.00 L-2.00 -1.00 L-2.00 -2.00 L-3.00 -2.00 L-4.00 -2.00 L-5.00 -2.00 L-6.00 -2.00 L-6.00 -1.00 L-7.00 -1.00 L-7.00 0.00 L-6.00 0.00 L-5.00 0.00 L-5.00 -1.00 L-5.00 -2.00 L-6.00 -2.00 L-6.00 -3.00 L-7.00 -3.00 L-7.00 -2.00 L-7.00 -1.00 L-8.00 -1.00 L-9.00 -1.00 L-9.00 0.00 L-10.00 0.00 L-10.00 1.00 L-9.00 1.00 L-8.00 1.00 L-8.00 0.00 L-8.00 -1.00 L-9.00 -1.00 L-9.00 -2.00 L-10.00 -2.00 L-10.00 -1.00 L-10.00 0.00 L-9.00 0.00 L-8.00 0.00 L-8.00 -1.00 L-7.00 -1.00 L-7.00 -2.00 L-8.00 -2.00 L-9.00 -2.00 L-10.00 -2.00 L-11.00 -2.00 L-11.00 -1.00 L-12.00 -1.00 L-12.00 0.00 L-11.00 0.00 L-10.00 0.00 L-10.00 1.00 L-10.00 2.00 L-9.00 2.00 L-9.00 3.00 L-8.00 3.00 L-8.00 2.00 L-8.00 1.00 L-8.00 0.00 L-8.00 -1.00 L-9.00 -1.00 L-9.00 -2.00 L-10.00 -2.00 L-10.00 -1.00 L-10.00 0.00 L-9.00 0.00 L-8.00 0.00 L-8.00 -1.00 L-7.00 -1.00 L-7.00 -2.00 L-8.00 -2.00 L-9.00 -2.00 L-9.00 -3.00 L-9.00 -4.00 L-10.00 -4.00 L-10.00 -5.00 L-11.00 -5.00 L-11.00 -4.00 L-11.00 -3.00 L-10.00 -3.00 L-9.00 -3.00 L-9.00 -4.00 L-8.00 -4.00 L-8.00 -5.00 L-9.00 -5.00 L-10.00 -5.00 L-10.00 -4.00 L-10.00 -3.00 L-9.00 -3.00 L-9.00 -2.00 L-8.00 -2.00 L-8.00 -3.00 L-8.00 -4.00 L-8.00 -5.00 L-8.00 -6.00 L-9.00 -6.00 L-9.00 -7.00 L-10.00 -7.00 L-10.00 -6.00 L-10.00 -5.00 L-9.00 -5.00 L-8.00 -5.00 L-8.00 -6.00 L-7.00 -6.00 L-7.00 -7.00 L-8.00 -7.00 L-9.00 -7.00 L-10.00 -7.00 L-11.00 -7.00 L-11.00 -6.00 L-12.00 -6.00 L-12.00 -5.00 L-11.00 -5.00 L-10.00 -5.00 L-10.00 -6.00 L-10.00 -7.00 L-11.00 -7.00 L-11.00 -8.00 L-12.00 -8.00 L-12.00 -7.00 L-12.00 -6.00 L-13.00 -6.00 L-14.00 -6.00 L-14.00 -5.00 L-15.00 -5.00 L-15.00 -4.00 L-14.00 -4.00 L-13.00 -4.00 L-13.00 -5.00 L-13.00 -6.00 L-14.00 -6.00 L-14.00 -7.00 L-15.00 -7.00 L-15.00 -6.00 L-15.00 -5.00 L-14.00 -5.00 L-13.00 -5.00 L-13.00 -6.00 L-12.00 -6.00 L-12.00 -7.00 L-13.00 -7.00 L-14.00 -7.00 L-15.00 -7.00 L-16.00 -7.00 L-16.00 -6.00 L-17.00 -6.00 L-17.00 -5.00 L-16.00 -5.00 L-15.00 -5.00 L-15.00 -6.00 L-15.00 -7.00 L-16.00 -7.00 L-16.00 -8.00 L-17.00 -8.00 L-17.00 -7.00 L-17.00 -6.00 L-17.00 -5.00 L-17.00 -4.00 L-16.00 -4.00 L-16.00 -3.00 L-15.00 -3.00 L-15.00 -4.00 L-15.00 -5.00 L-16.00 -5.00 L-17.00 -5.00 L-17.00 -4.00 L-18.00 -4.00 L-18.00 -3.00 L-17.00 -3.00 L-16.00 -3.00 L-16.00 -2.00 L-16.00 -1.00 L-15.00 -1.00 L-15.00 0.00 L-14.00 0.00 L-14.00 -1.00 L-14.00 -2.00 L-15.00 -2.00 L-16.00 -2.00 L-16.00 -1.00 L-17.00 -1.00 L-17.00 0.00 L-16.00 0.00 L-15.00 0.00 L-15.00 -1.00 L-15.00 -2.00 L-16.00 -2.00 L-16.00 -3.00 L-17.00 -3.00 L-17.00 -2.00 L-17.00 -1.00 L-17.00 0.00 L-17.00 1.00 L-16.00 1.00 L-16.00 2.00 L-15.00 2.00 L-15.00 1.00 L-15.00 0.00 L-15.00 -1.00 L-15.00 -2.00 L-16.00 -2.00 L-16.00 -3.00 L-17.00 -3.00 L-17.00 -2.00 L-17.00 -1.00 L-17.00 0.00 L-17.00 1.00 L-16.00 1.00 L-16.00 2.00 L-15.00 2.00 L-15.00 1.00 L-15.00 0.00 L-16.00 0.00 L-17.00 0.00 L-17.00 1.00 L-18.00 1.00 L-18.00 2.00 L-17.00 2.00 L-16.00 2.00 L-16.00 3.00 L-16.00 4.00 L-15.00 4.00 L-15.00 5.00 L-14.00 5.00 L-14.00 4.00 L-14.00 3.00 L-15.00 3.00 L-16.00 3.00 L-16.00 4.00 L-17.00 4.00 L-17.00 5.00 L-16.00 5.00 L-15.00 5.00 L-15.00 4.00 L-15.00 3.00 L-16.00 3.00 L-16.00 2.00 L-17.00 2.00 L-17.00 3.00 L-17.00 4.00 L-17.00 5.00 L-17.00 6.00 L-16.00 6.00 L-16.00 7.00 L-15.00 7.00 L-15.00 6.00 L-15.00 5.00 L-16.00 5.00 L-17.00 5.00 L-17.00 6.00 L-18.00 6.00 L-18.00 7.00 L-17.00 7.00 L-16.00 7.00 L-15.00 7.00 L-14.00 7.00 L-14.00 6.00 L-13.00 6.00 L-13.00 5.00 L-14.00 5.00 L-15.00 5.00 L-15.00 6.00 L-15.00 7.00 L-14.00 7.00 L-14.00 8.00 L-13.00 8.00 L-13.00 7.00 L-13.00 6.00 L-12.00 6.00 L-11.00 6.00 L-11.00 5.00 L-10.00 5.00 L-10.00 4.00 L-11.00 4.00 L-12.00 4.00 L-12.00 5.00 L-12.00 6.00 L-11.00 6.00 L-11.00 7.00 L-10.00 7.00 L-10.00 6.00 L-10.00 5.00 L-11.00 5.00 L-12.00 5.00 L-12.00 6.00 L-13.00 6.00 L-13.00 7.00 L-12.00 7.00 L-11.00 7.00 L-10.00 7.00 L-9.00 7.00 L-9.00 6.00 L-8.00 6.00 L-8.00 5.00 L-9.00 5.00 L-10.00 5.00 L-11.00 5.00 L-12.00 5.00 L-12.00 6.00 L-13.00 6.00 L-13.00 7.00 L-12.00 7.00 L-11.00 7.00 L-10.00 7.00 L-9.00 7.00 L-9.00 6.00 L-8.00 6.00 L-8.00 5.00 L-9.00 5.00 L-10.00 5.00 L-10.00 6.00 L-10.00 7.00 L-9.00 7.00 L-9.00 8.00 L-8.00 8.00 L-8.00 7.00 L-8.00 6.00 L-7.00 6.00 L-6.00 6.00 L-6.00 5.00 L-5.00 5.00 L-5.00 4.00 L-6.00 4.00 L-7.00 4.00 L-7.00 5.00 L-7.00 6.00 L-6.00 6.00 L-6.00 7.00 L-5.00 7.00 L-5.00 6.00 L-5.00 5.00 L-6.00 5.00 L-7.00 5.00 L-7.00 6.00 L-8.00 6.00 L-8.00 7.00 L-7.00 7.00 L-6.00 7.00 L-5.00 7.00 L-4.00 7.00 L-4.00 6.00 L-3.00 6.00 L-3.00 5.00 L-4.00 5.00 L-5.00 5.00 L-5.00 6.00 L-5.00 7.00 L-4.00 7.00 L-4.00 8.00 L-3.00 8.00 L-3.00 7.00 L-3.00 6.00 L-3.00 5.00 L-3.00 4.00 L-4.00 4.00 L-4.00 3.00 L-5.00 3.00 L-5.00 4.00 L-5.00 5.00 L-4.00 5.00 L-3.00 5.00 L-3.00 4.00 L-2.00 4.00 L-2.00 3.00 L-3.00 3.00 L-4.00 3.00 L-4.00 2.00 L-4.00 1.00 L-5.00 1.00 L-5.00 0.00 L-6.00 0.00 L-6.00 1.00 L-6.00 2.00 L-5.00 2.00 L-4.00 2.00 L-4.00 1.00 L-3.00 1.00 L-3.00 0.00 L-4.00 0.00 L-5.00 0.00 L-5.00 1.00 L-5.00 2.00 L-4.00 2.00 L-4.00 3.00 L-3.00 3.00 L-3.00 2.00 L-3.00 1.00 L-3.00 0.00 L-3.00 -1.00 L-4.00 -1.00 L-4.00 -2.00 L-5.00 -2.00 L-5.00 -1.00 L-5.00 0.00 L-6.00 0.00 L-7.00 0.00 L-7.00 1.00 L-8.00 1.00 L-8.00 2.00 L-7.00 2.00 L-6.00 2.00 L-5.00 2.00 L-4.00 2.00 L-4.00 1.00 L-3.00 1.00 L-3.00 0.00 L-4.00 0.00 L-5.00 0.00 L-5.00 1.00 L-5.00 2.00 L-4.00 2.00 L-4.00 3.00 L-3.00 3.00 L-3.00 2.00 L-3.00 1.00 L-2.00 1.00 L-1.00 1.00 L-1.00 -0.00 L-0.00 -0.00 L-0.00 -1.00 L-1.00 -1.00 L-2.00 -1.00 L-2.00 -0.00 L-2.00 1.00 L-1.00 1.00 L-1.00 2.00 L-0.00 2.00 L-0.00 1.00 L-0.00 -0.00 L-1.00 -0.00 L-2.00 -0.00 L-2.00 1.00 L-3.00 1.00 L-3.00 2.00 L-2.00 2.00 L-1.00 2.00 L-0.00 2.00 L1.00 2.00 L1.00 1.00 L2.00 1.00 L2.00 -0.00 L1.00 0.00 L-0.00 0.00 L-0.00 1.00 L0.00 2.00 L1.00 2.00 L1.00 3.00 L2.00 3.00 L2.00 2.00 L2.00 1.00 L2.00 0.00 L2.00 -1.00 L1.00 -1.00 L1.00 -2.00 L-0.00 -2.00 L-0.00 -1.00 L-0.00 0.00 L1.00 0.00 L2.00 0.00 L2.00 -1.00 L3.00 -1.00 L3.00 -2.00 L2.00 -2.00 L1.00 -2.00 L1.00 -3.00 L1.00 -4.00 L-0.00 -4.00 L-0.00 -5.00 L-1.00 -5.00 L-1.00 -4.00 L-1.00 -3.00 L-0.00 -3.00 L1.00 -3.00 L1.00 -4.00 L2.00 -4.00 L2.00 -5.00 L1.00 -5.00 L-0.00 -5.00 L-0.00 -4.00 L-0.00 -3.00 L1.00 -3.00 L1.00 -2.00 L2.00 -2.00 L2.00 -3.00 L2.00 -4.00 L2.00 -5.00 L2.00 -6.00 L1.00 -6.00 L1.00 -7.00 L-0.00 -7.00 L-0.00 -6.00 L-0.00 -5.00 L1.00 -5.00 L2.00 -5.00 L2.00 -6.00 L3.00 -6.00 L3.00 -7.00 L2.00 -7.00 L1.00 -7.00 L-0.00 -7.00 L-1.00 -7.00 L-1.00 -6.00 L-2.00 -6.00 L-2.00 -5.00 L-1.00 -5.00 L-0.00 -5.00 L-0.00 -6.00 L-0.00 -7.00 L-1.00 -7.00 L-1.00 -8.00 L-2.00 -8.00 L-2.00 -7.00 L-2.00 -6.00 L-3.00 -6.00 L-4.00 -6.00 L-4.00 -5.00 L-5.00 -5.00 L-5.00 -4.00 L-4.00 -4.00 L-3.00 -4.00 L-3.00 -5.00 L-3.00 -6.00 L-4.00 -6.00 L-4.00 -7.00 L-5.00 -7.00 L-5.00 -6.00 L-5.00 -5.00 L-4.00 -5.00 L-3.00 -5.00 L-3.00 -6.00 L-2.00 -6.00 L-2.00 -7.00 L-3.00 -7.00 L-4.00 -7.00 L-5.00 -7.00 L-6.00 -7.00 L-6.00 -6.00 L-7.00 -6.00 L-7.00 -5.00 L-6.00 -5.00 L-5.00 -5.00 L-4.00 -5.00 L-3.00 -5.00 L-3.00 -6.00 L-2.00 -6.00 L-2.00 -7.00 L-3.00 -7.00 L-4.00 -7.00 L-5.00 -7.00 L-6.00 -7.00 L-6.00 -6.00 L-7.00 -6.00 L-7.00 -5.00 L-6.00 -5.00 L-5.00 -5.00 L-5.00 -6.00 L-5.00 -7.00 L-6.00 -7.00 L-6.00 -8.00 L-7.00 -8.00 L-7.00 -7.00 L-7.00 -6.00 L-8.00 -6.00 L-9.00 -6.00 L-9.00 -5.00 L-10.00 -5.00 L-10.00 -4.00 L-9.00 -4.00 L-8.00 -4.00 L-8.00 -5.00 L-8.00 -6.00 L-9.00 -6.00 L-9.00 -7.00 L-10.00 -7.00 L-10.00 -6.00 L-10.00 -5.00 L-9.00 -5.00 L-8.00 -5.00 L-8.00 -6.00 L-7.00 -6.00 L-7.00 -7.00 L-8.00 -7.00 L-9.00 -7.00 L-10.00 -7.00 L-11.00 -7.00 L-11.00 -6.00 L-12.00 -6.00 L-12.00 -5.00 L-11.00 -5.00 L-10.00 -5.00 L-10.00 -6.00 L-10.00 -7.00 L-11.00 -7.00 L-11.00 -8.00 L-12.00 -8.00 L-12.00 -7.00 L-12.00 -6.00 L-12.00 -5.00 L-12.00 -4.00 L-11.00 -4.00 L-11.00 -3.00 L-10.00 -3.00 L-10.00 -4.00 L-10.00 -5.00 L-11.00 -5.00 L-12.00 -5.00 L-12.00 -4.00 L-13.00 -4.00 L-13.00 -3.00 L-12.00 -3.00 L-11.00 -3.00 L-11.00 -2.00 L-11.00 -1.00 L-10.00 -1.00 L-10.00 0.00 L-9.00 0.00 L-9.00 -1.00 L-9.00 -2.00 L-10.00 -2.00 L-11.00 -2.00 L-11.00 -1.00 L-12.00 -1.00 L-12.00 0.00 L-11.00 0.00 L-10.00 0.00 L-10.00 -1.00 L-10.00 -2.00 L-11.00 -2.00 L-11.00 -3.00 L-12.00 -3.00 L-12.00 -2.00 L-12.00 -1.00 L-12.00 0.00 L-12.00 1.00 L-11.00 1.00 L-11.00 2.00 L-10.00 2.00 L-10.00 1.00 L-10.00 0.00 L-10.00 -1.00 L-10.00 -2.00 L-11.00 -2.00 L-11.00 -3.00 L-12.00 -3.00 L-12.00 -2.00 L-12.00 -1.00 L-12.00 0.00 L-12.00 1.00 L-11.00 1.00 L-11.00 2.00 L-10.00 2.00 L-10.00 1.00 L-10.00 0.00 L-11.00 0.00 L-12.00 0.00 L-12.00 1.00 L-13.00 1.00 L-13.00 2.00 L-12.00 2.00 L-11.00 2.00 L-11.00 3.00 L-11.00 4.00 L-10.00 4.00 L-10.00 5.00 L-9.00 5.00 L-9.00 4.00 L-9.00 3.00 L-10.00 3.00 L-11.00 3.00 L-11.00 4.00 L-12.00 4.00 L-12.00 5.00 L-11.00 5.00 L-10.00 5.00 L-10.00 4.00 L-10.00 3.00 L-11.00 3.00 L-11.00 2.00 L-12.00 2.00 L-12.00 3.00 L-12.00 4.00 L-12.00 5.00 L-12.00 6.00 L-11.00 6.00 L-11.00 7.00 L-10.00 7.00 L-10.00 6.00 L-10.00 5.00 L-11.00 5.00 L-12.00 5.00 L-12.00 6.00 L-13.00 6.00 L-13.00 7.00 L-12.00 7.00 L-11.00 7.00 L-10.00 7.00 L-9.00 7.00 L-9.00 6.00 L-8.00 6.00 L-8.00 5.00 L-9.00 5.00 L-10.00 5.00 L-10.00 6.00 L-10.00 7.00 L-9.00 7.00 L-9.00 8.00 L-8.00 8.00 L-8.00 7.00 L-8.00 6.00 L-7.00 6.00 L-6.00 6.00 L-6.00 5.00 L-5.00 5.00 L-5.00 4.00 L-6.00 4.00 L-7.00 4.00 L-7.00 5.00 L-7.00 6.00 L-6.00 6.00 L-6.00 7.00 L-5.00 7.00 L-5.00 6.00 L-5.00 5.00 L-6.00 5.00 L-7.00 5.00 L-7.00 6.00 L-8.00 6.00 L-8.00 7.00 L-7.00 7.00 L-6.00 7.00 L-5.00 7.00 L-4.00 7.00 L-4.00 6.00 L-3.00 6.00 L-3.00 5.00 L-4.00 5.00 L-5.00 5.00 L-5.00 4.00 L-5.00 3.00 L-6.00 3.00 L-6.00 2.00 L-7.00 2.00 L-7.00 3.00 L-7.00 4.00 L-7.00 5.00 L-7.00 6.00 L-6.00 6.00 L-6.00 7.00 L-5.00 7.00 L-5.00 6.00 L-5.00 5.00 L-6.00 5.00 L-7.00 5.00 L-7.00 6.00 L-8.00 6.00 L-8.00 7.00 L-7.00 7.00 L-6.00 7.00 L-6.00 8.00 L-6.00 9.00 L-5.00 9.00 L-5.00 10.00 L-4.00 10.00 L-4.00 9.00 L-4.00 8.00 L-5.00 8.00 L-6.00 8.00 L-6.00 9.00 L-7.00 9.00 L-7.00 10.00 L-6.00 10.00 L-5.00 10.00 L-5.00 9.00 L-5.00 8.00 L-6.00 8.00 L-6.00 7.00 L-7.00 7.00 L-7.00 8.00 L-7.00 9.00 L-7.00 10.00 L-7.00 11.00 L-6.00 11.00 L-6.00 12.00 L-5.00 12.00 L-5.00 11.00 L-5.00 10.00 L-6.00 10.00 L-7.00 10.00 L-7.00 11.00 L-8.00 11.00 L-8.00 12.00 L-7.00 12.00 L-6.00 12.00 L-5.00 12.00 L-4.00 12.00 L-4.00 11.00 L-3.00 11.00 L-3.00 10.00 L-4.00 10.00 L-5.00 10.00 L-5.00 11.00 L-5.00 12.00 L-4.00 12.00 L-4.00 13.00 L-3.00 13.00 L-3.00 12.00 L-3.00 11.00 L-2.00 11.00 L-1.00 11.00 L-1.00 10.00 L-0.00 10.00 L-0.00 9.00 L-1.00 9.00 L-2.00 9.00 L-2.00 10.00 L-2.00 11.00 L-1.00 11.00 L-1.00 12.00 L-0.00 12.00 L-0.00 11.00 L-0.00 10.00 L-1.00 10.00 L-2.00 10.00 L-2.00 11.00 L-3.00 11.00 L-3.00 12.00 L-2.00 12.00 L-1.00 12.00 L-0.00 12.00 L1.00 12.00 L1.00 11.00 L2.00 11.00 L2.00 10.00 L1.00 10.00 L-0.00 10.00 L-0.00 11.00 L-0.00 12.00 L1.00 12.00 L1.00 13.00 L2.00 13.00 L2.00 12.00 L2.00 11.00 L2.00 10.00 L2.00 9.00 L1.00 9.00 L1.00 8.00 L-0.00 8.00 L-0.00 9.00 L-0.00 10.00 L1.00 10.00 L2.00 10.00 L2.00 9.00 L3.00 9.00 L3.00 8.00 L2.00 8.00 L1.00 8.00 L1.00 7.00 L1.00 6.00 L-0.00 6.00 L-0.00 5.00 L-1.00 5.00 L-1.00 6.00 L-1.00 7.00 L-0.00 7.00 L1.00 7.00 L1.00 6.00 L2.00 6.00 L2.00 5.00 L1.00 5.00 L-0.00 5.00 L-0.00 6.00 L-0.00 7.00 L1.00 7.00 L1.00 8.00 L2.00 8.00 L2.00 7.00 L2.00 6.00 L2.00 5.00 L2.00 4.00 L1.00 4.00 L1.00 3.00 L-0.00 3.00 L-0.00 4.00 L-0.00 5.00 L-0.00 6.00 L-0.00 7.00 L1.00 7.00 L1.00 8.00 L2.00 8.00 L2.00 7.00 L2.00 6.00 L2.00 5.00 L2.00 4.00 L1.00 4.00 L1.00 3.00 L-0.00 3.00 L-0.00 4.00 L-0.00 5.00 L1.00 5.00 L2.00 5.00 L2.00 4.00 L3.00 4.00 L3.00 3.00 L2.00 3.00 L1.00 3.00 L1.00 2.00 L1.00 1.00 L-0.00 1.00 L-0.00 -0.00 L-1.00 -0.00 L-1.00 1.00 L-1.00 2.00 L-0.00 2.00 L1.00 2.00 L1.00 1.00 L2.00 1.00 L2.00 -0.00 L1.00 -0.00 L-0.00 -0.00 L-0.00 1.00 L-0.00 2.00 L1.00 2.00 L1.00 3.00 L2.00 3.00 L2.00 2.00 L2.00 1.00 L2.00 -0.00 L2.00 -1.00 L1.00 -1.00 L1.00 -2.00 L-0.00 -2.00 L-0.00 -1.00 L-0.00 -0.00 "/>
</g>
</svg>

