<svg viewBox="0 0 1000.000000 960.379456" xmlns="http://www.w3.org/2000/svg" version="1.1">
<!-- SEED 1426771840 -->
<rect width="1000.000000" height="960.379456" fill="#DDAADD" fill-opacity="1.000000"/>
<g transform="scale(14.587892,14.534969) translate(59.525002,36.067947) ">
<path stroke="#000000" stroke-opacity="1.000000" stroke-width="0.300000" fill="none" fill-opacity="1" d="M0.00 0.00 L1.00 0.00 L0.50 0.87 L1.50 0.87 L1.00 1.73 L0.50 0.87 L0.00 1.73 L1.00 1.73 L0.50 2.60 L1.50 2.60 L1.00 3.46 L0.50 2.60 L0.00 3.46 L-0.50 2.60 L0.50 2.60 L-0.00 1.73 L-0.50 2.60 L-1.00 1.73 L-1.50 2.60 L-0.50 2.60 L-1.00 3.46 L0.00 3.46 L-0.50 4.33 L-1.00 3.46 L-1.50 4.33 L-0.50 4.33 L-1.00 5.20 L0.00 5.20 L-0.50 6.06 L-1.00 5.20 L-1.50 6.06 L-2.00 5.20 L-1.00 5.20 L-1.50 4.33 L-2.00 5.20 L-2.50 4.33 L-3.00 5.20 L-3.50 4.33 L-2.50 4.33 L-3.00 3.46 L-2.00 3.46 L-2.50 4.33 L-1.50 4.33 L-2.00 3.46 L-1.00 3.46 L-1.50 2.60 L-2.00 3.46 L-2.50 2.60 L-3.00 3.46 L-3.50 2.60 L-2.50 2.60 L-3.00 1.73 L-3.50 2.60 L-4.00 1.73 L-4.50 2.60 L-3.50 2.60 L-4.00 3.46 L-3.00 3.46 L-3.50 4.33 L-4.00 3.46 L-4.50 4.33 L-3.50 4.33 L-4.00 5.20 L-3.00 5.20 L-3.50 6.06 L-4.00 5.20 L-4.50 6.06 L-5.00 5.20 L-4.00 5.20 L-4.50 4.33 L-5.00 5.20 L-5.50 4.33 L-6.00 5.20 L-5.00 5.20 L-5.50 6.06 L-4.50 6.06 L-5.00 6.93 L-5.50 6.06 L-6.00 6.93 L-5.00 6.93 L-5.50 7.79 L-4.50 7.79 L-5.00 8.66 L-5.50 7.79 L-6.00 8.66 L-6.50 7.79 L-5.50 7.79 L-6.00 6.93 L-6.50 7.79 L-7.00 6.93 L-7.50 7.79 L-8.00 6.93 L-7.00 6.93 L-7.50 6.06 L-6.50 6.06 L-7.00 6.93 L-6.00 6.93 L-6.50 6.06 L-5.50 6.06 L-6.00 5.20 L-6.50 6.06 L-7.00 5.20 L-7.50 6.06 L-8.00 5.20 L-7.00 5.20 L-7.50 4.33 L-8.00 5.20 L-8.50 4.33 L-9.00 5.20 L-9.50 4.33 L-8.50 4.33 L-9.00 3.46 L-8.00 3.46 L-8.50 4.33 L-7.50 4.33 L-8.00 3.46 L-7.00 3.46 L-7.50 2.60 L-6.50 2.60 L-7.00 3.46 L-6.00 3.46 L-6.50 4.33 L-7.00 3.46 L-7.50 4.33 L-6.50 4.33 L-7.00 5.20 L-6.00 5.20 L-6.50 4.33 L-5.50 4.33 L-6.00 3.46 L-5.00 3.46 L-5.50 4.33 L-4.50 4.33 L-5.00 3.46 L-4.00 3.46 L-4.50 2.60 L-5.00 3.46 L-5.50 2.60 L-6.00 3.46 L-6.50 2.60 L-5.50 2.60 L-6.00 1.73 L-6.50 2.60 L-7.00 1.73 L-7.50 2.60 L-8.00 1.73 L-7.00 1.73 L-7.50 0.87 L-6.50 0.87 L-7.00 1.73 L-6.00 1.73 L-6.50 0.87 L-5.50 0.87 L-6.00 -0.00 L-6.50 0.87 L-7.00 -0.00 L-7.50 0.87 L-8.00 -0.00 L-7.00 -0.00 L-7.50 -0.87 L-8.00 -0.00 L-8.50 -0.87 L-9.00 -0.00 L-8.00 -0.00 L-8.50 0.87 L-7.50 0.87 L-8.00 1.73 L-8.50 0.87 L-9.00 1.73 L-8.00 1.73 L-8.50 2.60 L-7.50 2.60 L-8.00 3.46 L-8.50 2.60 L-9.00 3.46 L-9.50 2.60 L-8.50 2.60 L-9.00 1.73 L-9.50 2.60 L-10.00 1.73 L-10.50 2.60 L-9.50 2.60 L-10.00 3.46 L-9.00 3.46 L-9.50 4.33 L-10.00 3.46 L-10.50 4.33 L-9.50 4.33 L-10.00 5.20 L-9.00 5.20 L-9.50 6.06 L-10.00 5.20 L-10.50 6.06 L-11.00 5.20 L-10.00 5.20 L-10.50 4.33 L-11.00 5.20 L-11.50 4.33 L-12.00 5.20 L-12.50 4.33 L-11.50 4.33 L-12.00 3.46 L-11.00 3.46 L-11.50 4.33 L-10.50 4.33 L-11.00 3.46 L-10.00 3.46 L-10.50 2.60 L-11.00 3.46 L-11.50 2.60 L-12.00 3.46 L-12.50 2.60 L-11.50 2.60 L-12.00 1.73 L-12.50 2.60 L-13.00 1.73 L-13.50 2.60 L-12.50 2.60 L-13.00 3.46 L-12.00 3.46 L-12.50 4.33 L-13.00 3.46 L-13.50 4.33 L-12.50 4.33 L-13.00 5.20 L-12.00 5.20 L-12.50 6.06 L-13.00 5.20 L-13.50 6.06 L-14.00 5.20 L-13.00 5.20 L-13.50 4.33 L-14.00 5.20 L-14.50 4.33 L-15.00 5.20 L-14.00 5.20 L-14.50 6.06 L-13.50 6.06 L-14.00 6.93 L-14.50 6.06 L-15.00 6.93 L-14.00 6.93 L-14.50 7.79 L-13.50 7.79 L-14.00 8.66 L-14.50 7.79 L-15.00 8.66 L-15.50 7.79 L-14.50 7.79 L-15.00 6.93 L-15.50 7.79 L-16.00 6.93 L-16.50 7.79 L-17.00 6.93 L-16.00 6.93 L-16.50 6.06 L-15.50 6.06 L-16.00 6.93 L-15.00 6.93 L-15.50 6.06 L-14.50 6.06 L-15.00 5.20 L-15.50 6.06 L-16.00 5.20 L-16.50 6.06 L-17.00 5.20 L-16.00 5.20 L-16.50 4.33 L-17.00 5.20 L-17.50 4.33 L-18.00 5.20 L-18.50 4.33 L-17.50 4.33 L-18.00 3.46 L-17.00 3.46 L-17.50 4.33 L-16.50 4.33 L-17.00 3.46 L-16.00 3.46 L-16.50 2.60 L-15.50 2.60 L-16.00 3.46 L-15.00 3.46 L-15.50 4.33 L-16.00 3.46 L-16.50 4.33 L-15.50 4.33 L-16.00 5.20 L-15.00 5.20 L-15.50 4.33 L-14.50 4.33 L-15.00 3.46 L-14.00 3.46 L-14.50 4.33 L-13.50 4.33 L-14.00 3.46 L-13.00 3.46 L-13.50 2.60 L-14.00 3.46 L-14.50 2.60 L-15.00 3.46 L-15.50 2.60 L-14.50 2.60 L-15.00 1.73 L-15.50 2.60 L-16.00 1.73 L-16.50 2.60 L-17.00 1.73 L-16.00 1.73 L-16.50 0.87 L-15.50 0.87 L-16.00 1.73 L-15.00 1.73 L-15.50 0.87 L-14.50 0.87 L-15.00 -0.00 L-15.50 0.87 L-16.00 -0.00 L-16.50 0.87 L-17.00 -0.00 L-16.00 -0.00 L-16.50 -0.87 L-17.00 -0.00 L-17.50 -0.87 L-18.00 -0.00 L-18.50 -0.87 L-17.50 -0.87 L-18.00 -1.73 L-17.00 -1.73 L-17.50 -0.87 L-16.50 -0.87 L-17.00 -1.73 L-16.00 -1.73 L-16.50 -2.60 L-15.50 -2.60 L-16.00 -1.73 L-15.00 -1.73 L-15.50 -0.87 L-16.00 -1.73 L-16.50 -0.87 L-15.50 -0.87 L-16.00 -0.00 L-15.00 -0.00 L-15.50 -0.87 L-14.50 -0.87 L-15.00 -1.73 L-14.00 -1.73 L-14.50 -0.87 L-13.50 -0.87 L-14.00 -1.73 L-13.00 -1.73 L-13.50 -2.60 L-12.50 -2.60 L-13.00 -1.73 L-12.00 -1.73 L-12.50 -0.87 L-13.00 -1.73 L-13.50 -0.87 L-12.50 -0.87 L-13.00 -0.00 L-12.00 -0.00 L-12.50 0.87 L-13.00 -0.00 L-13.50 0.87 L-14.00 -0.00 L-13.00 -0.00 L-13.50 -0.87 L-14.00 -0.00 L-14.50 -0.87 L-15.00 -0.00 L-14.00 -0.00 L-14.50 0.87 L-13.50 0.87 L-14.00 1.73 L-14.50 0.87 L-15.00 1.73 L-14.00 1.73 L-14.50 2.60 L-13.50 2.60 L-14.00 1.73 L-13.00 1.73 L-13.50 0.87 L-12.50 0.87 L-13.00 1.73 L-12.00 1.73 L-12.50 0.87 L-11.50 0.87 L-12.00 -0.00 L-11.00 -0.00 L-11.50 0.87 L-10.50 0.87 L-11.00 1.73 L-11.50 0.87 L-12.00 1.73 L-11.00 1.73 L-11.50 2.60 L-10.50 2.60 L-11.00 1.73 L-10.00 1.73 L-10.50 0.87 L-9.50 0.87 L-10.00 1.73 L-9.00 1.73 L-9.50 0.87 L-8.50 0.87 L-9.00 -0.00 L-9.50 0.87 L-10.00 -0.00 L-10.50 0.87 L-11.00 -0.00 L-10.00 -0.00 L-10.50 -0.87 L-11.00 -0.00 L-11.50 -0.87 L-12.00 -0.00 L-12.50 -0.87 L-11.50 -0.87 L-12.00 -1.73 L-11.00 -1.73 L-11.50 -0.87 L-10.50 -0.87 L-11.00 -1.73 L-10.00 -1.73 L-10.50 -2.60 L-11.00 -1.73 L-11.50 -2.60 L-12.00 -1.73 L-12.50 -2.60 L-11.50 -2.60 L-12.00 -3.46 L-12.50 -2.60 L-13.00 -3.46 L-13.50 -2.60 L-14.00 -3.46 L-13.00 -3.46 L-13.50 -4.33 L-12.50 -4.33 L-13.00 -3.46 L-12.00 -3.46 L-12.50 -4.33 L-11.50 -4.33 L-12.00 -5.20 L-11.00 -5.20 L-11.50 -4.33 L-10.50 -4.33 L-11.00 -3.46 L-11.50 -4.33 L-12.00 -3.46 L-11.00 -3.46 L-11.50 -2.60 L-10.50 -2.60 L-11.00 -3.46 L-10.00 -3.46 L-10.50 -4.33 L-9.50 -4.33 L-10.00 -3.46 L-9.00 -3.46 L-9.50 -4.33 L-8.50 -4.33 L-9.00 -5.20 L-9.50 -4.33 L-10.00 -5.20 L-10.50 -4.33 L-11.00 -5.20 L-10.00 -5.20 L-10.50 -6.06 L-11.00 -5.20 L-11.50 -6.06 L-12.00 -5.20 L-12.50 -6.06 L-11.50 -6.06 L-12.00 -6.93 L-11.00 -6.93 L-11.50 -6.06 L-10.50 -6.06 L-11.00 -6.93 L-10.00 -6.93 L-10.50 -7.79 L-11.00 -6.93 L-11.50 -7.79 L-12.00 -6.93 L-12.50 -7.79 L-11.50 -7.79 L-12.00 -8.66 L-12.50 -7.79 L-13.00 -8.66 L-13.50 -7.79 L-12.50 -7.79 L-13.00 -6.93 L-12.00 -6.93 L-12.50 -6.06 L-13.00 -6.93 L-13.50 -6.06 L-12.50 -6.06 L-13.00 -5.20 L-12.00 -5.20 L-12.50 -4.33 L-13.00 -5.20 L-13.50 -4.33 L-14.00 -5.20 L-13.00 -5.20 L-13.50 -6.06 L-14.00 -5.20 L-14.50 -6.06 L-15.00 -5.20 L-14.00 -5.20 L-14.50 -4.33 L-13.50 -4.33 L-14.00 -3.46 L-14.50 -4.33 L-15.00 -3.46 L-14.00 -3.46 L-14.50 -2.60 L-13.50 -2.60 L-14.00 -1.73 L-14.50 -2.60 L-15.00 -1.73 L-15.50 -2.60 L-14.50 -2.60 L-15.00 -3.46 L-15.50 -2.60 L-16.00 -3.46 L-16.50 -2.60 L-17.00 -3.46 L-16.00 -3.46 L-16.50 -4.33 L-15.50 -4.33 L-16.00 -3.46 L-15.00 -3.46 L-15.50 -4.33 L-14.50 -4.33 L-15.00 -5.20 L-15.50 -4.33 L-16.00 -5.20 L-16.50 -4.33 L-17.00 -5.20 L-16.00 -5.20 L-16.50 -6.06 L-17.00 -5.20 L-17.50 -6.06 L-18.00 -5.20 L-17.00 -5.20 L-17.50 -4.33 L-16.50 -4.33 L-17.00 -3.46 L-17.50 -4.33 L-18.00 -3.46 L-17.00 -3.46 L-17.50 -2.60 L-16.50 -2.60 L-17.00 -1.73 L-17.50 -2.60 L-18.00 -1.73 L-18.50 -2.60 L-17.50 -2.60 L-18.00 -3.46 L-18.50 -2.60 L-19.00 -3.46 L-19.50 -2.60 L-18.50 -2.60 L-19.00 -1.73 L-18.00 -1.73 L-18.50 -0.87 L-19.00 -1.73 L-19.50 -0.87 L-18.50 -0.87 L-19.00 -0.00 L-18.00 -0.00 L-18.50 0.87 L-19.00 -0.00 L-19.50 0.87 L-20.00 -0.00 L-19.00 -0.00 L-19.50 -0.87 L-20.00 -0.00 L-20.50 -0.87 L-21.00 -0.00 L-21.50 -0.87 L-20.50 -0.87 L-21.00 -1.73 L-20.00 -1.73 L-20.50 -0.87 L-19.50 -0.87 L-20.00 -1.73 L-19.00 -1.73 L-19.50 -2.60 L-20.00 -1.73 L-20.50 -2.60 L-21.00 -1.73 L-21.50 -2.60 L-20.50 -2.60 L-21.00 -3.46 L-21.50 -2.60 L-22.00 -3.46 L-22.50 -2.60 L-23.00 -3.46 L-22.00 -3.46 L-22.50 -4.33 L-21.50 -4.33 L-22.00 -3.46 L-21.00 -3.46 L-21.50 -4.33 L-20.50 -4.33 L-21.00 -5.20 L-20.00 -5.20 L-20.50 -4.33 L-19.50 -4.33 L-20.00 -3.46 L-20.50 -4.33 L-21.00 -3.46 L-20.00 -3.46 L-20.50 -2.60 L-19.50 -2.60 L-20.00 -3.46 L-19.00 -3.46 L-19.50 -4.33 L-18.50 -4.33 L-19.00 -3.46 L-18.00 -3.46 L-18.50 -4.33 L-17.50 -4.33 L-18.00 -5.20 L-18.50 -4.33 L-19.00 -5.20 L-19.50 -4.33 L-20.00 -5.20 L-19.00 -5.20 L-19.50 -6.06 L-20.00 -5.20 L-20.50 -6.06 L-21.00 -5.20 L-21.50 -6.06 L-20.50 -6.06 L-21.00 -6.93 L-20.00 -6.93 L-20.50 -6.06 L-19.50 -6.06 L-20.00 -6.93 L-19.00 -6.93 L-19.50 -7.79 L-20.00 -6.93 L-20.50 -7.79 L-21.00 -6.93 L-21.50 -7.79 L-20.50 -7.79 L-21.00 -8.66 L-21.50 -7.79 L-22.00 -8.66 L-22.50 -7.79 L-21.50 -7.79 L-22.00 -6.93 L-21.00 -6.93 L-21.50 -6.06 L-22.00 -6.93 L-22.50 -6.06 L-21.50 -6.06 L-22.00 -5.20 L-21.00 -5.20 L-21.50 -4.33 L-22.00 -5.20 L-22.50 -4.33 L-23.00 -5.20 L-22.00 -5.20 L-22.50 -6.06 L-23.00 -5.20 L-23.50 -6.06 L-24.00 -5.20 L-23.00 -5.20 L-23.50 -4.33 L-22.50 -4.33 L-23.00 -3.46 L-23.50 -4.33 L-24.00 -3.46 L-23.00 -3.46 L-23.50 -2.60 L-22.50 -2.60 L-23.00 -1.73 L-23.50 -2.60 L-24.00 -1.73 L-24.50 -2.60 L-23.50 -2.60 L-24.00 -3.46 L-24.50 -2.60 L-25.00 -3.46 L-25.50 -2.60 L-26.00 -3.46 L-25.00 -3.46 L-25.50 -4.33 L-24.50 -4.33 L-25.00 -3.46 L-24.00 -3.46 L-24.50 -4.33 L-23.50 -4.33 L-24.00 -5.20 L-24.50 -4.33 L-25.00 -5.20 L-25.50 -4.33 L-26.00 -5.20 L-25.00 -5.20 L-25.50 -6.06 L-26.00 -5.20 L-26.50 -6.06 L-27.00 -5.20 L-26.00 -5.20 L-26.50 -4.33 L-25.50 -4.33 L-26.00 -3.46 L-26.50 -4.33 L-27.00 -3.46 L-26.00 -3.46 L-26.50 -2.60 L-25.50 -2.60 L-26.00 -1.73 L-26.50 -2.60 L-27.00 -1.73 L-27.50 -2.60 L-26.50 -2.60 L-27.00 -3.46 L-27.50 -2.60 L-28.00 -3.46 L-28.50 -2.60 L-27.50 -2.60 L-28.00 -1.73 L-27.00 -1.73 L-27.50 -0.87 L-28.00 -1.73 L-28.50 -0.87 L-27.50 -0.87 L-28.00 -0.00 L-27.00 -0.00 L-27.50 0.87 L-28.00 -0.00 L-28.50 0.87 L-29.00 -0.00 L-28.00 -0.00 L-28.50 -0.87 L-29.00 -0.00 L-29.50 -0.87 L-30.00 -0.00 L-30.50 -0.87 L-29.50 -0.87 L-30.00 -1.73 L-29.00 -1.73 L-29.50 -0.87 L-28.50 -0.87 L-29.00 -1.73 L-28.00 -1.73 L-28.50 -2.60 L-29.00 -1.73 L-29.50 -2.60 L-30.00 -1.73 L-30.50 -2.60 L-29.50 -2.60 L-30.00 -3.46 L-30.50 -2.60 L-31.00 -3.46 L-31.50 -2.60 L-32.00 -3.46 L-31.00 -3.46 L-31.50 -4.33 L-30.50 -4.33 L-31.00 -3.46 L-30.00 -3.46 L-30.50 -4.33 L-29.50 -4.33 L-30.00 -5.20 L-29.00 -5.20 L-29.50 -4.33 L-28.50 -4.33 L-29.00 -3.46 L-29.50 -4.33 L-30.00 -3.46 L-29.00 -3.46 L-29.50 -2.60 L-28.50 -2.60 L-29.00 -3.46 L-28.00 -3.46 L-28.50 -4.33 L-27.50 -4.33 L-28.00 -3.46 L-27.00 -3.46 L-27.50 -4.33 L-26.50 -4.33 L-27.00 -5.20 L-27.50 -4.33 L-28.00 -5.20 L-28.50 -4.33 L-29.00 -5.20 L-28.00 -5.20 L-28.50 -6.06 L-29.00 -5.20 L-29.50 -6.06 L-30.00 -5.20 L-30.50 -6.06 L-29.50 -6.06 L-30.00 -6.93 L-29.00 -6.93 L-29.50 -6.06 L-28.50 -6.06 L-29.00 -6.93 L-28.00 -6.93 L-28.50 -7.79 L-29.00 -6.93 L-29.50 -7.79 L-30.00 -6.93 L-30.50 -7.79 L-29.50 -7.79 L-30.00 -8.66 L-30.50 -7.79 L-31.00 -8.66 L-31.50 -7.79 L-32.00 -8.66 L-31.00 -8.66 L-31.50 -9.53 L-30.50 -9.53 L-31.00 -8.66 L-30.00 -8.66 L-30.50 -9.53 L-29.50 -9.53 L-30.00 -10.39 L-29.00 -10.39 L-29.50 -9.53 L-28.50 -9.53 L-29.00 -8.66 L-29.50 -9.53 L-30.00 -8.66 L-29.00 -8.66 L-29.50 -7.79 L-28.50 -7.79 L-29.00 -8.66 L-28.00 -8.66 L-28.50 -9.53 L-27.50 -9.53 L-28.00 -8.66 L-27.00 -8.66 L-27.50 -9.53 L-26.50 -9.53 L-27.00 -10.39 L-26.00 -10.39 L-26.50 -9.53 L-25.50 -9.53 L-26.00 -8.66 L-26.50 -9.53 L-27.00 -8.66 L-26.00 -8.66 L-26.50 -7.79 L-25.50 -7.79 L-26.00 -6.93 L-26.50 -7.79 L-27.00 -6.93 L-27.50 -7.79 L-26.50 -7.79 L-27.00 -8.66 L-27.50 -7.79 L-28.00 -8.66 L-28.50 -7.79 L-27.50 -7.79 L-28.00 -6.93 L-27.00 -6.93 L-27.50 -6.06 L-28.00 -6.93 L-28.50 -6.06 L-27.50 -6.06 L-28.00 -5.20 L-27.00 -5.20 L-27.50 -6.06 L-26.50 -6.06 L-27.00 -6.93 L-26.00 -6.93 L-26.50 -6.06 L-25.50 -6.06 L-26.00 -6.93 L-25.00 -6.93 L-25.50 -7.79 L-24.50 -7.79 L-25.00 -6.93 L-24.00 -6.93 L-24.50 -6.06 L-25.00 -6.93 L-25.50 -6.06 L-24.50 -6.06 L-25.00 -5.20 L-24.00 -5.20 L-24.50 -6.06 L-23.50 -6.06 L-24.00 -6.93 L-23.00 -6.93 L-23.50 -6.06 L-22.50 -6.06 L-23.00 -6.93 L-22.00 -6.93 L-22.50 -7.79 L-23.00 -6.93 L-23.50 -7.79 L-24.00 -6.93 L-24.50 -7.79 L-23.50 -7.79 L-24.00 -8.66 L-24.50 -7.79 L-25.00 -8.66 L-25.50 -7.79 L-26.00 -8.66 L-25.00 -8.66 L-25.50 -9.53 L-24.50 -9.53 L-25.00 -8.66 L-24.00 -8.66 L-24.50 -9.53 L-23.50 -9.53 L-24.00 -10.39 L-24.50 -9.53 L-25.00 -10.39 L-25.50 -9.53 L-26.00 -10.39 L-25.00 -10.39 L-25.50 -11.26 L-26.00 -10.39 L-26.50 -11.26 L-27.00 -10.39 L-27.50 -11.26 L-26.50 -11.26 L-27.00 -12.12 L-26.00 -12.12 L-26.50 -11.26 L-25.50 -11.26 L-26.00 -12.12 L-25.00 -12.12 L-25.50 -12.99 L-24.50 -12.99 L-25.00 -12.12 L-24.00 -12.12 L-24.50 -11.26 L-25.00 -12.12 L-25.50 -11.26 L-24.50 -11.26 L-25.00 -10.39 L-24.00 -10.39 L-24.50 -11.26 L-23.50 -11.26 L-24.00 -12.12 L-23.00 -12.12 L-23.50 -11.26 L-22.50 -11.26 L-23.00 -12.12 L-22.00 -12.12 L-22.50 -12.99 L-23.00 -12.12 L-23.50 -12.99 L-24.00 -12.12 L-24.50 -12.99 L-23.50 -12.99 L-24.00 -13.86 L-24.50 -12.99 L-25.00 -13.86 L-25.50 -12.99 L-26.00 -13.86 L-25.00 -13.86 L-25.50 -14.72 L-24.50 -14.72 L-25.00 -13.86 L-24.00 -13.86 L-24.50 -14.72 L-23.50 -14.72 L-24.00 -15.59 L-24.50 -14.72 L-25.00 -15.59 L-25.50 -14.72 L-26.00 -15.59 L-25.00 -15.59 L-25.50 -16.45 L-26.00 -15.59 L-26.50 -16.45 L-27.00 -15.59 L-27.50 -16.45 L-26.50 -16.45 L-27.00 -17.32 L-26.00 -17.32 L-26.50 -16.45 L-25.50 -16.45 L-26.00 -17.32 L-25.00 -17.32 L-25.50 -18.19 L-24.50 -18.19 L-25.00 -17.32 L-24.00 -17.32 L-24.50 -16.45 L-25.00 -17.32 L-25.50 -16.45 L-24.50 -16.45 L-25.00 -15.59 L-24.00 -15.59 L-24.50 -16.45 L-23.50 -16.45 L-24.00 -17.32 L-23.00 -17.32 L-23.50 -16.45 L-22.50 -16.45 L-23.00 -17.32 L-22.00 -17.32 L-22.50 -18.19 L-21.50 -18.19 L-22.00 -17.32 L-21.00 -17.32 L-21.50 -16.45 L-22.00 -17.32 L-22.50 -16.45 L-21.50 -16.45 L-22.00 -15.59 L-21.00 -15.59 L-21.50 -14.72 L-22.00 -15.59 L-22.50 -14.72 L-23.00 -15.59 L-22.00 -15.59 L-22.50 -16.45 L-23.00 -15.59 L-23.50 -16.45 L-24.00 -15.59 L-23.00 -15.59 L-23.50 -14.72 L-22.50 -14.72 L-23.00 -13.86 L-23.50 -14.72 L-24.00 -13.86 L-23.00 -13.86 L-23.50 -12.99 L-22.50 -12.99 L-23.00 -13.86 L-22.00 -13.86 L-22.50 -14.72 L-21.50 -14.72 L-22.00 -13.86 L-21.00 -13.86 L-21.50 -14.72 L-20.50 -14.72 L-21.00 -15.59 L-20.00 -15.59 L-20.50 -14.72 L-19.50 -14.72 L-20.00 -13.86 L-20.50 -14.72 L-21.00 -13.86 L-20.00 -13.86 L-20.50 -12.99 L-19.50 -12.99 L-20.00 -13.86 L-19.00 -13.86 L-19.50 -14.72 L-18.50 -14.72 L-19.00 -13.86 L-18.00 -13.86 L-18.50 -14.72 L-17.50 -14.72 L-18.00 -15.59 L-17.00 -15.59 L-17.50 -14.72 L-16.50 -14.72 L-17.00 -13.86 L-17.50 -14.72 L-18.00 -13.86 L-17.00 -13.86 L-17.50 -12.99 L-16.50 -12.99 L-17.00 -12.12 L-17.50 -12.99 L-18.00 -12.12 L-18.50 -12.99 L-17.50 -12.99 L-18.00 -13.86 L-18.50 -12.99 L-19.00 -13.86 L-19.50 -12.99 L-18.50 -12.99 L-19.00 -12.12 L-18.00 -12.12 L-18.50 -11.26 L-19.00 -12.12 L-19.50 -11.26 L-18.50 -11.26 L-19.00 -10.39 L-18.00 -10.39 L-18.50 -9.53 L-19.00 -10.39 L-19.50 -9.53 L-20.00 -10.39 L-19.00 -10.39 L-19.50 -11.26 L-20.00 -10.39 L-20.50 -11.26 L-21.00 -10.39 L-21.50 -11.26 L-20.50 -11.26 L-21.00 -12.12 L-20.00 -12.12 L-20.50 -11.26 L-19.50 -11.26 L-20.00 -12.12 L-19.00 -12.12 L-19.50 -12.99 L-20.00 -12.12 L-20.50 -12.99 L-21.00 -12.12 L-21.50 -12.99 L-20.50 -12.99 L-21.00 -13.86 L-21.50 -12.99 L-22.00 -13.86 L-22.50 -12.99 L-21.50 -12.99 L-22.00 -12.12 L-21.00 -12.12 L-21.50 -11.26 L-22.00 -12.12 L-22.50 -11.26 L-21.50 -11.26 L-22.00 -10.39 L-21.00 -10.39 L-21.50 -9.53 L-22.00 -10.39 L-22.50 -9.53 L-23.00 -10.39 L-22.00 -10.39 L-22.50 -11.26 L-23.00 -10.39 L-23.50 -11.26 L-24.00 -10.39 L-23.00 -10.39 L-23.50 -9.53 L-22.50 -9.53 L-23.00 -8.66 L-23.50 -9.53 L-24.00 -8.66 L-23.00 -8.66 L-23.50 -7.79 L-22.50 -7.79 L-23.00 -8.66 L-22.00 -8.66 L-22.50 -9.53 L-21.50 -9.53 L-22.00 -8.66 L-21.00 -8.66 L-21.50 -9.53 L-20.50 -9.53 L-21.00 -10.39 L-20.00 -10.39 L-20.50 -9.53 L-19.50 -9.53 L-20.00 -8.66 L-20.50 -9.53 L-21.00 -8.66 L-20.00 -8.66 L-20.50 -7.79 L-19.50 -7.79 L-20.00 -8.66 L-19.00 -8.66 L-19.50 -9.53 L-18.50 -9.53 L-19.00 -8.66 L-18.00 -8.66 L-18.50 -9.53 L-17.50 -9.53 L-18.00 -10.39 L-17.00 -10.39 L-17.50 -9.53 L-16.50 -9.53 L-17.00 -8.66 L-17.50 -9.53 L-18.00 -8.66 L-17.00 -8.66 L-17.50 -7.79 L-16.50 -7.79 L-17.00 -6.93 L-17.50 -7.79 L-18.00 -6.93 L-18.50 -7.79 L-17.50 -7.79 L-18.00 -8.66 L-18.50 -7.79 L-19.00 -8.66 L-19.50 -7.79 L-18.50 -7.79 L-19.00 -6.93 L-18.00 -6.93 L-18.50 -6.06 L-19.00 -6.93 L-19.50 -6.06 L-18.50 -6.06 L-19.00 -5.20 L-18.00 -5.20 L-18.50 -6.06 L-17.50 -6.06 L-18.00 -6.93 L-17.00 -6.93 L-17.50 -6.06 L-16.50 -6.06 L-17.00 -6.93 L-16.00 -6.93 L-16.50 -7.79 L-15.50 -7.79 L-16.00 -6.93 L-15.00 -6.93 L-15.50 -6.06 L-16.00 -6.93 L-16.50 -6.06 L-15.50 -6.06 L-16.00 -5.20 L-15.00 -5.20 L-15.50 -6.06 L-14.50 -6.06 L-15.00 -6.93 L-14.00 -6.93 L-14.50 -6.06 L-13.50 -6.06 L-14.00 -6.93 L-13.00 -6.93 L-13.50 -7.79 L-14.00 -6.93 L-14.50 -7.79 L-15.00 -6.93 L-15.50 -7.79 L-14.50 -7.79 L-15.00 -8.66 L-15.50 -7.79 L-16.00 -8.66 L-16.50 -7.79 L-17.00 -8.66 L-16.00 -8.66 L-16.50 -9.53 L-15.50 -9.53 L-16.00 -8.66 L-15.00 -8.66 L-15.50 -9.53 L-14.50 -9.53 L-15.00 -10.39 L-15.50 -9.53 L-16.00 -10.39 L-16.50 -9.53 L-17.00 -10.39 L-16.00 -10.39 L-16.50 -11.26 L-17.00 -10.39 L-17.50 -11.26 L-18.00 -10.39 L-18.50 -11.26 L-17.50 -11.26 L-18.00 -12.12 L-17.00 -12.12 L-17.50 -11.26 L-16.50 -11.26 L-17.00 -12.12 L-16.00 -12.12 L-16.50 -12.99 L-15.50 -12.99 L-16.00 -12.12 L-15.00 -12.12 L-15.50 -11.26 L-16.00 -12.12 L-16.50 -11.26 L-15.50 -11.26 L-16.00 -10.39 L-15.00 -10.39 L-15.50 -11.26 L-14.50 -11.26 L-15.00 -12.12 L-14.00 -12.12 L-14.50 -11.26 L-13.50 -11.26 L-14.00 -12.12 L-13.00 -12.12 L-13.50 -12.99 L-14.00 -12.12 L-14.50 -12.99 L-15.00 -12.12 L-15.50 -12.99 L-14.50 -12.99 L-15.00 -13.86 L-15.50 -12.99 L-16.00 -13.86 L-16.50 -12.99 L-17.00 -13.86 L-16.00 -13.86 L-16.50 -14.72 L-15.50 -14.72 L-16.00 -13.86 L-15.00 -13.86 L-15.50 -14.72 L-14.50 -14.72 L-15.00 -15.59 L-15.50 -14.72 L-16.00 -15.59 L-16.50 -14.72 L-17.00 -15.59 L-16.00 -15.59 L-16.50 -16.45 L-17.00 -15.59 L-17.50 -16.45 L-18.00 -15.59 L-18.50 -16.45 L-17.50 -16.45 L-18.00 -17.32 L-17.00 -17.32 L-17.50 -16.45 L-16.50 -16.45 L-17.00 -17.32 L-16.00 -17.32 L-16.50 -18.19 L-15.50 -18.19 L-16.00 -17.32 L-15.00 -17.32 L-15.50 -16.45 L-16.00 -17.32 L-16.50 -16.45 L-15.50 -16.45 L-16.00 -15.59 L-15.00 -15.59 L-15.50 -16.45 L-14.50 -16.45 L-15.00 -17.32 L-14.00 -17.32 L-14.50 -16.45 L-13.50 -16.45 L-14.00 -17.32 L-13.00 -17.32 L-13.50 -18.19 L-12.50 -18.19 L-13.00 -17.32 L-12.00 -17.32 L-12.50 -16.45 L-13.00 -17.32 L-13.50 -16.45 L-12.50 -16.45 L-13.00 -15.59 L-12.00 -15.59 L-12.50 -14.72 L-13.00 -15.59 L-13.50 -14.72 L-14.00 -15.59 L-13.00 -15.59 L-13.50 -16.45 L-14.00 -15.59 L-14.50 -16.45 L-15.00 -15.59 L-14.00 -15.59 L-14.50 -14.72 L-13.50 -14.72 L-14.00 -13.86 L-14.50 -14.72 L-15.00 -13.86 L-14.00 -13.86 L-14.50 -12.99 L-13.50 -12.99 L-14.00 -13.86 L-13.00 -13.86 L-13.50 -14.72 L-12.50 -14.72 L-13.00 -13.86 L-12.00 -13.86 L-12.50 -14.72 L-11.50 -14.72 L-12.00 -15.59 L-11.00 -15.59 L-11.50 -14.72 L-10.50 -14.72 L-11.00 -13.86 L-11.50 -14.72 L-12.00 -13.86 L-11.00 -13.86 L-11.50 -12.99 L-10.50 -12.99 L-11.00 -13.86 L-10.00 -13.86 L-10.50 -14.72 L-9.50 -14.72 L-10.00 -13.86 L-9.00 -13.86 L-9.50 -14.72 L-8.50 -14.72 L-9.00 -15.59 L-9.50 -14.72 L-10.00 -15.59 L-10.50 -14.72 L-11.00 -15.59 L-10.00 -15.59 L-10.50 -16.45 L-11.00 -15.59 L-11.50 -16.45 L-12.00 -15.59 L-12.50 -16.45 L-11.50 -16.45 L-12.00 -17.32 L-11.00 -17.32 L-11.50 -16.45 L-10.50 -16.45 L-11.00 -17.32 L-10.00 -17.32 L-10.50 -18.19 L-11.00 -17.32 L-11.50 -18.19 L-12.00 -17.32 L-12.50 -18.19 L-11.50 -18.19 L-12.00 -19.05 L-12.50 -18.19 L-13.00 -19.05 L-13.50 -18.19 L-14.00 -19.05 L-13.00 -19.05 L-13.50 -19.92 L-12.50 -19.92 L-13.00 -19.05 L-12.00 -19.05 L-12.50 -19.92 L-11.50 -19.92 L-12.00 -20.78 L-11.00 -20.78 L-11.50 -19.92 L-10.50 -19.92 L-11.00 -19.05 L-11.50 -19.92 L-12.00 -19.05 L-11.00 -19.05 L-11.50 -18.19 L-10.50 -18.19 L-11.00 -19.05 L-10.00 -19.05 L-10.50 -19.92 L-9.50 -19.92 L-10.00 -19.05 L-9.00 -19.05 L-9.50 -19.92 L-8.50 -19.92 L-9.00 -20.78 L-9.50 -19.92 L-10.00 -20.78 L-10.50 -19.92 L-11.00 -20.78 L-10.00 -20.78 L-10.50 -21.65 L-11.00 -20.78 L-11.50 -21.65 L-12.00 -20.78 L-12.50 -21.65 L-11.50 -21.65 L-12.00 -22.52 L-11.00 -22.52 L-11.50 -21.65 L-10.50 -21.65 L-11.00 -22.52 L-10.00 -22.52 L-10.50 -23.38 L-11.00 -22.52 L-11.50 -23.38 L-12.00 -22.52 L-12.50 -23.38 L-11.50 -23.38 L-12.00 -24.25 L-12.50 -23.38 L-13.00 -24.25 L-13.50 -23.38 L-12.50 -23.38 L-13.00 -22.52 L-12.00 -22.52 L-12.50 -21.65 L-13.00 -22.52 L-13.50 -21.65 L-12.50 -21.65 L-13.00 -20.78 L-12.00 -20.78 L-12.50 -19.92 L-13.00 -20.78 L-13.50 -19.92 L-14.00 -20.78 L-13.00 -20.78 L-13.50 -21.65 L-14.00 -20.78 L-14.50 -21.65 L-15.00 -20.78 L-14.00 -20.78 L-14.50 -19.92 L-13.50 -19.92 L-14.00 -19.05 L-14.50 -19.92 L-15.00 -19.05 L-14.00 -19.05 L-14.50 -18.19 L-13.50 -18.19 L-14.00 -17.32 L-14.50 -18.19 L-15.00 -17.32 L-15.50 -18.19 L-14.50 -18.19 L-15.00 -19.05 L-15.50 -18.19 L-16.00 -19.05 L-16.50 -18.19 L-17.00 -19.05 L-16.00 -19.05 L-16.50 -19.92 L-15.50 -19.92 L-16.00 -19.05 L-15.00 -19.05 L-15.50 -19.92 L-14.50 -19.92 L-15.00 -20.78 L-15.50 -19.92 L-16.00 -20.78 L-16.50 -19.92 L-17.00 -20.78 L-16.00 -20.78 L-16.50 -21.65 L-17.00 -20.78 L-17.50 -21.65 L-18.00 -20.78 L-17.00 -20.78 L-17.50 -19.92 L-16.50 -19.92 L-17.00 -19.05 L-17.50 -19.92 L-18.00 -19.05 L-17.00 -19.05 L-17.50 -18.19 L-16.50 -18.19 L-17.00 -17.32 L-17.50 -18.19 L-18.00 -17.32 L-18.50 -18.19 L-17.50 -18.19 L-18.00 -19.05 L-18.50 -18.19 L-19.00 -19.05 L-19.50 -18.19 L-18.50 -18.19 L-19.00 -17.32 L-18.00 -17.32 L-18.50 -16.45 L-19.00 -17.32 L-19.50 -16.45 L-18.50 -16.45 L-19.00 -15.59 L-18.00 -15.59 L-18.50 -14.72 L-19.00 -15.59 L-19.50 -14.72 L-20.00 -15.59 L-19.00 -15.59 L-19.50 -16.45 L-20.00 -15.59 L-20.50 -16.45 L-21.00 -15.59 L-21.50 -16.45 L-20.50 -16.45 L-21.00 -17.32 L-20.00 -17.32 L-20.50 -16.45 L-19.50 -16.45 L-20.00 -17.32 L-19.00 -17.32 L-19.50 -18.19 L-20.00 -17.32 L-20.50 -18.19 L-21.00 -17.32 L-21.50 -18.19 L-20.50 -18.19 L-21.00 -19.05 L-21.50 -18.19 L-22.00 -19.05 L-22.50 -18.19 L-23.00 -19.05 L-22.00 -19.05 L-22.50 -19.92 L-21.50 -19.92 L-22.00 -19.05 L-21.00 -19.05 L-21.50 -19.92 L-20.50 -19.92 L-21.00 -20.78 L-20.00 -20.78 L-20.50 -19.92 L-19.50 -19.92 L-20.00 -19.05 L-20.50 -19.92 L-21.00 -19.05 L-20.00 -19.05 L-20.50 -18.19 L-19.50 -18.19 L-20.00 -19.05 L-19.00 -19.05 L-19.50 -19.92 L-18.50 -19.92 L-19.00 -19.05 L-18.00 -19.05 L-18.50 -19.92 L-17.50 -19.92 L-18.00 -20.78 L-18.50 -19.92 L-19.00 -20.78 L-19.50 -19.92 L-20.00 -20.78 L-19.00 -20.78 L-19.50 -21.65 L-20.00 -20.78 L-20.50 -21.65 L-21.00 -20.78 L-21.50 -21.65 L-20.50 -21.65 L-21.00 -22.52 L-20.00 -22.52 L-20.50 -21.65 L-19.50 -21.65 L-20.00 -22.52 L-19.00 -22.52 L-19.50 -23.38 L-20.00 -22.52 L-20.50 -23.38 L-21.00 -22.52 L-21.50 -23.38 L-20.50 -23.38 L-21.00 -24.25 L-21.50 -23.38 L-22.00 -24.25 L-22.50 -23.38 L-21.50 -23.38 L-22.00 -22.52 L-21.00 -22.52 L-21.50 -21.65 L-22.00 -22.52 L-22.50 -21.65 L-21.50 -21.65 L-22.00 -20.78 L-21.00 -20.78 L-21.50 -19.92 L-22.00 -20.78 L-22.50 -19.92 L-23.00 -20.78 L-22.00 -20.78 L-22.50 -21.65 L-23.00 -20.78 L-23.50 -21.65 L-24.00 -20.78 L-23.00 -20.78 L-23.50 -19.92 L-22.50 -19.92 L-23.00 -19.05 L-23.50 -19.92 L-24.00 -19.05 L-23.00 -19.05 L-23.50 -18.19 L-22.50 -18.19 L-23.00 -17.32 L-23.50 -18.19 L-24.00 -17.32 L-24.50 -18.19 L-23.50 -18.19 L-24.00 -19.05 L-24.50 -18.19 L-25.00 -19.05 L-25.50 -18.19 L-26.00 -19.05 L-25.00 -19.05 L-25.50 -19.92 L-24.50 -19.92 L-25.00 -19.05 L-24.00 -19.05 L-24.50 -19.92 L-23.50 -19.92 L-24.00 -20.78 L-24.50 -19.92 L-25.00 -20.78 L-25.50 -19.92 L-26.00 -20.78 L-25.00 -20.78 L-25.50 -21.65 L-26.00 -20.78 L-26.50 -21.65 L-27.00 -20.78 L-26.00 -20.78 L-26.50 -19.92 L-25.50 -19.92 L-26.00 -19.05 L-26.50 -19.92 L-27.00 -19.05 L-26.00 -19.05 L-26.50 -18.19 L-25.50 -18.19 L-26.00 -17.32 L-26.50 -18.19 L-27.00 -17.32 L-27.50 -18.19 L-26.50 -18.19 L-27.00 -19.05 L-27.50 -18.19 L-28.00 -19.05 L-28.50 -18.19 L-27.50 -18.19 L-28.00 -17.32 L-27.00 -17.32 L-27.50 -16.45 L-28.00 -17.32 L-28.50 -16.45 L-27.50 -16.45 L-28.00 -15.59 L-27.00 -15.59 L-27.50 -14.72 L-28.00 -15.59 L-28.50 -14.72 L-29.00 -15.59 L-28.00 -15.59 L-28.50 -16.45 L-29.00 -15.59 L-29.50 -16.45 L-30.00 -15.59 L-30.50 -16.45 L-29.50 -16.45 L-30.00 -17.32 L-29.00 -17.32 L-29.50 -16.45 L-28.50 -16.45 L-29.00 -17.32 L-28.00 -17.32 L-28.50 -18.19 L-29.00 -17.32 L-29.50 -18.19 L-30.00 -17.32 L-30.50 -18.19 L-29.50 -18.19 L-30.00 -19.05 L-30.50 -18.19 L-31.00 -19.05 L-31.50 -18.19 L-32.00 -19.05 L-31.00 -19.05 L-31.50 -19.92 L-30.50 -19.92 L-31.00 -19.05 L-30.00 -19.05 L-30.50 -19.92 L-29.50 -19.92 L-30.00 -20.78 L-29.00 -20.78 L-29.50 -19.92 L-28.50 -19.92 L-29.00 -19.05 L-29.50 -19.92 L-30.00 -19.05 L-29.00 -19.05 L-29.50 -18.19 L-28.50 -18.19 L-29.00 -19.05 L-28.00 -19.05 L-28.50 -19.92 L-27.50 -19.92 L-28.00 -19.05 L-27.00 -19.05 L-27.50 -19.92 L-26.50 -19.92 L-27.00 -20.78 L-27.50 -19.92 L-28.00 -20.78 L-28.50 -19.92 L-29.00 -20.78 L-28.00 -20.78 L-28.50 -21.65 L-29.00 -20.78 L-29.50 -21.65 L-30.00 -20.78 L-30.50 -21.65 L-29.50 -21.65 L-30.00 -22.52 L-29.00 -22.52 L-29.50 -21.65 L-28.50 -21.65 L-29.00 -22.52 L-28.00 -22.52 L-28.50 -23.38 L-29.00 -22.52 L-29.50 -23.38 L-30.00 -22.52 L-30.50 -23.38 L-29.50 -23.38 L-30.00 -24.25 L-30.50 -23.38 L-31.00 -24.25 L-31.50 -23.38 L-32.00 -24.25 L-31.00 -24.25 L-31.50 -25.11 L-30.50 -25.11 L-31.00 -24.25 L-30.00 -24.25 L-30.50 -25.11 L-29.50 -25.11 L-30.00 -25.98 L-29.00 -25.98 L-29.50 -25.11 L-28.50 -25.11 L-29.00 -24.25 L-29.50 -25.11 L-30.00 -24.25 L-29.00 -24.25 L-29.50 -23.38 L-28.50 -23.38 L-29.00 -24.25 L-28.00 -24.25 L-28.50 -25.11 L-27.50 -25.11 L-28.00 -24.25 L-27.00 -24.25 L-27.50 -25.11 L-26.50 -25.11 L-27.00 -25.98 L-26.00 -25.98 L-26.50 -25.11 L-25.50 -25.11 L-26.00 -24.25 L-26.50 -25.11 L-27.00 -24.25 L-26.00 -24.25 L-26.50 -23.38 L-25.50 -23.38 L-26.00 -22.52 L-26.50 -23.38 L-27.00 -22.52 L-27.50 -23.38 L-26.50 -23.38 L-27.00 -24.25 L-27.50 -23.38 L-28.00 -24.25 L-28.50 -23.38 L-27.50 -23.38 L-28.00 -22.52 L-27.00 -22.52 L-27.50 -21.65 L-28.00 -22.52 L-28.50 -21.65 L-27.50 -21.65 L-28.00 -20.78 L-27.00 -20.78 L-27.50 -21.65 L-26.50 -21.65 L-27.00 -22.52 L-26.00 -22.52 L-26.50 -21.65 L-25.50 -21.65 L-26.00 -22.52 L-25.00 -22.52 L-25.50 -23.38 L-24.50 -23.38 L-25.00 -22.52 L-24.00 -22.52 L-24.50 -21.65 L-25.00 -22.52 L-25.50 -21.65 L-24.50 -21.65 L-25.00 -20.78 L-24.00 -20.78 L-24.50 -21.65 L-23.50 -21.65 L-24.00 -22.52 L-23.00 -22.52 L-23.50 -21.65 L-22.50 -21.65 L-23.00 -22.52 L-22.00 -22.52 L-22.50 -23.38 L-23.00 -22.52 L-23.50 -23.38 L-24.00 -22.52 L-24.50 -23.38 L-23.50 -23.38 L-24.00 -24.25 L-24.50 -23.38 L-25.00 -24.25 L-25.50 -23.38 L-26.00 -24.25 L-25.00 -24.25 L-25.50 -25.11 L-24.50 -25.11 L-25.00 -24.25 L-24.00 -24.25 L-24.50 -25.11 L-23.50 -25.11 L-24.00 -25.98 L-24.50 -25.11 L-25.00 -25.98 L-25.50 -25.11 L-26.00 -25.98 L-25.00 -25.98 L-25.50 -26.85 L-26.00 -25.98 L-26.50 -26.85 L-27.00 -25.98 L-27.50 -26.85 L-26.50 -26.85 L-27.00 -27.71 L-26.00 -27.71 L-26.50 -26.85 L-25.50 -26.85 L-26.00 -27.71 L-25.00 -27.71 L-25.50 -28.58 L-24.50 -28.58 L-25.00 -27.71 L-24.00 -27.71 L-24.50 -26.85 L-25.00 -27.71 L-25.50 -26.85 L-24.50 -26.85 L-25.00 -25.98 L-24.00 -25.98 L-24.50 -26.85 L-23.50 -26.85 L-24.00 -27.71 L-23.00 -27.71 L-23.50 -26.85 L-22.50 -26.85 L-23.00 -27.71 L-22.00 -27.71 L-22.50 -28.58 L-23.00 -27.71 L-23.50 -28.58 L-24.00 -27.71 L-24.50 -28.58 L-23.50 -28.58 L-24.00 -29.44 L-24.50 -28.58 L-25.00 -29.44 L-25.50 -28.58 L-26.00 -29.44 L-25.00 -29.44 L-25.50 -30.31 L-24.50 -30.31 L-25.00 -29.44 L-24.00 -29.44 L-24.50 -30.31 L-23.50 -30.31 L-24.00 -31.18 L-24.50 -30.31 L-25.00 -31.18 L-25.50 -30.31 L-26.00 -31.18 L-25.00 -31.18 L-25.50 -32.04 L-26.00 -31.18 L-26.50 -32.04 L-27.00 -31.18 L-26.00 -31.18 L-26.50 -30.31 L-25.50 -30.31 L-26.00 -29.44 L-26.50 -30.31 L-27.00 -29.44 L-26.00 -29.44 L-26.50 -28.58 L-25.50 -28.58 L-26.00 -27.71 L-26.50 -28.58 L-27.00 -27.71 L-27.50 -28.58 L-26.50 -28.58 L-27.00 -29.44 L-27.50 -28.58 L-28.00 -29.44 L-28.50 -28.58 L-27.50 -28.58 L-28.00 -27.71 L-27.00 -27.71 L-27.50 -26.85 L-28.00 -27.71 L-28.50 -26.85 L-27.50 -26.85 L-28.00 -25.98 L-27.00 -25.98 L-27.50 -25.11 L-28.00 -25.98 L-28.50 -25.11 L-29.00 -25.98 L-28.00 -25.98 L-28.50 -26.85 L-29.00 -25.98 L-29.50 -26.85 L-30.00 -25.98 L-30.50 -26.85 L-29.50 -26.85 L-30.00 -27.71 L-29.00 -27.71 L-29.50 -26.85 L-28.50 -26.85 L-29.00 -27.71 L-28.00 -27.71 L-28.50 -28.58 L-29.00 -27.71 L-29.50 -28.58 L-30.00 -27.71 L-30.50 -28.58 L-29.50 -28.58 L-30.00 -29.44 L-30.50 -28.58 L-31.00 -29.44 L-31.50 -28.58 L-30.50 -28.58 L-31.00 -27.71 L-30.00 -27.71 L-30.50 -26.85 L-31.00 -27.71 L-31.50 -26.85 L-30.50 -26.85 L-31.00 -25.98 L-30.00 -25.98 L-30.50 -25.11 L-31.00 -25.98 L-31.50 -25.11 L-32.00 -25.98 L-31.00 -25.98 L-31.50 -26.85 L-32.00 -25.98 L-32.50 -26.85 L-33.00 -25.98 L-32.00 -25.98 L-32.50 -25.11 L-31.50 -25.11 L-32.00 -24.25 L-32.50 -25.11 L-33.00 -24.25 L-32.00 -24.25 L-32.50 -23.38 L-31.50 -23.38 L-32.00 -22.52 L-32.50 -23.38 L-33.00 -22.52 L-33.50 -23.38 L-32.50 -23.38 L-33.00 -24.25 L-33.50 -23.38 L-34.00 -24.25 L-34.50 -23.38 L-35.00 -24.25 L-34.00 -24.25 L-34.50 -25.11 L-33.50 -25.11 L-34.00 -24.25 L-33.00 -24.25 L-33.50 -25.11 L-32.50 -25.11 L-33.00 -25.98 L-33.50 -25.11 L-34.00 -25.98 L-34.50 -25.11 L-35.00 -25.98 L-34.00 -25.98 L-34.50 -26.85 L-35.00 -25.98 L-35.50 -26.85 L-36.00 -25.98 L-36.50 -26.85 L-35.50 -26.85 L-36.00 -27.71 L-35.00 -27.71 L-35.50 -26.85 L-34.50 -26.85 L-35.00 -27.71 L-34.00 -27.71 L-34.50 -28.58 L-33.50 -28.58 L-34.00 -27.71 L-33.00 -27.71 L-33.50 -26.85 L-34.00 -27.71 L-34.50 -26.85 L-33.50 -26.85 L-34.00 -25.98 L-33.00 -25.98 L-33.50 -26.85 L-32.50 -26.85 L-33.00 -27.71 L-32.00 -27.71 L-32.50 -26.85 L-31.50 -26.85 L-32.00 -27.71 L-31.00 -27.71 L-31.50 -28.58 L-32.00 -27.71 L-32.50 -28.58 L-33.00 -27.71 L-33.50 -28.58 L-32.50 -28.58 L-33.00 -29.44 L-33.50 -28.58 L-34.00 -29.44 L-34.50 -28.58 L-35.00 -29.44 L-34.00 -29.44 L-34.50 -30.31 L-33.50 -30.31 L-34.00 -29.44 L-33.00 -29.44 L-33.50 -30.31 L-32.50 -30.31 L-33.00 -31.18 L-33.50 -30.31 L-34.00 -31.18 L-34.50 -30.31 L-35.00 -31.18 L-34.00 -31.18 L-34.50 -32.04 L-35.00 -31.18 L-35.50 -32.04 L-36.00 -31.18 L-35.00 -31.18 L-35.50 -30.31 L-34.50 -30.31 L-35.00 -29.44 L-35.50 -30.31 L-36.00 -29.44 L-35.00 -29.44 L-35.50 -28.58 L-34.50 -28.58 L-35.00 -27.71 L-35.50 -28.58 L-36.00 -27.71 L-36.50 -28.58 L-35.50 -28.58 L-36.00 -29.44 L-36.50 -28.58 L-37.00 -29.44 L-37.50 -28.58 L-36.50 -28.58 L-37.00 -27.71 L-36.00 -27.71 L-36.50 -26.85 L-37.00 -27.71 L-37.50 -26.85 L-36.50 -26.85 L-37.00 -25.98 L-36.00 -25.98 L-36.50 -25.11 L-37.00 -25.98 L-37.50 -25.11 L-38.00 -25.98 L-37.00 -25.98 L-37.50 -26.85 L-38.00 -25.98 L-38.50 -26.85 L-39.00 -25.98 L-39.50 -26.85 L-38.50 -26.85 L-39.00 -27.71 L-38.00 -27.71 L-38.50 -26.85 L-37.50 -26.85 L-38.00 -27.71 L-37.00 -27.71 L-37.50 -28.58 L-38.00 -27.71 L-38.50 -28.58 L-39.00 -27.71 L-39.50 -28.58 L-38.50 -28.58 L-39.00 -29.44 L-39.50 -28.58 L-40.00 -29.44 L-40.50 -28.58 L-39.50 -28.58 L-40.00 -27.71 L-39.00 -27.71 L-39.50 -26.85 L-40.00 -27.71 L-40.50 -26.85 L-39.50 -26.85 L-40.00 -25.98 L-39.00 -25.98 L-39.50 -25.11 L-40.00 -25.98 L-40.50 -25.11 L-41.00 -25.98 L-40.00 -25.98 L-40.50 -26.85 L-41.00 -25.98 L-41.50 -26.85 L-42.00 -25.98 L-41.00 -25.98 L-41.50 -25.11 L-40.50 -25.11 L-41.00 -24.25 L-41.50 -25.11 L-42.00 -24.25 L-41.00 -24.25 L-41.50 -23.38 L-40.50 -23.38 L-41.00 -24.25 L-40.00 -24.25 L-40.50 -25.11 L-39.50 -25.11 L-40.00 -24.25 L-39.00 -24.25 L-39.50 -25.11 L-38.50 -25.11 L-39.00 -25.98 L-38.00 -25.98 L-38.50 -25.11 L-37.50 -25.11 L-38.00 -24.25 L-38.50 -25.11 L-39.00 -24.25 L-38.00 -24.25 L-38.50 -23.38 L-37.50 -23.38 L-38.00 -24.25 L-37.00 -24.25 L-37.50 -25.11 L-36.50 -25.11 L-37.00 -24.25 L-36.00 -24.25 L-36.50 -25.11 L-35.50 -25.11 L-36.00 -25.98 L-35.00 -25.98 L-35.50 -25.11 L-34.50 -25.11 L-35.00 -24.25 L-35.50 -25.11 L-36.00 -24.25 L-35.00 -24.25 L-35.50 -23.38 L-34.50 -23.38 L-35.00 -22.52 L-35.50 -23.38 L-36.00 -22.52 L-36.50 -23.38 L-35.50 -23.38 L-36.00 -24.25 L-36.50 -23.38 L-37.00 -24.25 L-37.50 -23.38 L-36.50 -23.38 L-37.00 -22.52 L-36.00 -22.52 L-36.50 -21.65 L-37.00 -22.52 L-37.50 -21.65 L-36.50 -21.65 L-37.00 -20.78 L-36.00 -20.78 L-36.50 -21.65 L-35.50 -21.65 L-36.00 -22.52 L-35.00 -22.52 L-35.50 -21.65 L-34.50 -21.65 L-35.00 -22.52 L-34.00 -22.52 L-34.50 -23.38 L-33.50 -23.38 L-34.00 -22.52 L-33.00 -22.52 L-33.50 -21.65 L-34.00 -22.52 L-34.50 -21.65 L-33.50 -21.65 L-34.00 -20.78 L-33.00 -20.78 L-33.50 -21.65 L-32.50 -21.65 L-33.00 -22.52 L-32.00 -22.52 L-32.50 -21.65 L-31.50 -21.65 L-32.00 -22.52 L-31.00 -22.52 L-31.50 -23.38 L-30.50 -23.38 L-31.00 -22.52 L-30.00 -22.52 L-30.50 -21.65 L-31.00 -22.52 L-31.50 -21.65 L-30.50 -21.65 L-31.00 -20.78 L-30.00 -20.78 L-30.50 -19.92 L-31.00 -20.78 L-31.50 -19.92 L-32.00 -20.78 L-31.00 -20.78 L-31.50 -21.65 L-32.00 -20.78 L-32.50 -21.65 L-33.00 -20.78 L-32.00 -20.78 L-32.50 -19.92 L-31.50 -19.92 L-32.00 -19.05 L-32.50 -19.92 L-33.00 -19.05 L-32.00 -19.05 L-32.50 -18.19 L-31.50 -18.19 L-32.00 -17.32 L-32.50 -18.19 L-33.00 -17.32 L-33.50 -18.19 L-32.50 -18.19 L-33.00 -19.05 L-33.50 -18.19 L-34.00 -19.05 L-34.50 -18.19 L-35.00 -19.05 L-34.00 -19.05 L-34.50 -19.92 L-33.50 -19.92 L-34.00 -19.05 L-33.00 -19.05 L-33.50 -19.92 L-32.50 -19.92 L-33.00 -20.78 L-33.50 -19.92 L-34.00 -20.78 L-34.50 -19.92 L-35.00 -20.78 L-34.00 -20.78 L-34.50 -21.65 L-35.00 -20.78 L-35.50 -21.65 L-36.00 -20.78 L-35.00 -20.78 L-35.50 -19.92 L-34.50 -19.92 L-35.00 -19.05 L-35.50 -19.92 L-36.00 -19.05 L-35.00 -19.05 L-35.50 -18.19 L-34.50 -18.19 L-35.00 -17.32 L-35.50 -18.19 L-36.00 -17.32 L-36.50 -18.19 L-35.50 -18.19 L-36.00 -19.05 L-36.50 -18.19 L-37.00 -19.05 L-37.50 -18.19 L-36.50 -18.19 L-37.00 -17.32 L-36.00 -17.32 L-36.50 -16.45 L-37.00 -17.32 L-37.50 -16.45 L-36.50 -16.45 L-37.00 -15.59 L-36.00 -15.59 L-36.50 -16.45 L-35.50 -16.45 L-36.00 -17.32 L-35.00 -17.32 L-35.50 -16.45 L-34.50 -16.45 L-35.00 -17.32 L-34.00 -17.32 L-34.50 -18.19 L-33.50 -18.19 L-34.00 -17.32 L-33.00 -17.32 L-33.50 -16.45 L-34.00 -17.32 L-34.50 -16.45 L-33.50 -16.45 L-34.00 -15.59 L-33.00 -15.59 L-33.50 -16.45 L-32.50 -16.45 L-33.00 -17.32 L-32.00 -17.32 L-32.50 -16.45 L-31.50 -16.45 L-32.00 -17.32 L-31.00 -17.32 L-31.50 -18.19 L-30.50 -18.19 L-31.00 -17.32 L-30.00 -17.32 L-30.50 -16.45 L-31.00 -17.32 L-31.50 -16.45 L-30.50 -16.45 L-31.00 -15.59 L-30.00 -15.59 L-30.50 -14.72 L-31.00 -15.59 L-31.50 -14.72 L-32.00 -15.59 L-31.00 -15.59 L-31.50 -16.45 L-32.00 -15.59 L-32.50 -16.45 L-33.00 -15.59 L-32.00 -15.59 L-32.50 -14.72 L-31.50 -14.72 L-32.00 -13.86 L-32.50 -14.72 L-33.00 -13.86 L-32.00 -13.86 L-32.50 -12.99 L-31.50 -12.99 L-32.00 -13.86 L-31.00 -13.86 L-31.50 -14.72 L-30.50 -14.72 L-31.00 -13.86 L-30.00 -13.86 L-30.50 -14.72 L-29.50 -14.72 L-30.00 -15.59 L-29.00 -15.59 L-29.50 -14.72 L-28.50 -14.72 L-29.00 -13.86 L-29.50 -14.72 L-30.00 -13.86 L-29.00 -13.86 L-29.50 -12.99 L-28.50 -12.99 L-29.00 -13.86 L-28.00 -13.86 L-28.50 -14.72 L-27.50 -14.72 L-28.00 -13.86 L-27.00 -13.86 L-27.50 -14.72 L-26.50 -14.72 L-27.00 -15.59 L-26.00 -15.59 L-26.50 -14.72 L-25.50 -14.72 L-26.00 -13.86 L-26.50 -14.72 L-27.00 -13.86 L-26.00 -13.86 L-26.50 -12.99 L-25.50 -12.99 L-26.00 -12.12 L-26.50 -12.99 L-27.00 -12.12 L-27.50 -12.99 L-26.50 -12.99 L-27.00 -13.86 L-27.50 -12.99 L-28.00 -13.86 L-28.50 -12.99 L-27.50 -12.99 L-28.00 -12.12 L-27.00 -12.12 L-27.50 -11.26 L-28.00 -12.12 L-28.50 -11.26 L-27.50 -11.26 L-28.00 -10.39 L-27.00 -10.39 L-27.50 -9.53 L-28.00 -10.39 L-28.50 -9.53 L-29.00 -10.39 L-28.00 -10.39 L-28.50 -11.26 L-29.00 -10.39 L-29.50 -11.26 L-30.00 -10.39 L-30.50 -11.26 L-29.50 -11.26 L-30.00 -12.12 L-29.00 -12.12 L-29.50 -11.26 L-28.50 -11.26 L-29.00 -12.12 L-28.00 -12.12 L-28.50 -12.99 L-29.00 -12.12 L-29.50 -12.99 L-30.00 -12.12 L-30.50 -12.99 L-29.50 -12.99 L-30.00 -13.86 L-30.50 -12.99 L-31.00 -13.86 L-31.50 -12.99 L-30.50 -12.99 L-31.00 -12.12 L-30.00 -12.12 L-30.50 -11.26 L-31.00 -12.12 L-31.50 -11.26 L-30.50 -11.26 L-31.00 -10.39 L-30.00 -10.39 L-30.50 -9.53 L-31.00 -10.39 L-31.50 -9.53 L-32.00 -10.39 L-31.00 -10.39 L-31.50 -11.26 L-32.00 -10.39 L-32.50 -11.26 L-33.00 -10.39 L-32.00 -10.39 L-32.50 -9.53 L-31.50 -9.53 L-32.00 -8.66 L-32.50 -9.53 L-33.00 -8.66 L-32.00 -8.66 L-32.50 -7.79 L-31.50 -7.79 L-32.00 -6.93 L-32.50 -7.79 L-33.00 -6.93 L-33.50 -7.79 L-32.50 -7.79 L-33.00 -8.66 L-33.50 -7.79 L-34.00 -8.66 L-34.50 -7.79 L-35.00 -8.66 L-34.00 -8.66 L-34.50 -9.53 L-33.50 -9.53 L-34.00 -8.66 L-33.00 -8.66 L-33.50 -9.53 L-32.50 -9.53 L-33.00 -10.39 L-33.50 -9.53 L-34.00 -10.39 L-34.50 -9.53 L-35.00 -10.39 L-34.00 -10.39 L-34.50 -11.26 L-35.00 -10.39 L-35.50 -11.26 L-36.00 -10.39 L-36.50 -11.26 L-35.50 -11.26 L-36.00 -12.12 L-35.00 -12.12 L-35.50 -11.26 L-34.50 -11.26 L-35.00 -12.12 L-34.00 -12.12 L-34.50 -12.99 L-33.50 -12.99 L-34.00 -12.12 L-33.00 -12.12 L-33.50 -11.26 L-34.00 -12.12 L-34.50 -11.26 L-33.50 -11.26 L-34.00 -10.39 L-33.00 -10.39 L-33.50 -11.26 L-32.50 -11.26 L-33.00 -12.12 L-32.00 -12.12 L-32.50 -11.26 L-31.50 -11.26 L-32.00 -12.12 L-31.00 -12.12 L-31.50 -12.99 L-32.00 -12.12 L-32.50 -12.99 L-33.00 -12.12 L-33.50 -12.99 L-32.50 -12.99 L-33.00 -13.86 L-33.50 -12.99 L-34.00 -13.86 L-34.50 -12.99 L-35.00 -13.86 L-34.00 -13.86 L-34.50 -14.72 L-33.50 -14.72 L-34.00 -13.86 L-33.00 -13.86 L-33.50 -14.72 L-32.50 -14.72 L-33.00 -15.59 L-33.50 -14.72 L-34.00 -15.59 L-34.50 -14.72 L-35.00 -15.59 L-34.00 -15.59 L-34.50 -16.45 L-35.00 -15.59 L-35.50 -16.45 L-36.00 -15.59 L-35.00 -15.59 L-35.50 -14.72 L-34.50 -14.72 L-35.00 -13.86 L-35.50 -14.72 L-36.00 -13.86 L-35.00 -13.86 L-35.50 -12.99 L-34.50 -12.99 L-35.00 -12.12 L-35.50 -12.99 L-36.00 -12.12 L-36.50 -12.99 L-35.50 -12.99 L-36.00 -13.86 L-36.50 -12.99 L-37.00 -13.86 L-37.50 -12.99 L-36.50 -12.99 L-37.00 -12.12 L-36.00 -12.12 L-36.50 -11.26 L-37.00 -12.12 L-37.50 -11.26 L-36.50 -11.26 L-37.00 -10.39 L-36.00 -10.39 L-36.50 -9.53 L-37.00 -10.39 L-37.50 -9.53 L-38.00 -10.39 L-37.00 -10.39 L-37.50 -11.26 L-38.00 -10.39 L-38.50 -11.26 L-39.00 -10.39 L-39.50 -11.26 L-38.50 -11.26 L-39.00 -12.12 L-38.00 -12.12 L-38.50 -11.26 L-37.50 -11.26 L-38.00 -12.12 L-37.00 -12.12 L-37.50 -12.99 L-38.00 -12.12 L-38.50 -12.99 L-39.00 -12.12 L-39.50 -12.99 L-38.50 -12.99 L-39.00 -13.86 L-39.50 -12.99 L-40.00 -13.86 L-40.50 -12.99 L-39.50 -12.99 L-40.00 -12.12 L-39.00 -12.12 L-39.50 -11.26 L-40.00 -12.12 L-40.50 -11.26 L-39.50 -11.26 L-40.00 -10.39 L-39.00 -10.39 L-39.50 -9.53 L-40.00 -10.39 L-40.50 -9.53 L-41.00 -10.39 L-40.00 -10.39 L-40.50 -11.26 L-41.00 -10.39 L-41.50 -11.26 L-42.00 -10.39 L-41.00 -10.39 L-41.50 -9.53 L-40.50 -9.53 L-41.00 -8.66 L-41.50 -9.53 L-42.00 -8.66 L-41.00 -8.66 L-41.50 -7.79 L-40.50 -7.79 L-41.00 -8.66 L-40.00 -8.66 L-40.50 -9.53 L-39.50 -9.53 L-40.00 -8.66 L-39.00 -8.66 L-39.50 -9.53 L-38.50 -9.53 L-39.00 -10.39 L-38.00 -10.39 L-38.50 -9.53 L-37.50 -9.53 L-38.00 -8.66 L-38.50 -9.53 L-39.00 -8.66 L-38.00 -8.66 L-38.50 -7.79 L-37.50 -7.79 L-38.00 -8.66 L-37.00 -8.66 L-37.50 -9.53 L-36.50 -9.53 L-37.00 -8.66 L-36.00 -8.66 L-36.50 -9.53 L-35.50 -9.53 L-36.00 -10.39 L-35.00 -10.39 L-35.50 -9.53 L-34.50 -9.53 L-35.00 -8.66 L-35.50 -9.53 L-36.00 -8.66 L-35.00 -8.66 L-35.50 -7.79 L-34.50 -7.79 L-35.00 -6.93 L-35.50 -7.79 L-36.00 -6.93 L-36.50 -7.79 L-35.50 -7.79 L-36.00 -8.66 L-36.50 -7.79 L-37.00 -8.66 L-37.50 -7.79 L-36.50 -7.79 L-37.00 -6.93 L-36.00 -6.93 L-36.50 -6.06 L-37.00 -6.93 L-37.50 -6.06 L-36.50 -6.06 L-37.00 -5.20 L-36.00 -5.20 L-36.50 -6.06 L-35.50 -6.06 L-36.00 -6.93 L-35.00 -6.93 L-35.50 -6.06 L-34.50 -6.06 L-35.00 -6.93 L-34.00 -6.93 L-34.50 -7.79 L-33.50 -7.79 L-34.00 -6.93 L-33.00 -6.93 L-33.50 -6.06 L-34.00 -6.93 L-34.50 -6.06 L-33.50 -6.06 L-34.00 -5.20 L-33.00 -5.20 L-33.50 -6.06 L-32.50 -6.06 L-33.00 -6.93 L-32.00 -6.93 L-32.50 -6.06 L-31.50 -6.06 L-32.00 -6.93 L-31.00 -6.93 L-31.50 -7.79 L-30.50 -7.79 L-31.00 -6.93 L-30.00 -6.93 L-30.50 -6.06 L-31.00 -6.93 L-31.50 -6.06 L-30.50 -6.06 L-31.00 -5.20 L-30.00 -5.20 L-30.50 -4.33 L-31.00 -5.20 L-31.50 -4.33 L-32.00 -5.20 L-31.00 -5.20 L-31.50 -6.06 L-32.00 -5.20 L-32.50 -6.06 L-33.00 -5.20 L-32.00 -5.20 L-32.50 -4.33 L-31.50 -4.33 L-32.00 -3.46 L-32.50 -4.33 L-33.00 -3.46 L-32.00 -3.46 L-32.50 -2.60 L-31.50 -2.60 L-32.00 -1.73 L-32.50 -2.60 L-33.00 -1.73 L-33.50 -2.60 L-32.50 -2.60 L-33.00 -3.46 L-33.50 -2.60 L-34.00 -3.46 L-34.50 -2.60 L-35.00 -3.46 L-34.00 -3.46 L-34.50 -4.33 L-33.50 -4.33 L-34.00 -3.46 L-33.00 -3.46 L-33.50 -4.33 L-32.50 -4.33 L-33.00 -5.20 L-33.50 -4.33 L-34.00 -5.20 L-34.50 -4.33 L-35.00 -5.20 L-34.00 -5.20 L-34.50 -6.06 L-35.00 -5.20 L-35.50 -6.06 L-36.00 -5.20 L-35.00 -5.20 L-35.50 -4.33 L-34.50 -4.33 L-35.00 -3.46 L-35.50 -4.33 L-36.00 -3.46 L-35.00 -3.46 L-35.50 -2.60 L-34.50 -2.60 L-35.00 -1.73 L-35.50 -2.60 L-36.00 -1.73 L-36.50 -2.60 L-35.50 -2.60 L-36.00 -3.46 L-36.50 -2.60 L-37.00 -3.46 L-37.50 -2.60 L-36.50 -2.60 L-37.00 -1.73 L-36.00 -1.73 L-36.50 -0.87 L-37.00 -1.73 L-37.50 -0.87 L-36.50 -0.87 L-37.00 -0.00 L-36.00 -0.00 L-36.50 -0.87 L-35.50 -0.87 L-36.00 -1.73 L-35.00 -1.73 L-35.50 -0.87 L-34.50 -0.87 L-35.00 -1.73 L-34.00 -1.73 L-34.50 -2.60 L-33.50 -2.60 L-34.00 -1.73 L-33.00 -1.73 L-33.50 -0.87 L-34.00 -1.73 L-34.50 -0.87 L-33.50 -0.87 L-34.00 -0.00 L-33.00 -0.00 L-33.50 -0.87 L-32.50 -0.87 L-33.00 -1.73 L-32.00 -1.73 L-32.50 -0.87 L-31.50 -0.87 L-32.00 -1.73 L-31.00 -1.73 L-31.50 -2.60 L-30.50 -2.60 L-31.00 -1.73 L-30.00 -1.73 L-30.50 -0.87 L-31.00 -1.73 L-31.50 -0.87 L-30.50 -0.87 L-31.00 -0.00 L-30.00 -0.00 L-30.50 0.87 L-31.00 -0.00 L-31.50 0.87 L-32.00 -0.00 L-31.00 -0.00 L-31.50 -0.87 L-32.00 -0.00 L-32.50 -0.87 L-33.00 -0.00 L-32.00 -0.00 L-32.50 0.87 L-31.50 0.87 L-32.00 1.73 L-32.50 0.87 L-33.00 1.73 L-32.00 1.73 L-32.50 2.60 L-31.50 2.60 L-32.00 1.73 L-31.00 1.73 L-31.50 0.87 L-30.50 0.87 L-31.00 1.73 L-30.00 1.73 L-30.50 0.87 L-29.50 0.87 L-30.00 -0.00 L-29.00 -0.00 L-29.50 0.87 L-28.50 0.87 L-29.00 1.73 L-29.50 0.87 L-30.00 1.73 L-29.00 1.73 L-29.50 2.60 L-28.50 2.60 L-29.00 1.73 L-28.00 1.73 L-28.50 0.87 L-27.50 0.87 L-28.00 1.73 L-27.00 1.73 L-27.50 0.87 L-26.50 0.87 L-27.00 -0.00 L-26.00 -0.00 L-26.50 0.87 L-25.50 0.87 L-26.00 1.73 L-26.50 0.87 L-27.00 1.73 L-26.00 1.73 L-26.50 2.60 L-25.50 2.60 L-26.00 3.46 L-26.50 2.60 L-27.00 3.46 L-27.50 2.60 L-26.50 2.60 L-27.00 1.73 L-27.50 2.60 L-28.00 1.73 L-28.50 2.60 L-27.50 2.60 L-28.00 3.46 L-27.00 3.46 L-27.50 4.33 L-28.00 3.46 L-28.50 4.33 L-27.50 4.33 L-28.00 5.20 L-27.00 5.20 L-27.50 6.06 L-28.00 5.20 L-28.50 6.06 L-29.00 5.20 L-28.00 5.20 L-28.50 4.33 L-29.00 5.20 L-29.50 4.33 L-30.00 5.20 L-30.50 4.33 L-29.50 4.33 L-30.00 3.46 L-29.00 3.46 L-29.50 4.33 L-28.50 4.33 L-29.00 3.46 L-28.00 3.46 L-28.50 2.60 L-29.00 3.46 L-29.50 2.60 L-30.00 3.46 L-30.50 2.60 L-29.50 2.60 L-30.00 1.73 L-30.50 2.60 L-31.00 1.73 L-31.50 2.60 L-30.50 2.60 L-31.00 3.46 L-30.00 3.46 L-30.50 4.33 L-31.00 3.46 L-31.50 4.33 L-30.50 4.33 L-31.00 5.20 L-30.00 5.20 L-30.50 6.06 L-31.00 5.20 L-31.50 6.06 L-32.00 5.20 L-31.00 5.20 L-31.50 4.33 L-32.00 5.20 L-32.50 4.33 L-33.00 5.20 L-32.00 5.20 L-32.50 6.06 L-31.50 6.06 L-32.00 6.93 L-32.50 6.06 L-33.00 6.93 L-32.00 6.93 L-32.50 7.79 L-31.50 7.79 L-32.00 8.66 L-32.50 7.79 L-33.00 8.66 L-33.50 7.79 L-32.50 7.79 L-33.00 6.93 L-33.50 7.79 L-34.00 6.93 L-34.50 7.79 L-35.00 6.93 L-34.00 6.93 L-34.50 6.06 L-33.50 6.06 L-34.00 6.93 L-33.00 6.93 L-33.50 6.06 L-32.50 6.06 L-33.00 5.20 L-33.50 6.06 L-34.00 5.20 L-34.50 6.06 L-35.00 5.20 L-34.00 5.20 L-34.50 4.33 L-35.00 5.20 L-35.50 4.33 L-36.00 5.20 L-36.50 4.33 L-35.50 4.33 L-36.00 3.46 L-35.00 3.46 L-35.50 4.33 L-34.50 4.33 L-35.00 3.46 L-34.00 3.46 L-34.50 2.60 L-33.50 2.60 L-34.00 3.46 L-33.00 3.46 L-33.50 4.33 L-34.00 3.46 L-34.50 4.33 L-33.50 4.33 L-34.00 5.20 L-33.00 5.20 L-33.50 4.33 L-32.50 4.33 L-33.00 3.46 L-32.00 3.46 L-32.50 4.33 L-31.50 4.33 L-32.00 3.46 L-31.00 3.46 L-31.50 2.60 L-32.00 3.46 L-32.50 2.60 L-33.00 3.46 L-33.50 2.60 L-32.50 2.60 L-33.00 1.73 L-33.50 2.60 L-34.00 1.73 L-34.50 2.60 L-35.00 1.73 L-34.00 1.73 L-34.50 0.87 L-33.50 0.87 L-34.00 1.73 L-33.00 1.73 L-33.50 0.87 L-32.50 0.87 L-33.00 -0.00 L-33.50 0.87 L-34.00 -0.00 L-34.50 0.87 L-35.00 -0.00 L-34.00 -0.00 L-34.50 -0.87 L-35.00 -0.00 L-35.50 -0.87 L-36.00 -0.00 L-35.00 -0.00 L-35.50 0.87 L-34.50 0.87 L-35.00 1.73 L-35.50 0.87 L-36.00 1.73 L-35.00 1.73 L-35.50 2.60 L-34.50 2.60 L-35.00 3.46 L-35.50 2.60 L-36.00 3.46 L-36.50 2.60 L-35.50 2.60 L-36.00 1.73 L-36.50 2.60 L-37.00 1.73 L-37.50 2.60 L-36.50 2.60 L-37.00 3.46 L-36.00 3.46 L-36.50 4.33 L-37.00 3.46 L-37.50 4.33 L-36.50 4.33 L-37.00 5.20 L-36.00 5.20 L-36.50 6.06 L-37.00 5.20 L-37.50 6.06 L-38.00 5.20 L-37.00 5.20 L-37.50 4.33 L-38.00 5.20 L-38.50 4.33 L-39.00 5.20 L-39.50 4.33 L-38.50 4.33 L-39.00 3.46 L-38.00 3.46 L-38.50 4.33 L-37.50 4.33 L-38.00 3.46 L-37.00 3.46 L-37.50 2.60 L-38.00 3.46 L-38.50 2.60 L-39.00 3.46 L-39.50 2.60 L-38.50 2.60 L-39.00 1.73 L-39.50 2.60 L-40.00 1.73 L-40.50 2.60 L-39.50 2.60 L-40.00 3.46 L-39.00 3.46 L-39.50 4.33 L-40.00 3.46 L-40.50 4.33 L-39.50 4.33 L-40.00 5.20 L-39.00 5.20 L-39.50 6.06 L-40.00 5.20 L-40.50 6.06 L-41.00 5.20 L-40.00 5.20 L-40.50 4.33 L-41.00 5.20 L-41.50 4.33 L-42.00 5.20 L-41.00 5.20 L-41.50 6.06 L-40.50 6.06 L-41.00 6.93 L-41.50 6.06 L-42.00 6.93 L-41.00 6.93 L-41.50 7.79 L-40.50 7.79 L-41.00 8.66 L-41.50 7.79 L-42.00 8.66 L-42.50 7.79 L-41.50 7.79 L-42.00 6.93 L-42.50 7.79 L-43.00 6.93 L-43.50 7.79 L-44.00 6.93 L-43.00 6.93 L-43.50 6.06 L-42.50 6.06 L-43.00 6.93 L-42.00 6.93 L-42.50 6.06 L-41.50 6.06 L-42.00 5.20 L-42.50 6.06 L-43.00 5.20 L-43.50 6.06 L-44.00 5.20 L-43.00 5.20 L-43.50 4.33 L-44.00 5.20 L-44.50 4.33 L-45.00 5.20 L-45.50 4.33 L-44.50 4.33 L-45.00 3.46 L-44.00 3.46 L-44.50 4.33 L-43.50 4.33 L-44.00 3.46 L-43.00 3.46 L-43.50 2.60 L-42.50 2.60 L-43.00 3.46 L-42.00 3.46 L-42.50 4.33 L-43.00 3.46 L-43.50 4.33 L-42.50 4.33 L-43.00 5.20 L-42.00 5.20 L-42.50 4.33 L-41.50 4.33 L-42.00 3.46 L-41.00 3.46 L-41.50 4.33 L-40.50 4.33 L-41.00 3.46 L-40.00 3.46 L-40.50 2.60 L-41.00 3.46 L-41.50 2.60 L-42.00 3.46 L-42.50 2.60 L-41.50 2.60 L-42.00 1.73 L-42.50 2.60 L-43.00 1.73 L-43.50 2.60 L-44.00 1.73 L-43.00 1.73 L-43.50 0.87 L-42.50 0.87 L-43.00 1.73 L-42.00 1.73 L-42.50 0.87 L-41.50 0.87 L-42.00 -0.00 L-42.50 0.87 L-43.00 -0.00 L-43.50 0.87 L-44.00 -0.00 L-43.00 -0.00 L-43.50 -0.87 L-44.00 -0.00 L-44.50 -0.87 L-45.00 -0.00 L-45.50 -0.87 L-44.50 -0.87 L-45.00 -1.73 L-44.00 -1.73 L-44.50 -0.87 L-43.50 -0.87 L-44.00 -1.73 L-43.00 -1.73 L-43.50 -2.60 L-42.50 -2.60 L-43.00 -1.73 L-42.00 -1.73 L-42.50 -0.87 L-43.00 -1.73 L-43.50 -0.87 L-42.50 -0.87 L-43.00 -0.00 L-42.00 -0.00 L-42.50 -0.87 L-41.50 -0.87 L-42.00 -1.73 L-41.00 -1.73 L-41.50 -0.87 L-40.50 -0.87 L-41.00 -1.73 L-40.00 -1.73 L-40.50 -2.60 L-39.50 -2.60 L-40.00 -1.73 L-39.00 -1.73 L-39.50 -0.87 L-40.00 -1.73 L-40.50 -0.87 L-39.50 -0.87 L-40.00 -0.00 L-39.00 -0.00 L-39.50 0.87 L-40.00 -0.00 L-40.50 0.87 L-41.00 -0.00 L-40.00 -0.00 L-40.50 -0.87 L-41.00 -0.00 L-41.50 -0.87 L-42.00 -0.00 L-41.00 -0.00 L-41.50 0.87 L-40.50 0.87 L-41.00 1.73 L-41.50 0.87 L-42.00 1.73 L-41.00 1.73 L-41.50 2.60 L-40.50 2.60 L-41.00 1.73 L-40.00 1.73 L-40.50 0.87 L-39.50 0.87 L-40.00 1.73 L-39.00 1.73 L-39.50 0.87 L-38.50 0.87 L-39.00 -0.00 L-38.00 -0.00 L-38.50 0.87 L-37.50 0.87 L-38.00 1.73 L-38.50 0.87 L-39.00 1.73 L-38.00 1.73 L-38.50 2.60 L-37.50 2.60 L-38.00 1.73 L-37.00 1.73 L-37.50 0.87 L-36.50 0.87 L-37.00 1.73 L-36.00 1.73 L-36.50 0.87 L-35.50 0.87 L-36.00 -0.00 L-36.50 0.87 L-37.00 -0.00 L-37.50 0.87 L-38.00 -0.00 L-37.00 -0.00 L-37.50 -0.87 L-38.00 -0.00 L-38.50 -0.87 L-39.00 -0.00 L-39.50 -0.87 L-38.50 -0.87 L-39.00 -1.73 L-38.00 -1.73 L-38.50 -0.87 L-37.50 -0.87 L-38.00 -1.73 L-37.00 -1.73 L-37.50 -2.60 L-38.00 -1.73 L-38.50 -2.60 L-39.00 -1.73 L-39.50 -2.60 L-38.50 -2.60 L-39.00 -3.46 L-39.50 -2.60 L-40.00 -3.46 L-40.50 -2.60 L-41.00 -3.46 L-40.00 -3.46 L-40.50 -4.33 L-39.50 -4.33 L-40.00 -3.46 L-39.00 -3.46 L-39.50 -4.33 L-38.50 -4.33 L-39.00 -5.20 L-38.00 -5.20 L-38.50 -4.33 L-37.50 -4.33 L-38.00 -3.46 L-38.50 -4.33 L-39.00 -3.46 L-38.00 -3.46 L-38.50 -2.60 L-37.50 -2.60 L-38.00 -3.46 L-37.00 -3.46 L-37.50 -4.33 L-36.50 -4.33 L-37.00 -3.46 L-36.00 -3.46 L-36.50 -4.33 L-35.50 -4.33 L-36.00 -5.20 L-36.50 -4.33 L-37.00 -5.20 L-37.50 -4.33 L-38.00 -5.20 L-37.00 -5.20 L-37.50 -6.06 L-38.00 -5.20 L-38.50 -6.06 L-39.00 -5.20 L-39.50 -6.06 L-38.50 -6.06 L-39.00 -6.93 L-38.00 -6.93 L-38.50 -6.06 L-37.50 -6.06 L-38.00 -6.93 L-37.00 -6.93 L-37.50 -7.79 L-38.00 -6.93 L-38.50 -7.79 L-39.00 -6.93 L-39.50 -7.79 L-38.50 -7.79 L-39.00 -8.66 L-39.50 -7.79 L-40.00 -8.66 L-40.50 -7.79 L-39.50 -7.79 L-40.00 -6.93 L-39.00 -6.93 L-39.50 -6.06 L-40.00 -6.93 L-40.50 -6.06 L-39.50 -6.06 L-40.00 -5.20 L-39.00 -5.20 L-39.50 -4.33 L-40.00 -5.20 L-40.50 -4.33 L-41.00 -5.20 L-40.00 -5.20 L-40.50 -6.06 L-41.00 -5.20 L-41.50 -6.06 L-42.00 -5.20 L-41.00 -5.20 L-41.50 -4.33 L-40.50 -4.33 L-41.00 -3.46 L-41.50 -4.33 L-42.00 -3.46 L-41.00 -3.46 L-41.50 -2.60 L-40.50 -2.60 L-41.00 -1.73 L-41.50 -2.60 L-42.00 -1.73 L-42.50 -2.60 L-41.50 -2.60 L-42.00 -3.46 L-42.50 -2.60 L-43.00 -3.46 L-43.50 -2.60 L-44.00 -3.46 L-43.00 -3.46 L-43.50 -4.33 L-42.50 -4.33 L-43.00 -3.46 L-42.00 -3.46 L-42.50 -4.33 L-41.50 -4.33 L-42.00 -5.20 L-42.50 -4.33 L-43.00 -5.20 L-43.50 -4.33 L-44.00 -5.20 L-43.00 -5.20 L-43.50 -6.06 L-44.00 -5.20 L-44.50 -6.06 L-45.00 -5.20 L-44.00 -5.20 L-44.50 -4.33 L-43.50 -4.33 L-44.00 -3.46 L-44.50 -4.33 L-45.00 -3.46 L-44.00 -3.46 L-44.50 -2.60 L-43.50 -2.60 L-44.00 -1.73 L-44.50 -2.60 L-45.00 -1.73 L-45.50 -2.60 L-44.50 -2.60 L-45.00 -3.46 L-45.50 -2.60 L-46.00 -3.46 L-46.50 -2.60 L-45.50 -2.60 L-46.00 -1.73 L-45.00 -1.73 L-45.50 -0.87 L-46.00 -1.73 L-46.50 -0.87 L-45.50 -0.87 L-46.00 -0.00 L-45.00 -0.00 L-45.50 0.87 L-46.00 -0.00 L-46.50 0.87 L-47.00 -0.00 L-46.00 -0.00 L-46.50 -0.87 L-47.00 -0.00 L-47.50 -0.87 L-48.00 -0.00 L-48.50 -0.87 L-47.50 -0.87 L-48.00 -1.73 L-47.00 -1.73 L-47.50 -0.87 L-46.50 -0.87 L-47.00 -1.73 L-46.00 -1.73 L-46.50 -2.60 L-47.00 -1.73 L-47.50 -2.60 L-48.00 -1.73 L-48.50 -2.60 L-47.50 -2.60 L-48.00 -3.46 L-48.50 -2.60 L-49.00 -3.46 L-49.50 -2.60 L-50.00 -3.46 L-49.00 -3.46 L-49.50 -4.33 L-48.50 -4.33 L-49.00 -3.46 L-48.00 -3.46 L-48.50 -4.33 L-47.50 -4.33 L-48.00 -5.20 L-47.00 -5.20 L-47.50 -4.33 L-46.50 -4.33 L-47.00 -3.46 L-47.50 -4.33 L-48.00 -3.46 L-47.00 -3.46 L-47.50 -2.60 L-46.50 -2.60 L-47.00 -3.46 L-46.00 -3.46 L-46.50 -4.33 L-45.50 -4.33 L-46.00 -3.46 L-45.00 -3.46 L-45.50 -4.33 L-44.50 -4.33 L-45.00 -5.20 L-45.50 -4.33 L-46.00 -5.20 L-46.50 -4.33 L-47.00 -5.20 L-46.00 -5.20 L-46.50 -6.06 L-47.00 -5.20 L-47.50 -6.06 L-48.00 -5.20 L-48.50 -6.06 L-47.50 -6.06 L-48.00 -6.93 L-47.00 -6.93 L-47.50 -6.06 L-46.50 -6.06 L-47.00 -6.93 L-46.00 -6.93 L-46.50 -7.79 L-47.00 -6.93 L-47.50 -7.79 L-48.00 -6.93 L-48.50 -7.79 L-47.50 -7.79 L-48.00 -8.66 L-48.50 -7.79 L-49.00 -8.66 L-49.50 -7.79 L-48.50 -7.79 L-49.00 -6.93 L-48.00 -6.93 L-48.50 -6.06 L-49.00 -6.93 L-49.50 -6.06 L-48.50 -6.06 L-49.00 -5.20 L-48.00 -5.20 L-48.50 -4.33 L-49.00 -5.20 L-49.50 -4.33 L-50.00 -5.20 L-49.00 -5.20 L-49.50 -6.06 L-50.00 -5.20 L-50.50 -6.06 L-51.00 -5.20 L-50.00 -5.20 L-50.50 -4.33 L-49.50 -4.33 L-50.00 -3.46 L-50.50 -4.33 L-51.00 -3.46 L-50.00 -3.46 L-50.50 -2.60 L-49.50 -2.60 L-50.00 -1.73 L-50.50 -2.60 L-51.00 -1.73 L-51.50 -2.60 L-50.50 -2.60 L-51.00 -3.46 L-51.50 -2.60 L-52.00 -3.46 L-52.50 -2.60 L-53.00 -3.46 L-52.00 -3.46 L-52.50 -4.33 L-51.50 -4.33 L-52.00 -3.46 L-51.00 -3.46 L-51.50 -4.33 L-50.50 -4.33 L-51.00 -5.20 L-51.50 -4.33 L-52.00 -5.20 L-52.50 -4.33 L-53.00 -5.20 L-52.00 -5.20 L-52.50 -6.06 L-53.00 -5.20 L-53.50 -6.06 L-54.00 -5.20 L-53.00 -5.20 L-53.50 -4.33 L-52.50 -4.33 L-53.00 -3.46 L-53.50 -4.33 L-54.00 -3.46 L-53.00 -3.46 L-53.50 -2.60 L-52.50 -2.60 L-53.00 -1.73 L-53.50 -2.60 L-54.00 -1.73 L-54.50 -2.60 L-53.50 -2.60 L-54.00 -3.46 L-54.50 -2.60 L-55.00 -3.46 L-55.50 -2.60 L-54.50 -2.60 L-55.00 -1.73 L-54.00 -1.73 L-54.50 -0.87 L-55.00 -1.73 L-55.50 -0.87 L-54.50 -0.87 L-55.00 -0.00 L-54.00 -0.00 L-54.50 -0.87 L-53.50 -0.87 L-54.00 -1.73 L-53.00 -1.73 L-53.50 -0.87 L-52.50 -0.87 L-53.00 -1.73 L-52.00 -1.73 L-52.50 -2.60 L-51.50 -2.60 L-52.00 -1.73 L-51.00 -1.73 L-51.50 -0.87 L-52.00 -1.73 L-52.50 -0.87 L-51.50 -0.87 L-52.00 -0.00 L-51.00 -0.00 L-51.50 -0.87 L-50.50 -0.87 L-51.00 -1.73 L-50.00 -1.73 L-50.50 -0.87 L-49.50 -0.87 L-50.00 -1.73 L-49.00 -1.73 L-49.50 -2.60 L-48.50 -2.60 L-49.00 -1.73 L-48.00 -1.73 L-48.50 -0.87 L-49.00 -1.73 L-49.50 -0.87 L-48.50 -0.87 L-49.00 -0.00 L-48.00 -0.00 L-48.50 0.87 L-49.00 -0.00 L-49.50 0.87 L-50.00 -0.00 L-49.00 -0.00 L-49.50 -0.87 L-50.00 -0.00 L-50.50 -0.87 L-51.00 -0.00 L-50.00 -0.00 L-50.50 0.87 L-49.50 0.87 L-50.00 1.73 L-50.50 0.87 L-51.00 1.73 L-50.00 1.73 L-50.50 2.60 L-49.50 2.60 L-50.00 1.73 L-49.00 1.73 L-49.50 0.87 L-48.50 0.87 L-49.00 1.73 L-48.00 1.73 L-48.50 0.87 L-47.50 0.87 L-48.00 -0.00 L-47.00 -0.00 L-47.50 0.87 L-46.50 0.87 L-47.00 1.73 L-47.50 0.87 L-48.00 1.73 L-47.00 1.73 L-47.50 2.60 L-46.50 2.60 L-47.00 1.73 L-46.00 1.73 L-46.50 0.87 L-45.50 0.87 L-46.00 1.73 L-45.00 1.73 L-45.50 0.87 L-44.50 0.87 L-45.00 -0.00 L-44.00 -0.00 L-44.50 0.87 L-43.50 0.87 L-44.00 1.73 L-44.50 0.87 L-45.00 1.73 L-44.00 1.73 L-44.50 2.60 L-43.50 2.60 L-44.00 3.46 L-44.50 2.60 L-45.00 3.46 L-45.50 2.60 L-44.50 2.60 L-45.00 1.73 L-45.50 2.60 L-46.00 1.73 L-46.50 2.60 L-45.50 2.60 L-46.00 3.46 L-45.00 3.46 L-45.50 4.33 L-46.00 3.46 L-46.50 4.33 L-45.50 4.33 L-46.00 5.20 L-45.00 5.20 L-45.50 6.06 L-46.00 5.20 L-46.50 6.06 L-47.00 5.20 L-46.00 5.20 L-46.50 4.33 L-47.00 5.20 L-47.50 4.33 L-48.00 5.20 L-48.50 4.33 L-47.50 4.33 L-48.00 3.46 L-47.00 3.46 L-47.50 4.33 L-46.50 4.33 L-47.00 3.46 L-46.00 3.46 L-46.50 2.60 L-47.00 3.46 L-47.50 2.60 L-48.00 3.46 L-48.50 2.60 L-47.50 2.60 L-48.00 1.73 L-48.50 2.60 L-49.00 1.73 L-49.50 2.60 L-48.50 2.60 L-49.00 3.46 L-48.00 3.46 L-48.50 4.33 L-49.00 3.46 L-49.50 4.33 L-48.50 4.33 L-49.00 5.20 L-48.00 5.20 L-48.50 6.06 L-49.00 5.20 L-49.50 6.06 L-50.00 5.20 L-49.00 5.20 L-49.50 4.33 L-50.00 5.20 L-50.50 4.33 L-51.00 5.20 L-50.00 5.20 L-50.50 6.06 L-49.50 6.06 L-50.00 6.93 L-50.50 6.06 L-51.00 6.93 L-50.00 6.93 L-50.50 7.79 L-49.50 7.79 L-50.00 6.93 L-49.00 6.93 L-49.50 6.06 L-48.50 6.06 L-49.00 6.93 L-48.00 6.93 L-48.50 6.06 L-47.50 6.06 L-48.00 5.20 L-47.00 5.20 L-47.50 6.06 L-46.50 6.06 L-47.00 6.93 L-47.50 6.06 L-48.00 6.93 L-47.00 6.93 L-47.50 7.79 L-46.50 7.79 L-47.00 6.93 L-46.00 6.93 L-46.50 6.06 L-45.50 6.06 L-46.00 6.93 L-45.00 6.93 L-45.50 6.06 L-44.50 6.06 L-45.00 5.20 L-44.00 5.20 L-44.50 6.06 L-43.50 6.06 L-44.00 6.93 L-44.50 6.06 L-45.00 6.93 L-44.00 6.93 L-44.50 7.79 L-43.50 7.79 L-44.00 8.66 L-44.50 7.79 L-45.00 8.66 L-45.50 7.79 L-44.50 7.79 L-45.00 6.93 L-45.50 7.79 L-46.00 6.93 L-46.50 7.79 L-45.50 7.79 L-46.00 8.66 L-45.00 8.66 L-45.50 9.53 L-46.00 8.66 L-46.50 9.53 L-45.50 9.53 L-46.00 10.39 L-45.00 10.39 L-45.50 9.53 L-44.50 9.53 L-45.00 8.66 L-44.00 8.66 L-44.50 9.53 L-43.50 9.53 L-44.00 8.66 L-43.00 8.66 L-43.50 7.79 L-42.50 7.79 L-43.00 8.66 L-42.00 8.66 L-42.50 9.53 L-43.00 8.66 L-43.50 9.53 L-42.50 9.53 L-43.00 10.39 L-42.00 10.39 L-42.50 9.53 L-41.50 9.53 L-42.00 8.66 L-41.00 8.66 L-41.50 9.53 L-40.50 9.53 L-41.00 8.66 L-40.00 8.66 L-40.50 7.79 L-39.50 7.79 L-40.00 8.66 L-39.00 8.66 L-39.50 9.53 L-40.00 8.66 L-40.50 9.53 L-39.50 9.53 L-40.00 10.39 L-39.00 10.39 L-39.50 11.26 L-40.00 10.39 L-40.50 11.26 L-41.00 10.39 L-40.00 10.39 L-40.50 9.53 L-41.00 10.39 L-41.50 9.53 L-42.00 10.39 L-41.00 10.39 L-41.50 11.26 L-40.50 11.26 L-41.00 12.12 L-41.50 11.26 L-42.00 12.12 L-41.00 12.12 L-41.50 12.99 L-40.50 12.99 L-41.00 13.86 L-41.50 12.99 L-42.00 13.86 L-42.50 12.99 L-41.50 12.99 L-42.00 12.12 L-42.50 12.99 L-43.00 12.12 L-43.50 12.99 L-44.00 12.12 L-43.00 12.12 L-43.50 11.26 L-42.50 11.26 L-43.00 12.12 L-42.00 12.12 L-42.50 11.26 L-41.50 11.26 L-42.00 10.39 L-42.50 11.26 L-43.00 10.39 L-43.50 11.26 L-44.00 10.39 L-43.00 10.39 L-43.50 9.53 L-44.00 10.39 L-44.50 9.53 L-45.00 10.39 L-44.00 10.39 L-44.50 11.26 L-43.50 11.26 L-44.00 12.12 L-44.50 11.26 L-45.00 12.12 L-44.00 12.12 L-44.50 12.99 L-43.50 12.99 L-44.00 13.86 L-44.50 12.99 L-45.00 13.86 L-45.50 12.99 L-44.50 12.99 L-45.00 12.12 L-45.50 12.99 L-46.00 12.12 L-46.50 12.99 L-45.50 12.99 L-46.00 13.86 L-45.00 13.86 L-45.50 14.72 L-46.00 13.86 L-46.50 14.72 L-45.50 14.72 L-46.00 15.59 L-45.00 15.59 L-45.50 16.45 L-46.00 15.59 L-46.50 16.45 L-47.00 15.59 L-46.00 15.59 L-46.50 14.72 L-47.00 15.59 L-47.50 14.72 L-48.00 15.59 L-48.50 14.72 L-47.50 14.72 L-48.00 13.86 L-47.00 13.86 L-47.50 14.72 L-46.50 14.72 L-47.00 13.86 L-46.00 13.86 L-46.50 12.99 L-47.00 13.86 L-47.50 12.99 L-48.00 13.86 L-48.50 12.99 L-47.50 12.99 L-48.00 12.12 L-48.50 12.99 L-49.00 12.12 L-49.50 12.99 L-50.00 12.12 L-49.00 12.12 L-49.50 11.26 L-48.50 11.26 L-49.00 12.12 L-48.00 12.12 L-48.50 11.26 L-47.50 11.26 L-48.00 10.39 L-47.00 10.39 L-47.50 11.26 L-46.50 11.26 L-47.00 12.12 L-47.50 11.26 L-48.00 12.12 L-47.00 12.12 L-47.50 12.99 L-46.50 12.99 L-47.00 12.12 L-46.00 12.12 L-46.50 11.26 L-45.50 11.26 L-46.00 12.12 L-45.00 12.12 L-45.50 11.26 L-44.50 11.26 L-45.00 10.39 L-45.50 11.26 L-46.00 10.39 L-46.50 11.26 L-47.00 10.39 L-46.00 10.39 L-46.50 9.53 L-47.00 10.39 L-47.50 9.53 L-48.00 10.39 L-48.50 9.53 L-47.50 9.53 L-48.00 8.66 L-47.00 8.66 L-47.50 9.53 L-46.50 9.53 L-47.00 8.66 L-46.00 8.66 L-46.50 7.79 L-47.00 8.66 L-47.50 7.79 L-48.00 8.66 L-48.50 7.79 L-47.50 7.79 L-48.00 6.93 L-48.50 7.79 L-49.00 6.93 L-49.50 7.79 L-48.50 7.79 L-49.00 8.66 L-48.00 8.66 L-48.50 9.53 L-49.00 8.66 L-49.50 9.53 L-48.50 9.53 L-49.00 10.39 L-48.00 10.39 L-48.50 11.26 L-49.00 10.39 L-49.50 11.26 L-50.00 10.39 L-49.00 10.39 L-49.50 9.53 L-50.00 10.39 L-50.50 9.53 L-51.00 10.39 L-50.00 10.39 L-50.50 11.26 L-49.50 11.26 L-50.00 12.12 L-50.50 11.26 L-51.00 12.12 L-50.00 12.12 L-50.50 12.99 L-49.50 12.99 L-50.00 13.86 L-50.50 12.99 L-51.00 13.86 L-51.50 12.99 L-50.50 12.99 L-51.00 12.12 L-51.50 12.99 L-52.00 12.12 L-52.50 12.99 L-53.00 12.12 L-52.00 12.12 L-52.50 11.26 L-51.50 11.26 L-52.00 12.12 L-51.00 12.12 L-51.50 11.26 L-50.50 11.26 L-51.00 10.39 L-51.50 11.26 L-52.00 10.39 L-52.50 11.26 L-53.00 10.39 L-52.00 10.39 L-52.50 9.53 L-53.00 10.39 L-53.50 9.53 L-54.00 10.39 L-53.00 10.39 L-53.50 11.26 L-52.50 11.26 L-53.00 12.12 L-53.50 11.26 L-54.00 12.12 L-53.00 12.12 L-53.50 12.99 L-52.50 12.99 L-53.00 13.86 L-53.50 12.99 L-54.00 13.86 L-54.50 12.99 L-53.50 12.99 L-54.00 12.12 L-54.50 12.99 L-55.00 12.12 L-55.50 12.99 L-54.50 12.99 L-55.00 13.86 L-54.00 13.86 L-54.50 14.72 L-55.00 13.86 L-55.50 14.72 L-54.50 14.72 L-55.00 15.59 L-54.00 15.59 L-54.50 14.72 L-53.50 14.72 L-54.00 13.86 L-53.00 13.86 L-53.50 14.72 L-52.50 14.72 L-53.00 13.86 L-52.00 13.86 L-52.50 12.99 L-51.50 12.99 L-52.00 13.86 L-51.00 13.86 L-51.50 14.72 L-52.00 13.86 L-52.50 14.72 L-51.50 14.72 L-52.00 15.59 L-51.00 15.59 L-51.50 14.72 L-50.50 14.72 L-51.00 13.86 L-50.00 13.86 L-50.50 14.72 L-49.50 14.72 L-50.00 13.86 L-49.00 13.86 L-49.50 12.99 L-48.50 12.99 L-49.00 13.86 L-48.00 13.86 L-48.50 14.72 L-49.00 13.86 L-49.50 14.72 L-48.50 14.72 L-49.00 15.59 L-48.00 15.59 L-48.50 16.45 L-49.00 15.59 L-49.50 16.45 L-50.00 15.59 L-49.00 15.59 L-49.50 14.72 L-50.00 15.59 L-50.50 14.72 L-51.00 15.59 L-50.00 15.59 L-50.50 16.45 L-49.50 16.45 L-50.00 17.32 L-50.50 16.45 L-51.00 17.32 L-50.00 17.32 L-50.50 18.19 L-49.50 18.19 L-50.00 17.32 L-49.00 17.32 L-49.50 16.45 L-48.50 16.45 L-49.00 17.32 L-48.00 17.32 L-48.50 16.45 L-47.50 16.45 L-48.00 15.59 L-47.00 15.59 L-47.50 16.45 L-46.50 16.45 L-47.00 17.32 L-47.50 16.45 L-48.00 17.32 L-47.00 17.32 L-47.50 18.19 L-46.50 18.19 L-47.00 17.32 L-46.00 17.32 L-46.50 16.45 L-45.50 16.45 L-46.00 17.32 L-45.00 17.32 L-45.50 16.45 L-44.50 16.45 L-45.00 15.59 L-44.00 15.59 L-44.50 16.45 L-43.50 16.45 L-44.00 17.32 L-44.50 16.45 L-45.00 17.32 L-44.00 17.32 L-44.50 18.19 L-43.50 18.19 L-44.00 19.05 L-44.50 18.19 L-45.00 19.05 L-45.50 18.19 L-44.50 18.19 L-45.00 17.32 L-45.50 18.19 L-46.00 17.32 L-46.50 18.19 L-45.50 18.19 L-46.00 19.05 L-45.00 19.05 L-45.50 19.92 L-46.00 19.05 L-46.50 19.92 L-45.50 19.92 L-46.00 20.78 L-45.00 20.78 L-45.50 21.65 L-46.00 20.78 L-46.50 21.65 L-47.00 20.78 L-46.00 20.78 L-46.50 19.92 L-47.00 20.78 L-47.50 19.92 L-48.00 20.78 L-48.50 19.92 L-47.50 19.92 L-48.00 19.05 L-47.00 19.05 L-47.50 19.92 L-46.50 19.92 L-47.00 19.05 L-46.00 19.05 L-46.50 18.19 L-47.00 19.05 L-47.50 18.19 L-48.00 19.05 L-48.50 18.19 L-47.50 18.19 L-48.00 17.32 L-48.50 18.19 L-49.00 17.32 L-49.50 18.19 L-48.50 18.19 L-49.00 19.05 L-48.00 19.05 L-48.50 19.92 L-49.00 19.05 L-49.50 19.92 L-48.50 19.92 L-49.00 20.78 L-48.00 20.78 L-48.50 21.65 L-49.00 20.78 L-49.50 21.65 L-50.00 20.78 L-49.00 20.78 L-49.50 19.92 L-50.00 20.78 L-50.50 19.92 L-51.00 20.78 L-50.00 20.78 L-50.50 21.65 L-49.50 21.65 L-50.00 22.52 L-50.50 21.65 L-51.00 22.52 L-50.00 22.52 L-50.50 23.38 L-49.50 23.38 L-50.00 22.52 L-49.00 22.52 L-49.50 21.65 L-48.50 21.65 L-49.00 22.52 L-48.00 22.52 L-48.50 21.65 L-47.50 21.65 L-48.00 20.78 L-47.00 20.78 L-47.50 21.65 L-46.50 21.65 L-47.00 22.52 L-47.50 21.65 L-48.00 22.52 L-47.00 22.52 L-47.50 23.38 L-46.50 23.38 L-47.00 22.52 L-46.00 22.52 L-46.50 21.65 L-45.50 21.65 L-46.00 22.52 L-45.00 22.52 L-45.50 21.65 L-44.50 21.65 L-45.00 20.78 L-44.00 20.78 L-44.50 21.65 L-43.50 21.65 L-44.00 22.52 L-44.50 21.65 L-45.00 22.52 L-44.00 22.52 L-44.50 23.38 L-43.50 23.38 L-44.00 24.25 L-44.50 23.38 L-45.00 24.25 L-45.50 23.38 L-44.50 23.38 L-45.00 22.52 L-45.50 23.38 L-46.00 22.52 L-46.50 23.38 L-45.50 23.38 L-46.00 24.25 L-45.00 24.25 L-45.50 25.11 L-46.00 24.25 L-46.50 25.11 L-45.50 25.11 L-46.00 25.98 L-45.00 25.98 L-45.50 25.11 L-44.50 25.11 L-45.00 24.25 L-44.00 24.25 L-44.50 25.11 L-43.50 25.11 L-44.00 24.25 L-43.00 24.25 L-43.50 23.38 L-42.50 23.38 L-43.00 24.25 L-42.00 24.25 L-42.50 25.11 L-43.00 24.25 L-43.50 25.11 L-42.50 25.11 L-43.00 25.98 L-42.00 25.98 L-42.50 25.11 L-41.50 25.11 L-42.00 24.25 L-41.00 24.25 L-41.50 25.11 L-40.50 25.11 L-41.00 24.25 L-40.00 24.25 L-40.50 23.38 L-41.00 24.25 L-41.50 23.38 L-42.00 24.25 L-42.50 23.38 L-41.50 23.38 L-42.00 22.52 L-42.50 23.38 L-43.00 22.52 L-43.50 23.38 L-44.00 22.52 L-43.00 22.52 L-43.50 21.65 L-42.50 21.65 L-43.00 22.52 L-42.00 22.52 L-42.50 21.65 L-41.50 21.65 L-42.00 20.78 L-42.50 21.65 L-43.00 20.78 L-43.50 21.65 L-44.00 20.78 L-43.00 20.78 L-43.50 19.92 L-44.00 20.78 L-44.50 19.92 L-45.00 20.78 L-45.50 19.92 L-44.50 19.92 L-45.00 19.05 L-44.00 19.05 L-44.50 19.92 L-43.50 19.92 L-44.00 19.05 L-43.00 19.05 L-43.50 18.19 L-42.50 18.19 L-43.00 19.05 L-42.00 19.05 L-42.50 19.92 L-43.00 19.05 L-43.50 19.92 L-42.50 19.92 L-43.00 20.78 L-42.00 20.78 L-42.50 19.92 L-41.50 19.92 L-42.00 19.05 L-41.00 19.05 L-41.50 19.92 L-40.50 19.92 L-41.00 19.05 L-40.00 19.05 L-40.50 18.19 L-41.00 19.05 L-41.50 18.19 L-42.00 19.05 L-42.50 18.19 L-41.50 18.19 L-42.00 17.32 L-42.50 18.19 L-43.00 17.32 L-43.50 18.19 L-44.00 17.32 L-43.00 17.32 L-43.50 16.45 L-42.50 16.45 L-43.00 17.32 L-42.00 17.32 L-42.50 16.45 L-41.50 16.45 L-42.00 15.59 L-42.50 16.45 L-43.00 15.59 L-43.50 16.45 L-44.00 15.59 L-43.00 15.59 L-43.50 14.72 L-44.00 15.59 L-44.50 14.72 L-45.00 15.59 L-45.50 14.72 L-44.50 14.72 L-45.00 13.86 L-44.00 13.86 L-44.50 14.72 L-43.50 14.72 L-44.00 13.86 L-43.00 13.86 L-43.50 12.99 L-42.50 12.99 L-43.00 13.86 L-42.00 13.86 L-42.50 14.72 L-43.00 13.86 L-43.50 14.72 L-42.50 14.72 L-43.00 15.59 L-42.00 15.59 L-42.50 14.72 L-41.50 14.72 L-42.00 13.86 L-41.00 13.86 L-41.50 14.72 L-40.50 14.72 L-41.00 13.86 L-40.00 13.86 L-40.50 12.99 L-39.50 12.99 L-40.00 13.86 L-39.00 13.86 L-39.50 14.72 L-40.00 13.86 L-40.50 14.72 L-39.50 14.72 L-40.00 15.59 L-39.00 15.59 L-39.50 16.45 L-40.00 15.59 L-40.50 16.45 L-41.00 15.59 L-40.00 15.59 L-40.50 14.72 L-41.00 15.59 L-41.50 14.72 L-42.00 15.59 L-41.00 15.59 L-41.50 16.45 L-40.50 16.45 L-41.00 17.32 L-41.50 16.45 L-42.00 17.32 L-41.00 17.32 L-41.50 18.19 L-40.50 18.19 L-41.00 17.32 L-40.00 17.32 L-40.50 16.45 L-39.50 16.45 L-40.00 17.32 L-39.00 17.32 L-39.50 16.45 L-38.50 16.45 L-39.00 15.59 L-38.00 15.59 L-38.50 16.45 L-37.50 16.45 L-38.00 17.32 L-38.50 16.45 L-39.00 17.32 L-38.00 17.32 L-38.50 18.19 L-37.50 18.19 L-38.00 17.32 L-37.00 17.32 L-37.50 16.45 L-36.50 16.45 L-37.00 17.32 L-36.00 17.32 L-36.50 16.45 L-35.50 16.45 L-36.00 15.59 L-36.50 16.45 L-37.00 15.59 L-37.50 16.45 L-38.00 15.59 L-37.00 15.59 L-37.50 14.72 L-38.00 15.59 L-38.50 14.72 L-39.00 15.59 L-39.50 14.72 L-38.50 14.72 L-39.00 13.86 L-38.00 13.86 L-38.50 14.72 L-37.50 14.72 L-38.00 13.86 L-37.00 13.86 L-37.50 12.99 L-38.00 13.86 L-38.50 12.99 L-39.00 13.86 L-39.50 12.99 L-38.50 12.99 L-39.00 12.12 L-39.50 12.99 L-40.00 12.12 L-40.50 12.99 L-41.00 12.12 L-40.00 12.12 L-40.50 11.26 L-39.50 11.26 L-40.00 12.12 L-39.00 12.12 L-39.50 11.26 L-38.50 11.26 L-39.00 10.39 L-38.00 10.39 L-38.50 11.26 L-37.50 11.26 L-38.00 12.12 L-38.50 11.26 L-39.00 12.12 L-38.00 12.12 L-38.50 12.99 L-37.50 12.99 L-38.00 12.12 L-37.00 12.12 L-37.50 11.26 L-36.50 11.26 L-37.00 12.12 L-36.00 12.12 L-36.50 11.26 L-35.50 11.26 L-36.00 10.39 L-36.50 11.26 L-37.00 10.39 L-37.50 11.26 L-38.00 10.39 L-37.00 10.39 L-37.50 9.53 L-38.00 10.39 L-38.50 9.53 L-39.00 10.39 L-39.50 9.53 L-38.50 9.53 L-39.00 8.66 L-38.00 8.66 L-38.50 9.53 L-37.50 9.53 L-38.00 8.66 L-37.00 8.66 L-37.50 7.79 L-38.00 8.66 L-38.50 7.79 L-39.00 8.66 L-39.50 7.79 L-38.50 7.79 L-39.00 6.93 L-39.50 7.79 L-40.00 6.93 L-40.50 7.79 L-41.00 6.93 L-40.00 6.93 L-40.50 6.06 L-39.50 6.06 L-40.00 6.93 L-39.00 6.93 L-39.50 6.06 L-38.50 6.06 L-39.00 5.20 L-38.00 5.20 L-38.50 6.06 L-37.50 6.06 L-38.00 6.93 L-38.50 6.06 L-39.00 6.93 L-38.00 6.93 L-38.50 7.79 L-37.50 7.79 L-38.00 6.93 L-37.00 6.93 L-37.50 6.06 L-36.50 6.06 L-37.00 6.93 L-36.00 6.93 L-36.50 6.06 L-35.50 6.06 L-36.00 5.20 L-35.00 5.20 L-35.50 6.06 L-34.50 6.06 L-35.00 6.93 L-35.50 6.06 L-36.00 6.93 L-35.00 6.93 L-35.50 7.79 L-34.50 7.79 L-35.00 8.66 L-35.50 7.79 L-36.00 8.66 L-36.50 7.79 L-35.50 7.79 L-36.00 6.93 L-36.50 7.79 L-37.00 6.93 L-37.50 7.79 L-36.50 7.79 L-37.00 8.66 L-36.00 8.66 L-36.50 9.53 L-37.00 8.66 L-37.50 9.53 L-36.50 9.53 L-37.00 10.39 L-36.00 10.39 L-36.50 9.53 L-35.50 9.53 L-36.00 8.66 L-35.00 8.66 L-35.50 9.53 L-34.50 9.53 L-35.00 8.66 L-34.00 8.66 L-34.50 7.79 L-33.50 7.79 L-34.00 8.66 L-33.00 8.66 L-33.50 9.53 L-34.00 8.66 L-34.50 9.53 L-33.50 9.53 L-34.00 10.39 L-33.00 10.39 L-33.50 9.53 L-32.50 9.53 L-33.00 8.66 L-32.00 8.66 L-32.50 9.53 L-31.50 9.53 L-32.00 8.66 L-31.00 8.66 L-31.50 7.79 L-30.50 7.79 L-31.00 8.66 L-30.00 8.66 L-30.50 9.53 L-31.00 8.66 L-31.50 9.53 L-30.50 9.53 L-31.00 10.39 L-30.00 10.39 L-30.50 11.26 L-31.00 10.39 L-31.50 11.26 L-32.00 10.39 L-31.00 10.39 L-31.50 9.53 L-32.00 10.39 L-32.50 9.53 L-33.00 10.39 L-32.00 10.39 L-32.50 11.26 L-31.50 11.26 L-32.00 12.12 L-32.50 11.26 L-33.00 12.12 L-32.00 12.12 L-32.50 12.99 L-31.50 12.99 L-32.00 13.86 L-32.50 12.99 L-33.00 13.86 L-33.50 12.99 L-32.50 12.99 L-33.00 12.12 L-33.50 12.99 L-34.00 12.12 L-34.50 12.99 L-35.00 12.12 L-34.00 12.12 L-34.50 11.26 L-33.50 11.26 L-34.00 12.12 L-33.00 12.12 L-33.50 11.26 L-32.50 11.26 L-33.00 10.39 L-33.50 11.26 L-34.00 10.39 L-34.50 11.26 L-35.00 10.39 L-34.00 10.39 L-34.50 9.53 L-35.00 10.39 L-35.50 9.53 L-36.00 10.39 L-35.00 10.39 L-35.50 11.26 L-34.50 11.26 L-35.00 12.12 L-35.50 11.26 L-36.00 12.12 L-35.00 12.12 L-35.50 12.99 L-34.50 12.99 L-35.00 13.86 L-35.50 12.99 L-36.00 13.86 L-36.50 12.99 L-35.50 12.99 L-36.00 12.12 L-36.50 12.99 L-37.00 12.12 L-37.50 12.99 L-36.50 12.99 L-37.00 13.86 L-36.00 13.86 L-36.50 14.72 L-37.00 13.86 L-37.50 14.72 L-36.50 14.72 L-37.00 15.59 L-36.00 15.59 L-36.50 14.72 L-35.50 14.72 L-36.00 13.86 L-35.00 13.86 L-35.50 14.72 L-34.50 14.72 L-35.00 13.86 L-34.00 13.86 L-34.50 12.99 L-33.50 12.99 L-34.00 13.86 L-33.00 13.86 L-33.50 14.72 L-34.00 13.86 L-34.50 14.72 L-33.50 14.72 L-34.00 15.59 L-33.00 15.59 L-33.50 14.72 L-32.50 14.72 L-33.00 13.86 L-32.00 13.86 L-32.50 14.72 L-31.50 14.72 L-32.00 13.86 L-31.00 13.86 L-31.50 12.99 L-30.50 12.99 L-31.00 13.86 L-30.00 13.86 L-30.50 14.72 L-31.00 13.86 L-31.50 14.72 L-30.50 14.72 L-31.00 15.59 L-30.00 15.59 L-30.50 16.45 L-31.00 15.59 L-31.50 16.45 L-32.00 15.59 L-31.00 15.59 L-31.50 14.72 L-32.00 15.59 L-32.50 14.72 L-33.00 15.59 L-32.00 15.59 L-32.50 16.45 L-31.50 16.45 L-32.00 17.32 L-32.50 16.45 L-33.00 17.32 L-32.00 17.32 L-32.50 18.19 L-31.50 18.19 L-32.00 17.32 L-31.00 17.32 L-31.50 16.45 L-30.50 16.45 L-31.00 17.32 L-30.00 17.32 L-30.50 16.45 L-29.50 16.45 L-30.00 15.59 L-29.00 15.59 L-29.50 16.45 L-28.50 16.45 L-29.00 17.32 L-29.50 16.45 L-30.00 17.32 L-29.00 17.32 L-29.50 18.19 L-28.50 18.19 L-29.00 17.32 L-28.00 17.32 L-28.50 16.45 L-27.50 16.45 L-28.00 17.32 L-27.00 17.32 L-27.50 16.45 L-26.50 16.45 L-27.00 15.59 L-27.50 16.45 L-28.00 15.59 L-28.50 16.45 L-29.00 15.59 L-28.00 15.59 L-28.50 14.72 L-29.00 15.59 L-29.50 14.72 L-30.00 15.59 L-30.50 14.72 L-29.50 14.72 L-30.00 13.86 L-29.00 13.86 L-29.50 14.72 L-28.50 14.72 L-29.00 13.86 L-28.00 13.86 L-28.50 12.99 L-29.00 13.86 L-29.50 12.99 L-30.00 13.86 L-30.50 12.99 L-29.50 12.99 L-30.00 12.12 L-30.50 12.99 L-31.00 12.12 L-31.50 12.99 L-32.00 12.12 L-31.00 12.12 L-31.50 11.26 L-30.50 11.26 L-31.00 12.12 L-30.00 12.12 L-30.50 11.26 L-29.50 11.26 L-30.00 10.39 L-29.00 10.39 L-29.50 11.26 L-28.50 11.26 L-29.00 12.12 L-29.50 11.26 L-30.00 12.12 L-29.00 12.12 L-29.50 12.99 L-28.50 12.99 L-29.00 12.12 L-28.00 12.12 L-28.50 11.26 L-27.50 11.26 L-28.00 12.12 L-27.00 12.12 L-27.50 11.26 L-26.50 11.26 L-27.00 10.39 L-27.50 11.26 L-28.00 10.39 L-28.50 11.26 L-29.00 10.39 L-28.00 10.39 L-28.50 9.53 L-29.00 10.39 L-29.50 9.53 L-30.00 10.39 L-30.50 9.53 L-29.50 9.53 L-30.00 8.66 L-29.00 8.66 L-29.50 9.53 L-28.50 9.53 L-29.00 8.66 L-28.00 8.66 L-28.50 7.79 L-29.00 8.66 L-29.50 7.79 L-30.00 8.66 L-30.50 7.79 L-29.50 7.79 L-30.00 6.93 L-30.50 7.79 L-31.00 6.93 L-31.50 7.79 L-32.00 6.93 L-31.00 6.93 L-31.50 6.06 L-30.50 6.06 L-31.00 6.93 L-30.00 6.93 L-30.50 6.06 L-29.50 6.06 L-30.00 5.20 L-29.00 5.20 L-29.50 6.06 L-28.50 6.06 L-29.00 6.93 L-29.50 6.06 L-30.00 6.93 L-29.00 6.93 L-29.50 7.79 L-28.50 7.79 L-29.00 6.93 L-28.00 6.93 L-28.50 6.06 L-27.50 6.06 L-28.00 6.93 L-27.00 6.93 L-27.50 6.06 L-26.50 6.06 L-27.00 5.20 L-26.00 5.20 L-26.50 6.06 L-25.50 6.06 L-26.00 6.93 L-26.50 6.06 L-27.00 6.93 L-26.00 6.93 L-26.50 7.79 L-25.50 7.79 L-26.00 8.66 L-26.50 7.79 L-27.00 8.66 L-27.50 7.79 L-26.50 7.79 L-27.00 6.93 L-27.50 7.79 L-28.00 6.93 L-28.50 7.79 L-27.50 7.79 L-28.00 8.66 L-27.00 8.66 L-27.50 9.53 L-28.00 8.66 L-28.50 9.53 L-27.50 9.53 L-28.00 10.39 L-27.00 10.39 L-27.50 9.53 L-26.50 9.53 L-27.00 8.66 L-26.00 8.66 L-26.50 9.53 L-25.50 9.53 L-26.00 8.66 L-25.00 8.66 L-25.50 7.79 L-24.50 7.79 L-25.00 8.66 L-24.00 8.66 L-24.50 9.53 L-25.00 8.66 L-25.50 9.53 L-24.50 9.53 L-25.00 10.39 L-24.00 10.39 L-24.50 9.53 L-23.50 9.53 L-24.00 8.66 L-23.00 8.66 L-23.50 9.53 L-22.50 9.53 L-23.00 8.66 L-22.00 8.66 L-22.50 7.79 L-23.00 8.66 L-23.50 7.79 L-24.00 8.66 L-24.50 7.79 L-23.50 7.79 L-24.00 6.93 L-24.50 7.79 L-25.00 6.93 L-25.50 7.79 L-26.00 6.93 L-25.00 6.93 L-25.50 6.06 L-24.50 6.06 L-25.00 6.93 L-24.00 6.93 L-24.50 6.06 L-23.50 6.06 L-24.00 5.20 L-24.50 6.06 L-25.00 5.20 L-25.50 6.06 L-26.00 5.20 L-25.00 5.20 L-25.50 4.33 L-26.00 5.20 L-26.50 4.33 L-27.00 5.20 L-27.50 4.33 L-26.50 4.33 L-27.00 3.46 L-26.00 3.46 L-26.50 4.33 L-25.50 4.33 L-26.00 3.46 L-25.00 3.46 L-25.50 2.60 L-24.50 2.60 L-25.00 3.46 L-24.00 3.46 L-24.50 4.33 L-25.00 3.46 L-25.50 4.33 L-24.50 4.33 L-25.00 5.20 L-24.00 5.20 L-24.50 4.33 L-23.50 4.33 L-24.00 3.46 L-23.00 3.46 L-23.50 4.33 L-22.50 4.33 L-23.00 3.46 L-22.00 3.46 L-22.50 2.60 L-23.00 3.46 L-23.50 2.60 L-24.00 3.46 L-24.50 2.60 L-23.50 2.60 L-24.00 1.73 L-24.50 2.60 L-25.00 1.73 L-25.50 2.60 L-26.00 1.73 L-25.00 1.73 L-25.50 0.87 L-24.50 0.87 L-25.00 1.73 L-24.00 1.73 L-24.50 0.87 L-23.50 0.87 L-24.00 0.00 L-24.50 0.87 L-25.00 0.00 L-25.50 0.87 L-26.00 0.00 L-25.00 0.00 L-25.50 -0.87 L-26.00 0.00 L-26.50 -0.87 L-27.00 0.00 L-27.50 -0.87 L-26.50 -0.87 L-27.00 -1.73 L-26.00 -1.73 L-26.50 -0.87 L-25.50 -0.87 L-26.00 -1.73 L-25.00 -1.73 L-25.50 -2.60 L-24.50 -2.60 L-25.00 -1.73 L-24.00 -1.73 L-24.50 -0.87 L-25.00 -1.73 L-25.50 -0.87 L-24.50 -0.87 L-25.00 0.00 L-24.00 0.00 L-24.50 -0.87 L-23.50 -0.87 L-24.00 -1.73 L-23.00 -1.73 L-23.50 -0.87 L-22.50 -0.87 L-23.00 -1.73 L-22.00 -1.73 L-22.50 -2.60 L-21.50 -2.60 L-22.00 -1.73 L-21.00 -1.73 L-21.50 -0.87 L-22.00 -1.73 L-22.50 -0.87 L-21.50 -0.87 L-22.00 0.00 L-21.00 0.00 L-21.50 0.87 L-22.00 0.00 L-22.50 0.87 L-23.00 0.00 L-22.00 0.00 L-22.50 -0.87 L-23.00 0.00 L-23.50 -0.87 L-24.00 0.00 L-23.00 0.00 L-23.50 0.87 L-22.50 0.87 L-23.00 1.73 L-23.50 0.87 L-24.00 1.73 L-23.00 1.73 L-23.50 2.60 L-22.50 2.60 L-23.00 1.73 L-22.00 1.73 L-22.50 0.87 L-21.50 0.87 L-22.00 1.73 L-21.00 1.73 L-21.50 0.87 L-20.50 0.87 L-21.00 0.00 L-20.00 0.00 L-20.50 0.87 L-19.50 0.87 L-20.00 1.73 L-20.50 0.87 L-21.00 1.73 L-20.00 1.73 L-20.50 2.60 L-19.50 2.60 L-20.00 1.73 L-19.00 1.73 L-19.50 0.87 L-18.50 0.87 L-19.00 1.73 L-18.00 1.73 L-18.50 0.87 L-17.50 0.87 L-18.00 0.00 L-17.00 0.00 L-17.50 0.87 L-16.50 0.87 L-17.00 1.73 L-17.50 0.87 L-18.00 1.73 L-17.00 1.73 L-17.50 2.60 L-16.50 2.60 L-17.00 3.46 L-17.50 2.60 L-18.00 3.46 L-18.50 2.60 L-17.50 2.60 L-18.00 1.73 L-18.50 2.60 L-19.00 1.73 L-19.50 2.60 L-18.50 2.60 L-19.00 3.46 L-18.00 3.46 L-18.50 4.33 L-19.00 3.46 L-19.50 4.33 L-18.50 4.33 L-19.00 5.20 L-18.00 5.20 L-18.50 6.06 L-19.00 5.20 L-19.50 6.06 L-20.00 5.20 L-19.00 5.20 L-19.50 4.33 L-20.00 5.20 L-20.50 4.33 L-21.00 5.20 L-21.50 4.33 L-20.50 4.33 L-21.00 3.46 L-20.00 3.46 L-20.50 4.33 L-19.50 4.33 L-20.00 3.46 L-19.00 3.46 L-19.50 2.60 L-20.00 3.46 L-20.50 2.60 L-21.00 3.46 L-21.50 2.60 L-20.50 2.60 L-21.00 1.73 L-21.50 2.60 L-22.00 1.73 L-22.50 2.60 L-21.50 2.60 L-22.00 3.46 L-21.00 3.46 L-21.50 4.33 L-22.00 3.46 L-22.50 4.33 L-21.50 4.33 L-22.00 5.20 L-21.00 5.20 L-21.50 6.06 L-22.00 5.20 L-22.50 6.06 L-23.00 5.20 L-22.00 5.20 L-22.50 4.33 L-23.00 5.20 L-23.50 4.33 L-24.00 5.20 L-23.00 5.20 L-23.50 6.06 L-22.50 6.06 L-23.00 6.93 L-23.50 6.06 L-24.00 6.93 L-23.00 6.93 L-23.50 7.79 L-22.50 7.79 L-23.00 6.93 L-22.00 6.93 L-22.50 6.06 L-21.50 6.06 L-22.00 6.93 L-21.00 6.93 L-21.50 6.06 L-20.50 6.06 L-21.00 5.20 L-20.00 5.20 L-20.50 6.06 L-19.50 6.06 L-20.00 6.93 L-20.50 6.06 L-21.00 6.93 L-20.00 6.93 L-20.50 7.79 L-19.50 7.79 L-20.00 6.93 L-19.00 6.93 L-19.50 6.06 L-18.50 6.06 L-19.00 6.93 L-18.00 6.93 L-18.50 6.06 L-17.50 6.06 L-18.00 5.20 L-17.00 5.20 L-17.50 6.06 L-16.50 6.06 L-17.00 6.93 L-17.50 6.06 L-18.00 6.93 L-17.00 6.93 L-17.50 7.79 L-16.50 7.79 L-17.00 8.66 L-17.50 7.79 L-18.00 8.66 L-18.50 7.79 L-17.50 7.79 L-18.00 6.93 L-18.50 7.79 L-19.00 6.93 L-19.50 7.79 L-18.50 7.79 L-19.00 8.66 L-18.00 8.66 L-18.50 9.53 L-19.00 8.66 L-19.50 9.53 L-18.50 9.53 L-19.00 10.39 L-18.00 10.39 L-18.50 9.53 L-17.50 9.53 L-18.00 8.66 L-17.00 8.66 L-17.50 9.53 L-16.50 9.53 L-17.00 8.66 L-16.00 8.66 L-16.50 7.79 L-15.50 7.79 L-16.00 8.66 L-15.00 8.66 L-15.50 9.53 L-16.00 8.66 L-16.50 9.53 L-15.50 9.53 L-16.00 10.39 L-15.00 10.39 L-15.50 9.53 L-14.50 9.53 L-15.00 8.66 L-14.00 8.66 L-14.50 9.53 L-13.50 9.53 L-14.00 8.66 L-13.00 8.66 L-13.50 7.79 L-12.50 7.79 L-13.00 8.66 L-12.00 8.66 L-12.50 9.53 L-13.00 8.66 L-13.50 9.53 L-12.50 9.53 L-13.00 10.39 L-12.00 10.39 L-12.50 11.26 L-13.00 10.39 L-13.50 11.26 L-14.00 10.39 L-13.00 10.39 L-13.50 9.53 L-14.00 10.39 L-14.50 9.53 L-15.00 10.39 L-14.00 10.39 L-14.50 11.26 L-13.50 11.26 L-14.00 12.12 L-14.50 11.26 L-15.00 12.12 L-14.00 12.12 L-14.50 12.99 L-13.50 12.99 L-14.00 13.86 L-14.50 12.99 L-15.00 13.86 L-15.50 12.99 L-14.50 12.99 L-15.00 12.12 L-15.50 12.99 L-16.00 12.12 L-16.50 12.99 L-17.00 12.12 L-16.00 12.12 L-16.50 11.26 L-15.50 11.26 L-16.00 12.12 L-15.00 12.12 L-15.50 11.26 L-14.50 11.26 L-15.00 10.39 L-15.50 11.26 L-16.00 10.39 L-16.50 11.26 L-17.00 10.39 L-16.00 10.39 L-16.50 9.53 L-17.00 10.39 L-17.50 9.53 L-18.00 10.39 L-17.00 10.39 L-17.50 11.26 L-16.50 11.26 L-17.00 12.12 L-17.50 11.26 L-18.00 12.12 L-17.00 12.12 L-17.50 12.99 L-16.50 12.99 L-17.00 13.86 L-17.50 12.99 L-18.00 13.86 L-18.50 12.99 L-17.50 12.99 L-18.00 12.12 L-18.50 12.99 L-19.00 12.12 L-19.50 12.99 L-18.50 12.99 L-19.00 13.86 L-18.00 13.86 L-18.50 14.72 L-19.00 13.86 L-19.50 14.72 L-18.50 14.72 L-19.00 15.59 L-18.00 15.59 L-18.50 16.45 L-19.00 15.59 L-19.50 16.45 L-20.00 15.59 L-19.00 15.59 L-19.50 14.72 L-20.00 15.59 L-20.50 14.72 L-21.00 15.59 L-21.50 14.72 L-20.50 14.72 L-21.00 13.86 L-20.00 13.86 L-20.50 14.72 L-19.50 14.72 L-20.00 13.86 L-19.00 13.86 L-19.50 12.99 L-20.00 13.86 L-20.50 12.99 L-21.00 13.86 L-21.50 12.99 L-20.50 12.99 L-21.00 12.12 L-21.50 12.99 L-22.00 12.12 L-22.50 12.99 L-23.00 12.12 L-22.00 12.12 L-22.50 11.26 L-21.50 11.26 L-22.00 12.12 L-21.00 12.12 L-21.50 11.26 L-20.50 11.26 L-21.00 10.39 L-20.00 10.39 L-20.50 11.26 L-19.50 11.26 L-20.00 12.12 L-20.50 11.26 L-21.00 12.12 L-20.00 12.12 L-20.50 12.99 L-19.50 12.99 L-20.00 12.12 L-19.00 12.12 L-19.50 11.26 L-18.50 11.26 L-19.00 12.12 L-18.00 12.12 L-18.50 11.26 L-17.50 11.26 L-18.00 10.39 L-18.50 11.26 L-19.00 10.39 L-19.50 11.26 L-20.00 10.39 L-19.00 10.39 L-19.50 9.53 L-20.00 10.39 L-20.50 9.53 L-21.00 10.39 L-21.50 9.53 L-20.50 9.53 L-21.00 8.66 L-20.00 8.66 L-20.50 9.53 L-19.50 9.53 L-20.00 8.66 L-19.00 8.66 L-19.50 7.79 L-20.00 8.66 L-20.50 7.79 L-21.00 8.66 L-21.50 7.79 L-20.50 7.79 L-21.00 6.93 L-21.50 7.79 L-22.00 6.93 L-22.50 7.79 L-21.50 7.79 L-22.00 8.66 L-21.00 8.66 L-21.50 9.53 L-22.00 8.66 L-22.50 9.53 L-21.50 9.53 L-22.00 10.39 L-21.00 10.39 L-21.50 11.26 L-22.00 10.39 L-22.50 11.26 L-23.00 10.39 L-22.00 10.39 L-22.50 9.53 L-23.00 10.39 L-23.50 9.53 L-24.00 10.39 L-23.00 10.39 L-23.50 11.26 L-22.50 11.26 L-23.00 12.12 L-23.50 11.26 L-24.00 12.12 L-23.00 12.12 L-23.50 12.99 L-22.50 12.99 L-23.00 13.86 L-23.50 12.99 L-24.00 13.86 L-24.50 12.99 L-23.50 12.99 L-24.00 12.12 L-24.50 12.99 L-25.00 12.12 L-25.50 12.99 L-26.00 12.12 L-25.00 12.12 L-25.50 11.26 L-24.50 11.26 L-25.00 12.12 L-24.00 12.12 L-24.50 11.26 L-23.50 11.26 L-24.00 10.39 L-24.50 11.26 L-25.00 10.39 L-25.50 11.26 L-26.00 10.39 L-25.00 10.39 L-25.50 9.53 L-26.00 10.39 L-26.50 9.53 L-27.00 10.39 L-26.00 10.39 L-26.50 11.26 L-25.50 11.26 L-26.00 12.12 L-26.50 11.26 L-27.00 12.12 L-26.00 12.12 L-26.50 12.99 L-25.50 12.99 L-26.00 13.86 L-26.50 12.99 L-27.00 13.86 L-27.50 12.99 L-26.50 12.99 L-27.00 12.12 L-27.50 12.99 L-28.00 12.12 L-28.50 12.99 L-27.50 12.99 L-28.00 13.86 L-27.00 13.86 L-27.50 14.72 L-28.00 13.86 L-28.50 14.72 L-27.50 14.72 L-28.00 15.59 L-27.00 15.59 L-27.50 14.72 L-26.50 14.72 L-27.00 13.86 L-26.00 13.86 L-26.50 14.72 L-25.50 14.72 L-26.00 13.86 L-25.00 13.86 L-25.50 12.99 L-24.50 12.99 L-25.00 13.86 L-24.00 13.86 L-24.50 14.72 L-25.00 13.86 L-25.50 14.72 L-24.50 14.72 L-25.00 15.59 L-24.00 15.59 L-24.50 14.72 L-23.50 14.72 L-24.00 13.86 L-23.00 13.86 L-23.50 14.72 L-22.50 14.72 L-23.00 13.86 L-22.00 13.86 L-22.50 12.99 L-21.50 12.99 L-22.00 13.86 L-21.00 13.86 L-21.50 14.72 L-22.00 13.86 L-22.50 14.72 L-21.50 14.72 L-22.00 15.59 L-21.00 15.59 L-21.50 16.45 L-22.00 15.59 L-22.50 16.45 L-23.00 15.59 L-22.00 15.59 L-22.50 14.72 L-23.00 15.59 L-23.50 14.72 L-24.00 15.59 L-23.00 15.59 L-23.50 16.45 L-22.50 16.45 L-23.00 17.32 L-23.50 16.45 L-24.00 17.32 L-23.00 17.32 L-23.50 18.19 L-22.50 18.19 L-23.00 17.32 L-22.00 17.32 L-22.50 16.45 L-21.50 16.45 L-22.00 17.32 L-21.00 17.32 L-21.50 16.45 L-20.50 16.45 L-21.00 15.59 L-20.00 15.59 L-20.50 16.45 L-19.50 16.45 L-20.00 17.32 L-20.50 16.45 L-21.00 17.32 L-20.00 17.32 L-20.50 18.19 L-19.50 18.19 L-20.00 17.32 L-19.00 17.32 L-19.50 16.45 L-18.50 16.45 L-19.00 17.32 L-18.00 17.32 L-18.50 16.45 L-17.50 16.45 L-18.00 15.59 L-17.00 15.59 L-17.50 16.45 L-16.50 16.45 L-17.00 17.32 L-17.50 16.45 L-18.00 17.32 L-17.00 17.32 L-17.50 18.19 L-16.50 18.19 L-17.00 19.05 L-17.50 18.19 L-18.00 19.05 L-18.50 18.19 L-17.50 18.19 L-18.00 17.32 L-18.50 18.19 L-19.00 17.32 L-19.50 18.19 L-18.50 18.19 L-19.00 19.05 L-18.00 19.05 L-18.50 19.92 L-19.00 19.05 L-19.50 19.92 L-18.50 19.92 L-19.00 20.78 L-18.00 20.78 L-18.50 21.65 L-19.00 20.78 L-19.50 21.65 L-20.00 20.78 L-19.00 20.78 L-19.50 19.92 L-20.00 20.78 L-20.50 19.92 L-21.00 20.78 L-21.50 19.92 L-20.50 19.92 L-21.00 19.05 L-20.00 19.05 L-20.50 19.92 L-19.50 19.92 L-20.00 19.05 L-19.00 19.05 L-19.50 18.19 L-20.00 19.05 L-20.50 18.19 L-21.00 19.05 L-21.50 18.19 L-20.50 18.19 L-21.00 17.32 L-21.50 18.19 L-22.00 17.32 L-22.50 18.19 L-21.50 18.19 L-22.00 19.05 L-21.00 19.05 L-21.50 19.92 L-22.00 19.05 L-22.50 19.92 L-21.50 19.92 L-22.00 20.78 L-21.00 20.78 L-21.50 21.65 L-22.00 20.78 L-22.50 21.65 L-23.00 20.78 L-22.00 20.78 L-22.50 19.92 L-23.00 20.78 L-23.50 19.92 L-24.00 20.78 L-23.00 20.78 L-23.50 21.65 L-22.50 21.65 L-23.00 22.52 L-23.50 21.65 L-24.00 22.52 L-23.00 22.52 L-23.50 23.38 L-22.50 23.38 L-23.00 22.52 L-22.00 22.52 L-22.50 21.65 L-21.50 21.65 L-22.00 22.52 L-21.00 22.52 L-21.50 21.65 L-20.50 21.65 L-21.00 20.78 L-20.00 20.78 L-20.50 21.65 L-19.50 21.65 L-20.00 22.52 L-20.50 21.65 L-21.00 22.52 L-20.00 22.52 L-20.50 23.38 L-19.50 23.38 L-20.00 22.52 L-19.00 22.52 L-19.50 21.65 L-18.50 21.65 L-19.00 22.52 L-18.00 22.52 L-18.50 21.65 L-17.50 21.65 L-18.00 20.78 L-17.00 20.78 L-17.50 21.65 L-16.50 21.65 L-17.00 22.52 L-17.50 21.65 L-18.00 22.52 L-17.00 22.52 L-17.50 23.38 L-16.50 23.38 L-17.00 24.25 L-17.50 23.38 L-18.00 24.25 L-18.50 23.38 L-17.50 23.38 L-18.00 22.52 L-18.50 23.38 L-19.00 22.52 L-19.50 23.38 L-18.50 23.38 L-19.00 24.25 L-18.00 24.25 L-18.50 25.11 L-19.00 24.25 L-19.50 25.11 L-18.50 25.11 L-19.00 25.98 L-18.00 25.98 L-18.50 25.11 L-17.50 25.11 L-18.00 24.25 L-17.00 24.25 L-17.50 25.11 L-16.50 25.11 L-17.00 24.25 L-16.00 24.25 L-16.50 23.38 L-15.50 23.38 L-16.00 24.25 L-15.00 24.25 L-15.50 25.11 L-16.00 24.25 L-16.50 25.11 L-15.50 25.11 L-16.00 25.98 L-15.00 25.98 L-15.50 25.11 L-14.50 25.11 L-15.00 24.25 L-14.00 24.25 L-14.50 25.11 L-13.50 25.11 L-14.00 24.25 L-13.00 24.25 L-13.50 23.38 L-14.00 24.25 L-14.50 23.38 L-15.00 24.25 L-15.50 23.38 L-14.50 23.38 L-15.00 22.52 L-15.50 23.38 L-16.00 22.52 L-16.50 23.38 L-17.00 22.52 L-16.00 22.52 L-16.50 21.65 L-15.50 21.65 L-16.00 22.52 L-15.00 22.52 L-15.50 21.65 L-14.50 21.65 L-15.00 20.78 L-15.50 21.65 L-16.00 20.78 L-16.50 21.65 L-17.00 20.78 L-16.00 20.78 L-16.50 19.92 L-17.00 20.78 L-17.50 19.92 L-18.00 20.78 L-18.50 19.92 L-17.50 19.92 L-18.00 19.05 L-17.00 19.05 L-17.50 19.92 L-16.50 19.92 L-17.00 19.05 L-16.00 19.05 L-16.50 18.19 L-15.50 18.19 L-16.00 19.05 L-15.00 19.05 L-15.50 19.92 L-16.00 19.05 L-16.50 19.92 L-15.50 19.92 L-16.00 20.78 L-15.00 20.78 L-15.50 19.92 L-14.50 19.92 L-15.00 19.05 L-14.00 19.05 L-14.50 19.92 L-13.50 19.92 L-14.00 19.05 L-13.00 19.05 L-13.50 18.19 L-14.00 19.05 L-14.50 18.19 L-15.00 19.05 L-15.50 18.19 L-14.50 18.19 L-15.00 17.32 L-15.50 18.19 L-16.00 17.32 L-16.50 18.19 L-17.00 17.32 L-16.00 17.32 L-16.50 16.45 L-15.50 16.45 L-16.00 17.32 L-15.00 17.32 L-15.50 16.45 L-14.50 16.45 L-15.00 15.59 L-15.50 16.45 L-16.00 15.59 L-16.50 16.45 L-17.00 15.59 L-16.00 15.59 L-16.50 14.72 L-17.00 15.59 L-17.50 14.72 L-18.00 15.59 L-18.50 14.72 L-17.50 14.72 L-18.00 13.86 L-17.00 13.86 L-17.50 14.72 L-16.50 14.72 L-17.00 13.86 L-16.00 13.86 L-16.50 12.99 L-15.50 12.99 L-16.00 13.86 L-15.00 13.86 L-15.50 14.72 L-16.00 13.86 L-16.50 14.72 L-15.50 14.72 L-16.00 15.59 L-15.00 15.59 L-15.50 14.72 L-14.50 14.72 L-15.00 13.86 L-14.00 13.86 L-14.50 14.72 L-13.50 14.72 L-14.00 13.86 L-13.00 13.86 L-13.50 12.99 L-12.50 12.99 L-13.00 13.86 L-12.00 13.86 L-12.50 14.72 L-13.00 13.86 L-13.50 14.72 L-12.50 14.72 L-13.00 15.59 L-12.00 15.59 L-12.50 16.45 L-13.00 15.59 L-13.50 16.45 L-14.00 15.59 L-13.00 15.59 L-13.50 14.72 L-14.00 15.59 L-14.50 14.72 L-15.00 15.59 L-14.00 15.59 L-14.50 16.45 L-13.50 16.45 L-14.00 17.32 L-14.50 16.45 L-15.00 17.32 L-14.00 17.32 L-14.50 18.19 L-13.50 18.19 L-14.00 17.32 L-13.00 17.32 L-13.50 16.45 L-12.50 16.45 L-13.00 17.32 L-12.00 17.32 L-12.50 16.45 L-11.50 16.45 L-12.00 15.59 L-11.00 15.59 L-11.50 16.45 L-10.50 16.45 L-11.00 17.32 L-11.50 16.45 L-12.00 17.32 L-11.00 17.32 L-11.50 18.19 L-10.50 18.19 L-11.00 17.32 L-10.00 17.32 L-10.50 16.45 L-9.50 16.45 L-10.00 17.32 L-9.00 17.32 L-9.50 16.45 L-8.50 16.45 L-9.00 15.59 L-9.50 16.45 L-10.00 15.59 L-10.50 16.45 L-11.00 15.59 L-10.00 15.59 L-10.50 14.72 L-11.00 15.59 L-11.50 14.72 L-12.00 15.59 L-12.50 14.72 L-11.50 14.72 L-12.00 13.86 L-11.00 13.86 L-11.50 14.72 L-10.50 14.72 L-11.00 13.86 L-10.00 13.86 L-10.50 12.99 L-11.00 13.86 L-11.50 12.99 L-12.00 13.86 L-12.50 12.99 L-11.50 12.99 L-12.00 12.12 L-12.50 12.99 L-13.00 12.12 L-13.50 12.99 L-14.00 12.12 L-13.00 12.12 L-13.50 11.26 L-12.50 11.26 L-13.00 12.12 L-12.00 12.12 L-12.50 11.26 L-11.50 11.26 L-12.00 10.39 L-11.00 10.39 L-11.50 11.26 L-10.50 11.26 L-11.00 12.12 L-11.50 11.26 L-12.00 12.12 L-11.00 12.12 L-11.50 12.99 L-10.50 12.99 L-11.00 12.12 L-10.00 12.12 L-10.50 11.26 L-9.50 11.26 L-10.00 12.12 L-9.00 12.12 L-9.50 11.26 L-8.50 11.26 L-9.00 10.39 L-9.50 11.26 L-10.00 10.39 L-10.50 11.26 L-11.00 10.39 L-10.00 10.39 L-10.50 9.53 L-11.00 10.39 L-11.50 9.53 L-12.00 10.39 L-12.50 9.53 L-11.50 9.53 L-12.00 8.66 L-11.00 8.66 L-11.50 9.53 L-10.50 9.53 L-11.00 8.66 L-10.00 8.66 L-10.50 7.79 L-11.00 8.66 L-11.50 7.79 L-12.00 8.66 L-12.50 7.79 L-11.50 7.79 L-12.00 6.93 L-12.50 7.79 L-13.00 6.93 L-13.50 7.79 L-14.00 6.93 L-13.00 6.93 L-13.50 6.06 L-12.50 6.06 L-13.00 6.93 L-12.00 6.93 L-12.50 6.06 L-11.50 6.06 L-12.00 5.20 L-11.00 5.20 L-11.50 6.06 L-10.50 6.06 L-11.00 6.93 L-11.50 6.06 L-12.00 6.93 L-11.00 6.93 L-11.50 7.79 L-10.50 7.79 L-11.00 6.93 L-10.00 6.93 L-10.50 6.06 L-9.50 6.06 L-10.00 6.93 L-9.00 6.93 L-9.50 6.06 L-8.50 6.06 L-9.00 5.20 L-8.00 5.20 L-8.50 6.06 L-7.50 6.06 L-8.00 6.93 L-8.50 6.06 L-9.00 6.93 L-8.00 6.93 L-8.50 7.79 L-7.50 7.79 L-8.00 8.66 L-8.50 7.79 L-9.00 8.66 L-9.50 7.79 L-8.50 7.79 L-9.00 6.93 L-9.50 7.79 L-10.00 6.93 L-10.50 7.79 L-9.50 7.79 L-10.00 8.66 L-9.00 8.66 L-9.50 9.53 L-10.00 8.66 L-10.50 9.53 L-9.50 9.53 L-10.00 10.39 L-9.00 10.39 L-9.50 9.53 L-8.50 9.53 L-9.00 8.66 L-8.00 8.66 L-8.50 9.53 L-7.50 9.53 L-8.00 8.66 L-7.00 8.66 L-7.50 7.79 L-6.50 7.79 L-7.00 8.66 L-6.00 8.66 L-6.50 9.53 L-7.00 8.66 L-7.50 9.53 L-6.50 9.53 L-7.00 10.39 L-6.00 10.39 L-6.50 9.53 L-5.50 9.53 L-6.00 8.66 L-5.00 8.66 L-5.50 9.53 L-4.50 9.53 L-5.00 8.66 L-4.00 8.66 L-4.50 7.79 L-3.50 7.79 L-4.00 8.66 L-3.00 8.66 L-3.50 9.53 L-4.00 8.66 L-4.50 9.53 L-3.50 9.53 L-4.00 10.39 L-3.00 10.39 L-3.50 11.26 L-4.00 10.39 L-4.50 11.26 L-5.00 10.39 L-4.00 10.39 L-4.50 9.53 L-5.00 10.39 L-5.50 9.53 L-6.00 10.39 L-5.00 10.39 L-5.50 11.26 L-4.50 11.26 L-5.00 12.12 L-5.50 11.26 L-6.00 12.12 L-5.00 12.12 L-5.50 12.99 L-4.50 12.99 L-5.00 13.86 L-5.50 12.99 L-6.00 13.86 L-6.50 12.99 L-5.50 12.99 L-6.00 12.12 L-6.50 12.99 L-7.00 12.12 L-7.50 12.99 L-8.00 12.12 L-7.00 12.12 L-7.50 11.26 L-6.50 11.26 L-7.00 12.12 L-6.00 12.12 L-6.50 11.26 L-5.50 11.26 L-6.00 10.39 L-6.50 11.26 L-7.00 10.39 L-7.50 11.26 L-8.00 10.39 L-7.00 10.39 L-7.50 9.53 L-8.00 10.39 L-8.50 9.53 L-9.00 10.39 L-8.00 10.39 L-8.50 11.26 L-7.50 11.26 L-8.00 12.12 L-8.50 11.26 L-9.00 12.12 L-8.00 12.12 L-8.50 12.99 L-7.50 12.99 L-8.00 13.86 L-8.50 12.99 L-9.00 13.86 L-9.50 12.99 L-8.50 12.99 L-9.00 12.12 L-9.50 12.99 L-10.00 12.12 L-10.50 12.99 L-9.50 12.99 L-10.00 13.86 L-9.00 13.86 L-9.50 14.72 L-10.00 13.86 L-10.50 14.72 L-9.50 14.72 L-10.00 15.59 L-9.00 15.59 L-9.50 14.72 L-8.50 14.72 L-9.00 13.86 L-8.00 13.86 L-8.50 14.72 L-7.50 14.72 L-8.00 13.86 L-7.00 13.86 L-7.50 12.99 L-6.50 12.99 L-7.00 13.86 L-6.00 13.86 L-6.50 14.72 L-7.00 13.86 L-7.50 14.72 L-6.50 14.72 L-7.00 15.59 L-6.00 15.59 L-6.50 14.72 L-5.50 14.72 L-6.00 13.86 L-5.00 13.86 L-5.50 14.72 L-4.50 14.72 L-5.00 13.86 L-4.00 13.86 L-4.50 12.99 L-3.50 12.99 L-4.00 13.86 L-3.00 13.86 L-3.50 14.72 L-4.00 13.86 L-4.50 14.72 L-3.50 14.72 L-4.00 15.59 L-3.00 15.59 L-3.50 16.45 L-4.00 15.59 L-4.50 16.45 L-5.00 15.59 L-4.00 15.59 L-4.50 14.72 L-5.00 15.59 L-5.50 14.72 L-6.00 15.59 L-5.00 15.59 L-5.50 16.45 L-4.50 16.45 L-5.00 17.32 L-5.50 16.45 L-6.00 17.32 L-5.00 17.32 L-5.50 18.19 L-4.50 18.19 L-5.00 17.32 L-4.00 17.32 L-4.50 16.45 L-3.50 16.45 L-4.00 17.32 L-3.00 17.32 L-3.50 16.45 L-2.50 16.45 L-3.00 15.59 L-2.00 15.59 L-2.50 16.45 L-1.50 16.45 L-2.00 17.32 L-2.50 16.45 L-3.00 17.32 L-2.00 17.32 L-2.50 18.19 L-1.50 18.19 L-2.00 17.32 L-1.00 17.32 L-1.50 16.45 L-0.50 16.45 L-1.00 17.32 L0.00 17.32 L-0.50 16.45 L0.50 16.45 L0.00 15.59 L-0.50 16.45 L-1.00 15.59 L-1.50 16.45 L-2.00 15.59 L-1.00 15.59 L-1.50 14.72 L-2.00 15.59 L-2.50 14.72 L-3.00 15.59 L-3.50 14.72 L-2.50 14.72 L-3.00 13.86 L-2.00 13.86 L-2.50 14.72 L-1.50 14.72 L-2.00 13.86 L-1.00 13.86 L-1.50 12.99 L-2.00 13.86 L-2.50 12.99 L-3.00 13.86 L-3.50 12.99 L-2.50 12.99 L-3.00 12.12 L-3.50 12.99 L-4.00 12.12 L-4.50 12.99 L-5.00 12.12 L-4.00 12.12 L-4.50 11.26 L-3.50 11.26 L-4.00 12.12 L-3.00 12.12 L-3.50 11.26 L-2.50 11.26 L-3.00 10.39 L-2.00 10.39 L-2.50 11.26 L-1.50 11.26 L-2.00 12.12 L-2.50 11.26 L-3.00 12.12 L-2.00 12.12 L-2.50 12.99 L-1.50 12.99 L-2.00 12.12 L-1.00 12.12 L-1.50 11.26 L-0.50 11.26 L-1.00 12.12 L0.00 12.12 L-0.50 11.26 L0.50 11.26 L0.00 10.39 L-0.50 11.26 L-1.00 10.39 L-1.50 11.26 L-2.00 10.39 L-1.00 10.39 L-1.50 9.53 L-2.00 10.39 L-2.50 9.53 L-3.00 10.39 L-3.50 9.53 L-2.50 9.53 L-3.00 8.66 L-2.00 8.66 L-2.50 9.53 L-1.50 9.53 L-2.00 8.66 L-1.00 8.66 L-1.50 7.79 L-2.00 8.66 L-2.50 7.79 L-3.00 8.66 L-3.50 7.79 L-2.50 7.79 L-3.00 6.93 L-3.50 7.79 L-4.00 6.93 L-4.50 7.79 L-5.00 6.93 L-4.00 6.93 L-4.50 6.06 L-3.50 6.06 L-4.00 6.93 L-3.00 6.93 L-3.50 6.06 L-2.50 6.06 L-3.00 5.20 L-2.00 5.20 L-2.50 6.06 L-1.50 6.06 L-2.00 6.93 L-2.50 6.06 L-3.00 6.93 L-2.00 6.93 L-2.50 7.79 L-1.50 7.79 L-2.00 6.93 L-1.00 6.93 L-1.50 6.06 L-0.50 6.06 L-1.00 6.93 L0.00 6.93 L-0.50 6.06 L0.50 6.06 L0.00 5.20 L1.00 5.20 L0.50 6.06 L1.50 6.06 L1.00 6.93 L0.50 6.06 L0.00 6.93 L1.00 6.93 L0.50 7.79 L1.50 7.79 L1.00 8.66 L0.50 7.79 L0.00 8.66 L-0.50 7.79 L0.50 7.79 L-0.00 6.93 L-0.50 7.79 L-1.00 6.93 L-1.50 7.79 L-0.50 7.79 L-1.00 8.66 L0.00 8.66 L-0.50 9.53 L-1.00 8.66 L-1.50 9.53 L-0.50 9.53 L-1.00 10.39 L0.00 10.39 L-0.50 9.53 L0.50 9.53 L0.00 8.66 L1.00 8.66 L0.50 9.53 L1.50 9.53 L1.00 8.66 L2.00 8.66 L1.50 7.79 L2.50 7.79 L2.00 8.66 L3.00 8.66 L2.50 9.53 L2.00 8.66 L1.50 9.53 L2.50 9.53 L2.00 10.39 L3.00 10.39 L2.50 9.53 L3.50 9.53 L3.00 8.66 L4.00 8.66 L3.50 9.53 L4.50 9.53 L4.00 8.66 L5.00 8.66 L4.50 7.79 L4.00 8.66 L3.50 7.79 L3.00 8.66 L2.50 7.79 L3.50 7.79 L3.00 6.93 L2.50 7.79 L2.00 6.93 L1.50 7.79 L1.00 6.93 L2.00 6.93 L1.50 6.06 L2.50 6.06 L2.00 6.93 L3.00 6.93 L2.50 6.06 L3.50 6.06 L3.00 5.20 L2.50 6.06 L2.00 5.20 L1.50 6.06 L1.00 5.20 L2.00 5.20 L1.50 4.33 L1.00 5.20 L0.50 4.33 L-0.00 5.20 L-0.50 4.33 L0.50 4.33 L0.00 3.46 L1.00 3.46 L0.50 4.33 L1.50 4.33 L1.00 3.46 L2.00 3.46 L1.50 2.60 L2.50 2.60 L2.00 3.46 L3.00 3.46 L2.50 4.33 L2.00 3.46 L1.50 4.33 L2.50 4.33 L2.00 5.20 L3.00 5.20 L2.50 4.33 L3.50 4.33 L3.00 3.46 L4.00 3.46 L3.50 4.33 L4.50 4.33 L4.00 3.46 L5.00 3.46 L4.50 2.60 L4.00 3.46 L3.50 2.60 L3.00 3.46 L2.50 2.60 L3.50 2.60 L3.00 1.73 L2.50 2.60 L2.00 1.73 L1.50 2.60 L1.00 1.73 L2.00 1.73 L1.50 0.87 L2.50 0.87 L2.00 1.73 L3.00 1.73 L2.50 0.87 L3.50 0.87 L3.00 0.00 L2.50 0.87 L2.00 0.00 L1.50 0.87 L1.00 0.00 L2.00 0.00 L1.50 -0.87 L1.00 0.00 L0.50 -0.87 L-0.00 0.00 "/>
</g>
</svg>

