<svg viewBox="0 0 400.000000 629.968567" xmlns="http://www.w3.org/2000/svg" version="1.1">
<!-- SEED 50927578 -->
<rect width="400.000000" height="629.968567" fill="#DDFFAA" fill-opacity="1.000000"/>
<g transform="scale(8.798991,9.245378) translate(22.729879,64.132454) ">
<path stroke="#000000" stroke-opacity="1.000000" stroke-width="0.200000" fill="none" fill-opacity="1" d="M0.00 0.00 L-0.00 -1.00 L-0.00 -2.00 L-0.00 -3.00 L-0.00 -4.00 L-0.00 -5.00 L-0.00 -6.00 L-0.00 -7.00 L-0.00 -8.00 L-0.00 -9.00 L-0.00 -10.00 L-0.00 -11.00 L-0.00 -12.00 L-0.00 -13.00 L-0.00 -14.00 L-0.00 -15.00 L-0.00 -16.00 L-0.00 -17.00 L-0.00 -18.00 L-0.00 -19.00 L-0.00 -20.00 L-0.00 -21.00 L-0.00 -22.00 L-0.00 -23.00 L-0.00 -24.00 L-0.00 -25.00 L-0.00 -26.00 L-0.00 -27.00 L-0.00 -28.00 L-0.00 -29.00 L-0.00 -30.00 L-0.00 -31.00 L-0.00 -32.00 L-0.42 -32.91 L-0.85 -33.81 L-1.27 -34.72 L-1.69 -35.63 L-2.11 -36.53 L-2.54 -37.44 L-2.96 -38.34 L-3.38 -39.25 L-3.80 -40.16 L-4.23 -41.06 L-4.65 -41.97 L-5.07 -42.88 L-5.49 -43.78 L-5.92 -44.69 L-6.34 -45.59 L-6.76 -46.50 L-7.53 -47.14 L-8.29 -47.79 L-9.06 -48.43 L-9.83 -49.07 L-10.59 -49.71 L-11.36 -50.36 L-12.12 -51.00 L-12.89 -51.64 L-13.86 -51.90 L-14.82 -52.16 L-15.79 -52.42 L-16.75 -52.68 L-17.74 -52.50 L-18.72 -52.33 "/>
<path stroke="#000000" stroke-opacity="1.000000" stroke-width="0.200000" fill="none" fill-opacity="1" d="M-0.00 -16.00 L0.42 -16.91 L0.85 -17.81 L1.27 -18.72 L1.69 -19.63 L2.11 -20.53 L2.54 -21.44 L2.96 -22.34 L3.38 -23.25 L3.80 -24.16 L4.23 -25.06 L4.65 -25.97 L5.07 -26.88 L5.49 -27.78 L5.92 -28.69 L6.34 -29.59 L6.76 -30.50 L6.76 -31.50 L6.76 -32.50 L6.76 -33.50 L6.76 -34.50 L6.76 -35.50 L6.76 -36.50 L6.76 -37.50 L6.76 -38.50 L6.34 -39.41 L5.92 -40.31 L5.49 -41.22 L5.07 -42.13 L4.31 -42.77 L3.54 -43.41 "/>
<path stroke="#000000" stroke-opacity="1.000000" stroke-width="0.200000" fill="none" fill-opacity="1" d="M3.38 -23.25 L4.15 -23.89 L4.91 -24.54 L5.68 -25.18 L6.45 -25.82 L7.21 -26.46 L7.98 -27.11 L8.74 -27.75 L9.51 -28.39 L9.93 -29.30 L10.35 -30.21 L10.78 -31.11 L11.20 -32.02 L11.20 -33.02 L11.20 -34.02 "/>
<path stroke="#000000" stroke-opacity="1.000000" stroke-width="0.200000" fill="none" fill-opacity="1" d="M6.45 -25.82 L7.41 -26.08 L8.38 -26.34 L9.34 -26.60 L10.31 -26.86 L11.07 -27.50 L11.84 -28.14 "/>
<path stroke="#000000" stroke-opacity="1.000000" stroke-width="0.200000" fill="none" fill-opacity="1" d="M8.38 -26.34 L9.36 -26.17 L10.35 -25.99 "/>
<path stroke="#000000" stroke-opacity="1.000000" stroke-width="0.200000" fill="none" fill-opacity="1" d="M10.31 -26.86 L11.29 -26.68 L12.28 -26.51 "/>
<path stroke="#000000" stroke-opacity="1.000000" stroke-width="0.200000" fill="none" fill-opacity="1" d="M9.51 -28.39 L10.48 -28.65 L11.44 -28.91 L12.41 -29.17 L13.37 -29.43 L14.14 -30.07 L14.91 -30.71 "/>
<path stroke="#000000" stroke-opacity="1.000000" stroke-width="0.200000" fill="none" fill-opacity="1" d="M11.44 -28.91 L12.43 -28.74 L13.41 -28.56 "/>
<path stroke="#000000" stroke-opacity="1.000000" stroke-width="0.200000" fill="none" fill-opacity="1" d="M13.37 -29.43 L14.36 -29.25 L15.34 -29.08 "/>
<path stroke="#000000" stroke-opacity="1.000000" stroke-width="0.200000" fill="none" fill-opacity="1" d="M10.35 -30.21 L11.12 -30.85 L11.89 -31.49 "/>
<path stroke="#000000" stroke-opacity="1.000000" stroke-width="0.200000" fill="none" fill-opacity="1" d="M11.20 -32.02 L11.97 -32.66 L12.73 -33.30 "/>
<path stroke="#000000" stroke-opacity="1.000000" stroke-width="0.200000" fill="none" fill-opacity="1" d="M6.76 -30.50 L7.53 -31.14 L8.29 -31.79 L9.06 -32.43 L9.83 -33.07 L10.59 -33.71 L11.36 -34.36 L12.12 -35.00 L12.89 -35.64 L13.31 -36.55 L13.74 -37.46 L14.16 -38.36 L14.58 -39.27 L14.58 -40.27 L14.58 -41.27 "/>
<path stroke="#000000" stroke-opacity="1.000000" stroke-width="0.200000" fill="none" fill-opacity="1" d="M9.83 -33.07 L10.79 -33.33 L11.76 -33.59 L12.72 -33.85 L13.69 -34.11 L14.46 -34.75 L15.22 -35.39 "/>
<path stroke="#000000" stroke-opacity="1.000000" stroke-width="0.200000" fill="none" fill-opacity="1" d="M11.76 -33.59 L12.74 -33.42 L13.73 -33.24 "/>
<path stroke="#000000" stroke-opacity="1.000000" stroke-width="0.200000" fill="none" fill-opacity="1" d="M13.69 -34.11 L14.67 -33.93 L15.66 -33.76 "/>
<path stroke="#000000" stroke-opacity="1.000000" stroke-width="0.200000" fill="none" fill-opacity="1" d="M12.89 -35.64 L13.86 -35.90 L14.82 -36.16 L15.79 -36.42 L16.75 -36.68 L17.52 -37.32 L18.29 -37.96 "/>
<path stroke="#000000" stroke-opacity="1.000000" stroke-width="0.200000" fill="none" fill-opacity="1" d="M14.82 -36.16 L15.81 -35.99 L16.79 -35.81 "/>
<path stroke="#000000" stroke-opacity="1.000000" stroke-width="0.200000" fill="none" fill-opacity="1" d="M16.75 -36.68 L17.74 -36.50 L18.72 -36.33 "/>
<path stroke="#000000" stroke-opacity="1.000000" stroke-width="0.200000" fill="none" fill-opacity="1" d="M13.74 -37.46 L14.50 -38.10 L15.27 -38.74 "/>
<path stroke="#000000" stroke-opacity="1.000000" stroke-width="0.200000" fill="none" fill-opacity="1" d="M14.58 -39.27 L15.35 -39.91 L16.11 -40.55 "/>
<path stroke="#000000" stroke-opacity="1.000000" stroke-width="0.200000" fill="none" fill-opacity="1" d="M6.76 -34.50 L7.18 -35.41 L7.61 -36.31 L8.03 -37.22 L8.45 -38.13 L8.45 -39.13 L8.45 -40.13 "/>
<path stroke="#000000" stroke-opacity="1.000000" stroke-width="0.200000" fill="none" fill-opacity="1" d="M7.61 -36.31 L8.37 -36.96 L9.14 -37.60 "/>
<path stroke="#000000" stroke-opacity="1.000000" stroke-width="0.200000" fill="none" fill-opacity="1" d="M8.45 -38.13 L9.22 -38.77 L9.98 -39.41 "/>
<path stroke="#000000" stroke-opacity="1.000000" stroke-width="0.200000" fill="none" fill-opacity="1" d="M6.76 -38.50 L7.18 -39.41 L7.61 -40.31 L8.03 -41.22 L8.45 -42.13 L8.45 -43.13 L8.45 -44.13 "/>
<path stroke="#000000" stroke-opacity="1.000000" stroke-width="0.200000" fill="none" fill-opacity="1" d="M7.61 -40.31 L8.37 -40.96 L9.14 -41.60 "/>
<path stroke="#000000" stroke-opacity="1.000000" stroke-width="0.200000" fill="none" fill-opacity="1" d="M8.45 -42.13 L9.22 -42.77 L9.98 -43.41 "/>
<path stroke="#000000" stroke-opacity="1.000000" stroke-width="0.200000" fill="none" fill-opacity="1" d="M5.92 -40.31 L5.92 -41.31 L5.92 -42.31 "/>
<path stroke="#000000" stroke-opacity="1.000000" stroke-width="0.200000" fill="none" fill-opacity="1" d="M5.07 -42.13 L5.07 -43.13 L5.07 -44.13 "/>
<path stroke="#000000" stroke-opacity="1.000000" stroke-width="0.200000" fill="none" fill-opacity="1" d="M-0.00 -32.00 L0.42 -32.91 L0.85 -33.81 L1.27 -34.72 L1.69 -35.63 L2.11 -36.53 L2.54 -37.44 L2.96 -38.34 L3.38 -39.25 L3.80 -40.16 L4.23 -41.06 L4.65 -41.97 L5.07 -42.88 L5.49 -43.78 L5.92 -44.69 L6.34 -45.59 L6.76 -46.50 L6.76 -47.50 L6.76 -48.50 L6.76 -49.50 L6.76 -50.50 L6.76 -51.50 L6.76 -52.50 L6.76 -53.50 L6.76 -54.50 L6.34 -55.41 L5.92 -56.31 L5.49 -57.22 L5.07 -58.13 L4.31 -58.77 L3.54 -59.41 "/>
<path stroke="#000000" stroke-opacity="1.000000" stroke-width="0.200000" fill="none" fill-opacity="1" d="M3.38 -39.25 L4.15 -39.89 L4.91 -40.54 L5.68 -41.18 L6.45 -41.82 L7.21 -42.46 L7.98 -43.11 L8.74 -43.75 L9.51 -44.39 L9.93 -45.30 L10.35 -46.21 L10.78 -47.11 L11.20 -48.02 L11.20 -49.02 L11.20 -50.02 "/>
<path stroke="#000000" stroke-opacity="1.000000" stroke-width="0.200000" fill="none" fill-opacity="1" d="M6.45 -41.82 L7.41 -42.08 L8.38 -42.34 L9.34 -42.60 L10.31 -42.86 L11.07 -43.50 L11.84 -44.14 "/>
<path stroke="#000000" stroke-opacity="1.000000" stroke-width="0.200000" fill="none" fill-opacity="1" d="M8.38 -42.34 L9.36 -42.17 L10.35 -41.99 "/>
<path stroke="#000000" stroke-opacity="1.000000" stroke-width="0.200000" fill="none" fill-opacity="1" d="M10.31 -42.86 L11.29 -42.68 L12.28 -42.51 "/>
<path stroke="#000000" stroke-opacity="1.000000" stroke-width="0.200000" fill="none" fill-opacity="1" d="M9.51 -44.39 L10.48 -44.65 L11.44 -44.91 L12.41 -45.17 L13.37 -45.43 L14.14 -46.07 L14.91 -46.71 "/>
<path stroke="#000000" stroke-opacity="1.000000" stroke-width="0.200000" fill="none" fill-opacity="1" d="M11.44 -44.91 L12.43 -44.74 L13.41 -44.56 "/>
<path stroke="#000000" stroke-opacity="1.000000" stroke-width="0.200000" fill="none" fill-opacity="1" d="M13.37 -45.43 L14.36 -45.25 L15.34 -45.08 "/>
<path stroke="#000000" stroke-opacity="1.000000" stroke-width="0.200000" fill="none" fill-opacity="1" d="M10.35 -46.21 L11.12 -46.85 L11.89 -47.49 "/>
<path stroke="#000000" stroke-opacity="1.000000" stroke-width="0.200000" fill="none" fill-opacity="1" d="M11.20 -48.02 L11.97 -48.66 L12.73 -49.30 "/>
<path stroke="#000000" stroke-opacity="1.000000" stroke-width="0.200000" fill="none" fill-opacity="1" d="M6.76 -46.50 L7.53 -47.14 L8.29 -47.79 L9.06 -48.43 L9.83 -49.07 L10.59 -49.71 L11.36 -50.36 L12.12 -51.00 L12.89 -51.64 L13.31 -52.55 L13.74 -53.46 L14.16 -54.36 L14.58 -55.27 L14.58 -56.27 L14.58 -57.27 "/>
<path stroke="#000000" stroke-opacity="1.000000" stroke-width="0.200000" fill="none" fill-opacity="1" d="M9.83 -49.07 L10.79 -49.33 L11.76 -49.59 L12.72 -49.85 L13.69 -50.11 L14.46 -50.75 L15.22 -51.39 "/>
<path stroke="#000000" stroke-opacity="1.000000" stroke-width="0.200000" fill="none" fill-opacity="1" d="M11.76 -49.59 L12.74 -49.42 L13.73 -49.24 "/>
<path stroke="#000000" stroke-opacity="1.000000" stroke-width="0.200000" fill="none" fill-opacity="1" d="M13.69 -50.11 L14.67 -49.93 L15.66 -49.76 "/>
<path stroke="#000000" stroke-opacity="1.000000" stroke-width="0.200000" fill="none" fill-opacity="1" d="M12.89 -51.64 L13.86 -51.90 L14.82 -52.16 L15.79 -52.42 L16.75 -52.68 L17.52 -53.32 L18.29 -53.96 "/>
<path stroke="#000000" stroke-opacity="1.000000" stroke-width="0.200000" fill="none" fill-opacity="1" d="M14.82 -52.16 L15.81 -51.99 L16.79 -51.81 "/>
<path stroke="#000000" stroke-opacity="1.000000" stroke-width="0.200000" fill="none" fill-opacity="1" d="M16.75 -52.68 L17.74 -52.50 L18.72 -52.33 "/>
<path stroke="#000000" stroke-opacity="1.000000" stroke-width="0.200000" fill="none" fill-opacity="1" d="M13.74 -53.46 L14.50 -54.10 L15.27 -54.74 "/>
<path stroke="#000000" stroke-opacity="1.000000" stroke-width="0.200000" fill="none" fill-opacity="1" d="M14.58 -55.27 L15.35 -55.91 L16.11 -56.55 "/>
<path stroke="#000000" stroke-opacity="1.000000" stroke-width="0.200000" fill="none" fill-opacity="1" d="M6.76 -50.50 L7.18 -51.41 L7.61 -52.31 L8.03 -53.22 L8.45 -54.13 L8.45 -55.13 L8.45 -56.13 "/>
<path stroke="#000000" stroke-opacity="1.000000" stroke-width="0.200000" fill="none" fill-opacity="1" d="M7.61 -52.31 L8.37 -52.96 L9.14 -53.60 "/>
<path stroke="#000000" stroke-opacity="1.000000" stroke-width="0.200000" fill="none" fill-opacity="1" d="M8.45 -54.13 L9.22 -54.77 L9.98 -55.41 "/>
<path stroke="#000000" stroke-opacity="1.000000" stroke-width="0.200000" fill="none" fill-opacity="1" d="M6.76 -54.50 L7.18 -55.41 L7.61 -56.31 L8.03 -57.22 L8.45 -58.13 L8.45 -59.13 L8.45 -60.13 "/>
<path stroke="#000000" stroke-opacity="1.000000" stroke-width="0.200000" fill="none" fill-opacity="1" d="M7.61 -56.31 L8.37 -56.96 L9.14 -57.60 "/>
<path stroke="#000000" stroke-opacity="1.000000" stroke-width="0.200000" fill="none" fill-opacity="1" d="M8.45 -58.13 L9.22 -58.77 L9.98 -59.41 "/>
<path stroke="#000000" stroke-opacity="1.000000" stroke-width="0.200000" fill="none" fill-opacity="1" d="M5.92 -56.31 L5.92 -57.31 L5.92 -58.31 "/>
<path stroke="#000000" stroke-opacity="1.000000" stroke-width="0.200000" fill="none" fill-opacity="1" d="M5.07 -58.13 L5.07 -59.13 L5.07 -60.13 "/>
<path stroke="#000000" stroke-opacity="1.000000" stroke-width="0.200000" fill="none" fill-opacity="1" d="M-3.38 -39.25 L-3.38 -40.25 L-3.38 -41.25 L-3.38 -42.25 L-3.38 -43.25 L-3.38 -44.25 L-3.38 -45.25 L-3.38 -46.25 L-3.38 -47.25 L-3.80 -48.16 L-4.23 -49.06 L-4.65 -49.97 L-5.07 -50.88 L-5.84 -51.52 L-6.60 -52.16 "/>
<path stroke="#000000" stroke-opacity="1.000000" stroke-width="0.200000" fill="none" fill-opacity="1" d="M-3.38 -43.25 L-2.96 -44.16 L-2.54 -45.06 L-2.11 -45.97 L-1.69 -46.88 L-1.69 -47.88 L-1.69 -48.88 "/>
<path stroke="#000000" stroke-opacity="1.000000" stroke-width="0.200000" fill="none" fill-opacity="1" d="M-2.54 -45.06 L-1.77 -45.71 L-1.00 -46.35 "/>
<path stroke="#000000" stroke-opacity="1.000000" stroke-width="0.200000" fill="none" fill-opacity="1" d="M-1.69 -46.88 L-0.92 -47.52 L-0.16 -48.16 "/>
<path stroke="#000000" stroke-opacity="1.000000" stroke-width="0.200000" fill="none" fill-opacity="1" d="M-3.38 -47.25 L-2.96 -48.16 L-2.54 -49.06 L-2.11 -49.97 L-1.69 -50.88 L-1.69 -51.88 L-1.69 -52.88 "/>
<path stroke="#000000" stroke-opacity="1.000000" stroke-width="0.200000" fill="none" fill-opacity="1" d="M-2.54 -49.06 L-1.77 -49.71 L-1.00 -50.35 "/>
<path stroke="#000000" stroke-opacity="1.000000" stroke-width="0.200000" fill="none" fill-opacity="1" d="M-1.69 -50.88 L-0.92 -51.52 L-0.16 -52.16 "/>
<path stroke="#000000" stroke-opacity="1.000000" stroke-width="0.200000" fill="none" fill-opacity="1" d="M-4.23 -49.06 L-4.23 -50.06 L-4.23 -51.06 "/>
<path stroke="#000000" stroke-opacity="1.000000" stroke-width="0.200000" fill="none" fill-opacity="1" d="M-5.07 -50.88 L-5.07 -51.88 L-5.07 -52.88 "/>
<path stroke="#000000" stroke-opacity="1.000000" stroke-width="0.200000" fill="none" fill-opacity="1" d="M-6.76 -46.50 L-6.76 -47.50 L-6.76 -48.50 L-6.76 -49.50 L-6.76 -50.50 L-6.76 -51.50 L-6.76 -52.50 L-6.76 -53.50 L-6.76 -54.50 L-7.18 -55.41 L-7.61 -56.31 L-8.03 -57.22 L-8.45 -58.13 L-9.22 -58.77 L-9.98 -59.41 "/>
<path stroke="#000000" stroke-opacity="1.000000" stroke-width="0.200000" fill="none" fill-opacity="1" d="M-6.76 -50.50 L-6.34 -51.41 L-5.92 -52.31 L-5.49 -53.22 L-5.07 -54.13 L-5.07 -55.13 L-5.07 -56.13 "/>
<path stroke="#000000" stroke-opacity="1.000000" stroke-width="0.200000" fill="none" fill-opacity="1" d="M-5.92 -52.31 L-5.15 -52.96 L-4.38 -53.60 "/>
<path stroke="#000000" stroke-opacity="1.000000" stroke-width="0.200000" fill="none" fill-opacity="1" d="M-5.07 -54.13 L-4.31 -54.77 L-3.54 -55.41 "/>
<path stroke="#000000" stroke-opacity="1.000000" stroke-width="0.200000" fill="none" fill-opacity="1" d="M-6.76 -54.50 L-6.34 -55.41 L-5.92 -56.31 L-5.49 -57.22 L-5.07 -58.13 L-5.07 -59.13 L-5.07 -60.13 "/>
<path stroke="#000000" stroke-opacity="1.000000" stroke-width="0.200000" fill="none" fill-opacity="1" d="M-5.92 -56.31 L-5.15 -56.96 L-4.38 -57.60 "/>
<path stroke="#000000" stroke-opacity="1.000000" stroke-width="0.200000" fill="none" fill-opacity="1" d="M-5.07 -58.13 L-4.31 -58.77 L-3.54 -59.41 "/>
<path stroke="#000000" stroke-opacity="1.000000" stroke-width="0.200000" fill="none" fill-opacity="1" d="M-7.61 -56.31 L-7.61 -57.31 L-7.61 -58.31 "/>
<path stroke="#000000" stroke-opacity="1.000000" stroke-width="0.200000" fill="none" fill-opacity="1" d="M-8.45 -58.13 L-8.45 -59.13 L-8.45 -60.13 "/>
<path stroke="#000000" stroke-opacity="1.000000" stroke-width="0.200000" fill="none" fill-opacity="1" d="M-9.83 -49.07 L-10.25 -49.98 L-10.67 -50.88 L-11.09 -51.79 L-11.52 -52.70 L-12.28 -53.34 L-13.05 -53.98 "/>
<path stroke="#000000" stroke-opacity="1.000000" stroke-width="0.200000" fill="none" fill-opacity="1" d="M-10.67 -50.88 L-10.67 -51.88 L-10.67 -52.88 "/>
<path stroke="#000000" stroke-opacity="1.000000" stroke-width="0.200000" fill="none" fill-opacity="1" d="M-11.52 -52.70 L-11.52 -53.70 L-11.52 -54.70 "/>
<path stroke="#000000" stroke-opacity="1.000000" stroke-width="0.200000" fill="none" fill-opacity="1" d="M-12.89 -51.64 L-13.31 -52.55 L-13.74 -53.46 L-14.16 -54.36 L-14.58 -55.27 L-15.35 -55.91 L-16.11 -56.55 "/>
<path stroke="#000000" stroke-opacity="1.000000" stroke-width="0.200000" fill="none" fill-opacity="1" d="M-13.74 -53.46 L-13.74 -54.46 L-13.74 -55.46 "/>
<path stroke="#000000" stroke-opacity="1.000000" stroke-width="0.200000" fill="none" fill-opacity="1" d="M-14.58 -55.27 L-14.58 -56.27 L-14.58 -57.27 "/>
<path stroke="#000000" stroke-opacity="1.000000" stroke-width="0.200000" fill="none" fill-opacity="1" d="M-14.82 -52.16 L-15.59 -52.80 L-16.35 -53.45 "/>
<path stroke="#000000" stroke-opacity="1.000000" stroke-width="0.200000" fill="none" fill-opacity="1" d="M-16.75 -52.68 L-17.52 -53.32 L-18.29 -53.96 "/>
</g>
</svg>

